<svg xmlns="http://www.w3.org/2000/svg" width="184.031" height="78.001" viewBox="0 0 184.031 78.001">
  <g id="Grupo_105592" data-name="Grupo 105592" transform="translate(-2161.289 -463.918)">
    <path id="Trazado_136388" data-name="Trazado 136388" d="M2335.843,523.546H2171s11.608-12.77,22.057-47.6c0,0,4.063-21.476,26.119-2.9C2219.176,473.048,2270.254,516,2335.843,523.546Z" transform="translate(0.916)" fill="#f6fbd1"/>
    <path id="Trazado_136382" data-name="Trazado 136382" d="M2335.843,523.546H2171s11.608-12.77,22.057-47.6c0,0,4.063-21.476,26.119-2.9C2219.176,473.048,2270.254,516,2335.843,523.546Z" transform="translate(0.916 0)" fill="none" stroke="#12263f" stroke-linecap="round" stroke-miterlimit="10" stroke-width="3"/>
    <path id="Trazado_136383" data-name="Trazado 136383" d="M2222.626,517.5l-8.126,6.965h15.091Z" transform="translate(7.914 7.368)" fill="#529d2e"/>
    <line id="Línea_362" data-name="Línea 362" x1="5.804" y2="5.804" transform="translate(2206.162 533.994)" fill="none" stroke="#529d2e" stroke-linecap="round" stroke-miterlimit="10" stroke-width="3"/>
    <line id="Línea_363" data-name="Línea 363" x1="5.804" y2="5.804" transform="translate(2225.896 533.994)" fill="none" stroke="#529d2e" stroke-linecap="round" stroke-miterlimit="10" stroke-width="3"/>
    <line id="Línea_364" data-name="Línea 364" x1="5.804" y2="5.804" transform="translate(2245.631 533.994)" fill="none" stroke="#529d2e" stroke-linecap="round" stroke-miterlimit="10" stroke-width="3"/>
    <path id="Trazado_136384" data-name="Trazado 136384" d="M2168.531,509.5l-.012.1a27.782,27.782,0,0,0,3.446,17.232l.049.085" transform="translate(-2.517 7.081)" fill="none" stroke="#b0c710" stroke-linecap="round" stroke-miterlimit="10" stroke-width="2"/>
    <path id="Trazado_136385" data-name="Trazado 136385" d="M2165.531,510.5l-.011.1a27.782,27.782,0,0,0,3.445,17.232l.049.085" transform="translate(-3 7.242)" fill="none" stroke="#b0c710" stroke-linecap="round" stroke-miterlimit="10" stroke-width="2"/>
    <path id="Trazado_136386" data-name="Trazado 136386" d="M2316.788,508.5l.011.1a27.783,27.783,0,0,1-3.447,17.232l-.048.085" transform="translate(23.808 6.92)" fill="none" stroke="#b0c710" stroke-linecap="round" stroke-miterlimit="10" stroke-width="2"/>
    <path id="Trazado_136387" data-name="Trazado 136387" d="M2319.787,509.5l.012.1a27.783,27.783,0,0,1-3.447,17.232l-.048.085" transform="translate(24.291 7.081)" fill="none" stroke="#b0c710" stroke-linecap="round" stroke-miterlimit="10" stroke-width="2"/>
    <line id="Línea_361" data-name="Línea 361" x2="48.756" transform="translate(2206.162 533.994)" fill="none" stroke="#12263f" stroke-linecap="round" stroke-miterlimit="10" stroke-width="3"/>
  </g>
</svg>
