<svg xmlns="http://www.w3.org/2000/svg" width="161.031" height="70.134" viewBox="0 0 161.031 70.134">
  <g id="Grupo_105594" data-name="Grupo 105594" transform="translate(-1984.5 -611)">
    <g id="Grupo_105595" data-name="Grupo 105595" transform="translate(1984.5 612.5)">
      <path id="Trazado_136389" data-name="Trazado 136389" d="M2081.783,629.567h-.007a17.346,17.346,0,0,0-34.688,0h-.007s-7.4,50.064-62.58,50.064h160.366C2138.758,679.565,2090.308,677.523,2081.783,629.567Z" transform="translate(-1984.5 -612.5)" fill="#e1f3d7"/>
      <path id="Trazado_136390" data-name="Trazado 136390" d="M2267.019,730.5h-.634C2266.8,730.5,2267.019,730.5,2267.019,730.5Z" transform="translate(-2106.019 -663.369)" fill="#e1f3d7"/>
    </g>
    <path id="Trazado_136391" data-name="Trazado 136391" d="M2129.2,629.567c0-13.115-7.856-17.067-17.344-17.067a17.348,17.348,0,0,0-17.344,17.067h-.007v50.064h34.7V629.567Z" transform="translate(-47.42)" fill="#67c53a"/>
    <g id="Grupo_105593" data-name="Grupo 105593" transform="translate(1984.5 612.5)">
      <path id="Trazado_136389-2" data-name="Trazado 136389" d="M2081.783,629.567c0-17.439-7.864-17.067-17.352-17.067s-17.344,2.288-17.344,17.067c0,0-7.4,50.064-62.587,50.064h160.366C2138.758,679.565,2090.308,677.523,2081.783,629.567Z" transform="translate(-1984.5 -612.5)" fill="none" stroke="#12263f" stroke-miterlimit="10" stroke-width="3"/>
      <path id="Trazado_136390-2" data-name="Trazado 136390" d="M2267.019,730.5h-.634C2266.8,730.5,2267.019,730.5,2267.019,730.5Z" transform="translate(-2106.019 -663.369)" fill="none" stroke="#12263f" stroke-miterlimit="10" stroke-width="3"/>
    </g>
  </g>
</svg>
