<svg xmlns="http://www.w3.org/2000/svg" width="262" height="215.022" viewBox="0 0 262 215.022">
  <g id="Grupo_97484" data-name="Grupo 97484" transform="translate(-637.554 -505.557)">
    <g id="Grupo_97483" data-name="Grupo 97483" transform="translate(637.554 505.557)">
      <path id="Trazado_131296" data-name="Trazado 131296" d="M839.976,606.761a101.211,101.211,0,1,1-102.427-101.2q-.07.826-.07,1.671a19.742,19.742,0,0,0,38.711,5.467A101.244,101.244,0,0,1,839.976,606.761Z" transform="translate(-637.554 -505.557)" fill="#fdab64"/>
      <ellipse id="Elipse_5226" data-name="Elipse 5226" cx="118.858" cy="6.804" rx="118.858" ry="6.804" transform="translate(16.818 201.414)" fill="#fd963d"/>
      <path id="Trazado_131297" data-name="Trazado 131297" d="M1101.146,3160.238c-1.443-3.1-6.984-10.364-17.347-12.617-1.7-.369-5.46-1.188-6.825-.1-2.711,2.165,9.391,10.612,7.821,11.737-1.67,1.2-15.922-7.705-18.343-6.26-1.137.679,9.829,6.2,9.527,13.693a8.845,8.845,0,0,1-1.28,4.108h29.6S1104.7,3167.867,1101.146,3160.238Z" transform="translate(-1036.666 -2964.016)" fill="#fd963d"/>
      <path id="Trazado_131298" data-name="Trazado 131298" d="M2418.783,1918.739h94.89a69.455,69.455,0,1,0-94.89,0Z" transform="translate(-2274.918 -1708.998)" fill="#fed5b1"/>
      <path id="Trazado_131299" data-name="Trazado 131299" d="M3582.766,1766.992s-12.9-3.568-17.4,50.943c-2.516,30.522-4.345,46.4-5.468,54.465l-.695-.025c2.27-23.126,5.88-74.632-5.391-87.279,0,0-11.408-.2-3.511,45.743,3.585,20.856,5.494,33.672,6.509,41.45l-.747-.027c-6.165-18.026-19.663-53.754-31.411-59,0,0-8.242,3.54,12.246,33.925,7.884,11.693,13.038,19.63,16.4,24.974l-5.555-.2,3.986,14.655,10.828.764,4.418-14.729-5.416-.195C3569.948,1850.055,3592.477,1785.856,3582.766,1766.992Z" transform="translate(-3323.151 -1679.573)" fill="#fed5b1"/>
      <path id="Trazado_131300" data-name="Trazado 131300" d="M981.269,1104.678l-60.215,30.466a4.178,4.178,0,0,1-5.614-1.842l-41.3-81.624a2.83,2.83,0,0,1,1.248-3.8l61.417-31.075a4.178,4.178,0,0,1,5.614,1.842l40.69,80.421A4.178,4.178,0,0,1,981.269,1104.678Z" transform="translate(-857.47 -980.969)" fill="#c4d7f2"/>
      <g id="Grupo_97474" data-name="Grupo 97474" transform="translate(21.312 93.319)">
        <path id="Trazado_131301" data-name="Trazado 131301" d="M1114.066,1856.146a1.047,1.047,0,0,1-.745-1.782c.428-.433.872-.863,1.319-1.277a1.047,1.047,0,1,1,1.422,1.536c-.425.393-.846.8-1.253,1.213A1.043,1.043,0,0,1,1114.066,1856.146Z" transform="translate(-1101.398 -1852.808)" fill="#fcd03e"/>
        <path id="Trazado_131302" data-name="Trazado 131302" d="M986.6,1976.354h-.19a1.047,1.047,0,0,1,0-2.093h.186c1.071,0,2.156-.045,3.225-.134a1.047,1.047,0,0,1,.173,2.086C988.873,1976.307,987.73,1976.354,986.6,1976.354Zm-3.68-.169c-.032,0-.064,0-.1,0-1.186-.109-2.383-.272-3.557-.484a1.047,1.047,0,1,1,.372-2.06c1.115.2,2.251.356,3.376.46a1.047,1.047,0,0,1-.095,2.089Zm-6.88-1.242a1.05,1.05,0,0,1-.275-.037c-1.149-.312-2.3-.679-3.42-1.09a1.047,1.047,0,1,1,.721-1.965c1.064.39,2.157.738,3.248,1.035a1.047,1.047,0,0,1-.274,2.057Zm-6.567-2.408a1.043,1.043,0,0,1-.443-.1c-1.08-.505-2.151-1.064-3.183-1.66a1.047,1.047,0,1,1,1.047-1.812c.98.566,2,1.1,3.023,1.577a1.047,1.047,0,0,1-.444,1.995Zm-6.056-3.5a1.043,1.043,0,0,1-.6-.189c-.978-.684-1.937-1.418-2.851-2.184a1.047,1.047,0,1,1,1.343-1.605c.868.727,1.779,1.424,2.707,2.073a1.047,1.047,0,0,1-.6,1.9Zm-5.363-4.49a1.043,1.043,0,0,1-.739-.305c-.845-.843-1.663-1.733-2.431-2.645a1.047,1.047,0,0,1,1.6-1.348c.729.866,1.5,1.71,2.307,2.51a1.047,1.047,0,0,1-.739,1.788Zm-4.5-5.353a1.045,1.045,0,0,1-.858-.446c-.685-.977-1.336-2-1.933-3.029a1.047,1.047,0,1,1,1.812-1.048c.567.981,1.185,1.948,1.835,2.875a1.047,1.047,0,0,1-.856,1.648Zm-3.5-6.055a1.047,1.047,0,0,1-.949-.6c-.505-1.081-.968-2.2-1.377-3.317a1.047,1.047,0,0,1,1.967-.717c.388,1.063.827,2.122,1.307,3.148a1.047,1.047,0,0,1-.948,1.49Zm-2.4-6.57a1.047,1.047,0,0,1-1.01-.776c-.309-1.151-.571-2.331-.778-3.506a1.047,1.047,0,1,1,2.061-.364c.2,1.115.445,2.235.739,3.328a1.047,1.047,0,0,1-1.011,1.318Zm-1.217-6.887a1.046,1.046,0,0,1-1.041-.955c-.1-1.187-.158-2.394-.159-3.588a1.046,1.046,0,0,1,1.046-1.048h0a1.047,1.047,0,0,1,1.047,1.046c0,1.133.052,2.279.151,3.406a1.047,1.047,0,0,1-.951,1.134C946.5,1939.68,946.465,1939.682,946.434,1939.682Zm-.005-6.994c-.03,0-.06,0-.09,0a1.047,1.047,0,0,1-.954-1.132c.1-1.187.256-2.385.46-3.561a1.047,1.047,0,0,1,2.063.357c-.193,1.116-.34,2.254-.437,3.382A1.047,1.047,0,0,1,946.429,1932.688Zm1.193-6.891a1.047,1.047,0,0,1-1.013-1.313c.3-1.154.662-2.307,1.064-3.429a1.047,1.047,0,0,1,1.971.706c-.382,1.066-.722,2.161-1.01,3.257A1.047,1.047,0,0,1,947.622,1925.8Zm2.357-6.584a1.047,1.047,0,0,1-.951-1.483c.5-1.084,1.049-2.16,1.639-3.2a1.047,1.047,0,1,1,1.819,1.035c-.56.983-1.083,2-1.556,3.033A1.047,1.047,0,0,1,949.979,1919.212Zm3.459-6.078a1.047,1.047,0,0,1-.86-1.642c.678-.981,1.408-1.945,2.169-2.863a1.047,1.047,0,0,1,1.612,1.336c-.722.872-1.415,1.786-2.058,2.717A1.045,1.045,0,0,1,953.439,1913.134Z" transform="translate(-945.234 -1904.41)" fill="#fcd03e"/>
        <path id="Trazado_131303" data-name="Trazado 131303" d="M1626.458,2850.365a1.047,1.047,0,0,1-.176-2.078c.572-.1,1.147-.21,1.711-.334a1.047,1.047,0,0,1,.446,2.045c-.594.13-1.2.248-1.8.352A1.059,1.059,0,0,1,1626.458,2850.365Z" transform="translate(-1578.299 -2779)" fill="#fcd03e"/>
      </g>
      <path id="Trazado_131304" data-name="Trazado 131304" d="M2730.038,1681.323l-3.061-5.391a4.018,4.018,0,0,0-4.582-1.807l-26.778,6.357a9.747,9.747,0,0,0-7.278,9.491l.178,3.931,2.746,60.647a6.187,6.187,0,0,0,7.974,5.871l74.636-17.718a9.747,9.747,0,0,0,7.278-9.491l-2.4-52.966a6.187,6.187,0,0,0-7.974-5.871l-36.428,8.647A3.782,3.782,0,0,1,2730.038,1681.323Z" transform="translate(-2546.28 -1593.056)" fill="#67c53a"/>
      <path id="Trazado_131305" data-name="Trazado 131305" d="M2092.885,1161.782l-9.138-77.207h0l-5.869-4.627-2.75-2.167-.244-.193-8.683-6.845v0h0l0,0-43.063,5.1h0l-5.184.614-10.019,1.185a3.119,3.119,0,0,0-2.722,3.453l9.5,80.243.1.856,1.031,8.709a3.119,3.119,0,0,0,3.453,2.722l70.871-8.389A3.118,3.118,0,0,0,2092.885,1161.782Z" transform="translate(-1910.456 -1031.595)" fill="#003889" opacity="0.22" style="mix-blend-mode: multiply;isolation: isolate"/>
      <g id="Grupo_97476" data-name="Grupo 97476" transform="translate(91.031 35.974)">
        <path id="Trazado_131306" data-name="Trazado 131306" d="M2040.07,1118.363l-70.477,11.228a3.119,3.119,0,0,1-3.56-2.582l-1.38-8.661-.136-.852-12.713-79.8a3.119,3.119,0,0,1,2.582-3.56l9.963-1.587,5.156-.822h0l42.823-6.823,0,0,5.818,4.219,3.385,2.452,2.834,2.055,6.05,4.388h0l12.231,76.778A3.118,3.118,0,0,1,2040.07,1118.363Z" transform="translate(-1951.766 -1024.91)" fill="#fff"/>
        <path id="Trazado_131307" data-name="Trazado 131307" d="M2870.606,1215.563c.31.227,1.054,2,15.327.7l-.319-2Z" transform="translate(-2806.961 -1201.139)" fill="#acc6e5"/>
        <path id="Trazado_131308" data-name="Trazado 131308" d="M2828.135,1037.439a3.118,3.118,0,0,0,3.559,2.581l12.532-2-18.088-13.117Z" transform="translate(-2765.573 -1024.907)" fill="#c4d7f2"/>
        <path id="Trazado_131309" data-name="Trazado 131309" d="M2375.062,1718.112l-33.5,5.394a2.011,2.011,0,0,1-2.3-1.661h0a2.011,2.011,0,0,1,1.661-2.3l33.5-5.394a2.012,2.012,0,0,1,2.3,1.661h0A2.012,2.012,0,0,1,2375.062,1718.112Z" transform="translate(-2312.399 -1666.386)" fill="#e4ecf9"/>
        <path id="Trazado_131310" data-name="Trazado 131310" d="M2244.827,1813.855l-57.685,9.289a2.011,2.011,0,0,1-2.3-1.661h0a2.011,2.011,0,0,1,1.661-2.3l57.685-9.288a2.011,2.011,0,0,1,2.3,1.661h0A2.011,2.011,0,0,1,2244.827,1813.855Z" transform="translate(-2168.675 -1755.497)" fill="#e4ecf9"/>
        <path id="Trazado_131311" data-name="Trazado 131311" d="M2264.775,1937.738l-57.684,9.288a2.011,2.011,0,0,1-2.3-1.661h0a2.012,2.012,0,0,1,1.661-2.3l57.685-9.288a2.012,2.012,0,0,1,2.3,1.661h0A2.012,2.012,0,0,1,2264.775,1937.738Z" transform="translate(-2187.241 -1870.799)" fill="#e4ecf9"/>
        <path id="Trazado_131312" data-name="Trazado 131312" d="M2284.723,2061.621l-57.684,9.288a2.011,2.011,0,0,1-2.3-1.661h0a2.011,2.011,0,0,1,1.661-2.3l57.685-9.288a2.011,2.011,0,0,1,2.3,1.661h0A2.012,2.012,0,0,1,2284.723,2061.621Z" transform="translate(-2205.807 -1986.101)" fill="#e4ecf9"/>
        <path id="Trazado_131313" data-name="Trazado 131313" d="M2304.465,2185.537l-57.685,9.289a2.012,2.012,0,0,1-2.3-1.661h0a2.012,2.012,0,0,1,1.662-2.3l57.684-9.289a2.012,2.012,0,0,1,2.3,1.661h0A2.012,2.012,0,0,1,2304.465,2185.537Z" transform="translate(-2224.182 -2101.434)" fill="#e4ecf9"/>
        <g id="Grupo_97475" data-name="Grupo 97475" transform="translate(31.912 13.68)">
          <path id="Trazado_131314" data-name="Trazado 131314" d="M2426.191,1245.865a2.58,2.58,0,0,0-2.995-2.173,2.607,2.607,0,0,0-1.755,1.043,2.5,2.5,0,0,0-.471,1.959,2.431,2.431,0,0,0,1.094,1.792,2.762,2.762,0,0,0,1.955.391,2.669,2.669,0,0,0,1.694-.98A2.456,2.456,0,0,0,2426.191,1245.865Zm3.637-17.735a6.268,6.268,0,0,0-1.6-3.3,7.3,7.3,0,0,0-3.376-2.051,10.236,10.236,0,0,0-4.587-.222,9.832,9.832,0,0,0-4.558,1.862,8.241,8.241,0,0,0-2.642,3.291,6.353,6.353,0,0,0-.528,3.506,2.125,2.125,0,0,0,.9,1.376,2.223,2.223,0,0,0,1.748.425q1.647-.261,1.925-2.315a7.77,7.77,0,0,1,1.076-3.078,3.73,3.73,0,0,1,2.657-1.409,3.816,3.816,0,0,1,2.813.531,3.106,3.106,0,0,1,1.4,2.178,2.69,2.69,0,0,1-.129,1.371,5.016,5.016,0,0,1-.657,1.234q-.416.573-1.371,1.721a27.7,27.7,0,0,0-1.708,2.235,6.228,6.228,0,0,0-.949,4.658,2.339,2.339,0,0,0,.893,1.653,2.132,2.132,0,0,0,1.612.349,1.954,1.954,0,0,0,1.776-2.131q.056-.88.1-1.234a3.748,3.748,0,0,1,.161-.719,3.9,3.9,0,0,1,.412-.829,12.123,12.123,0,0,1,.794-1.1q1.83-2.246,2.526-3.183a8.011,8.011,0,0,0,1.117-2.143A5.434,5.434,0,0,0,2429.829,1228.13Z" transform="translate(-2412.473 -1222.399)" fill="#c4d7f2"/>
        </g>
      </g>
      <path id="Trazado_131315" data-name="Trazado 131315" d="M2542.514,1686.262l-4.213-5.348a5.044,5.044,0,0,0-5.128-1.786l-26.778,6.357a7.838,7.838,0,0,0-5.816,9.436l.927,3.9,14.294,60.214a7.838,7.838,0,0,0,9.437,5.816l74.636-17.718a7.838,7.838,0,0,0,5.816-9.436l-12.483-52.588a7.838,7.838,0,0,0-9.437-5.816l-36.428,8.647A4.748,4.748,0,0,1,2542.514,1686.262Z" transform="translate(-2371.336 -1597.711)" fill="#85d161"/>
      <rect id="Rectángulo_36354" data-name="Rectángulo 36354" width="78.552" height="1.679" transform="translate(130.133 111.288) rotate(-9.803)" fill="#003889" opacity="0.22" style="mix-blend-mode: multiply;isolation: isolate"/>
      <rect id="Rectángulo_36355" data-name="Rectángulo 36355" width="77.958" height="1.679" transform="translate(130.092 111.249) rotate(-10.933)" fill="#fff"/>
      <path id="Trazado_131316" data-name="Trazado 131316" d="M1477.384,2385.4l-1.733-5.953a4.018,4.018,0,0,0-4.041-2.816h-27.522a9.746,9.746,0,0,0-9.274,7.554l-.735,3.866-11.336,59.642a6.187,6.187,0,0,0,6.4,7.554h76.71a9.747,9.747,0,0,0,9.274-7.554l9.9-52.088a6.187,6.187,0,0,0-6.4-7.554h-37.44A3.782,3.782,0,0,1,1477.384,2385.4Z" transform="translate(-1368.234 -2247.029)" fill="#67c53a"/>
      <path id="Trazado_131317" data-name="Trazado 131317" d="M1985.612,1213.606l-10.11,3.169-2.941.922-8.042,2.521-12.713-79.8a3.119,3.119,0,0,1,2.582-3.56l9.963-1.587,14.544,46.464.894,2.858,1.513,4.835,1.211,3.868,1.412,4.513,1.211,3.869,1.413,4.513,1.1,3.516a3.1,3.1,0,0,1-2.037,3.9Z" transform="translate(-1860.735 -1091.657)" fill="#003889" opacity="0.22" style="mix-blend-mode: multiply;isolation: isolate"/>
      <g id="Grupo_97477" data-name="Grupo 97477" transform="translate(22.359 33.516)">
        <path id="Trazado_131318" data-name="Trazado 131318" d="M1037.075,997.941l29.916,71.76a3.118,3.118,0,0,1-1.673,4.066l-65.871,27.461a3.118,3.118,0,0,1-4.066-1.673l-34.8-83.472a3.118,3.118,0,0,1,1.673-4.066l54.156-22.577,6.648,2.736,7.1,2.921Z" transform="translate(-960.344 -989.438)" fill="#fff"/>
        <path id="Trazado_131319" data-name="Trazado 131319" d="M1861.93,1116.972c.354.148,1.5,1.7,15.062-2.923l-.781-1.874Z" transform="translate(-1799.48 -1103.674)" fill="#acc6e5"/>
        <path id="Trazado_131320" data-name="Trazado 131320" d="M1774.694,1001.144a3.118,3.118,0,0,0,4.065,1.673l11.713-4.883-20.662-8.5Z" transform="translate(-1713.742 -989.431)" fill="#c4d7f2"/>
        <path id="Trazado_131321" data-name="Trazado 131321" d="M1404.962,1199.256a3.224,3.224,0,0,1-2.471.122l-9.182-3.285a3.233,3.233,0,0,1,2.178-6.087l6.139,2.2,5.618-15.7a3.233,3.233,0,1,1,6.087,2.178l-6.708,18.747A3.223,3.223,0,0,1,1404.962,1199.256Z" transform="translate(-1361.323 -1161.545)" fill="#529d2e"/>
        <path id="Trazado_131322" data-name="Trazado 131322" d="M1463.952,1546.759l-32.64,13.671a2.011,2.011,0,0,1-2.625-1.075h0a2.011,2.011,0,0,1,1.075-2.625l32.64-13.671a2.012,2.012,0,0,1,2.625,1.075h0A2.012,2.012,0,0,1,1463.952,1546.759Z" transform="translate(-1396.103 -1504.567)" fill="#e4ecf9"/>
        <path id="Trazado_131323" data-name="Trazado 131323" d="M1380.277,1598.244l-53.891,22.572a2.012,2.012,0,0,1-2.625-1.075h0a2.012,2.012,0,0,1,1.075-2.625l53.891-22.572a2.012,2.012,0,0,1,2.625,1.075h0A2.011,2.011,0,0,1,1380.277,1598.244Z" transform="translate(-1298.444 -1552.485)" fill="#e4ecf9"/>
        <path id="Trazado_131324" data-name="Trazado 131324" d="M1428.753,1713.98l-53.891,22.572a2.012,2.012,0,0,1-2.625-1.075h0a2.012,2.012,0,0,1,1.075-2.625l53.891-22.572a2.011,2.011,0,0,1,2.625,1.075h0A2.011,2.011,0,0,1,1428.753,1713.98Z" transform="translate(-1343.563 -1660.205)" fill="#e4ecf9"/>
        <path id="Trazado_131325" data-name="Trazado 131325" d="M1477.229,1829.717l-53.891,22.572a2.012,2.012,0,0,1-2.625-1.075h0a2.012,2.012,0,0,1,1.075-2.625l53.891-22.572a2.012,2.012,0,0,1,2.625,1.075h0A2.012,2.012,0,0,1,1477.229,1829.717Z" transform="translate(-1388.681 -1767.926)" fill="#e4ecf9"/>
        <path id="Trazado_131326" data-name="Trazado 131326" d="M1525.706,1945.454l-53.891,22.572a2.012,2.012,0,0,1-2.625-1.075h0a2.012,2.012,0,0,1,1.075-2.625l53.891-22.572a2.011,2.011,0,0,1,2.625,1.075h0A2.012,2.012,0,0,1,1525.706,1945.454Z" transform="translate(-1433.799 -1875.646)" fill="#e4ecf9"/>
        <path id="Trazado_131327" data-name="Trazado 131327" d="M1573.99,2061.271l-53.891,22.572a2.012,2.012,0,0,1-2.625-1.075h0a2.012,2.012,0,0,1,1.075-2.625l53.891-22.572a2.012,2.012,0,0,1,2.625,1.075h0A2.012,2.012,0,0,1,1573.99,2061.271Z" transform="translate(-1478.739 -1983.441)" fill="#e4ecf9"/>
      </g>
      <path id="Trazado_131328" data-name="Trazado 131328" d="M1460.606,2343.006l-2.864-6.177a5.044,5.044,0,0,0-4.576-2.922h-27.522a7.838,7.838,0,0,0-7.838,7.838v65.9a7.838,7.838,0,0,0,7.838,7.838h76.71a7.838,7.838,0,0,0,7.838-7.838v-54.049a7.838,7.838,0,0,0-7.838-7.838h-37.44A4.748,4.748,0,0,1,1460.606,2343.006Z" transform="translate(-1363.76 -2207.264)" fill="#85d161"/>
      <rect id="Rectángulo_36356" data-name="Rectángulo 36356" width="78.552" height="1.679" transform="translate(48.708 150.251) rotate(1.13)" fill="#003889" opacity="0.22" style="mix-blend-mode: multiply;isolation: isolate"/>
      <rect id="Rectángulo_36357" data-name="Rectángulo 36357" width="77.958" height="1.679" transform="translate(48.675 150.206)" fill="#fff"/>
      <path id="Trazado_131329" data-name="Trazado 131329" d="M2170.076,1867.9c-.242-.276-1.548-.321-2.938-.395-.2-.009-.4-.021-.6-.032-1.792-.112-3.078-1.179-4.685-2.019a6.47,6.47,0,0,1-1.621-1.436c-.366-.418-.719-.869-1.028-1.285l.953-.341s-12.683-24.214-14.564-27.646c-.747-1.365-2.576-1.859-4.509-1.959l.007-.683,5.771-10.12-1.115-.553-5.692,9.983s-2.641-1.583-3.363-1.885c-.557-.233-3.106.31-4.244.571l.007-.628-7.785-1.673c-1.07-4.648.2-5.453,1.039-7.364.9-2.062-.507-4.547-1.785-8.489a6.508,6.508,0,0,0-.511-1.167l.87-1.717.322-.561a3.01,3.01,0,0,0,2.722-.149c3.171-1.716,4.027-6.627,4.257-8.994a1.22,1.22,0,0,0,.958-.118c.842-.637-.778-2.817-.778-2.817-5.017-5.767-15.019,3.569-16.927,6.02s-4.377,1.113-7.613,4.3c-2.462,2.424,1.687,6.544,5.583,6.05-1.857,3.758-2.07,7.842-2.2,10.388-.2,4.052-4.237,13.608-1.01,12.186.1-.043.2-.084.315-.125a16.324,16.324,0,0,0-.011,2.636c.277,3.345,1.838,7.6,8.134,6.878a115.491,115.491,0,0,1,17.309-.791l-2.2,24.308,1.247.257c-.047.771-.1,1.552-.152,2.156-.011.14-.025.27-.036.388a5.417,5.417,0,0,1-1.324,2.587h0c-.122.154-.244.309-.36.469a4.2,4.2,0,0,0-.444.742c-.566,1.26,1.092,2.036,3.1,2.673l.168.055.012,0,.075.026.091.031h0c1.579.559,1.061.865,3.52,2.035,2.624,1.249,4.019.762,4.356.43a.164.164,0,0,0,.048-.137c-.028-.377-1.012-1.153-2.045-2-.15-.121-.3-.243-.445-.366-1.322-1.108-1.7-2.765-2.462-4.4a6.868,6.868,0,0,1-.427-2.169c-.044-.6-.057-1.219-.055-1.776l1.1.226s2.268-13.077,3.551-22.227l3.8,5.6,7.87,11.6,1.176-.42c.421.65.848,1.321,1.164,1.84.071.114.134.223.193.321a4.694,4.694,0,0,1,.331,2.747h0c-.018.19-.035.381-.044.573a3.61,3.61,0,0,0,.039.817c.23,1.293,2.125.959,4.247.319.1-.031.2-.058.288-.083,1.793-.5,1.464.055,4.33-.433,3.011-.513,3.95-1.675,4.053-2.122A.142.142,0,0,0,2170.076,1867.9Z" transform="translate(-2004.736 -1705.292)" fill="#003889" opacity="0.22" style="mix-blend-mode: multiply;isolation: isolate"/>
      <circle id="Elipse_5227" data-name="Elipse 5227" cx="18.614" cy="18.614" r="18.614" transform="translate(19.099 78.822)" fill="#003889" opacity="0.22" style="mix-blend-mode: multiply;isolation: isolate"/>
      <circle id="Elipse_5228" data-name="Elipse 5228" cx="18.614" cy="18.614" r="18.614" transform="translate(16.818 74.534)" fill="#fcd03e"/>
      <path id="Trazado_131330" data-name="Trazado 131330" d="M1016.185,1704.881h-8.812v-8.812h-3.746v8.812h-8.812v3.746h8.812v8.812h3.746v-8.812h8.812Z" transform="translate(-970.068 -1613.606)" fill="#fff"/>
      <path id="Trazado_131331" data-name="Trazado 131331" d="M3234.71,1913.388c.742-3.366-.368-9.98-.987-11.3s-3.34-12.747-4.166-16.053c-.626-2.512-5.182-4.49-7.241-4.986h0a1.91,1.91,0,0,0,0-.259c-.016-.194-.034-.426-.047-.683a11.009,11.009,0,0,1,.115-2.489,7.294,7.294,0,0,0,2.054-2.461c2.8,1.991,3.95-1.125,4.072-4.251a9.5,9.5,0,0,0-.686-4.413c-1.358-2.343-3.571-1.57-4.256-1.778s-.963-2.063-4.385-3.452-6.54,2.614-5.333,5.736a3.6,3.6,0,0,0,2.293,2.407c-.1.312-.194.633-.268.963q-.1.456-.165.933a7.56,7.56,0,0,0,1.428,5.888l-.842,1.6-1.006,1.908a53.589,53.589,0,0,0-5.755.771c-2.432.361-16.094,10.621-18.028,11.262s-11.544-4.128-11.544-4.128l-.035.049a5.883,5.883,0,0,0-2.482-1.713c-1.565-.481-3.011-.2-3.942-.842s-1.386.04-1.207.3,2.715,1.443,2.521,1.863-.869.361-1.546.04-3.6-2.184-4.55-1.021c-.323.393.266.966,1.329,1.553a22.921,22.921,0,0,0,8.025,2.4l-.181.253s.809.5,2.061,1.243c3.7,2.2,11.262,6.511,13.114,6.212,2.458-.4,13.644-8.036,13.819-8.156l0,0c.623,1.263-2.288,25.613-2.288,25.613l.1.028.015,4.281,0,.6.178,50.581h0a46.961,46.961,0,0,0-8.477,2.686s-1.487.722-.056.722H3211l0-3.407h0l3.4-43.85,6.814,45.775a3.082,3.082,0,0,0-.295,1.483h6.644a3.475,3.475,0,0,0-.574-1.865l-3.822-56.973a.747.747,0,0,0,.125-.063c.51-.361.891-10.7.827-12.2-.062-1.471.709-6.273,1.534-6.543a.186.186,0,0,1,.056-.012c.845-.06,3.59,11.064,3.59,11.064s.052,14.068.088,14.369l.211.017a1.676,1.676,0,0,1-.1.342.314.314,0,0,1-.092.127,6.162,6.162,0,0,0-1.291,1.234c-.3.462-.7.641-.817,1.058s-1.057,1.161-.8,1.3a1.443,1.443,0,0,0,1.779-.762s.491-.355.431.034-.991,4.748-.705,4.924.479.274.674-.131.59-3.069.776-3.1.35-.087.292.566-.308,3.625.353,3.579c.634-.043.567-.777.561-.836a.485.485,0,0,0,.364.2c.22-.009.306-.31.368-.88s.219-2.965.472-2.92.756,2.184.766,2.217.065.549.5.4.078-1.622.078-1.622a16.737,16.737,0,0,1-.316-2.156,21.437,21.437,0,0,0-.019-2.327,1.18,1.18,0,0,0-.135-.455,1.189,1.189,0,0,1-.145-.552l.5.041S3233.969,1916.756,3234.71,1913.388Z" transform="translate(-2993.309 -1767.092)" fill="#003889" opacity="0.22" style="mix-blend-mode: multiply;isolation: isolate"/>
      <g id="Grupo_97479" data-name="Grupo 97479" transform="translate(168.523 93.885)">
        <g id="Grupo_97478" data-name="Grupo 97478">
          <path id="Trazado_131332" data-name="Trazado 131332" d="M3082.166,2222.8l-.136.194-1.507,2.132a23.892,23.892,0,0,1-8.491-2.415c-1.108-.587-1.741-1.16-1.449-1.553.862-1.163,3.928.7,4.629,1.021s1.383.382,1.543-.04-2.464-1.6-2.666-1.864.2-.942,1.184-.3,2.4.36,4.007.842A7.322,7.322,0,0,1,3082.166,2222.8Z" transform="translate(-3070.512 -2194.861)" fill="#fdc8aa"/>
          <path id="Trazado_131333" data-name="Trazado 131333" d="M3102.455,2263.359l-1.507,2.132a23.882,23.882,0,0,1-8.491-2.415c.34.089.715.2,1.13.325,6,1.844,8.814-.131,8.814-.131Z" transform="translate(-3090.937 -2235.224)" fill="#fbb188"/>
          <path id="Trazado_131334" data-name="Trazado 131334" d="M3956.606,2751.185c-.426.149-.52-.367-.533-.4s-.682-2.172-.938-2.217-.228,2.351-.246,2.92-.08.871-.3.879a.535.535,0,0,1-.38-.2c.011.06.134.793-.5.836-.657.046-.637-2.927-.631-3.579s-.153-.6-.335-.566-.375,2.7-.536,3.1-.363.307-.663.131.293-4.533.323-4.924-.434-.034-.434-.034a1.357,1.357,0,0,1-1.72.762c-.264-.14.623-.886.7-1.3s.476-.6.735-1.058a5.492,5.492,0,0,1,1.2-1.234.274.274,0,0,0,.082-.127,4.789,4.789,0,0,0,.117-1.031l.031-.338,2.923.28a3.008,3.008,0,0,0,.2,1.543,1.275,1.275,0,0,1,.17.454,21.742,21.742,0,0,1,.2,2.327,17.414,17.414,0,0,0,.483,2.156S3957.033,2751.036,3956.606,2751.185Z" transform="translate(-3888.773 -2681.722)" fill="#fdc8aa"/>
          <path id="Trazado_131335" data-name="Trazado 131335" d="M3993.028,2745.081l-3.442-.908a4.784,4.784,0,0,0,.116-1.031l.031-.338,2.923.28a3.013,3.013,0,0,0,.2,1.543A1.266,1.266,0,0,1,3993.028,2745.081Z" transform="translate(-3925.925 -2681.722)" fill="#fbb188"/>
          <path id="Trazado_131336" data-name="Trazado 131336" d="M3860.3,2008.439l1.052-3.8,2.831-.349C3864.307,2007.462,3863.364,2010.627,3860.3,2008.439Z" transform="translate(-3805.595 -1994.36)" fill="#1f3a6f"/>
          <path id="Trazado_131337" data-name="Trazado 131337" d="M3568.835,3449.02a44,44,0,0,0-8.269,2.686s-1.431.721,0,.721h14.647l-.267-3.407-3.2-.982Z" transform="translate(-3526.03 -3338.108)" fill="#15315e"/>
          <path id="Trazado_131338" data-name="Trazado 131338" d="M3633.823,2637.608v57.117h-6.112l-4.1-50.581-.049-.6-.373-4.6Z" transform="translate(-3584.906 -2583.813)" fill="#15315e"/>
          <path id="Trazado_131339" data-name="Trazado 131339" d="M3679.04,2610.635c.1.24.194,6.012,5.432,8.5l11.773,52,5.759-.1-8.851-61.2Z" transform="translate(-3636.889 -2557.963)" fill="#1f3a6f"/>
          <path id="Trazado_131340" data-name="Trazado 131340" d="M3923.406,3470.156s-.509-2.946,2.983-3.066a3.3,3.3,0,0,1,3.662,3.066Z" transform="translate(-3864.305 -3355.836)" fill="#15315e"/>
          <path id="Trazado_131341" data-name="Trazado 131341" d="M3922.2,2004.6" transform="translate(-3863.203 -1994.651)" fill="#596bef"/>
          <path id="Trazado_131342" data-name="Trazado 131342" d="M3267.191,2178.087c-.48,3.367-.841,9.981-.841,9.981l-3.728-.3c-.06-.3-1.2-14.369-1.2-14.369s-3.607-11.123-4.448-11.063a.17.17,0,0,0-.055.012c-.8.27-1.2,5.071-1.027,6.543.18,1.5.6,11.844.119,12.2-.428.322-7.512,2.319-15.7.738h0a30.515,30.515,0,0,1-3-.738s1.022-24.351.3-25.613h0c-.166.119-10.76,7.758-13.187,8.156-1.827.3-9.724-4.013-13.6-6.212-1.309-.742-2.157-1.243-2.157-1.243l1.844-2.886s9.98,4.77,11.865,4.127,14.75-10.9,17.155-11.262,5.325-1.069,8.13-.668c1.626.232,2.586.623,3.167.653s.9-.534,1.457-.4c2.1.5,6.807,2.474,7.628,4.986,1.082,3.306,4.689,14.731,5.411,16.053S3267.672,2174.721,3267.191,2178.087Z" transform="translate(-3199.101 -2125.676)" fill="#f4b545"/>
          <path id="Trazado_131343" data-name="Trazado 131343" d="M3739.068,2156.089s-1.4,6.569-5.109,8.854a12.826,12.826,0,0,1-2.061-9.074Z" transform="translate(-3685.954 -2135.442)" fill="#fff"/>
          <path id="Trazado_131344" data-name="Trazado 131344" d="M3740.753,2088.355a4.15,4.15,0,0,1-3.846,1.863c-2.217-.076-2.872-1.274-3.062-2.079a1.8,1.8,0,0,1,.121-1.152l.876-1.95,1.106-2.458,4.958.887a9.411,9.411,0,0,0,.012,2.89c.033.256.068.489.1.683A1.86,1.86,0,0,1,3740.753,2088.355Z" transform="translate(-3687.857 -2067.229)" fill="#fdc8aa"/>
          <path id="Trazado_131345" data-name="Trazado 131345" d="M3754.927,2086.356c-1.014,2.607-4.794-.25-6.076-1.319l1.106-2.458,4.958.887A9.4,9.4,0,0,0,3754.927,2086.356Z" transform="translate(-3701.865 -2067.229)" fill="#fbb188"/>
          <path id="Trazado_131346" data-name="Trazado 131346" d="M3741.667,1920.5c-.2,3.837-2.557,6.833-5.268,6.695s-4.751-3.363-4.554-7.2c.017-.318.048-.629.092-.933.5-3.376,2.688-5.888,5.176-5.762,1.925.1,3.509,1.752,4.2,4.073A9.362,9.362,0,0,1,3741.667,1920.5Z" transform="translate(-3686.025 -1909.668)" fill="#fdc8aa"/>
          <path id="Trazado_131347" data-name="Trazado 131347" d="M3770.916,2054.573l-3.511-.5s-.206,2.318,1.309,2.511S3770.72,2055.6,3770.916,2054.573Z" transform="translate(-3719.125 -2040.7)" fill="#fbb188"/>
          <path id="Trazado_131348" data-name="Trazado 131348" d="M3681.035,2394.1c.18,1.5.6,11.844.119,12.2-.428.322-7.512,2.319-15.7.738.146,0,10.076-.116,11.979-4.11,1.916-4.025,1.4-14.162,4.117-15.578a.528.528,0,0,1,.508.2C3681.257,2387.827,3680.859,2392.629,3681.035,2394.1Z" transform="translate(-3624.247 -2350.887)" fill="#e59d29"/>
          <path id="Trazado_131349" data-name="Trazado 131349" d="M3266.594,2291.29c-.166.119-10.76,7.758-13.187,8.156-1.828.3-9.724-4.013-13.6-6.212,3.5,1.3,11.954,4.335,13.862,4.159C3256.077,2297.171,3266.431,2291.379,3266.594,2291.29Z" transform="translate(-3228.085 -2261.484)" fill="#e59d29"/>
          <path id="Trazado_131350" data-name="Trazado 131350" d="M3742.729,1917.369l-.984,3.314s-.185-1.659-4.6-1.283a8.575,8.575,0,0,1-3.788-.341c.5-3.376,2.688-5.888,5.176-5.762C3740.455,1913.4,3742.04,1915.048,3742.729,1917.369Z" transform="translate(-3687.442 -1909.668)" fill="#fbb188"/>
          <path id="Trazado_131351" data-name="Trazado 131351" d="M3699.994,1861.26c3.53,1.389,3.952,3.244,4.653,3.452s2.854-.565,4.394,1.778a9.937,9.937,0,0,1,1.027,4.413l-2.831.349.14-.505s-.976,2.48-1.658,2.33,1.355-3.438-2.8-3.407-6.363.449-7.812-2.673S3696.464,1859.871,3699.994,1861.26Z" transform="translate(-3651.48 -1860.977)" fill="#1f3a6f"/>
          <path id="Trazado_131352" data-name="Trazado 131352" d="M3857.735,2002.505a1.606,1.606,0,0,1,1-.973,1.149,1.149,0,0,1,1.323.48c.89,1.145-.925,3.316-2.121,2.673l-.436-.755A3.778,3.778,0,0,1,3857.735,2002.505Z" transform="translate(-3802.988 -1991.744)" fill="#fdc8aa"/>
        </g>
      </g>
      <g id="Grupo_97480" data-name="Grupo 97480" transform="translate(154.995 182.831)">
        <rect id="Rectángulo_36358" data-name="Rectángulo 36358" width="31.531" height="18.423" transform="translate(1.427 7.194)" fill="#fff"/>
        <rect id="Rectángulo_36359" data-name="Rectángulo 36359" width="21.524" height="7.194" fill="#fde07e"/>
        <rect id="Rectángulo_36360" data-name="Rectángulo 36360" width="14.133" height="7.194" transform="translate(21.524)" fill="#fcd03e"/>
        <rect id="Rectángulo_36361" data-name="Rectángulo 36361" width="10.586" height="18.423" transform="translate(22.372 7.194)" fill="#c4d7f2"/>
        <rect id="Rectángulo_36362" data-name="Rectángulo 36362" width="20.945" height="1.924" transform="translate(1.427 7.194)" fill="#c4d7f2"/>
        <path id="Trazado_131353" data-name="Trazado 131353" d="M2981.626,3310.809h-7.307a1.484,1.484,0,0,1-1.484-1.484h0a1.484,1.484,0,0,1,1.484-1.484h7.307a1.484,1.484,0,0,1,1.484,1.484h0A1.484,1.484,0,0,1,2981.626,3310.809Z" transform="translate(-2966.074 -3296.567)" fill="#1f3a6f"/>
      </g>
      <g id="Grupo_97481" data-name="Grupo 97481" transform="translate(161.757 157.275)">
        <rect id="Rectángulo_36363" data-name="Rectángulo 36363" width="31.531" height="18.423" transform="translate(1.427 7.194)" fill="#fff"/>
        <rect id="Rectángulo_36364" data-name="Rectángulo 36364" width="21.524" height="7.194" fill="#fde07e"/>
        <rect id="Rectángulo_36365" data-name="Rectángulo 36365" width="14.133" height="7.194" transform="translate(21.524)" fill="#fcd03e"/>
        <rect id="Rectángulo_36366" data-name="Rectángulo 36366" width="10.586" height="18.423" transform="translate(22.372 7.194)" fill="#c4d7f2"/>
        <rect id="Rectángulo_36367" data-name="Rectángulo 36367" width="20.945" height="1.924" transform="translate(1.427 7.194)" fill="#c4d7f2"/>
        <path id="Trazado_131354" data-name="Trazado 131354" d="M3079.252,2941.857h-7.307a1.484,1.484,0,0,1-1.484-1.484h0a1.484,1.484,0,0,1,1.484-1.484h7.307a1.484,1.484,0,0,1,1.484,1.484h0A1.484,1.484,0,0,1,3079.252,2941.857Z" transform="translate(-3063.7 -2927.615)" fill="#1f3a6f"/>
      </g>
      <g id="Grupo_97482" data-name="Grupo 97482" transform="translate(95.366 89.288)">
        <path id="Trazado_131355" data-name="Trazado 131355" d="M2786.077,2762.887c-.061.446-.9,1.609-3.862,2.122s-2.506-.123-4.573.517-3.93.974-4.276-.319a5.152,5.152,0,0,1-.118-1.39,4.9,4.9,0,0,0-.577-2.748c-.067-.1-.14-.206-.221-.32-1.025-1.47-3.053-4.148-3.053-4.148l4.073-.577a30.7,30.7,0,0,0,2.368,2.85,7.381,7.381,0,0,0,1.75,1.437c1.682.84,3.064,1.906,4.866,2.018.2.011.4.023.6.032C2784.651,2762.443,2786.135,2762.49,2786.077,2762.887Z" transform="translate(-2717.098 -2689.429)" fill="#fdc8aa"/>
        <path id="Trazado_131356" data-name="Trazado 131356" d="M2829.375,2850.684c2.066-.639,1.605,0,4.571-.516s3.8-1.675,3.863-2.122c.057-.4-1.427-.443-3.021-.527l-.013.031a8.457,8.457,0,0,1-4.193,1.585c-2.023.174-4.205-.27-5.6-.161a5.206,5.206,0,0,0,.12,1.39C2825.444,2851.658,2827.308,2851.324,2829.375,2850.684Z" transform="translate(-2768.829 -2774.588)" fill="#233862"/>
        <path id="Trazado_131357" data-name="Trazado 131357" d="M2775.838,2758.873a6.4,6.4,0,0,1-3.388,1.875c-1.025-1.47-3.053-4.148-3.053-4.148l4.073-.577A30.7,30.7,0,0,0,2775.838,2758.873Z" transform="translate(-2717.098 -2689.429)" fill="#fbb188"/>
        <path id="Trazado_131358" data-name="Trazado 131358" d="M2459.132,2375.605l-5.635,2.082-8.909-11.6-5.7-7.415-3.975-5.171-5.558.328,2.01-7.233s8.537-2.073,10.722,1.359S2459.132,2375.605,2459.132,2375.605Z" transform="translate(-2400.613 -2307.788)" fill="#15315e"/>
        <path id="Trazado_131359" data-name="Trazado 131359" d="M2572.682,2446.374l-5.7-7.415,1.444-6.722C2568.807,2433.2,2570.958,2440.479,2572.682,2446.374Z" transform="translate(-2528.708 -2388.07)" fill="#072542"/>
        <path id="Trazado_131360" data-name="Trazado 131360" d="M2480.743,2833.858c-.305.333-1.657.819-4.393-.43s-1.994-1.513-4.062-2.151-3.794-1.413-3.341-2.673a5.183,5.183,0,0,1,.7-1.211,4.9,4.9,0,0,0,1.093-2.588c0-.119,0-.249,0-.388,0-1.788-.146-5.135-.146-5.135l3.685,1.82a30.41,30.41,0,0,0,.324,3.68,7.3,7.3,0,0,0,.622,2.169c.906,1.639,1.436,3.3,2.857,4.4.159.123.317.245.478.366C2479.822,2832.69,2481.017,2833.565,2480.743,2833.858Z" transform="translate(-2437.392 -2748.307)" fill="#fdc8aa"/>
        <path id="Trazado_131361" data-name="Trazado 131361" d="M2472.3,2940.257c2.067.638,1.324.9,4.061,2.151s4.087.762,4.394.43c.273-.294-.923-1.169-2.188-2.136l-.029.018a8.486,8.486,0,0,1-4.36-1.058c-1.766-1-3.311-2.592-4.524-3.29a5.225,5.225,0,0,0-.7,1.212C2468.5,2938.844,2470.229,2939.619,2472.3,2940.257Z" transform="translate(-2437.398 -2857.287)" fill="#233862"/>
        <path id="Trazado_131362" data-name="Trazado 131362" d="M2497.654,2824.783a6.434,6.434,0,0,1-3.863-.365c-.005-1.788-.146-5.135-.146-5.135l3.685,1.82A30.439,30.439,0,0,0,2497.654,2824.783Z" transform="translate(-2460.447 -2748.307)" fill="#fbb188"/>
        <path id="Trazado_131363" data-name="Trazado 131363" d="M2131.006,2384.958l-6.076-1.228.024-24.308a114.442,114.442,0,0,0-17.238.791c-6.23.723-8.173-3.533-8.75-6.878a16.019,16.019,0,0,1-.188-3.773s7.817.039,15.064-.367c2.6-.147,5.139-.35,7.206-.635,7.819-1.077,10.845,3.232,11.571,5.638C2133.375,2356.7,2131.006,2384.958,2131.006,2384.958Z" transform="translate(-2092.896 -2310.032)" fill="#1f3a6f"/>
        <path id="Trazado_131364" data-name="Trazado 131364" d="M2113.842,2360l.032.4c-8.906.373-13.36,2.709-14.908,3.737a16.019,16.019,0,0,1-.188-3.773S2106.6,2360.406,2113.842,2360Z" transform="translate(-2092.896 -2320.837)" fill="#15315e"/>
        <path id="Trazado_131365" data-name="Trazado 131365" d="M2390.423,2299.185s3.985-1,4.734-.7,2.582,1.884,1.969,1.983-8,.619-8,.619L2389,2299.5Z" transform="translate(-2363.048 -2263.529)" fill="#fdc8aa"/>
        <path id="Trazado_131366" data-name="Trazado 131366" d="M2193.014,1916.98l-.773,1.591-1.114,2.672-4.842-3.864,1.52-2.564,1.531-2.584Z" transform="translate(-2174.376 -1904.083)" fill="#fdc8aa"/>
        <path id="Trazado_131367" data-name="Trazado 131367" d="M2213.434,1916.98l-.773,1.591c-3.353-1.23-4.22-2.713-4.436-3.756l1.531-2.584Z" transform="translate(-2194.797 -1904.083)" fill="#efa37d"/>
        <path id="Trazado_131368" data-name="Trazado 131368" d="M2226.278,1837.9s.616,8.007-3.418,10.3c-4.41,2.508-9.274-7.329-5.565-9.586S2226.278,1837.9,2226.278,1837.9Z" transform="translate(-2202.014 -1834.424)" fill="#fdc8aa"/>
        <path id="Trazado_131369" data-name="Trazado 131369" d="M2090.824,1985.415c-.716,2.062-2.06,2.835.024,8.539l.379,4.808s-3.923.053-7.869.362c-2.979.234-5.973.61-7.3,1.222-3.1,1.422.082-8.133-.082-12.186s-.456-12,6.078-16.329c0,0,4.6,1.151,6.227,5.1S2091.541,1983.353,2090.824,1985.415Z" transform="translate(-2070.513 -1959.554)" fill="#f4b545"/>
        <path id="Trazado_131370" data-name="Trazado 131370" d="M2175.333,2155.17l.356,4.516s-3.923.053-7.869.362a2.7,2.7,0,0,1-1.238-1.556c-1.228-4.5-1.143-13.771-1.143-13.771l6.493.476,1.355,9.34Z" transform="translate(-2154.974 -2120.47)" fill="#e59d29"/>
        <path id="Trazado_131371" data-name="Trazado 131371" d="M2407.1,2326.988l-10.19.788-.134-1.69,10.19-.788Z" transform="translate(-2370.284 -2288.538)" fill="#072542"/>
        <path id="Trazado_131372" data-name="Trazado 131372" d="M2525.913,2193.467l-1.165-.553,5.085-10.581,1.165.553Z" transform="translate(-2489.395 -2155.476)" fill="#072542"/>
        <path id="Trazado_131373" data-name="Trazado 131373" d="M2172.462,2143.431l2.111,8.891,8.748,1.844.286,3.63s-13.808,3.126-15.4-1.111-2.255-13.175-2.255-13.175Z" transform="translate(-2155.454 -2119.269)" fill="#f4b545"/>
        <path id="Trazado_131374" data-name="Trazado 131374" d="M2038.571,1796.451s1.815,2.18,1.03,2.817-2.772-.977-2.943.776-.779,3.931-1.92,3.048-.392-2.839-2.45-2.192-.146,3.162-.887,3.685-3.572.929-7.119,6.206-12.277-.839-9.326-4.024,5.54-1.847,7.228-4.3S2033.038,1790.684,2038.571,1796.451Z" transform="translate(-2014.357 -1794.601)" fill="#1f3a6f"/>
      </g>
      <circle id="Elipse_5229" data-name="Elipse 5229" cx="7.467" cy="7.467" r="7.467" transform="translate(20.498 164.329)" fill="#529d2e"/>
      <circle id="Elipse_5230" data-name="Elipse 5230" cx="4.435" cy="4.435" r="4.435" transform="translate(216.249 62.839) rotate(-76.717)" fill="#fc8116"/>
    </g>
  </g>
</svg>
