<svg xmlns="http://www.w3.org/2000/svg" width="258.249" height="212.631" viewBox="0 0 258.249 212.631">
  <g id="Grupo_97473" data-name="Grupo 97473" transform="translate(-424.73 -507.387)">
    <g id="Grupo_97472" data-name="Grupo 97472" transform="translate(409.49 507.387)">
      <circle id="Elipse_5221" data-name="Elipse 5221" cx="100.227" cy="100.227" r="100.227" transform="translate(15.24 0)" fill="#fde07e"/>
      <ellipse id="Elipse_5222" data-name="Elipse 5222" cx="107.084" cy="8.314" rx="107.084" ry="8.314" transform="translate(59.322 196.004)" fill="#fdd85e"/>
      <g id="Grupo_97466" data-name="Grupo 97466" transform="translate(39.978 24.957)">
        <path id="Trazado_131253" data-name="Trazado 131253" d="M1018.564,963.371l59.408-43.739,38.022,140.615-68.869,4.073Z" transform="translate(-1017.346 -916.706)" fill="#fc8116"/>
        <path id="Trazado_131254" data-name="Trazado 131254" d="M1089.48,940.794l66.443-43.865,35.7,142.151-68.87,4.073Z" transform="translate(-1083.466 -895.539)" fill="#fff"/>
        <path id="Trazado_131255" data-name="Trazado 131255" d="M1184.6,919.995l75.861-43.624,32.184,142.151-68.869,4.073Z" transform="translate(-1172.156 -876.371)" fill="#c4d7f2"/>
        <path id="Trazado_131256" data-name="Trazado 131256" d="M1304.553,937.1l82.212-40.176,27.645,141.177-68.869,4.073Z" transform="translate(-1283.992 -895.539)" fill="#fff"/>
        <g id="Grupo_97465" data-name="Grupo 97465" transform="translate(0 9.288)">
          <path id="Trazado_131257" data-name="Trazado 131257" d="M1429.007,1017.7l31.6,124.631a5.316,5.316,0,0,1-3.846,6.46l-83.266,30.571a5.316,5.316,0,0,1-6.46-3.846l-31.6-124.63a5.316,5.316,0,0,1,3.846-6.46l83.266-30.571A5.316,5.316,0,0,1,1429.007,1017.7Z" transform="translate(-1312.633 -1013.686)" fill="#fdab64"/>
          <path id="Trazado_131258" data-name="Trazado 131258" d="M1068,1577.186l-31.056,7.875a2.865,2.865,0,0,1-3.482-2.073l-32.81-129.381a2.866,2.866,0,0,1,2.073-3.482l31.056-7.875a2.865,2.865,0,0,1,3.482,2.073l32.81,129.381A2.866,2.866,0,0,1,1068,1577.186Z" transform="translate(-1000.563 -1413.18)" fill="#fd963d"/>
          <rect id="Rectángulo_36346" data-name="Rectángulo 36346" width="2.453" height="139.207" transform="translate(39.799 27.401) rotate(-14.23)" fill="#003889" opacity="0.12" style="mix-blend-mode: multiply;isolation: isolate"/>
          <path id="Trazado_131259" data-name="Trazado 131259" d="M1255.845,1819.407l-5.808,1.473a5.1,5.1,0,0,1-6.194-3.688l-16.351-64.478a5.1,5.1,0,0,1,3.688-6.194l5.809-1.473a5.1,5.1,0,0,1,6.194,3.688l16.351,64.478A5.1,5.1,0,0,1,1255.845,1819.407Z" transform="translate(-1211.996 -1695.433)" fill="#fff"/>
          <circle id="Elipse_5223" data-name="Elipse 5223" cx="8.094" cy="8.094" r="8.094" transform="translate(34.572 144.717) rotate(-45)" fill="#fff"/>
        </g>
      </g>
      <g id="Grupo_97467" data-name="Grupo 97467" transform="translate(108.184 67.006)">
        <rect id="Rectángulo_36347" data-name="Rectángulo 36347" width="105.412" height="139.207" rx="6" transform="translate(22.812 0)" fill="#85d161"/>
        <rect id="Rectángulo_36348" data-name="Rectángulo 36348" width="37.77" height="139.208" rx="2" fill="#67c53a"/>
        <rect id="Rectángulo_36349" data-name="Rectángulo 36349" width="2.453" height="139.207" transform="translate(41.694 0)" fill="#003889" opacity="0.22" style="mix-blend-mode: multiply;isolation: isolate"/>
        <rect id="Rectángulo_36350" data-name="Rectángulo 36350" width="16.187" height="76.714" rx="8.094" transform="translate(10.791 17.892)" fill="#fff"/>
        <circle id="Elipse_5224" data-name="Elipse 5224" cx="8.094" cy="8.094" r="8.094" transform="translate(7.439 115.246) rotate(-45)" fill="#fff"/>
      </g>
      <path id="Trazado_131260" data-name="Trazado 131260" d="M2857.156,2469.355l.711,73.432h13.974Z" transform="translate(-2691.605 -2336.654)" fill="#003889" opacity="0.22" style="mix-blend-mode: multiply;isolation: isolate"/>
      <path id="Trazado_131261" data-name="Trazado 131261" d="M2813.351,1947.587l-.809-3h0l-.084-.314-2.9-10.749-4.436-16.455.74-.2-1.482-5.5-8.468,2.283,1.482,5.5.74-.2.8,2.955h0l-2.013,3.5,4.081,15.141,1.5-.4-3.814-14.149.919-1.6v0l4.807,17.838,1.056,3.918.136.5.759,2.815,10.241,38,.5-.135h0l5.185,7.337.8-8.949h0l.5-.136Z" transform="translate(-2634.504 -1816.408)" fill="#003889" opacity="0.22" style="mix-blend-mode: multiply;isolation: isolate"/>
      <g id="Grupo_97468" data-name="Grupo 97468" transform="translate(165.936 92.065)">
        <path id="Trazado_131262" data-name="Trazado 131262" d="M3070.349,2980.773l4.794,8.331,1.737-9.454Z" transform="translate(-3056.313 -2904.5)" fill="#1f3a6f"/>
        <path id="Trazado_131263" data-name="Trazado 131263" d="M2880.317,1900.7l7.134-1.227.627,3.651,2.888,16.8,1.887,10.971.054.321h0l.527,3.065,6.668,38.783-.515.088-6.1,1.05-.515.088-6.667-38.782-.494-2.873-.088-.513-.688-4-3.129-18.208-.437-2.545-.519-3.017Z" transform="translate(-2879.134 -1897.385)" fill="#fdd85e"/>
        <path id="Trazado_131264" data-name="Trazado 131264" d="M2960.175,2365.218l7.135-1.228.054.321h0l.527,3.065-7.135,1.228-.494-2.873Z" transform="translate(-2953.591 -2330.481)" fill="#1f3a6f"/>
        <rect id="Rectángulo_36351" data-name="Rectángulo 36351" width="8.77" height="5.694" transform="translate(9.699 5.612) rotate(170.243)" fill="#1f3a6f"/>
        <path id="Trazado_131265" data-name="Trazado 131265" d="M2866.568,1986.744l1.2,1.465-3.231,4.575,2.483,14.442-1.529.263-2.657-15.455Z" transform="translate(-2862.833 -1978.751)" fill="#1f3a6f"/>
      </g>
      <path id="Trazado_131266" data-name="Trazado 131266" d="M3168.532,1953.869h0l.2-3.054.764.051.378-5.681-8.751-.583-.379,5.681.765.051-1.133,17-.74,11.108-.021.325h0l-.207,3.1-2.617,39.265.521.034h0l2.53,8.622,3.651-8.209h0l.522.034,2.616-39.264.194-2.909.035-.52.27-4.049,1.227-18.434v0l1.213,1.386-.974,14.621,1.549.1,1.042-15.647Z" transform="translate(-2970.977 -1847.393)" fill="#003889" opacity="0.22" style="mix-blend-mode: multiply;isolation: isolate"/>
      <g id="Grupo_97469" data-name="Grupo 97469" transform="translate(185.421 95.467)">
        <path id="Trazado_131267" data-name="Trazado 131267" d="M3163.335,3032.561l-4.718,8.374-1.823-9.437Z" transform="translate(-3156.397 -2956.242)" fill="#1f3a6f"/>
        <path id="Trazado_131268" data-name="Trazado 131268" d="M3170.042,1950.867l-7.145-1.161-.594,3.656-2.733,16.822-1.786,10.988-.052.321h0l-.5,3.07-6.312,38.843.516.083,6.114.994.516.083,6.311-38.842.468-2.878.083-.514.651-4.005,2.962-18.236.415-2.549.491-3.021Z" transform="translate(-3150.921 -1947.619)" fill="#fdd85e"/>
        <path id="Trazado_131269" data-name="Trazado 131269" d="M3251.937,2416.1l-7.146-1.162-.052.321h0l-.5,3.07,7.145,1.162.468-2.878Z" transform="translate(-3237.929 -2381.381)" fill="#1f3a6f"/>
        <rect id="Rectángulo_36352" data-name="Rectángulo 36352" width="8.77" height="5.694" transform="matrix(0.987, 0.16, -0.16, 0.987, 11.539, 0)" fill="#1f3a6f"/>
        <path id="Trazado_131270" data-name="Trazado 131270" d="M3380.164,2036.349l-1.186,1.476,3.272,4.545-2.35,14.464,1.532.249,2.515-15.479Z" transform="translate(-3363.553 -2028.402)" fill="#1f3a6f"/>
      </g>
      <g id="Grupo_97470" data-name="Grupo 97470" transform="translate(246.851 107.629)">
        <path id="Trazado_131271" data-name="Trazado 131271" d="M4071.42,3406.111l-4.442,8.624-2.195-9.45Z" transform="translate(-4064.402 -3316.91)" fill="#fc8116"/>
        <path id="Trazado_131272" data-name="Trazado 131272" d="M4077.733,2130.448l-7.25-.9-.461,3.71-2.123,17.07-1.387,11.15-.04.326h0l-.387,3.115-6.929,51.467.524.065,6.2.772.524.065,6.927-51.467.363-2.92.065-.522.506-4.064,2.3-18.5.322-2.587.381-3.065Z" transform="translate(-4059.156 -2127.458)" fill="#529d2e"/>
        <path id="Trazado_131273" data-name="Trazado 131273" d="M4169.27,2602.524l-7.25-.9-.04.326h0l-.387,3.115,7.25.9.363-2.92Z" transform="translate(-4154.663 -2567.604)" fill="#67c53a"/>
        <rect id="Rectángulo_36353" data-name="Rectángulo 36353" width="8.852" height="5.747" transform="matrix(0.992, 0.123, -0.123, 0.992, 10.808, 0)" fill="#67c53a"/>
        <path id="Trazado_131274" data-name="Trazado 131274" d="M4283.285,2214.35l-1.141,1.533,3.472,4.46-1.825,14.677,1.555.193,1.953-15.707Z" transform="translate(-4267.062 -2206.526)" fill="#67c53a"/>
      </g>
      <path id="Trazado_131275" data-name="Trazado 131275" d="M2857.156,2469.355h56.868l-9.748,73.514h-36.125Z" transform="translate(-2691.605 -2336.654)" fill="#fff"/>
      <path id="Trazado_131276" data-name="Trazado 131276" d="M1909.8,2467.937c-.837-.114-.479-1.384.352-1.27a11.219,11.219,0,0,0,6.086-.893,10.988,10.988,0,0,0,6.48-9.917,11.942,11.942,0,0,0-5.95-10.166c-3.948-2.493-8.654-3.121-13.236-3.2-5.044-.079-10.113.231-15.144.567-20.125,1.35-40.118,4.528-60.311,4.875a157.424,157.424,0,0,1-28.741-1.906,107.576,107.576,0,0,1-14.124-3.321,39.546,39.546,0,0,1-11.874-5.57,21.649,21.649,0,0,1-5.6-6.049v0a16.981,16.981,0,0,1-2.481-7.091,14.792,14.792,0,0,1,.982-7.049c2.783-7,9.335-11.766,15.428-15.872v1.536q-2.183,1.53-4.291,3.15c-3.609,2.78-7.337,6.346-9.37,10.515a14.028,14.028,0,0,0-1.473,7.858,13.153,13.153,0,0,0,.378,1.989c2.431,9.054,11.735,13.287,19.949,15.7,19,5.592,39.111,5.444,58.687,3.891,10.256-.815,20.477-2.014,30.719-2.98,5.044-.477,10.1-.9,15.155-1.187a110.773,110.773,0,0,1,15.157-.24c7.68.618,16.542,4.508,17.4,13.19A12.462,12.462,0,0,1,1909.8,2467.937Z" transform="translate(-1673.478 -2272.995)" fill="#1f3a6f"/>
      <path id="Trazado_131277" data-name="Trazado 131277" d="M1910.72,2491.523v1.31a34.8,34.8,0,0,0-7.245-1c-5.04-.224-10.115-.062-15.155.132-20.156.771-40.23,3.378-60.425,3.143a157.291,157.291,0,0,1-28.675-2.728,107.641,107.641,0,0,1-14.023-3.724,39.513,39.513,0,0,1-11.709-5.908c-4.873-3.822-8.157-9.607-7.7-15.608a14.811,14.811,0,0,1,1.185-4.779,20.554,20.554,0,0,1,1.565-2.941c3.257-5.11,8.568-8.823,13.661-12.072v1.528q-1.916,1.276-3.774,2.625c-5.24,3.807-10.766,9.188-11.359,15.777a13.106,13.106,0,0,0,.315,4.275,16.091,16.091,0,0,0,.89,2.677v0c3.167,7.35,11.3,11.212,18.6,13.59,18.837,6.135,38.94,6.565,58.55,5.572,10.276-.521,20.527-1.427,30.792-2.1,5.058-.332,10.12-.606,15.186-.752a111.049,111.049,0,0,1,15.155.2A28.166,28.166,0,0,1,1910.72,2491.523Z" transform="translate(-1674.012 -2316.141)" fill="#003889" opacity="0.2" style="mix-blend-mode: multiply;isolation: isolate"/>
      <g id="Grupo_97471" data-name="Grupo 97471" transform="translate(204.497 106.442)">
        <path id="Trazado_131278" data-name="Trazado 131278" d="M3439.943,2457.063l0,0c-.027.015-.176.1-.409.2-1.008.456-3.573,1.352-4.368-.906-1-2.833.025-9-.156-9.418h-2.046s-.079-.949,1.914-1.588,4.169.33,4.277,1.486c.032.364.018,1.293-.01,2.414-.013.569-.03,1.188-.044,1.808-.023.955-.043,1.914-.043,2.7a8.889,8.889,0,0,0,.1,1.756A6.335,6.335,0,0,0,3439.943,2457.063Z" transform="translate(-3432.96 -2420.528)" fill="#fdc8aa"/>
        <path id="Trazado_131279" data-name="Trazado 131279" d="M3498.063,2505.807c-.034,1.445-.088,3.21-.088,4.51l-1.819.129A15.128,15.128,0,0,1,3498.063,2505.807Z" transform="translate(-3491.881 -2477.083)" fill="#efa37d"/>
        <path id="Trazado_131280" data-name="Trazado 131280" d="M3499.794,2467.905l-6.683,5.865,0,0c-.027.015-.176.1-.409.2a2.188,2.188,0,0,1-2.4-.829c-.917-1.391.473-3.174.473-3.174l1.494-2.2,3.674-4.7Z" transform="translate(-3486.128 -2437.236)" fill="#fdc8aa"/>
        <path id="Trazado_131281" data-name="Trazado 131281" d="M3716.481,3377.77s-11.716.089-12.048-.321c-.265-.326.8-12.412.467-12.53h4.911s-.748,10.005,1.709,10.422c4.231.715,4.959,1.338,4.976,1.856A2.089,2.089,0,0,1,3716.481,3377.77Z" transform="translate(-3686.031 -3278.087)" fill="#fdc8aa"/>
        <path id="Trazado_131282" data-name="Trazado 131282" d="M3693.174,3540.362s11.9.252,12.956.216,2.322.923,1.058,1.514-13.163.295-13.824.019S3693.174,3540.362,3693.174,3540.362Z" transform="translate(-3675.423 -3441.664)" fill="#15315e"/>
        <path id="Trazado_131283" data-name="Trazado 131283" d="M3998.715,3362.051s-11.709.4-12.053,0c-.273-.319-1.942-6.151-3.425-8.839-.393-.714-.773-1.206-1.11-1.315l4.425-2.684a37.119,37.119,0,0,0,1.674,3.725c1.448,2.8,3,6.466,5.466,6.816,4.249.6,4.994,1.206,5.024,1.723A2.118,2.118,0,0,1,3998.715,3362.051Z" transform="translate(-3944.982 -3263.443)" fill="#fdc8aa"/>
        <path id="Trazado_131284" data-name="Trazado 131284" d="M4037.428,3527.644s11.9-.065,12.957-.129,2.346.861,1.1,1.485-13.15.646-13.817.387S4037.428,3527.644,4037.428,3527.644Z" transform="translate(-3996.416 -3429.684)" fill="#15315e"/>
        <path id="Trazado_131285" data-name="Trazado 131285" d="M3649.461,2610.567l-.9,22.189-.607,15.763h-7.79s.566-24.1-1.952-38.581.629-21.046.629-21.046l8.454-.906,1.419,14.792Z" transform="translate(-3623.416 -2553.703)" fill="#1f3a6f"/>
        <path id="Trazado_131286" data-name="Trazado 131286" d="M3728,2814.479l-.9,22.188-5.627-29.978h5.782Z" transform="translate(-3701.954 -2757.615)" fill="#072542"/>
        <path id="Trazado_131287" data-name="Trazado 131287" d="M3708.149,2594.753l17.455,57.137-6.819,2.413s-19.933-43.433-20.563-50.043a40.933,40.933,0,0,1,0-10.072Z" transform="translate(-3680.02 -2559.487)" fill="#1f3a6f"/>
        <path id="Trazado_131288" data-name="Trazado 131288" d="M3908.352,2391.772l15.806,3.382s1.823-2.462,2.491-1.691-1.18,2.373-.393,2.24a1.7,1.7,0,0,1,2.046,1.914c-.2,1.6-1.928,2.27-4.918.49l-16.366-1.291Z" transform="translate(-3874.955 -2370.76)" fill="#fdc8aa"/>
        <path id="Trazado_131289" data-name="Trazado 131289" d="M3710.816,2249.609a5.444,5.444,0,0,1-2.756.284,3.594,3.594,0,0,1-2.729-1.4l.652-4.981.168-1.287,1.35,1.016,3.252,2.449.032,2.026Z" transform="translate(-3686.909 -2231.33)" fill="#fdc8aa"/>
        <path id="Trazado_131290" data-name="Trazado 131290" d="M3740.7,2261.73c-1-.211-1.867-1.674-3.173-4.243q-.06-.118-.111-.232l3.252,2.449Z" transform="translate(-3716.828 -2245.342)" fill="#efa37d"/>
        <path id="Trazado_131291" data-name="Trazado 131291" d="M3571.825,2351.367l-5.662,7.663,4.682,5.43,3.879-4.852Z" transform="translate(-3557.154 -2333.089)" fill="#e59d29"/>
        <path id="Trazado_131292" data-name="Trazado 131292" d="M3643.013,2326.42s.21-3.808,2.99-3.7,16.261,4.144,16.261,4.144l-1.731,7.5h-2.99a42.4,42.4,0,0,0-.157,7.553l-14.021.635S3642.751,2334.214,3643.013,2326.42Z" transform="translate(-3628.745 -2306.375)" fill="#f4b545"/>
        <path id="Trazado_131293" data-name="Trazado 131293" d="M3825.63,2497.811l-2.162-2.893h2.386Z" transform="translate(-3797.055 -2466.93)" fill="#e59d29"/>
        <path id="Trazado_131294" data-name="Trazado 131294" d="M3700.232,2150.231a.366.366,0,0,1,.357.343c.092,1.486,1.664,8.925-.323,9.564-2.184.7-5.125-.6-6.525-3.093a1.14,1.14,0,0,1-.141-.649l.023-.286s-1.9-.337-1.734-1.919,1.4-1.692,1.969-1.316c.548.362,1.983.6,2.167-2.319a.163.163,0,0,1,.27-.113C3696.8,2150.88,3696.846,2150.155,3700.232,2150.231Z" transform="translate(-3674.366 -2145.552)" fill="#fdc8aa"/>
        <path id="Trazado_131295" data-name="Trazado 131295" d="M3567.886,2089.592s4.079-3.164,2.646-6.027c-1.4-2.794-7.119-3.045-9.551-1.5a.58.58,0,0,1-.416.022c-.822-.158-3.659-.893-4.575.1a12.762,12.762,0,0,0-1.711,3.133,1.025,1.025,0,0,1-.69.708c-.935.284-3.44,1.413-3.219,2.7.3,1.762.719,2.78.262,3.343s-1.074,3.113.178,4.057a4.22,4.22,0,0,0,2.4.92s-.539,3.734,4.819,3.508,7.02-8.483,7.02-8.483Z" transform="translate(-3542.149 -2081.121)" fill="#1f3a6f"/>
      </g>
      <line id="Línea_250" data-name="Línea 250" y2="16.632" transform="translate(108.184 122.586)" fill="#003889"/>
      <circle id="Elipse_5225" data-name="Elipse 5225" cx="8.015" cy="8.015" r="8.015" transform="translate(177.754 32.219) rotate(-45)" fill="#fcd03e"/>
    </g>
  </g>
</svg>
