<svg xmlns="http://www.w3.org/2000/svg" width="53.938" height="54" viewBox="0 0 53.938 54">
  <g id="Grupo_96732" data-name="Grupo 96732" transform="translate(-1043.052 435.948)">
    <path id="Trazado_128782" data-name="Trazado 128782" d="M1043.052-392.706v-38.18c.11-.17.029-.36.054-.539a4.846,4.846,0,0,1,4.456-4.469c.18-.025.37.056.541-.054h43.779c.2.112.415.028.622.054a4.644,4.644,0,0,1,3.779,2.419,4.827,4.827,0,0,1,.706,2.658q-.012,18.746-.005,37.491a3.626,3.626,0,0,1-3.493,3.965c-.139.017-.277.052-.417.059-.717.034-.828-.088-.822.9.007,1.142,0,2.285,0,3.428,0,.742.012.75.775.754.912,0,1.825-.026,2.736.012a1.177,1.177,0,0,1,1.177,1.541c-.085.439-.388.593-.746.718h-52.3a.891.891,0,0,1-.842-.844v-.527a1.181,1.181,0,0,1,1.269-.884c.947-.019,1.894-.017,2.84,0,.43.007.591-.153.585-.586q-.025-1.95,0-3.9c.006-.427-.148-.594-.577-.605a5.24,5.24,0,0,1-1.4-.191A3.469,3.469,0,0,1,1043.052-392.706Z"/>
    <path id="Trazado_128783" data-name="Trazado 128783" d="M1043.052-32.8a1.466,1.466,0,0,0,.842.844C1043.052-31.955,1043.052-31.955,1043.052-32.8Z" transform="translate(0 -349.993)" fill="#e8e8e8"/>
    <path id="Trazado_128784" data-name="Trazado 128784" d="M1077.144-435.862a.11.11,0,0,1,.03-.086h.526A.594.594,0,0,1,1077.144-435.862Z" transform="translate(-29.596)" fill="#393939"/>
    <path id="Trazado_128785" data-name="Trazado 128785" d="M1413.916-435.948a.11.11,0,0,1,.03.086.594.594,0,0,1-.556-.086Z" transform="translate(-321.508)" fill="#393939"/>
    <path id="Trazado_128786" data-name="Trazado 128786" d="M1043.052-401.752l.086-.03a.6.6,0,0,1-.086.558Z" transform="translate(0 -29.661)" fill="#393939"/>
    <path id="Trazado_128787" data-name="Trazado 128787" d="M1098.088-332.671c-.864.266-1.052.521-1.052,1.438,0,3.515-.01,7.031.012,10.545,0,.428-.139.484-.5.468a18.233,18.233,0,0,0-1.893,0c-.439.027-.581-.067-.578-.554.024-4.113.014-8.225.014-12.338,0-1.119-.335-1.461-1.432-1.461q-3.025,0-6.05,0c-.994,0-1.356.37-1.357,1.378,0,4.148-.009,8.3.011,12.444,0,.451-.118.557-.546.531a18.714,18.714,0,0,0-2,0c-.36.017-.423-.111-.421-.44.014-2.32.007-4.64.007-6.96q0-7.224,0-14.447c0-1.06-.361-1.428-1.415-1.429q-3,0-6,0c-1.062,0-1.426.366-1.426,1.419q0,10.651.013,21.3c0,.48-.13.584-.575.557a16.778,16.778,0,0,0-1.945,0c-.385.021-.449-.112-.448-.468.014-3.234.009-6.468.008-9.7,0-1.106-.338-1.441-1.452-1.442q-3,0-6,0c-1.032,0-1.388.36-1.39,1.4,0,.773-.014,1.547.007,2.32.008.286-.088.367-.355.345-.244-.019-.491,0-.736-.006a1.576,1.576,0,0,1-1.65-1.712q0-16.267-.013-32.533c0-.455.226-.4.509-.4q14.521,0,29.042,0,9.812,0,19.624-.009c.394,0,.519.076.519.5q-.021,16.135-.011,32.27c0,1.3-.59,1.876-1.905,1.882-.83,0-.83,0-.83-.807q0-7.514,0-15.027c0-1.107-.344-1.461-1.431-1.462q-3,0-6,0c-1.061,0-1.41.359-1.411,1.43q0,2.346,0,4.693c0,.821.241,1.116,1.051,1.326a2.538,2.538,0,0,1,.1,1.561c-.075.211-.285.236-.45.321a.887.887,0,0,0-.54.774.86.86,0,0,0,.526.833c.185.093.389.165.464.391A1.357,1.357,0,0,1,1098.088-332.671Z" transform="translate(-13.783 -63.831)" fill="#fefefe"/>
    <path id="Trazado_128788" data-name="Trazado 128788" d="M1083.749-414.47q-12.126,0-24.252.011c-.48,0-.631-.119-.594-.6.044-.577,0-1.16.015-1.739a3.166,3.166,0,0,1,3.156-3.155c.158-.005.316,0,.473,0h42.4c2.385,0,3.635,1.249,3.636,3.63,0,.51-.011,1.02,0,1.529.008.25-.07.357-.325.328a3.2,3.2,0,0,0-.368,0Z" transform="translate(-13.756 -13.884)" fill="#fe5a5a"/>
    <path id="Trazado_128789" data-name="Trazado 128789" d="M1355.916-204.514v-1.175c.054-.148.19-.2.315-.253a.871.871,0,0,0,.577-.852.911.911,0,0,0-.62-.828c-.1-.047-.245-.056-.274-.207q0-.815,0-1.631c.8-.206,1.049-.508,1.052-1.327,0-1.177.013-2.353-.006-3.53-.005-.345.054-.494.448-.486,1.261.026,2.523.02,3.785,0,.323,0,.412.09.412.414q-.013,10.959,0,21.917c0,.333-.1.409-.413.4-1.261-.018-2.524-.024-3.785,0-.39.008-.449-.13-.448-.478.012-3.512.008-7.025.007-10.537C1356.968-203.989,1356.778-204.246,1355.916-204.514Z" transform="translate(-271.611 -191.988)" fill="#fe5a5a"/>
    <path id="Trazado_128790" data-name="Trazado 128790" d="M1185.061-192.39c0-3.356.007-6.711-.009-10.066,0-.387.082-.51.486-.5,1.226.029,2.454.022,3.681,0,.347-.005.482.058.481.45q-.019,10.145,0,20.291c0,.344-.088.44-.432.434-1.244-.021-2.489-.027-3.733,0-.4.01-.483-.111-.481-.495C1185.068-185.644,1185.061-189.017,1185.061-192.39Z" transform="translate(-123.277 -202.271)" fill="#f4c76e"/>
    <path id="Trazado_128791" data-name="Trazado 128791" d="M1274.458-129.126c0-1.9.008-3.794-.007-5.69,0-.335.073-.446.426-.439,1.279.023,2.559.018,3.838,0,.294,0,.381.076.38.377q-.015,5.743,0,11.486c0,.36-.14.386-.428.383-1.261-.012-2.524-.017-3.785,0-.34.005-.438-.083-.435-.431C1274.467-125.332,1274.458-127.229,1274.458-129.126Z" transform="translate(-200.887 -261.045)" fill="#78d1f9"/>
    <path id="Trazado_128792" data-name="Trazado 128792" d="M1100.316-109.662c0,1.4-.012,2.808.008,4.211.006.37-.055.515-.474.5-1.26-.032-2.521-.019-3.781-.006-.285,0-.391-.062-.389-.372q.017-4.369,0-8.739c0-.28.05-.4.366-.4,1.3.018,2.591.021,3.887,0,.353-.006.391.133.388.428C1100.309-112.575,1100.316-111.119,1100.316-109.662Z" transform="translate(-45.688 -279.099)" fill="#a4db69"/>
    <path id="Trazado_128793" data-name="Trazado 128793" d="M1087.86-308.058a3.817,3.817,0,0,1-3.66-3.225,3.8,3.8,0,0,1,2.921-4.253,3.477,3.477,0,0,1,2.313.222.42.42,0,0,0,.579-.09q2.852-2.884,5.727-5.744a.387.387,0,0,0,.091-.534,3.8,3.8,0,0,1,1.345-4.9,3.724,3.724,0,0,1,5.057.958,3.637,3.637,0,0,1,.454,3.689c-.108.276-.132.437.1.668q3.383,3.358,6.734,6.748a.544.544,0,0,0,.682.147,3.5,3.5,0,0,1,2.806.082.4.4,0,0,0,.541-.1q3.248-3.269,6.513-6.523a.36.36,0,0,0,.067-.529,3.792,3.792,0,0,1,1.112-5.081,3.78,3.78,0,0,1,5.126.85,3.8,3.8,0,0,1,.144,4.388,3.764,3.764,0,0,1-4.095,1.557.674.674,0,0,0-.776.2q-3.258,3.3-6.544,6.565a.509.509,0,0,0-.144.669,3.764,3.764,0,0,1-1.271,4.546,3.775,3.775,0,0,1-4.587-.151,3.727,3.727,0,0,1-1.009-4.562.482.482,0,0,0-.127-.666q-3.322-3.308-6.623-6.636a.5.5,0,0,0-.673-.138,3.41,3.41,0,0,1-2.707.073.584.584,0,0,0-.73.161q-2.832,2.866-5.694,5.7a.5.5,0,0,0-.119.668A3.78,3.78,0,0,1,1087.86-308.058Z" transform="translate(-35.693 -94.427)"/>
    <path id="Trazado_128794" data-name="Trazado 128794" d="M1083.339-333.062c-.77,0-1.54.007-2.309,0a1.092,1.092,0,0,1-1.214-1.034,1.092,1.092,0,0,1,1.231-1.071q2.336-.012,4.672,0c.756,0,1.246.434,1.24,1.062s-.5,1.038-1.257,1.044C1084.914-333.057,1084.126-333.062,1083.339-333.062Z" transform="translate(-31.916 -87.486)"/>
    <path id="Trazado_128795" data-name="Trazado 128795" d="M1083.37-294.671c-.787,0-1.575.008-2.362,0a1.083,1.083,0,0,1-1.19-1.058,1.084,1.084,0,0,1,1.2-1.046q2.362-.015,4.724,0a1.089,1.089,0,0,1,1.216,1.033c.015.626-.48,1.065-1.229,1.072C1084.944-294.665,1084.157-294.671,1083.37-294.671Z" transform="translate(-31.918 -120.814)"/>
    <path id="Trazado_128796" data-name="Trazado 128796" d="M1148.885-333.012a1.1,1.1,0,0,1-1.049-1.037,1.092,1.092,0,0,1,1.077-1.061,1.056,1.056,0,0,1,1.006,1.064A1.054,1.054,0,0,1,1148.885-333.012Z" transform="translate(-90.968 -87.542)" fill="#010101"/>
    <path id="Trazado_128797" data-name="Trazado 128797" d="M1349.033-161.91c.67.146,1.033.5,1.047,1.036s-.328.884-1.045,1.1a1.264,1.264,0,0,1-.922-.6C1347.766-161.052,1348.163-161.722,1349.033-161.91Z" transform="translate(-264.729 -237.905)" fill="#010101"/>
    <path id="Trazado_128798" data-name="Trazado 128798" d="M1225.285-405.046h-11.468a3.51,3.51,0,0,1-.525-.018,1.071,1.071,0,0,1-.942-1.037,1.071,1.071,0,0,1,.944-1.035,3.55,3.55,0,0,1,.525-.018h23.04c.849,0,1.36.4,1.359,1.055s-.511,1.053-1.361,1.053Q1231.072-405.044,1225.285-405.046Z" transform="translate(-146.976 -24.996)"/>
    <path id="Trazado_128799" data-name="Trazado 128799" d="M1088.294-406.011a1.093,1.093,0,0,1-1.085,1.006,1.093,1.093,0,0,1-1-1.087,1.093,1.093,0,0,1,1.085-1.006A1.094,1.094,0,0,1,1088.294-406.011Z" transform="translate(-37.462 -25.045)" fill="#010000"/>
    <path id="Trazado_128800" data-name="Trazado 128800" d="M1119.167-405a1.09,1.09,0,0,1-1.03-1.061,1.09,1.09,0,0,1,1.059-1.033,1.09,1.09,0,0,1,1.03,1.061A1.09,1.09,0,0,1,1119.167-405Z" transform="translate(-65.184 -25.05)" fill="#010000"/>
    <path id="Trazado_128801" data-name="Trazado 128801" d="M1152.149-406.023A1.088,1.088,0,0,1,1151.08-405a1.088,1.088,0,0,1-1.02-1.071,1.088,1.088,0,0,1,1.069-1.022A1.088,1.088,0,0,1,1152.149-406.023Z" transform="translate(-92.899 -25.049)" fill="#010000"/>
    <path id="Trazado_128802" data-name="Trazado 128802" d="M1370.442-311.17a1.691,1.691,0,0,1,1.636,1.713,1.7,1.7,0,0,1-1.7,1.656,1.7,1.7,0,0,1-1.662-1.744A1.692,1.692,0,0,1,1370.442-311.17Z" transform="translate(-282.725 -108.325)" fill="#fe5a5a"/>
    <path id="Trazado_128803" data-name="Trazado 128803" d="M1281.922-214.247a1.689,1.689,0,0,1-1.688,1.66,1.7,1.7,0,0,1-1.672-1.683,1.7,1.7,0,0,1,1.721-1.686A1.691,1.691,0,0,1,1281.922-214.247Z" transform="translate(-204.457 -190.985)" fill="#77d1f9"/>
    <path id="Trazado_128804" data-name="Trazado 128804" d="M1188.778-309.462a1.679,1.679,0,0,1-1.679,1.663,1.707,1.707,0,0,1-1.671-1.685,1.692,1.692,0,0,1,1.719-1.683A1.668,1.668,0,0,1,1188.778-309.462Z" transform="translate(-123.603 -108.328)" fill="#f4c76d"/>
    <path id="Trazado_128805" data-name="Trazado 128805" d="M1101.7-220.23a1.68,1.68,0,0,1-1.711-1.631,1.7,1.7,0,0,1,1.682-1.722,1.664,1.664,0,0,1,1.67,1.666A1.648,1.648,0,0,1,1101.7-220.23Z" transform="translate(-49.426 -184.364)" fill="#a4db69"/>
  </g>
</svg>
