<svg xmlns="http://www.w3.org/2000/svg" width="54.148" height="54" viewBox="0 0 54.148 54">
  <g id="Grupo_96735" data-name="Grupo 96735" transform="translate(-1515.068 719.182)">
    <path id="Trazado_128816" data-name="Trazado 128816" d="M1548.6-542.721v1.762a1.95,1.95,0,0,1-2.459-.509,2.461,2.461,0,0,0-3.292-.743,2.483,2.483,0,0,0-1.032,3.214,2.482,2.482,0,0,0,4.4.262,1.07,1.07,0,0,1,1.059-.569c.354.036.562.2.577.557a18.639,18.639,0,0,1-.011,2.358,1.045,1.045,0,0,1-1.034,1,5.78,5.78,0,0,1-.675.019h-18.52c-.131,0-.263,0-.394,0-.917-.033-1.3-.4-1.315-1.315-.019-1.723-.006-3.446-.006-5.169q0-7.051,0-14.1c0-.131,0-.262,0-.393.013-.831.115-.941.944-.947,1.163-.009,2.327,0,3.49,0a2.594,2.594,0,0,0,2.773-2.786c.007-1.18-.007-2.36.005-3.539.007-.733.125-.861.852-.862q6.277-.014,12.553,0c.913,0,1.309.325,1.33,1.224.014.585.5.514.755.76v1.762c-.148.189-.364.17-.567.178-.281.012-.564-.014-.844.008a2.123,2.123,0,0,1-2.16-.9,2.314,2.314,0,0,0-3.564-.175,2.415,2.415,0,0,0-.009,3.594,2.431,2.431,0,0,0,3.6-.131.36.36,0,0,0,.074-.084c.442-1,1.314-.876,2.16-.83a.527.527,0,0,1,.563.565c.01.225.01.449.01.674,0,4.589.008,9.178-.009,13.767C1547.846-543.452,1547.83-542.89,1548.6-542.721Z" transform="translate(-9.195 -131.439)" fill="#5489fe"/>
    <path id="Trazado_128817" data-name="Trazado 128817" d="M1539.4-571.706a.979.979,0,0,0-.111-.016c-.763-.021-.763-.021-.791-.8a.911.911,0,0,0-1.018-1c-4.334-.005-8.669,0-13-.01-.325,0-.408.095-.4.41.017,1.311.011,2.622.006,3.933a2.706,2.706,0,0,1-2.854,2.859c-1.295.006-2.589.012-3.884-.006-.346,0-.48.06-.479.45q.019,10.028.011,20.057c0,.765.327,1.085,1.1,1.085q9.71,0,19.42,0c.773,0,1.093-.323,1.1-1.09.006-.655.018-1.312-.01-1.966-.007-.178.19-.533-.191-.522-.328.009-.744-.243-.981.258a2.569,2.569,0,0,1-1.718,1.421,2.692,2.692,0,0,1-3.233-1.656,2.688,2.688,0,0,1,1.3-3.343,2.619,2.619,0,0,1,3.484.974.917.917,0,0,0,1.011.533c.411-.029.824-.017,1.237-.023,1.388.006,2.777,0,4.165.028.348.007.343-.157.342-.4q-.008-2.36,0-4.72c0-.884.3-1.18,1.175-1.181,1.257,0,2.515-.013,3.772.008.354.006.476-.07.469-.452-.026-1.273-.013-2.547-.009-3.821,0-.815.31-1.128,1.113-1.131,1.239,0,2.478-.022,3.716.01.446.011.608-.068.591-.561-.043-1.216-.015-2.435-.013-3.652,0-.91.291-1.193,1.22-1.194,1.239,0,2.478-.02,3.716.01.41.01.487-.118.48-.5-.025-1.273-.013-2.547-.008-3.821,0-.766.325-1.084,1.1-1.086q2.477-.007,4.955,0c.844,0,1.151.307,1.151,1.15q0,10.368-.01,20.737c0,.475.084.631.6.612,1.216-.045,1.192-.013,1.229,1.188.015.482-.094.611-.6.61-9.215-.018-18.431-.01-27.646-.024-.465,0-.659.065-.618.591.056.707.025,1.423.011,2.134a2.675,2.675,0,0,1-2.69,2.676q-9.91.018-19.82,0a2.665,2.665,0,0,1-2.714-2.707q-.014-10.4,0-20.793a2.686,2.686,0,0,1,.817-1.967q3.042-3.043,6.091-6.08a2.812,2.812,0,0,1,2.079-.83c4.467.007,8.934,0,13.4.005a2.821,2.821,0,0,1,2.849,3.374c-.025.161-.061.23-.231.225C1539.851-571.729,1539.626-571.713,1539.4-571.706Z" transform="translate(0 -122.24)"/>
    <path id="Trazado_128818" data-name="Trazado 128818" d="M1631.141-674.16c-.9-.046-.9-.046-.9-.98,0-4.883-.006-9.767.011-14.65,0-.45-.082-.67-.57-.581a1.178,1.178,0,0,1-.337,0,1.313,1.313,0,0,0-1.488.7,2.507,2.507,0,0,1-3.085.913,2.7,2.7,0,0,1-1.737-2.684,2.7,2.7,0,0,1,2.113-2.458,2.623,2.623,0,0,1,2.914,1.293.712.712,0,0,0,.776.442c.767-.029,1.536-.019,2.3-.025,1.576.006,3.153.007,4.729.024a.687.687,0,0,0,.536-.234q2.721-2.729,5.458-5.442c.259-.255.169-.348-.06-.54a11.552,11.552,0,0,1-4.348-9.5,11.728,11.728,0,0,1,9.882-11.169,11.738,11.738,0,0,1,13.515,10.091,11.754,11.754,0,0,1-10.167,13.1,11.6,11.6,0,0,1-6.612-1.09.508.508,0,0,0-.7.134c-1.97,1.981-3.957,3.947-5.924,5.931a1.575,1.575,0,0,1-1.24.521c-1.219-.028-2.441.012-3.66-.021-.428-.012-.517.106-.516.521.016,4.909.01,9.817.01,14.726C1632.041-674.206,1632.041-674.206,1631.141-674.16Z" transform="translate(-91.74)"/>
    <path id="Trazado_128819" data-name="Trazado 128819" d="M1544.819-686.651a2.721,2.721,0,0,1-3.547,2.745.7.7,0,0,0-.791.153c-1.456,1.268-2.928,2.519-4.4,3.77a1.172,1.172,0,0,0-.395.587,2.644,2.644,0,0,1-2.323,1.919,2.608,2.608,0,0,1-2.644-1.445.528.528,0,0,0-.545-.347q-1.576.03-3.154,0a.524.524,0,0,0-.543.349,2.607,2.607,0,0,1-3.137,1.331.642.642,0,0,0-.766.211c-.648.677-1.309,1.344-1.992,1.986a.688.688,0,0,0-.211.817,2.618,2.618,0,0,1-1.134,2.977,2.684,2.684,0,0,1-3.15-.172,2.673,2.673,0,0,1-.828-3.04,2.708,2.708,0,0,1,2.683-1.749c.056,0,.124-.012.167.013.792.461,1.213-.1,1.678-.585.519-.542,1.055-1.067,1.59-1.592a.482.482,0,0,0,.168-.572,2.664,2.664,0,0,1,1.5-3.346,2.674,2.674,0,0,1,3.475,1.307c.1.185.187.281.413.279,1.108-.012,2.215-.01,3.323,0a.413.413,0,0,0,.424-.261,2.658,2.658,0,0,1,4.453-.6c.185.183.269.165.442.016,1.277-1.1,2.553-2.208,3.852-3.286.28-.232.114-.431.068-.644a2.57,2.57,0,0,1,.932-2.711,2.533,2.533,0,0,1,2.848-.342A2.573,2.573,0,0,1,1544.819-686.651Z" transform="translate(-0.014 -25.497)"/>
    <path id="Trazado_128820" data-name="Trazado 128820" d="M1586.4-471.8c-1.649,0-3.3-.009-4.946.007-.348,0-.479-.065-.478-.451,0-1.355-.013-1.355,1.364-1.355,2.979,0,5.958.008,8.938-.009.4,0,.545.067.536.509-.025,1.3,0,1.3-1.309,1.3Z" transform="translate(-56.003 -208.677)"/>
    <path id="Trazado_128821" data-name="Trazado 128821" d="M1549.563-443.667c1.33,0,2.66.014,3.99-.009.369-.006.466.1.465.464,0,1.343.011,1.343-1.317,1.343-2.4,0-4.8-.011-7.193.011-.422,0-.53-.1-.522-.522.022-1.287,0-1.287,1.319-1.287Z" transform="translate(-25.422 -234.109)"/>
    <path id="Trazado_128822" data-name="Trazado 128822" d="M1547.533-501.716c-.767,0-1.534-.01-2.3.005-.267.005-.34-.078-.352-.345-.069-1.459-.078-1.459,1.365-1.459,1.216,0,2.432.01,3.648-.007.317,0,.4.084.41.4.024,1.4.035,1.4-1.366,1.4Z" transform="translate(-25.312 -183.255)"/>
    <path id="Trazado_128823" data-name="Trazado 128823" d="M1619.5-441.859c-.767,0-1.534-.01-2.3.005-.269.005-.338-.082-.35-.347-.068-1.457-.076-1.457,1.367-1.457,1.216,0,2.432.011,3.648-.007.319,0,.4.088.408.405.023,1.4.035,1.4-1.368,1.4Z" transform="translate(-86.472 -234.118)"/>
    <path id="Trazado_128824" data-name="Trazado 128824" d="M1583.723-413.718c.767,0,1.535.01,2.3-.005.265-.005.341.075.354.344.07,1.46.079,1.46-1.364,1.46-1.216,0-2.432-.01-3.648.007-.315,0-.405-.081-.411-.4-.024-1.4-.036-1.4,1.365-1.4Z" transform="translate(-55.982 -259.561)"/>
    <path id="Trazado_128825" data-name="Trazado 128825" d="M1595.212-501.71c-.617,0-1.235-.018-1.851.007-.327.013-.4-.1-.4-.411-.022-1.395-.032-1.395,1.372-1.395.9,0,1.8.01,2.693-.006.31-.006.457.03.46.41.011,1.395.029,1.395-1.376,1.395Z" transform="translate(-66.184 -183.261)"/>
    <path id="Trazado_128826" data-name="Trazado 128826" d="M1546.45-471.765H1546c-1.515,0-1.508,0-1.355-1.52.022-.219.09-.283.3-.282q1.514.011,3.027,0c.22,0,.308.078.284.292a.794.794,0,0,0,0,.112c.042,1.4.042,1.4-1.359,1.4Z" transform="translate(-25.078 -208.709)"/>
    <path id="Trazado_128827" data-name="Trazado 128827" d="M1546.46-411.907h-.448c-1.514,0-1.508,0-1.357-1.519.021-.218.087-.285.3-.283q1.513.011,3.027,0c.218,0,.31.075.286.29a.8.8,0,0,0,0,.112c.043,1.4.043,1.4-1.357,1.4Z" transform="translate(-25.086 -259.573)"/>
    <path id="Trazado_128828" data-name="Trazado 128828" d="M1594.328-531.655c-1.369,0-1.353,0-1.356-1.353,0-.378.117-.469.472-.454.615.027,1.233.026,1.848,0,.327-.014.4.1.4.409C1595.716-531.655,1595.726-531.655,1594.328-531.655Z" transform="translate(-66.199 -157.813)"/>
    <path id="Trazado_128829" data-name="Trazado 128829" d="M1636.243-503.474c1.32,0,1.307,0,1.309,1.342,0,.36-.087.484-.461.465-.633-.031-1.269-.019-1.9,0-.261.006-.342-.068-.356-.34C1634.759-503.474,1634.75-503.474,1636.243-503.474Z" transform="translate(-101.748 -183.296)"/>
    <path id="Trazado_128830" data-name="Trazado 128830" d="M1826.879-535.16c0-3.257.009-6.515-.01-9.772,0-.421.1-.539.523-.522.88.035,1.763.022,2.644,0,.313-.006.458.033.457.412q-.019,9.941,0,19.881c0,.319-.086.413-.406.406-.919-.021-1.839-.027-2.757,0-.383.012-.457-.119-.456-.472C1826.884-528.533,1826.879-531.847,1826.879-535.16Z" transform="translate(-264.951 -147.622)" fill="#6399fe"/>
    <path id="Trazado_128831" data-name="Trazado 128831" d="M1790.9-501.885c0-2.377.01-4.753-.01-7.13,0-.409.082-.547.517-.529.9.038,1.8.025,2.7,0,.323-.008.406.091.405.408q-.014,7.242,0,14.484c0,.382-.149.417-.459.411-.9-.016-1.8-.024-2.7,0-.371.011-.466-.1-.463-.465C1790.906-497.095,1790.9-499.49,1790.9-501.885Z" transform="translate(-234.377 -178.137)" fill="#5489fe"/>
    <path id="Trazado_128832" data-name="Trazado 128832" d="M1758.538-468.59c0,1.461-.019,2.923.012,4.384.009.435-.123.531-.533.516-.9-.032-1.8-.02-2.7,0-.286,0-.388-.067-.387-.372q.016-4.581,0-9.161c0-.305.1-.376.387-.372.92.015,1.84.021,2.759,0,.358-.009.48.079.474.459C1758.525-471.625,1758.538-470.107,1758.538-468.59Z" transform="translate(-203.819 -208.68)" fill="#4976f1"/>
    <path id="Trazado_128833" data-name="Trazado 128833" d="M1718.957-435.458c0-.618.01-1.237-.005-1.855-.007-.262.067-.36.344-.356q1.464.022,2.928,0c.281,0,.344.1.342.359q-.016,1.911,0,3.822c0,.237-.063.33-.315.327q-1.492-.018-2.984,0c-.256,0-.317-.1-.312-.33C1718.964-434.146,1718.957-434.8,1718.957-435.458Z" transform="translate(-173.249 -239.214)" fill="#f4714f"/>
    <path id="Trazado_128834" data-name="Trazado 128834" d="M1536.342-550l4.008-3.992c0,1.05.02,2.1-.009,3.157a.857.857,0,0,1-.945.831C1538.388-549.992,1537.38-550,1536.342-550Z" transform="translate(-18.078 -140.367)" fill="#7caefe"/>
    <path id="Trazado_128835" data-name="Trazado 128835" d="M1641.907-407.695a.905.905,0,0,1,.922.86.908.908,0,0,1-.905.935.9.9,0,0,1-.893-.889A.9.9,0,0,1,1641.907-407.695Z" transform="translate(-107.037 -264.684)" fill="#bbd0f4"/>
    <path id="Trazado_128836" data-name="Trazado 128836" d="M1740.1-706.534v.61c0,2.958.008,5.916-.008,8.874a1.674,1.674,0,0,0,.468,1.208c2.016,2.243,4.011,4.506,6.028,6.749.253.281.24.392-.075.607a9.928,9.928,0,0,1-15.33-6.94A9.852,9.852,0,0,1,1740.1-706.534Z" transform="translate(-183.576 -10.747)" fill="#fec331"/>
    <path id="Trazado_128837" data-name="Trazado 128837" d="M1802.949-706.492a9.9,9.9,0,0,1,8.875,8.472c.041.392-.059.457-.418.455-2.681-.013-5.362-.007-8.044-.007-.24,0-.469.06-.467-.341.016-2.807.01-5.614.013-8.421A.638.638,0,0,1,1802.949-706.492Z" transform="translate(-244.58 -10.783)" fill="#5489fe"/>
    <path id="Trazado_128838" data-name="Trazado 128838" d="M1810.307-635.24h.654c2.215,0,4.429.018,6.643-.014.507-.007.578.139.5.59a10.087,10.087,0,0,1-2.337,5.023c-.131.152-.221.288-.424.058C1813.7-631.443,1812.041-633.295,1810.307-635.24Z" transform="translate(-250.877 -71.317)" fill="#f4714f"/>
    <path id="Trazado_128839" data-name="Trazado 128839" d="M1636.832-538.505a.908.908,0,0,1-.864.92.9.9,0,0,1-.934-.9.9.9,0,0,1,.891-.891A.9.9,0,0,1,1636.832-538.505Z" transform="translate(-101.94 -152.785)" fill="#bbd0f4"/>
    <path id="Trazado_128840" data-name="Trazado 128840" d="M1690.809-676.156a.9.9,0,0,1-.877.9.9.9,0,0,1-.92-.861.9.9,0,0,1,.905-.933A.9.9,0,0,1,1690.809-676.156Z" transform="translate(-147.807 -35.805)" fill="#bbd0f4"/>
    <path id="Trazado_128841" data-name="Trazado 128841" d="M1570.864-634.238a.9.9,0,0,1-.9.885.9.9,0,0,1-.9-.881.9.9,0,0,1,.925-.913A.9.9,0,0,1,1570.864-634.238Z" transform="translate(-45.886 -71.408)" fill="#bbd0f4"/>
    <path id="Trazado_128842" data-name="Trazado 128842" d="M1629.038-634.294a.9.9,0,0,1,.928-.853.9.9,0,0,1,.867.968.907.907,0,0,1-.955.824A.9.9,0,0,1,1629.038-634.294Z" transform="translate(-96.845 -71.407)" fill="#bbd0f4"/>
    <path id="Trazado_128843" data-name="Trazado 128843" d="M1528.881-592.344a.9.9,0,0,1-.889.893.9.9,0,0,1-.908-.873.9.9,0,0,1,.917-.921A.9.9,0,0,1,1528.881-592.344Z" transform="translate(-10.21 -107.014)" fill="#bbd0f4"/>
  </g>
</svg>
