<svg xmlns="http://www.w3.org/2000/svg" width="401" height="193" viewBox="0 0 401 193">
  <g id="Grupo_105831" data-name="Grupo 105831" transform="translate(-389.5 -5158.5)">
    <g id="Grupo_96742" data-name="Grupo 96742" transform="translate(326 6557)" style="isolation: isolate">
      <rect id="Rectángulo_36179" data-name="Rectángulo 36179" width="400" height="192" transform="translate(64 -1398)" fill="#fff7df" stroke="#12263f" stroke-width="1"/>
      <line id="Línea_228" data-name="Línea 228" x2="400" transform="translate(64 -1237.5)" fill="none" stroke="#12263f" stroke-width="1"/>
      <rect id="Rectángulo_36180" data-name="Rectángulo 36180" width="400" height="39" transform="translate(64 -1398)" fill="#ffead8" stroke="#12263f" stroke-width="1"/>
      <line id="Línea_237" data-name="Línea 237" x2="400" transform="translate(64 -1267.5)" fill="none" stroke="#12263f" stroke-width="1"/>
      <line id="Línea_229" data-name="Línea 229" x2="400" transform="translate(64 -1298.5)" fill="none" stroke="#12263f" stroke-width="1"/>
      <line id="Línea_230" data-name="Línea 230" x2="400" transform="translate(64 -1329.5)" fill="none" stroke="#12263f" stroke-width="1"/>
      <line id="Línea_231" data-name="Línea 231" x2="400" transform="translate(64 -1359.5)" fill="none" stroke="#12263f" stroke-width="1"/>
      <line id="Línea_235" data-name="Línea 235" y2="192" transform="translate(265 -1398)" fill="none" stroke="#12263f" stroke-width="1"/>
    </g>
    <path id="Trazado_138167" data-name="Trazado 138167" d="M4.052-4.342V0H.967V-12.8H6.073a5.948,5.948,0,0,1,2.6.541,4.074,4.074,0,0,1,1.749,1.538,4.2,4.2,0,0,1,.62,2.263A3.7,3.7,0,0,1,9.7-5.462,5.561,5.561,0,0,1,6.021-4.342Zm0-2.382H6.073A1.906,1.906,0,0,0,7.44-7.172a1.665,1.665,0,0,0,.47-1.266A2.059,2.059,0,0,0,7.427-9.87a1.712,1.712,0,0,0-1.318-.545H4.052ZM18.3-6.829l-.976-.07a1.752,1.752,0,0,0-1.793.879V0H12.568V-9.51h2.777l.1,1.222a2.294,2.294,0,0,1,2.083-1.4,2.888,2.888,0,0,1,.826.105Zm5.669,7a4.889,4.889,0,0,1-3.542-1.305,4.507,4.507,0,0,1-1.354-3.4v-.246a5.84,5.84,0,0,1,.541-2.575A3.955,3.955,0,0,1,21.19-9.075a4.763,4.763,0,0,1,2.461-.611,4.117,4.117,0,0,1,3.164,1.244,4.887,4.887,0,0,1,1.16,3.467v1.151H22.087a2.135,2.135,0,0,0,.694,1.257,2.066,2.066,0,0,0,1.389.457,2.662,2.662,0,0,0,2.2-.984l1.354,1.6A3.784,3.784,0,0,1,26.152-.277,5.3,5.3,0,0,1,23.968.176ZM23.634-7.4q-1.3,0-1.547,1.723h2.988v-.229a1.467,1.467,0,0,0-.36-1.1A1.434,1.434,0,0,0,23.634-7.4ZM23.6-13.509h3.129l-2.443,2.76-2.417,0ZM34.146-2.672a.684.684,0,0,0-.4-.606,6.016,6.016,0,0,0-1.5-.475A6.853,6.853,0,0,1,30.419-4.4a3.062,3.062,0,0,1-1.1-.971,2.319,2.319,0,0,1-.378-1.31,2.628,2.628,0,0,1,1.081-2.158,4.453,4.453,0,0,1,2.83-.848,4.934,4.934,0,0,1,3.023.853A2.666,2.666,0,0,1,37.02-6.592H34.049q0-1.143-1.2-1.143a1.194,1.194,0,0,0-.782.259.8.8,0,0,0-.316.646.737.737,0,0,0,.387.642,3.654,3.654,0,0,0,1.235.4,10.671,10.671,0,0,1,1.49.378A2.706,2.706,0,0,1,37-2.76,2.491,2.491,0,0,1,35.846-.642a5.068,5.068,0,0,1-2.993.817,5.172,5.172,0,0,1-2.18-.439,3.645,3.645,0,0,1-1.494-1.2,2.707,2.707,0,0,1-.536-1.591h2.769a1.145,1.145,0,0,0,.439.962,1.808,1.808,0,0,0,1.081.3,1.422,1.422,0,0,0,.91-.246A.787.787,0,0,0,34.146-2.672Zm7.69-9.2V-9.51H43.4v2.057H41.836V-3.1a1.111,1.111,0,0,0,.193.747,1.037,1.037,0,0,0,.765.211,4.345,4.345,0,0,0,.738-.053V-.079a5.466,5.466,0,0,1-1.67.255A3.1,3.1,0,0,1,39.6-.545a2.954,2.954,0,0,1-.729-2.188v-4.72H37.661V-9.51h1.213v-2.364ZM49.922,0a3.344,3.344,0,0,1-.281-.853A2.754,2.754,0,0,1,47.355.176,3.374,3.374,0,0,1,45.07-.637a2.588,2.588,0,0,1-.94-2.043,2.66,2.66,0,0,1,1.143-2.338,5.821,5.821,0,0,1,3.322-.791h.914v-.5q0-1.316-1.134-1.316A.927.927,0,0,0,47.32-6.587H44.358a2.655,2.655,0,0,1,1.173-2.239,4.931,4.931,0,0,1,2.993-.86A4.323,4.323,0,0,1,51.4-8.8a3.086,3.086,0,0,1,1.081,2.435v4.21a4.311,4.311,0,0,0,.4,2V0ZM48.067-1.934a1.652,1.652,0,0,0,.918-.237,1.487,1.487,0,0,0,.523-.536V-4.228h-.861q-1.547,0-1.547,1.389a.848.848,0,0,0,.272.655A.986.986,0,0,0,48.067-1.934ZM56.918-9.51l.1,1.116A3.27,3.27,0,0,1,59.73-9.686a2.407,2.407,0,0,1,2.435,1.433A3.165,3.165,0,0,1,64.96-9.686q2.892,0,2.971,3.5V0H64.96V-6a1.813,1.813,0,0,0-.246-1.063,1.048,1.048,0,0,0-.9-.334,1.4,1.4,0,0,0-1.31.782l.009.123V0H59.546V-5.985a1.906,1.906,0,0,0-.237-1.081A1.045,1.045,0,0,0,58.4-7.4a1.42,1.42,0,0,0-1.3.782V0H54.141V-9.51ZM69.249-4.843A5.613,5.613,0,0,1,69.8-7.378a3.96,3.96,0,0,1,1.591-1.709,4.791,4.791,0,0,1,2.435-.6,4.373,4.373,0,0,1,3.366,1.323,5.076,5.076,0,0,1,1.23,3.6v.105A4.925,4.925,0,0,1,77.19-1.129,4.384,4.384,0,0,1,73.846.176a4.434,4.434,0,0,1-3.261-1.217,4.761,4.761,0,0,1-1.327-3.3Zm2.962.185a3.538,3.538,0,0,0,.413,1.934,1.376,1.376,0,0,0,1.222.615q1.582,0,1.617-2.435v-.3q0-2.558-1.635-2.558-1.485,0-1.608,2.206Zm12.5,1.986a.684.684,0,0,0-.4-.606,6.016,6.016,0,0,0-1.5-.475A6.853,6.853,0,0,1,80.982-4.4a3.062,3.062,0,0,1-1.1-.971,2.319,2.319,0,0,1-.378-1.31,2.628,2.628,0,0,1,1.081-2.158,4.453,4.453,0,0,1,2.83-.848,4.934,4.934,0,0,1,3.023.853,2.666,2.666,0,0,1,1.143,2.241H84.612q0-1.143-1.2-1.143a1.194,1.194,0,0,0-.782.259.8.8,0,0,0-.316.646.737.737,0,0,0,.387.642,3.654,3.654,0,0,0,1.235.4,10.671,10.671,0,0,1,1.49.378A2.706,2.706,0,0,1,87.565-2.76,2.491,2.491,0,0,1,86.41-.642a5.068,5.068,0,0,1-2.993.817,5.172,5.172,0,0,1-2.18-.439,3.645,3.645,0,0,1-1.494-1.2,2.707,2.707,0,0,1-.536-1.591h2.769a1.145,1.145,0,0,0,.439.962,1.808,1.808,0,0,0,1.081.3,1.422,1.422,0,0,0,.91-.246A.787.787,0,0,0,84.709-2.672ZM93.656-5.2a13.431,13.431,0,0,1,.571-3.99,9.629,9.629,0,0,1,1.578-3.129,5.6,5.6,0,0,1,2.237-1.793l.563,1.459a5.73,5.73,0,0,0-1.9,2.826,13.782,13.782,0,0,0-.681,4.5v.387a14.051,14.051,0,0,0,.672,4.588A5.706,5.706,0,0,0,98.6,2.5l-.562,1.459a5.547,5.547,0,0,1-2.237-1.8A9.484,9.484,0,0,1,94.228-.958a13.5,13.5,0,0,1-.571-3.85Zm9.984-1.687,1.38-2.619H108.1l-2.5,4.632L108.22,0h-3.094l-1.494-2.812L102.164,0H99.053l2.637-4.878-2.5-4.632H102.3Zm10.081,1.934a12.532,12.532,0,0,1-.606,3.92,10.008,10.008,0,0,1-1.674,3.186,5.574,5.574,0,0,1-2.307,1.806L108.571,2.5a5.787,5.787,0,0,0,1.89-2.812,13.577,13.577,0,0,0,.694-4.368v-.536a14.051,14.051,0,0,0-.672-4.588,5.706,5.706,0,0,0-1.912-2.848l.563-1.459a5.676,5.676,0,0,1,2.29,1.789,9.885,9.885,0,0,1,1.67,3.138,12.426,12.426,0,0,1,.628,3.845Z" transform="translate(433 5184)" fill="#12263f"/>
    <path id="Trazado_138168" data-name="Trazado 138168" d="M6.531,0H3.891V-8.406L1.3-7.648v-2l4.992-1.727h.242Z" transform="translate(480 5218)" fill="#12263f"/>
    <path id="Trazado_138165" data-name="Trazado 138165" d="M-2.734,0H-5.375V-8.406l-2.594.758v-2l4.992-1.727h.242ZM6.531,0H3.891V-8.406L1.3-7.648v-2l4.992-1.727h.242Z" transform="translate(696 5218)" fill="#12263f"/>
    <path id="Trazado_138169" data-name="Trazado 138169" d="M8.633,0H.7V-1.719L4.352-5.562A4.364,4.364,0,0,0,5.7-8.008a1.7,1.7,0,0,0-.32-1.117,1.144,1.144,0,0,0-.93-.383A1.158,1.158,0,0,0,3.477-9,2.1,2.1,0,0,0,3.1-7.719H.461A3.736,3.736,0,0,1,.984-9.652a3.671,3.671,0,0,1,1.453-1.387,4.317,4.317,0,0,1,2.078-.5,4.246,4.246,0,0,1,2.84.852,3.04,3.04,0,0,1,1,2.445A3.551,3.551,0,0,1,8.1-6.934,5.739,5.739,0,0,1,7.324-5.6a19.581,19.581,0,0,1-1.7,1.871l-1.469,1.7H8.633Z" transform="translate(480 5248)" fill="#12263f"/>
    <path id="Trazado_138162" data-name="Trazado 138162" d="M3.734-8.336a2.626,2.626,0,0,1-.41,1.461A2.987,2.987,0,0,1,2.2-5.859,3.287,3.287,0,0,1,3.484-4.77a2.812,2.812,0,0,1,.477,1.637A2.977,2.977,0,0,1,2.91-.727,4.364,4.364,0,0,1,.016.156,4.443,4.443,0,0,1-2.906-.73a2.956,2.956,0,0,1-1.07-2.4A2.848,2.848,0,0,1-3.508-4.75,3.187,3.187,0,0,1-2.18-5.859,3,3,0,0,1-3.32-6.875a2.608,2.608,0,0,1-.414-1.461A2.919,2.919,0,0,1-2.727-10.68a4.051,4.051,0,0,1,2.719-.859,4.076,4.076,0,0,1,2.734.859A2.919,2.919,0,0,1,3.734-8.336ZM1.32-3.344A1.5,1.5,0,0,0,.957-4.426,1.265,1.265,0,0,0,0-4.8a1.278,1.278,0,0,0-.961.379,1.492,1.492,0,0,0-.367,1.082A1.5,1.5,0,0,0-.957-2.27a1.274,1.274,0,0,0,.973.395,1.224,1.224,0,0,0,.945-.391A1.532,1.532,0,0,0,1.32-3.344ZM-.008-9.508a.973.973,0,0,0-.809.348,1.509,1.509,0,0,0-.277.965,1.6,1.6,0,0,0,.281.984.97.97,0,0,0,.828.375.931.931,0,0,0,.809-.375,1.65,1.65,0,0,0,.27-.984,1.512,1.512,0,0,0-.277-.961A.986.986,0,0,0-.008-9.508Z" transform="translate(696 5248)" fill="#12263f"/>
    <path id="Trazado_138170" data-name="Trazado 138170" d="M7.648-4.445H8.8v2.031H7.648V0H5.016V-2.414H.617L.461-4.023l4.555-7.328v-.023H7.648Zm-4.68,0H5.016v-3.5l-.164.266Z" transform="translate(480 5308)" fill="#12263f"/>
    <path id="Trazado_138163" data-name="Trazado 138163" d="M4,0H-3.937V-1.719L-.281-5.562A4.364,4.364,0,0,0,1.07-8.008,1.7,1.7,0,0,0,.75-9.125a1.144,1.144,0,0,0-.93-.383A1.158,1.158,0,0,0-1.156-9a2.1,2.1,0,0,0-.375,1.277H-4.172a3.736,3.736,0,0,1,.523-1.934A3.671,3.671,0,0,1-2.2-11.039a4.317,4.317,0,0,1,2.078-.5,4.246,4.246,0,0,1,2.84.852,3.04,3.04,0,0,1,1,2.445,3.551,3.551,0,0,1-.25,1.309A5.739,5.739,0,0,1,2.691-5.6a19.581,19.581,0,0,1-1.7,1.871l-1.469,1.7H4Z" transform="translate(696 5308)" fill="#12263f"/>
    <path id="Trazado_138171" data-name="Trazado 138171" d="M3.1-6.789H4.344A1.291,1.291,0,0,0,5.82-8.234a1.25,1.25,0,0,0-.352-.918,1.333,1.333,0,0,0-.992-.355,1.427,1.427,0,0,0-.91.3.93.93,0,0,0-.387.758H.547a2.7,2.7,0,0,1,.5-1.6,3.3,3.3,0,0,1,1.387-1.1,4.741,4.741,0,0,1,1.949-.395,4.658,4.658,0,0,1,2.984.867A2.883,2.883,0,0,1,8.453-8.289,2.4,2.4,0,0,1,8-6.9,3.2,3.2,0,0,1,6.7-5.844a3.058,3.058,0,0,1,1.422,1A2.623,2.623,0,0,1,8.633-3.2,2.935,2.935,0,0,1,7.461-.758,4.864,4.864,0,0,1,4.383.156,5.045,5.045,0,0,1,2.309-.27,3.25,3.25,0,0,1,.859-1.449,3.067,3.067,0,0,1,.367-3.164H3.016a1.185,1.185,0,0,0,.422.906,1.489,1.489,0,0,0,1.039.383,1.56,1.56,0,0,0,1.109-.387A1.293,1.293,0,0,0,6-3.25a1.511,1.511,0,0,0-.43-1.219,1.8,1.8,0,0,0-1.187-.359H3.1Z" transform="translate(480 5281)" fill="#12263f"/>
    <path id="Trazado_138164" data-name="Trazado 138164" d="M3.016-4.445H4.172v2.031H3.016V0H.383V-2.414h-4.4l-.156-1.609L.383-11.352v-.023H3.016Zm-4.68,0H.383v-3.5L.219-7.68Z" transform="translate(696 5281)" fill="#12263f"/>
    <path id="Trazado_138172" data-name="Trazado 138172" d="M3.156-8.453l.086.992A2.867,2.867,0,0,1,5.656-8.609a2.412,2.412,0,0,1,1.973.789A3.757,3.757,0,0,1,8.3-5.445V0H5.664V-5.336a1.426,1.426,0,0,0-.258-.941,1.193,1.193,0,0,0-.937-.3,1.256,1.256,0,0,0-1.148.609V0H.688V-8.453Z" transform="translate(480 5341)" fill="#12263f"/>
    <path id="Trazado_138161" data-name="Trazado 138161" d="M-.633,0H-8.57V-1.719l3.656-3.844A4.364,4.364,0,0,0-3.562-8.008a1.7,1.7,0,0,0-.32-1.117,1.144,1.144,0,0,0-.93-.383A1.158,1.158,0,0,0-5.789-9a2.1,2.1,0,0,0-.375,1.277H-8.8a3.736,3.736,0,0,1,.523-1.934,3.671,3.671,0,0,1,1.453-1.387,4.317,4.317,0,0,1,2.078-.5,4.246,4.246,0,0,1,2.84.852,3.04,3.04,0,0,1,1,2.445,3.551,3.551,0,0,1-.25,1.309A5.739,5.739,0,0,1-1.941-5.6a19.581,19.581,0,0,1-1.7,1.871l-1.469,1.7H-.633ZM.852-5.556l.7-5.819H8.2v2.047H3.688L3.43-7.068a3.105,3.105,0,0,1,.738-.29,3.368,3.368,0,0,1,.895-.126,3.337,3.337,0,0,1,2.605,1,4.044,4.044,0,0,1,.91,2.816,4.037,4.037,0,0,1-.488,1.98A3.356,3.356,0,0,1,6.719-.32,4.329,4.329,0,0,1,4.633.156,4.658,4.658,0,0,1,2.625-.285a3.6,3.6,0,0,1-1.469-1.21A2.94,2.94,0,0,1,.633-3.232H3.273a1.494,1.494,0,0,0,.4.99,1.265,1.265,0,0,0,.945.366q1.328,0,1.328-1.965,0-1.817-1.625-1.817a1.622,1.622,0,0,0-1.375.593Z" transform="translate(695 5341)" fill="#12263f"/>
    <path id="Trazado_138166" data-name="Trazado 138166" d="M11.654,0H8.587L4.052-7.963V0H.967V-12.8H4.052L8.578-4.834V-12.8h3.076ZM15.3-2.874a1.686,1.686,0,0,1,1.169.417,1.37,1.37,0,0,1,.466,1.068,1.37,1.37,0,0,1-.466,1.068A1.686,1.686,0,0,1,15.3.1a1.672,1.672,0,0,1-1.173-.422,1.379,1.379,0,0,1-.461-1.063,1.379,1.379,0,0,1,.461-1.063A1.672,1.672,0,0,1,15.3-2.874Zm3.806-6.979a3.1,3.1,0,0,1,.839-2.263,2.944,2.944,0,0,1,2.2-.857,2.967,2.967,0,0,1,2.206.853A3.142,3.142,0,0,1,25.2-9.809v.633a3.111,3.111,0,0,1-.826,2.254,2.923,2.923,0,0,1-2.206.857,2.955,2.955,0,0,1-2.224-.861,3.156,3.156,0,0,1-.835-2.294Zm1.538.677a2.02,2.02,0,0,0,.409,1.345,1.38,1.38,0,0,0,1.112.483,1.345,1.345,0,0,0,1.085-.475,2.034,2.034,0,0,0,.409-1.327v-.7a2.006,2.006,0,0,0-.409-1.336,1.37,1.37,0,0,0-1.1-.483,1.365,1.365,0,0,0-1.094.479,2.061,2.061,0,0,0-.409,1.375ZM31.263-4.825a5.809,5.809,0,0,1,.976-3.56,3.211,3.211,0,0,1,2.725-1.3,2.731,2.731,0,0,1,2.145,1V-13.5h2.971V0H37.415l-.149-1.02a2.8,2.8,0,0,1-2.32,1.2,3.205,3.205,0,0,1-2.689-1.3A5.993,5.993,0,0,1,31.263-4.825Zm2.962.185q0,2.531,1.477,2.531a1.458,1.458,0,0,0,1.406-.826V-6.557A1.419,1.419,0,0,0,35.719-7.4q-1.371,0-1.485,2.215ZM46.362.176A4.889,4.889,0,0,1,42.82-1.129a4.507,4.507,0,0,1-1.354-3.4v-.246a5.84,5.84,0,0,1,.541-2.575,3.955,3.955,0,0,1,1.578-1.727,4.763,4.763,0,0,1,2.461-.611A4.117,4.117,0,0,1,49.21-8.442a4.887,4.887,0,0,1,1.16,3.467v1.151H44.481a2.135,2.135,0,0,0,.694,1.257,2.066,2.066,0,0,0,1.389.457,2.662,2.662,0,0,0,2.2-.984l1.354,1.6A3.784,3.784,0,0,1,48.546-.277,5.3,5.3,0,0,1,46.362.176ZM46.028-7.4q-1.3,0-1.547,1.723H47.47v-.229a1.467,1.467,0,0,0-.36-1.1A1.434,1.434,0,0,0,46.028-7.4ZM64.872-4.685a5.735,5.735,0,0,1-1,3.538A3.2,3.2,0,0,1,61.181.176a2.742,2.742,0,0,1-2.153-.958V3.656H56.065V-9.51h2.769l.088.879a2.742,2.742,0,0,1,2.241-1.055,3.224,3.224,0,0,1,2.733,1.3,5.805,5.805,0,0,1,.976,3.564ZM61.91-4.869q0-2.531-1.477-2.531a1.394,1.394,0,0,0-1.406.756V-2.9a1.439,1.439,0,0,0,1.424.791q1.415,0,1.459-2.443ZM70.778.176a4.889,4.889,0,0,1-3.542-1.305,4.507,4.507,0,0,1-1.354-3.4v-.246a5.84,5.84,0,0,1,.541-2.575A3.955,3.955,0,0,1,68-9.075a4.763,4.763,0,0,1,2.461-.611,4.117,4.117,0,0,1,3.164,1.244,4.887,4.887,0,0,1,1.16,3.467v1.151H68.9a2.135,2.135,0,0,0,.694,1.257,2.066,2.066,0,0,0,1.389.457,2.662,2.662,0,0,0,2.2-.984l1.354,1.6A3.784,3.784,0,0,1,72.962-.277,5.3,5.3,0,0,1,70.778.176ZM70.444-7.4q-1.3,0-1.547,1.723h2.988v-.229a1.467,1.467,0,0,0-.36-1.1A1.434,1.434,0,0,0,70.444-7.4Zm11.285.571-.976-.07a1.752,1.752,0,0,0-1.793.879V0H76V-9.51h2.777l.1,1.222a2.294,2.294,0,0,1,2.083-1.4,2.888,2.888,0,0,1,.826.105Zm6.047,4.157a.684.684,0,0,0-.4-.606,6.016,6.016,0,0,0-1.5-.475A6.853,6.853,0,0,1,84.05-4.4a3.062,3.062,0,0,1-1.1-.971,2.319,2.319,0,0,1-.378-1.31,2.628,2.628,0,0,1,1.081-2.158,4.453,4.453,0,0,1,2.83-.848,4.934,4.934,0,0,1,3.023.853A2.666,2.666,0,0,1,90.65-6.592H87.68q0-1.143-1.2-1.143a1.194,1.194,0,0,0-.782.259.8.8,0,0,0-.316.646.737.737,0,0,0,.387.642,3.654,3.654,0,0,0,1.235.4,10.671,10.671,0,0,1,1.49.378A2.706,2.706,0,0,1,90.633-2.76,2.491,2.491,0,0,1,89.477-.642a5.068,5.068,0,0,1-2.993.817A5.172,5.172,0,0,1,84.3-.264a3.645,3.645,0,0,1-1.494-1.2,2.707,2.707,0,0,1-.536-1.591h2.769a1.145,1.145,0,0,0,.439.962,1.808,1.808,0,0,0,1.081.3,1.422,1.422,0,0,0,.91-.246A.787.787,0,0,0,87.776-2.672Zm3.867-2.171A5.613,5.613,0,0,1,92.2-7.378a3.96,3.96,0,0,1,1.591-1.709,4.791,4.791,0,0,1,2.435-.6,4.373,4.373,0,0,1,3.366,1.323,5.076,5.076,0,0,1,1.23,3.6v.105a4.925,4.925,0,0,1-1.235,3.529A4.384,4.384,0,0,1,96.24.176a4.434,4.434,0,0,1-3.261-1.217,4.761,4.761,0,0,1-1.327-3.3Zm2.962.185a3.538,3.538,0,0,0,.413,1.934,1.376,1.376,0,0,0,1.222.615q1.582,0,1.617-2.435v-.3q0-2.558-1.635-2.558-1.485,0-1.608,2.206ZM104.845-9.51l.1,1.116a3.225,3.225,0,0,1,2.716-1.292,2.713,2.713,0,0,1,2.219.888,4.226,4.226,0,0,1,.76,2.672V0h-2.971V-6a1.6,1.6,0,0,0-.29-1.059,1.342,1.342,0,0,0-1.055-.338,1.413,1.413,0,0,0-1.292.686V0h-2.962V-9.51ZM117.633,0a3.344,3.344,0,0,1-.281-.853A2.754,2.754,0,0,1,115.066.176a3.374,3.374,0,0,1-2.285-.813,2.588,2.588,0,0,1-.94-2.043,2.66,2.66,0,0,1,1.143-2.338,5.821,5.821,0,0,1,3.322-.791h.914v-.5q0-1.316-1.134-1.316a.927.927,0,0,0-1.055,1.042h-2.962a2.655,2.655,0,0,1,1.173-2.239,4.931,4.931,0,0,1,2.993-.86,4.323,4.323,0,0,1,2.874.888,3.086,3.086,0,0,1,1.081,2.435v4.21a4.311,4.311,0,0,0,.4,2V0Zm-1.854-1.934a1.652,1.652,0,0,0,.918-.237,1.487,1.487,0,0,0,.523-.536V-4.228h-.861q-1.547,0-1.547,1.389a.848.848,0,0,0,.272.655A.986.986,0,0,0,115.778-1.934Zm11.03-.738a.684.684,0,0,0-.4-.606,6.016,6.016,0,0,0-1.5-.475,6.853,6.853,0,0,1-1.828-.646,3.062,3.062,0,0,1-1.1-.971,2.319,2.319,0,0,1-.378-1.31,2.628,2.628,0,0,1,1.081-2.158,4.453,4.453,0,0,1,2.83-.848,4.934,4.934,0,0,1,3.023.853,2.666,2.666,0,0,1,1.143,2.241h-2.971q0-1.143-1.2-1.143a1.194,1.194,0,0,0-.782.259.8.8,0,0,0-.316.646.737.737,0,0,0,.387.642,3.654,3.654,0,0,0,1.235.4,10.671,10.671,0,0,1,1.49.378,2.706,2.706,0,0,1,2.145,2.646,2.491,2.491,0,0,1-1.156,2.118,5.068,5.068,0,0,1-2.993.817,5.172,5.172,0,0,1-2.18-.439,3.645,3.645,0,0,1-1.494-1.2,2.707,2.707,0,0,1-.536-1.591h2.769a1.145,1.145,0,0,0,.439.962,1.808,1.808,0,0,0,1.081.3,1.422,1.422,0,0,0,.91-.246A.787.787,0,0,0,126.809-2.672ZM135.756-5.2a13.431,13.431,0,0,1,.571-3.99,9.629,9.629,0,0,1,1.578-3.129,5.6,5.6,0,0,1,2.237-1.793l.563,1.459a5.73,5.73,0,0,0-1.9,2.826,13.782,13.782,0,0,0-.681,4.5v.387a14.051,14.051,0,0,0,.672,4.588A5.706,5.706,0,0,0,140.7,2.5l-.562,1.459a5.547,5.547,0,0,1-2.237-1.8,9.484,9.484,0,0,1-1.578-3.116,13.5,13.5,0,0,1-.571-3.85ZM142.541,0V-7.453h-1.38V-9.51h1.38v-.756a3.286,3.286,0,0,1,.958-2.522,3.785,3.785,0,0,1,2.689-.9,5.89,5.89,0,0,1,1.389.185l.009,2.18a2.706,2.706,0,0,0-.729-.079q-1.345,0-1.345,1.16v.729h1.854v2.057h-1.854V0Zm10.714-4.957a12.532,12.532,0,0,1-.606,3.92,10.008,10.008,0,0,1-1.674,3.186,5.574,5.574,0,0,1-2.307,1.806L148.1,2.5a5.787,5.787,0,0,0,1.89-2.812,13.577,13.577,0,0,0,.694-4.368v-.536a14.051,14.051,0,0,0-.672-4.588,5.706,5.706,0,0,0-1.912-2.848l.563-1.459a5.676,5.676,0,0,1,2.29,1.789,9.885,9.885,0,0,1,1.67,3.138,12.426,12.426,0,0,1,.628,3.845Z" transform="translate(616 5184)" fill="#12263f"/>
  </g>
</svg>
