<svg xmlns="http://www.w3.org/2000/svg" width="441" height="442" viewBox="0 0 441 442">
  <g id="Grupo_99701" data-name="Grupo 99701" transform="translate(-50.111 -22.411)">
    <g id="Background_Complete" data-name="Background Complete" transform="translate(50.111 116.764)">
      <g id="Grupo_99676" data-name="Grupo 99676">
        <g id="Grupo_99673" data-name="Grupo 99673" transform="translate(280.85 36.572)">
          <g id="Grupo_99706" data-name="Grupo 99706" transform="translate(75.15 190.466)">
            <path id="Trazado_132170" data-name="Trazado 132170" d="M355.783,318.236c-48.266,2.075-34.564,10.28-34.564,10.28h69.7C397.487,327.626,388.809,316.814,355.783,318.236Z" transform="translate(-319.422 -318.107)" fill="#fed5b1"/>
            <path id="Trazado_132171" data-name="Trazado 132171" d="M342.227,318.891c5.09.09,21.73,1.975,31.87,5.343-7.284-5.452-19.5-6.052-19.5-6.052S345.492,318.379,342.227,318.891Z" transform="translate(-317.098 -318.1)" fill="#ffead8"/>
            <path id="Trazado_132172" data-name="Trazado 132172" d="M329.8,320.439c4.414.078,17.083,1.28,25.877,4.2-6.317-4.728-16.228-5.491-16.228-5.491A41.8,41.8,0,0,0,329.8,320.439Z" transform="translate(-318.365 -318.001)" fill="#ffead8"/>
          </g>
          <g id="Grupo_99705" data-name="Grupo 99705" transform="translate(80.075 118.813)">
            <path id="Trazado_132166" data-name="Trazado 132166" d="M345.346,253.647C310.928,257.163,320.7,271.38,320.7,271.38H370.4C375.08,269.846,379.764,250.128,345.346,253.647Z" transform="translate(-319.421 -253.066)" fill="#fed5b1"/>
            <path id="Trazado_132167" data-name="Trazado 132167" d="M335.681,254.758c3.63.156,15.492,3.406,22.723,9.217-5.193-9.4-13.9-10.441-13.9-10.441S338.009,253.875,335.681,254.758Z" transform="translate(-317.763 -253.035)" fill="#ffead8"/>
            <path id="Trazado_132168" data-name="Trazado 132168" d="M326.819,257.43c3.147.135,12.179,2.208,18.449,7.248-4.5-8.158-11.569-9.473-11.569-9.473A13.843,13.843,0,0,0,326.819,257.43Z" transform="translate(-318.667 -252.865)" fill="#ffead8"/>
            <path id="Trazado_132169" data-name="Trazado 132169" d="M349.886,253.242c2.951.7,10.305,4.04,15.331,8.273-2.8-5.735-9.242-7.915-9.242-7.915A16.2,16.2,0,0,0,349.886,253.242Z" transform="translate(-316.316 -253.081)" fill="#ffead8"/>
          </g>
          <g id="Grupo_99667" data-name="Grupo 99667">
            <rect id="Rectángulo_36495" data-name="Rectángulo 36495" width="5.666" height="261.309" transform="translate(35.487)" fill="#fec08a"/>
            <rect id="Rectángulo_36496" data-name="Rectángulo 36496" width="5.666" height="261.309" fill="#f5f5f5"/>
            <rect id="Rectángulo_36497" data-name="Rectángulo 36497" width="5.666" height="261.309" transform="translate(118.997)" fill="#fed5b1"/>
            <rect id="Rectángulo_36498" data-name="Rectángulo 36498" width="5.667" height="261.309" transform="translate(154.483)" fill="#fed5b1"/>
            <rect id="Rectángulo_36499" data-name="Rectángulo 36499" width="153.279" height="12.75" transform="translate(2.833 237.494)" fill="#fed5b1"/>
            <rect id="Rectángulo_36500" data-name="Rectángulo 36500" width="153.279" height="4.166" transform="translate(2.833 200.874)" fill="#fed5b1"/>
            <rect id="Rectángulo_36501" data-name="Rectángulo 36501" width="153.279" height="4.166" transform="translate(2.833 137.126)" fill="#fed5b1"/>
            <rect id="Rectángulo_36502" data-name="Rectángulo 36502" width="153.279" height="4.166" transform="translate(2.833 73.378)" fill="#fed5b1"/>
            <rect id="Rectángulo_36503" data-name="Rectángulo 36503" width="153.279" height="4.166" transform="translate(2.833)" fill="#f5f5f5"/>
          </g>
          <g id="Grupo_99668" data-name="Grupo 99668" transform="translate(15.905 118.813)">
            <path id="Trazado_132166-2" data-name="Trazado 132166" d="M345.346,253.647C310.928,257.163,320.7,271.38,320.7,271.38H370.4C375.08,269.846,379.764,250.128,345.346,253.647Z" transform="translate(-319.421 -253.066)" fill="#fed5b1"/>
            <path id="Trazado_132167-2" data-name="Trazado 132167" d="M335.681,254.758c3.63.156,15.492,3.406,22.723,9.217-5.193-9.4-13.9-10.441-13.9-10.441S338.009,253.875,335.681,254.758Z" transform="translate(-317.763 -253.035)" fill="#ffead8"/>
            <path id="Trazado_132168-2" data-name="Trazado 132168" d="M326.819,257.43c3.147.135,12.179,2.208,18.449,7.248-4.5-8.158-11.569-9.473-11.569-9.473A13.843,13.843,0,0,0,326.819,257.43Z" transform="translate(-318.667 -252.865)" fill="#ffead8"/>
            <path id="Trazado_132169-2" data-name="Trazado 132169" d="M349.886,253.242c2.951.7,10.305,4.04,15.331,8.273-2.8-5.735-9.242-7.915-9.242-7.915A16.2,16.2,0,0,0,349.886,253.242Z" transform="translate(-316.316 -253.081)" fill="#ffead8"/>
          </g>
          <g id="Grupo_99669" data-name="Grupo 99669" transform="translate(15.907 190.466)">
            <path id="Trazado_132170-2" data-name="Trazado 132170" d="M355.783,318.236c-48.266,2.075-34.564,10.28-34.564,10.28h69.7C397.487,327.626,388.809,316.814,355.783,318.236Z" transform="translate(-319.422 -318.107)" fill="#fed5b1"/>
            <path id="Trazado_132171-2" data-name="Trazado 132171" d="M342.227,318.891c5.09.09,21.73,1.975,31.87,5.343-7.284-5.452-19.5-6.052-19.5-6.052S345.492,318.379,342.227,318.891Z" transform="translate(-317.098 -318.1)" fill="#ffead8"/>
            <path id="Trazado_132172-2" data-name="Trazado 132172" d="M329.8,320.439c4.414.078,17.083,1.28,25.877,4.2-6.317-4.728-16.228-5.491-16.228-5.491A41.8,41.8,0,0,0,329.8,320.439Z" transform="translate(-318.365 -318.001)" fill="#ffead8"/>
          </g>
          <g id="Grupo_99670" data-name="Grupo 99670" transform="translate(15.905 60.766)">
            <path id="Trazado_132173" data-name="Trazado 132173" d="M332.946,200.694c-17.956,2.443-12.856,12.32-12.856,12.32h25.925C348.458,211.949,350.9,198.25,332.946,200.694Z" transform="translate(-319.421 -200.402)" fill="#fed5b1"/>
            <path id="Trazado_132174" data-name="Trazado 132174" d="M327.9,201.467c1.893.108,8.081,2.366,11.853,6.4-2.709-6.534-7.252-7.253-7.252-7.253A18.3,18.3,0,0,0,327.9,201.467Z" transform="translate(-318.556 -200.381)" fill="#ffead8"/>
          </g>
          <g id="Grupo_99702" data-name="Grupo 99702" transform="translate(51.79 60.766)">
            <path id="Trazado_132173-2" data-name="Trazado 132173" d="M332.946,200.694c-17.956,2.443-12.856,12.32-12.856,12.32h25.925C348.458,211.949,350.9,198.25,332.946,200.694Z" transform="translate(-319.421 -200.402)" fill="#fed5b1"/>
            <path id="Trazado_132174-2" data-name="Trazado 132174" d="M327.9,201.467c1.893.108,8.081,2.366,11.853,6.4-2.709-6.534-7.252-7.253-7.252-7.253A18.3,18.3,0,0,0,327.9,201.467Z" transform="translate(-318.556 -200.381)" fill="#ffead8"/>
          </g>
          <g id="Grupo_99703" data-name="Grupo 99703" transform="translate(87.674 60.766)">
            <path id="Trazado_132173-3" data-name="Trazado 132173" d="M332.946,200.694c-17.956,2.443-12.856,12.32-12.856,12.32h25.925C348.458,211.949,350.9,198.25,332.946,200.694Z" transform="translate(-319.421 -200.402)" fill="#fed5b1"/>
            <path id="Trazado_132174-3" data-name="Trazado 132174" d="M327.9,201.467c1.893.108,8.081,2.366,11.853,6.4-2.709-6.534-7.252-7.253-7.252-7.253A18.3,18.3,0,0,0,327.9,201.467Z" transform="translate(-318.556 -200.381)" fill="#ffead8"/>
          </g>
          <g id="Grupo_99704" data-name="Grupo 99704" transform="translate(125.674 60.766)">
            <path id="Trazado_132173-4" data-name="Trazado 132173" d="M332.946,200.694c-17.956,2.443-12.856,12.32-12.856,12.32h25.925C348.458,211.949,350.9,198.25,332.946,200.694Z" transform="translate(-319.421 -200.402)" fill="#fed5b1"/>
            <path id="Trazado_132174-4" data-name="Trazado 132174" d="M327.9,201.467c1.893.108,8.081,2.366,11.853,6.4-2.709-6.534-7.252-7.253-7.252-7.253A18.3,18.3,0,0,0,327.9,201.467Z" transform="translate(-318.556 -200.381)" fill="#ffead8"/>
          </g>
        </g>
        <g id="Grupo_99674" data-name="Grupo 99674">
          <rect id="Rectángulo_36504" data-name="Rectángulo 36504" width="255.284" height="145.688" fill="#fed5b1"/>
          <rect id="Rectángulo_36505" data-name="Rectángulo 36505" width="232.944" height="90.859" transform="translate(11.17 27.415)" fill="#ffead8"/>
          <path id="Trazado_132179" data-name="Trazado 132179" d="M114.239,227.805H85.887l54.732-90.859h28.351Z" transform="translate(-46.465 -109.532)" fill="#fff7df"/>
          <path id="Trazado_132180" data-name="Trazado 132180" d="M156.6,227.805H128.248l54.732-90.859h28.351Z" transform="translate(-42.148 -109.532)" fill="#fff7df"/>
          <path id="Trazado_132181" data-name="Trazado 132181" d="M295.671,214.225H58.857a3.946,3.946,0,0,1-3.946-3.946h0a3.947,3.947,0,0,1,3.946-3.947H295.671a3.947,3.947,0,0,1,3.946,3.947h0A3.946,3.946,0,0,1,295.671,214.225Z" transform="translate(-49.622 -102.46)" fill="#fec08a"/>
        </g>
        <g id="Grupo_99675" data-name="Grupo 99675" transform="translate(0 145.688)">
          <rect id="Rectángulo_36506" data-name="Rectángulo 36506" width="255.284" height="145.688" transform="translate(0 6.505)" fill="#fed5b1"/>
          <rect id="Rectángulo_36507" data-name="Rectángulo 36507" width="237.274" height="6.505" transform="translate(9.005)" fill="#fec08a"/>
          <rect id="Rectángulo_36508" data-name="Rectángulo 36508" width="232.944" height="90.859" transform="translate(11.17 33.92)" fill="#ffead8"/>
          <path id="Trazado_132182" data-name="Trazado 132182" d="M114.239,365.923H85.887l54.732-90.859h28.351Z" transform="translate(-46.465 -241.144)" fill="#fff7df"/>
          <path id="Trazado_132183" data-name="Trazado 132183" d="M156.6,365.923H128.248l54.732-90.859h28.351Z" transform="translate(-42.148 -241.144)" fill="#fff7df"/>
          <path id="Trazado_132184" data-name="Trazado 132184" d="M295.671,352.343H58.857a3.947,3.947,0,0,1-3.946-3.947h0a3.946,3.946,0,0,1,3.946-3.946H295.671a3.946,3.946,0,0,1,3.946,3.946h0A3.947,3.947,0,0,1,295.671,352.343Z" transform="translate(-49.622 -234.072)" fill="#fec08a"/>
        </g>
      </g>
    </g>
    <g id="Shadow" transform="translate(56.723 439.456)">
      <ellipse id="_Path_" data-name="&lt;Path&gt;" cx="213.649" cy="12.477" rx="213.649" ry="12.477" fill="#fed5b1"/>
    </g>
    <g id="Character" transform="translate(122.45 22.411)">
      <g id="Grupo_99700" data-name="Grupo 99700">
        <path id="Trazado_132185" data-name="Trazado 132185" d="M249.813,133.429s-5.063,1.247-6.779-3.448c.2-3.45,5.1-7.118,5.1-7.118s-6.311-6.566-2.618-12.386,17.455-.742,15.1,9.732S249.813,133.429,249.813,133.429Z" transform="translate(-86.955 -56.47)" fill="#e0e0e0"/>
        <g id="Grupo_99677" data-name="Grupo 99677" transform="translate(159.089 19.134)">
          <path id="Trazado_132186" data-name="Trazado 132186" d="M256.407,110.816c-7.456-.641-12.719-7.631-10.34-13.688s8.887-6.916,8.887-6.916-2.253-9.094,13.063-8.605c15.3.488,33.211,15.228,31.838,35.34,13.359,10.993-2.172,42.606-28.139,32.355C248.291,140.055,256.407,110.816,256.407,110.816Z" transform="translate(-245.489 -81.587)" fill="#feefbf"/>
        </g>
        <g id="Grupo_99678" data-name="Grupo 99678" transform="translate(119.868 399.13)">
          <path id="Trazado_132188" data-name="Trazado 132188" d="M213.506,391.454l19.515.187-3.1,23.052-16.309-.13Z" transform="translate(-213.506 -391.454)" fill="#b55b52"/>
          <path id="Trazado_132189" data-name="Trazado 132189" d="M213.509,391.461l19.522.186-1.739,12.909-17.726-.154Z" transform="translate(-213.505 -391.453)" opacity="0.2"/>
        </g>
        <path id="Trazado_132190" data-name="Trazado 132190" d="M269.243,146.835s-4.494,1.685-7.257-1.045c-.641-2.261,3.108-5.479,3.108-5.479s-7.566-3.137-5.48-7.532,15.61-5.187,16.6,5.147C276.9,145.065,269.243,146.835,269.243,146.835Z" transform="translate(-83.285 -51.564)" fill="#e0e0e0"/>
        <path id="Trazado_132191" data-name="Trazado 132191" d="M248.148,334.655c9.52-29.585,23.652-60.464,14.258-88.641l-54.492-.173s-.47,64.774-1.48,92.071c-1.055,28.382,5.856,95.479,5.856,95.479l22.356.056S249.8,366.336,248.148,334.655Z" transform="translate(-95.263 -25.28)" fill="#407bff"/>
        <path id="Trazado_132192" data-name="Trazado 132192" d="M256.456,270.187c-1.575,13.661-6.112,27.6-10.835,41.43C239.955,283.266,247.778,273.286,256.456,270.187Z" transform="translate(-86.805 -19.77)" opacity="0.2"/>
        <path id="Trazado_132193" data-name="Trazado 132193" d="M235.195,418.193h-5.157l-1.068-1.724-2.314,1.741H200.851a9.62,9.62,0,0,1,1.25-5.337s8.059-1.817,11.437-4.815a2.709,2.709,0,0,1,2.325-.464c3.42.674,12.488,2.164,17.674.22a.787.787,0,0,1,1.036.762A60.7,60.7,0,0,0,235.195,418.193Z" transform="translate(-96.515 11.312)" fill="#263238"/>
        <g id="Grupo_99679" data-name="Grupo 99679" transform="translate(192.933 399.13)">
          <path id="Trazado_132194" data-name="Trazado 132194" d="M273.086,391.454l19.547.187.856,23.052-16.331-.13Z" transform="translate(-273.086 -391.454)" fill="#b55b52"/>
          <path id="Trazado_132195" data-name="Trazado 132195" d="M273.091,391.461l19.554.186.476,12.909-17.753-.154Z" transform="translate(-273.085 -391.453)" opacity="0.2"/>
        </g>
        <path id="Trazado_132196" data-name="Trazado 132196" d="M302.8,334.655c1.576-29.585,3.722-73.844-6.2-87.448l-60.873-1.366s16.927,64.774,23.247,92.071c6.568,28.382,22.667,95.479,22.667,95.479l21.131.056S310.748,368.419,302.8,334.655Z" transform="translate(-88.607 -25.28)" fill="#407bff"/>
        <g id="Grupo_99680" data-name="Grupo 99680" transform="translate(60.626 102.579)">
          <path id="Trazado_132197" data-name="Trazado 132197" d="M248.458,180.9l-1.671,1.258-1.507,1.083c-1,.7-2.012,1.356-3.025,2.007-2.02,1.307-4.106,2.489-6.22,3.643s-4.307,2.189-6.536,3.191-4.52,1.92-6.9,2.718-4.794,1.549-7.326,2.141a66.023,66.023,0,0,1-7.833,1.318,50.773,50.773,0,0,1-8.354.226,47.024,47.024,0,0,1-8.72-1.388l-1.01-.262a9.326,9.326,0,0,1-3.891-2.112,51.171,51.171,0,0,1-7.571-8.881c-1.048-1.479-1.977-2.989-2.851-4.5s-1.719-3.012-2.487-4.537a100.6,100.6,0,0,1-4.091-9.246,83.825,83.825,0,0,1-3.069-9.643,6.677,6.677,0,0,1,11.422-6.095l.289.321c1.976,2.177,3.977,4.609,5.954,6.864.974,1.153,1.982,2.272,2.963,3.391s1.96,2.223,2.958,3.287c1.936,2.169,3.961,4.192,5.891,6.047a39.994,39.994,0,0,0,5.6,4.517l-4.9-2.374a27.942,27.942,0,0,0,8.381-.524,41.578,41.578,0,0,0,4.7-1.257c1.6-.481,3.229-1.1,4.856-1.766a96.369,96.369,0,0,0,9.8-4.778c1.631-.89,3.229-1.865,4.822-2.827l2.342-1.478,1.131-.728.923-.613.733-.488a13.166,13.166,0,0,1,15.2,21.486Z" transform="translate(-165.197 -149.632)" fill="#b55b52"/>
        </g>
        <path id="Trazado_132198" data-name="Trazado 132198" d="M175.543,163.476l4.509-6.885c1.869-8.443-9.4-8.968-9.4-8.968l-5.319-2.442A4.364,4.364,0,0,0,160,147.054l-3.19,4.789c-1.454,2.183-1.1,5.022.78,6.295l4.231,2.86a9,9,0,0,0,4.127,1.5Z" transform="translate(-106.671 -48.135)" fill="#b55b52"/>
        <g id="Grupo_99686" data-name="Grupo 99686" transform="translate(0 25.992)">
          <g id="Grupo_99682" data-name="Grupo 99682" transform="translate(0 69.919)">
            <g id="Grupo_99681" data-name="Grupo 99681">
              <path id="Trazado_132199" data-name="Trazado 132199" d="M115.76,153.458H232L208.955,144.2H138.8Z" transform="translate(-115.76 -144.195)" fill="#fdab64"/>
              <path id="Trazado_132201" data-name="Trazado 132201" d="M224.944,153.033l-17.31-6.958H137.927l-17.31,6.958Z" transform="translate(-114.661 -143.77)" fill="#fff" opacity="0.7"/>
            </g>
            <path id="Trazado_132202" data-name="Trazado 132202" d="M118.064,154.548h111.63l2.3-2.8H115.76Z" transform="translate(-115.76 -142.486)" fill="#fd963d"/>
          </g>
          <g id="Grupo_99684" data-name="Grupo 99684" transform="translate(26.529 49.276)">
            <path id="Trazado_132203" data-name="Trazado 132203" d="M168.984,154.956c-9.006,0-24.842,1.145-30.126-1.565s3.49-26.026,30.126-26.026,35.41,23.316,30.126,26.026S177.989,154.956,168.984,154.956Z" transform="translate(-137.393 -127.361)" fill="#fec08a"/>
            <g id="Grupo_99683" data-name="Grupo 99683" transform="translate(8.199)">
              <path id="Trazado_132204" data-name="Trazado 132204" d="M182.133,144.87c-4.019-2.493-4.746-11.074-10.611-16.452a32.33,32.33,0,0,1,10.242,4.633C185.067,139,185.973,147.241,182.133,144.87Z" transform="translate(-137.867 -127.123)" opacity="0.1"/>
              <path id="Trazado_132205" data-name="Trazado 132205" d="M164.11,127.362a41,41,0,0,1,4.309.22c3.023,13.458-2.519,17.454-4.309,17.454s-7.332-4-4.309-17.454A40.987,40.987,0,0,1,164.11,127.362Z" transform="translate(-140.72 -127.362)" opacity="0.1"/>
              <path id="Trazado_132206" data-name="Trazado 132206" d="M146.962,133.053a32.815,32.815,0,0,1,10.253-4.644c-5.877,5.39-6.6,13.97-10.622,16.463C142.754,147.243,143.66,139.006,146.962,133.053Z" transform="translate(-144.078 -127.125)" opacity="0.1"/>
            </g>
          </g>
          <g id="Grupo_99685" data-name="Grupo 99685" transform="translate(42.285)">
            <path id="Trazado_132207" data-name="Trazado 132207" d="M164.038,126.845a40.029,40.029,0,0,0-1.491-9.8,67.28,67.28,0,0,0-3.767-8.83A30.4,30.4,0,0,1,155.7,97.811a18.089,18.089,0,0,1,2.361-10.631,50.84,50.84,0,0,0,2.063,9.773,87.913,87.913,0,0,0,3.864,8.87,28.347,28.347,0,0,1,2.995,10.5A16.925,16.925,0,0,1,164.038,126.845Z" transform="translate(-149.02 -87.18)" fill="#fdab64" opacity="0.3"/>
            <path id="Trazado_132208" data-name="Trazado 132208" d="M173.778,129.222a23.755,23.755,0,0,0-.9-5.769,40.376,40.376,0,0,0-2.223-5.192,17.847,17.847,0,0,1-1.813-6.139,10.624,10.624,0,0,1,1.415-6.268,30.346,30.346,0,0,0,1.24,5.754,53.134,53.134,0,0,0,2.28,5.217,16.639,16.639,0,0,1,1.761,6.193A9.949,9.949,0,0,1,173.778,129.222Z" transform="translate(-146.039 -82.954)" fill="#fdab64" opacity="0.3"/>
            <path id="Trazado_132209" data-name="Trazado 132209" d="M155.213,125.737a23.754,23.754,0,0,0-.9-5.769,40.36,40.36,0,0,0-2.223-5.191,17.861,17.861,0,0,1-1.812-6.14,10.62,10.62,0,0,1,1.415-6.266,30.359,30.359,0,0,0,1.24,5.753,52.991,52.991,0,0,0,2.28,5.216,16.635,16.635,0,0,1,1.76,6.194A9.938,9.938,0,0,1,155.213,125.737Z" transform="translate(-150.241 -83.742)" fill="#fdab64" opacity="0.3"/>
          </g>
        </g>
        <g id="Grupo_99689" data-name="Grupo 99689" transform="translate(97.566 99.566)">
          <g id="Grupo_99687" data-name="Grupo 99687">
            <path id="Trazado_132210" data-name="Trazado 132210" d="M247.073,147.2c-13.193,1.014-48.315,23.607-48.315,23.607-5.377,5.293-4.612,24,3.456,28.464,0,0,27.1-5.081,36.066-14.1C248.033,175.37,261.056,146.13,247.073,147.2Z" transform="translate(-195.32 -147.175)" fill="#fee89f"/>
          </g>
        </g>
        <g id="Grupo_99690" data-name="Grupo 99690" transform="translate(110.632 98.634)">
          <path id="Trazado_132212" data-name="Trazado 132212" d="M243.233,147.519a245.912,245.912,0,0,1,54.311.863A18.319,18.319,0,0,1,312.8,170.2c-8.444,42.53-4.277,93.785-5.148,102.192,0,0-81.794,25.327-100.661-1.172-5.554-52.093,13.131-95.342,21.663-113.346A18.248,18.248,0,0,1,243.233,147.519Z" transform="translate(-205.974 -146.416)" fill="#feefbf"/>
        </g>
        <path id="Trazado_132214" data-name="Trazado 132214" d="M243.53,152.279a13.115,13.115,0,0,1,5.488-3.746,10.627,10.627,0,0,0,.184-7.143l26.761-8.522c-2.163,8.847-4.005,14.667-.717,18.963-1.984,2.689-14.062,6.473-24.9,7.042C241.192,159.352,241.609,154.711,243.53,152.279Z" transform="translate(-87.096 -50.848)" fill="#b55b52"/>
        <path id="Trazado_132215" data-name="Trazado 132215" d="M272.838,145.72c-.654,2.15-14.311,9.12-26.447,10.2a24.632,24.632,0,0,1,8.558,8.565s14.883-2.547,22.275-17.14C275.862,145.428,272.838,145.72,272.838,145.72Z" transform="translate(-86.195 -47.943)" fill="#fdd85e"/>
        <path id="Trazado_132216" data-name="Trazado 132216" d="M260.2,170.351c-.35,1.866-1.725,3.176-3.073,2.924s-2.158-1.969-1.809-3.836,1.724-3.176,3.072-2.924S260.553,168.484,260.2,170.351Z" transform="translate(-84.192 -43.24)" fill="#fdab64"/>
        <path id="Trazado_132217" data-name="Trazado 132217" d="M257.794,184.53c-.15,1.893-1.38,3.34-2.747,3.233s-2.355-1.732-2.2-3.624,1.38-3.34,2.747-3.233S257.943,182.636,257.794,184.53Z" transform="translate(-84.739 -39.977)" fill="#fdab64"/>
        <path id="Trazado_132218" data-name="Trazado 132218" d="M238.552,168.949c-.35,1.866-1.724,3.176-3.073,2.924s-2.158-1.969-1.809-3.836,1.724-3.176,3.072-2.924S238.9,167.082,238.552,168.949Z" transform="translate(-89.093 -43.557)" fill="#fdab64"/>
        <path id="Trazado_132219" data-name="Trazado 132219" d="M236.141,183.128c-.151,1.893-1.38,3.341-2.747,3.233s-2.355-1.732-2.2-3.624,1.38-3.341,2.747-3.233S236.29,181.234,236.141,183.128Z" transform="translate(-89.639 -40.295)" fill="#fdab64"/>
        <path id="Trazado_132220" data-name="Trazado 132220" d="M249.954,145.642c-1.3,1.311-9.249,7.043-1.725,10.288a18.388,18.388,0,0,0-8.339,7.412s-6.322-9.844,6.016-16.805A25.2,25.2,0,0,1,249.954,145.642Z" transform="translate(-88.033 -47.957)" fill="#fdd85e"/>
        <path id="Trazado_132221" data-name="Trazado 132221" d="M248.134,140.708l20.082-1.178c-6.281,6.71-15.8,9.234-20.14,6.506A10.654,10.654,0,0,0,248.134,140.708Z" transform="translate(-85.814 -49.34)" opacity="0.2"/>
        <path id="Trazado_132222" data-name="Trazado 132222" d="M281.112,125.838c-3.122,12.445-5.511,20.829-13.807,24.784-16.484,7.861-23.921-.63-24.579-13.791-.594-11.847,4.612-30.208,17.871-32.808A17.682,17.682,0,0,1,281.112,125.838Z" transform="translate(-87.035 -57.455)" fill="#b55b52"/>
        <path id="Trazado_132223" data-name="Trazado 132223" d="M272.915,133.672s-5.11,1.04-6.634-3.721c.346-3.439,5.388-6.9,5.388-6.9s-6.038-6.817-2.113-12.481,17.473-.032,14.688,10.337S272.915,133.672,272.915,133.672Z" transform="translate(-81.694 -56.404)" fill="#e0e0e0"/>
        <g id="Grupo_99691" data-name="Grupo 99691" transform="translate(164.146 41.937)">
          <path id="Trazado_132224" data-name="Trazado 132224" d="M281.835,132.6s-4.8-26.655-32.144-22.335c-.655-3.938,2.995-9.506,2.995-9.506a35.705,35.705,0,0,1,25.442,4.992,27.161,27.161,0,0,1,12.962,21.3S289.658,131.686,281.835,132.6Z" transform="translate(-249.612 -100.183)" fill="#fde07e"/>
        </g>
        <path id="Trazado_132226" data-name="Trazado 132226" d="M260.168,121.256a5.909,5.909,0,0,1,4.471.612A11.694,11.694,0,0,1,260.168,121.256Z" transform="translate(-83.077 -53.52)" opacity="0.2"/>
        <path id="Trazado_132227" data-name="Trazado 132227" d="M260.108,122.1a4.866,4.866,0,0,1,3.784,1.549A9.609,9.609,0,0,1,260.108,122.1Z" transform="translate(-83.091 -53.286)" opacity="0.2"/>
        <path id="Trazado_132228" data-name="Trazado 132228" d="M246.33,118.888s-.934-1.327-1.77-.724A2.5,2.5,0,0,0,246.33,118.888Z" transform="translate(-86.61 -54.211)" opacity="0.2"/>
        <path id="Trazado_132229" data-name="Trazado 132229" d="M246.028,119.631s-.747-1.191-1.389-.179A1.194,1.194,0,0,0,246.028,119.631Z" transform="translate(-86.592 -53.977)" opacity="0.2"/>
        <path id="Trazado_132230" data-name="Trazado 132230" d="M251.229,109.379a36.246,36.246,0,0,1,11.315.433A101.262,101.262,0,0,1,251.229,109.379Z" transform="translate(-85.1 -56.223)" opacity="0.2"/>
        <path id="Trazado_132231" data-name="Trazado 132231" d="M249.9,110.764s8.649.437,12.78,2.78A70.874,70.874,0,0,1,249.9,110.764Z" transform="translate(-85.401 -55.851)" opacity="0.2"/>
        <path id="Trazado_132232" data-name="Trazado 132232" d="M279.367,134.449a12.074,12.074,0,0,1-8.167,4.422c-4.258.4-5.667-3.6-3.88-7.223,1.606-3.266,5.759-7.409,9.742-6.121C280.986,126.8,281.815,131.357,279.367,134.449Z" transform="translate(-81.63 -52.564)" fill="#b55b52"/>
        <path id="Trazado_132233" data-name="Trazado 132233" d="M257.8,121.645c-.191,1.026-.889,1.751-1.56,1.62s-1.057-1.069-.866-2.095.889-1.751,1.559-1.62S257.994,120.62,257.8,121.645Z" transform="translate(-84.173 -53.865)" fill="#263238"/>
        <path id="Trazado_132234" data-name="Trazado 132234" d="M248.918,120.108c-.191,1.025-.89,1.75-1.56,1.619s-1.058-1.068-.867-2.095.889-1.75,1.56-1.619S249.109,119.083,248.918,120.108Z" transform="translate(-86.184 -54.213)" fill="#263238"/>
        <path id="Trazado_132235" data-name="Trazado 132235" d="M258.667,130.031c3.691,2.331,8.186.671,8.186-1.808,3.83,2.4,3.406,7.065-2.206,9.327-6.295,2.537-14.315,2.673-17.618-3.7l1.681-6.251C251.6,125.645,254.945,127.68,258.667,130.031Z" transform="translate(-86.051 -52.218)" fill="#e0e0e0"/>
        <path id="Trazado_132236" data-name="Trazado 132236" d="M242.473,129.017c-2.532,1.323-3.269-.445-3.011-2.4-4.4,2.084-2.976,6.851.35,8.772,4.01,2.315,10.5,1.185,10.571-1.81l1.259-6.273C248.758,125.755,246.266,127.034,242.473,129.017Z" transform="translate(-88.388 -52.263)" fill="#e0e0e0"/>
        <path id="Trazado_132237" data-name="Trazado 132237" d="M252.369,121.423l-1.085,5.671a1.968,1.968,0,0,1-2.234,1.587,6.271,6.271,0,0,1-3.217-1.353C247.7,123.709,252.369,121.423,252.369,121.423Z" transform="translate(-86.322 -53.438)" fill="#a02724"/>
        <path id="Trazado_132238" data-name="Trazado 132238" d="M261.072,120.746a.608.608,0,0,0,.7-.793,6.148,6.148,0,0,0-3.914-4.031.606.606,0,0,0-.746.434.618.618,0,0,0,.435.752h0a4.912,4.912,0,0,1,3.065,3.226A.62.62,0,0,0,261.072,120.746Z" transform="translate(-83.774 -54.688)" fill="#263238"/>
        <path id="Trazado_132239" data-name="Trazado 132239" d="M244.6,116a.608.608,0,0,0,.533-.221,4.811,4.811,0,0,1,3.989-1.891.608.608,0,0,0,.667-.547.618.618,0,0,0-.547-.673A6.029,6.029,0,0,0,244.183,115a.617.617,0,0,0,.421,1Z" transform="translate(-86.726 -55.424)" fill="#263238"/>
        <path id="Trazado_132240" data-name="Trazado 132240" d="M298.142,418.212h-4.249l-1.15-1.724-2.231,1.741H264.87a9.772,9.772,0,0,1,.862-5.337s6.952-1.817,10.849-5.056a1.144,1.144,0,0,1,.948-.379c2.553.535,12.7,2.453,18.28.443a.919.919,0,0,1,1.253.836A62.08,62.08,0,0,0,298.142,418.212Z" transform="translate(-82.038 11.294)" fill="#263238"/>
        <path id="Trazado_132241" data-name="Trazado 132241" d="M296.251,147.409c-4.608,7.281-30.982,56.743,14.336,107.949,1.793,2.3,1.024,7.934,1.024,7.934s9.73,95.566,8,130.706c-29-1.344-84.524-12.673-117.631-6.336-4.881-24.77,7.022-109.215,4.465-122-.769-3.841-.851-13.87.708-15.362,4-3.832,4.6-17.6,8.189-35.513,3.813-19.051,17.538-57.508,27.971-67.516,1.344-.727,4.146-.423,4.146-.423s-13.734,16.947-22.1,51.095c5.121,1.427,36.869,1.427,53.2.128-.585-13.474,6.611-42.329,13.575-51.263A8.6,8.6,0,0,1,296.251,147.409Z" transform="translate(-96.515 -47.705)" fill="#263238"/>
        <g id="Grupo_99692" data-name="Grupo 99692" transform="translate(211.68 212.882)">
          <path id="Trazado_132242" data-name="Trazado 132242" d="M302.867,263.966c-8.436,0-13.85-19.87-14.456-22.2a1.145,1.145,0,0,1,1.719-1.258c10.312,6.488,17.87,15.71,16.847,20.558a3.594,3.594,0,0,1-3.318,2.843A5.44,5.44,0,0,1,302.867,263.966ZM291.5,244.174c2.164,6.8,6.853,18.2,11.823,17.465,1.225-.18,1.354-.789,1.409-1.05C305.317,257.826,300.571,250.573,291.5,244.174Z" transform="translate(-288.374 -239.409)" fill="#263238"/>
          <path id="Trazado_132243" data-name="Trazado 132243" d="M309.072,251.365c-6.771,0-17.652-7.055-20.191-8.768a1.146,1.146,0,0,1,.359-2.061c9.542-2.406,22-.06,24.686,4.65a3.735,3.735,0,0,1-.861,4.788A5.413,5.413,0,0,1,309.072,251.365Zm-16.557-9.15c7.092,4.39,16.463,8.614,18.925,6.141.927-.932.77-1.554.494-2.038C310.343,243.525,301.292,240.9,292.515,242.216Z" transform="translate(-288.373 -239.579)" fill="#263238"/>
        </g>
        <g id="Grupo_99697" data-name="Grupo 99697" transform="translate(183.406 102.65)">
          <path id="Trazado_132244" data-name="Trazado 132244" d="M305.318,166.363l.846,1.783.741,1.629c.482,1.079.915,2.161,1.356,3.24.882,2.157,1.649,4.345,2.4,6.544a121.1,121.1,0,0,1,3.719,13.547c.484,2.323.917,4.674,1.278,7.06.32,2.4.576,4.83.738,7.305a75.718,75.718,0,0,1,.115,7.575,69.67,69.67,0,0,1-.8,7.874l-.154.961a6.627,6.627,0,0,1-.256,1.022,26.141,26.141,0,0,1-4.291,7.819,34.674,34.674,0,0,1-5.3,5.3,39.812,39.812,0,0,1-5.466,3.727,56.554,56.554,0,0,1-5.468,2.779,71.842,71.842,0,0,1-10.941,3.724c-1.825.47-3.662.846-5.5,1.187-.925.156-1.848.3-2.778.434l-2.913.329a6.6,6.6,0,0,1-4.133-12.215l.6-.356,4.1-2.453c1.4-.82,2.764-1.685,4.109-2.538a90.328,90.328,0,0,0,7.568-5.309,36.079,36.079,0,0,0,5.783-5.473,10.612,10.612,0,0,0,1.527-2.4,2.489,2.489,0,0,0,.294-1.36l-.412,1.982a56.7,56.7,0,0,0-.714-10.079,108.471,108.471,0,0,0-2.38-10.815c-1.036-3.647-2.162-7.336-3.474-10.99-.63-1.835-1.334-3.647-2.009-5.461l-1.052-2.683-.983-2.444-.277-.69a13.171,13.171,0,0,1,24.119-10.56Z" transform="translate(-265.318 -147.62)" fill="#b55b52"/>
          <g id="Grupo_99695" data-name="Grupo 99695" transform="translate(10.67)">
            <g id="Grupo_99693" data-name="Grupo 99693">
              <path id="Trazado_132245" data-name="Trazado 132245" d="M290.578,151.233c25.046,16.538,25.413,62.453,25.413,62.453-4.889,7.539-20.14,8.084-28.486,4,0,0-11.686-24.7-13.22-37.322C272.616,166.633,278.875,143.506,290.578,151.233Z" transform="translate(-274.019 -149.691)" fill="#feefbf"/>
            </g>
          </g>
          <g id="Grupo_99696" data-name="Grupo 99696" transform="translate(19.325 51.175)">
            <path id="Trazado_132247" data-name="Trazado 132247" d="M295.414,213.258c7.949.034,18.566-3.95,20.687-8.447,1.255-6.676-.283-11.843-1.636-13.347-6.809-.7-30.949,7.333-33.389,9.578A40.488,40.488,0,0,0,286.4,211.58,22.28,22.28,0,0,0,295.414,213.258Z" transform="translate(-281.076 -191.421)" fill="#fde07e"/>
          </g>
        </g>
        <g id="Grupo_99698" data-name="Grupo 99698" transform="translate(68.448)">
          <path id="Trazado_132249" data-name="Trazado 132249" d="M293.44,162l42.718,28.183a17.808,17.808,0,0,0,24.672-5.057L392.7,136.823A43.4,43.4,0,0,0,380.378,76.7h0a43.4,43.4,0,0,0-60.123,12.325l-31.872,48.308A17.809,17.809,0,0,0,293.44,162Z" transform="translate(-145.806 -65.185)" fill="#263238"/>
          <path id="Trazado_132250" data-name="Trazado 132250" d="M368.179,74.644A45.227,45.227,0,0,0,343.2,67.132V65.985a46.374,46.374,0,0,1,25.606,7.7Z" transform="translate(-132.732 -65.985)" fill="#85d161"/>
          <path id="Trazado_132251" data-name="Trazado 132251" d="M327.667,71.188l-.482-1.04a46.527,46.527,0,0,1,10.761-3.473l.217,1.125A45.377,45.377,0,0,0,327.667,71.188Z" transform="translate(-136.357 -65.829)" fill="#85d161"/>
          <path id="Trazado_132252" data-name="Trazado 132252" d="M293.176,161.874l41.889,27.638a17.464,17.464,0,0,0,24.194-4.96l32.526-49.3A42.555,42.555,0,0,0,379.7,76.3h0A42.556,42.556,0,0,0,320.743,88.38l-32.526,49.3A17.463,17.463,0,0,0,293.176,161.874Z" transform="translate(-145.831 -65.245)" fill="#a4dc88"/>
          <path id="Trazado_132253" data-name="Trazado 132253" d="M173.013,423.022h0a3.2,3.2,0,0,0,4.434-.909l209.8-318-5.343-3.524-209.8,318A3.2,3.2,0,0,0,173.013,423.022Z" transform="translate(-171.575 -58.152)" fill="#a4dc88"/>
        </g>
        <path id="Trazado_132254" data-name="Trazado 132254" d="M276.069,222.974l2.389,7.875c-.584,8.63-11.547,5.959-11.547,5.959l-5.791.846a4.362,4.362,0,0,1-4.584-3.3l-1.713-5.493c-.781-2.5.357-5.13,2.521-5.821l4.864-1.554a9.014,9.014,0,0,1,4.382-.276Z" transform="translate(-84.343 -30.887)" fill="#b55b52"/>
        <g id="Grupo_99699" data-name="Grupo 99699" transform="translate(90.829 119.025)">
          <path id="Trazado_132255" data-name="Trazado 132255" d="M189.962,176.117c-.813,7.907,2.113,18.864,6.381,21.414a18.174,18.174,0,0,0,14.186-1.847c1.358-6.708-5.011-29.992-7-32.64a40.491,40.491,0,0,0-11.011,4.27A22.287,22.287,0,0,0,189.962,176.117Z" transform="translate(-189.826 -163.044)" fill="#fde07e"/>
        </g>
      </g>
    </g>
  </g>
</svg>
