<svg xmlns="http://www.w3.org/2000/svg" width="1240" height="226" viewBox="0 0 1240 226">
  <g id="Grupo_105828" data-name="Grupo 105828" transform="translate(-180 -2478)">
    <path id="Trazado_138165" data-name="Trazado 138165" d="M0,0H1240V226H0Z" transform="translate(180 2478)" fill="#fff7df"/>
    <g id="Grupo_98437" data-name="Grupo 98437" transform="translate(53 -9)">
      <g id="Grupo_98434" data-name="Grupo 98434">
        <text id="Activo" transform="translate(425 2533.75)" fill="#12263f" font-size="16" font-family="Roboto-Black, Roboto" font-weight="800"><tspan x="-23.117" y="0">Activo</tspan></text>
        <text id="Debe" transform="translate(347 2566.75)" fill="#12263f" font-size="16" font-family="Roboto-Black, Roboto" font-weight="800"><tspan x="-18.387" y="0">Debe</tspan></text>
        <text id="Haber" transform="translate(507 2566.75)" fill="#12263f" font-size="16" font-family="Roboto-Black, Roboto" font-weight="800"><tspan x="-21.758" y="0">Haber</tspan></text>
        <line id="Línea_260" data-name="Línea 260" x1="295" transform="translate(285 2577.75)" fill="none" stroke="#12263f" stroke-width="5"/>
        <line id="Línea_261" data-name="Línea 261" y2="89" transform="translate(424.5 2578.25)" fill="none" stroke="#12263f" stroke-width="5"/>
        <path id="Unión_1" data-name="Unión 1" d="M936.479,11752v-17H919v-18.813h17.478V11700h17.855v16.187H971V11735H954.335v17Z" transform="translate(-601.001 -9085.246)" fill="#85d161"/>
        <rect id="Rectángulo_36442" data-name="Rectángulo 36442" width="87" height="22" rx="11" transform="translate(466 2629.752)" fill="#fdab64"/>
      </g>
      <g id="Grupo_98435" data-name="Grupo 98435">
        <text id="Pasivo" transform="translate(740 2533.75)" fill="#12263f" font-size="16" font-family="Roboto-Black, Roboto" font-weight="800"><tspan x="-24.273" y="0">Pasivo</tspan></text>
        <text id="Debe-2" data-name="Debe" transform="translate(662 2566.75)" fill="#12263f" font-size="16" font-family="Roboto-Black, Roboto" font-weight="800"><tspan x="-18.387" y="0">Debe</tspan></text>
        <text id="Haber-2" data-name="Haber" transform="translate(822 2566.75)" fill="#12263f" font-size="16" font-family="Roboto-Black, Roboto" font-weight="800"><tspan x="-21.758" y="0">Haber</tspan></text>
        <line id="Línea_262" data-name="Línea 262" x1="295" transform="translate(600 2577.75)" fill="none" stroke="#12263f" stroke-width="5"/>
        <line id="Línea_263" data-name="Línea 263" y2="89" transform="translate(739.5 2578.25)" fill="none" stroke="#12263f" stroke-width="5"/>
        <path id="Unión_2" data-name="Unión 2" d="M936.479,11752v-17H919v-18.813h17.478V11700h17.855v16.187H971V11735H954.335v17Z" transform="translate(-286.001 -9085.246)" fill="#85d161"/>
        <rect id="Rectángulo_36445" data-name="Rectángulo 36445" width="87" height="22" rx="11" transform="translate(781 2629.752)" fill="#fdab64"/>
      </g>
      <g id="Grupo_98436" data-name="Grupo 98436">
        <text id="Patrimonio" transform="translate(1055 2533.75)" fill="#12263f" font-size="16" font-family="Roboto-Black, Roboto" font-weight="800"><tspan x="-39.973" y="0">Patrimonio</tspan></text>
        <text id="Debe-3" data-name="Debe" transform="translate(977 2566.75)" fill="#12263f" font-size="16" font-family="Roboto-Black, Roboto" font-weight="800"><tspan x="-18.387" y="0">Debe</tspan></text>
        <text id="Haber-3" data-name="Haber" transform="translate(1137 2566.75)" fill="#12263f" font-size="16" font-family="Roboto-Black, Roboto" font-weight="800"><tspan x="-21.758" y="0">Haber</tspan></text>
        <line id="Línea_264" data-name="Línea 264" x1="295" transform="translate(915 2577.75)" fill="none" stroke="#12263f" stroke-width="5"/>
        <line id="Línea_265" data-name="Línea 265" y2="89" transform="translate(1054.5 2578.25)" fill="none" stroke="#12263f" stroke-width="5"/>
        <path id="Unión_3" data-name="Unión 3" d="M936.479,11752v-17H919v-18.813h17.478V11700h17.855v16.187H971V11735H954.335v17Z" transform="translate(28.999 -9085.246)" fill="#85d161"/>
        <rect id="Rectángulo_36448" data-name="Rectángulo 36448" width="87" height="22" rx="11" transform="translate(1096 2629.752)" fill="#fdab64"/>
      </g>
    </g>
  </g>
</svg>
