<svg xmlns="http://www.w3.org/2000/svg" width="46.498" height="46.5" viewBox="0 0 46.498 46.5">
  <g id="Grupo_98439" data-name="Grupo 98439" transform="translate(461.479 48.609)">
    <path id="Trazado_131766" data-name="Trazado 131766" d="M-452.48-42.6v-6h.531q13.543,0,27.087-.007a.991.991,0,0,1,.773.323c2.931,2.945,5.874,5.877,8.8,8.826a1.068,1.068,0,0,1,.295.675q.021,18.133.013,36.265v.4h-.5q-18.371,0-36.741.006a2.338,2.338,0,0,1-2.169-1.2c-1.017-1.665-2.071-3.306-3.088-4.971a1.663,1.663,0,0,1-.233-.823q-.02-8.2-.01-16.4v-.608c-.5,0-.961,0-1.424,0a2.245,2.245,0,0,1-2.323-2.343q-.008-5.9,0-11.807a2.242,2.242,0,0,1,2.368-2.343C-456.92-42.607-454.734-42.6-452.48-42.6Zm2.131,38.955h33.832V-38.079h-1.475v4.493h-25.486v.561q0,4.029,0,8.058a1.757,1.757,0,0,1-1.2,1.765,1.752,1.752,0,0,1-2.016-.7c-.148-.192-.295-.385-.532-.7v.634q0,7.425-.011,14.851a1.809,1.809,0,0,1-.253.863c-.512.875-1.064,1.727-1.6,2.587Zm6.871-31.49H-419.5V-38.11H-425.5v-5.97h-22.452V-42.6h1.941a2.277,2.277,0,0,1,2.529,2.514C-443.477-38.451-443.478-36.812-443.478-35.139Zm-1.5,2.47q0-3.678,0-7.356c0-.86-.218-1.078-1.078-1.078H-458.9c-.862,0-1.078.217-1.079,1.077q0,5.67,0,11.34c0,.861.217,1.079,1.077,1.079,3.609,0,7.217.006,10.826-.009a.827.827,0,0,1,.768.393c.543.763,1.111,1.509,1.686,2.248a2,2,0,0,0,.454.329,1.763,1.763,0,0,0,.18-.526C-444.974-27.671-444.978-30.17-444.978-32.67ZM-448.76-9.635V-26.072H-456.2V-9.635ZM-425.5-47.069h-25.452v4.437h1.495v-2.982H-425.5Zm7.7,7.441-6.159-6.157v6.157ZM-455.61-8.095c.861,1.38,1.674,2.687,2.493,3.992.4.638.881.635,1.283-.007q1.142-1.82,2.276-3.646c.062-.1.108-.208.175-.339Z" transform="translate(0 0)" fill="#12263f"/>
    <path id="Trazado_131767" data-name="Trazado 131767" d="M-234.1,164.674l3.364,3.368c-.3.286-.609.617-.956.9-.3.247-.282.456-.122.793a8.221,8.221,0,0,1-4.329,11.109,7.986,7.986,0,0,1-6.672-.194.5.5,0,0,0-.715.131c-.293.343-.615.662-.9.97l-3.336-3.374c.287-.279.624-.622.979-.945a.433.433,0,0,0,.117-.6,8.214,8.214,0,0,1,5.878-11.711,7.832,7.832,0,0,1,5.061.67.5.5,0,0,0,.716-.128C-234.725,165.318-234.4,165-234.1,164.674Zm.138,2.222-11.619,11.617,1,1.034,11.62-11.612Zm-8.171,12.383a6.652,6.652,0,0,0,7.591-1.255,6.656,6.656,0,0,0,1.359-7.606c-.293.3-.562.6-.858.874a.519.519,0,0,0-.17.609,4.73,4.73,0,0,1,.045,2.5,5.245,5.245,0,0,1-6.427,3.9.625.625,0,0,0-.462.034C-241.42,178.615-241.754,178.942-242.13,179.279Zm-3.232-3.233a5.516,5.516,0,0,1,.519-.558,1,1,0,0,0,.428-1.3,2.057,2.057,0,0,1-.1-.738,5.249,5.249,0,0,1,6.58-5.3.572.572,0,0,0,.422-.02c.37-.3.709-.642,1.086-.993a6.689,6.689,0,0,0-7.649,1.353A6.667,6.667,0,0,0-245.363,176.047Zm2.372-2.682,3.873-3.867A3.639,3.639,0,0,0-242.991,173.364Zm3.513,3.554c1.964.441,4.339-1.933,3.9-3.9Z" transform="translate(-186.958 -186.583)" fill="#12263f"/>
    <path id="Trazado_131768" data-name="Trazado 131768" d="M-281.572,107.439v1.441h-23.954v-1.441Z" transform="translate(-136.43 -136.513)" fill="#12263f"/>
    <path id="Trazado_131769" data-name="Trazado 131769" d="M-305.535,132.765v-1.443H-281.6v1.443Z" transform="translate(-136.422 -157.406)" fill="#12263f"/>
    <path id="Trazado_131770" data-name="Trazado 131770" d="M-281.582,84.856V83.415h20.955v1.441Z" transform="translate(-157.376 -115.497)" fill="#12263f"/>
    <path id="Trazado_131771" data-name="Trazado 131771" d="M-325.666,167.326v1.443h-9.69v-1.443Z" transform="translate(-110.334 -188.903)" fill="#12263f"/>
    <path id="Trazado_131772" data-name="Trazado 131772" d="M-325.675,191.275v1.445h-9.69v-1.445Z" transform="translate(-110.326 -209.854)" fill="#12263f"/>
    <path id="Trazado_131773" data-name="Trazado 131773" d="M-335.493,216.62v-1.442h9.69v1.442Z" transform="translate(-110.214 -230.765)" fill="#12263f"/>
    <path id="Trazado_131774" data-name="Trazado 131774" d="M-325.776,239.206v1.441h-9.706v-1.441Z" transform="translate(-110.224 -251.785)" fill="#12263f"/>
    <path id="Trazado_131775" data-name="Trazado 131775" d="M-325.673,263.15v1.444h-9.69V263.15Z" transform="translate(-110.328 -272.731)" fill="#12263f"/>
    <path id="Trazado_131776" data-name="Trazado 131776" d="M-335.489,288.491v-1.443h9.69v1.443Z" transform="translate(-110.217 -293.638)" fill="#12263f"/>
    <path id="Trazado_131777" data-name="Trazado 131777" d="M-303.994,84.9h-1.439V83.456h1.439Z" transform="translate(-136.511 -115.532)" fill="#12263f"/>
    <path id="Trazado_131778" data-name="Trazado 131778" d="M-411.289,32.577a2.293,2.293,0,0,1-2.253-2.247h1.457c.115.6.535.748,1.1.725.621-.026,1.244-.006,1.919-.006,0-.276.014-.522,0-.765a.732.732,0,0,0-.76-.73c-.5-.017-1,0-1.5-.008a2.244,2.244,0,0,1-2.231-2.246c-.012-.731,0-1.463,0-2.245h2.239V23.584h1.5v1.423c1.467.28,2.25,1.084,2.226,2.271h-1.441c-.116-.646-.584-.764-1.176-.734s-1.185.007-1.838.007a5.309,5.309,0,0,0,.009.88.714.714,0,0,0,.766.617c.484.007.969,0,1.453,0a2.243,2.243,0,0,1,2.253,2.223c.015.733,0,1.467,0,2.274H-409.8v1.475h-1.489Z" transform="translate(-41.917 -63.156)" fill="#12263f"/>
    <path id="Trazado_131779" data-name="Trazado 131779" d="M-395.4,144.745V143.3h1.442v1.443Z" transform="translate(-57.81 -167.887)" fill="#12263f"/>
    <path id="Trazado_131780" data-name="Trazado 131780" d="M-395.422,168.757V167.31h1.455v1.447Z" transform="translate(-57.787 -188.889)" fill="#12263f"/>
    <path id="Trazado_131781" data-name="Trazado 131781" d="M-395.369,191.188h1.442v1.45h-1.442Z" transform="translate(-57.834 -209.778)" fill="#12263f"/>
    <path id="Trazado_131782" data-name="Trazado 131782" d="M-395.411,216.68v-1.444h1.453v1.444Z" transform="translate(-57.797 -230.816)" fill="#12263f"/>
    <path id="Trazado_131783" data-name="Trazado 131783" d="M-395.422,240.63v-1.447h1.455v1.447Z" transform="translate(-57.787 -251.765)" fill="#12263f"/>
  </g>
</svg>
