<svg xmlns="http://www.w3.org/2000/svg" width="400" height="160.5" viewBox="0 0 400 160.5">
  <g id="Grupo_105825" data-name="Grupo 105825" transform="translate(-180 -2110)">
    <path id="Trazado_138132" data-name="Trazado 138132" d="M10,0H390a10,10,0,0,1,10,10V150a10,10,0,0,1-10,10H10A10,10,0,0,1,0,150V10A10,10,0,0,1,10,0Z" transform="translate(180 2110)" fill="#fff7df"/>
    <path id="Trazado_138140" data-name="Trazado 138140" d="M0,0H200V49H0Z" transform="translate(180 2168)" fill="#85d161"/>
    <path id="Trazado_138135" data-name="Trazado 138135" d="M0,0H200V49H0Z" transform="translate(380 2168)" fill="#fdab64"/>
    <path id="Trazado_138141" data-name="Trazado 138141" d="M-147.7-4.445h1.156v2.031H-147.7V0h-2.633V-2.414h-4.4l-.156-1.609,4.555-7.328v-.023h2.633Zm-4.68,0h2.047v-3.5l-.164.266ZM-139.547,0h-2.641V-8.406l-2.594.758v-2l4.992-1.727h.242Zm5.836-6.789h1.242a1.291,1.291,0,0,0,1.477-1.445,1.25,1.25,0,0,0-.352-.918,1.333,1.333,0,0,0-.992-.355,1.427,1.427,0,0,0-.91.3.93.93,0,0,0-.387.758h-2.633a2.7,2.7,0,0,1,.5-1.6,3.3,3.3,0,0,1,1.387-1.1,4.741,4.741,0,0,1,1.949-.395,4.658,4.658,0,0,1,2.984.867,2.883,2.883,0,0,1,1.086,2.383,2.4,2.4,0,0,1-.449,1.387,3.2,3.2,0,0,1-1.309,1.059,3.058,3.058,0,0,1,1.422,1A2.623,2.623,0,0,1-128.18-3.2a2.935,2.935,0,0,1-1.172,2.438,4.864,4.864,0,0,1-3.078.914A5.044,5.044,0,0,1-134.5-.27a3.25,3.25,0,0,1-1.449-1.18,3.067,3.067,0,0,1-.492-1.715h2.648a1.185,1.185,0,0,0,.422.906,1.489,1.489,0,0,0,1.039.383,1.56,1.56,0,0,0,1.109-.387,1.293,1.293,0,0,0,.414-.988,1.511,1.511,0,0,0-.43-1.219,1.8,1.8,0,0,0-1.187-.359h-1.281Zm7.016,1.233.7-5.819h6.648v2.047h-4.508l-.258,2.26a3.105,3.105,0,0,1,.738-.29,3.368,3.368,0,0,1,.895-.126,3.337,3.337,0,0,1,2.605,1,4.044,4.044,0,0,1,.91,2.816,4.037,4.037,0,0,1-.488,1.98A3.356,3.356,0,0,1-120.828-.32a4.329,4.329,0,0,1-2.086.477,4.658,4.658,0,0,1-2.008-.441,3.6,3.6,0,0,1-1.469-1.21,2.94,2.94,0,0,1-.523-1.737h2.641a1.493,1.493,0,0,0,.4.99,1.265,1.265,0,0,0,.945.366q1.328,0,1.328-1.965,0-1.817-1.625-1.817a1.622,1.622,0,0,0-1.375.593Zm16.711,3.681a1.171,1.171,0,0,0,.859-.3,1.1,1.1,0,0,0,.3-.84h2.469a2.922,2.922,0,0,1-1,2.281,3.705,3.705,0,0,1-2.566.891A3.751,3.751,0,0,1-112.828-1a4.556,4.556,0,0,1-1.062-3.2v-.109a5.149,5.149,0,0,1,.473-2.262,3.441,3.441,0,0,1,1.363-1.508,4.065,4.065,0,0,1,2.109-.527,3.658,3.658,0,0,1,2.617.914,3.242,3.242,0,0,1,.969,2.477h-2.469a1.445,1.445,0,0,0-.32-1.008,1.106,1.106,0,0,0-.859-.352q-1.023,0-1.2,1.3a9.206,9.206,0,0,0-.055,1.141,3.616,3.616,0,0,0,.3,1.766A1.055,1.055,0,0,0-109.984-1.875Zm4.406-2.43a4.989,4.989,0,0,1,.492-2.254,3.52,3.52,0,0,1,1.414-1.52,4.259,4.259,0,0,1,2.164-.531,3.887,3.887,0,0,1,2.992,1.176,4.512,4.512,0,0,1,1.094,3.2v.094A4.378,4.378,0,0,1-98.52-1a3.9,3.9,0,0,1-2.973,1.16,3.942,3.942,0,0,1-2.9-1.082,4.232,4.232,0,0,1-1.18-2.934Zm2.633.164a3.145,3.145,0,0,0,.367,1.719,1.223,1.223,0,0,0,1.086.547q1.406,0,1.438-2.164V-4.3q0-2.273-1.453-2.273-1.32,0-1.43,1.961Zm9.172-4.312.086.992a2.906,2.906,0,0,1,2.414-1.148,2.14,2.14,0,0,1,2.164,1.273,2.813,2.813,0,0,1,2.484-1.273q2.57,0,2.641,3.109V0h-2.641V-5.336a1.611,1.611,0,0,0-.219-.945.931.931,0,0,0-.8-.3,1.247,1.247,0,0,0-1.164.7l.008.109V0h-2.641V-5.32a1.694,1.694,0,0,0-.211-.961.929.929,0,0,0-.8-.3,1.263,1.263,0,0,0-1.156.7V0h-2.633V-8.453ZM-78.391.156A4.345,4.345,0,0,1-81.539-1a4.006,4.006,0,0,1-1.2-3.02v-.219a5.191,5.191,0,0,1,.48-2.289,3.516,3.516,0,0,1,1.4-1.535,4.233,4.233,0,0,1,2.188-.543A3.659,3.659,0,0,1-75.859-7.5a4.344,4.344,0,0,1,1.031,3.082V-3.4h-5.234a1.9,1.9,0,0,0,.617,1.117,1.836,1.836,0,0,0,1.234.406,2.366,2.366,0,0,0,1.953-.875l1.2,1.422A3.363,3.363,0,0,1-76.449-.246,4.713,4.713,0,0,1-78.391.156Zm-.3-6.734q-1.156,0-1.375,1.531h2.656v-.2a1.3,1.3,0,0,0-.32-.98A1.275,1.275,0,0,0-78.687-6.578Zm10.031.508-.867-.062a1.558,1.558,0,0,0-1.594.781V0H-73.75V-8.453h2.469l.086,1.086a2.039,2.039,0,0,1,1.852-1.242,2.567,2.567,0,0,1,.734.094Zm4.375,4.2a1.171,1.171,0,0,0,.859-.3,1.1,1.1,0,0,0,.3-.84h2.469a2.922,2.922,0,0,1-1,2.281,3.705,3.705,0,0,1-2.566.891A3.751,3.751,0,0,1-67.125-1a4.556,4.556,0,0,1-1.062-3.2v-.109a5.149,5.149,0,0,1,.473-2.262,3.441,3.441,0,0,1,1.363-1.508,4.065,4.065,0,0,1,2.109-.527,3.658,3.658,0,0,1,2.617.914,3.242,3.242,0,0,1,.969,2.477h-2.469a1.445,1.445,0,0,0-.32-1.008,1.106,1.106,0,0,0-.859-.352q-1.023,0-1.2,1.3a9.206,9.206,0,0,0-.055,1.141,3.616,3.616,0,0,0,.3,1.766A1.055,1.055,0,0,0-64.281-1.875ZM-56.766,0h-2.641V-8.453h2.641Zm-2.8-10.633a1.175,1.175,0,0,1,.406-.922,1.533,1.533,0,0,1,1.055-.359,1.533,1.533,0,0,1,1.055.359,1.175,1.175,0,0,1,.406.922,1.175,1.175,0,0,1-.406.922,1.533,1.533,0,0,1-1.055.359,1.533,1.533,0,0,1-1.055-.359A1.175,1.175,0,0,1-59.562-10.633ZM-55.477-4.3a4.989,4.989,0,0,1,.492-2.254,3.52,3.52,0,0,1,1.414-1.52,4.259,4.259,0,0,1,2.164-.531,3.887,3.887,0,0,1,2.992,1.176,4.512,4.512,0,0,1,1.094,3.2v.094A4.378,4.378,0,0,1-48.418-1,3.9,3.9,0,0,1-51.391.156a3.942,3.942,0,0,1-2.9-1.082,4.232,4.232,0,0,1-1.18-2.934Zm2.633.164a3.145,3.145,0,0,0,.367,1.719,1.223,1.223,0,0,0,1.086.547q1.406,0,1.438-2.164V-4.3q0-2.273-1.453-2.273-1.32,0-1.43,1.961ZM-37.414,0a2.973,2.973,0,0,1-.25-.758A2.448,2.448,0,0,1-39.7.156a3,3,0,0,1-2.031-.723,2.3,2.3,0,0,1-.836-1.816,2.364,2.364,0,0,1,1.016-2.078,5.174,5.174,0,0,1,2.953-.7h.813v-.448q0-1.17-1.008-1.17a.824.824,0,0,0-.937.926h-2.633a2.36,2.36,0,0,1,1.043-1.99,4.383,4.383,0,0,1,2.66-.765A3.843,3.843,0,0,1-36.1-7.82a2.743,2.743,0,0,1,.961,2.164v3.742a3.832,3.832,0,0,0,.359,1.781V0Zm-1.648-1.719a1.469,1.469,0,0,0,.816-.211,1.322,1.322,0,0,0,.465-.477V-3.758h-.766q-1.375,0-1.375,1.234a.754.754,0,0,0,.242.582A.876.876,0,0,0-39.062-1.719ZM-30.906,0h-2.641V-12h2.641Zm13.453-4.164A5.1,5.1,0,0,1-18.34-1.02,2.843,2.843,0,0,1-20.734.156,2.437,2.437,0,0,1-22.648-.7V3.25h-2.633v-11.7h2.461l.078.781a2.437,2.437,0,0,1,1.992-.937,2.866,2.866,0,0,1,2.43,1.152,5.16,5.16,0,0,1,.867,3.168Zm-2.633-.164q0-2.25-1.312-2.25a1.239,1.239,0,0,0-1.25.672v3.328a1.279,1.279,0,0,0,1.266.7q1.258,0,1.3-2.172Zm3.461.023a4.989,4.989,0,0,1,.492-2.254,3.52,3.52,0,0,1,1.414-1.52,4.259,4.259,0,0,1,2.164-.531A3.887,3.887,0,0,1-9.562-7.434a4.512,4.512,0,0,1,1.094,3.2v.094A4.378,4.378,0,0,1-9.566-1,3.9,3.9,0,0,1-12.539.156a3.942,3.942,0,0,1-2.9-1.082,4.232,4.232,0,0,1-1.18-2.934Zm2.633.164a3.145,3.145,0,0,0,.367,1.719,1.223,1.223,0,0,0,1.086.547q1.406,0,1.438-2.164V-4.3q0-2.273-1.453-2.273-1.32,0-1.43,1.961ZM-2.2-6.07l-.867-.062a1.558,1.558,0,0,0-1.594.781V0H-7.289V-8.453H-4.82l.086,1.086A2.039,2.039,0,0,1-2.883-8.609a2.567,2.567,0,0,1,.734.094ZM5.227-8.453l.086.992A2.906,2.906,0,0,1,7.727-8.609,2.14,2.14,0,0,1,9.891-7.336a2.813,2.813,0,0,1,2.484-1.273q2.57,0,2.641,3.109V0H12.375V-5.336a1.611,1.611,0,0,0-.219-.945.931.931,0,0,0-.8-.3,1.247,1.247,0,0,0-1.164.7l.008.109V0H7.563V-5.32a1.694,1.694,0,0,0-.211-.961.929.929,0,0,0-.8-.3,1.263,1.263,0,0,0-1.156.7V0H2.758V-8.453ZM21.281,0a2.973,2.973,0,0,1-.25-.758A2.448,2.448,0,0,1,19,.156a3,3,0,0,1-2.031-.723,2.3,2.3,0,0,1-.836-1.816,2.364,2.364,0,0,1,1.016-2.078,5.174,5.174,0,0,1,2.953-.7h.813v-.448q0-1.17-1.008-1.17a.824.824,0,0,0-.937.926H16.336a2.36,2.36,0,0,1,1.043-1.99,4.383,4.383,0,0,1,2.66-.765,3.843,3.843,0,0,1,2.555.789,2.743,2.743,0,0,1,.961,2.164v3.742a3.832,3.832,0,0,0,.359,1.781V0ZM19.633-1.719a1.469,1.469,0,0,0,.816-.211,1.322,1.322,0,0,0,.465-.477V-3.758h-.766q-1.375,0-1.375,1.234a.754.754,0,0,0,.242.582A.876.876,0,0,0,19.633-1.719Zm8.758-1.969L29.8-8.453h2.82L29.172,1.414l-.148.359A2.617,2.617,0,0,1,26.43,3.414a4.126,4.126,0,0,1-1.086-.156V1.383h.344a1.8,1.8,0,0,0,.848-.16.973.973,0,0,0,.434-.575L27.18.085,24.242-8.453h2.813ZM32.969-4.3a4.989,4.989,0,0,1,.492-2.254,3.52,3.52,0,0,1,1.414-1.52,4.259,4.259,0,0,1,2.164-.531,3.887,3.887,0,0,1,2.992,1.176,4.512,4.512,0,0,1,1.094,3.2v.094A4.378,4.378,0,0,1,40.027-1,3.9,3.9,0,0,1,37.055.156a3.942,3.942,0,0,1-2.9-1.082,4.232,4.232,0,0,1-1.18-2.934Zm2.633.164a3.145,3.145,0,0,0,.367,1.719,1.223,1.223,0,0,0,1.086.547q1.406,0,1.438-2.164V-4.3q0-2.273-1.453-2.273-1.32,0-1.43,1.961ZM47.4-6.07l-.867-.062a1.558,1.558,0,0,0-1.594.781V0H42.3V-8.453h2.469l.086,1.086a2.039,2.039,0,0,1,1.852-1.242,2.567,2.567,0,0,1,.734.094Zm8.313,2.383,1.406-4.766h2.82L56.492,1.414l-.148.359A2.617,2.617,0,0,1,53.75,3.414a4.126,4.126,0,0,1-1.086-.156V1.383h.344a1.8,1.8,0,0,0,.848-.16.973.973,0,0,0,.434-.575L54.5.085,51.563-8.453h2.813ZM69.367,0a2.973,2.973,0,0,1-.25-.758,2.448,2.448,0,0,1-2.031.914,3,3,0,0,1-2.031-.723,2.3,2.3,0,0,1-.836-1.816,2.364,2.364,0,0,1,1.016-2.078,5.174,5.174,0,0,1,2.953-.7H69v-.448q0-1.17-1.008-1.17a.824.824,0,0,0-.937.926H64.422a2.36,2.36,0,0,1,1.043-1.99,4.383,4.383,0,0,1,2.66-.765,3.843,3.843,0,0,1,2.555.789,2.743,2.743,0,0,1,.961,2.164v3.742A3.832,3.832,0,0,0,72-.133V0ZM67.719-1.719a1.469,1.469,0,0,0,.816-.211A1.322,1.322,0,0,0,69-2.406V-3.758h-.766q-1.375,0-1.375,1.234a.754.754,0,0,0,.242.582A.876.876,0,0,0,67.719-1.719ZM75.875,0H73.234V-12h2.641ZM89.328-4.164a5.1,5.1,0,0,1-.887,3.145A2.843,2.843,0,0,1,86.047.156,2.437,2.437,0,0,1,84.133-.7V3.25H81.5v-11.7h2.461l.078.781a2.437,2.437,0,0,1,1.992-.937,2.866,2.866,0,0,1,2.43,1.152,5.16,5.16,0,0,1,.867,3.168ZM86.7-4.328q0-2.25-1.312-2.25a1.239,1.239,0,0,0-1.25.672v3.328a1.279,1.279,0,0,0,1.266.7q1.258,0,1.3-2.172Zm3.461.023a4.989,4.989,0,0,1,.492-2.254,3.52,3.52,0,0,1,1.414-1.52,4.259,4.259,0,0,1,2.164-.531,3.887,3.887,0,0,1,2.992,1.176,4.512,4.512,0,0,1,1.094,3.2v.094A4.378,4.378,0,0,1,97.215-1,3.9,3.9,0,0,1,94.242.156a3.942,3.942,0,0,1-2.9-1.082,4.232,4.232,0,0,1-1.18-2.934Zm2.633.164a3.145,3.145,0,0,0,.367,1.719,1.223,1.223,0,0,0,1.086.547q1.406,0,1.438-2.164V-4.3q0-2.273-1.453-2.273-1.32,0-1.43,1.961Zm11.8-1.93-.867-.062a1.558,1.558,0,0,0-1.594.781V0H99.492V-8.453h2.469l.086,1.086A2.039,2.039,0,0,1,103.9-8.609a2.567,2.567,0,0,1,.734.094Zm7.422-2.383.086.992a2.906,2.906,0,0,1,2.414-1.148,2.14,2.14,0,0,1,2.164,1.273,2.813,2.813,0,0,1,2.484-1.273q2.57,0,2.641,3.109V0h-2.641V-5.336a1.611,1.611,0,0,0-.219-.945.931.931,0,0,0-.8-.3,1.247,1.247,0,0,0-1.164.7l.008.109V0h-2.641V-5.32a1.694,1.694,0,0,0-.211-.961.929.929,0,0,0-.8-.3,1.263,1.263,0,0,0-1.156.7V0h-2.633V-8.453ZM127.391.156A4.345,4.345,0,0,1,124.242-1a4.006,4.006,0,0,1-1.2-3.02v-.219a5.191,5.191,0,0,1,.48-2.289,3.516,3.516,0,0,1,1.4-1.535,4.233,4.233,0,0,1,2.188-.543A3.659,3.659,0,0,1,129.922-7.5a4.344,4.344,0,0,1,1.031,3.082V-3.4h-5.234a1.9,1.9,0,0,0,.617,1.117,1.836,1.836,0,0,0,1.234.406,2.366,2.366,0,0,0,1.953-.875l1.2,1.422a3.363,3.363,0,0,1-1.395,1.082A4.713,4.713,0,0,1,127.391.156Zm-.3-6.734q-1.156,0-1.375,1.531h2.656v-.2a1.3,1.3,0,0,0-.32-.98A1.275,1.275,0,0,0,127.094-6.578Zm7.336-1.875.086.992a2.867,2.867,0,0,1,2.414-1.148,2.412,2.412,0,0,1,1.973.789,3.757,3.757,0,0,1,.676,2.375V0h-2.641V-5.336a1.426,1.426,0,0,0-.258-.941,1.193,1.193,0,0,0-.937-.3,1.256,1.256,0,0,0-1.148.609V0h-2.633V-8.453ZM140.7-4.3a4.989,4.989,0,0,1,.492-2.254,3.52,3.52,0,0,1,1.414-1.52,4.259,4.259,0,0,1,2.164-.531,3.887,3.887,0,0,1,2.992,1.176,4.512,4.512,0,0,1,1.094,3.2v.094A4.378,4.378,0,0,1,147.762-1a3.9,3.9,0,0,1-2.973,1.16,3.942,3.942,0,0,1-2.9-1.082,4.232,4.232,0,0,1-1.18-2.934Zm2.633.164a3.145,3.145,0,0,0,.367,1.719,1.223,1.223,0,0,0,1.086.547q1.406,0,1.438-2.164V-4.3q0-2.273-1.453-2.273-1.32,0-1.43,1.961Zm11.8-1.93-.867-.062a1.558,1.558,0,0,0-1.594.781V0h-2.633V-8.453h2.469l.086,1.086a2.039,2.039,0,0,1,1.852-1.242,2.567,2.567,0,0,1,.734.094Z" transform="translate(381 2147)" fill="#12263f"/>
    <path id="Trazado_138142" data-name="Trazado 138142" d="M.859,0V-11.375H4.523a5.39,5.39,0,0,1,2.711.684,4.805,4.805,0,0,1,1.879,1.93A5.826,5.826,0,0,1,9.8-5.969v.523a5.86,5.86,0,0,1-.66,2.8A4.826,4.826,0,0,1,7.277-.707,5.271,5.271,0,0,1,4.6,0ZM3.6-9.258v7.148h.953a2.133,2.133,0,0,0,1.813-.84A4.116,4.116,0,0,0,7-5.445v-.492a4.082,4.082,0,0,0-.633-2.484,2.17,2.17,0,0,0-1.844-.836ZM15.172.156A4.345,4.345,0,0,1,12.023-1a4.006,4.006,0,0,1-1.2-3.02v-.219a5.191,5.191,0,0,1,.48-2.289,3.516,3.516,0,0,1,1.4-1.535,4.233,4.233,0,0,1,2.188-.543A3.659,3.659,0,0,1,17.7-7.5a4.344,4.344,0,0,1,1.031,3.082V-3.4H13.5a1.9,1.9,0,0,0,.617,1.117,1.836,1.836,0,0,0,1.234.406A2.366,2.366,0,0,0,17.3-2.75l1.2,1.422A3.363,3.363,0,0,1,17.113-.246,4.713,4.713,0,0,1,15.172.156Zm-.3-6.734q-1.156,0-1.375,1.531h2.656v-.2a1.3,1.3,0,0,0-.32-.98A1.275,1.275,0,0,0,14.875-6.578ZM27.641-4.156a5.152,5.152,0,0,1-.859,3.2A2.878,2.878,0,0,1,24.359.156,2.5,2.5,0,0,1,22.281-.867L22.172,0H19.813V-12h2.633v4.227a2.41,2.41,0,0,1,1.9-.836,2.879,2.879,0,0,1,2.438,1.133,5.179,5.179,0,0,1,.859,3.188ZM25-4.324a3.437,3.437,0,0,0-.324-1.735,1.093,1.093,0,0,0-1-.519,1.261,1.261,0,0,0-1.234.679v3.354a1.268,1.268,0,0,0,1.25.671,1.118,1.118,0,0,0,1.18-.9A6.5,6.5,0,0,0,25-4.324ZM32.891.156A4.345,4.345,0,0,1,29.742-1a4.006,4.006,0,0,1-1.2-3.02v-.219a5.191,5.191,0,0,1,.48-2.289,3.516,3.516,0,0,1,1.4-1.535,4.233,4.233,0,0,1,2.188-.543A3.659,3.659,0,0,1,35.422-7.5a4.344,4.344,0,0,1,1.031,3.082V-3.4H31.219a1.9,1.9,0,0,0,.617,1.117,1.836,1.836,0,0,0,1.234.406,2.366,2.366,0,0,0,1.953-.875l1.2,1.422A3.363,3.363,0,0,1,34.832-.246,4.713,4.713,0,0,1,32.891.156Zm-.3-6.734q-1.156,0-1.375,1.531h2.656v-.2a1.3,1.3,0,0,0-.32-.98A1.275,1.275,0,0,0,32.594-6.578Z" transform="translate(265 2201)" fill="#12263f"/>
    <path id="Trazado_138137" data-name="Trazado 138137" d="M10.367,0H7.641V-4.75H3.6V0H.859V-11.375H3.6v4.516H7.641v-4.516h2.727Zm6.375,0a2.973,2.973,0,0,1-.25-.758,2.448,2.448,0,0,1-2.031.914A3,3,0,0,1,12.43-.566a2.3,2.3,0,0,1-.836-1.816,2.364,2.364,0,0,1,1.016-2.078,5.174,5.174,0,0,1,2.953-.7h.813v-.448q0-1.17-1.008-1.17a.824.824,0,0,0-.937.926H11.8a2.36,2.36,0,0,1,1.043-1.99,4.383,4.383,0,0,1,2.66-.765,3.843,3.843,0,0,1,2.555.789,2.743,2.743,0,0,1,.961,2.164v3.742a3.832,3.832,0,0,0,.359,1.781V0ZM15.094-1.719a1.469,1.469,0,0,0,.816-.211,1.322,1.322,0,0,0,.465-.477V-3.758h-.766q-1.375,0-1.375,1.234a.754.754,0,0,0,.242.582A.876.876,0,0,0,15.094-1.719ZM28.32-4.156a5.152,5.152,0,0,1-.859,3.2A2.878,2.878,0,0,1,25.039.156,2.5,2.5,0,0,1,22.961-.867L22.852,0H20.492V-12h2.633v4.227a2.41,2.41,0,0,1,1.9-.836,2.879,2.879,0,0,1,2.438,1.133,5.179,5.179,0,0,1,.859,3.188ZM25.68-4.324a3.437,3.437,0,0,0-.324-1.735,1.093,1.093,0,0,0-1-.519,1.261,1.261,0,0,0-1.234.679v3.354a1.268,1.268,0,0,0,1.25.671,1.118,1.118,0,0,0,1.18-.9A6.5,6.5,0,0,0,25.68-4.324ZM33.57.156A4.345,4.345,0,0,1,30.422-1a4.006,4.006,0,0,1-1.2-3.02v-.219a5.191,5.191,0,0,1,.48-2.289,3.516,3.516,0,0,1,1.4-1.535,4.233,4.233,0,0,1,2.188-.543A3.659,3.659,0,0,1,36.1-7.5a4.344,4.344,0,0,1,1.031,3.082V-3.4H31.9a1.9,1.9,0,0,0,.617,1.117,1.836,1.836,0,0,0,1.234.406A2.366,2.366,0,0,0,35.7-2.75l1.2,1.422A3.363,3.363,0,0,1,35.512-.246,4.713,4.713,0,0,1,33.57.156Zm-.3-6.734q-1.156,0-1.375,1.531h2.656v-.2a1.3,1.3,0,0,0-.32-.98A1.275,1.275,0,0,0,33.273-6.578ZM43.3-6.07l-.867-.062a1.558,1.558,0,0,0-1.594.781V0H38.211V-8.453H40.68l.086,1.086a2.039,2.039,0,0,1,1.852-1.242,2.567,2.567,0,0,1,.734.094Z" transform="translate(453 2201)" fill="#12263f"/>
    <path id="Trazado_138134" data-name="Trazado 138134" d="M-33.461-2.93a1.626,1.626,0,0,0-.5-1.211,4.508,4.508,0,0,0-1.7-.891A5.447,5.447,0,0,1-38.09-6.355a2.921,2.921,0,0,1-.762-2.074,3,3,0,0,1,.746-2.1,3.17,3.17,0,0,1,2.051-.977v-1.711h1.164V-11.5a3.011,3.011,0,0,1,2.043,1.1,3.959,3.959,0,0,1,.73,2.523h-1.437a2.721,2.721,0,0,0-.523-1.756,1.72,1.72,0,0,0-1.414-.651,1.951,1.951,0,0,0-1.422.481,1.791,1.791,0,0,0-.492,1.342,1.636,1.636,0,0,0,.52,1.272,4.786,4.786,0,0,0,1.711.861,7.2,7.2,0,0,1,1.859.852,2.991,2.991,0,0,1,.984,1.082,3.128,3.128,0,0,1,.316,1.445A2.9,2.9,0,0,1-32.809-.82a3.516,3.516,0,0,1-2.223.953V1.625h-1.156V.133A3.369,3.369,0,0,1-38.465-.9a3.493,3.493,0,0,1-.824-2.449h1.445a2.3,2.3,0,0,0,.57,1.672,2.153,2.153,0,0,0,1.617.586,2.426,2.426,0,0,0,1.609-.492A1.662,1.662,0,0,0-33.461-2.93ZM-22.766,0h-7.453V-1.039l3.938-4.375a9.354,9.354,0,0,0,1.207-1.613,2.693,2.693,0,0,0,.332-1.285,2.041,2.041,0,0,0-.539-1.461,1.885,1.885,0,0,0-1.437-.57,2.232,2.232,0,0,0-1.676.613,2.343,2.343,0,0,0-.6,1.707h-1.445a3.355,3.355,0,0,1,1.012-2.539,3.751,3.751,0,0,1,2.707-.969,3.6,3.6,0,0,1,2.508.832,2.838,2.838,0,0,1,.922,2.215q0,1.68-2.141,4l-3.047,3.3h5.711Zm1.711-.758a.905.905,0,0,1,.223-.625.848.848,0,0,1,.668-.25.874.874,0,0,1,.676.25.887.887,0,0,1,.23.625.839.839,0,0,1-.23.6.89.89,0,0,1-.676.242.863.863,0,0,1-.668-.242A.855.855,0,0,1-21.055-.758ZM-9.891-4.852a6.61,6.61,0,0,1-.867,3.773A3.084,3.084,0,0,1-13.469.156a3.107,3.107,0,0,1-2.7-1.207,6.274,6.274,0,0,1-.906-3.605v-1.93a6.463,6.463,0,0,1,.867-3.727,3.108,3.108,0,0,1,2.719-1.219,3.136,3.136,0,0,1,2.7,1.176,6.237,6.237,0,0,1,.891,3.629Zm-1.445-1.977A5.3,5.3,0,0,0-11.852-9.5a1.775,1.775,0,0,0-1.633-.84,1.751,1.751,0,0,0-1.617.836,5.171,5.171,0,0,0-.523,2.57v2.313A5.381,5.381,0,0,0-15.09-1.9a1.771,1.771,0,0,0,1.621.879,1.747,1.747,0,0,0,1.59-.828,5.186,5.186,0,0,0,.543-2.609ZM-.906-4.852a6.61,6.61,0,0,1-.867,3.773A3.084,3.084,0,0,1-4.484.156a3.107,3.107,0,0,1-2.7-1.207,6.274,6.274,0,0,1-.906-3.605v-1.93a6.463,6.463,0,0,1,.867-3.727A3.108,3.108,0,0,1-4.5-11.531a3.136,3.136,0,0,1,2.7,1.176A6.237,6.237,0,0,1-.906-6.727ZM-2.352-6.828A5.3,5.3,0,0,0-2.867-9.5a1.775,1.775,0,0,0-1.633-.84,1.751,1.751,0,0,0-1.617.836,5.171,5.171,0,0,0-.523,2.57v2.313A5.381,5.381,0,0,0-6.105-1.9a1.771,1.771,0,0,0,1.621.879,1.747,1.747,0,0,0,1.59-.828,5.186,5.186,0,0,0,.543-2.609ZM8.078-4.852a6.61,6.61,0,0,1-.867,3.773A3.084,3.084,0,0,1,4.5.156,3.107,3.107,0,0,1,1.8-1.051,6.274,6.274,0,0,1,.9-4.656v-1.93a6.463,6.463,0,0,1,.867-3.727,3.108,3.108,0,0,1,2.719-1.219,3.136,3.136,0,0,1,2.7,1.176,6.237,6.237,0,0,1,.891,3.629ZM6.633-6.828A5.3,5.3,0,0,0,6.117-9.5a1.775,1.775,0,0,0-1.633-.84,1.751,1.751,0,0,0-1.617.836,5.171,5.171,0,0,0-.523,2.57v2.313A5.381,5.381,0,0,0,2.879-1.9,1.771,1.771,0,0,0,4.5-1.023a1.747,1.747,0,0,0,1.59-.828,5.186,5.186,0,0,0,.543-2.609Zm3.477,6.07a.905.905,0,0,1,.223-.625A.848.848,0,0,1,11-1.633a.874.874,0,0,1,.676.25.887.887,0,0,1,.23.625.839.839,0,0,1-.23.6A.89.89,0,0,1,11,.086a.863.863,0,0,1-.668-.242A.855.855,0,0,1,10.109-.758ZM21.273-4.852a6.61,6.61,0,0,1-.867,3.773A3.084,3.084,0,0,1,17.7.156,3.107,3.107,0,0,1,15-1.051a6.274,6.274,0,0,1-.906-3.605v-1.93a6.463,6.463,0,0,1,.867-3.727,3.108,3.108,0,0,1,2.719-1.219,3.136,3.136,0,0,1,2.7,1.176,6.237,6.237,0,0,1,.891,3.629ZM19.828-6.828A5.3,5.3,0,0,0,19.313-9.5a1.775,1.775,0,0,0-1.633-.84,1.751,1.751,0,0,0-1.617.836,5.171,5.171,0,0,0-.523,2.57v2.313A5.381,5.381,0,0,0,16.074-1.9a1.771,1.771,0,0,0,1.621.879,1.747,1.747,0,0,0,1.59-.828,5.186,5.186,0,0,0,.543-2.609Zm10.43,1.977a6.61,6.61,0,0,1-.867,3.773A3.084,3.084,0,0,1,26.68.156a3.107,3.107,0,0,1-2.7-1.207,6.274,6.274,0,0,1-.906-3.605v-1.93a6.463,6.463,0,0,1,.867-3.727,3.108,3.108,0,0,1,2.719-1.219,3.136,3.136,0,0,1,2.7,1.176,6.237,6.237,0,0,1,.891,3.629ZM28.813-6.828A5.3,5.3,0,0,0,28.3-9.5a1.775,1.775,0,0,0-1.633-.84,1.751,1.751,0,0,0-1.617.836,5.171,5.171,0,0,0-.523,2.57v2.313A5.381,5.381,0,0,0,25.059-1.9a1.771,1.771,0,0,0,1.621.879,1.747,1.747,0,0,0,1.59-.828,5.186,5.186,0,0,0,.543-2.609Zm10.43,1.977a6.61,6.61,0,0,1-.867,3.773A3.084,3.084,0,0,1,35.664.156a3.107,3.107,0,0,1-2.7-1.207,6.274,6.274,0,0,1-.906-3.605v-1.93a6.463,6.463,0,0,1,.867-3.727,3.108,3.108,0,0,1,2.719-1.219,3.136,3.136,0,0,1,2.7,1.176,6.237,6.237,0,0,1,.891,3.629ZM37.8-6.828A5.3,5.3,0,0,0,37.281-9.5a1.775,1.775,0,0,0-1.633-.84,1.751,1.751,0,0,0-1.617.836,5.171,5.171,0,0,0-.523,2.57v2.313A5.381,5.381,0,0,0,34.043-1.9a1.771,1.771,0,0,0,1.621.879,1.747,1.747,0,0,0,1.59-.828A5.186,5.186,0,0,0,37.8-4.461Z" transform="translate(474 2247)" fill="#12263f"/>
    <path id="Trazado_138138" data-name="Trazado 138138" d="M0,0H400" transform="translate(180 2168)" fill="none" stroke="#12263f" stroke-width="1"/>
    <path id="Trazado_138136" data-name="Trazado 138136" d="M0,0H400" transform="translate(180 2217)" fill="none" stroke="#12263f" stroke-width="1"/>
    <path id="Trazado_138139" data-name="Trazado 138139" d="M0,0V102" transform="translate(380.5 2168.5)" fill="none" stroke="#12263f" stroke-width="1"/>
    <g id="Trazado_138133" data-name="Trazado 138133" transform="translate(180 2110)" fill="none">
      <path d="M10,0H390a10,10,0,0,1,10,10V150a10,10,0,0,1-10,10H10A10,10,0,0,1,0,150V10A10,10,0,0,1,10,0Z" stroke="none"/>
      <path d="M 10 3 C 6.14019775390625 3 3 6.140213012695312 3 10 L 3 150 C 3 153.8597869873047 6.14019775390625 157 10 157 L 390 157 C 393.8598022460938 157 397 153.8597869873047 397 150 L 397 10 C 397 6.140213012695312 393.8598022460938 3 390 3 L 10 3 M 10 0 L 390 0 C 395.5228271484375 0 400 4.477157592773438 400 10 L 400 150 C 400 155.5228424072266 395.5228271484375 160 390 160 L 10 160 C 4.4771728515625 160 0 155.5228424072266 0 150 L 0 10 C 0 4.477157592773438 4.4771728515625 0 10 0 Z" stroke="none" fill="#12263f"/>
    </g>
  </g>
</svg>
