<svg xmlns="http://www.w3.org/2000/svg" width="400" height="160.5" viewBox="0 0 400 160.5">
  <g id="Grupo_105826" data-name="Grupo 105826" transform="translate(-600 -2110)">
    <path id="Trazado_138143" data-name="Trazado 138143" d="M10,0H390a10,10,0,0,1,10,10V150a10,10,0,0,1-10,10H10A10,10,0,0,1,0,150V10A10,10,0,0,1,10,0Z" transform="translate(600 2110)" fill="#fff7df"/>
    <path id="Trazado_138149" data-name="Trazado 138149" d="M0,0H200V49H0Z" transform="translate(600 2168)" fill="#85d161"/>
    <path id="Trazado_138145" data-name="Trazado 138145" d="M0,0H200V49H0Z" transform="translate(800 2168)" fill="#fdab64"/>
    <path id="Trazado_138151" data-name="Trazado 138151" d="M-38.066,0h-2.641V-8.406l-2.594.758v-2l4.992-1.727h.242ZM-28.8,0h-2.641V-8.406l-2.594.758v-2l4.992-1.727h.242Zm11.328-4.648a5.431,5.431,0,0,1-1.035,3.555A3.577,3.577,0,0,1-21.426.156,3.6,3.6,0,0,1-24.363-1.1,5.423,5.423,0,0,1-25.4-4.648V-6.727a5.431,5.431,0,0,1,1.035-3.555,3.586,3.586,0,0,1,2.926-1.25,3.587,3.587,0,0,1,2.93,1.258,5.436,5.436,0,0,1,1.039,3.555Zm-2.633-2.414a4.057,4.057,0,0,0-.32-1.832A1.071,1.071,0,0,0-21.441-9.5a1.045,1.045,0,0,0-.988.563,3.822,3.822,0,0,0-.332,1.7v2.906a4.088,4.088,0,0,0,.32,1.863,1.075,1.075,0,0,0,1.016.59,1.06,1.06,0,0,0,.992-.574,3.9,3.9,0,0,0,.328-1.8Zm4.156,1.506.7-5.819h6.648v2.047h-4.508l-.258,2.26a3.105,3.105,0,0,1,.738-.29,3.368,3.368,0,0,1,.895-.126,3.337,3.337,0,0,1,2.605,1,4.044,4.044,0,0,1,.91,2.816,4.037,4.037,0,0,1-.488,1.98A3.356,3.356,0,0,1-10.082-.32a4.329,4.329,0,0,1-2.086.477,4.658,4.658,0,0,1-2.008-.441,3.6,3.6,0,0,1-1.469-1.21,2.94,2.94,0,0,1-.523-1.737h2.641a1.494,1.494,0,0,0,.4.99,1.265,1.265,0,0,0,.945.366q1.328,0,1.328-1.965,0-1.817-1.625-1.817a1.622,1.622,0,0,0-1.375.593Zm17.008.908A5.431,5.431,0,0,1,.023-1.094,3.577,3.577,0,0,1-2.895.156,3.6,3.6,0,0,1-5.832-1.1,5.423,5.423,0,0,1-6.871-4.648V-6.727a5.431,5.431,0,0,1,1.035-3.555,3.586,3.586,0,0,1,2.926-1.25A3.587,3.587,0,0,1,.02-10.273,5.436,5.436,0,0,1,1.059-6.719ZM-1.574-7.062a4.057,4.057,0,0,0-.32-1.832A1.071,1.071,0,0,0-2.91-9.5a1.045,1.045,0,0,0-.988.563,3.822,3.822,0,0,0-.332,1.7v2.906a4.088,4.088,0,0,0,.32,1.863,1.075,1.075,0,0,0,1.016.59A1.06,1.06,0,0,0-1.9-2.449a3.9,3.9,0,0,0,.328-1.8ZM2.582-5.556l.7-5.819H9.926v2.047H5.418L5.16-7.068a3.105,3.105,0,0,1,.738-.29,3.368,3.368,0,0,1,.895-.126,3.337,3.337,0,0,1,2.605,1,4.044,4.044,0,0,1,.91,2.816,4.037,4.037,0,0,1-.488,1.98A3.356,3.356,0,0,1,8.449-.32,4.329,4.329,0,0,1,6.363.156,4.658,4.658,0,0,1,4.355-.285a3.6,3.6,0,0,1-1.469-1.21,2.94,2.94,0,0,1-.523-1.737H5a1.494,1.494,0,0,0,.4.99,1.265,1.265,0,0,0,.945.366q1.328,0,1.328-1.965,0-1.817-1.625-1.817a1.622,1.622,0,0,0-1.375.593ZM19.293-1.875a1.171,1.171,0,0,0,.859-.3,1.1,1.1,0,0,0,.3-.84h2.469a2.922,2.922,0,0,1-1,2.281,3.705,3.705,0,0,1-2.566.891A3.751,3.751,0,0,1,16.449-1a4.556,4.556,0,0,1-1.062-3.2v-.109a5.149,5.149,0,0,1,.473-2.262,3.441,3.441,0,0,1,1.363-1.508,4.065,4.065,0,0,1,2.109-.527,3.658,3.658,0,0,1,2.617.914,3.242,3.242,0,0,1,.969,2.477H20.449a1.445,1.445,0,0,0-.32-1.008,1.106,1.106,0,0,0-.859-.352q-1.023,0-1.2,1.3a9.206,9.206,0,0,0-.055,1.141,3.616,3.616,0,0,0,.3,1.766A1.055,1.055,0,0,0,19.293-1.875ZM28.793,0a2.973,2.973,0,0,1-.25-.758,2.448,2.448,0,0,1-2.031.914A3,3,0,0,1,24.48-.566a2.3,2.3,0,0,1-.836-1.816A2.364,2.364,0,0,1,24.66-4.461a5.174,5.174,0,0,1,2.953-.7h.813v-.448q0-1.17-1.008-1.17a.824.824,0,0,0-.937.926H23.848a2.36,2.36,0,0,1,1.043-1.99,4.383,4.383,0,0,1,2.66-.765,3.843,3.843,0,0,1,2.555.789,2.743,2.743,0,0,1,.961,2.164v3.742a3.832,3.832,0,0,0,.359,1.781V0ZM27.145-1.719a1.469,1.469,0,0,0,.816-.211,1.322,1.322,0,0,0,.465-.477V-3.758H27.66q-1.375,0-1.375,1.234a.754.754,0,0,0,.242.582A.876.876,0,0,0,27.145-1.719Zm8.211-6.734V.289A3.068,3.068,0,0,1,34.5,2.6a3.3,3.3,0,0,1-2.375.813,5.607,5.607,0,0,1-1.242-.133V1.289a5.037,5.037,0,0,0,.742.07A.963.963,0,0,0,32.715.273V-8.453Zm-2.836-2.18a1.175,1.175,0,0,1,.406-.922,1.533,1.533,0,0,1,1.055-.359,1.533,1.533,0,0,1,1.055.359,1.175,1.175,0,0,1,.406.922,1.175,1.175,0,0,1-.406.922,1.533,1.533,0,0,1-1.055.359,1.533,1.533,0,0,1-1.055-.359A1.175,1.175,0,0,1,32.52-10.633ZM41.605,0a2.973,2.973,0,0,1-.25-.758,2.448,2.448,0,0,1-2.031.914,3,3,0,0,1-2.031-.723,2.3,2.3,0,0,1-.836-1.816,2.364,2.364,0,0,1,1.016-2.078,5.174,5.174,0,0,1,2.953-.7h.813v-.448q0-1.17-1.008-1.17a.824.824,0,0,0-.937.926H36.66A2.36,2.36,0,0,1,37.7-7.845a4.383,4.383,0,0,1,2.66-.765,3.843,3.843,0,0,1,2.555.789,2.743,2.743,0,0,1,.961,2.164v3.742a3.832,3.832,0,0,0,.359,1.781V0ZM39.957-1.719a1.469,1.469,0,0,0,.816-.211,1.322,1.322,0,0,0,.465-.477V-3.758h-.766q-1.375,0-1.375,1.234a.754.754,0,0,0,.242.582A.876.876,0,0,0,39.957-1.719Z" transform="translate(800 2147)" fill="#12263f"/>
    <path id="Trazado_138153" data-name="Trazado 138153" d="M.859,0V-11.375H4.523a5.39,5.39,0,0,1,2.711.684,4.805,4.805,0,0,1,1.879,1.93A5.826,5.826,0,0,1,9.8-5.969v.523a5.86,5.86,0,0,1-.66,2.8A4.826,4.826,0,0,1,7.277-.707,5.271,5.271,0,0,1,4.6,0ZM3.6-9.258v7.148h.953a2.133,2.133,0,0,0,1.813-.84A4.116,4.116,0,0,0,7-5.445v-.492a4.082,4.082,0,0,0-.633-2.484,2.17,2.17,0,0,0-1.844-.836ZM15.172.156A4.345,4.345,0,0,1,12.023-1a4.006,4.006,0,0,1-1.2-3.02v-.219a5.191,5.191,0,0,1,.48-2.289,3.516,3.516,0,0,1,1.4-1.535,4.233,4.233,0,0,1,2.188-.543A3.659,3.659,0,0,1,17.7-7.5a4.344,4.344,0,0,1,1.031,3.082V-3.4H13.5a1.9,1.9,0,0,0,.617,1.117,1.836,1.836,0,0,0,1.234.406A2.366,2.366,0,0,0,17.3-2.75l1.2,1.422A3.363,3.363,0,0,1,17.113-.246,4.713,4.713,0,0,1,15.172.156Zm-.3-6.734q-1.156,0-1.375,1.531h2.656v-.2a1.3,1.3,0,0,0-.32-.98A1.275,1.275,0,0,0,14.875-6.578ZM27.641-4.156a5.152,5.152,0,0,1-.859,3.2A2.878,2.878,0,0,1,24.359.156,2.5,2.5,0,0,1,22.281-.867L22.172,0H19.813V-12h2.633v4.227a2.41,2.41,0,0,1,1.9-.836,2.879,2.879,0,0,1,2.438,1.133,5.179,5.179,0,0,1,.859,3.188ZM25-4.324a3.437,3.437,0,0,0-.324-1.735,1.093,1.093,0,0,0-1-.519,1.261,1.261,0,0,0-1.234.679v3.354a1.268,1.268,0,0,0,1.25.671,1.118,1.118,0,0,0,1.18-.9A6.5,6.5,0,0,0,25-4.324ZM32.891.156A4.345,4.345,0,0,1,29.742-1a4.006,4.006,0,0,1-1.2-3.02v-.219a5.191,5.191,0,0,1,.48-2.289,3.516,3.516,0,0,1,1.4-1.535,4.233,4.233,0,0,1,2.188-.543A3.659,3.659,0,0,1,35.422-7.5a4.344,4.344,0,0,1,1.031,3.082V-3.4H31.219a1.9,1.9,0,0,0,.617,1.117,1.836,1.836,0,0,0,1.234.406,2.366,2.366,0,0,0,1.953-.875l1.2,1.422A3.363,3.363,0,0,1,34.832-.246,4.713,4.713,0,0,1,32.891.156Zm-.3-6.734q-1.156,0-1.375,1.531h2.656v-.2a1.3,1.3,0,0,0-.32-.98A1.275,1.275,0,0,0,32.594-6.578Z" transform="translate(685 2201)" fill="#12263f"/>
    <path id="Trazado_138147" data-name="Trazado 138147" d="M10.367,0H7.641V-4.75H3.6V0H.859V-11.375H3.6v4.516H7.641v-4.516h2.727Zm6.375,0a2.973,2.973,0,0,1-.25-.758,2.448,2.448,0,0,1-2.031.914A3,3,0,0,1,12.43-.566a2.3,2.3,0,0,1-.836-1.816,2.364,2.364,0,0,1,1.016-2.078,5.174,5.174,0,0,1,2.953-.7h.813v-.448q0-1.17-1.008-1.17a.824.824,0,0,0-.937.926H11.8a2.36,2.36,0,0,1,1.043-1.99,4.383,4.383,0,0,1,2.66-.765,3.843,3.843,0,0,1,2.555.789,2.743,2.743,0,0,1,.961,2.164v3.742a3.832,3.832,0,0,0,.359,1.781V0ZM15.094-1.719a1.469,1.469,0,0,0,.816-.211,1.322,1.322,0,0,0,.465-.477V-3.758h-.766q-1.375,0-1.375,1.234a.754.754,0,0,0,.242.582A.876.876,0,0,0,15.094-1.719ZM28.32-4.156a5.152,5.152,0,0,1-.859,3.2A2.878,2.878,0,0,1,25.039.156,2.5,2.5,0,0,1,22.961-.867L22.852,0H20.492V-12h2.633v4.227a2.41,2.41,0,0,1,1.9-.836,2.879,2.879,0,0,1,2.438,1.133,5.179,5.179,0,0,1,.859,3.188ZM25.68-4.324a3.437,3.437,0,0,0-.324-1.735,1.093,1.093,0,0,0-1-.519,1.261,1.261,0,0,0-1.234.679v3.354a1.268,1.268,0,0,0,1.25.671,1.118,1.118,0,0,0,1.18-.9A6.5,6.5,0,0,0,25.68-4.324ZM33.57.156A4.345,4.345,0,0,1,30.422-1a4.006,4.006,0,0,1-1.2-3.02v-.219a5.191,5.191,0,0,1,.48-2.289,3.516,3.516,0,0,1,1.4-1.535,4.233,4.233,0,0,1,2.188-.543A3.659,3.659,0,0,1,36.1-7.5a4.344,4.344,0,0,1,1.031,3.082V-3.4H31.9a1.9,1.9,0,0,0,.617,1.117,1.836,1.836,0,0,0,1.234.406A2.366,2.366,0,0,0,35.7-2.75l1.2,1.422A3.363,3.363,0,0,1,35.512-.246,4.713,4.713,0,0,1,33.57.156Zm-.3-6.734q-1.156,0-1.375,1.531h2.656v-.2a1.3,1.3,0,0,0-.32-.98A1.275,1.275,0,0,0,33.273-6.578ZM43.3-6.07l-.867-.062a1.558,1.558,0,0,0-1.594.781V0H38.211V-8.453H40.68l.086,1.086a2.039,2.039,0,0,1,1.852-1.242,2.567,2.567,0,0,1,.734.094Z" transform="translate(873 2201)" fill="#12263f"/>
    <path id="Trazado_138152" data-name="Trazado 138152" d="M-33.461-2.93a1.626,1.626,0,0,0-.5-1.211,4.508,4.508,0,0,0-1.7-.891A5.447,5.447,0,0,1-38.09-6.355a2.921,2.921,0,0,1-.762-2.074,3,3,0,0,1,.746-2.1,3.17,3.17,0,0,1,2.051-.977v-1.711h1.164V-11.5a3.011,3.011,0,0,1,2.043,1.1,3.959,3.959,0,0,1,.73,2.523h-1.437a2.721,2.721,0,0,0-.523-1.756,1.72,1.72,0,0,0-1.414-.651,1.951,1.951,0,0,0-1.422.481,1.791,1.791,0,0,0-.492,1.342,1.636,1.636,0,0,0,.52,1.272,4.786,4.786,0,0,0,1.711.861,7.2,7.2,0,0,1,1.859.852,2.991,2.991,0,0,1,.984,1.082,3.128,3.128,0,0,1,.316,1.445A2.9,2.9,0,0,1-32.809-.82a3.516,3.516,0,0,1-2.223.953V1.625h-1.156V.133A3.369,3.369,0,0,1-38.465-.9a3.493,3.493,0,0,1-.824-2.449h1.445a2.3,2.3,0,0,0,.57,1.672,2.153,2.153,0,0,0,1.617.586,2.426,2.426,0,0,0,1.609-.492A1.662,1.662,0,0,0-33.461-2.93ZM-25.469,0h-1.453V-9.633l-2.914,1.07V-9.875L-25.7-11.43h.227Zm4.414-.758a.905.905,0,0,1,.223-.625.848.848,0,0,1,.668-.25.874.874,0,0,1,.676.25.887.887,0,0,1,.23.625.839.839,0,0,1-.23.6.89.89,0,0,1-.676.242.863.863,0,0,1-.668-.242A.855.855,0,0,1-21.055-.758ZM-9.57,0h-7.453V-1.039l3.938-4.375a9.354,9.354,0,0,0,1.207-1.613,2.693,2.693,0,0,0,.332-1.285,2.041,2.041,0,0,0-.539-1.461,1.885,1.885,0,0,0-1.437-.57A2.232,2.232,0,0,0-15.2-9.73a2.343,2.343,0,0,0-.6,1.707h-1.445a3.355,3.355,0,0,1,1.012-2.539,3.751,3.751,0,0,1,2.707-.969,3.6,3.6,0,0,1,2.508.832,2.838,2.838,0,0,1,.922,2.215q0,1.68-2.141,4l-3.047,3.3H-9.57ZM-.906-4.852a6.61,6.61,0,0,1-.867,3.773A3.084,3.084,0,0,1-4.484.156a3.107,3.107,0,0,1-2.7-1.207,6.274,6.274,0,0,1-.906-3.605v-1.93a6.463,6.463,0,0,1,.867-3.727A3.108,3.108,0,0,1-4.5-11.531a3.136,3.136,0,0,1,2.7,1.176A6.237,6.237,0,0,1-.906-6.727ZM-2.352-6.828A5.3,5.3,0,0,0-2.867-9.5a1.775,1.775,0,0,0-1.633-.84,1.751,1.751,0,0,0-1.617.836,5.171,5.171,0,0,0-.523,2.57v2.313A5.381,5.381,0,0,0-6.105-1.9a1.771,1.771,0,0,0,1.621.879,1.747,1.747,0,0,0,1.59-.828,5.186,5.186,0,0,0,.543-2.609ZM8.078-4.852a6.61,6.61,0,0,1-.867,3.773A3.084,3.084,0,0,1,4.5.156,3.107,3.107,0,0,1,1.8-1.051,6.274,6.274,0,0,1,.9-4.656v-1.93a6.463,6.463,0,0,1,.867-3.727,3.108,3.108,0,0,1,2.719-1.219,3.136,3.136,0,0,1,2.7,1.176,6.237,6.237,0,0,1,.891,3.629ZM6.633-6.828A5.3,5.3,0,0,0,6.117-9.5a1.775,1.775,0,0,0-1.633-.84,1.751,1.751,0,0,0-1.617.836,5.171,5.171,0,0,0-.523,2.57v2.313A5.381,5.381,0,0,0,2.879-1.9,1.771,1.771,0,0,0,4.5-1.023a1.747,1.747,0,0,0,1.59-.828,5.186,5.186,0,0,0,.543-2.609Zm3.477,6.07a.905.905,0,0,1,.223-.625A.848.848,0,0,1,11-1.633a.874.874,0,0,1,.676.25.887.887,0,0,1,.23.625.839.839,0,0,1-.23.6A.89.89,0,0,1,11,.086a.863.863,0,0,1-.668-.242A.855.855,0,0,1,10.109-.758ZM21.273-4.852a6.61,6.61,0,0,1-.867,3.773A3.084,3.084,0,0,1,17.7.156,3.107,3.107,0,0,1,15-1.051a6.274,6.274,0,0,1-.906-3.605v-1.93a6.463,6.463,0,0,1,.867-3.727,3.108,3.108,0,0,1,2.719-1.219,3.136,3.136,0,0,1,2.7,1.176,6.237,6.237,0,0,1,.891,3.629ZM19.828-6.828A5.3,5.3,0,0,0,19.313-9.5a1.775,1.775,0,0,0-1.633-.84,1.751,1.751,0,0,0-1.617.836,5.171,5.171,0,0,0-.523,2.57v2.313A5.381,5.381,0,0,0,16.074-1.9a1.771,1.771,0,0,0,1.621.879,1.747,1.747,0,0,0,1.59-.828,5.186,5.186,0,0,0,.543-2.609Zm10.43,1.977a6.61,6.61,0,0,1-.867,3.773A3.084,3.084,0,0,1,26.68.156a3.107,3.107,0,0,1-2.7-1.207,6.274,6.274,0,0,1-.906-3.605v-1.93a6.463,6.463,0,0,1,.867-3.727,3.108,3.108,0,0,1,2.719-1.219,3.136,3.136,0,0,1,2.7,1.176,6.237,6.237,0,0,1,.891,3.629ZM28.813-6.828A5.3,5.3,0,0,0,28.3-9.5a1.775,1.775,0,0,0-1.633-.84,1.751,1.751,0,0,0-1.617.836,5.171,5.171,0,0,0-.523,2.57v2.313A5.381,5.381,0,0,0,25.059-1.9a1.771,1.771,0,0,0,1.621.879,1.747,1.747,0,0,0,1.59-.828,5.186,5.186,0,0,0,.543-2.609Zm10.43,1.977a6.61,6.61,0,0,1-.867,3.773A3.084,3.084,0,0,1,35.664.156a3.107,3.107,0,0,1-2.7-1.207,6.274,6.274,0,0,1-.906-3.605v-1.93a6.463,6.463,0,0,1,.867-3.727,3.108,3.108,0,0,1,2.719-1.219,3.136,3.136,0,0,1,2.7,1.176,6.237,6.237,0,0,1,.891,3.629ZM37.8-6.828A5.3,5.3,0,0,0,37.281-9.5a1.775,1.775,0,0,0-1.633-.84,1.751,1.751,0,0,0-1.617.836,5.171,5.171,0,0,0-.523,2.57v2.313A5.381,5.381,0,0,0,34.043-1.9a1.771,1.771,0,0,0,1.621.879,1.747,1.747,0,0,0,1.59-.828A5.186,5.186,0,0,0,37.8-4.461Z" transform="translate(700 2247)" fill="#12263f"/>
    <path id="Trazado_138150" data-name="Trazado 138150" d="M0,0H400" transform="translate(600 2168)" fill="none" stroke="#12263f" stroke-width="1"/>
    <path id="Trazado_138146" data-name="Trazado 138146" d="M0,0H400" transform="translate(600 2217)" fill="none" stroke="#12263f" stroke-width="1"/>
    <path id="Trazado_138148" data-name="Trazado 138148" d="M0,0V102" transform="translate(800.5 2168.5)" fill="none" stroke="#12263f" stroke-width="1"/>
    <g id="Trazado_138144" data-name="Trazado 138144" transform="translate(600 2110)" fill="none">
      <path d="M10,0H390a10,10,0,0,1,10,10V150a10,10,0,0,1-10,10H10A10,10,0,0,1,0,150V10A10,10,0,0,1,10,0Z" stroke="none"/>
      <path d="M 10 3 C 6.14019775390625 3 3 6.140213012695312 3 10 L 3 150 C 3 153.8597869873047 6.14019775390625 157 10 157 L 390 157 C 393.8598022460938 157 397 153.8597869873047 397 150 L 397 10 C 397 6.140213012695312 393.8598022460938 3 390 3 L 10 3 M 10 0 L 390 0 C 395.5228271484375 0 400 4.477157592773438 400 10 L 400 150 C 400 155.5228424072266 395.5228271484375 160 390 160 L 10 160 C 4.4771728515625 160 0 155.5228424072266 0 150 L 0 10 C 0 4.477157592773438 4.4771728515625 0 10 0 Z" stroke="none" fill="#12263f"/>
    </g>
  </g>
</svg>
