<svg xmlns="http://www.w3.org/2000/svg" width="400" height="160.5" viewBox="0 0 400 160.5">
  <g id="Grupo_105827" data-name="Grupo 105827" transform="translate(-1020 -2110)">
    <path id="Trazado_138154" data-name="Trazado 138154" d="M10,0H390a10,10,0,0,1,10,10V150a10,10,0,0,1-10,10H10A10,10,0,0,1,0,150V10A10,10,0,0,1,10,0Z" transform="translate(1020 2110)" fill="#fff7df"/>
    <path id="Trazado_138161" data-name="Trazado 138161" d="M0,0H200V49H0Z" transform="translate(1020 2168)" fill="#85d161"/>
    <path id="Trazado_138156" data-name="Trazado 138156" d="M0,0H200V49H0Z" transform="translate(1220 2168)" fill="#fdab64"/>
    <path id="Trazado_138162" data-name="Trazado 138162" d="M-134.129,0h-2.641V-8.406l-2.594.758v-2l4.992-1.727h.242Zm5.836-6.789h1.242a1.291,1.291,0,0,0,1.477-1.445,1.25,1.25,0,0,0-.352-.918,1.333,1.333,0,0,0-.992-.355,1.427,1.427,0,0,0-.91.3.93.93,0,0,0-.387.758h-2.633a2.7,2.7,0,0,1,.5-1.6,3.3,3.3,0,0,1,1.387-1.1,4.741,4.741,0,0,1,1.949-.395,4.658,4.658,0,0,1,2.984.867,2.883,2.883,0,0,1,1.086,2.383,2.4,2.4,0,0,1-.449,1.387A3.2,3.2,0,0,1-124.7-5.844a3.058,3.058,0,0,1,1.422,1,2.623,2.623,0,0,1,.516,1.652,2.935,2.935,0,0,1-1.172,2.438,4.864,4.864,0,0,1-3.078.914,5.045,5.045,0,0,1-2.074-.426,3.25,3.25,0,0,1-1.449-1.18,3.067,3.067,0,0,1-.492-1.715h2.648a1.185,1.185,0,0,0,.422.906,1.489,1.489,0,0,0,1.039.383,1.56,1.56,0,0,0,1.109-.387,1.293,1.293,0,0,0,.414-.988,1.511,1.511,0,0,0-.43-1.219,1.8,1.8,0,0,0-1.187-.359h-1.281Zm14.531-1.547a2.626,2.626,0,0,1-.41,1.461A2.987,2.987,0,0,1-115.3-5.859a3.287,3.287,0,0,1,1.289,1.09,2.812,2.812,0,0,1,.477,1.637,2.977,2.977,0,0,1-1.051,2.406,4.364,4.364,0,0,1-2.895.883A4.443,4.443,0,0,1-120.4-.73a2.956,2.956,0,0,1-1.07-2.4A2.848,2.848,0,0,1-121-4.75a3.188,3.188,0,0,1,1.328-1.109,3,3,0,0,1-1.141-1.016,2.608,2.608,0,0,1-.414-1.461,2.919,2.919,0,0,1,1.008-2.344,4.051,4.051,0,0,1,2.719-.859,4.076,4.076,0,0,1,2.734.859A2.919,2.919,0,0,1-113.762-8.336Zm-2.414,4.992a1.5,1.5,0,0,0-.363-1.082A1.265,1.265,0,0,0-117.5-4.8a1.278,1.278,0,0,0-.961.379,1.492,1.492,0,0,0-.367,1.082,1.5,1.5,0,0,0,.371,1.074,1.274,1.274,0,0,0,.973.395,1.224,1.224,0,0,0,.945-.391A1.532,1.532,0,0,0-116.176-3.344ZM-117.5-9.508a.973.973,0,0,0-.809.348,1.509,1.509,0,0,0-.277.965,1.6,1.6,0,0,0,.281.984.97.97,0,0,0,.828.375.931.931,0,0,0,.809-.375,1.65,1.65,0,0,0,.27-.984,1.512,1.512,0,0,0-.277-.961A.986.986,0,0,0-117.5-9.508Zm13.234,4.859A5.431,5.431,0,0,1-105.3-1.094a3.577,3.577,0,0,1-2.918,1.25A3.6,3.6,0,0,1-111.16-1.1,5.423,5.423,0,0,1-112.2-4.648V-6.727a5.431,5.431,0,0,1,1.035-3.555,3.586,3.586,0,0,1,2.926-1.25,3.587,3.587,0,0,1,2.93,1.258,5.436,5.436,0,0,1,1.039,3.555ZM-106.9-7.062a4.057,4.057,0,0,0-.32-1.832,1.071,1.071,0,0,0-1.016-.605,1.045,1.045,0,0,0-.988.563,3.822,3.822,0,0,0-.332,1.7v2.906a4.088,4.088,0,0,0,.32,1.863,1.075,1.075,0,0,0,1.016.59,1.06,1.06,0,0,0,.992-.574,3.9,3.9,0,0,0,.328-1.8ZM-94.965,0H-102.9V-1.719l3.656-3.844a4.364,4.364,0,0,0,1.352-2.445,1.7,1.7,0,0,0-.32-1.117,1.144,1.144,0,0,0-.93-.383,1.158,1.158,0,0,0-.977.512,2.1,2.1,0,0,0-.375,1.277h-2.641a3.736,3.736,0,0,1,.523-1.934,3.671,3.671,0,0,1,1.453-1.387,4.317,4.317,0,0,1,2.078-.5,4.246,4.246,0,0,1,2.84.852,3.04,3.04,0,0,1,1,2.445,3.551,3.551,0,0,1-.25,1.309A5.739,5.739,0,0,1-96.273-5.6a19.581,19.581,0,0,1-1.7,1.871l-1.469,1.7h4.477Zm9.227-4.648a5.431,5.431,0,0,1-1.035,3.555A3.577,3.577,0,0,1-89.691.156,3.6,3.6,0,0,1-92.629-1.1a5.423,5.423,0,0,1-1.039-3.547V-6.727a5.431,5.431,0,0,1,1.035-3.555,3.586,3.586,0,0,1,2.926-1.25,3.587,3.587,0,0,1,2.93,1.258,5.436,5.436,0,0,1,1.039,3.555Zm-2.633-2.414a4.057,4.057,0,0,0-.32-1.832A1.071,1.071,0,0,0-89.707-9.5a1.045,1.045,0,0,0-.988.563,3.822,3.822,0,0,0-.332,1.7v2.906a4.088,4.088,0,0,0,.32,1.863,1.075,1.075,0,0,0,1.016.59,1.06,1.06,0,0,0,.992-.574,3.9,3.9,0,0,0,.328-1.8Zm11.6,5.188a1.171,1.171,0,0,0,.859-.3,1.1,1.1,0,0,0,.3-.84h2.469a2.922,2.922,0,0,1-1,2.281,3.705,3.705,0,0,1-2.566.891A3.751,3.751,0,0,1-79.613-1a4.556,4.556,0,0,1-1.062-3.2v-.109A5.149,5.149,0,0,1-80.2-6.574,3.441,3.441,0,0,1-78.84-8.082a4.065,4.065,0,0,1,2.109-.527,3.658,3.658,0,0,1,2.617.914,3.242,3.242,0,0,1,.969,2.477h-2.469a1.445,1.445,0,0,0-.32-1.008,1.106,1.106,0,0,0-.859-.352q-1.023,0-1.2,1.3a9.206,9.206,0,0,0-.055,1.141,3.616,3.616,0,0,0,.3,1.766A1.055,1.055,0,0,0-76.77-1.875ZM-67-.914A2.714,2.714,0,0,1-69.254.156a2.662,2.662,0,0,1-2.105-.809,3.4,3.4,0,0,1-.715-2.324V-8.453h2.633v5.492a.946.946,0,0,0,1.055,1.086A1.376,1.376,0,0,0-67.1-2.523v-5.93h2.648V0h-2.469Zm8.078,1.07A4.345,4.345,0,0,1-62.066-1a4.006,4.006,0,0,1-1.2-3.02v-.219a5.191,5.191,0,0,1,.48-2.289,3.516,3.516,0,0,1,1.4-1.535A4.233,4.233,0,0,1-59.2-8.609,3.659,3.659,0,0,1-56.387-7.5a4.344,4.344,0,0,1,1.031,3.082V-3.4H-60.59a1.9,1.9,0,0,0,.617,1.117,1.836,1.836,0,0,0,1.234.406,2.366,2.366,0,0,0,1.953-.875l1.2,1.422A3.363,3.363,0,0,1-56.977-.246,4.713,4.713,0,0,1-58.918.156Zm-.3-6.734q-1.156,0-1.375,1.531h2.656v-.2a1.3,1.3,0,0,0-.32-.98A1.275,1.275,0,0,0-59.215-6.578Zm7.336-1.875.086.992a2.867,2.867,0,0,1,2.414-1.148,2.412,2.412,0,0,1,1.973.789,3.757,3.757,0,0,1,.676,2.375V0h-2.641V-5.336a1.426,1.426,0,0,0-.258-.941,1.193,1.193,0,0,0-.937-.3,1.256,1.256,0,0,0-1.148.609V0h-2.633V-8.453Zm9.672-2.1v2.1h1.391v1.828h-1.391v3.867a.987.987,0,0,0,.172.664.922.922,0,0,0,.68.188,3.862,3.862,0,0,0,.656-.047V-.07a4.859,4.859,0,0,1-1.484.227,2.758,2.758,0,0,1-2.008-.641A2.626,2.626,0,0,1-44.84-2.43v-4.2h-1.078V-8.453h1.078v-2.1ZM-35.02,0a2.973,2.973,0,0,1-.25-.758A2.448,2.448,0,0,1-37.3.156a3,3,0,0,1-2.031-.723,2.3,2.3,0,0,1-.836-1.816,2.364,2.364,0,0,1,1.016-2.078,5.174,5.174,0,0,1,2.953-.7h.813v-.448q0-1.17-1.008-1.17a.824.824,0,0,0-.937.926h-2.633a2.36,2.36,0,0,1,1.043-1.99,4.383,4.383,0,0,1,2.66-.765,3.843,3.843,0,0,1,2.555.789,2.743,2.743,0,0,1,.961,2.164v3.742a3.832,3.832,0,0,0,.359,1.781V0Zm-1.648-1.719a1.469,1.469,0,0,0,.816-.211,1.322,1.322,0,0,0,.465-.477V-3.758h-.766q-1.375,0-1.375,1.234a.754.754,0,0,0,.242.582A.876.876,0,0,0-36.668-1.719Zm9.8-.656a.608.608,0,0,0-.352-.539,5.348,5.348,0,0,0-1.336-.422,6.092,6.092,0,0,1-1.625-.574,2.722,2.722,0,0,1-.977-.863,2.061,2.061,0,0,1-.336-1.164,2.336,2.336,0,0,1,.961-1.918,3.958,3.958,0,0,1,2.516-.754,4.386,4.386,0,0,1,2.688.758,2.37,2.37,0,0,1,1.016,1.992h-2.641q0-1.016-1.07-1.016a1.061,1.061,0,0,0-.7.23A.714.714,0,0,0-29-6.07a.655.655,0,0,0,.344.57,3.248,3.248,0,0,0,1.1.359A9.486,9.486,0,0,1-26.23-4.8a2.406,2.406,0,0,1,1.906,2.352A2.214,2.214,0,0,1-25.352-.57a4.505,4.505,0,0,1-2.66.727,4.6,4.6,0,0,1-1.937-.391A3.24,3.24,0,0,1-31.277-1.3a2.406,2.406,0,0,1-.477-1.414h2.461a1.017,1.017,0,0,0,.391.855,1.607,1.607,0,0,0,.961.27,1.264,1.264,0,0,0,.809-.219A.7.7,0,0,0-26.863-2.375Zm15.6-1.789a5.1,5.1,0,0,1-.887,3.145A2.843,2.843,0,0,1-14.543.156,2.437,2.437,0,0,1-16.457-.7V3.25H-19.09v-11.7h2.461l.078.781a2.437,2.437,0,0,1,1.992-.937,2.866,2.866,0,0,1,2.43,1.152,5.16,5.16,0,0,1,.867,3.168Zm-2.633-.164q0-2.25-1.312-2.25a1.239,1.239,0,0,0-1.25.672v3.328a1.279,1.279,0,0,0,1.266.7q1.258,0,1.3-2.172Zm3.461.023a4.989,4.989,0,0,1,.492-2.254,3.52,3.52,0,0,1,1.414-1.52,4.259,4.259,0,0,1,2.164-.531A3.887,3.887,0,0,1-3.371-7.434a4.512,4.512,0,0,1,1.094,3.2v.094A4.378,4.378,0,0,1-3.375-1,3.9,3.9,0,0,1-6.348.156a3.942,3.942,0,0,1-2.9-1.082,4.232,4.232,0,0,1-1.18-2.934Zm2.633.164a3.145,3.145,0,0,0,.367,1.719,1.223,1.223,0,0,0,1.086.547q1.406,0,1.438-2.164V-4.3q0-2.273-1.453-2.273-1.32,0-1.43,1.961ZM4-6.07l-.867-.062a1.558,1.558,0,0,0-1.594.781V0H-1.1V-8.453H1.371l.086,1.086A2.039,2.039,0,0,1,3.309-8.609a2.567,2.567,0,0,1,.734.094Zm8.508,4.2a1.171,1.171,0,0,0,.859-.3,1.1,1.1,0,0,0,.3-.84h2.469a2.922,2.922,0,0,1-1,2.281,3.705,3.705,0,0,1-2.566.891A3.751,3.751,0,0,1,9.66-1,4.556,4.556,0,0,1,8.6-4.2v-.109A5.149,5.149,0,0,1,9.07-6.574a3.441,3.441,0,0,1,1.363-1.508,4.065,4.065,0,0,1,2.109-.527A3.658,3.658,0,0,1,15.16-7.7a3.242,3.242,0,0,1,.969,2.477H13.66a1.445,1.445,0,0,0-.32-1.008,1.106,1.106,0,0,0-.859-.352q-1.023,0-1.2,1.3a9.206,9.206,0,0,0-.055,1.141,3.616,3.616,0,0,0,.3,1.766A1.055,1.055,0,0,0,12.5-1.875ZM16.91-4.3A4.989,4.989,0,0,1,17.4-6.559a3.52,3.52,0,0,1,1.414-1.52,4.259,4.259,0,0,1,2.164-.531,3.887,3.887,0,0,1,2.992,1.176,4.512,4.512,0,0,1,1.094,3.2v.094A4.378,4.378,0,0,1,23.969-1,3.9,3.9,0,0,1,21,.156,3.942,3.942,0,0,1,18.1-.926a4.232,4.232,0,0,1-1.18-2.934Zm2.633.164a3.145,3.145,0,0,0,.367,1.719A1.223,1.223,0,0,0,21-1.875q1.406,0,1.438-2.164V-4.3q0-2.273-1.453-2.273-1.32,0-1.43,1.961Zm14.531-.016a5.152,5.152,0,0,1-.859,3.2A2.878,2.878,0,0,1,30.793.156,2.5,2.5,0,0,1,28.715-.867L28.605,0H26.246V-12h2.633v4.227a2.41,2.41,0,0,1,1.9-.836,2.879,2.879,0,0,1,2.438,1.133,5.179,5.179,0,0,1,.859,3.188Zm-2.641-.168a3.437,3.437,0,0,0-.324-1.735,1.093,1.093,0,0,0-1-.519,1.261,1.261,0,0,0-1.234.679v3.354a1.268,1.268,0,0,0,1.25.671,1.118,1.118,0,0,0,1.18-.9A6.5,6.5,0,0,0,31.434-4.324ZM40.348-6.07l-.867-.062a1.558,1.558,0,0,0-1.594.781V0H35.254V-8.453h2.469l.086,1.086A2.039,2.039,0,0,1,39.66-8.609a2.567,2.567,0,0,1,.734.094ZM45.824,0a2.973,2.973,0,0,1-.25-.758,2.448,2.448,0,0,1-2.031.914,3,3,0,0,1-2.031-.723,2.3,2.3,0,0,1-.836-1.816,2.364,2.364,0,0,1,1.016-2.078,5.174,5.174,0,0,1,2.953-.7h.813v-.448q0-1.17-1.008-1.17a.824.824,0,0,0-.937.926H40.879a2.36,2.36,0,0,1,1.043-1.99,4.383,4.383,0,0,1,2.66-.765,3.843,3.843,0,0,1,2.555.789A2.743,2.743,0,0,1,48.1-5.656v3.742a3.832,3.832,0,0,0,.359,1.781V0ZM44.176-1.719a1.469,1.469,0,0,0,.816-.211,1.322,1.322,0,0,0,.465-.477V-3.758h-.766q-1.375,0-1.375,1.234a.754.754,0,0,0,.242.582A.876.876,0,0,0,44.176-1.719ZM54.668-6.07,53.8-6.133a1.558,1.558,0,0,0-1.594.781V0H49.574V-8.453h2.469l.086,1.086A2.039,2.039,0,0,1,53.98-8.609a2.567,2.567,0,0,1,.734.094Zm4.6,1.781a5.164,5.164,0,0,1,.867-3.164,2.854,2.854,0,0,1,2.422-1.156,2.428,2.428,0,0,1,1.906.891V-12h2.641V0H64.738l-.133-.906A2.493,2.493,0,0,1,62.543.156,2.849,2.849,0,0,1,60.152-1,5.327,5.327,0,0,1,59.27-4.289Zm2.633.164q0,2.25,1.313,2.25a1.3,1.3,0,0,0,1.25-.734V-5.828a1.261,1.261,0,0,0-1.234-.75q-1.219,0-1.32,1.969ZM72.691.156A4.345,4.345,0,0,1,69.543-1a4.006,4.006,0,0,1-1.2-3.02v-.219a5.191,5.191,0,0,1,.48-2.289,3.516,3.516,0,0,1,1.4-1.535,4.233,4.233,0,0,1,2.188-.543A3.659,3.659,0,0,1,75.223-7.5a4.344,4.344,0,0,1,1.031,3.082V-3.4H71.02a1.9,1.9,0,0,0,.617,1.117,1.836,1.836,0,0,0,1.234.406,2.366,2.366,0,0,0,1.953-.875l1.2,1.422A3.363,3.363,0,0,1,74.633-.246,4.713,4.713,0,0,1,72.691.156Zm-.3-6.734q-1.156,0-1.375,1.531h2.656v-.2a1.3,1.3,0,0,0-.32-.98A1.275,1.275,0,0,0,72.395-6.578Zm11.969-3.977v2.1h1.391v1.828H84.363v3.867a.987.987,0,0,0,.172.664.922.922,0,0,0,.68.188,3.862,3.862,0,0,0,.656-.047V-.07a4.859,4.859,0,0,1-1.484.227,2.758,2.758,0,0,1-2.008-.641A2.626,2.626,0,0,1,81.73-2.43v-4.2H80.652V-8.453H81.73v-2.1ZM90.879.156A4.345,4.345,0,0,1,87.73-1a4.006,4.006,0,0,1-1.2-3.02v-.219a5.191,5.191,0,0,1,.48-2.289,3.516,3.516,0,0,1,1.4-1.535A4.233,4.233,0,0,1,90.6-8.609,3.659,3.659,0,0,1,93.41-7.5a4.344,4.344,0,0,1,1.031,3.082V-3.4H89.207a1.9,1.9,0,0,0,.617,1.117,1.836,1.836,0,0,0,1.234.406,2.366,2.366,0,0,0,1.953-.875l1.2,1.422A3.363,3.363,0,0,1,92.82-.246,4.713,4.713,0,0,1,90.879.156Zm-.3-6.734q-1.156,0-1.375,1.531h2.656v-.2a1.3,1.3,0,0,0-.32-.98A1.275,1.275,0,0,0,90.582-6.578Zm10.031.508-.867-.062a1.558,1.558,0,0,0-1.594.781V0H95.52V-8.453h2.469l.086,1.086a2.039,2.039,0,0,1,1.852-1.242,2.567,2.567,0,0,1,.734.094Zm4.375,4.2a1.171,1.171,0,0,0,.859-.3,1.1,1.1,0,0,0,.3-.84h2.469a2.922,2.922,0,0,1-1,2.281,3.705,3.705,0,0,1-2.566.891A3.751,3.751,0,0,1,102.145-1a4.556,4.556,0,0,1-1.062-3.2v-.109a5.149,5.149,0,0,1,.473-2.262,3.441,3.441,0,0,1,1.363-1.508,4.065,4.065,0,0,1,2.109-.527,3.658,3.658,0,0,1,2.617.914,3.242,3.242,0,0,1,.969,2.477h-2.469a1.445,1.445,0,0,0-.32-1.008,1.106,1.106,0,0,0-.859-.352q-1.023,0-1.2,1.3a9.206,9.206,0,0,0-.055,1.141,3.616,3.616,0,0,0,.3,1.766A1.055,1.055,0,0,0,104.988-1.875ZM113.816.156A4.345,4.345,0,0,1,110.668-1a4.006,4.006,0,0,1-1.2-3.02v-.219a5.191,5.191,0,0,1,.48-2.289,3.516,3.516,0,0,1,1.4-1.535,4.233,4.233,0,0,1,2.188-.543A3.659,3.659,0,0,1,116.348-7.5a4.344,4.344,0,0,1,1.031,3.082V-3.4h-5.234a1.9,1.9,0,0,0,.617,1.117A1.836,1.836,0,0,0,114-1.875a2.366,2.366,0,0,0,1.953-.875l1.2,1.422a3.363,3.363,0,0,1-1.395,1.082A4.713,4.713,0,0,1,113.816.156Zm-.3-6.734q-1.156,0-1.375,1.531H114.8v-.2a1.3,1.3,0,0,0-.32-.98A1.275,1.275,0,0,0,113.52-6.578Zm10.031.508-.867-.062a1.558,1.558,0,0,0-1.594.781V0h-2.633V-8.453h2.469l.086,1.086a2.039,2.039,0,0,1,1.852-1.242,2.567,2.567,0,0,1,.734.094Zm.336,1.766a4.989,4.989,0,0,1,.492-2.254,3.52,3.52,0,0,1,1.414-1.52,4.259,4.259,0,0,1,2.164-.531,3.887,3.887,0,0,1,2.992,1.176,4.512,4.512,0,0,1,1.094,3.2v.094A4.378,4.378,0,0,1,130.945-1a3.9,3.9,0,0,1-2.973,1.16,3.942,3.942,0,0,1-2.9-1.082,4.232,4.232,0,0,1-1.18-2.934Zm2.633.164a3.145,3.145,0,0,0,.367,1.719,1.223,1.223,0,0,0,1.086.547q1.406,0,1.438-2.164V-4.3q0-2.273-1.453-2.273-1.32,0-1.43,1.961Zm11.109,1.766a.608.608,0,0,0-.352-.539,5.348,5.348,0,0,0-1.336-.422,6.092,6.092,0,0,1-1.625-.574,2.722,2.722,0,0,1-.977-.863A2.061,2.061,0,0,1,133-5.937a2.336,2.336,0,0,1,.961-1.918,3.958,3.958,0,0,1,2.516-.754,4.386,4.386,0,0,1,2.688.758,2.37,2.37,0,0,1,1.016,1.992h-2.641q0-1.016-1.07-1.016a1.061,1.061,0,0,0-.7.23.714.714,0,0,0-.281.574.655.655,0,0,0,.344.57,3.248,3.248,0,0,0,1.1.359,9.485,9.485,0,0,1,1.324.336,2.406,2.406,0,0,1,1.906,2.352A2.214,2.214,0,0,1,139.141-.57a4.505,4.505,0,0,1-2.66.727,4.6,4.6,0,0,1-1.937-.391A3.24,3.24,0,0,1,133.215-1.3a2.406,2.406,0,0,1-.477-1.414H135.2a1.017,1.017,0,0,0,.391.855,1.607,1.607,0,0,0,.961.27,1.264,1.264,0,0,0,.809-.219A.7.7,0,0,0,137.629-2.375Z" transform="translate(1221 2147)" fill="#12263f"/>
    <path id="Trazado_138164" data-name="Trazado 138164" d="M.859,0V-11.375H4.523a5.39,5.39,0,0,1,2.711.684,4.805,4.805,0,0,1,1.879,1.93A5.826,5.826,0,0,1,9.8-5.969v.523a5.86,5.86,0,0,1-.66,2.8A4.826,4.826,0,0,1,7.277-.707,5.271,5.271,0,0,1,4.6,0ZM3.6-9.258v7.148h.953a2.133,2.133,0,0,0,1.813-.84A4.116,4.116,0,0,0,7-5.445v-.492a4.082,4.082,0,0,0-.633-2.484,2.17,2.17,0,0,0-1.844-.836ZM15.172.156A4.345,4.345,0,0,1,12.023-1a4.006,4.006,0,0,1-1.2-3.02v-.219a5.191,5.191,0,0,1,.48-2.289,3.516,3.516,0,0,1,1.4-1.535,4.233,4.233,0,0,1,2.188-.543A3.659,3.659,0,0,1,17.7-7.5a4.344,4.344,0,0,1,1.031,3.082V-3.4H13.5a1.9,1.9,0,0,0,.617,1.117,1.836,1.836,0,0,0,1.234.406A2.366,2.366,0,0,0,17.3-2.75l1.2,1.422A3.363,3.363,0,0,1,17.113-.246,4.713,4.713,0,0,1,15.172.156Zm-.3-6.734q-1.156,0-1.375,1.531h2.656v-.2a1.3,1.3,0,0,0-.32-.98A1.275,1.275,0,0,0,14.875-6.578ZM27.641-4.156a5.152,5.152,0,0,1-.859,3.2A2.878,2.878,0,0,1,24.359.156,2.5,2.5,0,0,1,22.281-.867L22.172,0H19.813V-12h2.633v4.227a2.41,2.41,0,0,1,1.9-.836,2.879,2.879,0,0,1,2.438,1.133,5.179,5.179,0,0,1,.859,3.188ZM25-4.324a3.437,3.437,0,0,0-.324-1.735,1.093,1.093,0,0,0-1-.519,1.261,1.261,0,0,0-1.234.679v3.354a1.268,1.268,0,0,0,1.25.671,1.118,1.118,0,0,0,1.18-.9A6.5,6.5,0,0,0,25-4.324ZM32.891.156A4.345,4.345,0,0,1,29.742-1a4.006,4.006,0,0,1-1.2-3.02v-.219a5.191,5.191,0,0,1,.48-2.289,3.516,3.516,0,0,1,1.4-1.535,4.233,4.233,0,0,1,2.188-.543A3.659,3.659,0,0,1,35.422-7.5a4.344,4.344,0,0,1,1.031,3.082V-3.4H31.219a1.9,1.9,0,0,0,.617,1.117,1.836,1.836,0,0,0,1.234.406,2.366,2.366,0,0,0,1.953-.875l1.2,1.422A3.363,3.363,0,0,1,34.832-.246,4.713,4.713,0,0,1,32.891.156Zm-.3-6.734q-1.156,0-1.375,1.531h2.656v-.2a1.3,1.3,0,0,0-.32-.98A1.275,1.275,0,0,0,32.594-6.578Z" transform="translate(1105 2201)" fill="#12263f"/>
    <path id="Trazado_138158" data-name="Trazado 138158" d="M10.367,0H7.641V-4.75H3.6V0H.859V-11.375H3.6v4.516H7.641v-4.516h2.727Zm6.375,0a2.973,2.973,0,0,1-.25-.758,2.448,2.448,0,0,1-2.031.914A3,3,0,0,1,12.43-.566a2.3,2.3,0,0,1-.836-1.816,2.364,2.364,0,0,1,1.016-2.078,5.174,5.174,0,0,1,2.953-.7h.813v-.448q0-1.17-1.008-1.17a.824.824,0,0,0-.937.926H11.8a2.36,2.36,0,0,1,1.043-1.99,4.383,4.383,0,0,1,2.66-.765,3.843,3.843,0,0,1,2.555.789,2.743,2.743,0,0,1,.961,2.164v3.742a3.832,3.832,0,0,0,.359,1.781V0ZM15.094-1.719a1.469,1.469,0,0,0,.816-.211,1.322,1.322,0,0,0,.465-.477V-3.758h-.766q-1.375,0-1.375,1.234a.754.754,0,0,0,.242.582A.876.876,0,0,0,15.094-1.719ZM28.32-4.156a5.152,5.152,0,0,1-.859,3.2A2.878,2.878,0,0,1,25.039.156,2.5,2.5,0,0,1,22.961-.867L22.852,0H20.492V-12h2.633v4.227a2.41,2.41,0,0,1,1.9-.836,2.879,2.879,0,0,1,2.438,1.133,5.179,5.179,0,0,1,.859,3.188ZM25.68-4.324a3.437,3.437,0,0,0-.324-1.735,1.093,1.093,0,0,0-1-.519,1.261,1.261,0,0,0-1.234.679v3.354a1.268,1.268,0,0,0,1.25.671,1.118,1.118,0,0,0,1.18-.9A6.5,6.5,0,0,0,25.68-4.324ZM33.57.156A4.345,4.345,0,0,1,30.422-1a4.006,4.006,0,0,1-1.2-3.02v-.219a5.191,5.191,0,0,1,.48-2.289,3.516,3.516,0,0,1,1.4-1.535,4.233,4.233,0,0,1,2.188-.543A3.659,3.659,0,0,1,36.1-7.5a4.344,4.344,0,0,1,1.031,3.082V-3.4H31.9a1.9,1.9,0,0,0,.617,1.117,1.836,1.836,0,0,0,1.234.406A2.366,2.366,0,0,0,35.7-2.75l1.2,1.422A3.363,3.363,0,0,1,35.512-.246,4.713,4.713,0,0,1,33.57.156Zm-.3-6.734q-1.156,0-1.375,1.531h2.656v-.2a1.3,1.3,0,0,0-.32-.98A1.275,1.275,0,0,0,33.273-6.578ZM43.3-6.07l-.867-.062a1.558,1.558,0,0,0-1.594.781V0H38.211V-8.453H40.68l.086,1.086a2.039,2.039,0,0,1,1.852-1.242,2.567,2.567,0,0,1,.734.094Z" transform="translate(1293 2201)" fill="#12263f"/>
    <path id="Trazado_138163" data-name="Trazado 138163" d="M-26.863-2.93a1.626,1.626,0,0,0-.5-1.211,4.508,4.508,0,0,0-1.7-.891,5.447,5.447,0,0,1-2.426-1.324,2.921,2.921,0,0,1-.762-2.074,3,3,0,0,1,.746-2.1,3.17,3.17,0,0,1,2.051-.977v-1.711h1.164V-11.5a3.011,3.011,0,0,1,2.043,1.1,3.959,3.959,0,0,1,.73,2.523h-1.437a2.721,2.721,0,0,0-.523-1.756,1.72,1.72,0,0,0-1.414-.651,1.951,1.951,0,0,0-1.422.481,1.791,1.791,0,0,0-.492,1.342,1.636,1.636,0,0,0,.52,1.272,4.786,4.786,0,0,0,1.711.861,7.2,7.2,0,0,1,1.859.852,2.991,2.991,0,0,1,.984,1.082,3.128,3.128,0,0,1,.316,1.445A2.9,2.9,0,0,1-26.211-.82a3.516,3.516,0,0,1-2.223.953V1.625H-29.59V.133A3.369,3.369,0,0,1-31.867-.9a3.493,3.493,0,0,1-.824-2.449h1.445a2.3,2.3,0,0,0,.57,1.672,2.153,2.153,0,0,0,1.617.586,2.426,2.426,0,0,0,1.609-.492A1.662,1.662,0,0,0-26.863-2.93Zm10.586-7.633L-20.988,0H-22.5l4.7-10.187h-6.156v-1.187h7.688ZM-7.5-4.852a6.61,6.61,0,0,1-.867,3.773A3.084,3.084,0,0,1-11.082.156a3.107,3.107,0,0,1-2.7-1.207,6.274,6.274,0,0,1-.906-3.605v-1.93a6.463,6.463,0,0,1,.867-3.727A3.108,3.108,0,0,1-11.1-11.531a3.136,3.136,0,0,1,2.7,1.176A6.237,6.237,0,0,1-7.5-6.727ZM-8.949-6.828A5.3,5.3,0,0,0-9.465-9.5a1.775,1.775,0,0,0-1.633-.84,1.751,1.751,0,0,0-1.617.836,5.171,5.171,0,0,0-.523,2.57v2.313A5.381,5.381,0,0,0-12.7-1.9a1.771,1.771,0,0,0,1.621.879,1.747,1.747,0,0,0,1.59-.828,5.186,5.186,0,0,0,.543-2.609ZM1.48-4.852A6.61,6.61,0,0,1,.613-1.078,3.084,3.084,0,0,1-2.1.156a3.107,3.107,0,0,1-2.7-1.207A6.274,6.274,0,0,1-5.7-4.656v-1.93a6.463,6.463,0,0,1,.867-3.727,3.108,3.108,0,0,1,2.719-1.219,3.136,3.136,0,0,1,2.7,1.176A6.237,6.237,0,0,1,1.48-6.727ZM.035-6.828A5.3,5.3,0,0,0-.48-9.5a1.775,1.775,0,0,0-1.633-.84,1.751,1.751,0,0,0-1.617.836,5.171,5.171,0,0,0-.523,2.57v2.313A5.381,5.381,0,0,0-3.719-1.9,1.771,1.771,0,0,0-2.1-1.023a1.747,1.747,0,0,0,1.59-.828A5.186,5.186,0,0,0,.035-4.461ZM3.512-.758a.905.905,0,0,1,.223-.625.848.848,0,0,1,.668-.25.874.874,0,0,1,.676.25.887.887,0,0,1,.23.625.839.839,0,0,1-.23.6A.89.89,0,0,1,4.4.086a.863.863,0,0,1-.668-.242A.855.855,0,0,1,3.512-.758ZM14.676-4.852a6.61,6.61,0,0,1-.867,3.773A3.084,3.084,0,0,1,11.1.156,3.107,3.107,0,0,1,8.4-1.051,6.274,6.274,0,0,1,7.5-4.656v-1.93a6.463,6.463,0,0,1,.867-3.727,3.108,3.108,0,0,1,2.719-1.219,3.136,3.136,0,0,1,2.7,1.176,6.237,6.237,0,0,1,.891,3.629ZM13.23-6.828A5.3,5.3,0,0,0,12.715-9.5a1.775,1.775,0,0,0-1.633-.84,1.751,1.751,0,0,0-1.617.836,5.171,5.171,0,0,0-.523,2.57v2.313A5.381,5.381,0,0,0,9.477-1.9a1.771,1.771,0,0,0,1.621.879,1.747,1.747,0,0,0,1.59-.828,5.186,5.186,0,0,0,.543-2.609ZM23.66-4.852a6.61,6.61,0,0,1-.867,3.773A3.084,3.084,0,0,1,20.082.156a3.107,3.107,0,0,1-2.7-1.207,6.274,6.274,0,0,1-.906-3.605v-1.93a6.463,6.463,0,0,1,.867-3.727,3.108,3.108,0,0,1,2.719-1.219,3.136,3.136,0,0,1,2.7,1.176,6.237,6.237,0,0,1,.891,3.629ZM22.215-6.828A5.3,5.3,0,0,0,21.7-9.5a1.775,1.775,0,0,0-1.633-.84,1.751,1.751,0,0,0-1.617.836,5.171,5.171,0,0,0-.523,2.57v2.313A5.381,5.381,0,0,0,18.461-1.9a1.771,1.771,0,0,0,1.621.879,1.747,1.747,0,0,0,1.59-.828,5.186,5.186,0,0,0,.543-2.609Zm10.43,1.977a6.61,6.61,0,0,1-.867,3.773A3.084,3.084,0,0,1,29.066.156a3.107,3.107,0,0,1-2.7-1.207,6.274,6.274,0,0,1-.906-3.605v-1.93a6.463,6.463,0,0,1,.867-3.727,3.108,3.108,0,0,1,2.719-1.219,3.136,3.136,0,0,1,2.7,1.176,6.237,6.237,0,0,1,.891,3.629ZM31.2-6.828A5.3,5.3,0,0,0,30.684-9.5a1.775,1.775,0,0,0-1.633-.84,1.751,1.751,0,0,0-1.617.836,5.171,5.171,0,0,0-.523,2.57v2.313A5.381,5.381,0,0,0,27.445-1.9a1.771,1.771,0,0,0,1.621.879,1.747,1.747,0,0,0,1.59-.828A5.186,5.186,0,0,0,31.2-4.461Z" transform="translate(1123 2247)" fill="#12263f"/>
    <path id="Trazado_138159" data-name="Trazado 138159" d="M0,0H400" transform="translate(1020 2168)" fill="none" stroke="#12263f" stroke-width="1"/>
    <path id="Trazado_138157" data-name="Trazado 138157" d="M0,0H400" transform="translate(1020 2217)" fill="none" stroke="#12263f" stroke-width="1"/>
    <path id="Trazado_138160" data-name="Trazado 138160" d="M0,0V102" transform="translate(1220.5 2168.5)" fill="none" stroke="#12263f" stroke-width="1"/>
    <g id="Trazado_138155" data-name="Trazado 138155" transform="translate(1020 2110)" fill="none">
      <path d="M10,0H390a10,10,0,0,1,10,10V150a10,10,0,0,1-10,10H10A10,10,0,0,1,0,150V10A10,10,0,0,1,10,0Z" stroke="none"/>
      <path d="M 10 3 C 6.14019775390625 3 3 6.140213012695312 3 10 L 3 150 C 3 153.8597869873047 6.14019775390625 157 10 157 L 390 157 C 393.8598022460938 157 397 153.8597869873047 397 150 L 397 10 C 397 6.140213012695312 393.8598022460938 3 390 3 L 10 3 M 10 0 L 390 0 C 395.5228271484375 0 400 4.477157592773438 400 10 L 400 150 C 400 155.5228424072266 395.5228271484375 160 390 160 L 10 160 C 4.4771728515625 160 0 155.5228424072266 0 150 L 0 10 C 0 4.477157592773438 4.4771728515625 0 10 0 Z" stroke="none" fill="#12263f"/>
    </g>
  </g>
</svg>
