<svg xmlns="http://www.w3.org/2000/svg" width="382.333" height="456.702" viewBox="0 0 382.333 456.702">
  <g id="Grupo_105836" data-name="Grupo 105836" transform="translate(-194 -3697.298)">
    <g id="Grupo_102914" data-name="Grupo 102914" transform="translate(242.094 3770.143)">
      <g id="Grupo_102904" data-name="Grupo 102904">
        <g id="Grupo_102903" data-name="Grupo 102903">
          <g id="Grupo_102902" data-name="Grupo 102902">
            <path id="Trazado_133343" data-name="Trazado 133343" d="M200.381,139.045H148.354a4.1,4.1,0,0,0-4.1,4.1v34.475a4.1,4.1,0,0,0,4.1,4.1h27.4l13.023,13.023V181.721h11.606a3.041,3.041,0,0,0,3.041-3.04v-36.6A3.041,3.041,0,0,0,200.381,139.045Z" transform="translate(-144.252 -139.045)" fill="#feefbf"/>
          </g>
        </g>
      </g>
      <g id="Grupo_102907" data-name="Grupo 102907" transform="translate(38.867 18.999)">
        <g id="Grupo_102906" data-name="Grupo 102906">
          <g id="Grupo_102905" data-name="Grupo 102905">
            <circle id="Elipse_5265" data-name="Elipse 5265" cx="3.062" cy="3.062" r="3.062" fill="#fafafa"/>
          </g>
        </g>
      </g>
      <g id="Grupo_102910" data-name="Grupo 102910" transform="translate(26.758 19)">
        <g id="Grupo_102909" data-name="Grupo 102909">
          <g id="Grupo_102908" data-name="Grupo 102908">
            <path id="Trazado_133344" data-name="Trazado 133344" d="M166.561,157.947a3.062,3.062,0,1,0,3.062-3.061A3.062,3.062,0,0,0,166.561,157.947Z" transform="translate(-166.561 -154.886)" fill="#fafafa"/>
          </g>
        </g>
      </g>
      <g id="Grupo_102913" data-name="Grupo 102913" transform="translate(14.65 18.999)">
        <g id="Grupo_102912" data-name="Grupo 102912">
          <g id="Grupo_102911" data-name="Grupo 102911">
            <circle id="Elipse_5266" data-name="Elipse 5266" cx="3.062" cy="3.062" r="3.062" fill="#fafafa"/>
          </g>
        </g>
      </g>
    </g>
    <g id="Grupo_102940" data-name="Grupo 102940" transform="translate(279.706 4018.068)">
      <g id="Grupo_102915" data-name="Grupo 102915" transform="translate(0 0)">
        <path id="Trazado_133345" data-name="Trazado 133345" d="M341.308,481.682,304.692,346.8,195.735,345.75c-10.765,39.23-17.216,89.289-20.124,135.932" transform="translate(-175.611 -345.75)" fill="#85d161"/>
      </g>
      <g id="Grupo_102917" data-name="Grupo 102917" transform="translate(44.751 86.83)">
        <g id="Grupo_102916" data-name="Grupo 102916">
          <path id="Trazado_133346" data-name="Trazado 133346" d="M212.923,431.1a12.972,12.972,0,0,0,3.442,1.335,8.049,8.049,0,0,0,8.757-11.28,12.972,12.972,0,0,0-2.147-3,2.724,2.724,0,0,1,.841.587,7.638,7.638,0,0,1,1.7,2.226,8.17,8.17,0,0,1,.9,4.076,8.347,8.347,0,0,1-5.969,7.689,8.169,8.169,0,0,1-4.17.139,7.624,7.624,0,0,1-2.579-1.1C213.157,431.384,212.9,431.123,212.923,431.1Z" transform="translate(-212.922 -418.144)" fill="#fafafa"/>
        </g>
      </g>
      <g id="Grupo_102919" data-name="Grupo 102919" transform="translate(76.85 65.642)">
        <g id="Grupo_102918" data-name="Grupo 102918">
          <path id="Trazado_133347" data-name="Trazado 133347" d="M244.138,401.4a3.283,3.283,0,0,0-2.019-.47,2.23,2.23,0,0,0-1.644,1.283,2.155,2.155,0,0,0,2.85,2.85,2.23,2.23,0,0,0,1.283-1.644,3.279,3.279,0,0,0-.47-2.019c.024-.026.225.084.471.411a2.429,2.429,0,0,1,.435,1.666,2.638,2.638,0,0,1-1.475,2.107,2.707,2.707,0,0,1-3.616-3.616,2.642,2.642,0,0,1,2.107-1.476,2.436,2.436,0,0,1,1.666.437C244.054,401.172,244.164,401.374,244.138,401.4Z" transform="translate(-239.684 -400.478)" fill="#fafafa"/>
        </g>
      </g>
      <g id="Grupo_102921" data-name="Grupo 102921" transform="translate(98.558 119.986)">
        <g id="Grupo_102920" data-name="Grupo 102920">
          <path id="Trazado_133348" data-name="Trazado 133348" d="M262.237,446.706a3.281,3.281,0,0,0-2.019-.469,2.226,2.226,0,0,0-1.644,1.282,2.155,2.155,0,0,0,2.85,2.85,2.226,2.226,0,0,0,1.282-1.644,3.281,3.281,0,0,0-.469-2.019c.024-.025.224.084.47.411a2.423,2.423,0,0,1,.437,1.666,2.636,2.636,0,0,1-1.477,2.107,2.706,2.706,0,0,1-3.615-3.615,2.636,2.636,0,0,1,2.107-1.477,2.43,2.43,0,0,1,1.666.435C262.153,446.48,262.262,446.682,262.237,446.706Z" transform="translate(-257.783 -445.787)" fill="#fafafa"/>
        </g>
      </g>
      <g id="Grupo_102923" data-name="Grupo 102923" transform="translate(12.794 89.079)">
        <g id="Grupo_102922" data-name="Grupo 102922">
          <path id="Trazado_133349" data-name="Trazado 133349" d="M191.585,420.068c0,.059-.449.056-1.2.275a5.044,5.044,0,0,0-2.629,1.849,4.773,4.773,0,1,0,7.662,0,5.034,5.034,0,0,0-2.63-1.849c-.752-.218-1.2-.216-1.2-.275a2.63,2.63,0,0,1,1.261.04,5.015,5.015,0,0,1,2.922,1.817,5.241,5.241,0,0,1,.823,5,5.309,5.309,0,0,1-10.01,0,5.241,5.241,0,0,1,.823-5,5.015,5.015,0,0,1,2.922-1.817A2.63,2.63,0,0,1,191.585,420.068Z" transform="translate(-186.278 -420.019)" fill="#fafafa"/>
        </g>
      </g>
      <g id="Grupo_102925" data-name="Grupo 102925" transform="translate(93.114 90.101)">
        <g id="Grupo_102924" data-name="Grupo 102924">
          <path id="Trazado_133350" data-name="Trazado 133350" d="M258.551,420.92c0,.059-.449.056-1.2.276a5.03,5.03,0,0,0-2.629,1.849,4.773,4.773,0,1,0,7.662,0,5.031,5.031,0,0,0-2.63-1.848c-.752-.219-1.2-.217-1.2-.276a2.65,2.65,0,0,1,1.261.04,5.021,5.021,0,0,1,2.922,1.817,5.242,5.242,0,0,1,.823,5,5.309,5.309,0,0,1-10.01,0,5.242,5.242,0,0,1,.823-5,5.021,5.021,0,0,1,2.922-1.817A2.651,2.651,0,0,1,258.551,420.92Z" transform="translate(-253.244 -420.871)" fill="#fafafa"/>
        </g>
      </g>
      <g id="Grupo_102926" data-name="Grupo 102926" transform="translate(22.114 117.057)">
        <circle id="Elipse_5267" data-name="Elipse 5267" cx="2.434" cy="2.434" r="2.434" fill="#fafafa"/>
      </g>
      <g id="Grupo_102927" data-name="Grupo 102927" transform="translate(66.417 47.697)">
        <circle id="Elipse_5268" data-name="Elipse 5268" cx="2.434" cy="2.434" r="2.434" fill="#fafafa"/>
      </g>
      <g id="Grupo_102928" data-name="Grupo 102928" transform="translate(114.387 64.127)">
        <circle id="Elipse_5269" data-name="Elipse 5269" cx="2.434" cy="2.434" r="2.434" fill="#fafafa"/>
      </g>
      <g id="Grupo_102930" data-name="Grupo 102930" transform="translate(23.175 62.804)">
        <g id="Grupo_102929" data-name="Grupo 102929">
          <path id="Trazado_133351" data-name="Trazado 133351" d="M231.9,398.627a3.846,3.846,0,0,1-.432.741l-1.348,2.031-5,7.3-.194.283-.207-.279-7.34-9.894h.491l-3.892,5.22-3.527,4.71-.259.347-.241-.357-6.7-9.959.4.023c-2.575,2.93-4.717,5.369-6.285,7.151-.722.8-1.311,1.448-1.772,1.957a4.252,4.252,0,0,1-.663.655,4.339,4.339,0,0,1,.548-.754c.433-.533.986-1.213,1.666-2.047,1.526-1.818,3.613-4.3,6.119-7.294l.213-.254.191.278,6.783,9.9-.5-.011c1.137-1.523,2.314-3.1,3.519-4.717l3.9-5.211.248-.331.242.333,7.248,9.964-.4,0,5.179-7.175,1.457-1.954A3.759,3.759,0,0,1,231.9,398.627Z" transform="translate(-194.933 -398.112)" fill="#fafafa"/>
        </g>
      </g>
      <g id="Grupo_102932" data-name="Grupo 102932" transform="translate(50.578 110.42)">
        <g id="Grupo_102931" data-name="Grupo 102931">
          <path id="Trazado_133352" data-name="Trazado 133352" d="M251.488,437.812a3.722,3.722,0,0,1-.251.82c-.221.6-.5,1.357-.846,2.286-.8,2.055-1.883,4.861-3.2,8.252l-.125.321-.265-.225-9.414-7.947.477-.11c-.832,1.92-1.7,3.921-2.591,5.972l-2.354,5.4-.173.4-.315-.293c-3.232-2.995-6.217-5.76-8.8-8.157l.4-.071c-1.835,3.442-3.361,6.307-4.477,8.4l-1.276,2.311a4.247,4.247,0,0,1-.5.789,4.321,4.321,0,0,1,.36-.859c.3-.619.682-1.407,1.153-2.375l4.284-8.5.149-.3.249.227,8.873,8.08-.489.1c.757-1.743,1.541-3.549,2.344-5.4l2.6-5.967.167-.379.312.269,9.339,8.036-.39.1c1.4-3.357,2.551-6.137,3.4-8.172.395-.909.716-1.652.969-2.236A3.837,3.837,0,0,1,251.488,437.812Z" transform="translate(-217.78 -437.812)" fill="#fafafa"/>
        </g>
      </g>
      <g id="Grupo_102934" data-name="Grupo 102934" transform="translate(123.696 89.127)">
        <g id="Grupo_102933" data-name="Grupo 102933">
          <path id="Trazado_133353" data-name="Trazado 133353" d="M280.619,420.06a3.735,3.735,0,0,1,.718.469l1.96,1.45,7.032,5.372.273.209-.29.192c-2.955,1.967-6.454,4.294-10.259,6.823l.028-.489,5.012,4.155,4.524,3.765.332.276-.369.222-10.289,6.178.043-.4,6.82,6.644,1.863,1.869a4.18,4.18,0,0,1,.62.7,4.387,4.387,0,0,1-.724-.585c-.51-.461-1.161-1.048-1.959-1.77l-6.971-6.485-.243-.227.288-.175c3.007-1.842,6.476-3.965,10.235-6.267l-.037.5-4.531-3.757c-1.719-1.43-3.394-2.826-5-4.164l-.319-.265.345-.225,10.322-6.726-.016.4-6.9-5.54-1.877-1.556A3.888,3.888,0,0,1,280.619,420.06Z" transform="translate(-278.741 -420.059)" fill="#fafafa"/>
        </g>
      </g>
      <g id="Grupo_102935" data-name="Grupo 102935" transform="translate(3.843 68.458)" opacity="0.2">
        <path id="Trazado_133354" data-name="Trazado 133354" d="M178.815,425.5l146.724-10.937-3.187-11.739H181.627Z" transform="translate(-178.815 -402.826)"/>
      </g>
      <g id="Grupo_102937" data-name="Grupo 102937" transform="translate(80.747 80.451)">
        <g id="Grupo_102936" data-name="Grupo 102936">
          <path id="Trazado_133355" data-name="Trazado 133355" d="M243.085,458.127c-.173,0-.2-10.145-.066-22.653s.386-22.65.559-22.648.2,10.143.065,22.656S243.257,458.129,243.085,458.127Z" transform="translate(-242.933 -412.825)" fill="#263238"/>
        </g>
      </g>
      <g id="Grupo_102939" data-name="Grupo 102939" transform="translate(99.39 84.602)">
        <g id="Grupo_102938" data-name="Grupo 102938">
          <path id="Trazado_133356" data-name="Trazado 133356" d="M270.632,457.437a8.736,8.736,0,0,1-.528-1.606c-.325-1.161-.74-2.648-1.239-4.43-1.034-3.741-2.477-8.906-4.152-14.585s-3.272-10.8-4.435-14.5c-.549-1.766-1.008-3.24-1.366-4.391a8.814,8.814,0,0,1-.428-1.635,8.822,8.822,0,0,1,.659,1.557c.387,1.015.92,2.495,1.556,4.331,1.271,3.671,2.935,8.777,4.615,14.465s3.054,10.877,3.981,14.651c.463,1.887.82,3.418,1.046,4.481A8.8,8.8,0,0,1,270.632,457.437Z" transform="translate(-258.477 -416.286)" fill="#263238"/>
        </g>
      </g>
    </g>
    <g id="Grupo_102941" data-name="Grupo 102941" transform="translate(491.583 3761.079)">
      <path id="Trazado_133357" data-name="Trazado 133357" d="M374.079,336.328l-21.818,14.211V131.488h21.818Z" transform="translate(-352.261 -131.488)" fill="#f5f5f5"/>
    </g>
    <g id="Grupo_102942" data-name="Grupo 102942" transform="translate(490.606 3837.219)">
      <path id="Trazado_133358" data-name="Trazado 133358" d="M352.3,310.86c10.009-30.74,5.532-64.991,16.563-95.472,1.06-2.931,2.284-5.929,1.973-8.986a13.62,13.62,0,0,0-3.366-7.109c-1.959-2.357-4.9-4.543-8.257-4.306a7.966,7.966,0,0,0-6.4,4.56,17.593,17.593,0,0,0-1.24,7.392c-.184,9.316-.133,18.634-.084,27.951q.187,35.16.375,70.319" transform="translate(-351.447 -194.969)" fill="#e0e0e0"/>
    </g>
    <g id="Grupo_102943" data-name="Grupo 102943" transform="translate(491.38 3802.657)">
      <path id="Trazado_133359" data-name="Trazado 133359" d="M352.092,180.51V172.4l21.818-6.247V175.5Z" transform="translate(-352.092 -166.153)" fill="#e0e0e0"/>
    </g>
    <g id="Grupo_102944" data-name="Grupo 102944" transform="translate(194.982 3814.99)">
      <path id="Trazado_133360" data-name="Trazado 133360" d="M136.917,212.119s-1.569-12.18-.856-16.486c.758-4.581,8.405-14.287,8.405-14.287-.106-.423-1.373-1.479-5.28,0s-5.28,4.223-8.976,6.863l-18.976-11.772-6.261,19.913,16.118,25.377Z" transform="translate(-104.973 -176.436)" fill="#ffad9d"/>
    </g>
    <g id="Grupo_102945" data-name="Grupo 102945" transform="translate(280.165 3804.085)">
      <path id="Trazado_133361" data-name="Trazado 133361" d="M206.583,167.344c-9.8,9.6-.384,24.524-6.664,34.165-3.806,5.844-11.957,8.668-13.711,15.418-.867,3.342.113,6.841.627,10.255s.39,7.338-2.094,9.737a36.083,36.083,0,0,1-3.97,2.7c-3.832,2.815-5.129,8.067-4.7,12.8s2.274,9.208,3.567,13.784a60.792,60.792,0,0,1-2.3,39.385,14.85,14.85,0,0,0,11.712-5.617q-.176,4.76-.355,9.522c4.221.259,8.3-2.01,11.119-5.162s4.558-7.111,6.034-11.075a117.8,117.8,0,0,0,6.386-56.107" transform="translate(-175.993 -167.344)" fill="#263238"/>
    </g>
    <g id="Grupo_102946" data-name="Grupo 102946" transform="translate(365.327 3776.663)">
      <path id="Trazado_133362" data-name="Trazado 133362" d="M273.292,144.481a40.8,40.8,0,0,1,6.584,28.3c-.783,5.576-2.711,11.375-.793,16.669,1.65,4.557,6.035,8.28,5.794,13.12-.275,5.517-6.5,9.247-7.057,14.744-.777,7.617,9.451,12.734,9.334,20.39-.061,3.945-2.883,7.206-4.838,10.633s-2.837,8.373.233,10.851L247,256.583l6.334-111.292Z" transform="translate(-246.997 -144.481)" fill="#263238"/>
    </g>
    <g id="Grupo_103096" data-name="Grupo 103096" transform="translate(203.327 3714.827)">
      <g id="Grupo_103082" data-name="Grupo 103082">
        <g id="Grupo_102975" data-name="Grupo 102975" transform="translate(222.356)">
          <g id="Grupo_102948" data-name="Grupo 102948" transform="translate(34.641 120.84)">
            <g id="Grupo_102947" data-name="Grupo 102947">
              <path id="Trazado_133363" data-name="Trazado 133363" d="M361.639,229.479l-.39-.011,1.571-5.241,5.018-20.029a3.678,3.678,0,0,0-2.357-4.365l-3.611-.122L349.5,193.925a3.856,3.856,0,0,0-5.214,2.993c-.452,3.681-2.955,13.571-5.62,10.106-.062-.08-.128-.148-.192-.227-3.745-5.156-8.409-7.937-10.328-7.86a2.154,2.154,0,0,0-1.311,3.7,2.31,2.31,0,0,0,.706.612c.125.067.273.188.405.273a31.972,31.972,0,0,1,4.452,4.885,16.954,16.954,0,0,1,2.726,5.214c.661,2.079,1.151,3.9,1.521,5.443l-.961,10.224" transform="translate(-326.2 -193.674)" fill="#ffad9d"/>
            </g>
          </g>
          <g id="Grupo_102974" data-name="Grupo 102974">
            <g id="Grupo_102957" data-name="Grupo 102957" transform="translate(4.616)">
              <g id="Grupo_102950" data-name="Grupo 102950" transform="translate(32.457)">
                <g id="Grupo_102949" data-name="Grupo 102949">
                  <path id="Trazado_133364" data-name="Trazado 133364" d="M328.227,158.842s14.458-2.771,35.227-21.639,31-44.417,33.472-44.22,13.419-4.515,32.7,40.773S440.521,189.2,436.435,189s-31.636-8.727-49.036-7.247-39.951,9.886-39.951,9.886Z" transform="translate(-328.227 -92.925)" fill="#fdab64"/>
                </g>
              </g>
              <g id="Grupo_102952" data-name="Grupo 102952" transform="translate(0 57.642)">
                <g id="Grupo_102951" data-name="Grupo 102951">
                  <path id="Trazado_133365" data-name="Trazado 133365" d="M302.411,172.76l4.638,9.457,2.077,4.238a12.167,12.167,0,0,0,15.7,5.835l31.1-9.856-16.773-41.451-31.23,15.523A12.17,12.17,0,0,0,302.411,172.76Z" transform="translate(-301.167 -140.984)" fill="#fd963d"/>
                </g>
              </g>
              <g id="Grupo_102954" data-name="Grupo 102954" transform="translate(18.576 98.63)">
                <g id="Grupo_102953" data-name="Grupo 102953">
                  <path id="Trazado_133366" data-name="Trazado 133366" d="M316.654,181.37l9.27,19.511,4.945-1.225,31.307,26.977,9.454-17.279s-18.707-8.695-22.019-15.547.781-8.27.781-8.27l-8.626-10.381Z" transform="translate(-316.654 -175.157)" fill="#fc8116"/>
                </g>
              </g>
              <g id="Grupo_102956" data-name="Grupo 102956" transform="translate(101.443 1.076)">
                <g id="Grupo_102955" data-name="Grupo 102955">
                  <path id="Trazado_133367" data-name="Trazado 133367" d="M416.474,134.345c10.25,24.527,14.191,46.236,8.8,48.489s-18.068-15.806-28.318-40.333-14.19-46.236-8.8-48.489S406.224,109.818,416.474,134.345Z" transform="translate(-385.744 -93.823)" fill="#fc8116"/>
                </g>
              </g>
            </g>
            <g id="Grupo_102959" data-name="Grupo 102959" transform="translate(0 90.457)">
              <g id="Grupo_102958" data-name="Grupo 102958">
                <path id="Trazado_133368" data-name="Trazado 133368" d="M300.154,180.695l8.421-2.385-4.886-9.967-6.37,3.714Z" transform="translate(-297.318 -168.343)" fill="#fd963d"/>
              </g>
            </g>
            <g id="Grupo_102961" data-name="Grupo 102961" transform="translate(25.781 102.187)">
              <g id="Grupo_102960" data-name="Grupo 102960">
                <path id="Trazado_133369" data-name="Trazado 133369" d="M344.292,178.123l-22.836,13.669-2.642-5.562Z" transform="translate(-318.813 -178.123)" fill="#fdab64"/>
              </g>
            </g>
            <g id="Grupo_102963" data-name="Grupo 102963" transform="translate(5.608 90.457)">
              <g id="Grupo_102962" data-name="Grupo 102962">
                <path id="Trazado_133370" data-name="Trazado 133370" d="M302.756,168.343l4.886,9.967-1.73.491-3.918-10.013Z" transform="translate(-301.994 -168.343)" fill="#fc8116"/>
              </g>
            </g>
            <g id="Grupo_102965" data-name="Grupo 102965" transform="translate(12.054 85.158)">
              <g id="Grupo_102964" data-name="Grupo 102964">
                <path id="Trazado_133371" data-name="Trazado 133371" d="M307.37,171.653c.115.273,4.327-1.228,9.406-3.352s9.108-4.07,8.993-4.343-4.324,1.228-9.406,3.354S307.258,171.379,307.37,171.653Z" transform="translate(-307.368 -163.925)" fill="#fc8116"/>
              </g>
            </g>
            <g id="Grupo_102967" data-name="Grupo 102967" transform="translate(9.653 79.337)">
              <g id="Grupo_102966" data-name="Grupo 102966">
                <path id="Trazado_133372" data-name="Trazado 133372" d="M305.37,166.7c.124.271,3.938-1.211,8.519-3.308s8.2-4.017,8.074-4.287-3.936,1.213-8.521,3.312S305.246,166.429,305.37,166.7Z" transform="translate(-305.366 -159.072)" fill="#fc8116"/>
              </g>
            </g>
            <g id="Grupo_102969" data-name="Grupo 102969" transform="translate(15.119 92.187)">
              <g id="Grupo_102968" data-name="Grupo 102968">
                <path id="Trazado_133373" data-name="Trazado 133373" d="M309.925,176.71c.04.144,1.038-.056,2.634-.5.8-.221,1.742-.5,2.787-.832,1.04-.344,2.123-.854,3.283-1.34,4.626-1.99,8.172-3.966,8.065-4.216-.127-.294-3.9,1.258-8.485,3.229-1.149.482-2.218,1.018-3.222,1.4s-1.912.726-2.668,1.035C310.809,176.111,309.886,176.568,309.925,176.71Z" transform="translate(-309.924 -169.785)" fill="#fc8116"/>
              </g>
            </g>
            <g id="Grupo_102971" data-name="Grupo 102971" transform="translate(114.644 33.989)">
              <g id="Grupo_102970" data-name="Grupo 102970">
                <path id="Trazado_133374" data-name="Trazado 133374" d="M392.9,122.855s12.707-7.388,19.06,9.676S405.1,152,405.1,152A112.419,112.419,0,0,1,392.9,122.855Z" transform="translate(-392.902 -121.263)" fill="#fdab64"/>
              </g>
            </g>
            <g id="Grupo_102973" data-name="Grupo 102973" transform="translate(101.915 15.098)">
              <g id="Grupo_102972" data-name="Grupo 102972">
                <path id="Trazado_133375" data-name="Trazado 133375" d="M382.308,105.513a18.654,18.654,0,0,0,.4,3.237c.337,2.073.811,5.081,1.508,8.777.476,1.826,1,3.818,1.556,5.954q.425,1.6.877,3.315.227.855.461,1.733c.17.582.4,1.154.6,1.743.834,2.347,1.708,4.808,2.615,7.36q.34.957.688,1.93c.225.651.55,1.268.824,1.911q.864,1.912,1.747,3.879t1.754,3.879c.3.631.548,1.283.888,1.884l.991,1.794L401,159.741c.308.54.586,1.089.91,1.6l1,1.5q.984,1.472,1.908,2.857l3.439,5.111c2.305,2.961,4.242,5.3,5.574,6.923a19.028,19.028,0,0,0,2.165,2.443,19.068,19.068,0,0,0-1.836-2.7l-5.3-7.131c-1.012-1.577-2.117-3.3-3.3-5.148l-1.847-2.859q-.477-.736-.967-1.493c-.314-.512-.585-1.061-.886-1.6l-3.709-6.816q-.484-.887-.976-1.786c-.333-.6-.577-1.246-.874-1.875l-1.736-3.853q-.88-1.95-1.74-3.85c-.273-.638-.6-1.25-.825-1.9s-.463-1.281-.692-1.913c-.921-2.526-1.809-4.964-2.655-7.289-.206-.583-.439-1.148-.615-1.724s-.321-1.151-.48-1.716q-.475-1.689-.924-3.28l-1.674-5.888c-.765-3.623-1.389-6.574-1.833-8.677A19.274,19.274,0,0,0,382.308,105.513Z" transform="translate(-382.289 -105.513)" fill="#fc8116"/>
              </g>
            </g>
          </g>
        </g>
        <g id="Grupo_103030" data-name="Grupo 103030" transform="translate(0 134.968)">
          <g id="Grupo_102977" data-name="Grupo 102977" transform="translate(207.671 17.38)">
            <g id="Grupo_102976" data-name="Grupo 102976">
              <path id="Trazado_133376" data-name="Trazado 133376" d="M339.539,219.944l-6.261,55.574-31.247-31.137s-16.722,34.772-16.955,36.188c-.156.951,17.538,18.431,30.683,28.529,7.117,5.467,16.721,13.916,25.584,12.5,14.782-2.369,23.558-12.134,24.843-27.05l5.66-73.744Z" transform="translate(-285.075 -219.944)" fill="#85d161"/>
            </g>
          </g>
          <g id="Grupo_102981" data-name="Grupo 102981" transform="translate(75.663 14.042)">
            <g id="Grupo_102980" data-name="Grupo 102980">
              <g id="Grupo_102979" data-name="Grupo 102979">
                <g id="Grupo_102978" data-name="Grupo 102978">
                  <path id="Trazado_133377" data-name="Trazado 133377" d="M197.924,272.093l-22.91-15.183c6.267-35.222,57.145-38.752,57.145-38.752l38.74-.687s28.712-3.9,46.469,16.052c18.376,20.653,32.21,36.912,32.21,36.912l-25.145,27.518-24.648-19.347a33.693,33.693,0,0,1,6.053,18.6c.018,11.468-8.545,22.433-8.545,22.433l-2.146,19.589,9.389,37.964-109.744.291c7.483-11.859,12.834-22.122,19.5-39.656L204.039,300.9Z" transform="translate(-175.014 -217.162)" fill="#85d161"/>
                </g>
              </g>
            </g>
          </g>
          <g id="Grupo_102982" data-name="Grupo 102982">
            <path id="Trazado_133378" data-name="Trazado 133378" d="M212.167,230.987,156.58,260.4l-20.113-54.943-24.536,11.669,17.357,69.938c3.451,13.9,18.174,22.259,31.612,17.3q.678-.25,1.349-.54l60.225-26.073Z" transform="translate(-111.931 -205.454)" fill="#85d161"/>
          </g>
          <g id="Grupo_102984" data-name="Grupo 102984" transform="translate(128.728 68.659)">
            <g id="Grupo_102983" data-name="Grupo 102983">
              <path id="Trazado_133379" data-name="Trazado 133379" d="M227.766,262.759a13,13,0,0,0-3.538,1.057,8.048,8.048,0,0,0,0,14.28,12.941,12.941,0,0,0,3.538,1.057,2.717,2.717,0,0,1-1.023.053,7.652,7.652,0,0,1-2.712-.714,8.171,8.171,0,0,1-3.208-2.669,8.35,8.35,0,0,1,0-9.734,8.178,8.178,0,0,1,3.208-2.667,7.627,7.627,0,0,1,2.712-.714A2.737,2.737,0,0,1,227.766,262.759Z" transform="translate(-219.257 -262.698)" fill="#fafafa"/>
            </g>
          </g>
          <g id="Grupo_102986" data-name="Grupo 102986" transform="translate(176.328 82.507)">
            <g id="Grupo_102985" data-name="Grupo 102985">
              <path id="Trazado_133380" data-name="Trazado 133380" d="M258.95,279.559a12.91,12.91,0,0,0,2.146,3,8.048,8.048,0,0,0,13.509-4.63,12.914,12.914,0,0,0-.148-3.689,2.7,2.7,0,0,1,.381.951,7.625,7.625,0,0,1,.2,2.8,8.172,8.172,0,0,1-1.484,3.9,8.346,8.346,0,0,1-9.209,3.156,8.189,8.189,0,0,1-3.565-2.17,7.644,7.644,0,0,1-1.553-2.334A2.714,2.714,0,0,1,258.95,279.559Z" transform="translate(-258.943 -274.244)" fill="#fafafa"/>
            </g>
          </g>
          <g id="Grupo_102988" data-name="Grupo 102988" transform="translate(148.294 137.442)">
            <g id="Grupo_102987" data-name="Grupo 102987">
              <path id="Trazado_133381" data-name="Trazado 133381" d="M235.571,333a13,13,0,0,0,3.444,1.335,8.049,8.049,0,0,0,8.757-11.28,12.988,12.988,0,0,0-2.147-3,2.709,2.709,0,0,1,.84.585,7.635,7.635,0,0,1,1.7,2.226,8.173,8.173,0,0,1,.9,4.076,8.348,8.348,0,0,1-5.969,7.689,8.184,8.184,0,0,1-4.17.14,7.623,7.623,0,0,1-2.579-1.1C235.806,333.284,235.55,333.024,235.571,333Z" transform="translate(-235.57 -320.045)" fill="#fafafa"/>
            </g>
          </g>
          <g id="Grupo_102990" data-name="Grupo 102990" transform="translate(263.617 41.231)">
            <g id="Grupo_102989" data-name="Grupo 102989">
              <path id="Trazado_133382" data-name="Trazado 133382" d="M331.72,252.781a12.9,12.9,0,0,0,3.442,1.335,8.048,8.048,0,0,0,8.757-11.279,12.936,12.936,0,0,0-2.147-3,2.681,2.681,0,0,1,.841.587,7.659,7.659,0,0,1,1.7,2.226,8.18,8.18,0,0,1,.9,4.074,8.351,8.351,0,0,1-5.969,7.691,8.187,8.187,0,0,1-4.172.139,7.626,7.626,0,0,1-2.579-1.1C331.955,253.069,331.7,252.809,331.72,252.781Z" transform="translate(-331.719 -239.83)" fill="#fafafa"/>
            </g>
          </g>
          <g id="Grupo_102992" data-name="Grupo 102992" transform="translate(257.55 102.328)">
            <g id="Grupo_102991" data-name="Grupo 102991">
              <path id="Trazado_133383" data-name="Trazado 133383" d="M343.137,298.725a12.961,12.961,0,0,0-1.291-3.459,8.048,8.048,0,0,0-14.248.957,12.979,12.979,0,0,0-.818,3.6,2.731,2.731,0,0,1-.12-1.017,7.625,7.625,0,0,1,.53-2.753,8.17,8.17,0,0,1,2.447-3.381,8.348,8.348,0,0,1,9.713-.651,8.169,8.169,0,0,1,2.877,3.023,7.648,7.648,0,0,1,.894,2.657A2.675,2.675,0,0,1,343.137,298.725Z" transform="translate(-326.661 -290.769)" fill="#fafafa"/>
            </g>
          </g>
          <g id="Grupo_102994" data-name="Grupo 102994" transform="translate(189.235 31.141)">
            <g id="Grupo_102993" data-name="Grupo 102993">
              <path id="Trazado_133384" data-name="Trazado 133384" d="M269.708,240.047a12.955,12.955,0,0,0,2.761,2.452,8.048,8.048,0,0,0,12.142-7.516,13.016,13.016,0,0,0-.963-3.565,2.729,2.729,0,0,1,.583.843,7.657,7.657,0,0,1,.82,2.68,8.179,8.179,0,0,1-.581,4.133,8.35,8.35,0,0,1-8.277,5.124,8.172,8.172,0,0,1-3.957-1.324,7.623,7.623,0,0,1-2.034-1.93A2.732,2.732,0,0,1,269.708,240.047Z" transform="translate(-269.704 -231.417)" fill="#fafafa"/>
            </g>
          </g>
          <g id="Grupo_102996" data-name="Grupo 102996" transform="translate(80.278 61.062)">
            <g id="Grupo_102995" data-name="Grupo 102995">
              <path id="Trazado_133385" data-name="Trazado 133385" d="M178.866,264.994a12.993,12.993,0,0,0,2.761,2.452,8.048,8.048,0,0,0,12.142-7.517,12.944,12.944,0,0,0-.963-3.563,2.732,2.732,0,0,1,.583.842,7.639,7.639,0,0,1,.82,2.681,8.181,8.181,0,0,1-.581,4.133,8.347,8.347,0,0,1-8.277,5.124,8.184,8.184,0,0,1-3.957-1.324,7.661,7.661,0,0,1-2.034-1.93A2.731,2.731,0,0,1,178.866,264.994Z" transform="translate(-178.862 -256.364)" fill="#fafafa"/>
            </g>
          </g>
          <g id="Grupo_102998" data-name="Grupo 102998" transform="translate(22.695 58.707)">
            <g id="Grupo_102997" data-name="Grupo 102997">
              <path id="Trazado_133386" data-name="Trazado 133386" d="M144.265,267.6a13.032,13.032,0,0,0,1.171-3.5,8.048,8.048,0,0,0-11.68-8.215,12.955,12.955,0,0,0-2.9,2.286,2.727,2.727,0,0,1,.546-.867,7.649,7.649,0,0,1,2.143-1.808,8.17,8.17,0,0,1,4.029-1.089,8.345,8.345,0,0,1,7.962,5.6,8.173,8.173,0,0,1,.337,4.16,7.642,7.642,0,0,1-.976,2.628A2.75,2.75,0,0,1,144.265,267.6Z" transform="translate(-130.852 -254.4)" fill="#fafafa"/>
            </g>
          </g>
          <g id="Grupo_103000" data-name="Grupo 103000" transform="translate(155.598 78.506)">
            <g id="Grupo_102999" data-name="Grupo 102999">
              <path id="Trazado_133387" data-name="Trazado 133387" d="M246.114,271.827a3.286,3.286,0,0,0-2.019-.47,2.231,2.231,0,0,0-1.644,1.282,2.156,2.156,0,0,0,2.85,2.851,2.227,2.227,0,0,0,1.282-1.646,3.281,3.281,0,0,0-.469-2.017c.024-.026.224.084.47.411a2.421,2.421,0,0,1,.437,1.666,2.638,2.638,0,0,1-1.476,2.107,2.706,2.706,0,0,1-3.615-3.616,2.642,2.642,0,0,1,2.107-1.476,2.435,2.435,0,0,1,1.666.437C246.03,271.6,246.139,271.8,246.114,271.827Z" transform="translate(-241.66 -270.907)" fill="#fafafa"/>
            </g>
          </g>
          <g id="Grupo_103002" data-name="Grupo 103002" transform="translate(194.09 59.729)">
            <g id="Grupo_103001" data-name="Grupo 103001">
              <path id="Trazado_133388" data-name="Trazado 133388" d="M278.206,256.171a3.274,3.274,0,0,0-2.019-.469,2.226,2.226,0,0,0-1.644,1.282,2.155,2.155,0,0,0,2.85,2.85,2.23,2.23,0,0,0,1.283-1.644,3.283,3.283,0,0,0-.47-2.019c.024-.025.225.084.471.411a2.43,2.43,0,0,1,.435,1.666,2.637,2.637,0,0,1-1.475,2.107,2.706,2.706,0,0,1-3.616-3.615,2.636,2.636,0,0,1,2.107-1.476,2.423,2.423,0,0,1,1.666.437C278.122,255.946,278.232,256.147,278.206,256.171Z" transform="translate(-273.752 -255.252)" fill="#fafafa"/>
            </g>
          </g>
          <g id="Grupo_103004" data-name="Grupo 103004" transform="translate(277.681 28.502)">
            <g id="Grupo_103003" data-name="Grupo 103003">
              <path id="Trazado_133389" data-name="Trazado 133389" d="M347.9,230.136a3.281,3.281,0,0,0-2.017-.469,2.227,2.227,0,0,0-1.646,1.282,2.156,2.156,0,0,0,2.851,2.85,2.228,2.228,0,0,0,1.282-1.644,3.286,3.286,0,0,0-.47-2.019c.024-.025.226.084.471.411a2.436,2.436,0,0,1,.437,1.666,2.636,2.636,0,0,1-1.477,2.107,2.706,2.706,0,0,1-3.616-3.615,2.636,2.636,0,0,1,2.107-1.476,2.419,2.419,0,0,1,1.666.437C347.815,229.911,347.925,230.112,347.9,230.136Z" transform="translate(-343.445 -229.217)" fill="#fafafa"/>
            </g>
          </g>
          <g id="Grupo_103006" data-name="Grupo 103006" transform="translate(183.37 118.832)">
            <g id="Grupo_103005" data-name="Grupo 103005">
              <path id="Trazado_133390" data-name="Trazado 133390" d="M269.269,305.448a3.281,3.281,0,0,0-2.019-.469,2.23,2.23,0,0,0-1.646,1.282,2.156,2.156,0,0,0,2.851,2.85,2.226,2.226,0,0,0,1.282-1.644,3.283,3.283,0,0,0-.469-2.019c.023-.026.224.084.47.411a2.423,2.423,0,0,1,.437,1.666,2.636,2.636,0,0,1-1.476,2.107,2.706,2.706,0,0,1-3.615-3.616,2.637,2.637,0,0,1,2.107-1.475,2.43,2.43,0,0,1,1.666.435C269.185,305.222,269.294,305.424,269.269,305.448Z" transform="translate(-264.814 -304.529)" fill="#fafafa"/>
            </g>
          </g>
          <g id="Grupo_103008" data-name="Grupo 103008" transform="translate(53.438 78.506)">
            <g id="Grupo_103007" data-name="Grupo 103007">
              <path id="Trazado_133391" data-name="Trazado 133391" d="M160.939,271.827a3.278,3.278,0,0,0-2.019-.47,2.231,2.231,0,0,0-1.644,1.282,2.156,2.156,0,0,0,2.851,2.851,2.23,2.23,0,0,0,1.282-1.646,3.277,3.277,0,0,0-.47-2.017c.024-.026.225.084.471.411a2.434,2.434,0,0,1,.437,1.666,2.641,2.641,0,0,1-1.476,2.107,2.707,2.707,0,0,1-3.616-3.616,2.642,2.642,0,0,1,2.107-1.476,2.435,2.435,0,0,1,1.666.437C160.855,271.6,160.965,271.8,160.939,271.827Z" transform="translate(-156.485 -270.907)" fill="#fafafa"/>
            </g>
          </g>
          <g id="Grupo_103010" data-name="Grupo 103010" transform="translate(123.732 135.018)">
            <g id="Grupo_103009" data-name="Grupo 103009">
              <path id="Trazado_133392" data-name="Trazado 133392" d="M220.4,318.073c0,.059-.449.058-1.2.276a5.03,5.03,0,0,0-2.629,1.849,4.773,4.773,0,1,0,7.662,0,5.028,5.028,0,0,0-2.63-1.849c-.752-.218-1.2-.217-1.2-.276a2.668,2.668,0,0,1,1.261.04,5.021,5.021,0,0,1,2.922,1.817,5.244,5.244,0,0,1,.823,5,5.31,5.31,0,0,1-10.01,0,5.242,5.242,0,0,1,.823-5,5.024,5.024,0,0,1,2.922-1.818A2.67,2.67,0,0,1,220.4,318.073Z" transform="translate(-215.092 -318.024)" fill="#fafafa"/>
            </g>
          </g>
          <g id="Grupo_103012" data-name="Grupo 103012" transform="translate(237.209 68.672)">
            <g id="Grupo_103011" data-name="Grupo 103011">
              <path id="Trazado_133393" data-name="Trazado 133393" d="M315.009,262.757c0,.059-.449.058-1.2.276a5.039,5.039,0,0,0-2.63,1.849,4.773,4.773,0,1,0,7.663,0,5.028,5.028,0,0,0-2.63-1.849c-.752-.218-1.2-.217-1.2-.276a2.662,2.662,0,0,1,1.261.041,5.009,5.009,0,0,1,2.922,1.817,5.241,5.241,0,0,1,.823,5,5.309,5.309,0,0,1-10.01,0,5.241,5.241,0,0,1,.823-5,5.015,5.015,0,0,1,2.922-1.817A2.664,2.664,0,0,1,315.009,262.757Z" transform="translate(-309.702 -262.708)" fill="#fafafa"/>
            </g>
          </g>
          <g id="Grupo_103013" data-name="Grupo 103013" transform="translate(120.094 98.09)">
            <path id="Trazado_133394" data-name="Trazado 133394" d="M212.772,287.948a2.434,2.434,0,1,1,0,3.442A2.435,2.435,0,0,1,212.772,287.948Z" transform="translate(-212.058 -287.236)" fill="#fafafa"/>
          </g>
          <g id="Grupo_103014" data-name="Grupo 103014" transform="translate(28.713 78.712)">
            <circle id="Elipse_5270" data-name="Elipse 5270" cx="2.434" cy="2.434" r="2.434" fill="#fafafa"/>
          </g>
          <g id="Grupo_103015" data-name="Grupo 103015" transform="translate(279.296 62.368)">
            <circle id="Elipse_5271" data-name="Elipse 5271" cx="2.434" cy="2.434" r="2.434" fill="#fafafa"/>
          </g>
          <g id="Grupo_103016" data-name="Grupo 103016" transform="translate(188.805 24.827)">
            <path id="Trazado_133395" data-name="Trazado 133395" d="M270.057,226.867a2.434,2.434,0,1,1,0,3.442A2.433,2.433,0,0,1,270.057,226.867Z" transform="translate(-269.345 -226.153)" fill="#fafafa"/>
          </g>
          <g id="Grupo_103017" data-name="Grupo 103017" transform="translate(133.053 162.997)">
            <path id="Trazado_133396" data-name="Trazado 133396" d="M223.575,342.063a2.434,2.434,0,1,1,0,3.442A2.435,2.435,0,0,1,223.575,342.063Z" transform="translate(-222.863 -341.351)" fill="#fafafa"/>
          </g>
          <g id="Grupo_103019" data-name="Grupo 103019" transform="translate(134.114 108.744)">
            <g id="Grupo_103018" data-name="Grupo 103018">
              <path id="Trazado_133397" data-name="Trazado 133397" d="M260.717,296.631a3.807,3.807,0,0,1-.432.741l-1.348,2.032c-1.245,1.817-2.947,4.3-5,7.3l-.194.284-.207-.279c-2.115-2.851-4.618-6.226-7.34-9.9l.491,0-3.892,5.219-3.527,4.711-.259.345-.241-.357-6.7-9.958.4.023-6.285,7.151-1.772,1.957a4.329,4.329,0,0,1-.663.655,4.306,4.306,0,0,1,.547-.754l1.667-2.047,6.119-7.294.214-.254.191.277c1.993,2.91,4.293,6.265,6.783,9.9l-.5-.011,3.519-4.718,3.9-5.21.248-.331.242.333,7.248,9.962-.4,0,5.179-7.175,1.457-1.955A3.816,3.816,0,0,1,260.717,296.631Z" transform="translate(-223.747 -296.118)" fill="#fafafa"/>
            </g>
          </g>
          <g id="Grupo_103021" data-name="Grupo 103021" transform="translate(161.516 150.13)">
            <g id="Grupo_103020" data-name="Grupo 103020">
              <path id="Trazado_133398" data-name="Trazado 133398" d="M280.3,330.624a3.723,3.723,0,0,1-.251.82c-.221.6-.5,1.357-.846,2.287l-3.2,8.251-.125.321-.265-.224-9.414-7.949.477-.11c-.832,1.92-1.7,3.921-2.591,5.972l-2.354,5.395-.173.4-.315-.293c-3.232-2.995-6.217-5.76-8.8-8.157l.4-.07c-1.835,3.441-3.361,6.307-4.477,8.4l-1.276,2.31a4.288,4.288,0,0,1-.5.79,4.345,4.345,0,0,1,.36-.86l1.153-2.375,4.284-8.5.149-.3.249.228,8.873,8.08-.489.1,2.344-5.4,2.6-5.967.167-.38.312.27c3.463,2.979,6.648,5.72,9.339,8.036l-.39.1,3.4-8.172c.395-.91.716-1.652.969-2.237A3.837,3.837,0,0,1,280.3,330.624Z" transform="translate(-246.594 -330.624)" fill="#fafafa"/>
            </g>
          </g>
          <g id="Grupo_103023" data-name="Grupo 103023" transform="translate(214.7 43.863)">
            <g id="Grupo_103022" data-name="Grupo 103022">
              <path id="Trazado_133399" data-name="Trazado 133399" d="M291.5,242.026a3.814,3.814,0,0,1,.739.435l2.027,1.355,7.279,5.033.283.2-.281.206-9.924,7.3,0-.491,5.2,3.911,4.7,3.547.345.26-.359.239c-3.665,2.446-7.049,4.7-9.984,6.659l.025-.4,7.127,6.313,1.949,1.779a4.2,4.2,0,0,1,.652.666,4.294,4.294,0,0,1-.752-.551l-2.04-1.674-7.27-6.147-.254-.215.278-.19,9.926-6.745-.013.5-4.7-3.537-5.2-3.923-.33-.249.333-.241,9.992-7.208,0,.4-7.156-5.208-1.948-1.463A3.744,3.744,0,0,1,291.5,242.026Z" transform="translate(-290.935 -242.024)" fill="#fafafa"/>
            </g>
          </g>
          <g id="Grupo_103025" data-name="Grupo 103025" transform="translate(245.098 81.994)">
            <g id="Grupo_103024" data-name="Grupo 103024">
              <path id="Trazado_133400" data-name="Trazado 133400" d="M316.283,291.266a3.788,3.788,0,0,1,.267-.814c.233-.594.529-1.346.891-2.269.838-2.038,1.983-4.822,3.366-8.185l.131-.318.262.23,9.25,8.138-.481.1c.873-1.9,1.781-3.886,2.713-5.919.843-1.83,1.668-3.619,2.464-5.345l.18-.392.311.3,8.635,8.335-.4.062c1.9-3.4,3.488-6.237,4.648-8.31.539-.931.979-1.69,1.322-2.284a4.18,4.18,0,0,1,.512-.78,4.394,4.394,0,0,1-.378.852c-.312.612-.711,1.393-1.2,2.351l-4.456,8.414-.156.294-.245-.231-8.707-8.26.491-.094c-.792,1.728-1.613,3.519-2.453,5.351-.936,2.031-1.848,4.011-2.725,5.912l-.174.377-.307-.276c-3.4-3.049-6.53-5.854-9.172-8.224l.391-.088-3.562,8.1-1.015,2.215A3.812,3.812,0,0,1,316.283,291.266Z" transform="translate(-316.279 -273.816)" fill="#fafafa"/>
            </g>
          </g>
          <g id="Grupo_103027" data-name="Grupo 103027" transform="translate(55.005 47.073)">
            <g id="Grupo_103026" data-name="Grupo 103026">
              <path id="Trazado_133401" data-name="Trazado 133401" d="M157.795,262.151a3.807,3.807,0,0,1,.267-.816c.234-.593.529-1.346.892-2.268.837-2.038,1.981-4.822,3.364-8.185l.131-.318.261.229,9.25,8.138-.48.1,2.712-5.918c.843-1.83,1.668-3.62,2.464-5.345l.181-.393.309.3c3.171,3.06,6.1,5.884,8.635,8.335l-.4.062,4.648-8.31,1.323-2.285a4.316,4.316,0,0,1,.511-.778,4.391,4.391,0,0,1-.378.852c-.312.612-.711,1.393-1.2,2.351l-4.456,8.414-.156.294-.245-.231-8.705-8.26.491-.094c-.793,1.727-1.613,3.518-2.454,5.351-.936,2.031-1.848,4.011-2.725,5.912l-.173.377-.307-.276c-3.4-3.05-6.531-5.854-9.173-8.224l.392-.089c-1.464,3.328-2.676,6.085-3.562,8.1-.414.9-.75,1.637-1.016,2.217A3.826,3.826,0,0,1,157.795,262.151Z" transform="translate(-157.791 -244.701)" fill="#fafafa"/>
            </g>
          </g>
          <g id="Grupo_103029" data-name="Grupo 103029" transform="translate(141.291 43.803)">
            <g id="Grupo_103028" data-name="Grupo 103028">
              <path id="Trazado_133402" data-name="Trazado 133402" d="M229.731,248.331a3.826,3.826,0,0,1,.709-.483l2.088-1.257,7.653-4.444.3-.173.067.342c.686,3.483,1.5,7.605,2.382,12.088l-.443-.212,5.756-3.044c1.784-.938,3.526-1.855,5.209-2.739l.381-.2.065.426c.651,4.359,1.252,8.382,1.774,11.869l-.355-.194,8.746-3.761,2.441-1.007a4.216,4.216,0,0,1,.879-.306,4.284,4.284,0,0,1-.818.446l-2.383,1.133-8.657,3.96-.3.139-.053-.333c-.552-3.483-1.187-7.5-1.877-11.853l.446.224-5.2,2.75-5.762,3.031-.367.193-.076-.405c-.841-4.491-1.614-8.62-2.269-12.109l.365.168-7.758,4.258-2.154,1.139A3.763,3.763,0,0,1,229.731,248.331Z" transform="translate(-229.731 -241.974)" fill="#fafafa"/>
            </g>
          </g>
        </g>
        <g id="Grupo_103081" data-name="Grupo 103081" transform="translate(134.483 59.645)">
          <g id="Grupo_103064" data-name="Grupo 103064">
            <g id="Grupo_103063" data-name="Grupo 103063">
              <g id="Grupo_103062" data-name="Grupo 103062">
                <g id="Grupo_103061" data-name="Grupo 103061">
                  <g id="Grupo_103031" data-name="Grupo 103031">
                    <path id="Trazado_133403" data-name="Trazado 133403" d="M260.433,239.6c.247-10.779.706-22.347.706-22.347s16.4-2.069,17.107-18.808c.539-12.744.764-32.778.842-41.617a5.965,5.965,0,0,0-4.22-5.755l-27.3-8.415L224.607,159.6l-.552,79.441c-.07,10.1,6.526,16.33,16.623,16.33h0C250.56,255.375,260.207,249.476,260.433,239.6Z" transform="translate(-224.055 -142.654)" fill="#ffad9d"/>
                  </g>
                  <g id="Grupo_103032" data-name="Grupo 103032" transform="translate(15.367 67.486)">
                    <path id="Trazado_133404" data-name="Trazado 133404" d="M258.585,206.029a39.939,39.939,0,0,1-21.718-7.109s5.1,12.193,21.434,11.218Z" transform="translate(-236.867 -198.92)" fill="#e88b79"/>
                  </g>
                  <g id="Grupo_103033" data-name="Grupo 103033" transform="translate(27.246 49.573)">
                    <path id="Trazado_133405" data-name="Trazado 133405" d="M255.129,189.5a1.968,1.968,0,0,0-2-2.778,3.1,3.1,0,0,0-3.136-2.739,3.5,3.5,0,0,0-3.17,2.85,4.042,4.042,0,0,0,1.788,3.966,4.786,4.786,0,0,0,4.414.324,3.487,3.487,0,0,0,2.226-2.63" transform="translate(-246.77 -183.985)" fill="#e88b79"/>
                  </g>
                  <g id="Grupo_103060" data-name="Grupo 103060" transform="translate(18.845 19.525)">
                    <g id="Grupo_103059" data-name="Grupo 103059">
                      <g id="Grupo_103052" data-name="Grupo 103052" transform="translate(9.733 6.2)">
                        <g id="Grupo_103051" data-name="Grupo 103051">
                          <g id="Grupo_103050" data-name="Grupo 103050">
                            <g id="Grupo_103041" data-name="Grupo 103041" transform="translate(13.925)">
                              <g id="Grupo_103036" data-name="Grupo 103036" transform="translate(1.701 2.264)">
                                <g id="Grupo_103035" data-name="Grupo 103035">
                                  <g id="Grupo_103034" data-name="Grupo 103034">
                                    <path id="Trazado_133406" data-name="Trazado 133406" d="M265.494,168.066a2.3,2.3,0,0,1-2.215,2.317,2.2,2.2,0,0,1-2.368-2.071,2.3,2.3,0,0,1,2.213-2.32A2.2,2.2,0,0,1,265.494,168.066Z" transform="translate(-260.91 -165.989)" fill="#263238"/>
                                  </g>
                                </g>
                              </g>
                              <g id="Grupo_103040" data-name="Grupo 103040">
                                <g id="Grupo_103039" data-name="Grupo 103039">
                                  <g id="Grupo_103038" data-name="Grupo 103038">
                                    <g id="Grupo_103037" data-name="Grupo 103037">
                                      <path id="Trazado_133407" data-name="Trazado 133407" d="M268.572,166.516c-.284.3-2.025-.988-4.5-.981-2.47-.029-4.283,1.243-4.552.94-.132-.134.158-.675.949-1.251a6.31,6.31,0,0,1,3.644-1.123,6.061,6.061,0,0,1,3.58,1.155C268.455,165.841,268.712,166.383,268.572,166.516Z" transform="translate(-259.491 -164.102)" fill="#263238"/>
                                    </g>
                                  </g>
                                </g>
                              </g>
                            </g>
                            <g id="Grupo_103045" data-name="Grupo 103045" transform="translate(6.519 0.612)">
                              <g id="Grupo_103044" data-name="Grupo 103044">
                                <g id="Grupo_103043" data-name="Grupo 103043">
                                  <g id="Grupo_103042" data-name="Grupo 103042">
                                    <path id="Trazado_133408" data-name="Trazado 133408" d="M254.475,185.211c-.012-.14,1.526-.405,4.016-.724.631-.065,1.228-.191,1.335-.621a3.213,3.213,0,0,0-.421-1.871q-.891-2.292-1.867-4.807c-2.593-6.844-4.469-12.472-4.193-12.573s2.6,5.363,5.2,12.206q.936,2.531,1.788,4.836a3.661,3.661,0,0,1,.327,2.478,1.585,1.585,0,0,1-1.039.922,4.24,4.24,0,0,1-1.072.149C256.039,185.34,254.484,185.351,254.475,185.211Z" transform="translate(-253.317 -164.612)" fill="#263238"/>
                                  </g>
                                </g>
                              </g>
                            </g>
                            <g id="Grupo_103049" data-name="Grupo 103049" transform="translate(0 22.921)">
                              <g id="Grupo_103048" data-name="Grupo 103048">
                                <g id="Grupo_103047" data-name="Grupo 103047">
                                  <g id="Grupo_103046" data-name="Grupo 103046">
                                    <path id="Trazado_133409" data-name="Trazado 133409" d="M248.283,183.212c.4-.023.407,2.66,2.7,4.565s5.154,1.61,5.174,1.984c.038.169-.637.522-1.844.554a6.679,6.679,0,0,1-4.319-1.5,5.817,5.817,0,0,1-2.1-3.829C247.8,183.861,248.1,183.2,248.283,183.212Z" transform="translate(-247.881 -183.212)" fill="#263238"/>
                                  </g>
                                </g>
                              </g>
                            </g>
                          </g>
                        </g>
                      </g>
                      <g id="Grupo_103055" data-name="Grupo 103055" transform="translate(0 5.199)">
                        <g id="Grupo_103054" data-name="Grupo 103054">
                          <g id="Grupo_103053" data-name="Grupo 103053">
                            <path id="Trazado_133410" data-name="Trazado 133410" d="M249.458,165.452c-.259.655-2.336.173-4.834.33-2.5.1-4.555.789-4.836.163-.124-.3.272-.9,1.129-1.488a7.314,7.314,0,0,1,3.667-1.18,6.951,6.951,0,0,1,3.7.8C249.157,164.579,249.572,165.142,249.458,165.452Z" transform="translate(-239.767 -163.267)" fill="#263238"/>
                          </g>
                        </g>
                      </g>
                      <g id="Grupo_103058" data-name="Grupo 103058" transform="translate(23.074)">
                        <g id="Grupo_103057" data-name="Grupo 103057">
                          <g id="Grupo_103056" data-name="Grupo 103056">
                            <path id="Trazado_133411" data-name="Trazado 133411" d="M269.213,161.494c-.528.561-2.593-.022-5.077-.048-2.482-.1-4.587.377-5.07-.211-.212-.284.119-.847,1.037-1.378a8.164,8.164,0,0,1,4.127-.921,8.035,8.035,0,0,1,4.049,1.129C269.158,160.642,269.446,161.22,269.213,161.494Z" transform="translate(-259.004 -158.933)" fill="#263238"/>
                          </g>
                        </g>
                      </g>
                    </g>
                  </g>
                </g>
              </g>
            </g>
          </g>
          <g id="Grupo_103066" data-name="Grupo 103066" transform="translate(19.19 29.303)">
            <g id="Grupo_103065" data-name="Grupo 103065">
              <path id="Trazado_133412" data-name="Trazado 133412" d="M248.692,169.5c-.088.053-.375-.44-1.081-.936a4.915,4.915,0,0,0-3.148-.846,7.182,7.182,0,0,0-3.154,1.13c-.751.467-1.183.826-1.249.759s.27-.533.993-1.12a6.271,6.271,0,0,1,3.361-1.391,4.712,4.712,0,0,1,3.474,1.124C248.6,168.877,248.757,169.481,248.692,169.5Z" transform="translate(-240.054 -167.085)" fill="#263238"/>
            </g>
          </g>
          <g id="Grupo_103068" data-name="Grupo 103068" transform="translate(18.096 36.517)">
            <g id="Grupo_103067" data-name="Grupo 103067">
              <path id="Trazado_133413" data-name="Trazado 133413" d="M240.429,173.96c-.09.148-.447.092-.8-.122s-.56-.509-.47-.656.447-.091.8.124S240.519,173.814,240.429,173.96Z" transform="translate(-239.142 -173.1)" fill="#e88b79"/>
            </g>
          </g>
          <g id="Grupo_103070" data-name="Grupo 103070" transform="translate(23.428 36.317)">
            <g id="Grupo_103069" data-name="Grupo 103069">
              <path id="Trazado_133414" data-name="Trazado 133414" d="M243.815,174.3c-.17-.024-.266-.349-.212-.726s.234-.662.405-.638.266.349.212.726S243.986,174.322,243.815,174.3Z" transform="translate(-243.587 -172.933)" fill="#e88b79"/>
            </g>
          </g>
          <g id="Grupo_103072" data-name="Grupo 103072" transform="translate(21.192 43.707)">
            <g id="Grupo_103071" data-name="Grupo 103071">
              <path id="Trazado_133415" data-name="Trazado 133415" d="M241.855,180.181c-.157-.072-.176-.369-.042-.664s.372-.479.529-.407.175.368.041.664S242.011,180.251,241.855,180.181Z" transform="translate(-241.723 -179.094)" fill="#e88b79"/>
            </g>
          </g>
          <g id="Grupo_103074" data-name="Grupo 103074" transform="translate(47.88 36.318)">
            <g id="Grupo_103073" data-name="Grupo 103073">
              <path id="Trazado_133416" data-name="Trazado 133416" d="M264.884,173.617c-.1.144-.369.13-.612-.032s-.361-.408-.265-.552.369-.128.612.032S264.98,173.474,264.884,173.617Z" transform="translate(-263.974 -172.934)" fill="#e88b79"/>
            </g>
          </g>
          <g id="Grupo_103076" data-name="Grupo 103076" transform="translate(51.405 35.409)">
            <g id="Grupo_103075" data-name="Grupo 103075">
              <path id="Trazado_133417" data-name="Trazado 133417" d="M267.008,173.368c-.149-.086-.119-.419.067-.741s.459-.517.609-.431.119.419-.067.742S267.158,173.455,267.008,173.368Z" transform="translate(-266.913 -172.176)" fill="#e88b79"/>
            </g>
          </g>
          <g id="Grupo_103078" data-name="Grupo 103078" transform="translate(49.48 41.968)">
            <g id="Grupo_103077" data-name="Grupo 103077">
              <path id="Trazado_133418" data-name="Trazado 133418" d="M265.5,179.4c-.169-.029-.241-.445-.16-.928s.284-.854.455-.825.242.445.161.928S265.671,179.427,265.5,179.4Z" transform="translate(-265.308 -177.645)" fill="#e88b79"/>
            </g>
          </g>
          <g id="Grupo_103080" data-name="Grupo 103080" transform="translate(48.787 48.933)">
            <g id="Grupo_103079" data-name="Grupo 103079">
              <path id="Trazado_133419" data-name="Trazado 133419" d="M264.731,204.481c.022-.047.513.193,1.448.461a10.733,10.733,0,0,0,4.048.353,11.111,11.111,0,0,0,5.508-2.251,10.711,10.711,0,0,0,3.9-6.053,12.428,12.428,0,0,0-.481-7.244,9.52,9.52,0,0,0-3.661-4.636A9.129,9.129,0,0,0,271.7,183.7c-.961-.122-1.507-.06-1.511-.116,0-.022.132-.053.391-.091a6.452,6.452,0,0,1,1.143-.035,8.707,8.707,0,0,1,4,1.274,9.765,9.765,0,0,1,3.962,4.8,12.763,12.763,0,0,1,.554,7.6,11.126,11.126,0,0,1-4.161,6.365,11.253,11.253,0,0,1-5.816,2.232,10.015,10.015,0,0,1-4.163-.56A4.2,4.2,0,0,1,264.731,204.481Z" transform="translate(-264.731 -183.452)" fill="#e8505b"/>
            </g>
          </g>
        </g>
      </g>
      <g id="Grupo_103084" data-name="Grupo 103084" transform="translate(120.094 240.984)" opacity="0.2">
        <g id="Grupo_103083" data-name="Grupo 103083">
          <path id="Trazado_133420" data-name="Trazado 133420" d="M252.291,293.862c.332.16-.453,2.833-3.349,6.187A24.815,24.815,0,0,1,243,305a25.278,25.278,0,0,1-18.49,3.106,24.8,24.8,0,0,1-7.237-2.737c-3.831-2.222-5.448-4.493-5.185-4.752.318-.369,2.4,1.227,6.158,2.769a27.133,27.133,0,0,0,29.133-4.9C250.42,295.808,251.87,293.617,252.291,293.862Z" transform="translate(-212.058 -293.843)"/>
        </g>
      </g>
      <g id="Grupo_103085" data-name="Grupo 103085" transform="translate(100.225 211.73)" opacity="0.2">
        <path id="Trazado_133421" data-name="Trazado 133421" d="M195.493,269.453S216.414,318.3,215.3,324.7s-15.77,27.194-15.77,27.194l10.675-24.5C203.958,306.516,198.777,286.879,195.493,269.453Z" transform="translate(-195.493 -269.453)"/>
      </g>
      <g id="Grupo_103087" data-name="Grupo 103087" transform="translate(255.568 208.149)">
        <g id="Grupo_103086" data-name="Grupo 103086">
          <path id="Trazado_133422" data-name="Trazado 133422" d="M329.652,280.066c-.146.072-1.655-2.8-2.934-6.586s-1.843-6.979-1.683-7.012c.177-.041,1,3.067,2.274,6.811S329.818,279.99,329.652,280.066Z" transform="translate(-325.008 -266.468)" fill="#263238"/>
        </g>
      </g>
      <g id="Grupo_103089" data-name="Grupo 103089" transform="translate(255.556 207.191)">
        <g id="Grupo_103088" data-name="Grupo 103088">
          <path id="Trazado_133423" data-name="Trazado 133423" d="M332.239,276.849c-.128.1-2.115-2.153-4.12-5.262s-3.256-5.842-3.109-5.916,1.64,2.5,3.634,5.576S332.379,276.737,332.239,276.849Z" transform="translate(-324.998 -265.669)" fill="#263238"/>
        </g>
      </g>
      <g id="Grupo_103091" data-name="Grupo 103091" transform="translate(146.599 262.307)">
        <g id="Grupo_103090" data-name="Grupo 103090" transform="translate(0 0)">
          <path id="Trazado_133424" data-name="Trazado 133424" d="M273.9,311.624a11.072,11.072,0,0,1-1.517,1.147l-4.257,2.945-14.074,9.664-14.027,9.738-4.262,2.936a11.141,11.141,0,0,1-1.611,1.012,11.183,11.183,0,0,1,1.468-1.209c.969-.746,2.386-1.805,4.148-3.1,3.525-2.587,8.438-6.1,13.929-9.893s10.515-7.139,14.184-9.517c1.834-1.189,3.326-2.139,4.367-2.78A11.114,11.114,0,0,1,273.9,311.624Z" transform="translate(-234.156 -311.622)" fill="#263238"/>
        </g>
      </g>
      <g id="Grupo_103093" data-name="Grupo 103093" transform="translate(38.891 189.74)">
        <g id="Grupo_103092" data-name="Grupo 103092">
          <path id="Trazado_133425" data-name="Trazado 133425" d="M144.375,263.993c-.157-.048.652-3.1,2.169-6.67s3.132-6.283,3.276-6.2c.16.084-1.205,2.9-2.7,6.446S144.547,264.049,144.375,263.993Z" transform="translate(-144.356 -251.12)" fill="#263238"/>
        </g>
      </g>
      <g id="Grupo_103095" data-name="Grupo 103095" transform="translate(42.776 189.552)">
        <g id="Grupo_103094" data-name="Grupo 103094">
          <path id="Trazado_133426" data-name="Trazado 133426" d="M147.688,269.36a10.981,10.981,0,0,1-.068-2.726c.053-1.68.211-4,.516-6.55s.7-4.842,1.046-6.488a10.908,10.908,0,0,1,.711-2.633,12.952,12.952,0,0,1-.276,2.708c-.234,1.66-.557,3.95-.861,6.486s-.53,4.837-.7,6.5A12.758,12.758,0,0,1,147.688,269.36Z" transform="translate(-147.595 -250.963)" fill="#263238"/>
        </g>
      </g>
    </g>
    <g id="Grupo_103097" data-name="Grupo 103097" transform="translate(296.305 3759.603)">
      <path id="Trazado_133427" data-name="Trazado 133427" d="M254.329,135.314a22.927,22.927,0,0,1-3.921,27.32c-3.635,3.447-8.543,5.808-10.8,10.279-2.377,4.7-1.117,10.383.6,15.367s3.885,10.107,3.16,15.329c-.9,6.483-6.094,11.712-7.2,18.164-2.116,12.342,11.168,23.236,9.622,35.663-.678,5.447-4.12,10.074-7.1,14.682s-5.7,9.966-4.671,15.357c.488,2.563,2.669,4.834,2.428,7.432-.979,10.5-15.831,11.914-17.977,10.074,2.717-5.169-.491-13.2-.81-13.6a11.152,11.152,0,0,1-9.636,8.81,27.084,27.084,0,0,0-.942-11.957,11.9,11.9,0,0,1-8.3,5.6,72.224,72.224,0,0,0-5.046-43.341c-2.145-4.735-4.879-9.636-4.18-14.788.906-6.666,7.159-11.194,10.117-17.237,3.328-6.8,2.208-14.82,1.3-22.334s-1.364-15.771,2.953-21.99c2.632-3.79,6.808-6.419,8.933-10.515,1.975-3.807,1.891-8.326,3.1-12.444,2.183-7.459,7.652-15.878,15-18.419s18.749-5,23.373,2.546" transform="translate(-189.45 -130.257)" fill="#263238"/>
    </g>
    <g id="Grupo_103098" data-name="Grupo 103098" transform="translate(305.391 3876.229)">
      <path id="Trazado_133428" data-name="Trazado 133428" d="M200.32,258.744c-1.805,5.186-3.634,10.551-3.241,16.029s3.6,11.143,8.883,12.659c2.008.577,4.36.622,5.779,2.157a5,5,0,0,1,.772,4.879,14.763,14.763,0,0,1-2.683,4.4,19.152,19.152,0,0,0,8.032-7.116,13.134,13.134,0,0,1-3.324,11.917c4.048.157,7.574-2.632,10.435-5.5,6.525-6.546,12.015-15.187,11.2-24.395-.813-9.167-7.719-17.137-7.692-26.34.01-3.533,1.061-6.99,1.24-10.52s-.77-7.471-3.721-9.417" transform="translate(-197.025 -227.493)" fill="#263238"/>
    </g>
    <g id="Grupo_103099" data-name="Grupo 103099" transform="translate(349.575 3759.601)">
      <path id="Trazado_133429" data-name="Trazado 133429" d="M243.806,135.986a16.445,16.445,0,0,1,14.525-5.625,22.348,22.348,0,0,1,13.931,7.645,35.232,35.232,0,0,1,7.288,14.367,12.738,12.738,0,0,1,.563,4.769,5.194,5.194,0,0,1-2.412,3.98,5.34,5.34,0,0,1-4.8-.116,15.787,15.787,0,0,1-3.927-3.03,7.464,7.464,0,0,1-14.445.548,10.745,10.745,0,0,1-20.457-2.028c-.832-4.175.883-8.475,3.289-11.986s5.505-6.5,7.97-9.971" transform="translate(-233.864 -130.256)" fill="#263238"/>
    </g>
    <g id="Grupo_103101" data-name="Grupo 103101" transform="translate(297.771 3765.264)">
      <g id="Grupo_103100" data-name="Grupo 103100">
        <path id="Trazado_133430" data-name="Trazado 133430" d="M190.674,246.2a14.591,14.591,0,0,0,.9-1.186A9.051,9.051,0,0,0,192.834,241a29.67,29.67,0,0,0-.4-6.734,21.343,21.343,0,0,1-.148-4.268,11.468,11.468,0,0,1,1.415-4.591c1.653-2.995,4.537-5.439,7.681-7.755,1.571-1.171,3.207-2.362,4.742-3.747a17.323,17.323,0,0,0,3.954-4.9,14.289,14.289,0,0,0,1.426-6.413,36.349,36.349,0,0,0-.793-6.941c-.45-2.344-1-4.74-1.243-7.23a19.733,19.733,0,0,1,.493-7.586,11.555,11.555,0,0,1,1.7-3.486,13.43,13.43,0,0,1,2.7-2.7,47.464,47.464,0,0,1,6.369-3.676,19.071,19.071,0,0,0,5.623-4.014,10.612,10.612,0,0,0,2.515-5.977c.275-2.155.2-4.3.254-6.4a21.239,21.239,0,0,1,.886-6.058,20.027,20.027,0,0,1,5.948-9.126,17.952,17.952,0,0,1,8.007-4.1,14.1,14.1,0,0,1,6.791.2,9.558,9.558,0,0,1,3.76,2.073,5.91,5.91,0,0,1,.771.813,1.7,1.7,0,0,1,.23.3c-.035.032-.335-.4-1.084-1.022a9.8,9.8,0,0,0-3.745-1.933,14.006,14.006,0,0,0-6.651-.09,17.7,17.7,0,0,0-7.789,4.09,19.649,19.649,0,0,0-5.744,8.946,20.753,20.753,0,0,0-.832,5.92,63.675,63.675,0,0,1-.233,6.46,11.188,11.188,0,0,1-2.638,6.3,19.555,19.555,0,0,1-5.784,4.161,47.4,47.4,0,0,0-6.281,3.632,12.85,12.85,0,0,0-2.569,2.57,10.9,10.9,0,0,0-1.6,3.3,19.2,19.2,0,0,0-.474,7.346c.234,2.443.777,4.813,1.226,7.177a36.794,36.794,0,0,1,.789,7.061,14.876,14.876,0,0,1-1.51,6.67,17.845,17.845,0,0,1-4.1,5.047c-1.571,1.406-3.225,2.6-4.8,3.755-3.146,2.287-5.984,4.674-7.6,7.555a11.062,11.062,0,0,0-1.406,4.413,21.281,21.281,0,0,0,.1,4.193,29.034,29.034,0,0,1,.3,6.8,8.885,8.885,0,0,1-1.4,4.059A4.815,4.815,0,0,1,190.674,246.2Z" transform="translate(-190.673 -134.977)" fill="#455a64"/>
      </g>
    </g>
    <g id="Grupo_103103" data-name="Grupo 103103" transform="translate(319.851 3777.438)">
      <g id="Grupo_103102" data-name="Grupo 103102">
        <path id="Trazado_133431" data-name="Trazado 133431" d="M215.7,271.706a8.217,8.217,0,0,1-.459-1.419,9.871,9.871,0,0,1,.148-4.266,41.722,41.722,0,0,1,2.3-6.359c.948-2.407,2.135-5.306,1.667-8.553a12.724,12.724,0,0,0-1.865-4.716c-.937-1.526-2.1-3-3.279-4.551a26.941,26.941,0,0,1-3.248-5.138,21.026,21.026,0,0,1,1.153-19.592c2.554-4.168,6.63-7.188,10.175-10.713a25.868,25.868,0,0,0,4.536-5.809,14.656,14.656,0,0,0,1.328-3.322,14.331,14.331,0,0,0,.4-3.492c-.126-4.711-2.007-9.036-2.632-13.419a15.8,15.8,0,0,1,.293-6.461,15.453,15.453,0,0,1,2.867-5.385,40.534,40.534,0,0,1,8.188-7.142,55.027,55.027,0,0,0,7-5.5,20.558,20.558,0,0,0,4.095-5.264,13.665,13.665,0,0,0,1.487-5.475,9.366,9.366,0,0,1-.042,1.49,12.13,12.13,0,0,1-1.228,4.095,20.41,20.41,0,0,1-4.067,5.406,54.2,54.2,0,0,1-6.984,5.607,40.462,40.462,0,0,0-8.042,7.107,14.976,14.976,0,0,0-2.742,5.21,15.259,15.259,0,0,0-.252,6.23c.618,4.286,2.525,8.607,2.673,13.495a14.877,14.877,0,0,1-.411,3.652,15.338,15.338,0,0,1-1.379,3.466,26.4,26.4,0,0,1-4.642,5.954c-3.6,3.568-7.621,6.558-10.1,10.594a20.5,20.5,0,0,0-1.173,19.041,26.6,26.6,0,0,0,3.163,5.056c1.167,1.553,2.33,3.047,3.277,4.612a13.119,13.119,0,0,1,1.89,4.9c.456,3.416-.806,6.351-1.781,8.752a43.493,43.493,0,0,0-2.382,6.284,10.162,10.162,0,0,0-.26,4.187C215.555,271.208,215.733,271.7,215.7,271.706Z" transform="translate(-209.081 -145.128)" fill="#455a64"/>
      </g>
    </g>
    <g id="Grupo_103105" data-name="Grupo 103105" transform="translate(366.085 3766.023)">
      <g id="Grupo_103104" data-name="Grupo 103104">
        <path id="Trazado_133432" data-name="Trazado 133432" d="M270.8,154.989c-.107.014-.337-1.974-.934-5.124a27.635,27.635,0,0,0-1.576-5.365,15.236,15.236,0,0,0-3.853-5.518,11.416,11.416,0,0,0-6.087-2.68,21.971,21.971,0,0,0-5.573.052c-3.176.411-5.124.878-5.147.766a5.929,5.929,0,0,1,1.34-.421,38.214,38.214,0,0,1,3.748-.783,20.868,20.868,0,0,1,5.707-.185,11.747,11.747,0,0,1,6.423,2.78,15.321,15.321,0,0,1,3.972,5.768,25.685,25.685,0,0,1,1.48,5.507c.258,1.6.379,2.9.455,3.8A6.039,6.039,0,0,1,270.8,154.989Z" transform="translate(-247.629 -135.61)" fill="#455a64"/>
      </g>
    </g>
    <g id="Grupo_103107" data-name="Grupo 103107" transform="translate(364.038 3768.177)">
      <g id="Grupo_103106" data-name="Grupo 103106">
        <path id="Trazado_133433" data-name="Trazado 133433" d="M255.421,158.144a31.572,31.572,0,0,1,.263-3.8,24.007,24.007,0,0,0-.729-8.993,12.6,12.6,0,0,0-2.32-4.326,10.3,10.3,0,0,0-3.128-2.5,12.3,12.3,0,0,0-3.585-1.042,2.482,2.482,0,0,1,1.034-.066,7.99,7.99,0,0,1,2.742.71,10.136,10.136,0,0,1,3.373,2.52,12.565,12.565,0,0,1,2.479,4.513,21.966,21.966,0,0,1,.574,9.226c-.146,1.174-.309,2.116-.438,2.762A3.252,3.252,0,0,1,255.421,158.144Z" transform="translate(-245.922 -137.406)" fill="#455a64"/>
      </g>
    </g>
    <g id="Grupo_103108" data-name="Grupo 103108" transform="translate(201.243 3697.574)">
      <path id="Trazado_133434" data-name="Trazado 133434" d="M422.149,123.114V78.541H110.193V469.087H422.149V335.58L400.33,349.949v50.679h-267.2V122.636h267.2v23.086C406.809,141.471,416.293,131.187,422.149,123.114Z" transform="translate(-110.193 -78.541)" fill="#f5f5f5"/>
    </g>
    <g id="Grupo_103125" data-name="Grupo 103125" transform="translate(223.969 3709.56)">
      <g id="Grupo_103115" data-name="Grupo 103115" transform="translate(0 1.438)">
        <g id="Grupo_103114" data-name="Grupo 103114">
          <g id="Grupo_103110" data-name="Grupo 103110" transform="translate(2.017 2.008)">
            <g id="Grupo_103109" data-name="Grupo 103109">
              <path id="Trazado_133435" data-name="Trazado 133435" d="M137.319,97.833a3.331,3.331,0,0,0,1.979-3.086,3.131,3.131,0,1,0-6.249-.017,3.327,3.327,0,0,0,2,3.108,5,5,0,0,0-4.224,3.643,7.071,7.071,0,0,0,4.341,2.328l1.925.006a7.085,7.085,0,0,0,4.4-2.364A4.92,4.92,0,0,0,137.319,97.833Z" transform="translate(-130.822 -91.407)" fill="#455a64"/>
            </g>
          </g>
          <g id="Grupo_103113" data-name="Grupo 103113">
            <g id="Grupo_103112" data-name="Grupo 103112">
              <g id="Grupo_103111" data-name="Grupo 103111">
                <path id="Trazado_133436" data-name="Trazado 133436" d="M136.489,104.218c0-.06.634-.036,1.709-.329a7.088,7.088,0,0,0,3.781-2.606,6.925,6.925,0,0,0,.93-6.519,6.786,6.786,0,0,0-2.4-3.168,6.822,6.822,0,0,0-8.083.016,6.794,6.794,0,0,0-2.39,3.177,6.927,6.927,0,0,0,.956,6.516,7.092,7.092,0,0,0,3.791,2.591c1.077.289,1.713.261,1.709.321a1.408,1.408,0,0,1-.456.034,5.606,5.606,0,0,1-1.3-.149,7.072,7.072,0,0,1-4.046-2.562,7.2,7.2,0,0,1-1.408-3.061,7.329,7.329,0,0,1,.285-3.861,7.242,7.242,0,0,1,2.545-3.438,7.315,7.315,0,0,1,8.717-.017,7.284,7.284,0,0,1,1.464,10.352,7.082,7.082,0,0,1-4.036,2.579,5.528,5.528,0,0,1-1.3.154A1.445,1.445,0,0,1,136.489,104.218Z" transform="translate(-129.14 -89.733)" fill="#455a64"/>
              </g>
            </g>
          </g>
        </g>
      </g>
      <g id="Grupo_103122" data-name="Grupo 103122" transform="translate(264.156)">
        <g id="Grupo_103117" data-name="Grupo 103117">
          <g id="Grupo_103116" data-name="Grupo 103116">
            <path id="Trazado_133437" data-name="Trazado 133437" d="M352.49,90.07a1.556,1.556,0,1,1-1.576-1.536A1.556,1.556,0,0,1,352.49,90.07Z" transform="translate(-349.378 -88.534)" fill="#455a64"/>
          </g>
        </g>
        <g id="Grupo_103119" data-name="Grupo 103119" transform="translate(0.072 5.598)">
          <g id="Grupo_103118" data-name="Grupo 103118">
            <path id="Trazado_133438" data-name="Trazado 133438" d="M352.549,94.736a1.556,1.556,0,1,1-1.575-1.535A1.557,1.557,0,0,1,352.549,94.736Z" transform="translate(-349.438 -93.201)" fill="#455a64"/>
          </g>
        </g>
        <g id="Grupo_103121" data-name="Grupo 103121" transform="translate(0.143 11.194)">
          <g id="Grupo_103120" data-name="Grupo 103120">
            <path id="Trazado_133439" data-name="Trazado 133439" d="M352.609,99.4a1.556,1.556,0,1,1-1.576-1.536A1.556,1.556,0,0,1,352.609,99.4Z" transform="translate(-349.497 -97.867)" fill="#455a64"/>
          </g>
        </g>
      </g>
      <g id="Grupo_103124" data-name="Grupo 103124" transform="translate(22.607 8.644)">
        <g id="Grupo_103123" data-name="Grupo 103123">
          <path id="Trazado_133440" data-name="Trazado 133440" d="M285.332,96.054c0,.173-30.747.312-68.668.312s-68.675-.139-68.675-.312,30.741-.313,68.675-.313S285.332,95.881,285.332,96.054Z" transform="translate(-147.989 -95.741)" fill="#263238"/>
        </g>
      </g>
    </g>
    <g id="Grupo_103136" data-name="Grupo 103136" transform="translate(226.556 4033.02)">
      <g id="Grupo_103127" data-name="Grupo 103127" transform="translate(30.012 3.268)">
        <g id="Grupo_103126" data-name="Grupo 103126">
          <path id="Trazado_133441" data-name="Trazado 133441" d="M172.427,378.653l-3.162-1.407a7.995,7.995,0,1,1,2.429-1.751Zm-7.4-17.11a8.176,8.176,0,1,0,.146,16.35,8.429,8.429,0,0,0,3.935-1.245l.132-.073,2.329,1.037-.529-2.29.106-.115a8.166,8.166,0,0,0-6.119-13.665Z" transform="translate(-156.32 -360.941)" fill="#263238"/>
        </g>
      </g>
      <g id="Grupo_103129" data-name="Grupo 103129" transform="translate(56.006 4.439)">
        <g id="Grupo_103128" data-name="Grupo 103128">
          <path id="Trazado_133442" data-name="Trazado 133442" d="M188.419,377.084l-3.628-8.836-6.8-6.183,16.473-.148Zm-8.888-14.431,5.79,5.3,3.091,7.526,5.165-12.956Z" transform="translate(-177.992 -361.917)" fill="#263238"/>
        </g>
      </g>
      <g id="Grupo_103131" data-name="Grupo 103131" transform="translate(62.892 4.491)">
        <g id="Grupo_103130" data-name="Grupo 103130">
          <rect id="Rectngulo_36629" data-name="Rectngulo 36629" width="10.716" height="0.602" transform="matrix(0.838, -0.546, 0.546, 0.838, 0, 5.852)" fill="#263238"/>
        </g>
      </g>
      <g id="Grupo_103133" data-name="Grupo 103133" transform="translate(250.585)">
        <g id="Grupo_103132" data-name="Grupo 103132">
          <path id="Trazado_133443" data-name="Trazado 133443" d="M353.686,378.1l-6.877-6.755-6.412,6.531-.175-19.542,13.287-.119ZM346.8,370.5l.216.21,6.055,5.949-.16-17.832-12.084.108.156,17.489Z" transform="translate(-340.221 -358.216)" fill="#263238"/>
        </g>
      </g>
      <g id="Grupo_103135" data-name="Grupo 103135" transform="translate(0 2.375)">
        <g id="Grupo_103134" data-name="Grupo 103134">
          <path id="Trazado_133444" data-name="Trazado 133444" d="M151.482,364.286a5.1,5.1,0,0,0-10.048.345,5.1,5.1,0,0,0-10.052-.166,6.876,6.876,0,0,0,1.257,4.956,20.406,20.406,0,0,0,3.61,3.782c1.836,1.619,3.533,3.142,5.37,4.762,1.808-1.652,3.345-3.2,5.151-4.856a20.412,20.412,0,0,0,3.543-3.844A6.883,6.883,0,0,0,151.482,364.286Z" transform="translate(-131.298 -360.196)" fill="#fc8116"/>
        </g>
      </g>
    </g>
    <g id="Grupo_103137" data-name="Grupo 103137" transform="translate(201.243 3823.355)">
      <path id="Trazado_133445" data-name="Trazado 133445" d="M110.193,205.157c1.323.946,1.9,1.524,3.194,2.5s3.1,1.583,4.547.837c1.539-.8,2.045-2.805,1.816-4.522s-1.005-3.315-1.351-5.014a2.524,2.524,0,0,0,2.941-.855,4.135,4.135,0,0,0,.662-3.151,12.269,12.269,0,0,0-1.079-3.118c.392.634,1.472.4,1.841-.251a2.989,2.989,0,0,0,.06-2.182,9.088,9.088,0,0,0-2.567-4.81,4.322,4.322,0,0,0-5.109-.587c-1.214.842-3.409,2.079-3.766,3.512-1.265,5.065-.832,12.525-1.189,17.733" transform="translate(-110.193 -183.41)" fill="#e0e0e0"/>
    </g>
    <g id="Grupo_103138" data-name="Grupo 103138" transform="translate(479.949 3831.97)">
      <path id="Trazado_133446" data-name="Trazado 133446" d="M350.316,190.805a2.787,2.787,0,0,1,1.552,3.542c-.994,2.693-2.6,6.919-3.8,9.479a7.09,7.09,0,0,1-1.476,2.281,2.285,2.285,0,0,1-4.017-1.616,7.294,7.294,0,0,1,.537-2.815c.848-2.518,2.31-6.285,3.561-9.349a2.787,2.787,0,0,1,3.646-1.522Z" transform="translate(-342.562 -190.593)" fill="#ffad9d"/>
    </g>
    <g id="Grupo_103139" data-name="Grupo 103139" transform="translate(483.877 3836.937)">
      <path id="Trazado_133447" data-name="Trazado 133447" d="M353.593,194.946a2.786,2.786,0,0,1,1.551,3.542c-.994,2.693-2.6,6.918-3.8,9.479a7.087,7.087,0,0,1-1.475,2.281,2.286,2.286,0,0,1-4.018-1.616,7.3,7.3,0,0,1,.539-2.815c.848-2.519,2.31-6.285,3.561-9.349a2.785,2.785,0,0,1,3.646-1.522Z" transform="translate(-345.837 -194.734)" fill="#ffad9d"/>
    </g>
    <g id="Grupo_103140" data-name="Grupo 103140" transform="translate(488.617 3840.116)">
      <path id="Trazado_133448" data-name="Trazado 133448" d="M356.5,197.569a2.413,2.413,0,0,1,1.343,3.067c-.861,2.332-2.253,5.991-3.294,8.208a6.13,6.13,0,0,1-1.279,1.977,1.979,1.979,0,0,1-3.478-1.4,6.313,6.313,0,0,1,.467-2.437c.734-2.181,2-5.443,3.082-8.1a2.413,2.413,0,0,1,3.158-1.318Z" transform="translate(-349.789 -197.385)" fill="#ffad9d"/>
    </g>
    <g id="Grupo_103141" data-name="Grupo 103141" transform="translate(493.357 3841.175)">
      <path id="Trazado_133449" data-name="Trazado 133449" d="M360.488,198.453a2.422,2.422,0,0,1,1.349,3.08c-.865,2.344-2.262,6.02-3.308,8.247a6.171,6.171,0,0,1-1.285,1.985,1.988,1.988,0,0,1-3.5-1.406,6.356,6.356,0,0,1,.468-2.449c.738-2.19,2.01-5.467,3.1-8.134a2.423,2.423,0,0,1,3.172-1.323Z" transform="translate(-353.741 -198.267)" fill="#ffad9d"/>
    </g>
    <g id="Grupo_103143" data-name="Grupo 103143" transform="translate(484.219 3837.771)">
      <g id="Grupo_103142" data-name="Grupo 103142">
        <path id="Trazado_133450" data-name="Trazado 133450" d="M346.141,205.251c-.158-.07.674-2.323,1.859-5.035s2.273-4.855,2.431-4.786-.674,2.323-1.859,5.035S346.3,205.319,346.141,205.251Z" transform="translate(-346.122 -195.429)" fill="#e88b79"/>
      </g>
    </g>
    <g id="Grupo_103145" data-name="Grupo 103145" transform="translate(488.511 3840.456)">
      <g id="Grupo_103144" data-name="Grupo 103144">
        <path id="Trazado_133451" data-name="Trazado 133451" d="M349.718,208.928c-.161-.065.754-2.639,2.043-5.75s2.461-5.578,2.618-5.509-.757,2.643-2.043,5.751S349.878,208.992,349.718,208.928Z" transform="translate(-349.7 -197.668)" fill="#e88b79"/>
      </g>
    </g>
    <g id="Grupo_103147" data-name="Grupo 103147" transform="translate(493 3842.352)">
      <g id="Grupo_103146" data-name="Grupo 103146">
        <path id="Trazado_133452" data-name="Trazado 133452" d="M353.46,209.16c-.158-.083.835-2.268,1.968-5s1.993-4.969,2.163-4.915-.434,2.4-1.586,5.155S353.606,209.239,353.46,209.16Z" transform="translate(-353.443 -199.248)" fill="#e88b79"/>
      </g>
    </g>
    <g id="Grupo_103149" data-name="Grupo 103149" transform="translate(200.93 3697.298)">
      <g id="Grupo_103148" data-name="Grupo 103148">
        <path id="Trazado_133453" data-name="Trazado 133453" d="M422.2,123.159s-.019-.955-.029-2.844-.016-4.717-.029-8.455c-.012-7.486-.03-18.627-.053-33.274l.11.11-311.956.164.276-.275c.011,92.577.023,200.246.036,314.588,0,25.736,0,51.133,0,75.957l-.311-.309,311.956.055-.255.254c.046-85.9.084-156.712.109-206.059.03-24.667.054-43.968.07-57.108.017-6.564.029-11.588.037-14.977s.04-5.125.04-5.125.026,1.742.038,5.125.022,8.413.037,14.977c.017,13.14.04,32.441.07,57.108.026,49.347.064,120.163.109,206.059v.255H422.2l-311.956.055h-.311v-.311c0-24.823,0-50.221,0-75.957.014-114.342.026-222.011.037-314.588v-.276h.276l311.956.166h.11v.11c-.024,14.647-.042,25.789-.054,33.274q-.018,5.606-.028,8.455C422.22,122.2,422.2,123.159,422.2,123.159Z" transform="translate(-109.932 -78.311)" fill="#263238"/>
      </g>
    </g>
    <g id="Grupo_103161" data-name="Grupo 103161" transform="translate(194 3813.219)">
      <g id="Grupo_103154" data-name="Grupo 103154">
        <g id="Grupo_103150" data-name="Grupo 103150" transform="translate(0.61 19.058)">
          <path id="Trazado_133454" data-name="Trazado 133454" d="M104.917,192.11a2.479,2.479,0,0,1,3.467-.889c2.028,1.28,4.228,2.644,6.135,3.873a6.473,6.473,0,0,1,2.2,1.909,1.968,1.968,0,0,1-.371,2.6,3.17,3.17,0,0,1-2.915-.07c-.3-.119-5.071-3-7.719-4.6a2.1,2.1,0,0,1-.8-2.82Z" transform="translate(-104.663 -190.848)" fill="#ffad9d"/>
        </g>
        <g id="Grupo_103151" data-name="Grupo 103151" transform="translate(0 12.235)">
          <path id="Trazado_133455" data-name="Trazado 133455" d="M104.453,186.646a2.714,2.714,0,0,1,3.98-.993c2.314,1.626,4.824,3.361,7,4.92a7.8,7.8,0,0,1,2.506,2.4,2.514,2.514,0,0,1-.443,3.175c-.948.685-2.273.315-3.338-.167-.338-.154-5.79-3.819-8.812-5.859a2.707,2.707,0,0,1-.894-3.48Z" transform="translate(-104.154 -185.16)" fill="#ffad9d"/>
        </g>
        <g id="Grupo_103152" data-name="Grupo 103152" transform="translate(0.981 6.676)">
          <path id="Trazado_133456" data-name="Trazado 133456" d="M105.287,181.979a2.714,2.714,0,0,1,3.993-.939c2.291,1.656,4.778,3.423,6.935,5.012a7.807,7.807,0,0,1,2.473,2.437,2.514,2.514,0,0,1-.485,3.169c-.957.672-2.278.284-3.336-.212-.337-.157-5.738-3.9-8.734-5.975a2.707,2.707,0,0,1-.847-3.491Z" transform="translate(-104.972 -180.525)" fill="#ffad9d"/>
        </g>
        <g id="Grupo_103153" data-name="Grupo 103153" transform="translate(1.511)">
          <path id="Trazado_133457" data-name="Trazado 133457" d="M105.745,176.667a3,3,0,0,1,4.47-1.133c2.609,1.882,5.438,3.89,7.893,5.695a8.954,8.954,0,0,1,2.827,2.78,2.947,2.947,0,0,1-.483,3.661c-1.064.787-2.555.356-3.755-.2-.38-.178-6.525-4.422-9.934-6.784a3.181,3.181,0,0,1-1.018-4.016Z" transform="translate(-105.414 -174.959)" fill="#ffad9d"/>
        </g>
      </g>
      <g id="Grupo_103156" data-name="Grupo 103156" transform="translate(4.236 6.668)">
        <g id="Grupo_103155" data-name="Grupo 103155">
          <path id="Trazado_133458" data-name="Trazado 133458" d="M117.076,187.092c-.1.142-2.281-1.214-4.872-3.026s-4.614-3.4-4.515-3.537,2.28,1.213,4.872,3.026S117.175,186.95,117.076,187.092Z" transform="translate(-107.686 -180.519)" fill="#e88b79"/>
        </g>
      </g>
      <g id="Grupo_103158" data-name="Grupo 103158" transform="translate(3.149 12.323)">
        <g id="Grupo_103157" data-name="Grupo 103157">
          <path id="Trazado_133459" data-name="Trazado 133459" d="M115.729,191.157c-.095.144-2.175-1.063-4.644-2.7s-4.4-3.073-4.3-3.217,2.175,1.063,4.645,2.7S115.824,191.013,115.729,191.157Z" transform="translate(-106.78 -185.233)" fill="#e88b79"/>
        </g>
      </g>
      <g id="Grupo_103160" data-name="Grupo 103160" transform="translate(3.261 18.625)">
        <g id="Grupo_103159" data-name="Grupo 103159">
          <path id="Trazado_133460" data-name="Trazado 133460" d="M115.822,196.411c-.1.144-2.176-1.063-4.645-2.7s-4.395-3.073-4.3-3.217,2.175,1.063,4.644,2.7S115.917,196.267,115.822,196.411Z" transform="translate(-106.873 -190.487)" fill="#e88b79"/>
        </g>
      </g>
    </g>
    <g id="Grupo_103163" data-name="Grupo 103163" transform="translate(223.871 3741.377)">
      <g id="Grupo_103162" data-name="Grupo 103162">
        <path id="Trazado_133461" data-name="Trazado 133461" d="M396.568,138.44s-.017-.5-.025-1.486-.014-2.464-.025-4.4c-.011-3.893-.026-9.662-.048-17.2l.1.1-267.2.193.29-.291c.007,50.574.014,106.091.022,164.147,0,39.334-.007,77.5-.01,113.845l-.3-.3,267.2.133-.169.169c.034-23.341.061-41.7.079-54.224.019-6.255.034-11.054.044-14.3q.014-2.42.023-3.668c.007-.822.023-1.24.023-1.24s.016.419.023,1.24.013,2.055.023,3.668c.011,3.244.025,8.043.044,14.3.018,12.529.046,30.884.079,54.224v.17h-.17l-267.2.133h-.3v-.3c0-36.346-.007-74.511-.011-113.845.008-58.056.016-113.573.022-164.147v-.291h.291l267.2.193h.1v.1c-.022,7.536-.037,13.305-.048,17.2q-.016,2.907-.025,4.4C396.585,137.94,396.568,138.44,396.568,138.44Z" transform="translate(-129.059 -115.062)" fill="#263238"/>
      </g>
    </g>
    <g id="Grupo_103165" data-name="Grupo 103165" transform="translate(491.068 3810.375)">
      <g id="Grupo_103164" data-name="Grupo 103164">
        <path id="Trazado_133462" data-name="Trazado 133462" d="M352.144,199.363c-.173,0-.312-5.995-.312-13.387s.139-13.388.312-13.388.312,5.992.312,13.388S352.317,199.363,352.144,199.363Z" transform="translate(-351.832 -172.588)" fill="#263238"/>
      </g>
    </g>
  </g>
</svg>
