<svg xmlns="http://www.w3.org/2000/svg" width="432.907" height="464.527" viewBox="0 0 432.907 464.527">
  <g id="Grupo_102901" data-name="Grupo 102901" transform="translate(-39.4 13.743)">
    <g id="Background_Simple" data-name="Background Simple">
      <g id="Grupo_102856" data-name="Grupo 102856">
        <path id="Trazado_133287" data-name="Trazado 133287" d="M61.429,148.124s-40.476,61.047-11.7,153.125,112.439,115.57,162.077,89.969,56.883-58.844,96.965-83,122.843-23.3,154.7-89.735S429.274,58.918,354.436,5.293,117.146,15.119,61.429,148.124Z" fill="#92e3a9"/>
        <path id="Trazado_133288" data-name="Trazado 133288" d="M61.429,148.124s-40.476,61.047-11.7,153.125,112.439,115.57,162.077,89.969,56.883-58.844,96.965-83,122.843-23.3,154.7-89.735S429.274,58.918,354.436,5.293,117.146,15.119,61.429,148.124Z" fill="#fff" opacity="0.7"/>
      </g>
    </g>
    <g id="Character" transform="translate(114.266)">
      <g id="Grupo_102900" data-name="Grupo 102900">
        <g id="Grupo_102867" data-name="Grupo 102867">
          <g id="Grupo_102857" data-name="Grupo 102857">
            <path id="Trazado_133289" data-name="Trazado 133289" d="M210.913,249.028s-64.2.856-66.193,5.421-11.128,59.917-11.7,79.033-.856,31.67,1.141,33.953,33.1,20.257,33.1,20.257-14.552,51.072-9.986,52.784,32.526,8.845,50.5,9.13,35.664.285,37.091.285,47.363,1.712,63.34-2,20.829-3.994,20.829-10.271-3.995-13.981-4.28-15.407,10.842-109.562,4.565-136.1-14.551-36.806-20.828-38.518-51.072-.57-51.072-.57Z" fill="#92e3a9"/>
            <path id="Trazado_133290" data-name="Trazado 133290" d="M269.495,450.784c-7.042,0-14.814-.118-23.238-.356-.783-.023-1.264-.036-1.391-.036-3.193,0-19.987-.014-37.1-.286-18.267-.291-46.226-7.5-50.669-9.163-.977-.366-3.265-1.224,2.97-27.616,2.744-11.613,5.982-23.189,6.605-25.4-3.551-2.056-30.948-17.952-32.887-20.167-2.11-2.411-1.87-14.008-1.264-34.3.577-19.325,9.855-74.911,11.739-79.218,2.024-4.625,55.846-5.577,66.639-5.721l46.5-2c1.84-.047,44.949-1.124,51.224.588,3.853,1.051,13.627,6.943,21.183,38.885,5.171,21.858-1.326,97.731-3.773,126.294-.47,5.492-.81,9.461-.783,9.854a21.669,21.669,0,0,0,.776,2.046c1.225,3.021,3.508,8.642,3.508,13.425,0,5.96-4.076,6.88-16.174,9.609-1.542.348-3.219.727-5.041,1.15C301.493,449.966,288.034,450.784,269.495,450.784ZM285.839,247.16c-13.592,0-28.151.364-28.406.371l-46.5,2h-.015c-24.7.329-64.381,2.011-65.743,5.121-1.869,4.274-11.081,59.589-11.655,78.847-.5,16.836-.937,31.376,1.017,33.609,1.594,1.822,24.341,15.166,32.971,20.155a.5.5,0,0,1,.231.569c-7.091,24.887-12.879,51.208-10.292,52.179,4.412,1.654,32.182,8.809,50.334,9.1,17.1.272,33.891.286,37.083.286.129,0,.62.013,1.419.036,30.517.864,52.47.147,61.808-2.021,1.824-.423,3.5-.8,5.047-1.15,11.825-2.668,15.394-3.474,15.394-8.634,0-4.588-2.235-10.092-3.435-13.049a17.391,17.391,0,0,1-.834-2.261c-.06-.3.083-2.051.772-10.1,2.443-28.52,8.93-104.276,3.8-125.979-7.432-31.421-16.793-37.147-20.473-38.15C305.728,247.366,296.056,247.16,285.839,247.16Zm-74.926,1.868h0Z" fill="#263238"/>
          </g>
          <g id="Grupo_102858" data-name="Grupo 102858">
            <path id="Trazado_133291" data-name="Trazado 133291" d="M238.427,275.843a.5.5,0,0,1-.2-.96,60.321,60.321,0,0,0,6.622-3.33.5.5,0,0,1,.5.865,61.35,61.35,0,0,1-6.732,3.385A.506.506,0,0,1,238.427,275.843Z" fill="#263238"/>
          </g>
          <g id="Grupo_102859" data-name="Grupo 102859">
            <path id="Trazado_133292" data-name="Trazado 133292" d="M248.122,270.625a.5.5,0,0,1-.274-.919,83.471,83.471,0,0,0,20.635-19.575.5.5,0,1,1,.821.57A84.549,84.549,0,0,1,248.4,270.544.5.5,0,0,1,248.122,270.625Z" fill="#263238"/>
          </g>
          <g id="Grupo_102860" data-name="Grupo 102860">
            <path id="Trazado_133293" data-name="Trazado 133293" d="M254.007,273.42a.5.5,0,0,1-.236-.941c5.028-2.682,10.848-10.845,10.906-10.927a.5.5,0,0,1,.816.578c-.243.343-6.014,8.437-11.251,11.231A.5.5,0,0,1,254.007,273.42Z" fill="#263238"/>
          </g>
          <g id="Grupo_102861" data-name="Grupo 102861">
            <path id="Trazado_133294" data-name="Trazado 133294" d="M224.293,353.756a.5.5,0,0,1-.476-.347l-1.682-5.222a.5.5,0,0,1,.953-.307l1.681,5.223a.5.5,0,0,1-.323.628A.476.476,0,0,1,224.293,353.756Z" fill="#263238"/>
          </g>
          <g id="Grupo_102862" data-name="Grupo 102862">
            <path id="Trazado_133295" data-name="Trazado 133295" d="M233.453,382.2a.5.5,0,0,1-.476-.346l-7.438-23.1a.5.5,0,0,1,.952-.307l7.438,23.1a.5.5,0,0,1-.322.629A.515.515,0,0,1,233.453,382.2Z" fill="#263238"/>
          </g>
          <g id="Grupo_102863" data-name="Grupo 102863">
            <path id="Trazado_133296" data-name="Trazado 133296" d="M235.735,382.771a.5.5,0,0,1-.421-.767l7.418-11.7a.5.5,0,1,1,.844.535l-7.418,11.7A.5.5,0,0,1,235.735,382.771Z" fill="#263238"/>
          </g>
          <g id="Grupo_102864" data-name="Grupo 102864">
            <path id="Trazado_133297" data-name="Trazado 133297" d="M252.569,375.924a.5.5,0,0,1-.374-.832l17.976-20.258a.5.5,0,1,1,.748.664l-17.976,20.258A.5.5,0,0,1,252.569,375.924Z" fill="#263238"/>
          </g>
          <g id="Grupo_102865" data-name="Grupo 102865">
            <path id="Trazado_133298" data-name="Trazado 133298" d="M244.866,450.392a.526.526,0,0,1-.14-.02L206.037,439.1a.5.5,0,0,1,.281-.961l38.688,11.275a.5.5,0,0,1-.14.981Z" fill="#263238"/>
          </g>
          <g id="Grupo_102866" data-name="Grupo 102866">
            <path id="Trazado_133299" data-name="Trazado 133299" d="M201.579,437.776a.524.524,0,0,1-.14-.019L194.8,435.82a.5.5,0,0,1,.28-.961l6.643,1.937a.5.5,0,0,1-.14.98Z" fill="#263238"/>
          </g>
        </g>
        <g id="Grupo_102868" data-name="Grupo 102868">
          <path id="Trazado_133300" data-name="Trazado 133300" d="M210.515,122.133s-20.16-4.631-23.974.545,3.814,10.08,2.724,11.17-24.518,13.077-22.611,24.791,17.708,23.7,18.252,26.971-18.252,4.359-20.7,9.263-5.994,28.06,14.438,35.688,46.041-5.176,53.125-5.176,14.166,13.894,22.339,13.077a19.814,19.814,0,0,0,12.8-6.811s8.446,11.714,20.705,6.811,26.426-22.067,20.432-27.244-12.8-6.81-8.445-11.442,13.349-16.89,11.987-27.515-13.894-11.442-18.8-14.711,5.449-8.718,5.176-17.708-6.81-23.974-40.047-34.054-49.583-5.177-51.217,3.269A13.966,13.966,0,0,0,210.515,122.133Z" fill="#263238"/>
          <path id="Trazado_133301" data-name="Trazado 133301" d="M281.659,240.152c-7.794,0-13.291-5.933-14.763-7.712a20.214,20.214,0,0,1-12.742,6.519c-4.554.461-8.67-3.326-12.644-6.984-3.4-3.132-6.617-6.09-9.745-6.09-1.917,0-5.343,1-9.681,2.272-11.454,3.351-28.766,8.418-43.619,2.872-7.094-2.648-12.017-7.36-14.631-14-3.507-8.911-1.782-18.971-.079-22.377,1.395-2.792,7.357-4.347,12.618-5.719,3.663-.956,8.222-2.145,8.04-3.238-.163-.981-2.261-3.247-4.69-5.872-4.894-5.288-12.29-13.279-13.563-21.1-1.668-10.248,14.754-20.287,20.936-24.067.865-.528,1.681-1.028,1.816-1.159a12.168,12.168,0,0,0-1.1-1.56c-1.66-2.167-4.439-5.793-1.669-9.552,3.36-4.56,18.023-2.054,22.918-1.07a14.7,14.7,0,0,1-2.847-12.351,9.266,9.266,0,0,1,4.659-6.08c8.335-5.026,25.537-4.141,47.194,2.428,34.561,10.482,40.148,26.125,40.4,34.517.137,4.524-2.288,8.135-4.236,11.036-1.326,1.973-2.47,3.678-2.227,4.9a2.207,2.207,0,0,0,1.065,1.367,27.53,27.53,0,0,0,5.273,2.34c5.666,2.1,12.717,4.717,13.743,12.724,1.34,10.453-6.987,22.47-12.119,27.922a3.422,3.422,0,0,0-1.236,2.565c.164,1.457,2.134,2.781,4.629,4.458a50.929,50.929,0,0,1,5.015,3.7,5.246,5.246,0,0,1,1.475,5.112c-1.258,7.514-12.385,19.109-22.049,22.974A16.418,16.418,0,0,1,281.659,240.152Zm-14.751-9h.009a.5.5,0,0,1,.4.207c.082.114,8.366,11.338,20.113,6.639,9.4-3.762,20.221-14.971,21.433-22.21a4.252,4.252,0,0,0-1.142-4.19,49.812,49.812,0,0,0-4.92-3.625c-2.709-1.821-4.848-3.26-5.063-5.176a4.305,4.305,0,0,1,1.5-3.362c4.667-4.959,13.152-17.006,11.856-27.11-.949-7.407-7.686-9.9-13.1-11.913a28.074,28.074,0,0,1-5.48-2.446,3.145,3.145,0,0,1-1.491-2c-.324-1.633.868-3.408,2.377-5.655,1.869-2.783,4.195-6.246,4.067-10.449-.246-8.123-5.73-23.29-39.692-33.59-21.387-6.486-38.3-7.408-46.387-2.529a8.306,8.306,0,0,0-4.194,5.415,13.6,13.6,0,0,0,3.647,12.6.5.5,0,0,1-.436.868c-5.52-1.267-20.491-3.674-23.46.354-2.324,3.154-.022,6.157,1.658,8.35.981,1.28,1.69,2.205,1.018,2.877a15.932,15.932,0,0,1-2,1.305c-5.448,3.331-22.03,13.468-20.47,23.052,1.225,7.524,8.5,15.382,13.31,20.582,2.848,3.078,4.73,5.111,4.943,6.387.332,1.994-3.488,2.99-8.774,4.369-4.805,1.254-10.784,2.813-11.977,5.2-1.582,3.165-3.235,13.051.115,21.564,2.506,6.368,7.233,10.887,14.051,13.433,14.542,5.428,31.66.419,42.988-2.9,4.415-1.292,7.9-2.312,9.962-2.312,3.518,0,6.872,3.087,10.422,6.354,3.812,3.509,7.752,7.135,11.867,6.725a19.474,19.474,0,0,0,12.459-6.619A.5.5,0,0,1,266.908,231.151Z" fill="#263238"/>
        </g>
        <g id="Grupo_102869" data-name="Grupo 102869">
          <path id="Trazado_133302" data-name="Trazado 133302" d="M214.138,209.541s-6.81,42.5-7.083,43.861,11.987,13.622,28.605,11.442a39.35,39.35,0,0,0,25.064-13.349l-5.176-42.226s-14.167,6.81-22.884,6.538S214.138,209.541,214.138,209.541Z" fill="#fff"/>
          <path id="Trazado_133303" data-name="Trazado 133303" d="M231.742,265.6a34.668,34.668,0,0,1-23.791-9.95c-1.529-1.634-1.425-2.152-1.386-2.346.268-1.338,7.011-43.418,7.08-43.843a.5.5,0,0,1,.754-.348c.1.059,9.8,5.928,18.28,6.194,8.492.24,22.512-6.422,22.652-6.49a.5.5,0,0,1,.713.39l5.176,42.227a.5.5,0,0,1-.1.362,40.243,40.243,0,0,1-25.4,13.544A30.729,30.729,0,0,1,231.742,265.6Zm-17.226-55.258c-.927,5.788-6.716,41.883-6.97,43.157.215,1.235,11.833,12.973,28.049,10.849a39.424,39.424,0,0,0,24.607-13l-5.066-41.334c-2.877,1.328-14.686,6.534-22.488,6.293C225.075,216.07,216.853,211.68,214.516,210.343Z" fill="#263238"/>
        </g>
        <g id="Grupo_102870" data-name="Grupo 102870">
          <path id="Trazado_133304" data-name="Trazado 133304" d="M211.343,232.342l28.683-5.552-25.887-17.25Z" fill="#263238"/>
          <path id="Trazado_133305" data-name="Trazado 133305" d="M211.343,232.842a.5.5,0,0,1-.5-.561l2.795-22.8a.5.5,0,0,1,.288-.394.507.507,0,0,1,.486.039l25.887,17.25a.5.5,0,0,1-.182.907l-28.682,5.551A.519.519,0,0,1,211.343,232.842Zm3.193-22.435-2.613,21.314,26.812-5.189Z" fill="#263238"/>
        </g>
        <g id="Grupo_102880" data-name="Grupo 102880">
          <g id="Grupo_102871" data-name="Grupo 102871">
            <path id="Trazado_133306" data-name="Trazado 133306" d="M199,172.071s-4.8-6.079-7.039,1.6,7.358,16.957,7.358,16.957Z" fill="#fff"/>
            <path id="Trazado_133307" data-name="Trazado 133307" d="M199.318,191.127a.5.5,0,0,1-.348-.14c-.4-.387-9.789-9.579-7.491-17.457.729-2.5,1.83-3.911,3.272-4.192,2.337-.453,4.546,2.306,4.639,2.423a.5.5,0,0,1,.108.3l.32,18.557a.5.5,0,0,1-.3.467A.5.5,0,0,1,199.318,191.127Zm-4.042-20.839a1.705,1.705,0,0,0-.335.032c-1.03.2-1.895,1.408-2.5,3.491-1.733,5.942,4.085,13.058,6.357,15.546l-.295-17.1C197.929,171.582,196.549,170.288,195.276,170.288Z" fill="#263238"/>
          </g>
          <g id="Grupo_102872" data-name="Grupo 102872">
            <path id="Trazado_133308" data-name="Trazado 133308" d="M267.767,172.071s4.8-6.079,7.039,1.6-7.359,16.957-7.359,16.957Z" fill="#fff"/>
            <path id="Trazado_133309" data-name="Trazado 133309" d="M267.447,191.127a.5.5,0,0,1-.5-.508l.32-18.557a.5.5,0,0,1,.107-.3c.093-.117,2.312-2.877,4.639-2.423,1.442.281,2.543,1.691,3.273,4.192,2.3,7.878-7.091,17.07-7.491,17.457A.5.5,0,0,1,267.447,191.127Zm.817-18.873-.3,17.1c2.272-2.488,8.09-9.6,6.357-15.546-.608-2.083-1.473-3.29-2.5-3.491C270.471,170.056,268.886,171.523,268.264,172.254Z" fill="#263238"/>
          </g>
          <g id="Grupo_102873" data-name="Grupo 102873">
            <path id="Trazado_133310" data-name="Trazado 133310" d="M214.079,133.652s-13.738,13.34-15.729,17.322-1.2,49.578.995,53.958,24.092,21.5,27.676,22.9,11.748,2.787,18.119-.4,21.7-19.512,23.3-23.693-.4-51.967-1.394-56.547-25.088-20.906-35.242-21.7S214.079,133.652,214.079,133.652Z" fill="#fff"/>
            <path id="Trazado_133311" data-name="Trazado 133311" d="M236.029,229.861a26.769,26.769,0,0,1-9.189-1.566c-3.851-1.5-25.723-18.7-27.942-23.139-2.24-4.48-3.077-50.241-1-54.406,1.989-3.977,15.038-16.688,15.812-17.44.5-.586,7.978-9.124,18.125-8.32,9.893.776,34.567,16.923,35.692,22.1.933,4.3,3,52.548,1.372,56.831-1.714,4.5-17.233,20.81-23.539,23.963A21.005,21.005,0,0,1,236.029,229.861Zm-5.5-103.922c-9.163,0-16,7.952-16.071,8.036l-.034.036c-.136.133-13.7,13.326-15.63,17.187s-1.079,49.361,1,53.51,23.756,21.235,27.409,22.656c3.834,1.491,11.715,2.62,17.715-.38,6.435-3.218,21.582-19.568,23.051-23.424,1.607-4.218-.488-52-1.415-56.263-.943-4.338-24.757-20.523-34.792-21.31C231.347,125.954,230.937,125.939,230.532,125.939Zm-16.453,7.713h0Z" fill="#263238"/>
          </g>
          <g id="Grupo_102874" data-name="Grupo 102874">
            <path id="Trazado_133312" data-name="Trazado 133312" d="M224.881,125.494s20.58,18.775,35.383,19.5l14.8.722s-32.495-4.333-42.6-26.357C232.463,119.356,221.271,109.969,224.881,125.494Z" fill="#263238"/>
            <path id="Trazado_133313" data-name="Trazado 133313" d="M275.068,146.213h-.025l-14.8-.722c-14.813-.722-34.85-18.855-35.695-19.627a.5.5,0,0,1-.15-.256c-1.191-5.116-.931-8.118.791-9.176,2.566-1.573,7.091,2.116,7.6,2.542a.515.515,0,0,1,.133.174c9.88,21.525,41.893,26.027,42.215,26.07a.5.5,0,0,1-.065,1Zm-49.735-20.985c1.675,1.5,21.068,18.586,34.956,19.263l8.364.408c-10.043-2.523-29.209-9.289-36.6-25.231-1.3-1.064-4.73-3.38-6.348-2.385C224.83,117.824,224.056,119.643,225.333,125.228Z" fill="#263238"/>
          </g>
          <g id="Grupo_102875" data-name="Grupo 102875">
            <path id="Trazado_133314" data-name="Trazado 133314" d="M237.972,183.332a.5.5,0,0,1-.5-.461l-1.593-20.11a.5.5,0,0,1,1-.079l1.593,20.11a.5.5,0,0,1-.459.538Z" fill="#263238"/>
          </g>
          <g id="Grupo_102876" data-name="Grupo 102876">
            <path id="Trazado_133315" data-name="Trazado 133315" d="M233.393,192.889c-2.785,0-5.443-3.031-5.555-3.16a.5.5,0,0,1,.755-.655c.025.029,2.473,2.815,4.8,2.815,1.9,0,4.8-3.72,5.756-5.154a.5.5,0,0,1,.832.555C239.6,187.863,236.169,192.889,233.393,192.889Z" fill="#263238"/>
          </g>
          <g id="Grupo_102877" data-name="Grupo 102877">
            <path id="Trazado_133316" data-name="Trazado 133316" d="M230.234,202.106c-.616,0-1.235-.019-1.852-.06-6.162-.41-10.755-7.886-10.947-8.2a.5.5,0,1,1,.855-.518c.045.073,4.518,7.349,10.158,7.724a41.978,41.978,0,0,0,12.177-1.376.5.5,0,0,1,.27.963A44.228,44.228,0,0,1,230.234,202.106Z" fill="#263238"/>
          </g>
          <g id="Grupo_102878" data-name="Grupo 102878">
            <path id="Trazado_133317" data-name="Trazado 133317" d="M238.769,159.536s6.968-5.177,9.756-6.969,11.747,1.593,11.747,1.593-6.769-3.783-10.353-4.38-10.951,4.579-11.549,6.968S235.981,158.54,238.769,159.536Z" fill="#263238"/>
            <path id="Trazado_133318" data-name="Trazado 133318" d="M238.769,160.036a.484.484,0,0,1-.168-.03c-1.317-.469-1.714-.611-1.828-1.045a.91.91,0,0,1,.322-.84,3.322,3.322,0,0,0,.79-1.494c.652-2.606,8.2-8,12.116-7.34,3.628.6,10.235,4.28,10.515,4.436a.5.5,0,0,1-.421.9c-2.427-.916-9.19-3-11.3-1.64-2.742,1.763-9.66,6.9-9.729,6.95A.5.5,0,0,1,238.769,160.036Zm-.844-1.347c.2.082.478.185.761.286,1.2-.887,7.075-5.226,9.569-6.829,1.427-.916,4.153-.651,6.675-.1a23.751,23.751,0,0,0-5.093-1.774c-3.3-.548-10.451,4.475-10.982,6.6A4.236,4.236,0,0,1,237.925,158.689Z" fill="#263238"/>
          </g>
          <g id="Grupo_102879" data-name="Grupo 102879">
            <path id="Trazado_133319" data-name="Trazado 133319" d="M224.433,160.49a4.917,4.917,0,0,0-4.38-2.987c-3.385-.2-18.318,3.783-15.73,3.783s13.34-.2,16.128-.2A9.764,9.764,0,0,0,224.433,160.49Z" fill="#263238"/>
            <path id="Trazado_133320" data-name="Trazado 133320" d="M204.323,161.786a.774.774,0,0,1-.734-.314.578.578,0,0,1,.021-.55c.611-.968,13.695-4.091,16.472-3.918a5.375,5.375,0,0,1,4.821,3.318.5.5,0,0,1-.247.615,10.184,10.184,0,0,1-4.205.65c-1.419,0-4.9.052-8.318.1C208.834,161.738,205.594,161.786,204.323,161.786Zm15.44-3.791c-2.521,0-9.542,1.7-13.176,2.772,1.532-.018,3.521-.048,5.531-.078,3.424-.05,6.912-.1,8.333-.1a12.091,12.091,0,0,0,3.29-.381,4.433,4.433,0,0,0-3.718-2.2C219.943,158,219.856,157.995,219.763,157.995Z" fill="#263238"/>
          </g>
          <path id="Trazado_133321" data-name="Trazado 133321" d="M258.679,171.881a40.566,40.566,0,0,1-9.159,1c-3.982-.2-7.566-1.394-5.973.4s4.779,3.385,9.756,2.389S260.073,173.672,258.679,171.881Z" fill="#263238"/>
          <path id="Trazado_133322" data-name="Trazado 133322" d="M222.641,171.881a40.575,40.575,0,0,1-9.159,1c-3.982-.2-7.566-1.394-5.973.4s4.778,3.385,9.756,2.389S224.035,173.672,222.641,171.881Z" fill="#263238"/>
        </g>
        <g id="Grupo_102884" data-name="Grupo 102884">
          <g id="Grupo_102881" data-name="Grupo 102881">
            <path id="Trazado_133323" data-name="Trazado 133323" d="M156.383,286.639s5.993-32.964,8.718-36.233,32.419-27.516,34.054-29.15,13.349-19.343,13.894-17.164-1.363,11.715-4.9,16.891-8.446,11.442-8.446,11.442,18.253,4.631,19.343,5.721,7.294,14.656,7.628,16.346c.578,2.917-.258,6.049-2.724,6.266-2.238.2-16.891-7.356-16.891-7.356l-11.714,1.635S186.9,265.389,181.174,267.3a49.367,49.367,0,0,1-7.9,2.18l.272,20.16Z" fill="#fff"/>
            <path id="Trazado_133324" data-name="Trazado 133324" d="M173.546,290.136a.5.5,0,0,1-.086-.008l-17.163-3a.5.5,0,0,1-.406-.582c.246-1.351,6.049-33.131,8.825-36.464,1.82-2.183,15.08-13.242,24.762-21.316,4.9-4.091,8.779-7.323,9.323-7.867.493-.492,2.07-2.692,3.9-5.239,7.118-9.923,9.232-12.445,10.285-12.244a.71.71,0,0,1,.55.552c.589,2.355-1.387,12.05-4.976,17.294-2.872,4.2-6.68,9.165-7.994,10.864,4.253,1.087,17.776,4.607,18.833,5.663,1.181,1.181,7.414,14.833,7.765,16.6a7.247,7.247,0,0,1-.854,5.549,3.183,3.183,0,0,1-2.317,1.311c-2.277.2-14.966-6.279-17.023-7.336L195.6,255.505c-1.114,1.346-8.794,10.44-14.271,12.266a60.559,60.559,0,0,1-7.553,2.127l.267,19.731a.5.5,0,0,1-.5.507Zm-16.581-3.9,16.073,2.807-.264-19.557a.5.5,0,0,1,.437-.5,49.84,49.84,0,0,0,7.805-2.158c5.517-1.838,13.853-12,13.937-12.1a.5.5,0,0,1,.318-.179l11.715-1.635a.507.507,0,0,1,.3.051c5.616,2.9,15.115,7.45,16.618,7.3a2.183,2.183,0,0,0,1.605-.915,6.244,6.244,0,0,0,.672-4.756c-.356-1.8-6.587-15.186-7.49-16.089-.851-.755-12.175-3.83-19.113-5.59a.5.5,0,0,1-.27-.793c.049-.062,4.934-6.313,8.426-11.416,3.4-4.97,5.128-13.673,4.886-16.151-1.52,1.117-6.4,7.925-9.107,11.7-1.929,2.689-3.452,4.813-4,5.363-.576.577-4.273,3.66-9.39,7.928-9.108,7.6-22.872,19.075-24.633,21.189C163.358,253.279,158.7,276.749,156.965,286.232Z" fill="#263238"/>
          </g>
          <g id="Grupo_102882" data-name="Grupo 102882">
            <path id="Trazado_133325" data-name="Trazado 133325" d="M226.671,254.992a.5.5,0,0,1-.415-.22c-3.171-4.676-8.449-12.293-9.113-12.824-.741-.47-9.124-1.8-16.629-2.8a.5.5,0,0,1,.133-.991c3.763.505,16.12,2.214,17.121,3.015s8.467,11.794,9.316,13.045a.5.5,0,0,1-.413.78Z" fill="#263238"/>
          </g>
          <g id="Grupo_102883" data-name="Grupo 102883">
            <path id="Trazado_133326" data-name="Trazado 133326" d="M225.99,259.126a.5.5,0,0,1-.378-.173c-2.137-2.472-6.417-7.343-7.313-8.089-.718-.586-9.164-2.747-16.745-4.484a.5.5,0,1,1,.223-.975c2.657.609,15.967,3.7,17.163,4.69s7.174,7.91,7.429,8.2a.5.5,0,0,1-.379.827Z" fill="#263238"/>
          </g>
        </g>
        <g id="Grupo_102885" data-name="Grupo 102885">
          <path id="Trazado_133327" data-name="Trazado 133327" d="M226.32,384.839s-21.4-3.994-22.254-4.28-15.978-4.85-17.975-5.706-26.25-5.136-27.391-3.424-2.282,11.7-2.568,12.554-2.567,4.851-2,7.133a21.414,21.414,0,0,1,0,6.277s-.285,13.41,3.139,13.7,6.562-12.554,6.562-12.554,4.85,2.854,14.836,3.424,19.687-4.28,19.687-4.28l26.535,6.277Z" fill="#fff"/>
          <path id="Trazado_133328" data-name="Trazado 133328" d="M157.382,411.593c-.05,0-.1,0-.15-.007-3.705-.309-3.646-11.886-3.6-14.2a21.325,21.325,0,0,0,.015-6.145c-.495-1.98.892-4.966,1.637-6.57.177-.381.315-.675.371-.842.071-.212.248-1.382.435-2.621.7-4.613,1.392-8.853,2.191-10.053,1.493-2.241,26.534,2.612,28,3.242,1.508.646,10.854,3.514,15.346,4.892,1.41.433,2.39.734,2.591.8.648.21,13.624,2.664,22.188,4.263a.5.5,0,0,1,.407.528l-1.427,19.116a.5.5,0,0,1-.2.366.49.49,0,0,1-.411.083l-26.361-6.235c-1.337.633-10.478,4.786-19.773,4.251-8.161-.466-12.9-2.421-14.477-3.186C163.367,402.369,160.708,411.591,157.382,411.593Zm3.359-40.081a3.52,3.52,0,0,0-1.653.227c-.714,1.08-1.554,6.632-2.006,9.615-.255,1.684-.382,2.506-.475,2.788-.063.187-.215.519-.414.946-.643,1.387-1.982,4.269-1.573,5.907a21.573,21.573,0,0,1,.01,6.468c-.109,5.313.647,12.957,2.685,13.127,2.2.136,4.86-7.371,6.035-12.175a.5.5,0,0,1,.739-.312c.048.028,4.889,2.8,14.612,3.356,9.744.552,19.34-4.18,19.435-4.228a.5.5,0,0,1,.339-.039l25.964,6.142,1.35-18.086c-3.594-.671-21.06-3.94-21.882-4.214-.2-.066-1.17-.364-2.568-.793-4.854-1.489-13.889-4.262-15.446-4.928C183.939,374.475,166.381,371.512,160.741,371.512Z" fill="#263238"/>
        </g>
        <g id="Grupo_102889" data-name="Grupo 102889">
          <g id="Grupo_102886" data-name="Grupo 102886">
            <path id="Trazado_133329" data-name="Trazado 133329" d="M152.309,280.819l28.724,5.247-1.1,17.953s6.352,3.038,8.285,20.714,7.457,58.73,6.077,61.768-9.943,16.3-29.829,17.124-30.657-17.4-32.591-23.2,8.286-43.815,8.838-47.13,3.315-25.962,5.8-29.829a30.036,30.036,0,0,1,5.524-6.352Z" fill="#92e3a9"/>
            <path id="Trazado_133330" data-name="Trazado 133330" d="M163.14,404.152c-19.791,0-30.051-18.491-31.743-23.569-1.559-4.678,4.219-28.322,7.323-41.025.8-3.277,1.379-5.644,1.5-6.345.1-.579.261-1.752.479-3.312,1.066-7.6,3.285-23.424,5.394-26.7a30.668,30.668,0,0,1,5.448-6.317l.272-16.069a.5.5,0,0,1,.183-.378.516.516,0,0,1,.407-.106l28.724,5.248a.5.5,0,0,1,.409.523l-1.086,17.645c1.329.855,6.54,5.165,8.266,20.937.483,4.419,1.2,10.379,1.96,16.687,2.927,24.327,5.087,43.113,4.074,45.342-.075.164-7.746,16.479-30.263,17.417C164.031,404.144,163.583,404.152,163.14,404.152ZM152.8,281.416l-.266,15.707a.5.5,0,0,1-.183.378,29.75,29.75,0,0,0-5.42,6.236c-1.99,3.1-4.271,19.359-5.244,26.3-.221,1.572-.387,2.753-.484,3.337-.123.738-.705,3.12-1.51,6.418-2.861,11.707-8.814,36.068-7.347,40.472,1.681,5.041,12.052,23.7,32.1,22.858,18.182-.757,27.383-12.406,29.4-16.831.977-2.15-1.991-26.806-4.158-44.809-.759-6.311-1.477-12.273-1.961-16.7-1.881-17.2-7.943-20.289-8-20.318a.5.5,0,0,1-.284-.482l1.078-17.509Zm-.766,15.7h0Z" fill="#263238"/>
          </g>
          <g id="Grupo_102887" data-name="Grupo 102887">
            <path id="Trazado_133331" data-name="Trazado 133331" d="M174.957,302.31A42.19,42.19,0,0,1,170.1,302a.5.5,0,0,1,.116-.994,41.1,41.1,0,0,0,4.739.3.5.5,0,1,1,0,1Z" fill="#263238"/>
          </g>
          <g id="Grupo_102888" data-name="Grupo 102888">
            <path id="Trazado_133332" data-name="Trazado 133332" d="M163.446,300.849a.5.5,0,0,1-.107-.012,102.427,102.427,0,0,1-11.476-3.253.5.5,0,1,1,.34-.939,102.22,102.22,0,0,0,11.35,3.215.5.5,0,0,1-.107.989Z" fill="#263238"/>
          </g>
        </g>
        <g id="Grupo_102899" data-name="Grupo 102899">
          <g id="Grupo_102890" data-name="Grupo 102890">
            <path id="Trazado_133333" data-name="Trazado 133333" d="M310.2,289.828,307.35,363.44s-3.138.286-4.279,1.712a20.316,20.316,0,0,0-2,3.139s-28.817,1.141-42.512,5.135a132.644,132.644,0,0,0-22.825,8.845l-12.554-.285-2.568,33.1,16.834.57s8.274,4.851,45.936,8.274,55.066,4.28,59.06-.285,5.707-11.7,6.277-15.407S356.14,381.7,356.14,348.6s-31.1-81.03-37.947-91.872-13.981-9.986-18.831-8.845" fill="#92e3a9"/>
            <path id="Trazado_133334" data-name="Trazado 133334" d="M326.467,427.269c-9.548,0-23.524-1.061-43.128-2.843-35.459-3.224-44.875-7.665-46.027-8.277l-16.715-.566a.5.5,0,0,1-.482-.539l2.568-33.1a.5.5,0,0,1,.51-.461l12.426.283a135.95,135.95,0,0,1,22.8-8.823c12.861-3.751,39.275-5.008,42.342-5.142a20.376,20.376,0,0,1,1.917-2.964c1-1.249,3.236-1.7,4.187-1.843l2.836-73.188a.479.479,0,0,1,.52-.481.5.5,0,0,1,.48.52L307.85,363.46a.5.5,0,0,1-.454.478c-.815.076-3.11.5-3.934,1.527a19.85,19.85,0,0,0-1.941,3.05.5.5,0,0,1-.428.276c-.287.011-28.913,1.184-42.392,5.116a133.556,133.556,0,0,0-22.731,8.806.593.593,0,0,1-.245.058l-12.081-.274-2.491,32.1,16.312.552a.494.494,0,0,1,.234.069c.083.048,8.742,4.845,45.73,8.208,37.5,3.408,54.86,4.2,58.639-.117,4.308-4.923,5.8-12.843,6.16-15.154.1-.626.35-1.713.734-3.357a241.036,241.036,0,0,0,6.678-56.2c0-21.14-12.488-51.559-37.113-90.411l-.757-1.2c-7.11-11.256-14.665-9.479-18.294-8.624a.5.5,0,0,1-.229-.974c5.875-1.381,12.769-1.385,19.368,9.065l.756,1.192c24.73,39.016,37.269,69.614,37.269,90.947a241.949,241.949,0,0,1-6.7,56.425c-.366,1.564-.629,2.7-.72,3.283-.366,2.377-1.909,10.533-6.4,15.66C340.808,426.272,335.716,427.269,326.467,427.269Z" fill="#263238"/>
          </g>
          <g id="Grupo_102891" data-name="Grupo 102891">
            <path id="Trazado_133335" data-name="Trazado 133335" d="M307.351,363.94a.5.5,0,0,1-.341-.866l16.548-15.407a.5.5,0,1,1,.681.732l-15.01,13.976,15.49-4.492a.5.5,0,0,1,.279.961l-17.508,5.077A.512.512,0,0,1,307.351,363.94Z" fill="#263238"/>
          </g>
          <g id="Grupo_102892" data-name="Grupo 102892">
            <path id="Trazado_133336" data-name="Trazado 133336" d="M330.345,357.271a.5.5,0,0,1-.14-.98l5.537-1.6a.5.5,0,1,1,.28.96l-5.537,1.606A.487.487,0,0,1,330.345,357.271Z" fill="#263238"/>
          </g>
          <g id="Grupo_102893" data-name="Grupo 102893">
            <path id="Trazado_133337" data-name="Trazado 133337" d="M326.752,373.07a.5.5,0,0,1-.18-.033c-7.264-2.795-25.356-4.233-25.538-4.248a.5.5,0,0,1-.459-.537.487.487,0,0,1,.537-.459c.749.058,18.418,1.464,25.82,4.311a.5.5,0,0,1-.18.966Z" fill="#263238"/>
          </g>
          <g id="Grupo_102894" data-name="Grupo 102894">
            <path id="Trazado_133338" data-name="Trazado 133338" d="M331.888,387.907a.5.5,0,0,1-.395-.192,36.937,36.937,0,0,0-2.445-2.822.5.5,0,0,1,.723-.692,38.146,38.146,0,0,1,2.511,2.9.5.5,0,0,1-.394.807Z" fill="#263238"/>
          </g>
          <g id="Grupo_102895" data-name="Grupo 102895">
            <path id="Trazado_133339" data-name="Trazado 133339" d="M325.921,381.819a.492.492,0,0,1-.317-.114,48.361,48.361,0,0,0-17.229-8.934.5.5,0,1,1,.234-.972,49.393,49.393,0,0,1,17.629,9.135.5.5,0,0,1-.317.885Z" fill="#263238"/>
          </g>
          <g id="Grupo_102896" data-name="Grupo 102896">
            <path id="Trazado_133340" data-name="Trazado 133340" d="M235.736,413.586a.5.5,0,0,1-.5-.495l-.286-27.676a.5.5,0,0,1,.5-.505h0a.5.5,0,0,1,.5.495l.286,27.676a.5.5,0,0,1-.495.505Z" fill="#263238"/>
          </g>
          <g id="Grupo_102897" data-name="Grupo 102897">
            <path id="Trazado_133341" data-name="Trazado 133341" d="M233.738,406.738H221.756a.5.5,0,1,1,0-1h11.982a.5.5,0,0,1,0,1Z" fill="#263238"/>
          </g>
          <g id="Grupo_102898" data-name="Grupo 102898">
            <path id="Trazado_133342" data-name="Trazado 133342" d="M224.608,390.475a.5.5,0,0,1-.029-1l4.851-.286a.5.5,0,0,1,.058,1l-4.85.286Z" fill="#263238"/>
          </g>
        </g>
      </g>
    </g>
    <g id="Doodles" transform="translate(77.748 45.56)">
      <g id="Grupo_102290" data-name="Grupo 102290">
        <g id="Grupo_102273" data-name="Grupo 102273">
          <path id="Trazado_133084" data-name="Trazado 133084" d="M70.69,292.545a.44.44,0,0,1-.114-.014.5.5,0,0,1-.339-.273l-8.55-18.213a.5.5,0,0,1,.453-.713H93.664a.5.5,0,0,1,.311.892L71,292.437A.5.5,0,0,1,70.69,292.545Zm-7.763-18.213,7.947,16.929,21.355-16.929Z" fill="#263238"/>
        </g>
        <g id="Grupo_102276" data-name="Grupo 102276" transform="translate(-398 -30)">
          <path id="Trazado_133087" data-name="Trazado 133087" d="M416.324,357.608H395.963a.5.5,0,0,1-.381-.176.493.493,0,0,1-.112-.4l3.191-19.448a.5.5,0,0,1,.441-.416l7.783-.828a.5.5,0,0,1,.545.587l-2.486,13.585,12.974.114a.5.5,0,0,1,.479.628l-1.589,5.987A.5.5,0,0,1,416.324,357.608Zm-19.772-1h19.387l1.327-4.993-12.924-.113a.5.5,0,0,1-.488-.59l2.471-13.512-6.739.717Z" fill="#263238"/>
        </g>
        <g id="Grupo_102277" data-name="Grupo 102277">
          <path id="Trazado_133088" data-name="Trazado 133088" d="M356.2,402.956a9.082,9.082,0,1,1,9.082-9.082A9.092,9.092,0,0,1,356.2,402.956Zm0-17.164a8.082,8.082,0,1,0,8.082,8.082A8.092,8.092,0,0,0,356.2,385.792Z" fill="#263238"/>
        </g>
        <g id="Grupo_102278" data-name="Grupo 102278" transform="translate(-90.99 234.655)">
          <path id="Trazado_133089" data-name="Trazado 133089" d="M152.63,120.774a9.082,9.082,0,1,1,9.082-9.082A9.092,9.092,0,0,1,152.63,120.774Zm0-17.164a8.082,8.082,0,1,0,8.082,8.082A8.09,8.09,0,0,0,152.63,103.61Z" fill="#263238"/>
        </g>
        <g id="Grupo_102279" data-name="Grupo 102279" transform="translate(-57.511 -69)">
          <path id="Trazado_133090" data-name="Trazado 133090" d="M434.663,268.506a.5.5,0,0,1-.248-.066l-18.9-10.8a.5.5,0,1,1,.5-.869l18.9,10.8a.5.5,0,0,1-.248.935Z" fill="#263238"/>
        </g>
        <g id="Grupo_102280" data-name="Grupo 102280" transform="translate(-57.511 -69)">
          <path id="Trazado_133091" data-name="Trazado 133091" d="M421.573,271.555a.508.508,0,0,1-.226-.054.5.5,0,0,1-.22-.673L428.4,256.5a.5.5,0,0,1,.893.453l-7.278,14.332A.5.5,0,0,1,421.573,271.555Z" fill="#263238"/>
        </g>
        <g id="Grupo_102283" data-name="Grupo 102283">
          <path id="Trazado_133094" data-name="Trazado 133094" d="M138.113,285.113a.494.494,0,0,1-.182-.034.5.5,0,0,1-.276-.266l-7.308-16.756a.519.519,0,0,1-.031-.434.5.5,0,0,1,.456-.319h.043c1.089-.323,9.472-4.087,14.642-6.451a.5.5,0,0,1,.387-.011.5.5,0,0,1,.28.266l7.334,16.808a.5.5,0,0,1-.258.658l-14.887,6.5A.476.476,0,0,1,138.113,285.113ZM131.458,268.1l6.914,15.853,13.97-6.1-6.932-15.883C136.275,266.147,132.833,267.641,131.458,268.1Z" fill="#263238"/>
        </g>
        <g id="Grupo_102284" data-name="Grupo 102284">
          <path id="Trazado_133095" data-name="Trazado 133095" d="M335.214,255.219a.526.526,0,0,1-.056,0,.5.5,0,0,1-.335-.186l-3.962-4.964a.5.5,0,0,1,.079-.7l5.58-4.452a.507.507,0,0,1,.389-.127.5.5,0,0,1,.42.33c.317.473,2.515,3.166,3.875,4.812a.5.5,0,0,1-.074.709l-5.605,4.474A.49.49,0,0,1,335.214,255.219Zm-3.259-5.386,3.338,4.183,4.816-3.845c-1.921-2.323-2.9-3.509-3.365-4.159Z" fill="#263238"/>
        </g>
        <g id="Grupo_102285" data-name="Grupo 102285" transform="translate(278.678 -185)">
          <path id="Trazado_133096" data-name="Trazado 133096" d="M58.315,202.954a4.326,4.326,0,1,1,4.325-4.325A4.33,4.33,0,0,1,58.315,202.954Zm0-7.651a3.326,3.326,0,1,0,3.325,3.326A3.329,3.329,0,0,0,58.315,195.3Z" fill="#263238"/>
        </g>
        <g id="Grupo_102286" data-name="Grupo 102286">
          <path id="Trazado_133097" data-name="Trazado 133097" d="M290.17,65.018a4.325,4.325,0,1,1,4.325-4.325A4.329,4.329,0,0,1,290.17,65.018Zm0-7.651a3.325,3.325,0,1,0,3.325,3.326A3.329,3.329,0,0,0,290.17,57.367Z" fill="#263238"/>
        </g>
        <g id="Grupo_102287" data-name="Grupo 102287" transform="translate(-236.322 -329)">
          <path id="Trazado_133098" data-name="Trazado 133098" d="M335.473,318.658a.5.5,0,0,1-.47-.327l-4.486-12.209a.5.5,0,0,1,.431-.672l8.574-.649-1.99-5.751a.5.5,0,0,1,.434-.661l7.513-.588-3.655-6.1a.5.5,0,0,1,.858-.513l4.069,6.8a.5.5,0,0,1-.39.755l-7.672.6,1.991,5.752a.5.5,0,0,1-.435.662l-8.561.648,4.258,11.588a.5.5,0,0,1-.3.643A.529.529,0,0,1,335.473,318.658Z" fill="#263238"/>
        </g>
        <g id="Grupo_102288" data-name="Grupo 102288">
          <path id="Trazado_133099" data-name="Trazado 133099" d="M122.361,371.89a.5.5,0,0,1-.371-.835l7.34-8.137-5.516-3.483a.5.5,0,0,1-.048-.811l9.062-7.392-6.572-3.956a.5.5,0,0,1,.516-.857l7.181,4.323a.5.5,0,0,1,.058.817l-9.075,7.4,5.43,3.43a.5.5,0,0,1,.1.757l-7.738,8.578A.5.5,0,0,1,122.361,371.89Z" fill="#263238"/>
        </g>
        <g id="Grupo_102289" data-name="Grupo 102289" transform="translate(50.071 -23.013)">
          <path id="Trazado_133100" data-name="Trazado 133100" d="M333.995,128.5a.5.5,0,0,1-.354-.147l-5.914-5.939a.5.5,0,0,1,.142-.806l10.6-4.974-4.433-4.646a.5.5,0,0,1-.136-.4.5.5,0,0,1,.219-.36l9.59-6.439a.5.5,0,0,1,.557.83l-9.1,6.108,4.5,4.72a.5.5,0,0,1-.15.8l-10.585,4.967,5.413,5.435a.5.5,0,0,1-.355.853Z" fill="#263238"/>
        </g>
      </g>
    </g>
  </g>
</svg>
