<svg xmlns="http://www.w3.org/2000/svg" width="258" height="226.618" viewBox="0 0 258 226.618">
  <g id="Grupo_105830" data-name="Grupo 105830" transform="translate(-3213 7974)">
    <path id="Trazado_132726" data-name="Trazado 132726" d="M521.845,332.4c-5.643,0-31.084.006-63.363,0l-28.031-.008-22.353-.011-12.731-.008c-56.812-.045-65.867.591-74.883.027-16.774,0-59.735-65.186-8.591-107.987,19.86-16.62-5.629-38.7,27.357-55.283,21.692-10.905,37.448,8.253,63.634,1.351,19.346-5.1,23.281-17.06,61.529-13.746,36.781,3.187,37.521,33.387,25.853,58.324-7.367,15.744,28.754,10.883,45.457,34.38C564.231,289.545,522.1,331.8,521.845,332.4Z" transform="translate(2925.383 -8080.016)" fill="#e1f3d7"/>
    <g id="Grupo_101844" data-name="Grupo 101844" transform="translate(3010.634 -8064.046)">
      <g id="Grupo_101749" data-name="Grupo 101749" transform="translate(274.384 90.047)">
        <g id="Grupo_101587" data-name="Grupo 101587" transform="translate(46.558 19.733)">
          <path id="Trazado_132729" data-name="Trazado 132729" d="M396.583,123.189a21.844,21.844,0,0,1,7.2,18.886c-.429,3.38-1.555,7.208.526,9.906,2.059,2.672,6.355,2.808,8.32,5.549,2.314,3.228.022,7.75.716,11.66a7.862,7.862,0,0,0,8.065,6.243,30.669,30.669,0,0,1-15.515,5.848l-3.983-5.665c1.518,1.989.94,5.014-.716,6.889a12.845,12.845,0,0,1-6.536,3.46,38.929,38.929,0,0,1-33.806-7.207" transform="translate(-360.852 -123.189)" fill="#263238"/>
        </g>
        <g id="Grupo_101588" data-name="Grupo 101588" transform="translate(16.333)">
          <path id="Trazado_132730" data-name="Trazado 132730" d="M310.776,136.64c.978-2.56,2.522-4.9,3.225-7.55,1.511-5.692-.975-12.3,2.07-17.347,2.167-3.588,6.487-5.186,10.549-6.222s8.408-1.871,11.535-4.662c2.294-2.047,3.684-4.952,5.972-7.007,3.259-2.928,7.9-3.747,12.28-3.8a26.225,26.225,0,0,1,13.052,2.78c3.937,2.177,7.105,6.058,7.607,10.529.245,2.18-.132,4.434.448,6.549.638,2.327,2.349,4.2,3.353,6.39a11.538,11.538,0,0,1-3.558,13.673l-32.74,38.269c-6.589,2.127-22.118-1.6-26.884-6.618S308.307,143.108,310.776,136.64Z" transform="translate(-310.088 -90.047)" fill="#263238"/>
        </g>
        <g id="Grupo_101731" data-name="Grupo 101731" transform="translate(33.991 15.85)">
          <g id="Grupo_101730" data-name="Grupo 101730">
            <g id="Grupo_101589" data-name="Grupo 101589">
              <path id="Trazado_132731" data-name="Trazado 132731" d="M388.742,135.649c-.828-9.093-7.173-20.1-16.222-18.888l-28.141,7.951a5.343,5.343,0,0,0-4.628,5.55l4.933,68.255-.195.048s6.949,19.11,25.529,12.743c3.684-1.263,5.276-5.369,5.905-9.566l.047-10.8c-.089-5.519-.152-7.781-.147-7.73,0,0,11.583-2.255,13.572-17.506C390.384,158.12,389.66,145.751,388.742,135.649Z" transform="translate(-339.745 -116.668)" fill="#ffbe9d"/>
            </g>
            <g id="Grupo_101729" data-name="Grupo 101729" transform="translate(15.593 15.166)">
              <g id="Grupo_101728" data-name="Grupo 101728">
                <g id="Grupo_101727" data-name="Grupo 101727">
                  <g id="Grupo_101726" data-name="Grupo 101726">
                    <g id="Grupo_101725" data-name="Grupo 101725">
                      <g id="Grupo_101698" data-name="Grupo 101698" transform="translate(0 8.344)">
                        <g id="Grupo_101697" data-name="Grupo 101697">
                          <g id="Grupo_101696" data-name="Grupo 101696">
                            <g id="Grupo_101627" data-name="Grupo 101627" transform="translate(4.679)">
                              <g id="Grupo_101601" data-name="Grupo 101601" transform="translate(0 7.728)">
                                <g id="Grupo_101600" data-name="Grupo 101600">
                                  <g id="Grupo_101599" data-name="Grupo 101599">
                                    <g id="Grupo_101598" data-name="Grupo 101598">
                                      <g id="Grupo_101597" data-name="Grupo 101597">
                                        <g id="Grupo_101596" data-name="Grupo 101596">
                                          <g id="Grupo_101595" data-name="Grupo 101595">
                                            <g id="Grupo_101594" data-name="Grupo 101594">
                                              <g id="Grupo_101593" data-name="Grupo 101593">
                                                <g id="Grupo_101592" data-name="Grupo 101592">
                                                  <g id="Grupo_101591" data-name="Grupo 101591">
                                                    <g id="Grupo_101590" data-name="Grupo 101590">
                                                      <path id="Trazado_132732" data-name="Trazado 132732" d="M377.677,170.842a1.948,1.948,0,0,1-1.823,2.017,1.864,1.864,0,0,1-2.057-1.7,1.95,1.95,0,0,1,1.821-2.018A1.865,1.865,0,0,1,377.677,170.842Z" transform="translate(-373.794 -169.134)" fill="#263238"/>
                                                    </g>
                                                  </g>
                                                </g>
                                              </g>
                                            </g>
                                          </g>
                                        </g>
                                      </g>
                                    </g>
                                  </g>
                                </g>
                              </g>
                              <g id="Grupo_101613" data-name="Grupo 101613" transform="translate(20.16 7.066)">
                                <g id="Grupo_101612" data-name="Grupo 101612">
                                  <g id="Grupo_101611" data-name="Grupo 101611">
                                    <g id="Grupo_101610" data-name="Grupo 101610">
                                      <g id="Grupo_101609" data-name="Grupo 101609">
                                        <g id="Grupo_101608" data-name="Grupo 101608">
                                          <g id="Grupo_101607" data-name="Grupo 101607">
                                            <g id="Grupo_101606" data-name="Grupo 101606">
                                              <g id="Grupo_101605" data-name="Grupo 101605">
                                                <g id="Grupo_101604" data-name="Grupo 101604">
                                                  <g id="Grupo_101603" data-name="Grupo 101603">
                                                    <g id="Grupo_101602" data-name="Grupo 101602">
                                                      <path id="Trazado_132733" data-name="Trazado 132733" d="M411.537,169.73a1.948,1.948,0,0,1-1.823,2.017,1.864,1.864,0,0,1-2.056-1.7,1.95,1.95,0,0,1,1.821-2.018A1.865,1.865,0,0,1,411.537,169.73Z" transform="translate(-407.654 -168.022)" fill="#263238"/>
                                                    </g>
                                                  </g>
                                                </g>
                                              </g>
                                            </g>
                                          </g>
                                        </g>
                                      </g>
                                    </g>
                                  </g>
                                </g>
                              </g>
                              <g id="Grupo_101626" data-name="Grupo 101626" transform="translate(18.643)">
                                <g id="Grupo_101625" data-name="Grupo 101625">
                                  <g id="Grupo_101624" data-name="Grupo 101624">
                                    <g id="Grupo_101623" data-name="Grupo 101623">
                                      <g id="Grupo_101622" data-name="Grupo 101622">
                                        <g id="Grupo_101621" data-name="Grupo 101621">
                                          <g id="Grupo_101620" data-name="Grupo 101620">
                                            <g id="Grupo_101619" data-name="Grupo 101619">
                                              <g id="Grupo_101618" data-name="Grupo 101618">
                                                <g id="Grupo_101617" data-name="Grupo 101617">
                                                  <g id="Grupo_101616" data-name="Grupo 101616">
                                                    <g id="Grupo_101615" data-name="Grupo 101615">
                                                      <g id="Grupo_101614" data-name="Grupo 101614">
                                                        <path id="Trazado_132734" data-name="Trazado 132734" d="M413.482,158.378c-.227.345-1.977-.885-4.253-.666-2.277.18-3.8,1.7-4.083,1.4-.136-.132.069-.736.731-1.419a5.222,5.222,0,0,1,3.226-1.514,5.17,5.17,0,0,1,3.428.931C413.3,157.664,413.6,158.222,413.482,158.378Z" transform="translate(-405.106 -156.155)" fill="#263238"/>
                                                      </g>
                                                    </g>
                                                  </g>
                                                </g>
                                              </g>
                                            </g>
                                          </g>
                                        </g>
                                      </g>
                                    </g>
                                  </g>
                                </g>
                              </g>
                            </g>
                            <g id="Grupo_101641" data-name="Grupo 101641" transform="translate(1.661 1.024)">
                              <g id="Grupo_101640" data-name="Grupo 101640">
                                <g id="Grupo_101639" data-name="Grupo 101639">
                                  <g id="Grupo_101638" data-name="Grupo 101638">
                                    <g id="Grupo_101637" data-name="Grupo 101637">
                                      <g id="Grupo_101636" data-name="Grupo 101636">
                                        <g id="Grupo_101635" data-name="Grupo 101635">
                                          <g id="Grupo_101634" data-name="Grupo 101634">
                                            <g id="Grupo_101633" data-name="Grupo 101633">
                                              <g id="Grupo_101632" data-name="Grupo 101632">
                                                <g id="Grupo_101631" data-name="Grupo 101631">
                                                  <g id="Grupo_101630" data-name="Grupo 101630">
                                                    <g id="Grupo_101629" data-name="Grupo 101629">
                                                      <g id="Grupo_101628" data-name="Grupo 101628">
                                                        <path id="Trazado_132735" data-name="Trazado 132735" d="M377.675,160.467c-.283.313-2-1.062-4.431-1.078-2.433-.053-4.226,1.274-4.489.952-.129-.143.155-.711.939-1.312a5.9,5.9,0,0,1,3.595-1.154,5.751,5.751,0,0,1,3.525,1.253C377.559,159.751,377.812,160.326,377.675,160.467Z" transform="translate(-368.725 -157.875)" fill="#263238"/>
                                                      </g>
                                                    </g>
                                                  </g>
                                                </g>
                                              </g>
                                            </g>
                                          </g>
                                        </g>
                                      </g>
                                    </g>
                                  </g>
                                </g>
                              </g>
                            </g>
                            <g id="Grupo_101655" data-name="Grupo 101655" transform="translate(16.883 0.844)">
                              <g id="Grupo_101654" data-name="Grupo 101654">
                                <g id="Grupo_101653" data-name="Grupo 101653">
                                  <g id="Grupo_101652" data-name="Grupo 101652">
                                    <g id="Grupo_101651" data-name="Grupo 101651">
                                      <g id="Grupo_101650" data-name="Grupo 101650">
                                        <g id="Grupo_101649" data-name="Grupo 101649">
                                          <g id="Grupo_101648" data-name="Grupo 101648">
                                            <g id="Grupo_101647" data-name="Grupo 101647">
                                              <g id="Grupo_101646" data-name="Grupo 101646">
                                                <g id="Grupo_101645" data-name="Grupo 101645">
                                                  <g id="Grupo_101644" data-name="Grupo 101644">
                                                    <g id="Grupo_101643" data-name="Grupo 101643">
                                                      <g id="Grupo_101642" data-name="Grupo 101642">
                                                        <path id="Trazado_132736" data-name="Trazado 132736" d="M395.756,175.005a13.89,13.89,0,0,1,3.387-.709c.533-.07,1.037-.191,1.117-.558a2.72,2.72,0,0,0-.4-1.575q-.808-1.922-1.7-4.031c-2.358-5.74-4.081-10.465-3.85-10.558s2.332,4.484,4.69,10.224q.853,2.123,1.63,4.056a3.1,3.1,0,0,1,.336,2.092,1.345,1.345,0,0,1-.858.807,3.63,3.63,0,0,1-.906.151A13.634,13.634,0,0,1,395.756,175.005Z" transform="translate(-394.292 -157.573)" fill="#263238"/>
                                                      </g>
                                                    </g>
                                                  </g>
                                                </g>
                                              </g>
                                            </g>
                                          </g>
                                        </g>
                                      </g>
                                    </g>
                                  </g>
                                </g>
                              </g>
                            </g>
                            <g id="Grupo_101668" data-name="Grupo 101668" transform="translate(0 38.173)">
                              <g id="Grupo_101667" data-name="Grupo 101667">
                                <g id="Grupo_101666" data-name="Grupo 101666">
                                  <g id="Grupo_101665" data-name="Grupo 101665">
                                    <g id="Grupo_101664" data-name="Grupo 101664">
                                      <g id="Grupo_101663" data-name="Grupo 101663">
                                        <g id="Grupo_101662" data-name="Grupo 101662">
                                          <g id="Grupo_101661" data-name="Grupo 101661">
                                            <g id="Grupo_101660" data-name="Grupo 101660">
                                              <g id="Grupo_101659" data-name="Grupo 101659">
                                                <g id="Grupo_101658" data-name="Grupo 101658">
                                                  <g id="Grupo_101657" data-name="Grupo 101657">
                                                    <g id="Grupo_101656" data-name="Grupo 101656">
                                                      <path id="Trazado_132737" data-name="Trazado 132737" d="M386.42,225.128a38.642,38.642,0,0,1-20.485-4.859s5.407,10.514,20.564,8.671Z" transform="translate(-365.935 -220.269)" fill="#eb996e"/>
                                                    </g>
                                                  </g>
                                                </g>
                                              </g>
                                            </g>
                                          </g>
                                        </g>
                                      </g>
                                    </g>
                                  </g>
                                </g>
                              </g>
                            </g>
                            <g id="Grupo_101681" data-name="Grupo 101681" transform="translate(11.387 22.008)">
                              <g id="Grupo_101680" data-name="Grupo 101680">
                                <g id="Grupo_101679" data-name="Grupo 101679">
                                  <g id="Grupo_101678" data-name="Grupo 101678">
                                    <g id="Grupo_101677" data-name="Grupo 101677">
                                      <g id="Grupo_101676" data-name="Grupo 101676">
                                        <g id="Grupo_101675" data-name="Grupo 101675">
                                          <g id="Grupo_101674" data-name="Grupo 101674">
                                            <g id="Grupo_101673" data-name="Grupo 101673">
                                              <g id="Grupo_101672" data-name="Grupo 101672">
                                                <g id="Grupo_101671" data-name="Grupo 101671">
                                                  <g id="Grupo_101670" data-name="Grupo 101670">
                                                    <g id="Grupo_101669" data-name="Grupo 101669">
                                                      <path id="Trazado_132738" data-name="Trazado 132738" d="M391.276,194.462a3.777,3.777,0,0,0-3.423-1.308,3.449,3.449,0,0,0-2.345,1.343,2.185,2.185,0,0,0-.1,2.5,2.535,2.535,0,0,0,2.766.618,7.943,7.943,0,0,0,2.634-1.672,2.3,2.3,0,0,0,.581-.636.7.7,0,0,0-.024-.78" transform="translate(-385.061 -193.12)" fill="#ff725e"/>
                                                    </g>
                                                  </g>
                                                </g>
                                              </g>
                                            </g>
                                          </g>
                                        </g>
                                      </g>
                                    </g>
                                  </g>
                                </g>
                              </g>
                            </g>
                            <g id="Grupo_101695" data-name="Grupo 101695" transform="translate(11.912 19.897)">
                              <g id="Grupo_101694" data-name="Grupo 101694">
                                <g id="Grupo_101693" data-name="Grupo 101693">
                                  <g id="Grupo_101692" data-name="Grupo 101692">
                                    <g id="Grupo_101691" data-name="Grupo 101691">
                                      <g id="Grupo_101690" data-name="Grupo 101690">
                                        <g id="Grupo_101689" data-name="Grupo 101689">
                                          <g id="Grupo_101688" data-name="Grupo 101688">
                                            <g id="Grupo_101687" data-name="Grupo 101687">
                                              <g id="Grupo_101686" data-name="Grupo 101686">
                                                <g id="Grupo_101685" data-name="Grupo 101685">
                                                  <g id="Grupo_101684" data-name="Grupo 101684">
                                                    <g id="Grupo_101683" data-name="Grupo 101683">
                                                      <g id="Grupo_101682" data-name="Grupo 101682">
                                                        <path id="Trazado_132739" data-name="Trazado 132739" d="M386.251,189.574c.341-.029.408,2.245,2.4,3.805s4.405,1.243,4.431,1.561c.036.142-.528.457-1.55.513a5.665,5.665,0,0,1-3.7-1.174,4.933,4.933,0,0,1-1.866-3.194C385.858,190.136,386.1,189.565,386.251,189.574Z" transform="translate(-385.941 -189.574)" fill="#263238"/>
                                                      </g>
                                                    </g>
                                                  </g>
                                                </g>
                                              </g>
                                            </g>
                                          </g>
                                        </g>
                                      </g>
                                    </g>
                                  </g>
                                </g>
                              </g>
                            </g>
                          </g>
                        </g>
                      </g>
                      <g id="Grupo_101711" data-name="Grupo 101711" transform="translate(1.223 4.846)">
                        <g id="Grupo_101710" data-name="Grupo 101710">
                          <g id="Grupo_101709" data-name="Grupo 101709">
                            <g id="Grupo_101708" data-name="Grupo 101708">
                              <g id="Grupo_101707" data-name="Grupo 101707">
                                <g id="Grupo_101706" data-name="Grupo 101706">
                                  <g id="Grupo_101705" data-name="Grupo 101705">
                                    <g id="Grupo_101704" data-name="Grupo 101704">
                                      <g id="Grupo_101703" data-name="Grupo 101703">
                                        <g id="Grupo_101702" data-name="Grupo 101702">
                                          <g id="Grupo_101701" data-name="Grupo 101701">
                                            <g id="Grupo_101700" data-name="Grupo 101700">
                                              <g id="Grupo_101699" data-name="Grupo 101699">
                                                <path id="Trazado_132740" data-name="Trazado 132740" d="M377.525,151.742c-.191.576-2.29.364-4.74.729-2.458.315-4.42,1.09-4.761.588-.152-.24.179-.785.965-1.36a8.34,8.34,0,0,1,7.238-1C377.14,151.034,377.606,151.469,377.525,151.742Z" transform="translate(-367.988 -150.28)" fill="#263238"/>
                                              </g>
                                            </g>
                                          </g>
                                        </g>
                                      </g>
                                    </g>
                                  </g>
                                </g>
                              </g>
                            </g>
                          </g>
                        </g>
                      </g>
                      <g id="Grupo_101724" data-name="Grupo 101724" transform="translate(21.785)">
                        <g id="Grupo_101723" data-name="Grupo 101723">
                          <g id="Grupo_101722" data-name="Grupo 101722">
                            <g id="Grupo_101721" data-name="Grupo 101721">
                              <g id="Grupo_101720" data-name="Grupo 101720">
                                <g id="Grupo_101719" data-name="Grupo 101719">
                                  <g id="Grupo_101718" data-name="Grupo 101718">
                                    <g id="Grupo_101717" data-name="Grupo 101717">
                                      <g id="Grupo_101716" data-name="Grupo 101716">
                                        <g id="Grupo_101715" data-name="Grupo 101715">
                                          <g id="Grupo_101714" data-name="Grupo 101714">
                                            <g id="Grupo_101713" data-name="Grupo 101713">
                                              <g id="Grupo_101712" data-name="Grupo 101712">
                                                <path id="Trazado_132741" data-name="Trazado 132741" d="M410.69,144.2c-.408.488-2.071.04-4.056.071-1.985-.029-3.655.422-4.055-.065-.176-.238.075-.721.8-1.193a6.221,6.221,0,0,1,3.275-.871,6.136,6.136,0,0,1,3.261.867C410.626,143.477,410.869,143.961,410.69,144.2Z" transform="translate(-402.525 -142.141)" fill="#263238"/>
                                              </g>
                                            </g>
                                          </g>
                                        </g>
                                      </g>
                                    </g>
                                  </g>
                                </g>
                              </g>
                            </g>
                          </g>
                        </g>
                      </g>
                    </g>
                  </g>
                </g>
              </g>
            </g>
          </g>
        </g>
        <g id="Grupo_101737" data-name="Grupo 101737" transform="translate(30.789 15.301)">
          <g id="Grupo_101736" data-name="Grupo 101736">
            <g id="Grupo_101735" data-name="Grupo 101735">
              <g id="Grupo_101734" data-name="Grupo 101734">
                <g id="Grupo_101733" data-name="Grupo 101733">
                  <g id="Grupo_101732" data-name="Grupo 101732">
                    <path id="Trazado_132742" data-name="Trazado 132742" d="M335.973,126.214c1.5-2.081,4.066-3.064,6.5-3.871a139.557,139.557,0,0,1,32.465-6.6c1.255,2.317-.157,5.318-2.3,6.855s-4.819,2.055-7.329,2.856-5.108,2.1-6.242,4.477c-1.206,2.53-.444,5.633-1.522,8.22-1.855,4.451-8.25,5.6-10.079,10.064-1.383,3.375.427,7.127.748,10.76a13.031,13.031,0,0,1-13.508,14.192q-.171-19.558-.342-39.116C334.346,131.339,334.385,128.416,335.973,126.214Z" transform="translate(-334.366 -115.746)" fill="#263238"/>
                  </g>
                </g>
              </g>
            </g>
          </g>
        </g>
        <g id="Grupo_101739" data-name="Grupo 101739" transform="translate(1.455 23.166)">
          <g id="Grupo_101738" data-name="Grupo 101738">
            <path id="Trazado_132743" data-name="Trazado 132743" d="M288.237,163.123c2.143-1.74,4.8-3.206,5.743-5.8,1.38-3.777-1.48-8.435.675-11.83,1.965-3.1,7.288-2.675,9.129-5.847,1.438-2.477.04-4.8.648-7.008s3.872-4.011,6.131-3.632l16.5,26.6c1.227,8.714,2.661,13.39.56,18.35-1.153,2.72-2.61,5.356-3.151,8.26s.043,6.254,2.349,8.1c-10.657.313-20.334-5.731-29.266-11.554L288.1,172.6a7.124,7.124,0,0,1-2.565-2.359C284.223,167.816,286.094,164.862,288.237,163.123Z" transform="translate(-285.098 -128.955)" fill="#263238"/>
          </g>
        </g>
        <g id="Grupo_101742" data-name="Grupo 101742" transform="translate(13.769 5.51)">
          <g id="Grupo_101741" data-name="Grupo 101741">
            <g id="Grupo_101740" data-name="Grupo 101740">
              <path id="Trazado_132744" data-name="Trazado 132744" d="M305.78,164.153a5.079,5.079,0,0,0,1.124.273,9.673,9.673,0,0,0,3.318-.073,10.25,10.25,0,0,0,4.735-2.257,10.085,10.085,0,0,0,3.341-6.057,10.41,10.41,0,0,0-.149-4.089,16.622,16.622,0,0,0-1.778-4.042,15.655,15.655,0,0,1-1.834-4.193,5.283,5.283,0,0,1,.789-4.474c1.029-1.247,2.839-1.475,4.536-2.065a4.867,4.867,0,0,0,2.346-1.566,4.756,4.756,0,0,0,.867-2.748c.072-1.945-.669-3.763-.937-5.589a6.036,6.036,0,0,1,.116-2.713,3.788,3.788,0,0,1,1.638-2.079c1.586-1.019,3.55-1.1,5.441-1.172a11.512,11.512,0,0,0,5.551-1.342,10.317,10.317,0,0,0,3.943-3.876,16.99,16.99,0,0,0,1.631-5.021,23.835,23.835,0,0,1,1.274-4.721,10.628,10.628,0,0,1,2.682-3.641,11.936,11.936,0,0,1,14.017-1.275,14.549,14.549,0,0,1,3.936,3.315,19.207,19.207,0,0,1,2.351,3.746,1.022,1.022,0,0,0-.088-.28c-.074-.179-.161-.457-.329-.8a13.93,13.93,0,0,0-1.747-2.821,14.464,14.464,0,0,0-3.949-3.462,12.47,12.47,0,0,0-6.7-1.83,12.667,12.667,0,0,0-7.832,3.017,11.117,11.117,0,0,0-2.843,3.81,24.18,24.18,0,0,0-1.334,4.823,16.534,16.534,0,0,1-1.586,4.844,9.748,9.748,0,0,1-3.724,3.638,10.929,10.929,0,0,1-5.285,1.257c-1.87.076-3.971.132-5.747,1.266a4.416,4.416,0,0,0-1.892,2.411,6.644,6.644,0,0,0-.136,2.99c.3,1.934,1.012,3.694.94,5.482a4.162,4.162,0,0,1-.739,2.4,4.279,4.279,0,0,1-2.068,1.371c-.81.3-1.674.483-2.513.792a5.052,5.052,0,0,0-2.259,1.462,5.815,5.815,0,0,0-.885,4.955,16.038,16.038,0,0,0,1.918,4.33,16.247,16.247,0,0,1,1.764,3.908,10,10,0,0,1,.179,3.9,9.763,9.763,0,0,1-3.135,5.864,10.144,10.144,0,0,1-4.555,2.282A11.5,11.5,0,0,1,305.78,164.153Z" transform="translate(-305.78 -99.3)" fill="#455a64"/>
            </g>
          </g>
        </g>
        <g id="Grupo_101745" data-name="Grupo 101745" transform="translate(0 4.937)">
          <g id="Grupo_101744" data-name="Grupo 101744">
            <g id="Grupo_101743" data-name="Grupo 101743">
              <path id="Trazado_132745" data-name="Trazado 132745" d="M283.157,144.774a2.235,2.235,0,0,0-.392.851,3.807,3.807,0,0,0,.327,2.655,4.04,4.04,0,0,0,1.288,1.5,4.229,4.229,0,0,0,2.239.715,5.309,5.309,0,0,0,4.795-2.725,7.116,7.116,0,0,0,.915-3.2,9.918,9.918,0,0,0-.575-3.545c-.731-2.339-2.15-4.652-2.052-7.339a4.912,4.912,0,0,1,1.411-3.59,5.367,5.367,0,0,1,3.918-1.017,13.014,13.014,0,0,0,4.62-.251,4,4,0,0,0,1.968-1.5,5.7,5.7,0,0,0,.891-2.3,18.8,18.8,0,0,0-.153-4.74,10.387,10.387,0,0,1,.46-4.362,11.055,11.055,0,0,1,5.258-6.242c2.369-1.275,5.039-1.294,7.445-1.321a21.76,21.76,0,0,0,6.772-.731,14.283,14.283,0,0,0,7.674-5.978,10.082,10.082,0,0,0,1.428-3.307,19.55,19.55,0,0,1-1.631,3.177,14.16,14.16,0,0,1-2.791,3.084,13.843,13.843,0,0,1-4.81,2.607,21.614,21.614,0,0,1-6.645.635c-2.4.008-5.172-.01-7.706,1.328a11.6,11.6,0,0,0-5.571,6.557,10.974,10.974,0,0,0-.5,4.605,18.508,18.508,0,0,1,.156,4.584,3.963,3.963,0,0,1-2.456,3.328,12.726,12.726,0,0,1-4.4.225,5.93,5.93,0,0,0-4.331,1.184,5.468,5.468,0,0,0-1.585,4.014,10.433,10.433,0,0,0,.778,4c.456,1.228.975,2.373,1.356,3.512a9.483,9.483,0,0,1,.585,3.364,6.687,6.687,0,0,1-.818,3,4.939,4.939,0,0,1-4.4,2.6,3.946,3.946,0,0,1-2.085-.614,3.886,3.886,0,0,1-1.658-3.877C283.007,145.066,283.188,144.79,283.157,144.774Z" transform="translate(-282.654 -98.338)" fill="#263238"/>
            </g>
          </g>
        </g>
        <g id="Grupo_101748" data-name="Grupo 101748" transform="translate(82.539 19.148)">
          <g id="Grupo_101747" data-name="Grupo 101747">
            <g id="Grupo_101746" data-name="Grupo 101746">
              <path id="Trazado_132746" data-name="Trazado 132746" d="M450.832,166.252a4.206,4.206,0,0,1-.171,2.775,3.663,3.663,0,0,1-2.316,2.13A3.841,3.841,0,0,1,444.5,169.9a3.527,3.527,0,0,1-.8-2.268,7.332,7.332,0,0,1,.538-2.667c.652-1.77,1.9-3.669,1.836-6.021a8.578,8.578,0,0,0-2.929-6.294,10.044,10.044,0,0,0-3.224-1.9,14.779,14.779,0,0,0-3.755-.729,19.906,19.906,0,0,1-3.652-.563,4.889,4.889,0,0,1-2.77-1.916,6.011,6.011,0,0,1-.879-3.192,11.963,11.963,0,0,1,.435-3.261,24.885,24.885,0,0,0,1.256-6.165,9.427,9.427,0,0,0-1.644-5.251,12.16,12.16,0,0,0-3.316-3.092,22.929,22.929,0,0,1-2.673-2.047,7.121,7.121,0,0,1-1.63-2.32c-.01,0,0,.067.036.188a2.987,2.987,0,0,0,.187.531,5.685,5.685,0,0,0,1.238,1.772,21.08,21.08,0,0,0,2.639,2.156,12.038,12.038,0,0,1,3.156,3.056,9.035,9.035,0,0,1,1.494,5,24.939,24.939,0,0,1-1.295,6.025,12.481,12.481,0,0,0-.474,3.414,6.576,6.576,0,0,0,.964,3.515,5.492,5.492,0,0,0,3.1,2.171,20.236,20.236,0,0,0,3.768.589,14.277,14.277,0,0,1,3.606.692,9.483,9.483,0,0,1,3.031,1.78,8.021,8.021,0,0,1,2.761,5.847c.083,2.152-1.074,3.976-1.747,5.836a7.763,7.763,0,0,0-.533,2.858,3.976,3.976,0,0,0,.948,2.539,4.2,4.2,0,0,0,4.274,1.3,4.052,4.052,0,0,0,2.651-4.528A2.233,2.233,0,0,0,450.832,166.252Z" transform="translate(-421.285 -122.208)" fill="#263238"/>
            </g>
          </g>
        </g>
      </g>
      <g id="Grupo_101750" data-name="Grupo 101750" transform="translate(292.35 106.526)">
        <path id="Trazado_132747" data-name="Trazado 132747" d="M323.81,121.179c-1.018,3.371-4,5.718-5.955,8.647-2.757,4.13-3.391,9.31-3.451,14.276.141-2.34-.8-4.592-1.254-6.89a17,17,0,0,1,11.418-19.486" transform="translate(-312.829 -117.725)" fill="#263238"/>
      </g>
      <g id="Grupo_101767" data-name="Grupo 101767" transform="translate(262.409 179.176)">
        <g id="Grupo_101751" data-name="Grupo 101751" transform="translate(37.312)">
          <path id="Trazado_132748" data-name="Trazado 132748" d="M335.325,244.126c2-.56-9.875,3.977-10.117,4.056l10.6,17.267,41.105,8.745,15.465-25.124-31.254-9.323Z" transform="translate(-325.208 -239.746)" fill="#ffbe9d"/>
        </g>
        <g id="Grupo_101752" data-name="Grupo 101752" transform="translate(0 3.891)">
          <path id="Trazado_132749" data-name="Trazado 132749" d="M369.24,305.149l25.046-10.77s-9.517-33.062-12.022-36.568-28.357-11.53-28.357-11.53-8.936,14.906-24.214,15.907-21.071-.583-24.078-13.858c0,0-25.585,5.905-27.589,8.159s-15.486,39.393-15.486,39.393,26.55,7.514,27.552,8.015,2.755,39.824,2.755,39.824-11.859,30.648-12.338,36.157l97.269-.249L367.736,321.68Z" transform="translate(-262.54 -246.281)" fill="#455a64"/>
        </g>
        <g id="Grupo_101754" data-name="Grupo 101754" transform="translate(20.077 32.939)">
          <g id="Grupo_101753" data-name="Grupo 101753">
            <path id="Trazado_132750" data-name="Trazado 132750" d="M296.264,295.069a8.259,8.259,0,0,1,.4,1.181l.956,3.252c.792,2.749,1.862,6.554,3.022,10.762l1.622,5.937c.24.913.492,1.778.7,2.6s.361,1.59.5,2.293c.272,1.407.46,2.549.589,3.34a8.421,8.421,0,0,1,.164,1.234,1.11,1.11,0,0,1-.1-.308c-.057-.247-.125-.544-.206-.9l-.7-3.313c-.153-.7-.326-1.461-.538-2.271-.229-.812-.471-1.675-.726-2.58l-1.65-5.932c-1.16-4.21-2.192-8.027-2.92-10.795-.346-1.342-.631-2.449-.845-3.282A8.1,8.1,0,0,1,296.264,295.069Z" transform="translate(-296.261 -295.069)" fill="#263238"/>
          </g>
        </g>
        <g id="Grupo_101756" data-name="Grupo 101756" transform="translate(45.924 84.565)">
          <g id="Grupo_101755" data-name="Grupo 101755">
            <path id="Trazado_132751" data-name="Trazado 132751" d="M373.278,381.779a1.592,1.592,0,0,1-.286.278l-.865.742c-.753.643-1.871,1.539-3.278,2.614a113.858,113.858,0,0,1-23.838,13.932c-1.627.7-2.956,1.232-3.885,1.574l-1.071.389a.2.2,0,1,1-.027-.068l1.045-.452c.912-.381,2.224-.951,3.834-1.677a130,130,0,0,0,23.788-13.9c1.423-1.046,2.564-1.91,3.343-2.518l.907-.689A1.7,1.7,0,0,1,373.278,381.779Z" transform="translate(-339.673 -381.779)" fill="#263238"/>
          </g>
        </g>
        <g id="Grupo_101758" data-name="Grupo 101758" transform="translate(30.04 55.369)" opacity="0.2">
          <g id="Grupo_101757" data-name="Grupo 101757">
            <path id="Trazado_132752" data-name="Trazado 132752" d="M382.161,348.794c-4.733-5.629-11.344-9.369-18.146-12.166-6.9-2.838-14.476-4.845-21.8-3.409-6.755,1.324-12.588,5.422-18.156,9.47a22.727,22.727,0,0,0-5.026,4.49,21.7,21.7,0,0,0-3,6.63c-1.9,6.023-1.728,13.033-3.044,19.211l.053,1.1c1.275.388,1.844-.2,3.014-.839,6.98-3.788,9.808-13.689,17.514-15.613a36.547,36.547,0,0,1,4.285-.573,24.326,24.326,0,0,0,10.4-3.984c1.262-.844,2.543-1.831,4.058-1.939,1.6-.114,3.072.778,4.468,1.566a45.883,45.883,0,0,0,12.974,4.915,4.177,4.177,0,0,1,1.731.636,4.1,4.1,0,0,1,1.153,2,45.394,45.394,0,0,0,7.111,13.737,23,23,0,0,0,12.748,8.359C391.5,370.518,389.828,357.913,382.161,348.794Z" transform="translate(-312.994 -332.742)"/>
          </g>
        </g>
        <g id="Grupo_101760" data-name="Grupo 101760" transform="translate(51.846 89.898)" opacity="0.2">
          <g id="Grupo_101759" data-name="Grupo 101759">
            <path id="Trazado_132753" data-name="Trazado 132753" d="M349.62,408.394c5.376,1.867,14.325-.578,19.3-3.348a23.467,23.467,0,0,0,10.528-14.308C371.067,396.181,358.75,404.337,349.62,408.394Z" transform="translate(-349.62 -390.737)"/>
          </g>
        </g>
        <g id="Grupo_101762" data-name="Grupo 101762" transform="translate(20.185 36.227)" opacity="0.2">
          <g id="Grupo_101761" data-name="Grupo 101761">
            <path id="Trazado_132754" data-name="Trazado 132754" d="M300.364,311.676c-1.157-3.612-2.021-7.472-3.179-11.084h-.132a35.954,35.954,0,0,0,.035,13.375,20.986,20.986,0,0,0,6.724,11.446A103.66,103.66,0,0,0,300.364,311.676Z" transform="translate(-296.443 -300.592)"/>
          </g>
        </g>
        <g id="Grupo_101764" data-name="Grupo 101764" transform="translate(17.015 14.675)">
          <g id="Grupo_101763" data-name="Grupo 101763">
            <path id="Trazado_132755" data-name="Trazado 132755" d="M293.712,272.872a25.731,25.731,0,0,1-2.576-8.478c.1-.02.554,1.911,1.267,4.246S293.809,272.832,293.712,272.872Z" transform="translate(-291.119 -264.394)" fill="#263238"/>
          </g>
        </g>
        <g id="Grupo_101766" data-name="Grupo 101766" transform="translate(107.571 22.861)">
          <g id="Grupo_101765" data-name="Grupo 101765">
            <path id="Trazado_132756" data-name="Trazado 132756" d="M449.075,278.143c.1.015-1.132,8.569-2.749,19.1s-3.008,19.066-3.107,19.051,1.132-8.568,2.749-19.106S448.977,278.128,449.075,278.143Z" transform="translate(-443.214 -278.143)" fill="#263238"/>
          </g>
        </g>
      </g>
      <g id="Grupo_101798" data-name="Grupo 101798" transform="translate(284.774 177.348)">
        <g id="Grupo_101768" data-name="Grupo 101768">
          <path id="Trazado_132757" data-name="Trazado 132757" d="M366.236,245.356c-11.729-6.846-33.478-3.385-33.478-3.385a14.083,14.083,0,0,0-13.88-5.036,1.812,1.812,0,0,0-1.477,1.817l.148,8.924c-8.91,3.666-11.007,15.135-11.007,15.135l-4.013,1.125a3.319,3.319,0,0,0-2.423,3.251l.143,8.638a3.32,3.32,0,0,0,2.619,3.19l3.956.854c4.695,7.31,9.3,11.26,15.5,13.331l.151,7.694,12.662-.21,2.932-5.337,14.284-.375,2.34,5.807,13.154-.636.136-9.048c9.025-7.362,11.476-12.077,11.68-21.932S377.586,251.981,366.236,245.356Z" transform="translate(-300.104 -236.676)" fill="#ff725e"/>
        </g>
        <g id="Grupo_101769" data-name="Grupo 101769" transform="translate(12.783 23.55)">
          <path id="Trazado_132758" data-name="Trazado 132758" d="M322.663,276.391a1.95,1.95,0,1,0,.476-.142" transform="translate(-321.575 -276.229)" fill="#263238"/>
        </g>
        <g id="Grupo_101771" data-name="Grupo 101771" transform="translate(18.142 1.24)">
          <g id="Grupo_101770" data-name="Grupo 101770">
            <path id="Trazado_132759" data-name="Trazado 132759" d="M333.391,249.063a12.249,12.249,0,0,1-.185-1.57,23.918,23.918,0,0,0-1.989-7.288,12.112,12.112,0,0,1-.638-1.446,6.011,6.011,0,0,1,.835,1.351,18.64,18.64,0,0,1,2.01,7.364A6,6,0,0,1,333.391,249.063Z" transform="translate(-330.575 -238.759)" fill="#263238"/>
          </g>
        </g>
        <g id="Grupo_101772" data-name="Grupo 101772" transform="translate(36.564 8.727)" opacity="0.3">
          <path id="Trazado_132760" data-name="Trazado 132760" d="M361.516,252.366l.826,1.513a49.022,49.022,0,0,1,16.211-.269l-1.571-1.718A38.876,38.876,0,0,0,361.516,252.366Z" transform="translate(-361.516 -251.333)"/>
        </g>
        <g id="Grupo_101773" data-name="Grupo 101773" transform="translate(2.059 33.112)">
          <path id="Trazado_132761" data-name="Trazado 132761" d="M305.083,293.9c.015.9-.313,1.631-.732,1.637s-.772-.714-.786-1.612.313-1.631.733-1.637S305.068,293,305.083,293.9Z" transform="translate(-303.563 -292.29)" fill="#263238"/>
        </g>
        <g id="Grupo_101775" data-name="Grupo 101775" transform="translate(1.361 27.785)">
          <g id="Grupo_101774" data-name="Grupo 101774">
            <path id="Trazado_132762" data-name="Trazado 132762" d="M302.908,296.626a4.439,4.439,0,0,0,.719.117,2.268,2.268,0,0,0,1.757-.678,4.654,4.654,0,0,0,.791-1.1,6.874,6.874,0,0,0,.486-1.487,14.139,14.139,0,0,0,.437-3.591,13.477,13.477,0,0,0-.467-3.579A4.1,4.1,0,0,0,304.974,284a3.153,3.153,0,0,0-1.863-.511c-.466.031-.71.149-.721.12,0-.01.054-.042.17-.1a2.189,2.189,0,0,1,.539-.144,3.128,3.128,0,0,1,1.989.444,4.26,4.26,0,0,1,1.814,2.411,13.067,13.067,0,0,1,.505,3.665,13.714,13.714,0,0,1-.47,3.664,6.841,6.841,0,0,1-.536,1.537,4.754,4.754,0,0,1-.864,1.133,2.1,2.1,0,0,1-1.032.581,2.628,2.628,0,0,1-.887.061,1.809,1.809,0,0,1-.543-.136C302.958,296.676,302.9,296.634,302.908,296.626Z" transform="translate(-302.39 -283.342)" fill="#263238"/>
          </g>
        </g>
        <g id="Grupo_101777" data-name="Grupo 101777" transform="translate(23.756 55.72)">
          <g id="Grupo_101776" data-name="Grupo 101776">
            <path id="Trazado_132763" data-name="Trazado 132763" d="M380.506,330.264a2.065,2.065,0,0,1-.4.114l-1.158.268c-1.005.233-2.471.521-4.291.831s-4,.613-6.425.87c-2.429.241-5.108.429-7.925.5s-5.5.008-7.942-.112c-2.438-.137-4.629-.327-6.462-.552s-3.311-.434-4.327-.617l-1.169-.211a2.036,2.036,0,0,1-.4-.094,2.083,2.083,0,0,1,.414.033l1.178.154c1.02.146,2.5.328,4.333.519s4.019.364,6.451.484c2.433.1,5.111.151,7.92.088s5.481-.255,7.9-.479c2.423-.241,4.6-.516,6.419-.8s3.29-.535,4.3-.732l1.169-.212A2.147,2.147,0,0,1,380.506,330.264Z" transform="translate(-340.004 -330.261)" fill="#263238"/>
          </g>
        </g>
        <g id="Grupo_101779" data-name="Grupo 101779" transform="translate(20.902 5.229)">
          <g id="Grupo_101778" data-name="Grupo 101778">
            <path id="Trazado_132764" data-name="Trazado 132764" d="M346.818,245.459a2.255,2.255,0,0,1-.086.635,9.949,9.949,0,0,1-.517,1.669,11.433,11.433,0,0,1-8.625,6.989,9.979,9.979,0,0,1-1.74.161,2.243,2.243,0,0,1-.639-.048c0-.059.913-.025,2.336-.328a11.889,11.889,0,0,0,8.466-6.861C346.6,246.347,346.761,245.445,346.818,245.459Z" transform="translate(-335.21 -245.459)" fill="#263238"/>
          </g>
        </g>
        <g id="Grupo_101781" data-name="Grupo 101781" transform="translate(7.667 12.088)">
          <g id="Grupo_101780" data-name="Grupo 101780">
            <path id="Trazado_132765" data-name="Trazado 132765" d="M322.127,256.981c.03.045-.7.544-1.783,1.472a24.045,24.045,0,0,0-6.5,8.9c-.556,1.312-.807,2.162-.86,2.146a2.44,2.44,0,0,1,.127-.612,15.224,15.224,0,0,1,.529-1.616,21.374,21.374,0,0,1,6.56-8.984,15.227,15.227,0,0,1,1.38-1A2.424,2.424,0,0,1,322.127,256.981Z" transform="translate(-312.982 -256.979)" fill="#fff"/>
          </g>
        </g>
        <g id="Grupo_101783" data-name="Grupo 101783" transform="translate(2.594 26.673)">
          <g id="Grupo_101782" data-name="Grupo 101782">
            <path id="Trazado_132766" data-name="Trazado 132766" d="M304.461,282.291a18.574,18.574,0,0,1,3.214-.8,5.93,5.93,0,0,1-3.214.8Z" transform="translate(-304.461 -281.474)" fill="#fff"/>
          </g>
        </g>
        <g id="Grupo_101785" data-name="Grupo 101785" transform="translate(0.223 29.074)">
          <g id="Grupo_101784" data-name="Grupo 101784">
            <path id="Trazado_132767" data-name="Trazado 132767" d="M300.947,294.852a5.287,5.287,0,0,1-.266-1.353,26.806,26.806,0,0,1,.008-6.639,5.256,5.256,0,0,1,.269-1.353c.093.012-.171,2.093-.169,4.672S301.04,294.84,300.947,294.852Z" transform="translate(-300.479 -285.508)" fill="#fff"/>
          </g>
        </g>
        <g id="Grupo_101787" data-name="Grupo 101787" transform="translate(17.461 1.58)">
          <g id="Grupo_101786" data-name="Grupo 101786">
            <path id="Trazado_132768" data-name="Trazado 132768" d="M329.814,239.33c.093.011-.115,2.046-.069,4.558s.312,4.54.22,4.554a5.048,5.048,0,0,1-.279-1.315,26.682,26.682,0,0,1-.107-6.473A5.085,5.085,0,0,1,329.814,239.33Z" transform="translate(-329.431 -239.33)" fill="#fff"/>
          </g>
        </g>
        <g id="Grupo_101789" data-name="Grupo 101789" transform="translate(18.817 0.49)">
          <g id="Grupo_101788" data-name="Grupo 101788">
            <path id="Trazado_132769" data-name="Trazado 132769" d="M341.747,239.723a18.16,18.16,0,0,0-10.038-1.908,5.217,5.217,0,0,1,1.511-.27,13.867,13.867,0,0,1,7.22,1.372A5.205,5.205,0,0,1,341.747,239.723Z" transform="translate(-331.709 -237.499)" fill="#fff"/>
          </g>
        </g>
        <g id="Grupo_101791" data-name="Grupo 101791" transform="translate(37.407 10.906)">
          <g id="Grupo_101790" data-name="Grupo 101790">
            <path id="Trazado_132770" data-name="Trazado 132770" d="M379.166,255.95c-.01.049-.91-.116-2.374-.3a43.824,43.824,0,0,0-11.488.058c-1.462.2-2.361.372-2.371.323a2.576,2.576,0,0,1,.617-.187c.4-.1.99-.225,1.721-.352a35.631,35.631,0,0,1,11.552-.059c.732.12,1.322.236,1.724.335A2.6,2.6,0,0,1,379.166,255.95Z" transform="translate(-362.932 -254.992)" fill="#fff"/>
          </g>
        </g>
        <g id="Grupo_101793" data-name="Grupo 101793" transform="translate(34.293 4.756)">
          <g id="Grupo_101792" data-name="Grupo 101792">
            <path id="Trazado_132771" data-name="Trazado 132771" d="M380.751,246.438a5.171,5.171,0,0,1-.9-.155c-.574-.123-1.409-.286-2.443-.466a55.968,55.968,0,0,0-16.33-.454c-1.043.123-1.885.238-2.465.33a5.18,5.18,0,0,1-.909.1,5.177,5.177,0,0,1,.888-.223c.575-.129,1.415-.278,2.458-.429a48.951,48.951,0,0,1,16.4.456c1.033.208,1.863.4,2.43.564A5.154,5.154,0,0,1,380.751,246.438Z" transform="translate(-357.702 -244.663)" fill="#fff"/>
          </g>
        </g>
        <g id="Grupo_101795" data-name="Grupo 101795" transform="translate(11.212 45.958)">
          <g id="Grupo_101794" data-name="Grupo 101794">
            <path id="Trazado_132772" data-name="Trazado 132772" d="M331.3,321.739a2.185,2.185,0,0,1-.588-.073,13.873,13.873,0,0,1-1.566-.383,19.521,19.521,0,0,1-8.887-5.658,13.946,13.946,0,0,1-1.01-1.256,2.175,2.175,0,0,1-.314-.5c.043-.033.551.636,1.486,1.609a22.018,22.018,0,0,0,8.794,5.6C330.494,321.51,331.315,321.686,331.3,321.739Z" transform="translate(-318.936 -313.866)" fill="#fff"/>
          </g>
        </g>
        <g id="Grupo_101797" data-name="Grupo 101797" transform="translate(53.867 44.037)">
          <g id="Grupo_101796" data-name="Grupo 101796">
            <path id="Trazado_132773" data-name="Trazado 132773" d="M411.818,310.639a5.948,5.948,0,0,1-.507.841,9.438,9.438,0,0,1-.666.941c-.278.353-.575.773-.965,1.185a17.391,17.391,0,0,1-1.281,1.339c-.467.478-1.022.925-1.6,1.409a23.732,23.732,0,0,1-8.65,4.384c-.729.176-1.418.36-2.08.454a17.45,17.45,0,0,1-1.838.242c-.563.071-1.077.062-1.526.078a9.4,9.4,0,0,1-1.153-.019,5.889,5.889,0,0,1-.978-.088,6.017,6.017,0,0,1,.981-.033,11.122,11.122,0,0,0,1.144-.033c.445-.032.954-.038,1.51-.123.558-.064,1.168-.138,1.814-.276.652-.1,1.331-.294,2.05-.476a24.665,24.665,0,0,0,8.549-4.333c.571-.472,1.126-.907,1.6-1.372.493-.439.914-.887,1.295-1.3.4-.4.7-.8.992-1.145a11.153,11.153,0,0,0,.7-.9A6.052,6.052,0,0,1,411.818,310.639Z" transform="translate(-390.578 -310.638)" fill="#fff"/>
          </g>
        </g>
      </g>
      <g id="Grupo_101822" data-name="Grupo 101822" transform="translate(262.215 222.238)">
        <g id="Grupo_101799" data-name="Grupo 101799" transform="translate(0 11.967)">
          <path id="Trazado_132774" data-name="Trazado 132774" d="M267.821,332.171c-.016,0-4.83,27.948-5.455,32.7s.66,15.574,4.537,18.825,7.138,4.071,9.889,3.571,11.381-9.5,14.632-13.131,19.577-33,19.577-33l-15.075-6.7-8.814,10.69,1.989-6.773Z" transform="translate(-262.215 -332.171)" fill="#ffbe9d"/>
        </g>
        <g id="Grupo_101801" data-name="Grupo 101801" transform="translate(6.181 24.582)">
          <g id="Grupo_101800" data-name="Grupo 101800">
            <path id="Trazado_132775" data-name="Trazado 132775" d="M291.592,353.36a5.958,5.958,0,0,1-.587.857l-1.694,2.267c-.724.95-1.6,2.077-2.606,3.294a39.1,39.1,0,0,1-3.51,3.777,24.5,24.5,0,0,1-4.227,2.965c-1.357.808-2.573,1.537-3.53,2.239a18.929,18.929,0,0,0-2.84,2.58c-.01-.007.038-.087.138-.233a6.227,6.227,0,0,1,.47-.613,12.9,12.9,0,0,1,2.078-1.94,39.912,39.912,0,0,1,3.51-2.32,25.557,25.557,0,0,0,4.155-2.947,42.415,42.415,0,0,0,3.5-3.725c1.021-1.2,1.911-2.308,2.66-3.238l1.784-2.2A5.475,5.475,0,0,1,291.592,353.36Z" transform="translate(-272.597 -353.359)" fill="#eb996e"/>
          </g>
        </g>
        <g id="Grupo_101821" data-name="Grupo 101821" transform="translate(27.879)">
          <g id="Grupo_101820" data-name="Grupo 101820">
            <g id="Grupo_101819" data-name="Grupo 101819">
              <g id="Grupo_101818" data-name="Grupo 101818">
                <g id="Grupo_101817" data-name="Grupo 101817">
                  <g id="Grupo_101803" data-name="Grupo 101803">
                    <g id="Grupo_101802" data-name="Grupo 101802">
                      <path id="Trazado_132776" data-name="Trazado 132776" d="M318.266,322.416s4.7-3.952,6.184-2.8,1.569,2.211.95,3.008-4.174,5.312-4.174,5.312l2.627,2.482,4.676-1.527,2.005-.479s4.808.113,3.786,3.343c0,0,4.973-1.585,5.872-1.659,1.374-.114,4.835-.458,4.342,1.334a3.91,3.91,0,0,1-2.417,2.43A1.629,1.629,0,0,1,343,336.51a5.807,5.807,0,0,1-3.153,2.37l-7.835,3.139a4.235,4.235,0,0,1-2.993.059l-2.473-.879-4.866,2.123s-9.819-2.831-11.234-11.412l1.278-2.659.837-1.571s-1.158-7.322-1.172-8.312a34.775,34.775,0,0,0-2.248-5.707,1.123,1.123,0,0,1,1.2-1.575,7.312,7.312,0,0,1,3.516,1.831c3.377,2.858,3.8,5.785,3.8,5.785l.714,2.879" transform="translate(-309.04 -312.072)" fill="#ffbe9d"/>
                    </g>
                  </g>
                  <g id="Grupo_101816" data-name="Grupo 101816" transform="translate(4.816 7.296)">
                    <g id="Grupo_101806" data-name="Grupo 101806">
                      <g id="Grupo_101805" data-name="Grupo 101805">
                        <g id="Grupo_101804" data-name="Grupo 101804">
                          <path id="Trazado_132777" data-name="Trazado 132777" d="M318.214,330.67c-.017-.024.329-.266.889-.778s1.315-1.309,2.282-2.277c.483-.486,1.059-.975,1.677-1.484a10.282,10.282,0,0,1,2.154-1.437,3.842,3.842,0,0,1,1.387-.365,2.689,2.689,0,0,1,.753.063,1.528,1.528,0,0,1,.383.121,2.755,2.755,0,0,1,.333.2,2.1,2.1,0,0,1,.571.567,1.225,1.225,0,0,1,.14.4l.106.36a1.5,1.5,0,0,1,.073.844,6.377,6.377,0,0,1-.266.749,11.553,11.553,0,0,1-1.656,2.587,21.979,21.979,0,0,1-1.912,2.108,13.29,13.29,0,0,1-3.9,2.82,3.868,3.868,0,0,1-3.207-.048,2.449,2.449,0,0,1-.711-.536.812.812,0,0,1-.181-.251,3.436,3.436,0,0,0,4.009.611,13.533,13.533,0,0,0,3.77-2.821,22.733,22.733,0,0,0,1.87-2.09,11.438,11.438,0,0,0,1.6-2.513,6.124,6.124,0,0,0,.252-.711,1.207,1.207,0,0,0-.071-.656l-.107-.367a.89.89,0,0,0-.1-.308,1.809,1.809,0,0,0-.476-.47,2.457,2.457,0,0,0-.289-.179,1.23,1.23,0,0,0-.306-.1,2.346,2.346,0,0,0-.666-.06,3.524,3.524,0,0,0-1.274.326,10.215,10.215,0,0,0-2.105,1.371c-.626.5-1.2.967-1.688,1.437-.981.938-1.761,1.728-2.363,2.2a8.56,8.56,0,0,1-.707.526A1.054,1.054,0,0,1,318.214,330.67Z" transform="translate(-317.13 -324.326)" fill="#eb996e"/>
                        </g>
                      </g>
                    </g>
                    <g id="Grupo_101809" data-name="Grupo 101809" transform="translate(0.604 3.043)">
                      <g id="Grupo_101808" data-name="Grupo 101808">
                        <g id="Grupo_101807" data-name="Grupo 101807">
                          <path id="Trazado_132778" data-name="Trazado 132778" d="M322.05,329.606a11.3,11.3,0,0,1-3.906,0,11.3,11.3,0,0,1,3.906,0Z" transform="translate(-318.144 -329.436)" fill="#eb996e"/>
                        </g>
                      </g>
                    </g>
                    <g id="Grupo_101812" data-name="Grupo 101812" transform="translate(2.928 9.003)">
                      <g id="Grupo_101811" data-name="Grupo 101811">
                        <g id="Grupo_101810" data-name="Grupo 101810">
                          <path id="Trazado_132779" data-name="Trazado 132779" d="M326.016,342.915a1.651,1.651,0,0,1,.349-.173l1.025-.433,3.79-1.534c.8-.316,1.677-.687,2.664-.972a7.449,7.449,0,0,1,3.267-.279,4.757,4.757,0,0,1,1.7.608,2.185,2.185,0,0,1,1.16,1.516,2.093,2.093,0,0,1-.846,1.789,6.633,6.633,0,0,1-1.779.9l-6.917,2.7a20.28,20.28,0,0,1-3.1,1.022,6.313,6.313,0,0,1-2.858.023,2.932,2.932,0,0,1-1.892-1.39,4.316,4.316,0,0,1-.5-1.709,8.145,8.145,0,0,1-.029-1.117,1.549,1.549,0,0,1,.037-.388c.035,0,0,.539.123,1.489a4.33,4.33,0,0,0,.529,1.629,2.74,2.74,0,0,0,1.787,1.253,6.133,6.133,0,0,0,2.739-.065,20.659,20.659,0,0,0,3.042-1.038l6.907-2.729a6.39,6.39,0,0,0,1.691-.847,1.765,1.765,0,0,0,.727-1.488,1.873,1.873,0,0,0-1-1.276,4.453,4.453,0,0,0-1.58-.576,7.235,7.235,0,0,0-3.139.241c-.968.266-1.844.622-2.652.925l-3.83,1.433-1.047.373A1.689,1.689,0,0,1,326.016,342.915Z" transform="translate(-322.048 -339.447)" fill="#eb996e"/>
                        </g>
                      </g>
                    </g>
                    <g id="Grupo_101815" data-name="Grupo 101815" transform="translate(8.787 10.472)">
                      <g id="Grupo_101814" data-name="Grupo 101814">
                        <g id="Grupo_101813" data-name="Grupo 101813">
                          <path id="Trazado_132780" data-name="Trazado 132780" d="M343.681,343.876a1.5,1.5,0,0,1,.333-.16l.979-.393a23.8,23.8,0,0,1,3.714-1.153,11.8,11.8,0,0,1,2.689-.252,7.972,7.972,0,0,1,1.515.164,1.4,1.4,0,0,1,.736.442,1.347,1.347,0,0,1,.291.839,2.048,2.048,0,0,1-.77,1.561,9.951,9.951,0,0,1-1.456.995,25.176,25.176,0,0,1-3.29,1.618,65.486,65.486,0,0,1-6.706,2.2l-2.954.848a26.3,26.3,0,0,1-2.606.669,4.982,4.982,0,0,1-2.237-.067,3.252,3.252,0,0,1-1.443-.881,2.222,2.222,0,0,1-.534-.924,1.063,1.063,0,0,1-.052-.367,2.659,2.659,0,0,0,.681,1.2,3.19,3.19,0,0,0,1.4.79,4.866,4.866,0,0,0,2.143.013c.793-.148,1.644-.431,2.568-.7l2.945-.878c2.073-.621,4.363-1.271,6.664-2.214a25.449,25.449,0,0,0,3.25-1.59,9.83,9.83,0,0,0,1.409-.949,1.736,1.736,0,0,0,.674-1.314.985.985,0,0,0-.794-1,7.882,7.882,0,0,0-1.444-.172,11.866,11.866,0,0,0-2.635.207,27.733,27.733,0,0,0-3.715,1.041l-1,.333A1.522,1.522,0,0,1,343.681,343.876Z" transform="translate(-331.889 -341.914)" fill="#eb996e"/>
                        </g>
                      </g>
                    </g>
                  </g>
                </g>
              </g>
            </g>
          </g>
        </g>
      </g>
      <g id="Grupo_101843" data-name="Grupo 101843" transform="translate(332.221 223.669)">
        <g id="Grupo_101823" data-name="Grupo 101823" transform="translate(18.679 8.709)">
          <path id="Trazado_132781" data-name="Trazado 132781" d="M411.168,343.011s17.191,43.383,26.9,44.52c10.341,1.211,20.373-7.953,18.49-23.775-.723-6.071-4.956-34.652-4.956-34.652l-21.523,9.255,5.72,11.855-8.481-13.239Z" transform="translate(-411.168 -329.104)" fill="#ffbe9d"/>
        </g>
        <g id="Grupo_101825" data-name="Grupo 101825" transform="translate(36.728 19.55)">
          <g id="Grupo_101824" data-name="Grupo 101824">
            <path id="Trazado_132782" data-name="Trazado 132782" d="M462.379,379.659c-.036,0-.014-.555-.066-1.552a17.3,17.3,0,0,0-.664-4.149,10.94,10.94,0,0,0-3.268-5.172c-.859-.772-1.97-1.394-2.92-2.289a30.235,30.235,0,0,1-2.813-2.853,96.358,96.358,0,0,1-8.16-11.376c-.955-1.515-1.71-2.751-2.229-3.607-.24-.4-.435-.73-.59-.991a1.661,1.661,0,0,1-.185-.358,1.754,1.754,0,0,1,.246.319l.648.954,2.325,3.544a109.093,109.093,0,0,0,8.217,11.276,30.884,30.884,0,0,0,2.774,2.825c.925.88,2.008,1.489,2.907,2.306a11.037,11.037,0,0,1,3.292,5.35,15.983,15.983,0,0,1,.559,4.216c0,.5-.011.892-.031,1.156A1.712,1.712,0,0,1,462.379,379.659Z" transform="translate(-441.484 -347.312)" fill="#eb996e"/>
          </g>
        </g>
        <g id="Grupo_101842" data-name="Grupo 101842">
          <g id="Grupo_101839" data-name="Grupo 101839">
            <g id="Grupo_101827" data-name="Grupo 101827">
              <g id="Grupo_101826" data-name="Grupo 101826">
                <path id="Trazado_132783" data-name="Trazado 132783" d="M408.2,314.476c.919,1.531,3,6.246,3,6.246s5.593,8.015,5.32,13.3c-.053,1.026-3.279,3.127-3.279,3.127s-10.206,7.654-12.655,8.165-6.124-1.837-6.531-1.939-14.188-8.881-14.258-10.12a2.6,2.6,0,0,1,1.489-2.669l15.626-.886,7.428-5.817-.329-4.318" transform="translate(-379.796 -314.476)" fill="#ffbe9d"/>
              </g>
            </g>
            <g id="Grupo_101830" data-name="Grupo 101830" transform="translate(7.08 15.352)">
              <g id="Grupo_101829" data-name="Grupo 101829">
                <g id="Grupo_101828" data-name="Grupo 101828">
                  <path id="Trazado_132784" data-name="Trazado 132784" d="M412.225,340.262a6.25,6.25,0,0,1-.841.625l-2.359,1.6c-1.011.669-2.168,1.458-3.546,2.332a2.813,2.813,0,0,1-1.265.183c-.414.007-.837.025-1.267.048-.861.046-1.752.121-2.666.2a46.889,46.889,0,0,1-5.185.231,5.349,5.349,0,0,1-2.255-.491,1.992,1.992,0,0,1-1.152-1.64,2.338,2.338,0,0,1,.537-1.577,3.182,3.182,0,0,1,.979-.777,4.129,4.129,0,0,1,.725-.3.763.763,0,0,1,.267-.055c.012.03-.354.131-.926.467a3.188,3.188,0,0,0-.895.78,2.162,2.162,0,0,0-.447,1.442,1.741,1.741,0,0,0,1.042,1.407,5.166,5.166,0,0,0,2.132.427c1.583.026,3.322-.1,5.15-.257.915-.077,1.809-.151,2.677-.192.434-.021.86-.037,1.279-.04a2.568,2.568,0,0,0,1.131-.139l3.554-2.252,2.42-1.508A6.159,6.159,0,0,1,412.225,340.262Z" transform="translate(-391.687 -340.26)" fill="#eb996e"/>
                </g>
              </g>
            </g>
            <g id="Grupo_101833" data-name="Grupo 101833" transform="translate(0.96 16.075)">
              <g id="Grupo_101832" data-name="Grupo 101832">
                <g id="Grupo_101831" data-name="Grupo 101831">
                  <path id="Trazado_132785" data-name="Trazado 132785" d="M408.59,348.275a1.171,1.171,0,0,1-.308.088l-.894.186-3.3.622-4.9.879-2.9.507c-.5.082-1.006.191-1.551.244a2.66,2.66,0,0,1-1.643-.323c-.494-.288-.895-.629-1.33-.923s-.859-.586-1.29-.852a17.27,17.27,0,0,0-2.589-1.332c-.855-.352-1.725-.563-2.508-.9a6.87,6.87,0,0,1-1.971-1.282c-.531-.483-.984-.928-1.374-1.35a2.075,2.075,0,0,1-.62-1.331,1.194,1.194,0,0,1,.324-.87.563.563,0,0,1,.279-.166c.008.015-.1.058-.229.212a1.17,1.17,0,0,0-.242.819c.01.806.993,1.57,2.019,2.5a6.744,6.744,0,0,0,1.921,1.2c.758.311,1.632.511,2.516.866a17.061,17.061,0,0,1,2.647,1.339c.439.268.875.556,1.31.859s.859.647,1.3.9c.891.552,1.975.186,2.971.047l2.9-.488,4.917-.807,3.32-.515.906-.123A1.132,1.132,0,0,1,408.59,348.275Z" transform="translate(-381.408 -341.476)" fill="#eb996e"/>
                </g>
              </g>
            </g>
            <g id="Grupo_101836" data-name="Grupo 101836" transform="translate(13.997 27.735)">
              <g id="Grupo_101835" data-name="Grupo 101835">
                <g id="Grupo_101834" data-name="Grupo 101834">
                  <path id="Trazado_132786" data-name="Trazado 132786" d="M413.183,361.072a5.634,5.634,0,0,1-1.409.422,31.648,31.648,0,0,1-3.5.585,28.381,28.381,0,0,1-3.546.192,2.142,2.142,0,0,1-1.424-.4,5.931,5.931,0,0,0,1.426.159c.891-.041,2.141-.139,3.506-.289s2.6-.342,3.49-.483A7.216,7.216,0,0,1,413.183,361.072Z" transform="translate(-403.305 -361.059)" fill="#eb996e"/>
                </g>
              </g>
            </g>
            <g id="Grupo_101838" data-name="Grupo 101838" transform="translate(15.577 21)">
              <g id="Grupo_101837" data-name="Grupo 101837">
                <path id="Trazado_132787" data-name="Trazado 132787" d="M424.687,349.747c.013,0,0,.084-.031.237a3.146,3.146,0,0,1-.239.641,4.744,4.744,0,0,1-1.744,1.8,7.737,7.737,0,0,1-1.574.736c-.284.1-.541.226-.618.483s-.1.644-.221.982a3.7,3.7,0,0,1-1.315,1.817,5.905,5.905,0,0,1-2.22.876,9.8,9.8,0,0,0-2.19.648c-.629.344-1.259.757-1.848,1.105-.3.178-.571.357-.893.518a2.909,2.909,0,0,1-.969.25,5,5,0,0,1-1.742-.191,14.038,14.038,0,0,1-2.322-.912,4.373,4.373,0,0,1-.8-.431,4.4,4.4,0,0,1,.86.3,17.9,17.9,0,0,0,2.328.794,4.876,4.876,0,0,0,1.649.141,2.639,2.639,0,0,0,.863-.239c.264-.137.557-.332.849-.511.6-.364,1.18-.757,1.869-1.141a9.846,9.846,0,0,1,2.268-.684,5.659,5.659,0,0,0,2.092-.81,3.4,3.4,0,0,0,1.207-1.636c.122-.314.123-.616.238-.985a1.161,1.161,0,0,1,.818-.658,7.807,7.807,0,0,0,1.541-.671,4.9,4.9,0,0,0,1.753-1.644C424.584,350.059,424.654,349.737,424.687,349.747Z" transform="translate(-405.959 -349.747)" fill="#eb996e"/>
              </g>
            </g>
          </g>
          <g id="Grupo_101841" data-name="Grupo 101841" transform="translate(17.12 7.835)">
            <g id="Grupo_101840" data-name="Grupo 101840">
              <path id="Trazado_132788" data-name="Trazado 132788" d="M417.822,327.638a96.856,96.856,0,0,1-9.271,7.389,97.313,97.313,0,0,1,9.271-7.389Z" transform="translate(-408.55 -327.635)" fill="#eb996e"/>
            </g>
          </g>
        </g>
      </g>
    </g>
  </g>
</svg>
