<svg xmlns="http://www.w3.org/2000/svg" xmlns:xlink="http://www.w3.org/1999/xlink" width="313" height="268" viewBox="0 0 313 268">
  <defs>
    <clipPath id="clip-path">
      <rect id="Rectángulo_36577" data-name="Rectángulo 36577" width="313" height="268" transform="translate(5849 -8013)" fill="#fff" stroke="#707070" stroke-width="1"/>
    </clipPath>
  </defs>
  <g id="Grupo_105831" data-name="Grupo 105831" transform="translate(-3542 8013)">
    <path id="Trazado_132727" data-name="Trazado 132727" d="M521.845,332.4c-5.643,0-31.084.006-63.363,0l-28.031-.008-22.353-.011-12.731-.008c-56.812-.045-65.867.591-74.883.027-16.774,0-59.735-65.186-8.591-107.987,19.86-16.62-5.629-38.7,27.357-55.283,21.692-10.905,37.448,8.253,63.634,1.351,19.346-5.1,23.281-17.06,61.529-13.746,36.781,3.187,37.521,33.387,25.853,58.324-7.367,15.744,28.754,10.883,45.457,34.38C564.231,289.545,522.1,331.8,521.845,332.4Z" transform="translate(3274.383 -8080.016)" fill="#e1f3d7"/>
    <g id="Enmascarar_grupo_117" data-name="Enmascarar grupo 117" transform="translate(-2307)" clip-path="url(#clip-path)">
      <g id="Grupo_101859" data-name="Grupo 101859" transform="translate(5746.766 -8065.663)">
        <g id="Character" transform="translate(117.235 72.662)">
          <g id="Grupo_101855" data-name="Grupo 101855">
            <g id="Grupo_101849" data-name="Grupo 101849" transform="translate(41.601)">
              <g id="Grupo_101848" data-name="Grupo 101848">
                <g id="Grupo_101847" data-name="Grupo 101847">
                  <g id="Grupo_101845" data-name="Grupo 101845">
                    <path id="Trazado_132789" data-name="Trazado 132789" d="M301.766,399.22l-110.973.729a24.174,24.174,0,0,1-24.332-24.005L164.524,97.733a24.174,24.174,0,0,1,24.014-24.342l110.973-.728a24.174,24.174,0,0,1,24.332,24.005l1.937,278.211A24.174,24.174,0,0,1,301.766,399.22Z" transform="translate(-164.523 -72.662)" fill="#263238"/>
                  </g>
                  <g id="Grupo_101846" data-name="Grupo 101846" transform="translate(7.367 9.603)">
                    <path id="Trazado_132790" data-name="Trazado 132790" d="M300.467,83.579l-21.516.141a5.345,5.345,0,0,0-5.186,5.5l.026,3.9a5.344,5.344,0,0,1-5.186,5.5l-41.939.275a5.35,5.35,0,0,1-5.263-5.428l-.026-3.9a5.35,5.35,0,0,0-5.263-5.427l-7.567.049-18.831.124A16.93,16.93,0,0,0,172.9,101.354l1.891,271.554a16.929,16.929,0,0,0,17.04,16.813l110.752-.728A16.929,16.929,0,0,0,319.4,371.945l-1.891-271.555A16.93,16.93,0,0,0,300.467,83.579Z" transform="translate(-172.898 -83.579)" fill="#fafafa"/>
                  </g>
                </g>
              </g>
            </g>
            <g id="Grupo_101850" data-name="Grupo 101850" transform="translate(55.827 63.988)">
              <path id="Trazado_132791" data-name="Trazado 132791" d="M280.012,205.9c-3.149.369-5.329-1.346-5.855-3.348-.022.005-.041.012-.063.017l-.2,5.2a1.623,1.623,0,0,1,.559.06l0,0a43.5,43.5,0,0,1,4.737.706A8.519,8.519,0,0,1,280.012,205.9Z" transform="translate(-191.903 -152.272)" fill="none"/>
              <path id="Trazado_132792" data-name="Trazado 132792" d="M291.311,211.34a4.905,4.905,0,0,0-.375-2.618c-.01-.022-.021-.041-.032-.063a9.219,9.219,0,0,1-.021,3.7l.121.031A4.634,4.634,0,0,0,291.311,211.34Z" transform="translate(-193.946 -153.007)" fill="none"/>
              <path id="Trazado_132793" data-name="Trazado 132793" d="M287.713,173.31l.018.522a52.3,52.3,0,0,1-.533,9.727,18.592,18.592,0,0,0,1.031-6.155A18.143,18.143,0,0,0,287.713,173.31Z" transform="translate(-193.503 -148.755)" fill="none"/>
              <path id="Trazado_132794" data-name="Trazado 132794" d="M282.078,424.748q.819.123,1.556.237c0-.03,0-.061,0-.093l-2.217-.24Z" transform="translate(-192.808 -178.984)" fill="#b78876"/>
              <path id="Trazado_132795" data-name="Trazado 132795" d="M251.645,429.857c-.023-.216-.055-.445-.074-.654a33.918,33.918,0,0,1-.066-5.656,15.147,15.147,0,0,1,.181-1.527,4.443,4.443,0,0,1,.1-.491c-3.294-.352-6.262-.655-8.7-.9l-4.889-.494.768,9.8Z" transform="translate(-187.61 -178.441)" fill="#b78876"/>
              <path id="Trazado_132796" data-name="Trazado 132796" d="M261.828,422.628c-2.87-.33-5.61-.632-8.16-.9.02.164-.053.869-.078,2.028a40.726,40.726,0,0,0,.257,5.6c.026.222.063.464.092.694l27.769-.183c-.828-2.635-1.335-4.3-1.408-4.66a1.667,1.667,0,0,1-.018-.279l-1.6-.207C274.373,424.152,268.416,423.39,261.828,422.628Z" transform="translate(-189.459 -178.632)" fill="#b78876"/>
              <path id="Trazado_132797" data-name="Trazado 132797" d="M253.547,423.751c.025-1.159.1-1.863.078-2.028l-.035,0a4.443,4.443,0,0,0-.1.491,15.147,15.147,0,0,0-.181,1.527,33.918,33.918,0,0,0,.066,5.656c.019.208.051.438.074.654l.444,0c-.029-.23-.067-.472-.092-.694A40.727,40.727,0,0,1,253.547,423.751Z" transform="translate(-189.417 -178.632)" fill="#a36957"/>
              <path id="Trazado_132798" data-name="Trazado 132798" d="M209.987,233.911l-4.465-5.073s.158-.158.432-.435c-3.24,2.5-5.651,4.019-5.869,3.222-3.893-14.225-3.416-32.525-3.047-39.541.373-.612.8-1.286,1.313-2.031a9.368,9.368,0,0,1,2.164-2.234,14.365,14.365,0,0,1,3.33-1.991c1.137-.356,1.282-1.89.271-2.231s-4.165.566-7.046,3.118-1.843-3.343-1.5-5.5,1.078-8.859.5-9.47c-.852-.9-2-.13-2.289,2.028-.293,2.183-1.613,8.578-2.745,8.373-1.115-.2.764-11.146.764-11.146s.781-2.285-.518-2.564c-2.343-.5-3.481,11.254-3.562,12.375-.055.78-1.295.6-1.189-.233.108-.859,2.128-10.881-.251-11.417-1.827-.412-1.028,9.667-2.6,11.544s.177-7.724-1.585-8.046c-.656-.12-1.165-.118-1.374,5.519a124.255,124.255,0,0,0,.871,13.569c-1.121,15.49-2.826,62.875,18.495,60.652,8.736-.911,15.068-3.922,19.618-7.464l-9.49-10.78Z" transform="translate(-180.693 -148.167)" fill="#b78876"/>
              <path id="Trazado_132799" data-name="Trazado 132799" d="M270.173,303.84c6.569.183,12.6.359,17.777.516.082-5.418.161-10.7.238-15.786a7.275,7.275,0,0,1-.255-.734l.011-.786c-5.121-.119-11-.263-17.362-.426C270.43,292.169,270.292,297.92,270.173,303.84Z" transform="translate(-191.455 -162.384)" fill="#455a64"/>
              <path id="Trazado_132800" data-name="Trazado 132800" d="M258.022,286.295c-3.509-.093-6.923-.186-10.212-.278-.2,5.549-.414,11.305-.632,17.207,3.038.078,6.182.161,9.4.247,3.566.1,7.033.189,10.371.282.121-5.92.265-11.67.423-17.214C264.352,286.462,261.225,286.38,258.022,286.295Z" transform="translate(-188.69 -162.31)" fill="#455a64"/>
              <path id="Trazado_132801" data-name="Trazado 132801" d="M287.143,387.444c-4.83-.1-10.749-.243-17.385-.408.015,1.51.029,2.992.046,4.413.069,4.881.129,9.205.181,12.924,6.59.187,12.495.364,17.338.517-.051-3.312-.128-7.067-.141-11.218C287.163,391.685,287.15,389.6,287.143,387.444Z" transform="translate(-191.405 -174.46)" fill="#455a64"/>
              <path id="Trazado_132802" data-name="Trazado 132802" d="M290.129,416.128c.034,2.344.061,4.171.079,5.431,0,.606.006,1.076.009,1.412,0,.318-.013.482-.013.482s1.474-6.21,3.363-15.674q-1.657-.034-3.548-.076C290.039,410.98,290.085,413.812,290.129,416.128Z" transform="translate(-193.842 -176.946)" fill="#455a64"/>
              <path id="Trazado_132803" data-name="Trazado 132803" d="M289.93,393.727c-.007,4.155.047,7.914.074,11.228q1.923.061,3.607.117c1-5.049,2.124-11,3.2-17.425-1.907-.034-4.226-.081-6.891-.138C289.918,389.663,289.922,391.744,289.93,393.727Z" transform="translate(-193.83 -174.517)" fill="#455a64"/>
              <path id="Trazado_132804" data-name="Trazado 132804" d="M287.711,421.5c-.039-1.26-.094-3.086-.164-5.429-.071-2.319-.143-5.153-.187-8.434-4.841-.106-10.746-.245-17.336-.408.036,2.558.069,4.825.1,6.74.035,2.358.062,4.2.082,5.464,0,.611.007,1.083.01,1.421,0,.15,0,.264-.006.345,3.737.477,7.094.943,9.848,1.353l2.217.24,5.531.6s-.019-.163-.033-.48C287.752,422.581,287.734,422.112,287.711,421.5Z" transform="translate(-191.437 -176.889)" fill="#455a64"/>
              <path id="Trazado_132805" data-name="Trazado 132805" d="M298.4,305c-3.406-11.145-5.9-12.8-7.27-15.138-.061,4.818-.133,9.8-.212,14.9C293.682,304.843,296.193,304.922,298.4,305Z" transform="translate(-193.95 -162.772)" fill="#455a64"/>
              <path id="Trazado_132806" data-name="Trazado 132806" d="M266.475,326.692c-3.694-.094-7.56-.194-11.546-.3-2.948-.078-5.828-.157-8.626-.234-.23,5.929-.452,11.681-.667,17.2q3.832.1,7.852.206c4.46.12,8.769.238,12.856.352C266.365,338.369,266.407,332.614,266.475,326.692Z" transform="translate(-188.504 -167.138)" fill="#455a64"/>
              <path id="Trazado_132807" data-name="Trazado 132807" d="M290.694,318.175c-.033,2.133-.064,4.243-.1,6.34,4.438.137,8.175.259,10.969.359a62.261,62.261,0,0,0-1.663-12.307c-.5-1.933-.986-3.65-1.454-5.2-2.23-.046-4.773-.1-7.577-.165Q290.789,312.606,290.694,318.175Z" transform="translate(-193.912 -164.859)" fill="#455a64"/>
              <path id="Trazado_132808" data-name="Trazado 132808" d="M266.851,306.614c-3.339-.085-6.807-.176-10.375-.271-3.222-.086-6.367-.172-9.406-.256-.07,1.891-.139,3.79-.209,5.709q-.227,5.843-.446,11.5c2.8.072,5.674.148,8.62.227,3.983.106,7.847.211,11.539.315q.05-4.167.115-8.428Q266.762,310.957,266.851,306.614Z" transform="translate(-188.598 -164.724)" fill="#455a64"/>
              <path id="Trazado_132809" data-name="Trazado 132809" d="M287.608,327.209c-5.128-.116-11.172-.262-17.785-.43-.071,5.921-.118,11.677-.146,17.228,6.621.186,12.629.362,17.674.519C287.424,338.942,287.511,333.152,287.608,327.209Z" transform="translate(-191.395 -167.213)" fill="#455a64"/>
              <path id="Trazado_132810" data-name="Trazado 132810" d="M287.905,307.133c-5.177-.119-11.21-.266-17.78-.433q-.086,4.341-.159,8.788-.067,4.266-.117,8.433c6.614.186,12.658.362,17.785.519.034-2.095.069-4.2.106-6.333Q287.825,312.534,287.905,307.133Z" transform="translate(-191.416 -164.798)" fill="#455a64"/>
              <path id="Trazado_132811" data-name="Trazado 132811" d="M290.757,215.549c.039,1.26.094,3.085.164,5.428.026.808.049,1.7.073,2.63.029.293.043.588.046.882,4.2.122,8.044.238,11.436.343-1.971-5.67-6.364-9.336-11.1-11.67a5.173,5.173,0,0,1-.667,1.116C290.721,214.6,290.737,215.019,290.757,215.549Z" transform="translate(-193.925 -153.548)" fill="#455a64"/>
              <path id="Trazado_132812" data-name="Trazado 132812" d="M290.306,215.712c0-.5-.005-.894-.007-1.209-.057.07-.109.148-.167.213-.083.092-.17.17-.255.253a8.832,8.832,0,0,1-2.154,2.927,8.923,8.923,0,0,1,2.685,4.543c-.008-.441-.016-.888-.023-1.3C290.351,218.8,290.324,216.972,290.306,215.712Z" transform="translate(-193.566 -153.709)" fill="#455a64"/>
              <path id="Trazado_132813" data-name="Trazado 132813" d="M246.8,244.131c-5.512-.153-10.674-.3-15.3-.438q-.3,2.588-.609,5.279-.272,2.4-.527,4.714a26.541,26.541,0,0,0,1.925,8.791c4.192.1,8.832.213,13.791.339C246.341,256.074,246.584,249.808,246.8,244.131Z" transform="translate(-186.667 -157.22)" fill="#455a64"/>
              <path id="Trazado_132814" data-name="Trazado 132814" d="M272.1,242.1l6.155.174a6.087,6.087,0,0,1,.926-.142c-.143-.2-.2-.378-.146-.425.026-.021.07-.017.126,0a3.874,3.874,0,0,1-1.173-2.678c.016-2.083,1.44-3.93,2.807-5.628a12.143,12.143,0,0,1-1.671-7.2l-6.293-.163c-.177,3.831-.384,8.345-.62,13.459C272.169,240.351,272.132,241.225,272.1,242.1Z" transform="translate(-191.686 -155.098)" fill="#455a64"/>
              <path id="Trazado_132815" data-name="Trazado 132815" d="M259.564,266.247c-3.8-.1-7.483-.2-11.017-.3-.2,5.455-.412,11.21-.632,17.209,3.288.084,6.7.173,10.208.267,3.2.085,6.331.17,9.353.254.173-6.013.362-11.771.562-17.208Q263.913,266.364,259.564,266.247Z" transform="translate(-188.778 -159.897)" fill="#455a64"/>
              <path id="Trazado_132816" data-name="Trazado 132816" d="M290.862,212.863c-.041.2-.1.394-.15.589a5.128,5.128,0,0,0,.271-.559Z" transform="translate(-193.925 -153.512)" fill="#455a64"/>
              <path id="Trazado_132817" data-name="Trazado 132817" d="M263.788,260.906a11.576,11.576,0,0,1-5.453-2.261,9.562,9.562,0,0,1-1.324-1.213c-.28-.318-.412-.513-.39-.532.057-.055.681.643,1.9,1.483a12.057,12.057,0,0,0,9.738,1.836c.214-5.561.435-10.756.655-15.5-3.439-.088-7.018-.181-10.7-.28-3.038-.081-6-.162-8.88-.241-.208,5.677-.438,11.944-.685,18.685,3.533.09,7.217.187,11.012.288,2.9.077,5.727.154,8.478.23.035-.942.07-1.863.106-2.786A11.651,11.651,0,0,1,263.788,260.906Z" transform="translate(-188.867 -157.281)" fill="#455a64"/>
              <path id="Trazado_132818" data-name="Trazado 132818" d="M291.075,226.675q.047,2.085.08,4.5c.05,3.35.13,7.165.143,11.381v.093c5.968.18,10.838.34,14.141.46-.436-3.208-1.1-7.593-2.125-13.6a19.163,19.163,0,0,0-.671-2.73c-3.42-.076-7.308-.166-11.554-.27C291.087,226.563,291.078,226.62,291.075,226.675Z" transform="translate(-193.969 -155.153)" fill="#455a64"/>
              <path id="Trazado_132819" data-name="Trazado 132819" d="M288.6,252.393c0-2.5,0-4.9-.007-7.185-2.109-.048-4.352-.1-6.708-.159a2.965,2.965,0,0,1-.892-.021l-.662-.017c.056.076.091.141.07.179-.037.069-.233.034-.475-.081.015.054.031.107.045.161a3.523,3.523,0,0,1,.235.3,4.467,4.467,0,0,1,.193,4.52,2.6,2.6,0,0,1-.416.578c-.119.12-.194.175-.219.155s0-.111.073-.256.167-.354.269-.614a5.174,5.174,0,0,0,.062-3.62,7.359,7.359,0,0,1-4.1,7.466l.441-2.055a3.229,3.229,0,0,1-2.359,1.083,8.149,8.149,0,0,1,.779-2.687l-1.591.642a6.3,6.3,0,0,1,1.7-4.474,6.216,6.216,0,0,1,1.951-1.384l-5.014-.127c-.2,4.71-.4,9.867-.595,15.386.308-.083.6-.171.866-.265,1.4-.49,2.185-1,2.227-.932.016.024-.162.178-.516.411a9.615,9.615,0,0,1-1.6.824,10.128,10.128,0,0,1-.994.35c-.033.962-.068,1.926-.1,2.909,6.2.172,11.97.337,17.044.489l.146-11.152.026,0c-4.991-.445-8.659-.842-8.65-.947S283.565,252,288.6,252.393Z" transform="translate(-191.587 -157.354)" fill="#455a64"/>
              <path id="Trazado_132820" data-name="Trazado 132820" d="M291.373,252.478q1.276.1,2.643.216c6.489.544,11.742,1.087,11.731,1.213a2.293,2.293,0,0,1-.667.02l1.113.081s.36-.625-.695-8.44c-3.3-.055-8.181-.157-14.165-.295C291.353,247.559,291.366,249.968,291.373,252.478Z" transform="translate(-194 -157.41)" fill="#455a64"/>
              <path id="Trazado_132821" data-name="Trazado 132821" d="M249.45,241.493c2.875.074,5.84.151,8.876.233,3.687.1,7.268.2,10.71.292.041-.88.082-1.754.123-2.6.245-5.115.477-9.627.687-13.452l-4.008-.106c-5.555-.148-10.883-.295-15.827-.435-.114,3.319-.242,7.094-.384,11.265C249.57,238.231,249.511,239.845,249.45,241.493Z" transform="translate(-188.963 -155.023)" fill="#455a64"/>
              <path id="Trazado_132822" data-name="Trazado 132822" d="M233.99,222.643c4.11.092,8.813.2,13.938.333.13-3.144.243-5.88.336-8.129.106-2.324.189-4.136.246-5.387l.04-.75a32.8,32.8,0,0,0-13.1,2.552c-.237,1.836-.542,4.2-.9,7.014C234.374,219.632,234.186,221.094,233.99,222.643Z" transform="translate(-187.104 -153.012)" fill="#455a64"/>
              <path id="Trazado_132823" data-name="Trazado 132823" d="M246.351,265.881c-4.878-.136-9.448-.268-13.586-.391.129.256.26.508.406.748l6.579,10.873-1.072,5.8c2.253.055,4.593.114,7.005.176C245.916,277.092,246.14,271.337,246.351,265.881Z" transform="translate(-186.956 -159.842)" fill="#455a64"/>
              <path id="Trazado_132824" data-name="Trazado 132824" d="M270.649,283.762c6.36.177,12.237.347,17.355.5l.226-17.289c-5.076-.119-10.847-.261-17.054-.421C270.991,271.991,270.813,277.75,270.649,283.762Z" transform="translate(-191.512 -159.969)" fill="#455a64"/>
              <path id="Trazado_132825" data-name="Trazado 132825" d="M244.528,311.738q.112-2.875.221-5.7c-3.529-.1-6.91-.194-10.1-.286a167.784,167.784,0,0,0-3.827,17.162c4.1.1,8.562.21,13.28.332Q244.313,317.583,244.528,311.738Z" transform="translate(-186.723 -164.683)" fill="#455a64"/>
              <path id="Trazado_132826" data-name="Trazado 132826" d="M276.325,209.251a43.5,43.5,0,0,0-4.737-.706,3.16,3.16,0,0,1-.823.107c-.532.041-1.3.079-2.258.112-1.908.068-4.545.094-7.455.082l-7.45-.053c-1.721-.016-2.84-.033-3.046-.084,0,.218-.01.461-.016.736-.037,1.251-.091,3.064-.16,5.39-.077,2.249-.17,4.984-.277,8.127,4.945.123,10.271.26,15.825.409l4.02.108c.129-2.331.249-4.4.359-6.162.148-2.353.263-4.188.342-5.453l.1-1.417c.026-.319.05-.482.05-.482s.006.165,0,.485c-.013.338-.031.81-.055,1.42-.06,1.267-.146,3.1-.257,5.458-.081,1.771-.176,3.834-.283,6.16l6.321.173a12.539,12.539,0,0,1,2.646-6.419A9.2,9.2,0,0,1,276.325,209.251Z" transform="translate(-189.041 -152.993)" fill="#455a64"/>
              <path id="Trazado_132827" data-name="Trazado 132827" d="M290.2,242.786c.007-4.217-.05-8.03-.076-11.379-.006-1.05-.015-2.037-.025-2.993a9.293,9.293,0,0,1-3.222,5.313,8.259,8.259,0,0,1-.421,7,4.863,4.863,0,0,1-1.829,1.979l5.573.166Z" transform="translate(-193.194 -155.382)" fill="#455a64"/>
              <path id="Trazado_132828" data-name="Trazado 132828" d="M242.714,418.646c4.336.348,10.32.912,16.915,1.672,2.195.253,4.309.513,6.325.77-.007-.08-.015-.192-.022-.34-.012-.338-.031-.81-.055-1.421-.039-1.268-.1-3.1-.168-5.462-.057-1.911-.115-4.182-.174-6.75-4.894-.122-10.158-.258-15.646-.4q-3.919-.1-7.669-.208c-.037.9-.073,1.768-.106,2.556-.106,2.324-.189,4.137-.246,5.387-.033.6-.058,1.068-.076,1.4-.019.316-.041.477-.041.477s-.01-.162-.005-.479c.007-.333.017-.8.03-1.4.037-1.251.091-3.064.16-5.39.027-.788.056-1.654.087-2.556-2.461-.068-4.855-.135-7.169-.2,1.177,8.735,1.475,11.859,1.475,11.859l.932.1.315.016C238.791,418.343,240.546,418.471,242.714,418.646Z" transform="translate(-187.208 -176.776)" fill="#455a64"/>
              <path id="Trazado_132829" data-name="Trazado 132829" d="M245.972,285.977c-2.433-.068-4.794-.135-7.065-.2l-2.469,13.372c-.3.953-.691,2.231-1.131,3.785,3.157.077,6.5.161,10,.251C245.534,297.282,245.757,291.526,245.972,285.977Z" transform="translate(-187.262 -162.282)" fill="#455a64"/>
              <path id="Trazado_132830" data-name="Trazado 132830" d="M290.011,367.43c-.055,6.211-.088,12.034-.092,17.349,2.681.085,5.014.163,6.928.23.926-5.548,1.819-11.438,2.577-17.391C297.04,367.579,293.842,367.514,290.011,367.43Z" transform="translate(-193.83 -172.102)" fill="#455a64"/>
              <path id="Trazado_132831" data-name="Trazado 132831" d="M241.694,403.607c.15-4.418.343-10.091.573-16.817l.018-.476c-3.582-.1-7.03-.2-10.3-.289,1.079,7.341,1.88,13.044,2.469,17.4Z" transform="translate(-186.862 -174.339)" fill="#455a64"/>
              <path id="Trazado_132832" data-name="Trazado 132832" d="M287.164,367.363c-4.942-.109-10.9-.251-17.52-.416.013,6.2.048,11.974.1,17.243,6.636.189,12.557.366,17.387.52C287.11,379.394,287.125,373.572,287.164,367.363Z" transform="translate(-191.392 -172.044)" fill="#455a64"/>
              <path id="Trazado_132833" data-name="Trazado 132833" d="M242.519,363.361c.2-5.409.41-11.167.632-17.2-5.214-.143-10.129-.283-14.594-.414a118.086,118.086,0,0,0,.395,17.278C233.154,363.122,237.712,363.236,242.519,363.361Z" transform="translate(-186.433 -169.494)" fill="#455a64"/>
              <path id="Trazado_132834" data-name="Trazado 132834" d="M241.951,383.434c.191-5.187.4-10.954.632-17.2-4.783-.131-9.321-.259-13.5-.381.158,1.521.347,3.044.579,4.565.719,4.719,1.351,8.947,1.912,12.755C234.866,383.252,238.341,383.341,241.951,383.434Z" transform="translate(-186.513 -171.912)" fill="#455a64"/>
              <path id="Trazado_132835" data-name="Trazado 132835" d="M251.837,366.487l-7.088-.192c-.243,6.248-.466,12.014-.667,17.2l6.314.166c5.592.15,10.953.3,15.925.439-.071-5.269-.126-11.042-.155-17.244C261.648,366.745,256.835,366.62,251.837,366.487Z" transform="translate(-188.317 -171.965)" fill="#455a64"/>
              <path id="Trazado_132836" data-name="Trazado 132836" d="M266.226,386.946c-4.978-.124-10.345-.262-15.942-.412l-6.319-.171c-.006.157-.013.322-.018.478-.279,6.723-.514,12.4-.7,16.812q3.742.1,7.662.2c5.48.146,10.736.291,15.624.43-.083-3.712-.166-8.035-.244-12.913C266.268,389.947,266.247,388.46,266.226,386.946Z" transform="translate(-188.217 -174.379)" fill="#455a64"/>
              <path id="Trazado_132837" data-name="Trazado 132837" d="M290.556,327.28c-.09,5.944-.177,11.736-.26,17.321,4.552.142,8.286.266,10.943.363a156.788,156.788,0,0,0,.3-17.457C298.744,327.458,295,327.38,290.556,327.28Z" transform="translate(-193.875 -167.273)" fill="#455a64"/>
              <path id="Trazado_132838" data-name="Trazado 132838" d="M290.258,347.355c-.062,4.089-.122,8.074-.179,11.92-.019,1.839-.036,3.636-.052,5.412,3.843.121,7.049.228,9.436.315.741-5.842,1.348-11.739,1.73-17.427C298.537,347.531,294.8,347.456,290.258,347.355Z" transform="translate(-193.843 -169.688)" fill="#455a64"/>
              <path id="Trazado_132839" data-name="Trazado 132839" d="M266.25,346.773c-4.091-.1-8.4-.216-12.867-.334q-4.018-.107-7.857-.213c-.234,6.037-.457,11.795-.667,17.2l7.084.187c4.993.134,9.8.266,14.315.393C266.233,358.559,266.228,352.792,266.25,346.773Z" transform="translate(-188.411 -169.552)" fill="#455a64"/>
              <path id="Trazado_132840" data-name="Trazado 132840" d="M243.191,343.3c.2-5.523.413-11.275.631-17.206-4.737-.131-9.22-.259-13.33-.379a151.935,151.935,0,0,0-1.89,17.221C233.066,343.04,237.979,343.162,243.191,343.3Z" transform="translate(-186.455 -167.085)" fill="#455a64"/>
              <path id="Trazado_132841" data-name="Trazado 132841" d="M287.341,347.285c-5.045-.113-11.052-.257-17.672-.424-.029,6.019-.036,11.786-.026,17.235,6.618.187,12.579.364,17.522.519.011-1.774.025-3.567.04-5.4C287.241,355.364,287.287,351.376,287.341,347.285Z" transform="translate(-191.391 -169.628)" fill="#455a64"/>
              <path id="Trazado_132842" data-name="Trazado 132842" d="M232.044,223c.212-1.562.416-3.037.609-4.4.391-2.763.73-5.085,1-6.875a24.043,24.043,0,0,0-8.45,6.171q-2.29,2.634-4.305,4.876C223.7,222.816,227.5,222.894,232.044,223Z" transform="translate(-185.529 -153.375)" fill="#455a64"/>
              <path id="Trazado_132843" data-name="Trazado 132843" d="M228.5,248.855q.3-2.671.609-5.242c-6.018-.179-11.112-.34-14.867-.47l9.49,10.78.832.945,3.7-3.87Q228.374,249.933,228.5,248.855Z" transform="translate(-184.728 -157.154)" fill="#455a64"/>
              <path id="Trazado_132844" data-name="Trazado 132844" d="M213.382,240.657c3.784.07,8.978.184,15.129.329.708-5.948,1.412-11.426,2.045-16.1-4.627-.143-8.472-.269-11.28-.37-5.127,5.713-8.746,9.435-9.928,10.636-.274.277-.432.435-.432.435Z" transform="translate(-184.088 -154.913)" fill="#455a64"/>
              <path id="Trazado_132845" data-name="Trazado 132845" d="M231.706,241.049c4.624.109,9.776.237,15.277.378.063-1.649.127-3.266.187-4.81.172-4.168.328-7.94.465-11.258-5.135-.146-9.848-.286-13.964-.413C233.079,229.624,232.4,235.1,231.706,241.049Z" transform="translate(-186.829 -154.965)" fill="#455a64"/>
              <path id="Trazado_132846" data-name="Trazado 132846" d="M269.762,326.777l-.456-.012c-.069,5.922-.11,11.677-.13,17.227l.44.013C269.644,338.454,269.691,332.7,269.762,326.777Z" transform="translate(-191.335 -167.211)" fill="#263238"/>
              <path id="Trazado_132847" data-name="Trazado 132847" d="M270.913,262.847c-.035.923-.07,1.844-.106,2.786l.4.011c.033-.984.068-1.947.1-2.909C271.183,262.775,271.05,262.812,270.913,262.847Z" transform="translate(-191.532 -159.51)" fill="#263238"/>
              <path id="Trazado_132848" data-name="Trazado 132848" d="M270.712,266.541c-.2,5.438-.389,11.2-.562,17.208l.439.011c.164-6.012.342-11.772.527-17.209Z" transform="translate(-191.452 -159.968)" fill="#263238"/>
              <path id="Trazado_132849" data-name="Trazado 132849" d="M270.078,286.612c-.158,5.544-.3,11.294-.423,17.214l.456.012c.119-5.92.257-11.67.407-17.215Z" transform="translate(-191.393 -162.382)" fill="#263238"/>
              <path id="Trazado_132850" data-name="Trazado 132850" d="M273.456,212.063c.024-.61.041-1.082.055-1.42.01-.32,0-.485,0-.485s-.025.163-.05.482l-.1,1.417c-.079,1.266-.194,3.1-.342,5.453-.11,1.767-.23,3.831-.359,6.163l.253.007c.107-2.326.2-4.389.283-6.16C273.309,215.165,273.4,213.329,273.456,212.063Z" transform="translate(-191.755 -153.187)" fill="#263238"/>
              <path id="Trazado_132851" data-name="Trazado 132851" d="M271.713,242.092l.336.009c.037-.877.074-1.751.111-2.6.236-5.114.443-9.628.62-13.459l-.257-.007c-.21,3.825-.442,8.337-.687,13.452C271.795,240.338,271.754,241.213,271.713,242.092Z" transform="translate(-191.64 -155.097)" fill="#263238"/>
              <path id="Trazado_132852" data-name="Trazado 132852" d="M270.063,306.7l-.456-.012q-.088,4.344-.162,8.793-.067,4.264-.115,8.428l.457.012q.05-4.17.117-8.433Q269.976,311.039,270.063,306.7Z" transform="translate(-191.354 -164.796)" fill="#263238"/>
              <path id="Trazado_132853" data-name="Trazado 132853" d="M270.944,260.29c.137-.033.268-.067.4-.1.2-5.519.4-10.676.595-15.386l-.338-.009C271.379,249.534,271.158,254.73,270.944,260.29Z" transform="translate(-191.548 -157.352)" fill="#263238"/>
              <path id="Trazado_132854" data-name="Trazado 132854" d="M269.611,346.859l-.439-.011c-.021,6.019-.017,11.786.008,17.235l.406.011C269.575,358.645,269.582,352.879,269.611,346.859Z" transform="translate(-191.333 -169.627)" fill="#263238"/>
              <path id="Trazado_132855" data-name="Trazado 132855" d="M269.185,366.935c.029,6.2.084,11.975.155,17.244l.346.01c-.048-5.269-.084-11.041-.1-17.243Z" transform="translate(-191.336 -172.042)" fill="#263238"/>
              <path id="Trazado_132856" data-name="Trazado 132856" d="M270.165,419.437c-.019-1.269-.047-3.106-.082-5.464-.026-1.914-.059-4.181-.1-6.74l-.258-.007c.059,2.568.117,4.839.174,6.75.073,2.358.129,4.195.168,5.462.024.611.042,1.083.055,1.421.007.149.015.26.022.34l.019,0c0-.081.005-.194.006-.345C270.172,420.52,270.168,420.047,270.165,419.437Z" transform="translate(-191.402 -176.888)" fill="#263238"/>
              <path id="Trazado_132857" data-name="Trazado 132857" d="M269.711,387.035l-.344-.009c.021,1.514.042,3,.066,4.426.077,4.878.161,9.2.244,12.913l.261.007c-.052-3.719-.113-8.043-.181-12.924C269.74,390.027,269.726,388.544,269.711,387.035Z" transform="translate(-191.358 -174.459)" fill="#263238"/>
              <path id="Trazado_132858" data-name="Trazado 132858" d="M290.853,304.636c.079-5.106.151-10.083.212-14.9a7.125,7.125,0,0,1-.448-.9c-.077,5.09-.156,10.368-.238,15.786Z" transform="translate(-193.886 -162.649)" fill="#263238"/>
              <path id="Trazado_132859" data-name="Trazado 132859" d="M290.809,307.2l-.472-.011q-.082,5.4-.165,10.974c-.036,2.132-.071,4.239-.106,6.333l.468.015c.032-2.1.063-4.207.1-6.34Q290.725,312.6,290.809,307.2Z" transform="translate(-193.848 -164.857)" fill="#263238"/>
              <path id="Trazado_132860" data-name="Trazado 132860" d="M290.947,242.58v.082l.325.01v-.093c-.013-4.217-.093-8.031-.143-11.381q-.032-2.417-.08-4.5a9.818,9.818,0,0,1-.2,1.51c.011.956.019,1.943.026,2.993C290.9,234.55,290.954,238.363,290.947,242.58Z" transform="translate(-193.942 -155.176)" fill="#263238"/>
              <path id="Trazado_132861" data-name="Trazado 132861" d="M290.97,252.449l.358.028c-.006-2.51-.019-4.919-.04-7.2l-.326-.008C290.972,247.545,290.974,249.946,290.97,252.449Z" transform="translate(-193.956 -157.409)" fill="#263238"/>
              <path id="Trazado_132862" data-name="Trazado 132862" d="M290.75,215.7c-.02-.53-.036-.948-.049-1.271l-.05.064c0,.315,0,.713.007,1.209.018,1.261.045,3.087.079,5.431.007.409.015.856.023,1.3a9.43,9.43,0,0,1,.228,1.328c-.024-.93-.047-1.821-.073-2.63C290.845,218.786,290.789,216.961,290.75,215.7Z" transform="translate(-193.918 -153.701)" fill="#263238"/>
              <path id="Trazado_132863" data-name="Trazado 132863" d="M290.493,327.279l-.469-.011c-.1,5.943-.184,11.733-.258,17.317l.466.015C290.316,339.014,290.4,333.223,290.493,327.279Z" transform="translate(-193.812 -167.272)" fill="#263238"/>
              <path id="Trazado_132864" data-name="Trazado 132864" d="M290.173,421.559c-.018-1.261-.045-3.088-.079-5.431-.044-2.316-.09-5.148-.11-8.424l-.255-.005c.044,3.281.116,6.115.187,8.434.07,2.343.126,4.169.165,5.429.023.607.041,1.076.055,1.412.014.318.033.48.033.48s.012-.164.013-.482C290.179,422.635,290.177,422.165,290.173,421.559Z" transform="translate(-193.807 -176.945)" fill="#263238"/>
              <path id="Trazado_132865" data-name="Trazado 132865" d="M289.962,367.429l-.409-.009c-.039,6.209-.054,12.031-.036,17.346l.353.011C289.874,379.463,289.908,373.64,289.962,367.429Z" transform="translate(-193.781 -172.101)" fill="#263238"/>
              <path id="Trazado_132866" data-name="Trazado 132866" d="M289.871,387.508l-.351-.008c.007,2.159.019,4.241.039,6.228.013,4.151.09,7.906.141,11.218l.257.008c-.026-3.314-.081-7.073-.074-11.228C289.874,391.743,289.87,389.662,289.871,387.508Z" transform="translate(-193.782 -174.516)" fill="#263238"/>
              <path id="Trazado_132867" data-name="Trazado 132867" d="M290.2,347.354l-.465-.011c-.054,4.091-.1,8.079-.136,11.927-.015,1.836-.028,3.63-.04,5.4l.41.013c.016-1.776.033-3.573.052-5.412C290.08,355.428,290.141,351.443,290.2,347.354Z" transform="translate(-193.787 -169.686)" fill="#263238"/>
              <path id="Trazado_132868" data-name="Trazado 132868" d="M246.249,326.155l-.434-.012c-.217,5.93-.428,11.683-.631,17.206l.4.011C245.8,337.836,246.02,332.085,246.249,326.155Z" transform="translate(-188.45 -167.136)" fill="#263238"/>
              <path id="Trazado_132869" data-name="Trazado 132869" d="M249.071,241.483l.333.009c.061-1.648.12-3.262.176-4.805.143-4.171.271-7.946.384-11.265l-.242-.007c-.137,3.317-.293,7.09-.465,11.258C249.2,238.218,249.134,239.834,249.071,241.483Z" transform="translate(-188.917 -155.022)" fill="#263238"/>
              <path id="Trazado_132870" data-name="Trazado 132870" d="M247.339,286c-.215,5.549-.438,11.305-.667,17.208l.445.011c.217-5.9.428-11.658.632-17.207Z" transform="translate(-188.629 -162.309)" fill="#263238"/>
              <path id="Trazado_132871" data-name="Trazado 132871" d="M248.117,265.935c-.211,5.455-.435,11.21-.667,17.209l.409.011c.22-6,.431-11.754.632-17.209Z" transform="translate(-188.722 -159.895)" fill="#263238"/>
              <path id="Trazado_132872" data-name="Trazado 132872" d="M250.169,214.847c-.093,2.249-.206,4.985-.336,8.129l.238.006c.107-3.143.2-5.878.277-8.127.069-2.326.123-4.139.16-5.39.006-.275.011-.518.016-.736-.022-.005-.042-.011-.042-.018h-.026l-.04.75C250.358,210.711,250.275,212.523,250.169,214.847Z" transform="translate(-189.009 -153.013)" fill="#263238"/>
              <path id="Trazado_132873" data-name="Trazado 132873" d="M248.952,244.191c-.22,5.677-.463,11.943-.724,18.685l.373.01c.247-6.741.477-13.009.685-18.685Z" transform="translate(-188.816 -157.28)" fill="#263238"/>
              <path id="Trazado_132874" data-name="Trazado 132874" d="M247.011,306.085l-.447-.012q-.11,2.833-.221,5.7-.214,5.847-.422,11.5l.435.011q.219-5.654.446-11.5C246.872,309.875,246.941,307.976,247.011,306.085Z" transform="translate(-188.538 -164.723)" fill="#263238"/>
              <path id="Trazado_132875" data-name="Trazado 132875" d="M243.937,386.363l-.325-.009-.018.476c-.23,6.726-.422,12.4-.573,16.817l.2.005c.183-4.416.418-10.089.7-16.812C243.924,386.685,243.931,386.519,243.937,386.363Z" transform="translate(-188.19 -174.378)" fill="#263238"/>
              <path id="Trazado_132876" data-name="Trazado 132876" d="M244.343,366.283c-.23,6.249-.441,12.016-.632,17.2l.326.009c.2-5.187.424-10.954.667-17.2Z" transform="translate(-188.273 -171.964)" fill="#263238"/>
              <path id="Trazado_132877" data-name="Trazado 132877" d="M245.08,346.213c-.222,6.038-.433,11.8-.632,17.2l.362.009c.21-5.408.433-11.165.667-17.2Z" transform="translate(-188.361 -169.55)" fill="#263238"/>
              <path id="Trazado_132878" data-name="Trazado 132878" d="M242.879,409.08c-.069,2.326-.123,4.139-.16,5.39-.013.6-.023,1.069-.03,1.4,0,.317.005.479.005.479s.022-.161.041-.477c.018-.333.043-.8.076-1.4.057-1.25.14-3.063.246-5.387.033-.787.069-1.654.106-2.556l-.2-.005C242.935,407.426,242.906,408.291,242.879,409.08Z" transform="translate(-188.15 -176.804)" fill="#263238"/>
              <path id="Trazado_132879" data-name="Trazado 132879" d="M233.567,222.983l.372.009c.2-1.549.384-3.011.558-4.366.362-2.813.668-5.178.9-7.014l-.222.1c-.274,1.79-.613,4.112-1,6.875C233.983,219.947,233.779,221.421,233.567,222.983Z" transform="translate(-187.053 -153.362)" fill="#263238"/>
              <path id="Trazado_132880" data-name="Trazado 132880" d="M231.477,243.691l-.456-.014q-.3,2.571-.609,5.242-.121,1.079-.24,2.143l.084-.089s-.024,1.1.084,2.71q.256-2.317.527-4.714Q231.173,246.281,231.477,243.691Z" transform="translate(-186.644 -157.218)" fill="#263238"/>
              <path id="Trazado_132881" data-name="Trazado 132881" d="M233.608,224.944l-.374-.011c-.633,4.678-1.337,10.156-2.045,16.1l.455.011C232.341,235.1,233.017,229.623,233.608,224.944Z" transform="translate(-186.767 -154.964)" fill="#263238"/>
              <path id="Trazado_132882" data-name="Trazado 132882" d="M291.09,226.45c4.246.1,8.134.194,11.554.27-.038-.116-.084-.226-.123-.34-3.391-.106-7.24-.221-11.436-.343C291.087,226.175,291.1,226.312,291.09,226.45Z" transform="translate(-193.97 -155.097)" fill="#263238"/>
              <path id="Trazado_132883" data-name="Trazado 132883" d="M231.972,224.854l.374.011c4.116.127,8.829.267,13.964.413l.242.007c4.944.141,10.272.288,15.827.435l4.008.106.257.007,6.293.163c.011-.149.033-.3.049-.445l-6.321-.173-.253-.007-4.02-.108c-5.555-.149-10.881-.286-15.825-.409l-.238-.006c-5.124-.128-9.827-.24-13.938-.333l-.372-.009c-4.546-.1-8.342-.18-11.143-.229-.061.067-.124.139-.184.206C223.5,224.585,227.345,224.712,231.972,224.854Z" transform="translate(-185.504 -154.885)" fill="#263238"/>
              <path id="Trazado_132884" data-name="Trazado 132884" d="M254.049,244.281c3.683.1,7.262.192,10.7.28l.338.009,5.014.127a6.289,6.289,0,0,1,1.159-.4l-6.155-.174-.336-.009c-3.442-.1-7.023-.194-10.71-.292-3.036-.082-6-.159-8.876-.233l-.333-.009c-5.5-.142-10.653-.269-15.277-.378l-.455-.011c-6.151-.145-11.345-.259-15.129-.329l.216.245c3.755.129,8.848.291,14.867.47l.456.014c4.63.137,9.791.285,15.3.438l.334.009C248.045,244.119,251.011,244.2,254.049,244.281Z" transform="translate(-184.698 -157.12)" fill="#263238"/>
              <path id="Trazado_132885" data-name="Trazado 132885" d="M281.529,245l.662.017a3.365,3.365,0,0,1-.979-.344A2.4,2.4,0,0,1,281.529,245Z" transform="translate(-192.783 -157.337)" fill="#263238"/>
              <path id="Trazado_132886" data-name="Trazado 132886" d="M290.044,244.821l-5.573-.166a3.212,3.212,0,0,1-.758.308,2.8,2.8,0,0,1-.375.069c2.356.057,4.6.111,6.708.159l.326.008c5.983.138,10.863.239,14.165.295-.009-.069-.018-.133-.026-.2-3.3-.121-8.173-.28-14.141-.46Z" transform="translate(-193.039 -157.336)" fill="#263238"/>
              <path id="Trazado_132887" data-name="Trazado 132887" d="M246.7,265.839c3.534.1,7.221.2,11.017.3q4.343.116,8.474.223l.4.011c6.207.16,11.978.3,17.054.421l.005-.382c-5.073-.152-10.841-.318-17.044-.489l-.4-.011c-2.751-.076-5.582-.152-8.478-.23-3.8-.1-7.479-.2-11.012-.288l-.373-.01c-4.958-.126-9.6-.24-13.791-.339.061.132.123.263.187.391,4.137.123,8.708.255,13.586.392Z" transform="translate(-186.931 -159.788)" fill="#263238"/>
              <path id="Trazado_132888" data-name="Trazado 132888" d="M246.874,285.93c3.289.091,6.7.185,10.212.278,3.2.085,6.331.167,9.353.245l.44.011c6.361.163,12.241.307,17.362.426l0-.373c-5.118-.155-11-.325-17.355-.5l-.439-.011c-3.023-.084-6.15-.169-9.353-.254-3.507-.094-6.92-.183-10.208-.267l-.409-.011c-2.412-.062-4.752-.121-7.005-.176l-.077.422c2.271.065,4.632.132,7.065.2Z" transform="translate(-187.754 -162.224)" fill="#263238"/>
              <path id="Trazado_132889" data-name="Trazado 132889" d="M245.719,305.99c3.039.084,6.185.17,9.406.256,3.567.1,7.036.186,10.375.271l.456.012c6.57.167,12.6.314,17.78.433l.472.011c2.8.064,5.347.12,7.577.165l-.089-.288c-2.207-.073-4.718-.152-7.482-.237l-.473-.014c-5.175-.157-11.208-.333-17.777-.516l-.456-.012c-3.338-.093-6.806-.187-10.371-.282-3.221-.086-6.365-.169-9.4-.247l-.445-.011c-3.493-.09-6.841-.174-10-.251-.037.132-.077.275-.115.412,3.186.092,6.567.188,10.1.286Z" transform="translate(-187.246 -164.627)" fill="#263238"/>
              <path id="Trazado_132890" data-name="Trazado 132890" d="M244.513,326.049c2.8.077,5.678.156,8.626.234,3.985.106,7.852.207,11.546.3l.456.012c6.614.168,12.658.314,17.785.43l.469.011c4.446.1,8.188.178,10.983.227,0-.072-.005-.146-.009-.218-2.794-.1-6.531-.222-10.969-.359l-.468-.015c-5.128-.157-11.172-.333-17.786-.519l-.457-.012c-3.691-.1-7.556-.209-11.539-.315-2.946-.079-5.825-.155-8.62-.227l-.435-.011c-4.717-.121-9.184-.233-13.28-.332-.023.133-.045.267-.067.4,4.109.121,8.592.248,13.33.379Z" transform="translate(-186.714 -167.03)" fill="#263238"/>
              <path id="Trazado_132891" data-name="Trazado 132891" d="M243.171,346.1l.4.011q3.835.106,7.857.213c4.464.119,8.776.231,12.867.334l.439.011c6.62.167,12.627.311,17.672.424l.465.011c4.546.1,8.278.176,10.935.22l.013-.2c-2.657-.1-6.391-.222-10.943-.363l-.466-.015c-5.045-.157-11.053-.333-17.674-.519l-.44-.013c-4.087-.114-8.4-.232-12.856-.352q-4.016-.107-7.852-.206l-.4-.011c-5.212-.135-10.125-.257-14.589-.364-.006.134-.016.266-.022.4C233.042,345.818,237.957,345.958,243.171,346.1Z" transform="translate(-186.452 -169.439)" fill="#263238"/>
              <path id="Trazado_132892" data-name="Trazado 132892" d="M242.576,366.175l.362.011,7.088.192c5,.134,9.812.258,14.329.371l.4.011c6.617.165,12.577.307,17.52.416l.409.009c3.83.084,7.028.149,9.412.188l.026-.2c-2.387-.087-5.593-.194-9.436-.315l-.41-.013c-4.942-.155-10.9-.332-17.522-.519l-.406-.011c-4.513-.128-9.322-.259-14.315-.393l-7.084-.187-.362-.009c-4.807-.125-9.366-.239-13.567-.341.014.137.032.274.046.412C233.256,365.915,237.793,366.044,242.576,366.175Z" transform="translate(-186.506 -171.856)" fill="#263238"/>
              <path id="Trazado_132893" data-name="Trazado 132893" d="M242.276,386.256l.325.009,6.319.171c5.6.15,10.965.288,15.942.412l.344.009c6.636.165,12.556.3,17.385.408l.351.008c2.665.057,4.984.1,6.891.138l.037-.223c-1.913-.068-4.246-.145-6.928-.23l-.353-.011c-4.83-.154-10.751-.331-17.387-.52l-.346-.01c-4.972-.142-10.333-.289-15.925-.439l-6.314-.166-.326-.009c-3.61-.093-7.085-.182-10.383-.264l.063.429C235.246,386.061,238.693,386.157,242.276,386.256Z" transform="translate(-186.853 -174.28)" fill="#263238"/>
              <path id="Trazado_132894" data-name="Trazado 132894" d="M242.016,406.437l.2.005q3.745.1,7.669.208c5.488.147,10.752.282,15.646.4l.258.007c6.59.164,12.495.3,17.336.408l.255.005q1.89.042,3.548.076c.019-.093.038-.187.056-.279q-1.684-.057-3.607-.117l-.257-.008c-4.843-.153-10.748-.33-17.338-.517l-.261-.007c-4.888-.139-10.144-.284-15.624-.43q-3.915-.1-7.662-.2l-.2-.005-7.244-.185c.019.145.04.295.059.435C237.161,406.3,239.555,406.369,242.016,406.437Z" transform="translate(-187.199 -176.717)" fill="#263238"/>
              <path id="Trazado_132895" data-name="Trazado 132895" d="M253.658,208.781l7.45.053c2.91.012,5.547-.014,7.455-.082.954-.033,1.726-.07,2.258-.112a3.16,3.16,0,0,0,.823-.107l0,0a1.623,1.623,0,0,0-.559-.06l0,.047-17.055-.072-.378.011c-.954.033-1.725.071-2.258.113a2.938,2.938,0,0,0-.826.109h0c0,.006.02.012.042.018C250.818,208.748,251.937,208.765,253.658,208.781Z" transform="translate(-189.097 -152.981)" fill="#263238"/>
              <path id="Trazado_132896" data-name="Trazado 132896" d="M264.938,262.188a12.457,12.457,0,0,1-5.323-2.069c-1.223-.84-1.847-1.539-1.9-1.483-.022.019.11.214.39.532a9.562,9.562,0,0,0,1.324,1.213,11.437,11.437,0,0,0,9.913,1.972c.137-.035.27-.072.4-.112a10.121,10.121,0,0,0,.994-.35,9.613,9.613,0,0,0,1.6-.824c.355-.233.532-.387.516-.411-.041-.069-.826.442-2.227.932-.264.094-.558.182-.866.265-.13.035-.261.069-.4.1A12.376,12.376,0,0,1,264.938,262.188Z" transform="translate(-189.956 -159.017)" fill="#263238"/>
              <path id="Trazado_132897" data-name="Trazado 132897" d="M304.5,254.814c.011-.126-5.242-.669-11.731-1.213q-1.364-.115-2.643-.216l-.358-.028c-5.036-.4-8.76-.619-8.769-.514s3.66.5,8.65.947c.983.087,2.013.177,3.082.267,5.137.43,9.5.732,11.1.777A2.293,2.293,0,0,0,304.5,254.814Z" transform="translate(-192.758 -158.317)" fill="#263238"/>
              <path id="Trazado_132898" data-name="Trazado 132898" d="M274.193,200.821c.525,2,2.706,3.717,5.855,3.348a8.518,8.518,0,0,0-.825,2.634,9.2,9.2,0,0,0,2.844,7.99,12.538,12.538,0,0,0-2.646,6.419c-.017.149-.038.3-.049.445a12.143,12.143,0,0,0,1.671,7.2c-1.367,1.7-2.791,3.544-2.807,5.628a3.874,3.874,0,0,0,1.173,2.678,3.336,3.336,0,0,1,.7.5c.091.076.176.149.254.219a3.364,3.364,0,0,0,.979.344,2.965,2.965,0,0,0,.892.021,2.8,2.8,0,0,0,.375-.069,3.212,3.212,0,0,0,.758-.308,4.863,4.863,0,0,0,1.829-1.979,8.259,8.259,0,0,0,.421-7,9.293,9.293,0,0,0,3.222-5.313,9.818,9.818,0,0,0,.2-1.51c0-.055.012-.112.014-.168.005-.138,0-.275,0-.413,0-.295-.017-.589-.046-.882a9.43,9.43,0,0,0-.228-1.328,8.922,8.922,0,0,0-2.685-4.543,8.832,8.832,0,0,0,2.154-2.927,5.332,5.332,0,0,1-1.653,1.122,4.405,4.405,0,0,1-1.535.366,2.357,2.357,0,0,1-.428-.012c-.1-.011-.148-.024-.147-.04s.05-.033.144-.053.235-.028.41-.072a5.478,5.478,0,0,0,3.145-1.841,5.025,5.025,0,0,0,.54-.789c.055-.2.109-.391.15-.589a9.219,9.219,0,0,0,.021-3.7,5.425,5.425,0,0,0-1.225-1.737,9.64,9.64,0,0,0-1.714-1.155c.005-.015.057-.013.153.005a2.327,2.327,0,0,1,.413.112,4.437,4.437,0,0,1,1.364.8,5.006,5.006,0,0,1,.637.642,8.554,8.554,0,0,0-2.079-3.218,13.865,13.865,0,0,0-1.385-13.455C283.66,193.857,280.622,199.276,274.193,200.821Zm10.09,14.173c-.033.126-.5.108-1.057.156s-1.017.131-1.069.011.39-.42,1.033-.468S284.318,214.876,284.283,214.994Zm-1.605,13.918c-.916-.139-1.68-.149-1.7-.279s.778-.322,1.762-.175,1.688.563,1.636.673S283.594,229.043,282.677,228.912Zm-.5-26.693a2.731,2.731,0,0,1,1.838-.1c.007.13-.779.269-1.71.544s-1.672.571-1.736.457S281.184,202.505,282.176,202.22Z" transform="translate(-191.939 -150.544)" fill="#263238"/>
              <path id="Trazado_132899" data-name="Trazado 132899" d="M258.471,160.651a15.444,15.444,0,0,0,1.546,3.986,14.936,14.936,0,0,0,1.408,2.1,13.955,13.955,0,0,0,4.1,3.5,14.95,14.95,0,0,0,2.29,1.061,15.439,15.439,0,0,0,4.18.9c.135.01.257.011.386.018l.031-2.958s-11.871-1.032-14.37-11.945c0,.137.006.293.022.472A16.006,16.006,0,0,0,258.471,160.651Z" transform="translate(-189.996 -146.831)" fill="#b78876"/>
              <path id="Trazado_132900" data-name="Trazado 132900" d="M270.186,202.262l.2-5.2c-.023.006-.043.013-.066.018l.182-17.761-.033-.04a10.84,10.84,0,0,1,.061-2.568l.044-4.253c-.135,0-.261,0-.4,0a15.011,15.011,0,0,1-6.671-1.895,13.941,13.941,0,0,1-4.228-3.61,15,15,0,0,1-2.918-6.293,13.229,13.229,0,0,1-.273-2.936,7.773,7.773,0,0,1,.054-.8c0-.031.007-.045.01-.071s-.006-.026-.009-.04l-.07.067c-.694,1.738-1.914,5.466-1.028,8.448L244.259,168.3l-1.195,1.156c.007,5.105.079,10.874.33,14.444.531,7.578,7.991,8.31,7.991,8.31a18.111,18.111,0,0,0,9.754-3.5s-2.16,5.591-9.573,5.354l-.18-1.858s.6,8,.545,10.017l1.2.005,17.055.072ZM245.7,172.525a.971.971,0,1,1,.935-.98A.959.959,0,0,1,245.7,172.525Zm1.842-2.281c-.1.142-.876-.369-1.892-.287s-1.709.684-1.832.56c-.061-.055.035-.3.337-.581a2.462,2.462,0,0,1,2.973-.216C247.468,169.951,247.6,170.181,247.546,170.244Zm1.861,9.095a.647.647,0,0,1-.445-.377,1.727,1.727,0,0,1,.087-1.1q.306-1.042.644-2.183a38.8,38.8,0,0,1,1.9-5.529,39.152,39.152,0,0,1-1.486,5.663q-.354,1.139-.677,2.173a1.537,1.537,0,0,0-.137.837c.052.186.3.225.561.237a6.251,6.251,0,0,1,1.667.207,6.277,6.277,0,0,1-1.675.112A1.665,1.665,0,0,1,249.407,179.338Zm3.974,3.616a2.783,2.783,0,0,1-3.385-.947c2.077-.022,5.928-2.5,4.9-1.79C254.9,180.216,255.545,181.99,253.381,182.954Zm3.282-10.544a.971.971,0,1,1,.935-.98A.958.958,0,0,1,256.663,172.411Zm2.169-2.285c-.1.142-.875-.369-1.891-.287s-1.71.684-1.833.56c-.06-.055.036-.3.337-.581a2.462,2.462,0,0,1,2.973-.216C258.756,169.833,258.884,170.063,258.832,170.126Z" transform="translate(-188.195 -146.771)" fill="#b78876"/>
              <path id="Trazado_132901" data-name="Trazado 132901" d="M245.914,172.467a.971.971,0,1,0,.955.961A.959.959,0,0,0,245.914,172.467Z" transform="translate(-188.425 -148.654)" fill="#263238"/>
              <path id="Trazado_132902" data-name="Trazado 132902" d="M247.233,171.429a2.462,2.462,0,0,0-2.973.216c-.3.279-.4.525-.337.581.123.124.815-.493,1.832-.56s1.788.428,1.892.287C247.7,171.891,247.569,171.661,247.233,171.429Z" transform="translate(-188.296 -148.481)" fill="#263238"/>
              <path id="Trazado_132903" data-name="Trazado 132903" d="M258.371,172.336a.971.971,0,1,0,.955.962A.959.959,0,0,0,258.371,172.336Z" transform="translate(-189.923 -148.638)" fill="#263238"/>
              <path id="Trazado_132904" data-name="Trazado 132904" d="M260.062,171.3a2.462,2.462,0,0,0-2.973.216c-.3.279-.4.525-.337.581.123.124.816-.493,1.833-.56s1.787.428,1.891.287C260.528,171.757,260.4,171.527,260.062,171.3Z" transform="translate(-189.839 -148.465)" fill="#263238"/>
              <path id="Trazado_132905" data-name="Trazado 132905" d="M250.657,180.879c-.26-.011-.509-.05-.561-.237a1.537,1.537,0,0,1,.137-.837q.323-1.036.677-2.173a39.152,39.152,0,0,0,1.486-5.663,38.8,38.8,0,0,0-1.9,5.529q-.338,1.143-.644,2.183a1.727,1.727,0,0,0-.087,1.1.647.647,0,0,0,.445.377,1.665,1.665,0,0,0,.444.036,6.277,6.277,0,0,0,1.675-.112A6.251,6.251,0,0,0,250.657,180.879Z" transform="translate(-188.992 -148.594)" fill="#263238"/>
              <path id="Trazado_132906" data-name="Trazado 132906" d="M250.943,185.189a2.783,2.783,0,0,0,3.385.947c2.164-.964,1.519-2.738,1.519-2.738C256.871,182.686,253.02,185.167,250.943,185.189Z" transform="translate(-189.142 -149.953)" fill="#fff"/>
              <path id="Trazado_132907" data-name="Trazado 132907" d="M262.276,193.08a18.111,18.111,0,0,1-9.754,3.5l.18,1.858C260.116,198.671,262.276,193.08,262.276,193.08Z" transform="translate(-189.332 -151.133)" fill="#a36957"/>
              <path id="Trazado_132908" data-name="Trazado 132908" d="M254.877,163.955c-.887-2.982.333-6.71,1.027-8.448l.07-.067c0,.014.006.026.009.04.017-.125.032-.2.045-.2s.028.1.038.28c.007.086.008.2.011.32,2.5,10.913,14.37,11.945,14.37,11.945l-.031,2.958a15.909,15.909,0,0,0,2.513-.062c.344-.024.606-.078.788-.091s.278-.022.282-.007-.087.048-.264.1a7.509,7.509,0,0,1-.781.178,12.948,12.948,0,0,1-2.54.2l-.044,4.253a5.041,5.041,0,0,1,.212-.815,3.181,3.181,0,0,1,2.4-2.19,2.693,2.693,0,0,1,2.836,2.165,3.317,3.317,0,0,1-1.6,3.331,4.111,4.111,0,0,1-2.606.506c-.011.049-.031.085-.04.138a1.748,1.748,0,0,0,.246,1.231,1.746,1.746,0,0,0,2.687.365,1.741,1.741,0,0,0,.566-1.12,3.761,3.761,0,0,0-.178-1.235c.023-.045.494.353.5,1.255a1.991,1.991,0,0,1-.6,1.408,2.111,2.111,0,0,1-3.338-.453,1.989,1.989,0,0,1-.2-1.517c.012-.042.028-.077.041-.116a4.776,4.776,0,0,1-.87-.249l-.084-.1-.182,17.761c.023-.005.043-.012.066-.018s.041-.011.063-.017c6.429-1.545,9.467-6.964,10.867-12.634q.14-.566.26-1.134c-.055.111-.109.23-.165.335a15.22,15.22,0,0,1-1.36,2.177,3.293,3.293,0,0,1-.621.708c-.07-.049.773-1.1,1.691-3.03a17.78,17.78,0,0,0,.768-1.9,52.3,52.3,0,0,0,.533-9.727l-.018-.522a18.665,18.665,0,0,0-1.409-3.932c-.947-1.918-1.807-2.951-1.737-3a3.361,3.361,0,0,1,.632.7,15.2,15.2,0,0,1,1.393,2.156,16.946,16.946,0,0,1,1.064,2.406l-.028-.843c0,.027,0,.017,0-.033v-.013l0-.018c-.005-.051-.014-.124-.029-.241v0h0a28.87,28.87,0,0,0-.488-3.069c-4.2-15.774-17.771-18.58-20.449-18.552-2.872.03-7.918-1.539-15.161,6.351a14.94,14.94,0,0,0-3.144,16.252l.023-.022,1.195-1.156Z" transform="translate(-188.034 -145.398)" fill="#263238"/>
              <path id="Trazado_132909" data-name="Trazado 132909" d="M279.751,244.761a2.113,2.113,0,0,1-.391-.427,6.088,6.088,0,0,0-.926.142,6.289,6.289,0,0,0-1.159.4,6.216,6.216,0,0,0-1.951,1.384,6.3,6.3,0,0,0-1.7,4.474l1.591-.642a8.15,8.15,0,0,0-.779,2.687,3.229,3.229,0,0,0,2.359-1.083l-.441,2.055a7.359,7.359,0,0,0,4.1-7.466,5.015,5.015,0,0,0-.243-.6c-.247-.5-.468-.789-.415-.838.028-.029.219.092.461.371-.014-.054-.03-.107-.045-.161A2.115,2.115,0,0,1,279.751,244.761Z" transform="translate(-191.87 -157.297)" fill="#263238"/>
              <path id="Trazado_132910" data-name="Trazado 132910" d="M279.975,243.849c-.059.047,0,.22.146.425a2.157,2.157,0,0,0,.852.72c.242.115.438.15.475.081.021-.039-.014-.1-.07-.179a2.4,2.4,0,0,0-.318-.327c-.078-.07-.164-.143-.254-.219a3.337,3.337,0,0,0-.7-.5C280.045,243.832,280,243.828,279.975,243.849Z" transform="translate(-192.631 -157.237)" fill="#e8505b"/>
              <path id="Trazado_132911" data-name="Trazado 132911" d="M283.672,233.957c-.984-.147-1.78.055-1.762.175s.779.14,1.7.279,1.652.34,1.7.219S284.656,234.1,283.672,233.957Z" transform="translate(-192.867 -156.043)" fill="#e8505b"/>
              <path id="Trazado_132912" data-name="Trazado 132912" d="M283.245,218.784c.052.12.512.029,1.069-.011s1.024-.03,1.057-.156-.451-.354-1.093-.3S283.192,218.673,283.245,218.784Z" transform="translate(-193.027 -154.167)" fill="#e8505b"/>
              <path id="Trazado_132913" data-name="Trazado 132913" d="M283.174,204.551c.931-.274,1.717-.413,1.71-.544a2.731,2.731,0,0,0-1.838.1c-.991.286-1.671.793-1.608.9S282.241,204.817,283.174,204.551Z" transform="translate(-192.81 -152.435)" fill="#e8505b"/>
              <path id="Trazado_132914" data-name="Trazado 132914" d="M274.892,172.244a7.511,7.511,0,0,0,.781-.178c.177-.049.267-.082.264-.1s-.1-.012-.282.007-.444.068-.788.091a15.909,15.909,0,0,1-2.512.062c-.129-.006-.251-.008-.386-.018a15.439,15.439,0,0,1-4.18-.9,14.95,14.95,0,0,1-2.29-1.061,13.955,13.955,0,0,1-4.1-3.5,14.939,14.939,0,0,1-1.408-2.1,15.446,15.446,0,0,1-1.546-3.986,16.005,16.005,0,0,1-.411-2.87c-.016-.179-.019-.335-.022-.472s0-.234-.011-.32c-.01-.182-.022-.279-.038-.28s-.028.079-.045.2c0,.026-.006.04-.01.071a7.773,7.773,0,0,0-.054.8,13.227,13.227,0,0,0,.273,2.936,15,15,0,0,0,2.918,6.293,13.94,13.94,0,0,0,4.228,3.61,15.011,15.011,0,0,0,6.671,1.895c.142.005.267,0,.4,0A12.949,12.949,0,0,0,274.892,172.244Z" transform="translate(-189.974 -146.749)" fill="#263238"/>
              <path id="Trazado_132915" data-name="Trazado 132915" d="M284.838,166.126a3.361,3.361,0,0,0-.632-.7c-.07.051.79,1.085,1.737,3a18.665,18.665,0,0,1,1.409,3.932,18.142,18.142,0,0,1,.516,4.093,18.591,18.591,0,0,1-1.031,6.155,17.78,17.78,0,0,1-.768,1.9c-.918,1.933-1.761,2.981-1.691,3.03a3.292,3.292,0,0,0,.621-.708,15.223,15.223,0,0,0,1.36-2.177c.055-.1.109-.224.165-.335a17.422,17.422,0,0,0,1.136-12.495c-.112-.4-.235-.769-.364-1.132a16.942,16.942,0,0,0-1.064-2.406A15.19,15.19,0,0,0,284.838,166.126Z" transform="translate(-193.143 -147.807)" fill="#263238"/>
              <path id="Trazado_132916" data-name="Trazado 132916" d="M289.294,206.283a4.437,4.437,0,0,0-1.364-.8,2.327,2.327,0,0,0-.413-.112c-.1-.018-.148-.02-.153-.005a9.641,9.641,0,0,1,1.714,1.155,5.426,5.426,0,0,1,1.225,1.737c.011.022.022.041.032.063a4.905,4.905,0,0,1,.375,2.618,4.634,4.634,0,0,1-.307,1.048,5.126,5.126,0,0,1-.271.559,5.025,5.025,0,0,1-.54.789,5.478,5.478,0,0,1-3.145,1.841c-.175.044-.316.048-.41.072s-.144.037-.144.053.05.029.147.04a2.357,2.357,0,0,0,.428.012,4.405,4.405,0,0,0,1.535-.366,5.332,5.332,0,0,0,1.653-1.122c.085-.084.172-.161.255-.253.058-.065.11-.143.167-.213l.05-.064a5.173,5.173,0,0,0,.667-1.116,4.967,4.967,0,0,0,.369-1.212,5.129,5.129,0,0,0-.443-2.857,5.512,5.512,0,0,0-.79-1.228A5,5,0,0,0,289.294,206.283Z" transform="translate(-193.346 -152.61)" fill="#263238"/>
              <path id="Trazado_132917" data-name="Trazado 132917" d="M280.638,244.912c-.053.049.168.335.415.838a5.02,5.02,0,0,1,.243.6,5.174,5.174,0,0,1-.062,3.62c-.1.26-.2.472-.269.614s-.1.237-.073.256.1-.035.219-.155a2.6,2.6,0,0,0,.416-.578,4.467,4.467,0,0,0-.193-4.52,3.523,3.523,0,0,0-.235-.3C280.857,245,280.666,244.883,280.638,244.912Z" transform="translate(-192.713 -157.366)" fill="#263238"/>
              <path id="Trazado_132918" data-name="Trazado 132918" d="M275.2,181.974c.262-.769.767-1.006.776-.96a5.529,5.529,0,0,0-.461,1,4.111,4.111,0,0,0,2.606-.506,3.317,3.317,0,0,0,1.6-3.331,2.693,2.693,0,0,0-2.836-2.165,3.181,3.181,0,0,0-2.4,2.19,5.042,5.042,0,0,0-.212.815,10.84,10.84,0,0,0-.061,2.568l.033.04.084.1A4.777,4.777,0,0,0,275.2,181.974Zm1.719-4.495a1.349,1.349,0,0,1,1.152.19,1.572,1.572,0,0,1,.508,1.334,2.133,2.133,0,0,1-.474,1.29,1.581,1.581,0,0,1-.991.561c-.672.085-.992-.272-.938-.315.04-.077.372.082.85-.078A1.532,1.532,0,0,0,278,178.98a1.157,1.157,0,0,0-.268-.9,1.028,1.028,0,0,0-.751-.2c-.51.059-.867.2-.9.119C276.063,177.939,276.309,177.671,276.915,177.48Z" transform="translate(-191.935 -149.078)" fill="#b78876"/>
              <path id="Trazado_132919" data-name="Trazado 132919" d="M277.248,178.072a1.028,1.028,0,0,1,.751.2,1.157,1.157,0,0,1,.268.9,1.532,1.532,0,0,1-.983,1.481c-.478.16-.81,0-.85.078-.055.043.266.4.938.315a1.581,1.581,0,0,0,.991-.561,2.133,2.133,0,0,0,.474-1.29,1.571,1.571,0,0,0-.508-1.334,1.349,1.349,0,0,0-1.152-.19c-.606.191-.852.459-.829.516C276.381,178.277,276.738,178.131,277.248,178.072Z" transform="translate(-192.198 -149.274)" fill="#a36957"/>
              <path id="Trazado_132920" data-name="Trazado 132920" d="M275.322,182.659c-.013.04-.029.074-.041.116a1.989,1.989,0,0,0,.2,1.517,2.111,2.111,0,0,0,3.338.453,1.991,1.991,0,0,0,.6-1.408c-.007-.9-.479-1.3-.5-1.255a3.761,3.761,0,0,1,.178,1.235,1.741,1.741,0,0,1-.566,1.12,1.746,1.746,0,0,1-2.687-.365,1.748,1.748,0,0,1-.246-1.231c.009-.053.028-.089.04-.138a5.525,5.525,0,0,1,.461-1C276.089,181.654,275.584,181.89,275.322,182.659Z" transform="translate(-192.061 -149.763)" fill="#e8505b"/>
              <path id="Trazado_132921" data-name="Trazado 132921" d="M251.494,421.491l.035,0c2.55.273,5.291.574,8.16.9,6.588.762,12.545,1.524,16.857,2.088l1.6.207,3.509.455,1.392.164a1.977,1.977,0,0,0,.489.026,1.951,1.951,0,0,0-.476-.117l-1.379-.248c-.895-.155-2.089-.348-3.531-.57q-.736-.113-1.556-.237l-.656-.1c-2.754-.41-6.111-.876-9.848-1.353l-.019,0c-2.016-.257-4.13-.516-6.325-.77-6.6-.76-12.579-1.324-16.915-1.672-2.168-.175-3.923-.3-5.137-.374l-.315-.016-1.084-.056a1.971,1.971,0,0,0-.491.006,2,2,0,0,0,.483.086l1.392.157.234.024,4.889.494C245.233,420.837,248.2,421.139,251.494,421.491Z" transform="translate(-187.321 -178.403)" fill="#263238"/>
            </g>
            <g id="Grupo_101853" data-name="Grupo 101853" transform="translate(0 63.961)">
              <g id="Grupo_101852" data-name="Grupo 101852">
                <g id="Grupo_101851" data-name="Grupo 101851">
                  <path id="Trazado_132922" data-name="Trazado 132922" d="M211.308,199.965s-11.974-2.294-29.177-17.923-25.678-36.789-27.724-36.627-11.115-3.739-27.087,33.773-9.023,45.919-5.637,45.754,26.2-7.228,40.615-6,33.09,8.189,33.09,8.189Z" transform="translate(-117.235 -145.368)" fill="#e8505b"/>
                  <path id="Trazado_132923" data-name="Trazado 132923" d="M211.308,199.965s-11.974-2.294-29.177-17.923-25.678-36.789-27.724-36.627-11.115-3.739-27.087,33.773-9.023,45.919-5.637,45.754,26.2-7.228,40.615-6,33.09,8.189,33.09,8.189Z" transform="translate(-117.235 -145.368)" fill="#fff" opacity="0.4"/>
                </g>
                <path id="Trazado_132924" data-name="Trazado 132924" d="M247.5,227.9l-3.841,7.834-1.722,3.509a10.078,10.078,0,0,1-13,4.834l-25.758-8.164,13.893-34.332,25.868,12.857A10.079,10.079,0,0,1,247.5,227.9Z" transform="translate(-127.57 -152.128)" fill="#e8505b"/>
                <path id="Trazado_132925" data-name="Trazado 132925" d="M231.014,245.315l-7.678,16.161-4.1-1.014-25.932,22.345-7.829-14.312s15.494-7.2,18.237-12.877-.647-6.85-.647-6.85l7.145-8.6Z" transform="translate(-125.442 -156.769)" fill="#e8505b"/>
                <path id="Trazado_132926" data-name="Trazado 132926" d="M129.015,181.885c-8.49,20.315-11.755,38.3-7.29,40.161s14.964-13.091,23.454-33.406,11.754-38.3,7.29-40.162S137.505,161.57,129.015,181.885Z" transform="translate(-117.534 -145.723)" fill="#263238"/>
              </g>
              <path id="Trazado_132927" data-name="Trazado 132927" d="M255.451,242.7l-6.975-1.975,4.047-8.256,5.276,3.076Z" transform="translate(-133.019 -155.844)" fill="#455a64"/>
              <path id="Trazado_132928" data-name="Trazado 132928" d="M210.812,243.518l18.915,11.322,2.189-4.607Z" transform="translate(-128.489 -157.172)" fill="#263238"/>
              <path id="Trazado_132929" data-name="Trazado 132929" d="M252.523,232.474l-4.047,8.256,1.433.406,3.246-8.294Z" transform="translate(-133.019 -155.844)" fill="#263238"/>
              <path id="Trazado_132930" data-name="Trazado 132930" d="M203.7,233.7s-4.887-1.638-4.73-1.588,15.132-27.605,15.132-27.605l1.193.538-11.113,27.741" transform="translate(-127.065 -152.48)" fill="#263238"/>
              <path id="Trazado_132931" data-name="Trazado 132931" d="M245.639,233.886c-.1.227-3.584-1.017-7.791-2.777s-7.544-3.37-7.449-3.6,3.581,1.017,7.791,2.777S245.733,233.66,245.639,233.886Z" transform="translate(-130.845 -155.244)" fill="#263238"/>
              <path id="Trazado_132932" data-name="Trazado 132932" d="M248.1,228.321c-.1.224-3.262-1-7.057-2.74s-6.79-3.327-6.688-3.551,3.26,1,7.057,2.743S248.206,228.1,248.1,228.321Z" transform="translate(-131.321 -154.585)" fill="#263238"/>
              <path id="Trazado_132933" data-name="Trazado 132933" d="M242.939,239.839c-.033.119-.86-.047-2.182-.414-.66-.184-1.443-.418-2.309-.691s-1.759-.706-2.718-1.109c-3.832-1.649-6.769-3.286-6.68-3.492.1-.244,3.23,1.042,7.027,2.674.952.4,1.837.844,2.668,1.164s1.584.6,2.209.857C242.207,239.342,242.971,239.721,242.939,239.839Z" transform="translate(-130.682 -156.04)" fill="#263238"/>
              <path id="Trazado_132934" data-name="Trazado 132934" d="M148.781,180.627s-10.525-6.119-15.788,8.014,5.685,16.124,5.685,16.124A93.113,93.113,0,0,0,148.781,180.627Z" transform="translate(-118.958 -149.45)" fill="#e8505b"/>
              <path id="Trazado_132935" data-name="Trazado 132935" d="M159.287,161.522a15.67,15.67,0,0,1-.33,2.681c-.278,1.717-.67,4.209-1.247,7.271-.4,1.511-.827,3.162-1.289,4.931q-.352,1.329-.727,2.746l-.382,1.437c-.141.481-.329.955-.5,1.443-.691,1.943-1.415,3.983-2.165,6.1q-.284.792-.572,1.6c-.186.539-.456,1.05-.682,1.583q-.715,1.585-1.448,3.214t-1.452,3.212c-.249.523-.454,1.064-.735,1.561s-.549.995-.821,1.486l-3.138,5.659c-.256.447-.486.9-.754,1.327L142.225,209l-1.581,2.366L137.8,215.6c-1.909,2.453-3.514,4.39-4.616,5.734a15.678,15.678,0,0,1-1.795,2.023,15.974,15.974,0,0,1,1.521-2.235l4.392-5.907,2.736-4.263,1.529-2.368.8-1.237c.26-.425.485-.88.734-1.327.979-1.8,2.007-3.689,3.072-5.646q.4-.734.808-1.48c.277-.494.478-1.031.724-1.552q.71-1.574,1.437-3.192l1.441-3.188c.227-.529.5-1.035.684-1.57s.384-1.06.574-1.584l2.2-6.037c.171-.483.363-.951.509-1.428s.267-.955.4-1.422q.393-1.4.764-2.717c.5-1.751.962-3.383,1.387-4.877.634-3,1.15-5.446,1.518-7.187A15.9,15.9,0,0,1,159.287,161.522Z" transform="translate(-118.936 -147.31)" fill="#263238"/>
            </g>
            <g id="Grupo_101854" data-name="Grupo 101854" transform="translate(68.743 158.508)">
              <path id="Trazado_132936" data-name="Trazado 132936" d="M270.916,252.84s-10.158,18.8-12.878,19.087c-15.066,1.571-31.2-3.376-36.855-5.339-.576-.655-1.232-1.44-1.963-2.4a9.181,9.181,0,0,1-1.423-2.758,14.359,14.359,0,0,1-.816-3.807,1.175,1.175,0,0,0-2.034-.932c-.65.871-.809,4.182.684,7.726s-3.776.768-5.714-.208-8.077-3.7-8.847-3.328c-1.129.55-.772,1.887,1.188,2.814,1.982.939,7.636,4.137,7.075,5.165s-10.353-4.092-10.353-4.092-1.92-1.44-2.607-.274c-1.239,2.105,9.577,6.742,10.617,7.158.723.289.151,1.428-.608,1.076-.782-.363-9.658-5.327-10.939-3.2-.982,1.635,8.862,3.9,10.136,5.983s-7.289-2.5-8.165-.9c-.327.6-.49,1.086,4.8,2.986a109.964,109.964,0,0,0,11.8,2.959l-.019.056s50.849,23.761,64.244.178c8.74-15.386,9.565-17.337,12.663-26.029" transform="translate(-195.376 -252.84)" fill="#b78876"/>
            </g>
          </g>
        </g>
        <g id="Speech_Bubbles" data-name="Speech Bubbles" transform="translate(285.62 110.922)">
          <g id="Grupo_101858" data-name="Grupo 101858">
            <path id="Trazado_132937" data-name="Trazado 132937" d="M427.085,120.545a4.414,4.414,0,0,0-4.436-4.392l-109.615.538a4.414,4.414,0,0,0-4.392,4.436l.17,34.586a4.415,4.415,0,0,0,4.436,4.392l2.381-.011.062,12.658,12.4-12.72,94.775-.465a4.414,4.414,0,0,0,4.393-4.436Z" transform="translate(-308.641 -116.153)" fill="#e8505b"/>
            <g id="Grupo_101856" data-name="Grupo 101856" transform="translate(77.059 3.673)">
              <path id="Trazado_132938" data-name="Trazado 132938" d="M404.4,144.554c-.071-1.982-.039-4.914.018-7.53l-.012.011a8.233,8.233,0,0,1,1.936-8.913c4.09-4.254,6.849-3.327,8.431-3.307,1.476.018,8.918,1.735,11.031,10.477a15.983,15.983,0,0,1,.231,1.7h0v0c.044.434.084.847.121,1.143h.007a9.179,9.179,0,0,0,4.813,7.544,18.127,18.127,0,1,0-25.775,8.4A25.894,25.894,0,0,1,404.4,144.554Z" transform="translate(-396.235 -120.328)" fill="#e0e0e0"/>
              <path id="Trazado_132939" data-name="Trazado 132939" d="M429.387,140.568h-.007l.008.067-.1-.014c.031,3.478-.4,15.421-6.275,17.563A18.166,18.166,0,0,0,434.2,148.112,9.18,9.18,0,0,1,429.387,140.568Z" transform="translate(-399.456 -122.762)" fill="#263238"/>
              <path id="Trazado_132940" data-name="Trazado 132940" d="M405.518,148.3c-.006-.138-.011-.282-.017-.431a25.894,25.894,0,0,0,.8,9.524,18.041,18.041,0,0,0,3.807,1.7c-.068-2.526-.295-6.114-.295-6.114A4.943,4.943,0,0,1,405.518,148.3Z" transform="translate(-397.333 -123.64)" fill="#263238"/>
              <path id="Trazado_132941" data-name="Trazado 132941" d="M420.706,138.577s-6.706-.734-7.816-7l-.039.036a7.845,7.845,0,0,0-.672,4.641l-5.975,1.5-.673.622c-.056,2.615-.089,5.548-.018,7.53.005.149.011.293.017.431a4.943,4.943,0,0,0,4.3,4.678,9.982,9.982,0,0,0,5.417-1.8,5.249,5.249,0,0,1-5.341,2.829l-.077-1.027s.227,3.588.295,6.114a17.924,17.924,0,0,0,10.038.17Zm-8.236,1.056a.521.521,0,1,1,.515.541A.528.528,0,0,1,412.47,139.632Zm-.124-.9a1.356,1.356,0,0,1,1.641-.082c.183.132.251.26.222.294-.059.077-.478-.214-1.038-.181s-.951.355-1.017.284C412.121,139.014,412.177,138.879,412.346,138.73Zm-6.219-.077a1.356,1.356,0,0,1,1.641-.082c.183.132.252.26.222.294-.059.077-.478-.214-1.038-.181s-.951.355-1.017.285C405.9,138.936,405.958,138.8,406.127,138.652Zm.3.9a.521.521,0,1,1,.515.541A.528.528,0,0,1,406.432,139.557ZM408.9,143.9a.358.358,0,0,1-.24-.214.954.954,0,0,1,.062-.606q.182-.57.382-1.195a21.5,21.5,0,0,1,1.119-3.022,21.452,21.452,0,0,1-.889,3.1q-.21.623-.4,1.189a.838.838,0,0,0-.087.459c.026.1.163.128.307.137a3.454,3.454,0,0,1,.916.135,3.408,3.408,0,0,1-.925.04A.9.9,0,0,1,408.9,143.9Zm2.144,2.042a1.533,1.533,0,0,1-1.853-.565c1.145.014,3.3-1.3,2.724-.925A1.216,1.216,0,0,1,411.044,145.94Z" transform="translate(-397.346 -121.68)" fill="#455a64"/>
              <path id="Trazado_132942" data-name="Trazado 132942" d="M407.605,140.589a.521.521,0,1,0-.528.528A.528.528,0,0,0,407.605,140.589Z" transform="translate(-397.477 -122.7)" fill="#263238"/>
              <path id="Trazado_132943" data-name="Trazado 132943" d="M408.052,139.788c.03-.033-.039-.162-.222-.294a1.356,1.356,0,0,0-1.641.082c-.17.15-.225.284-.193.316.066.069.455-.261,1.017-.285S407.993,139.865,408.052,139.788Z" transform="translate(-397.408 -122.604)" fill="#263238"/>
              <path id="Trazado_132944" data-name="Trazado 132944" d="M414.469,140.674a.521.521,0,1,0-.527.529A.527.527,0,0,0,414.469,140.674Z" transform="translate(-398.302 -122.71)" fill="#263238"/>
              <path id="Trazado_132945" data-name="Trazado 132945" d="M415.121,139.876c.029-.033-.039-.162-.222-.294a1.356,1.356,0,0,0-1.641.082c-.169.15-.225.284-.193.315.066.07.456-.26,1.017-.284S415.062,139.953,415.121,139.876Z" transform="translate(-398.258 -122.615)" fill="#263238"/>
              <path id="Trazado_132946" data-name="Trazado 132946" d="M410.5,144.879a3.454,3.454,0,0,0-.916-.135c-.144-.01-.281-.033-.307-.137a.838.838,0,0,1,.087-.459q.19-.566.4-1.189a21.452,21.452,0,0,0,.889-3.1,21.5,21.5,0,0,0-1.119,3.022q-.2.625-.382,1.195a.954.954,0,0,0-.062.606.358.358,0,0,0,.24.214.9.9,0,0,0,.245.025A3.408,3.408,0,0,0,410.5,144.879Z" transform="translate(-397.777 -122.677)" fill="#263238"/>
              <path id="Trazado_132947" data-name="Trazado 132947" d="M409.7,147.126a1.533,1.533,0,0,0,1.853.565,1.216,1.216,0,0,0,.871-1.489C413,145.822,410.845,147.14,409.7,147.126Z" transform="translate(-397.854 -123.431)" fill="#fff"/>
              <path id="Trazado_132948" data-name="Trazado 132948" d="M415.84,151.624a9.982,9.982,0,0,1-5.417,1.8l.077,1.027A5.249,5.249,0,0,0,415.84,151.624Z" transform="translate(-397.941 -124.092)" fill="#263238"/>
              <path id="Trazado_132949" data-name="Trazado 132949" d="M427.111,138.787l.1.014-.008-.067c-.037-.3-.077-.709-.121-1.143v0h0a15.989,15.989,0,0,0-.231-1.7c-2.113-8.742-9.555-10.459-11.031-10.477-1.583-.02-4.341-.947-8.431,3.307a8.233,8.233,0,0,0-1.936,8.913l.012-.011.673-.622,5.975-1.5a7.845,7.845,0,0,1,.672-4.641l.039-.036c1.11,6.269,7.816,7,7.816,7l-.546,18.722c.248-.067.5-.12.747-.2C426.711,154.208,427.142,142.265,427.111,138.787Z" transform="translate(-397.275 -120.928)" fill="#263238"/>
            </g>
            <g id="Grupo_101857" data-name="Grupo 101857" transform="translate(13.453 12.992)">
              <rect id="Rectángulo_36574" data-name="Rectángulo 36574" width="56.969" height="3.14" transform="translate(0 0.28) rotate(-0.281)" fill="#263238"/>
              <rect id="Rectángulo_36575" data-name="Rectángulo 36575" width="56.969" height="3.14" transform="translate(0.04 8.354) rotate(-0.281)" fill="#263238"/>
              <rect id="Rectángulo_36576" data-name="Rectángulo 36576" width="28.236" height="3.14" transform="matrix(1, -0.005, 0.005, 1, 0.078, 16.204)" fill="#263238"/>
            </g>
          </g>
        </g>
      </g>
    </g>
  </g>
</svg>
