<svg xmlns="http://www.w3.org/2000/svg" xmlns:xlink="http://www.w3.org/1999/xlink" width="295" height="320.338" viewBox="0 0 295 320.338">
  <defs>
    <clipPath id="clip-path">
      <rect id="Rectángulo_36803" data-name="Rectángulo 36803" width="264.452" height="261.166" fill="none"/>
    </clipPath>
  </defs>
  <g id="Grupo_105825" data-name="Grupo 105825" transform="translate(-1125 -2404)">
    <g id="Grupo_105589" data-name="Grupo 105589" transform="translate(945)">
      <path id="Rectángulo_35237" data-name="Rectángulo 35237" d="M30,0H265a30,30,0,0,1,30,30V320a0,0,0,0,1,0,0H0a0,0,0,0,1,0,0V30A30,30,0,0,1,30,0Z" transform="translate(180 2404)" fill="#fde07e"/>
      <g id="Grupo_105410" data-name="Grupo 105410" transform="translate(-202.552 2309.176)">
        <g id="Grupo_105409" data-name="Grupo 105409" transform="translate(383.723 192.073)">
          <path id="Trazado_135251" data-name="Trazado 135251" d="M441.363,712.018S408.094,673.9,421.986,629.1c12.468-40.21,68.843-66.234,98.8-46.319,14.491,9.634,26.2-29.088,74.293-43.263,35.566-10.483,88.156,13.026,74.8,85.019-10.155,54.735,40.219,27.446,29.218,87.914Z" transform="translate(-413.765 -489.363)" fill="#fdd85e"/>
          <path id="Trazado_135252" data-name="Trazado 135252" d="M2138.273,1639.66l-34.408.54c-1.236-1.048,5.556-4.31,14.392-4.127a19,19,0,0,1,3.519.417c.317-4.214,2.129-23.157,8.957-22.4,7.678.852,0,8.342-2.17,12.777a105.4,105.4,0,0,0-4.079,10.217c.623.135,1.269.268,1.928.389,1.017-3.125,4.8-13.635,9.619-13.022,5.653.717,3.381,4.931-.626,7.432-2.94,1.839-6.55,4.454-8.265,5.717a24.491,24.491,0,0,0,4.509.361C2135.6,1637.87,2137.526,1639.034,2138.273,1639.66Z" transform="translate(-1865.547 -1417.162)" fill="#a8d29f"/>
          <path id="Trazado_135253" data-name="Trazado 135253" d="M513.661,1699c-.818-1.285-3.28-4.621-6.559-4.179-3.573.481,3.946,2.836,6.248,4.189a3.817,3.817,0,0,1-1.273-.149c-1.539-.549-4.174.5-5.017.872H521.71a2.321,2.321,0,0,0-1.048-1.34,2.615,2.615,0,0,0-1.348-.12c.871-1.027,1.476-4.308-.949-3.463-1.772.617-1.767,2.621-1.593,3.807-.377.059-.759.119-1.137.173-.729-3.718-3.309-14.613-8.539-14.9-5.3-.294,4.5,11.3,7.757,15.008C514.436,1698.942,514.034,1698.979,513.661,1699Z" transform="translate(-488.683 -1477.304)" fill="#a8d29f"/>
          <g id="Grupo_105408" data-name="Grupo 105408" transform="translate(16.87 -38.748)">
            <g id="Grupo_105341" data-name="Grupo 105341" transform="translate(8.427 255.355)">
              <path id="Trazado_135254" data-name="Trazado 135254" d="M793.474,1763.889v3.287a1.254,1.254,0,0,1-.217.707,1.273,1.273,0,0,1-.595.474,1.11,1.11,0,0,1-.18.055h0l-.05.01a1.278,1.278,0,0,1-.223.021l-52.357-.008a1.1,1.1,0,0,1-.164-.011.586.586,0,0,1-.062-.01,1.271,1.271,0,0,1-1.039-1.181c0-.022,0-.043,0-.065v-3.287c0-.022,0-.044,0-.065a1.271,1.271,0,0,1,1.266-1.2l52.356.008c.034,0,.067,0,.1,0l.043,0,.047.006.034.006a1.17,1.17,0,0,1,.232.065l.033.014.033.013.063.031.069.039c.02.012.04.025.06.038s.044.031.065.048l.049.04,0,0,.032.029a1.221,1.221,0,0,1,.092.094l.025.03.025.031c.016.021.032.043.047.064A1.254,1.254,0,0,1,793.474,1763.889Z" transform="translate(-738.583 -1762.614)" fill="#ffb93e"/>
              <path id="Trazado_135255" data-name="Trazado 135255" d="M767.763,1768.44l-28.049,0-.066,0-.072-.008a1.221,1.221,0,0,1-.991-1.192c0-.022,0-.043,0-.065v-3.287c0-.022,0-.043,0-.065a1.2,1.2,0,0,1,1.13-1.2l24.6,0c.011.048.023.1.034.144a10.4,10.4,0,0,0,3.36,5.636Z" transform="translate(-738.583 -1762.615)" fill="#ffa412"/>
              <g id="Grupo_105340" data-name="Grupo 105340" transform="translate(19.237 0.003)">
                <rect id="Rectángulo_36779" data-name="Rectángulo 36779" width="0.595" height="5.82" transform="translate(28.688 0.004)" fill="#ffa412"/>
                <rect id="Rectángulo_36780" data-name="Rectángulo 36780" width="0.595" height="5.82" transform="translate(26.673 0.004)" fill="#ffa412"/>
                <rect id="Rectángulo_36781" data-name="Rectángulo 36781" width="0.595" height="5.821" transform="translate(24.258 0.004)" fill="#ffa412"/>
                <rect id="Rectángulo_36782" data-name="Rectángulo 36782" width="0.595" height="5.82" transform="translate(20.555 0.003)" fill="#ffa412"/>
                <rect id="Rectángulo_36783" data-name="Rectángulo 36783" width="0.595" height="5.82" transform="translate(16.64 0.003)" fill="#ffa412"/>
                <rect id="Rectángulo_36784" data-name="Rectángulo 36784" width="0.595" height="5.82" transform="translate(10.638 0.002)" fill="#ffa412"/>
                <rect id="Rectángulo_36785" data-name="Rectángulo 36785" width="0.595" height="5.82" transform="translate(5.018 0.001)" fill="#ffa412"/>
                <rect id="Rectángulo_36786" data-name="Rectángulo 36786" width="0.595" height="5.821" fill="#ffa412"/>
                <rect id="Rectángulo_36787" data-name="Rectángulo 36787" width="0.595" height="5.82" transform="translate(30.605 0.005)" fill="#ffa412"/>
                <rect id="Rectángulo_36788" data-name="Rectángulo 36788" width="0.595" height="5.821" transform="translate(31.872 0.005)" fill="#ffa412"/>
                <rect id="Rectángulo_36789" data-name="Rectángulo 36789" width="0.595" height="5.821" transform="translate(33.095 0.005)" fill="#ffa412"/>
                <path id="Trazado_135256" data-name="Trazado 135256" d="M1066.7,1762.683v5.78a1.276,1.276,0,0,1-.224.021h-.372v-5.82h.372A1.278,1.278,0,0,1,1066.7,1762.683Z" transform="translate(-1032.085 -1762.658)" fill="#ffa412"/>
                <path id="Trazado_135257" data-name="Trazado 135257" d="M1071.782,1763.663v4.7a1.274,1.274,0,0,1-.594.474v-5.649A1.278,1.278,0,0,1,1071.782,1763.663Z" transform="translate(-1036.345 -1763.099)" fill="#ffa412"/>
              </g>
            </g>
            <g id="Grupo_105343" data-name="Grupo 105343" transform="translate(11.133 249.678)">
              <path id="Trazado_135258" data-name="Trazado 135258" d="M810.116,1728.976v3.287a1.253,1.253,0,0,1-.217.707,1.276,1.276,0,0,1-.595.474,1.162,1.162,0,0,1-.232.065,1.231,1.231,0,0,1-.224.021l-52.356-.008a1.27,1.27,0,0,1-1.261-1.145c0-.019,0-.038,0-.057s0-.043,0-.065v-3.287c0-.022,0-.043,0-.065a1.271,1.271,0,0,1,1.266-1.2l52.356.008a1.276,1.276,0,0,1,.223.02,1.221,1.221,0,0,1,.232.065,1.275,1.275,0,0,1,.594.474A1.256,1.256,0,0,1,810.116,1728.976Z" transform="translate(-755.226 -1727.701)" fill="#ffb93e"/>
              <path id="Trazado_135259" data-name="Trazado 135259" d="M784.406,1733.526l-28.049,0a1.022,1.022,0,0,1-.521-.144,1.28,1.28,0,0,1-.6-1c0-.019,0-.038,0-.057s0-.043,0-.065v-3.287c0-.022,0-.043,0-.065a1.2,1.2,0,0,1,1.129-1.2l24.605,0a10.5,10.5,0,0,0,3.271,5.678C784.291,1733.431,784.348,1733.478,784.406,1733.526Z" transform="translate(-755.226 -1727.701)" fill="#ffa412"/>
              <g id="Grupo_105342" data-name="Grupo 105342" transform="translate(19.237 0.003)">
                <rect id="Rectángulo_36790" data-name="Rectángulo 36790" width="0.595" height="5.82" transform="translate(28.687 0.004)" fill="#ffa412"/>
                <rect id="Rectángulo_36791" data-name="Rectángulo 36791" width="0.595" height="5.821" transform="translate(26.673 0.004)" fill="#ffa412"/>
                <rect id="Rectángulo_36792" data-name="Rectángulo 36792" width="0.595" height="5.821" transform="translate(24.258 0.004)" fill="#ffa412"/>
                <rect id="Rectángulo_36793" data-name="Rectángulo 36793" width="0.595" height="5.82" transform="translate(20.555 0.003)" fill="#ffa412"/>
                <rect id="Rectángulo_36794" data-name="Rectángulo 36794" width="0.595" height="5.82" transform="translate(16.64 0.002)" fill="#ffa412"/>
                <rect id="Rectángulo_36795" data-name="Rectángulo 36795" width="0.595" height="5.82" transform="translate(10.638 0.002)" fill="#ffa412"/>
                <rect id="Rectángulo_36796" data-name="Rectángulo 36796" width="0.595" height="5.82" transform="translate(5.018 0.001)" fill="#ffa412"/>
                <rect id="Rectángulo_36797" data-name="Rectángulo 36797" width="0.595" height="5.82" fill="#ffa412"/>
                <rect id="Rectángulo_36798" data-name="Rectángulo 36798" width="0.595" height="5.821" transform="translate(30.605 0.005)" fill="#ffa412"/>
                <rect id="Rectángulo_36799" data-name="Rectángulo 36799" width="0.595" height="5.82" transform="translate(31.871 0.005)" fill="#ffa412"/>
                <rect id="Rectángulo_36800" data-name="Rectángulo 36800" width="0.595" height="5.82" transform="translate(33.095 0.005)" fill="#ffa412"/>
                <path id="Trazado_135260" data-name="Trazado 135260" d="M1083.339,1727.77v5.78a1.219,1.219,0,0,1-.223.02h-.372v-5.821h.372A1.228,1.228,0,0,1,1083.339,1727.77Z" transform="translate(-1048.729 -1727.745)" fill="#ffa412"/>
                <path id="Trazado_135261" data-name="Trazado 135261" d="M1088.425,1728.75v4.7a1.273,1.273,0,0,1-.594.474v-5.649A1.277,1.277,0,0,1,1088.425,1728.75Z" transform="translate(-1052.988 -1728.186)" fill="#ffa412"/>
              </g>
            </g>
            <g id="Grupo_105392" data-name="Grupo 105392">
              <g id="Grupo_105391" data-name="Grupo 105391" clip-path="url(#clip-path)">
                <g id="Grupo_105390" data-name="Grupo 105390" transform="translate(-22.836 23.384)">
                  <g id="Grupo_105346" data-name="Grupo 105346" transform="translate(90.178 202.001)">
                    <g id="Grupo_105344" data-name="Grupo 105344">
                      <path id="Trazado_135262" data-name="Trazado 135262" d="M1154.943,1729.127l-.81.281c-3.349-7.008-8.387-12.15-13.275-16.452a39.182,39.182,0,0,0-28.388-9.2,49.03,49.03,0,0,0-11.118,2.149l-.417-.932c24.829-10.316,39.457.926,47.095,11.273A50.3,50.3,0,0,1,1154.943,1729.127Z" transform="translate(-1100.936 -1680.952)" fill="#82b378"/>
                      <path id="Trazado_135263" data-name="Trazado 135263" d="M1183.123,1611.274l-28.177,15.185a52.913,52.913,0,0,0-8.111-11.551,65.484,65.484,0,0,0-4.874-4.919c-17.259-15.2-41.021-7.684-41.021-7.684l20.494-21.493a40.239,40.239,0,0,1,32.849,2.16C1172.332,1592.078,1183.123,1611.274,1183.123,1611.274Z" transform="translate(-1100.939 -1578.285)" fill="#a8d29f"/>
                      <path id="Trazado_135264" data-name="Trazado 135264" d="M1237.1,1620.993l-28.177,15.185a52.91,52.91,0,0,0-8.111-11.551,65.524,65.524,0,0,0-4.874-4.919c-17.259-15.2-30.541-18.674-30.541-18.674l13.022.247c4.854.092,8.025-3.08,12.078-5.753.925-.61,1.858-3.048,2.667-3.628,4.649-3.328,9.283-2.141,15.1.791C1226.308,1601.8,1237.1,1620.993,1237.1,1620.993Z" transform="translate(-1154.915 -1588.004)" fill="#82b378"/>
                    </g>
                    <g id="Grupo_105345" data-name="Grupo 105345" transform="translate(4.667 1.55)">
                      <path id="Trazado_135265" data-name="Trazado 135265" d="M1204.408,1618.468h0c-2.713-6.766-13.035-16.586-13.451-16.957a55.079,55.079,0,0,0-16.826-10.77,41.265,41.265,0,0,0-14.218-2.913,32.254,32.254,0,0,0-13.532,2.343l-.077.036-16.662,17.13,1.424-.238c9.244-1.546,17.543-1.141,24.667,1.2a35.7,35.7,0,0,1,14.736,9.235,41.973,41.973,0,0,1,9.365,14.619Zm-25.88,9.237a40.446,40.446,0,0,0-7.347-10.79,36.631,36.631,0,0,0-15.125-9.5,49.886,49.886,0,0,0-21.137-1.8.92.92,0,0,1-.762-1.556l11.548-11.872a7.368,7.368,0,0,1,3.055-1.886,34.807,34.807,0,0,1,11.185-1.52,40.349,40.349,0,0,1,13.874,2.86,54.17,54.17,0,0,1,16.5,10.579c.026.023,2.564,2.293,5.4,5.357,3.734,4.032,6.282,7.591,7.366,10.293l-23.027,13.227A29.676,29.676,0,0,0,1178.529,1627.7Z" transform="translate(-1129.642 -1587.819)" fill="#82b378"/>
                    </g>
                    <path id="Trazado_135266" data-name="Trazado 135266" d="M1346.16,1635.9c1.913,4.278.563,7.984-3.715,9.9s-9.864,1.309-11.777-2.969-.688-7.9,3.59-9.809S1344.246,1631.619,1346.16,1635.9Z" transform="translate(-1292.581 -1623.23)" fill="#82b378"/>
                  </g>
                  <g id="Grupo_105349" data-name="Grupo 105349" transform="translate(58.288 214.789)">
                    <g id="Grupo_105347" data-name="Grupo 105347">
                      <path id="Trazado_135267" data-name="Trazado 135267" d="M964,1822.411l-.9.293c-3.55-7.825-9.009-13.624-14.32-18.49a43.341,43.341,0,0,0-31.2-10.8,54.218,54.218,0,0,0-12.345,2.131l-.441-1.041c27.692-10.862,43.624,1.9,51.843,13.509A55.659,55.659,0,0,1,964,1822.411Z" transform="translate(-904.796 -1768.686)" fill="#82b378"/>
                      <path id="Trazado_135268" data-name="Trazado 135268" d="M995.5,1694.49,964,1710.664a58.534,58.534,0,0,0-8.717-12.956A72.414,72.414,0,0,0,950,1692.16c-18.755-17.2-45.2-9.4-45.2-9.4l23.143-23.322c13.957-4.709,26.2-2.231,36.287,3.115C983.991,1673.019,995.5,1694.49,995.5,1694.49Z" transform="translate(-904.797 -1656.939)" fill="#a8d29f"/>
                    </g>
                    <g id="Grupo_105348" data-name="Grupo 105348" transform="translate(5.227 1.706)">
                      <path id="Trazado_135269" data-name="Trazado 135269" d="M991.916,1716.942a46.429,46.429,0,0,0-10.036-16.378,39.5,39.5,0,0,0-16.1-10.54c-7.827-2.751-17-3.383-27.257-1.877l-1.581.232,18.808-18.58.086-.039c.242-.109,6.031-2.664,15.02-2.293A45.664,45.664,0,0,1,986.522,1671a60.941,60.941,0,0,1,18.374,12.284c.452.42,11.653,11.509,14.5,19.053h0Zm.278-1.176,25.762-14.121c-1.14-3.013-3.879-7.006-7.921-11.549-3.071-3.451-5.828-6.018-5.856-6.044a59.931,59.931,0,0,0-18.022-12.066,44.646,44.646,0,0,0-15.283-3.469,38.526,38.526,0,0,0-12.4,1.434,8.162,8.162,0,0,0-3.421,2.019l-13.035,12.877a1.018,1.018,0,0,0,.808,1.738,55.19,55.19,0,0,1,23.341,2.463,40.53,40.53,0,0,1,16.52,10.842,44.735,44.735,0,0,1,7.888,12.1A32.661,32.661,0,0,1,992.193,1715.766Z" transform="translate(-936.946 -1667.431)" fill="#82b378"/>
                    </g>
                    <path id="Trazado_135270" data-name="Trazado 135270" d="M1177.207,1722.5c2.022,4.775.446,8.844-4.328,10.865s-10.94,1.23-12.961-3.544-.586-8.749,4.188-10.771S1175.185,1717.727,1177.207,1722.5Z" transform="translate(-1117.692 -1708.059)" fill="#82b378"/>
                  </g>
                  <path id="Trazado_135271" data-name="Trazado 135271" d="M1260.72,827.418s-1.573,11.123.224,18.195h-26.321s12.594-46.1,38.383-72.492c7.4-7.576,14.213-18.365,20.786-30.224,16.319-29.445,31.168-65.491,49.979-75.325,0,0-37.159,54.6-44.355,86.084S1266.568,784.241,1260.72,827.418Z" transform="translate(-1122.709 -613.644)" fill="#4c85d8"/>
                  <path id="Trazado_135272" data-name="Trazado 135272" d="M1278.563,1141.612a93.316,93.316,0,0,1,3.241-10.758c-6.573,11.858-13.383,22.647-20.786,30.224a107.153,107.153,0,0,0-10.54,12.735,88.231,88.231,0,0,0-5.246-20.36c-4.053-10.12-11-20.392-22.6-21.285,0,0,28.078,21.512,13.831,65.622-9.264,19.063-16.159,35.78-16.159,35.78h20.25c-1.8-7.072-.224-18.195-.224-18.195C1246.18,1172.2,1271.366,1173.1,1278.563,1141.612Z" transform="translate(-1110.719 -1001.601)" fill="#699ff0"/>
                  <path id="Trazado_135273" data-name="Trazado 135273" d="M1356.768,1290.213s-.038.066-.107.181c-.736,1.23-4.969,8.167-4.59,3.9.415-4.669-4.837-22.266-4.837-22.266l4.287-2.179A88.235,88.235,0,0,1,1356.768,1290.213Z" transform="translate(-1217.01 -1117.997)" fill="#4c85d8"/>
                  <path id="Trazado_135274" data-name="Trazado 135274" d="M1598.188,690.027s0,.005,0,.005l-.779,1.186a67.943,67.943,0,0,0-14.764-5.417,54.533,54.533,0,0,0-33.459,2.505,48.272,48.272,0,0,0-7.5,3.8c-7.655,4.812-15.705,10.741-21.853,19.605l-1.049-.568L1489.7,688.8l-6.166-4.735a107.388,107.388,0,0,1,11.247-11.581c8.17-7.345,20.273-16.283,34.578-20.812a57.829,57.829,0,0,1,26.616-2.281,57.126,57.126,0,0,1,18.9,6.619l23.319,34.019A.008.008,0,0,1,1598.188,690.027Z" transform="translate(-1331.15 -597.874)" fill="#82b378"/>
                  <g id="Grupo_105352" data-name="Grupo 105352" transform="translate(101.585 219.305)">
                    <g id="Grupo_105350" data-name="Grupo 105350">
                      <path id="Trazado_135275" data-name="Trazado 135275" d="M1344.389,1835.555l.81.281c3.349-7.007,8.387-12.149,13.275-16.451a39.178,39.178,0,0,1,28.387-9.2,49.045,49.045,0,0,1,11.118,2.148l.417-.932c-24.83-10.316-39.458.926-47.095,11.272A50.308,50.308,0,0,0,1344.389,1835.555Z" transform="translate(-1316.213 -1787.38)" fill="#82b378"/>
                      <path id="Trazado_135276" data-name="Trazado 135276" d="M1171.093,1717.7l28.177,15.185a52.908,52.908,0,0,1,8.111-11.551,65.534,65.534,0,0,1,4.874-4.919c17.259-15.2,41.021-7.684,41.021-7.684l-20.494-21.493a40.237,40.237,0,0,0-32.849,2.16C1181.884,1698.506,1171.093,1717.7,1171.093,1717.7Z" transform="translate(-1171.093 -1684.713)" fill="#a8d29f"/>
                    </g>
                    <g id="Grupo_105351" data-name="Grupo 105351" transform="translate(2.75 1.55)">
                      <path id="Trazado_135277" data-name="Trazado 135277" d="M1188.007,1724.9h0c2.713-6.766,13.036-16.586,13.451-16.957a55.086,55.086,0,0,1,16.826-10.77,41.262,41.262,0,0,1,14.218-2.913,32.244,32.244,0,0,1,13.532,2.343l.077.036,16.662,17.131-1.424-.238c-9.245-1.546-17.543-1.141-24.667,1.2a35.7,35.7,0,0,0-14.735,9.235,41.972,41.972,0,0,0-9.365,14.619Zm25.88,9.237a40.431,40.431,0,0,1,7.347-10.79,36.637,36.637,0,0,1,15.125-9.5,49.887,49.887,0,0,1,21.138-1.8.92.92,0,0,0,.762-1.556l-11.548-11.872a7.377,7.377,0,0,0-3.055-1.886,34.823,34.823,0,0,0-11.185-1.52,40.343,40.343,0,0,0-13.874,2.86,54.176,54.176,0,0,0-16.5,10.578c-.026.023-2.564,2.293-5.4,5.357-3.734,4.032-6.282,7.591-7.366,10.294l23.026,13.226A29.648,29.648,0,0,1,1213.887,1734.134Z" transform="translate(-1188.007 -1694.248)" fill="#82b378"/>
                    </g>
                    <path id="Trazado_135278" data-name="Trazado 135278" d="M1342.647,1742.326c-1.913,4.278-.563,7.984,3.715,9.9s9.864,1.309,11.777-2.969.688-7.9-3.59-9.81S1344.56,1738.047,1342.647,1742.326Z" transform="translate(-1314.042 -1729.658)" fill="#82b378"/>
                  </g>
                  <g id="Grupo_105355" data-name="Grupo 105355" transform="translate(140.694 214.184)">
                    <g id="Grupo_105353" data-name="Grupo 105353">
                      <path id="Trazado_135279" data-name="Trazado 135279" d="M1465.638,1804.056l-.81.281c-3.349-7.008-8.387-12.15-13.275-16.451a39.177,39.177,0,0,0-28.388-9.2,49.058,49.058,0,0,0-11.118,2.148l-.417-.932c24.829-10.316,39.458.926,47.095,11.272A50.318,50.318,0,0,1,1465.638,1804.056Z" transform="translate(-1411.63 -1755.881)" fill="#82b378"/>
                      <path id="Trazado_135280" data-name="Trazado 135280" d="M1493.818,1686.2l-28.177,15.185a52.915,52.915,0,0,0-8.111-11.551,65.469,65.469,0,0,0-4.874-4.919c-17.259-15.2-41.021-7.684-41.021-7.684l20.494-21.493a40.237,40.237,0,0,1,32.849,2.16C1483.027,1667.007,1493.818,1686.2,1493.818,1686.2Z" transform="translate(-1411.634 -1653.214)" fill="#a8d29f"/>
                    </g>
                    <g id="Grupo_105354" data-name="Grupo 105354" transform="translate(4.667 1.55)">
                      <path id="Trazado_135281" data-name="Trazado 135281" d="M1515.1,1693.4h0c-2.713-6.766-13.035-16.586-13.451-16.957a55.085,55.085,0,0,0-16.826-10.77,41.27,41.27,0,0,0-14.218-2.913,32.251,32.251,0,0,0-13.532,2.344l-.077.036-16.662,17.131,1.425-.238c9.244-1.546,17.544-1.141,24.667,1.2a35.708,35.708,0,0,1,14.736,9.235,41.979,41.979,0,0,1,9.365,14.619Zm-25.88,9.237a40.443,40.443,0,0,0-7.347-10.79,36.633,36.633,0,0,0-15.125-9.5,49.886,49.886,0,0,0-21.138-1.8.92.92,0,0,1-.762-1.556l11.548-11.872a7.37,7.37,0,0,1,3.055-1.886,34.805,34.805,0,0,1,11.185-1.52,40.354,40.354,0,0,1,13.874,2.86,54.171,54.171,0,0,1,16.5,10.578c.025.023,2.563,2.293,5.4,5.357,3.734,4.032,6.282,7.592,7.366,10.294l-23.026,13.226A29.685,29.685,0,0,0,1489.222,1702.635Z" transform="translate(-1440.335 -1662.749)" fill="#82b378"/>
                    </g>
                    <path id="Trazado_135282" data-name="Trazado 135282" d="M1656.854,1710.827c1.913,4.278.563,7.984-3.715,9.9s-9.864,1.309-11.777-2.969-.688-7.9,3.59-9.809S1654.941,1706.548,1656.854,1710.827Z" transform="translate(-1603.275 -1698.159)" fill="#82b378"/>
                  </g>
                  <path id="Trazado_135283" data-name="Trazado 135283" d="M1580.949,688.306a48.286,48.286,0,0,0-7.5,3.8c-7.655,4.812-15.705,10.741-21.853,19.605l-1.049-.568L1521.459,688.8a140.092,140.092,0,0,1,5.081-16.316c8.17-7.345,20.273-16.283,34.578-20.812a57.829,57.829,0,0,1,26.616-2.281c.316.2.483.318.483.318S1573.587,667.481,1580.949,688.306Z" transform="translate(-1362.908 -597.874)" fill="#719e67"/>
                  <path id="Trazado_135284" data-name="Trazado 135284" d="M1133.789,472.844l-44.165,5.051-1.189-.054a57.133,57.133,0,0,0-1.947-11.413,88.453,88.453,0,0,0-6.688-16.647,50.68,50.68,0,0,0-7.016-10.254,54.23,54.23,0,0,0-24.847-16.247,68.042,68.042,0,0,0-15.443-2.963l-.059-1.418h0l37.51-17.149a55.774,55.774,0,0,1,41.247,19.725c8.579,9.72,14.053,21.415,17.459,31.194A113.283,113.283,0,0,1,1133.789,472.844Z" transform="translate(-953.394 -391.042)" fill="#82b378"/>
                  <path id="Trazado_135285" data-name="Trazado 135285" d="M1336.465,472.179c-.637,8.2-4.814,14.9-13.439,17.337-9.43,2.668-19.839.55-28.727-3.577a88.437,88.437,0,0,0-6.688-16.647,50.676,50.676,0,0,0-7.016-10.254c19.526-4.565,16.085-33.989,16.085-33.989a57.629,57.629,0,0,1,22.327,15.937C1327.585,450.705,1333.059,462.4,1336.465,472.179Z" transform="translate(-1161.206 -410.553)" fill="#719e67"/>
                  <path id="Trazado_135286" data-name="Trazado 135286" d="M1220.027,653.91s-.8-8.366-16.437-4.985A16.6,16.6,0,0,0,1220.027,653.91Z" transform="translate(-1096.721 -597.355)" fill="#82b378"/>
                  <path id="Trazado_135287" data-name="Trazado 135287" d="M1456.157,968.512l.009.005-23.319-34.02c-16.173-8.963-31.847-8.664-45.514-4.338-26.767,8.473-45.826,32.391-45.826,32.391l35.254,27.078h0l1.048.566c6.149-8.863,14.2-14.793,21.854-19.6a54.411,54.411,0,0,1,40.961-6.3,68.085,68.085,0,0,1,14.765,5.416l.779-1.186Z" transform="translate(-1212.214 -831.082)" fill="#82b378"/>
                  <path id="Trazado_135288" data-name="Trazado 135288" d="M988.913,733.515l-.01.005,23.32-34.02c16.173-8.963,31.847-8.664,45.514-4.338,26.767,8.472,45.826,32.391,45.826,32.391l-35.253,27.078h0l-1.048.566c-6.149-8.863-14.2-14.793-21.854-19.6a54.411,54.411,0,0,0-40.961-6.3,68.085,68.085,0,0,0-14.764,5.416l-.779-1.186Z" transform="translate(-916.94 -634.293)" fill="#719e67"/>
                  <g id="Grupo_105356" data-name="Grupo 105356" transform="translate(0 225.74)">
                    <path id="Trazado_135289" data-name="Trazado 135289" d="M546.3,1724.295c0,.012.018.024.054.03C546.319,1724.292,546.3,1724.28,546.3,1724.295Z" transform="translate(-546.301 -1724.289)" fill="#ffb973"/>
                  </g>
                  <g id="Grupo_105359" data-name="Grupo 105359" transform="translate(120.61 3.746)">
                    <g id="Grupo_105357" data-name="Grupo 105357">
                      <path id="Trazado_135290" data-name="Trazado 135290" d="M1315.488,436.6l-1.055-.553c3.918-10.05,4.342-20.039,4.056-29.077a54.409,54.409,0,0,0-17.647-37.5,68.056,68.056,0,0,0-12.738-9.222l.549-1.309c34.038,15.355,36.544,40.855,33.318,58.42A69.875,69.875,0,0,1,1315.488,436.6Z" transform="translate(-1288.104 -358.936)" fill="#82b378"/>
                      <path id="Trazado_135291" data-name="Trazado 135291" d="M1360.471,450.715l-42.151-14.121a73.458,73.458,0,0,0,4-19.19,90.74,90.74,0,0,0,.353-9.611c-.993-31.927-31.184-48.857-31.184-48.857l41.243.345c16.468,8.41,24.973,21.579,29.017,35.332C1369.668,421.547,1360.471,450.715,1360.471,450.715Z" transform="translate(-1290.937 -358.935)" fill="#a8d29f"/>
                    </g>
                    <g id="Grupo_105358" data-name="Grupo 105358" transform="translate(7.973 1.924)">
                      <path id="Trazado_135292" data-name="Trazado 135292" d="M1359.676,445.2c.064-.1,5.19-9.4,5.915-23.375a49.586,49.586,0,0,0-4.642-23.7c-4.391-9.444-11.864-18.237-22.213-26.134l-1.594-1.216,33.183.607.11.043c.31.122,7.681,3.083,15.229,11.483a57.328,57.328,0,0,1,10.556,17.171,76.5,76.5,0,0,1,5.073,27.278c.02.774-.123,20.56-4.4,29.736h0Zm1.3-.781,35.274,10.764c1.708-3.666,2.894-9.628,3.431-17.242.408-5.785.3-10.513.3-10.561a75.241,75.241,0,0,0-4.961-26.77,56.039,56.039,0,0,0-10.283-16.772,48.346,48.346,0,0,0-12.164-9.887,10.24,10.24,0,0,0-4.814-1.3l-23-.421a1.278,1.278,0,0,0-.853,2.25c8.29,7.1,14.418,14.866,18.252,23.128a50.883,50.883,0,0,1,4.743,24.348,56.172,56.172,0,0,1-3.952,17.693A41.192,41.192,0,0,1,1360.977,444.417Z" transform="translate(-1337.142 -370.771)" fill="#82b378"/>
                    </g>
                    <path id="Trazado_135293" data-name="Trazado 135293" d="M1551.357,530.168c-6-2.517-10.832-.321-13.349,5.681s2.178,12.235,8.179,14.752,11.04.365,13.557-5.637S1557.359,532.685,1551.357,530.168Z" transform="translate(-1496.795 -501.468)" fill="#82b378"/>
                  </g>
                  <g id="Grupo_105362" data-name="Grupo 105362" transform="translate(51.75 58.878)">
                    <g id="Grupo_105360" data-name="Grupo 105360">
                      <path id="Trazado_135294" data-name="Trazado 135294" d="M938.909,905.74l-1.133.368c-4.456-9.823-11.309-17.1-17.977-23.211a54.413,54.413,0,0,0-39.162-13.561,68.051,68.051,0,0,0-15.5,2.676l-.554-1.307c34.763-13.636,54.763,2.38,65.08,16.958A69.868,69.868,0,0,1,938.909,905.74Z" transform="translate(-864.587 -838.297)" fill="#82b378"/>
                      <path id="Trazado_135295" data-name="Trazado 135295" d="M978.458,745.157l-39.545,20.3A73.466,73.466,0,0,0,927.97,749.2a90.793,90.793,0,0,0-6.632-6.966c-23.543-21.588-56.746-11.806-56.746-11.806l29.052-29.277c17.52-5.911,32.885-2.8,45.552,3.91C964.006,718.2,978.458,745.157,978.458,745.157Z" transform="translate(-864.591 -698.017)" fill="#a8d29f"/>
                    </g>
                    <g id="Grupo_105361" data-name="Grupo 105361" transform="translate(6.562 2.141)">
                      <path id="Trazado_135296" data-name="Trazado 135296" d="M973.953,773.341c-.026-.115-3.1-10.278-12.6-20.559a49.582,49.582,0,0,0-20.2-13.232c-9.826-3.454-21.338-4.246-34.217-2.356l-1.984.291,23.611-23.324.108-.049c.3-.137,7.571-3.344,18.854-2.879a57.326,57.326,0,0,1,19.662,4.439,76.5,76.5,0,0,1,23.065,15.421c.567.526,14.628,14.448,18.208,23.918h0Zm.349-1.476,32.34-17.727c-1.431-3.783-4.869-8.8-9.943-14.5-3.854-4.332-7.316-7.555-7.351-7.587a75.241,75.241,0,0,0-22.624-15.147,56.044,56.044,0,0,0-19.185-4.355,48.352,48.352,0,0,0-15.572,1.8,10.231,10.231,0,0,0-4.3,2.534l-16.363,16.165a1.278,1.278,0,0,0,1.015,2.182c10.875-.971,20.709.064,29.3,3.091a50.886,50.886,0,0,1,20.738,13.611,56.169,56.169,0,0,1,9.9,15.186A41.159,41.159,0,0,1,974.3,771.865Z" transform="translate(-904.948 -711.188)" fill="#82b378"/>
                    </g>
                    <path id="Trazado_135297" data-name="Trazado 135297" d="M1206.556,780.319c-2.538-5.993-10.453-6.869-16.447-4.331s-7.795,7.528-5.257,13.521,10.277,6.987,16.271,4.449S1209.094,786.312,1206.556,780.319Z" transform="translate(-1131.844 -762.19)" fill="#82b378"/>
                  </g>
                  <g id="Grupo_105365" data-name="Grupo 105365" transform="translate(148.265 21.67)">
                    <g id="Grupo_105363" data-name="Grupo 105363">
                      <path id="Trazado_135298" data-name="Trazado 135298" d="M1725.138,648.63l1.189.069c1.819-10.633,6.6-19.413,11.5-27.012a54.41,54.41,0,0,1,34.441-23.052,68.053,68.053,0,0,1,15.668-1.343l.2-1.4c-37.085-4.371-52.367,16.194-58.649,32.913A69.864,69.864,0,0,0,1725.138,648.63Z" transform="translate(-1681.736 -574.786)" fill="#82b378"/>
                      <path id="Trazado_135299" data-name="Trazado 135299" d="M1458.2,533.409l43.4,9.607a73.5,73.5,0,0,1,6.459-18.507,90.837,90.837,0,0,1,4.648-8.42c17.3-26.854,51.895-25.815,51.895-25.815l-35.529-20.949c-18.447-1.274-32.52,5.633-43.071,15.338C1465.337,503.671,1458.2,533.409,1458.2,533.409Z" transform="translate(-1458.196 -469.174)" fill="#a8d29f"/>
                    </g>
                    <g id="Grupo_105364" data-name="Grupo 105364" transform="translate(3.375 2.055)">
                      <path id="Trazado_135300" data-name="Trazado 135300" d="M1478.954,541.893h0c1.06-10.068,11.129-27.1,11.544-27.755a76.5,76.5,0,0,1,18.4-20.768,57.33,57.33,0,0,1,17.893-9.281c10.8-3.313,18.639-2.054,18.968-2l.117.019,28.755,16.572-1.993.222c-12.938,1.439-23.872,5.126-32.5,10.959a49.591,49.591,0,0,0-16.188,17.924c-6.578,12.354-6.975,22.966-6.97,23.083Zm38.079,2.531a56.168,56.168,0,0,1,5.726-17.2,50.876,50.876,0,0,1,16.607-18.427c7.542-5.107,16.792-8.6,27.557-10.423a1.278,1.278,0,0,0,.428-2.368l-19.929-11.485a10.237,10.237,0,0,0-4.8-1.362,48.354,48.354,0,0,0-15.52,2.209,56.038,56.038,0,0,0-17.452,9.08,75.246,75.246,0,0,0-18.042,20.39c-.025.04-2.556,4.036-5.186,9.2-3.461,6.8-5.515,12.525-5.94,16.546l35.779,8.943A41.3,41.3,0,0,1,1517.033,544.424Z" transform="translate(-1478.954 -481.81)" fill="#82b378"/>
                    </g>
                    <path id="Trazado_135301" data-name="Trazado 135301" d="M1659.866,578.247c-6.441-.934-13.876,1.921-14.81,8.362s2.274,10.88,8.716,11.815,13.676-1.99,14.61-8.431S1666.307,579.181,1659.866,578.247Z" transform="translate(-1614.541 -560.368)" fill="#82b378"/>
                  </g>
                  <g id="Grupo_105368" data-name="Grupo 105368" transform="translate(134.897 46.468)">
                    <path id="Trazado_135302" data-name="Trazado 135302" d="M1468.657,724.584a29.936,29.936,0,1,1,22.023,36.157A29.936,29.936,0,0,1,1468.657,724.584Z" transform="translate(-1452.873 -688.698)" fill="#e2810e"/>
                    <circle id="Elipse_5295" data-name="Elipse 5295" cx="29.936" cy="29.936" r="29.936" transform="translate(0 42.337) rotate(-45)" fill="#ffb93e"/>
                    <g id="Grupo_105366" data-name="Grupo 105366" transform="translate(14.967 15.395)">
                      <path id="Trazado_135303" data-name="Trazado 135303" d="M1495.362,770.947a27.471,27.471,0,0,1-6.488-.781,27.125,27.125,0,1,1,6.488.781Zm-.1-52.944a25.686,25.686,0,1,0,6.1.735A25.833,25.833,0,0,0,1495.266,718Z" transform="translate(-1468.026 -716.375)" fill="#ffa412"/>
                    </g>
                    <g id="Grupo_105367" data-name="Grupo 105367" transform="translate(28.912 23.436)">
                      <path id="Trazado_135304" data-name="Trazado 135304" d="M1568.917,793.656a4.5,4.5,0,0,0,.311-1.554,3.29,3.29,0,0,0-.34-1.436,6.2,6.2,0,0,0-1.022-1.464,16.408,16.408,0,0,0-1.742-1.619,42.889,42.889,0,0,1-3.226-2.951,13.566,13.566,0,0,1-2.234-2.943,7.983,7.983,0,0,1-.974-3.161,9.011,9.011,0,0,1,2.317-6.452,7.584,7.584,0,0,1,2.608-1.783,9.462,9.462,0,0,1,3.281-.686,12.623,12.623,0,0,1,3.775.469l1.579-4.243,3.415,1.271-1.6,4.3a11.326,11.326,0,0,1,2.967,2.211,8.556,8.556,0,0,1,2.413,6.215,11.386,11.386,0,0,1-.767,3.789l-6.168-2.3a5.544,5.544,0,0,0,.269-3.952,3.852,3.852,0,0,0-2.389-2.232,4.9,4.9,0,0,0-1.753-.348,3.317,3.317,0,0,0-1.415.308,3.087,3.087,0,0,0-1.071.854,4.541,4.541,0,0,0-.723,1.288,4.177,4.177,0,0,0-.281,1.408,3.081,3.081,0,0,0,.327,1.375,6.23,6.23,0,0,0,1.033,1.468,21.016,21.016,0,0,0,1.8,1.721q1.782,1.544,3.177,2.988a13.739,13.739,0,0,1,2.216,2.958,7.711,7.711,0,0,1,.4,6.753,8.236,8.236,0,0,1-1.775,2.906,7.48,7.48,0,0,1-2.611,1.759,9.148,9.148,0,0,1-3.284.629,13.647,13.647,0,0,1-3.785-.506l-1.469,3.945-3.393-1.264,1.461-3.925a15.3,15.3,0,0,1-3.138-2.048,9.688,9.688,0,0,1-2.3-2.808,8.666,8.666,0,0,1-1-3.588,10.55,10.55,0,0,1,.752-4.37l6.168,2.3a6.5,6.5,0,0,0-.48,2.5,4.209,4.209,0,0,0,.5,1.9,4.081,4.081,0,0,0,1.21,1.353,6.985,6.985,0,0,0,1.634.867,5.832,5.832,0,0,0,1.856.4,3.9,3.9,0,0,0,1.536-.241,3.1,3.1,0,0,0,1.171-.795A3.773,3.773,0,0,0,1568.917,793.656Z" transform="translate(-1553.796 -765.833)" fill="#ffa412"/>
                    </g>
                  </g>
                  <g id="Grupo_105371" data-name="Grupo 105371" transform="translate(38.087 96.875)">
                    <g id="Grupo_105370" data-name="Grupo 105370" transform="translate(0 0)">
                      <rect id="Rectángulo_36801" data-name="Rectángulo 36801" width="116.756" height="48.964" transform="translate(0 31.724) rotate(-15.766)" fill="#a8d29f"/>
                      <g id="Grupo_105369" data-name="Grupo 105369" transform="translate(7.581 6.155)">
                        <path id="Trazado_135305" data-name="Trazado 135305" d="M827.181,997.59l10.608,37.573,99.248-28.021-10.608-37.573Zm106.4,2.749a6.008,6.008,0,0,1-4.151,7.418l-85.449,24.125a5.381,5.381,0,0,1-6.641-3.716l-6.735-23.855A5.924,5.924,0,0,1,834.7,997l85.13-24.035a5.8,5.8,0,0,1,7.154,4Z" transform="translate(-827.181 -969.569)" fill="#82b378"/>
                      </g>
                      <path id="Trazado_135306" data-name="Trazado 135306" d="M1115.183,1105.057a12.154,12.154,0,1,0-8.395,15A12.155,12.155,0,0,0,1115.183,1105.057Z" transform="translate(-1040.799 -1069.458)" fill="#82b378"/>
                    </g>
                    <path id="Trazado_135307" data-name="Trazado 135307" d="M1087.7,931.713l13.3,47.122-87.849,24.8c4.064-2.548,41.285-14.8,48.946-31.783,9.3-20.613,2.007-31.907,2.2-33.536Z" transform="translate(-975.334 -931.713)" fill="#82b378" opacity="0.5"/>
                  </g>
                  <g id="Grupo_105374" data-name="Grupo 105374" transform="translate(164.341 110.089)">
                    <g id="Grupo_105373" data-name="Grupo 105373" transform="translate(0 0)">
                      <rect id="Rectángulo_36802" data-name="Rectángulo 36802" width="116.756" height="48.964" transform="translate(0 0.511) rotate(-0.251)" fill="#a8d29f"/>
                      <g id="Grupo_105372" data-name="Grupo 105372" transform="translate(6.649 4.451)">
                        <path id="Trazado_135308" data-name="Trazado 135308" d="M1597.966,1040.813l.171,39.041,103.127-.451-.171-39.041Zm101.792,31.112a6.008,6.008,0,0,1-5.985,6.037l-88.789.388a5.38,5.38,0,0,1-5.4-5.358l-.108-24.787a5.925,5.925,0,0,1,5.9-5.952l88.457-.387a5.8,5.8,0,0,1,5.822,5.772Z" transform="translate(-1597.966 -1040.362)" fill="#82b378"/>
                      </g>
                      <path id="Trazado_135309" data-name="Trazado 135309" d="M1854.107,1087.046a12.155,12.155,0,1,0,12.208,12.1A12.155,12.155,0,0,0,1854.107,1087.046Z" transform="translate(-1795.677 -1075.005)" fill="#82b378"/>
                    </g>
                    <path id="Trazado_135310" data-name="Trazado 135310" d="M1806.123,1012.989l.214,48.964-91.282.4c4.6-1.368,43.739-3.216,55.665-17.532,14.473-17.374,10.468-30.207,11.095-31.724Z" transform="translate(-1689.368 -1012.989)" fill="#82b378" opacity="0.5"/>
                  </g>
                  <g id="Grupo_105377" data-name="Grupo 105377" transform="translate(151.583 130.04)">
                    <path id="Trazado_135311" data-name="Trazado 135311" d="M1548.828,1151.183a29.936,29.936,0,1,0-11.765,40.669A29.937,29.937,0,0,0,1548.828,1151.183Z" transform="translate(-1490.382 -1135.693)" fill="#e2810e"/>
                    <path id="Trazado_135312" data-name="Trazado 135312" d="M1534.761,1158.937A29.936,29.936,0,1,0,1523,1199.606,29.936,29.936,0,0,0,1534.761,1158.937Z" transform="translate(-1478.602 -1142.186)" fill="#ffb93e"/>
                    <g id="Grupo_105375" data-name="Grupo 105375" transform="translate(2.825 4.225)">
                      <path id="Trazado_135313" data-name="Trazado 135313" d="M1523.3,1216.252a27.382,27.382,0,0,1-7.618-1.087,27.106,27.106,0,1,1,7.618,1.087Zm-.076-52.948a25.723,25.723,0,1,0,7.164,1.022A25.774,25.774,0,0,0,1523.227,1163.3Z" transform="translate(-1495.975 -1161.676)" fill="#ffa412"/>
                    </g>
                    <g id="Grupo_105376" data-name="Grupo 105376" transform="translate(17.543 11.827)">
                      <path id="Trazado_135314" data-name="Trazado 135314" d="M1606.176,1233.24a4.5,4.5,0,0,0-.821-1.356,3.286,3.286,0,0,0-1.221-.829,6.225,6.225,0,0,0-1.743-.388,16.411,16.411,0,0,0-2.378-.016,43.066,43.066,0,0,1-4.373.006,13.6,13.6,0,0,1-3.635-.659,7.983,7.983,0,0,1-2.854-1.672A9.014,9.014,0,0,1,1586.5,1222a7.582,7.582,0,0,1,.717-3.077,9.463,9.463,0,0,1,1.954-2.723,12.63,12.63,0,0,1,3.1-2.206l-1.7-4.195,3.376-1.37,1.727,4.253a11.313,11.313,0,0,1,3.682-.376,8.554,8.554,0,0,1,5.979,2.95,11.386,11.386,0,0,1,2,3.311l-6.1,2.476a5.545,5.545,0,0,0-2.473-3.094,3.853,3.853,0,0,0-3.269-.031,4.9,4.9,0,0,0-1.528.929,3.316,3.316,0,0,0-.835,1.183,3.089,3.089,0,0,0-.212,1.354,4.546,4.546,0,0,0,.338,1.438,4.16,4.16,0,0,0,.744,1.227,3.082,3.082,0,0,0,1.17.792,6.213,6.213,0,0,0,1.753.384,21.043,21.043,0,0,0,2.491.051q2.356-.067,4.361.056a13.7,13.7,0,0,1,3.632.683,7.708,7.708,0,0,1,4.86,4.705,8.238,8.238,0,0,1,.656,3.341,7.483,7.483,0,0,1-.736,3.062,9.142,9.142,0,0,1-2,2.683,13.653,13.653,0,0,1-3.132,2.185l1.583,3.9-3.355,1.362-1.576-3.881a15.289,15.289,0,0,1-3.7.611,9.693,9.693,0,0,1-3.59-.517,8.672,8.672,0,0,1-3.16-1.971,10.544,10.544,0,0,1-2.4-3.729l6.1-2.476a6.5,6.5,0,0,0,1.334,2.164,4.2,4.2,0,0,0,1.649,1.066,4.078,4.078,0,0,0,1.806.18,7.006,7.006,0,0,0,1.79-.465,5.836,5.836,0,0,0,1.637-.961,3.893,3.893,0,0,0,.969-1.216,3.105,3.105,0,0,0,.326-1.377A3.781,3.781,0,0,0,1606.176,1233.24Z" transform="translate(-1586.496 -1208.434)" fill="#ffa412"/>
                    </g>
                  </g>
                  <g id="Grupo_105380" data-name="Grupo 105380" transform="translate(106.143 97.466)">
                    <path id="Trazado_135315" data-name="Trazado 135315" d="M1256.054,955.907a22.494,22.494,0,1,0-20.471,24.349A22.494,22.494,0,0,0,1256.054,955.907Z" transform="translate(-1209.194 -935.351)" fill="#e2810e"/>
                    <path id="Trazado_135316" data-name="Trazado 135316" d="M1244.03,956.946a22.494,22.494,0,1,0-20.471,24.349A22.494,22.494,0,0,0,1244.03,956.946Z" transform="translate(-1199.125 -936.222)" fill="#ffb93e"/>
                    <g id="Grupo_105378" data-name="Grupo 105378" transform="translate(2.023 2.433)">
                      <path id="Trazado_135317" data-name="Trazado 135317" d="M1232.046,991.306a20.522,20.522,0,0,1-20.4-18.728h0a20.494,20.494,0,1,1,22.185,18.651Q1232.932,991.307,1232.046,991.306Zm-19.185-18.834a19.272,19.272,0,1,0,17.539-20.861,19.294,19.294,0,0,0-17.539,20.861Z" transform="translate(-1211.567 -950.315)" fill="#ffa412"/>
                    </g>
                    <g id="Grupo_105379" data-name="Grupo 105379" transform="translate(13.935 7.76)">
                      <path id="Trazado_135318" data-name="Trazado 135318" d="M1296.739,1003.928a3.384,3.384,0,0,0-.151-1.181,2.465,2.465,0,0,0-.586-.941,4.671,4.671,0,0,0-1.079-.8,12.317,12.317,0,0,0-1.628-.735,32.28,32.28,0,0,1-3.005-1.328,10.21,10.21,0,0,1-2.3-1.56,6,6,0,0,1-1.451-2.018,6.77,6.77,0,0,1,.1-5.15,5.691,5.691,0,0,1,1.43-1.895,7.108,7.108,0,0,1,2.172-1.275,9.48,9.48,0,0,1,2.8-.571l.108-3.4,2.737.087-.109,3.448a8.5,8.5,0,0,1,2.643.864,6.428,6.428,0,0,1,3.208,3.847A8.57,8.57,0,0,1,1302,994.2l-4.943-.157a4.163,4.163,0,0,0-.756-2.879,2.894,2.894,0,0,0-2.236-1.018,3.678,3.678,0,0,0-1.332.173,2.493,2.493,0,0,0-.934.558,2.334,2.334,0,0,0-.558.865,3.424,3.424,0,0,0-.206,1.091,3.144,3.144,0,0,0,.137,1.07,2.316,2.316,0,0,0,.562.9,4.692,4.692,0,0,0,1.087.8,15.89,15.89,0,0,0,1.7.794q1.639.672,2.979,1.367a10.325,10.325,0,0,1,2.286,1.575,5.8,5.8,0,0,1,1.9,4.713,6.2,6.2,0,0,1-.568,2.494,5.627,5.627,0,0,1-1.438,1.879,6.886,6.886,0,0,1-2.188,1.235,10.257,10.257,0,0,1-2.817.546l-.1,3.161-2.72-.086.1-3.146a11.458,11.458,0,0,1-2.725-.707,7.276,7.276,0,0,1-2.308-1.449,6.514,6.514,0,0,1-1.57-2.316,7.932,7.932,0,0,1-.511-3.292l4.943.157a4.883,4.883,0,0,0,.256,1.892,3.155,3.155,0,0,0,.808,1.235,3.063,3.063,0,0,0,1.186.674,5.247,5.247,0,0,0,1.371.226,4.378,4.378,0,0,0,1.417-.161,2.924,2.924,0,0,0,1.036-.54,2.329,2.329,0,0,0,.644-.846A2.845,2.845,0,0,0,1296.739,1003.928Z" transform="translate(-1284.832 -983.076)" fill="#ffa412"/>
                    </g>
                  </g>
                  <g id="Grupo_105383" data-name="Grupo 105383" transform="translate(123.716 51.834)">
                    <path id="Trazado_135319" data-name="Trazado 135319" d="M1334.452,660.406a11.756,11.756,0,1,0-4.033,16.129A11.756,11.756,0,0,0,1334.452,660.406Z" transform="translate(-1311.734 -654.696)" fill="#e2810e"/>
                    <path id="Trazado_135320" data-name="Trazado 135320" d="M1329.043,663.651a11.756,11.756,0,1,0-4.033,16.129A11.756,11.756,0,0,0,1329.043,663.651Z" transform="translate(-1307.204 -657.414)" fill="#ffb93e"/>
                    <g id="Grupo_105381" data-name="Grupo 105381" transform="translate(1.121 1.696)">
                      <path id="Trazado_135321" data-name="Trazado 135321" d="M1324.824,686.545a10.716,10.716,0,0,1-9.2-5.2h0a10.717,10.717,0,1,1,9.2,5.2Zm-8.655-5.527a10.072,10.072,0,1,0,3.455-13.819,10.083,10.083,0,0,0-3.455,13.819Z" transform="translate(-1314.097 -665.128)" fill="#ffa412"/>
                    </g>
                    <g id="Grupo_105382" data-name="Grupo 105382" transform="translate(6.809 4.753)">
                      <path id="Trazado_135322" data-name="Trazado 135322" d="M1356.966,693.487a1.767,1.767,0,0,0-.342-.52,1.291,1.291,0,0,0-.491-.308,2.434,2.434,0,0,0-.69-.127,6.428,6.428,0,0,0-.934.028,16.872,16.872,0,0,1-1.716.065,5.34,5.34,0,0,1-1.436-.207,3.135,3.135,0,0,1-1.144-.615,3.537,3.537,0,0,1-1.132-2.442,2.972,2.972,0,0,1,.237-1.218,3.713,3.713,0,0,1,.728-1.1,4.943,4.943,0,0,1,1.184-.91l-.728-1.622,1.305-.586.739,1.644a4.451,4.451,0,0,1,1.44-.2,3.36,3.36,0,0,1,2.388,1.072,4.481,4.481,0,0,1,.831,1.271l-2.358,1.059a2.177,2.177,0,0,0-1.015-1.179,1.513,1.513,0,0,0-1.283.035,1.927,1.927,0,0,0-.586.386,1.312,1.312,0,0,0-.311.477,1.216,1.216,0,0,0-.064.534,1.794,1.794,0,0,0,.154.56,1.628,1.628,0,0,0,.31.471,1.217,1.217,0,0,0,.47.295,2.453,2.453,0,0,0,.694.125,8.241,8.241,0,0,0,.978-.016q.924-.06,1.712-.041a5.391,5.391,0,0,1,1.435.216,3.027,3.027,0,0,1,1.975,1.777,3.229,3.229,0,0,1,.305,1.3,2.934,2.934,0,0,1-.245,1.212,3.586,3.586,0,0,1-.744,1.082,5.354,5.354,0,0,1-1.2.9l.677,1.508-1.3.583-.674-1.5a6.007,6.007,0,0,1-1.442.293,3.8,3.8,0,0,1-1.416-.152,3.41,3.41,0,0,1-1.268-.728,4.145,4.145,0,0,1-.995-1.429l2.357-1.059a2.556,2.556,0,0,0,.555.83,1.648,1.648,0,0,0,.662.394,1.6,1.6,0,0,0,.711.045,2.746,2.746,0,0,0,.7-.208,2.288,2.288,0,0,0,.628-.4,1.532,1.532,0,0,0,.363-.491,1.219,1.219,0,0,0,.108-.545A1.476,1.476,0,0,0,1356.966,693.487Z" transform="translate(-1349.082 -683.928)" fill="#ffa412"/>
                    </g>
                  </g>
                  <g id="Grupo_105386" data-name="Grupo 105386" transform="translate(173.106 15.467)">
                    <path id="Trazado_135323" data-name="Trazado 135323" d="M1631.789,432.984a11.756,11.756,0,1,0,8.432,14.328A11.756,11.756,0,0,0,1631.789,432.984Z" transform="translate(-1616.089 -432.348)" fill="#e2810e"/>
                    <path id="Trazado_135324" data-name="Trazado 135324" d="M1625.682,431.4a11.756,11.756,0,1,0,8.433,14.328A11.756,11.756,0,0,0,1625.682,431.4Z" transform="translate(-1610.976 -431.023)" fill="#ffb93e"/>
                    <g id="Grupo_105384" data-name="Grupo 105384" transform="translate(1.009 1.178)">
                      <path id="Trazado_135325" data-name="Trazado 135325" d="M1627.892,459.7a10.713,10.713,0,0,1-10.367-13.4h0a10.711,10.711,0,1,1,10.367,13.4Zm-.015-20.788a10.084,10.084,0,0,0-9.733,7.55h0a10.072,10.072,0,1,0,12.276-7.224A10.133,10.133,0,0,0,1627.877,438.907Z" transform="translate(-1617.179 -438.267)" fill="#ffa412"/>
                    </g>
                    <g id="Grupo_105385" data-name="Grupo 105385" transform="translate(6.453 4.373)">
                      <path id="Trazado_135326" data-name="Trazado 135326" d="M1656.584,468.821a1.783,1.783,0,0,0,.132-.609,1.3,1.3,0,0,0-.125-.566,2.436,2.436,0,0,0-.392-.581,6.506,6.506,0,0,0-.675-.646,17.02,17.02,0,0,1-1.25-1.178,5.334,5.334,0,0,1-.859-1.169,3.137,3.137,0,0,1-.364-1.247,3.54,3.54,0,0,1,.948-2.52,2.976,2.976,0,0,1,1.035-.685,3.716,3.716,0,0,1,1.292-.25,4.955,4.955,0,0,1,1.48.206l.645-1.656,1.333.519-.655,1.68a4.456,4.456,0,0,1,1.152.886,3.359,3.359,0,0,1,.91,2.455,4.473,4.473,0,0,1-.324,1.483l-2.408-.938a2.176,2.176,0,0,0,.129-1.55,1.513,1.513,0,0,0-.925-.891,1.914,1.914,0,0,0-.686-.147,1.3,1.3,0,0,0-.557.112,1.22,1.22,0,0,0-.426.329,1.787,1.787,0,0,0-.291.5,1.617,1.617,0,0,0-.119.551,1.215,1.215,0,0,0,.12.542,2.442,2.442,0,0,0,.4.582,8.289,8.289,0,0,0,.7.686q.691.617,1.23,1.192a5.389,5.389,0,0,1,.852,1.175,3.028,3.028,0,0,1,.118,2.654,3.236,3.236,0,0,1-.714,1.13,2.947,2.947,0,0,1-1.036.675,3.6,3.6,0,0,1-1.293.227,5.348,5.348,0,0,1-1.483-.221l-.6,1.54-1.325-.516.6-1.532a6.014,6.014,0,0,1-1.22-.823,3.805,3.805,0,0,1-.885-1.116,3.4,3.4,0,0,1-.37-1.415,4.14,4.14,0,0,1,.321-1.711l2.408.938a2.547,2.547,0,0,0-.2.977,1.645,1.645,0,0,0,.183.749,1.607,1.607,0,0,0,.467.539,2.743,2.743,0,0,0,.636.35,2.291,2.291,0,0,0,.726.167,1.527,1.527,0,0,0,.6-.085,1.22,1.22,0,0,0,.464-.3A1.488,1.488,0,0,0,1656.584,468.821Z" transform="translate(-1650.666 -457.922)" fill="#ffa412"/>
                    </g>
                  </g>
                  <g id="Grupo_105389" data-name="Grupo 105389" transform="translate(209.704 101.126)">
                    <path id="Trazado_135327" data-name="Trazado 135327" d="M1841.651,971.884a9.258,9.258,0,1,1,12.7,3.176A9.258,9.258,0,0,1,1841.651,971.884Z" transform="translate(-1839.638 -957.862)" fill="#e2810e"/>
                    <path id="Trazado_135328" data-name="Trazado 135328" d="M1837.391,974.44a9.258,9.258,0,1,1,12.7,3.176A9.258,9.258,0,0,1,1837.391,974.44Z" transform="translate(-1836.071 -960.002)" fill="#ffb93e"/>
                    <g id="Grupo_105387" data-name="Grupo 105387" transform="translate(0.883 1.336)">
                      <path id="Trazado_135329" data-name="Trazado 135329" d="M1849.946,982.944a8.439,8.439,0,0,1-7.247-4.093h0a8.441,8.441,0,1,1,7.247,4.093Zm-6.816-4.352a7.932,7.932,0,1,0,2.721-10.882,7.941,7.941,0,0,0-2.721,10.882Z" transform="translate(-1841.498 -966.078)" fill="#ffa412"/>
                    </g>
                    <g id="Grupo_105388" data-name="Grupo 105388" transform="translate(5.362 3.743)">
                      <path id="Trazado_135330" data-name="Trazado 135330" d="M1875.259,988.41a1.382,1.382,0,0,0-.269-.41,1.017,1.017,0,0,0-.386-.242,1.919,1.919,0,0,0-.543-.1,5.067,5.067,0,0,0-.735.022,13.322,13.322,0,0,1-1.352.052,4.209,4.209,0,0,1-1.131-.163,2.472,2.472,0,0,1-.9-.484,2.791,2.791,0,0,1-.891-1.923,2.361,2.361,0,0,1,.186-.959,2.948,2.948,0,0,1,.574-.863,3.9,3.9,0,0,1,.933-.717l-.574-1.277,1.028-.462.582,1.3a3.5,3.5,0,0,1,1.133-.158,2.646,2.646,0,0,1,1.881.844,3.53,3.53,0,0,1,.654,1l-1.857.834a1.714,1.714,0,0,0-.8-.928,1.192,1.192,0,0,0-1.011.027,1.517,1.517,0,0,0-.462.3,1.033,1.033,0,0,0-.245.375.958.958,0,0,0-.05.421,1.408,1.408,0,0,0,.121.441,1.286,1.286,0,0,0,.244.371.957.957,0,0,0,.37.231,1.926,1.926,0,0,0,.546.1,6.5,6.5,0,0,0,.771-.013q.727-.047,1.348-.032a4.261,4.261,0,0,1,1.131.17,2.644,2.644,0,0,1,1.8,2.424,2.313,2.313,0,0,1-.193.955,2.814,2.814,0,0,1-.587.851,4.2,4.2,0,0,1-.943.711l.534,1.187-1.021.459-.531-1.182a4.716,4.716,0,0,1-1.135.23,2.988,2.988,0,0,1-1.115-.119,2.68,2.68,0,0,1-1-.573,3.268,3.268,0,0,1-.784-1.125l1.857-.834a2.013,2.013,0,0,0,.437.654,1.3,1.3,0,0,0,.522.311,1.264,1.264,0,0,0,.56.035,2.171,2.171,0,0,0,.548-.164,1.8,1.8,0,0,0,.5-.316,1.215,1.215,0,0,0,.286-.387.964.964,0,0,0,.085-.429A1.159,1.159,0,0,0,1875.259,988.41Z" transform="translate(-1869.05 -980.882)" fill="#ffa412"/>
                    </g>
                  </g>
                  <path id="Trazado_135331" data-name="Trazado 135331" d="M1088.465,969.392s-6.455-4.546-11.292-3.655-10.072,7.116-10.072,7.116,9.657,1.069,13.237-.286S1088.465,969.392,1088.465,969.392Z" transform="translate(-982.424 -863.233)" fill="#ffa412"/>
                  <path id="Trazado_135332" data-name="Trazado 135332" d="M1852.98,908.481s11.011-5.986,15.211-4,6.428,6.693,6.428,6.693a73.878,73.878,0,0,1-9.038.318C1861.636,911.3,1858.963,907.763,1852.98,908.481Z" transform="translate(-1640.527 -811.695)" fill="#82b378"/>
                  <path id="Trazado_135333" data-name="Trazado 135333" d="M1961.02,633.7s7.358-3.642,10.659-2.793a30.544,30.544,0,0,1,6.637,2.793s-4.1,2.468-8.089,2.3S1961.02,633.7,1961.02,633.7Z" transform="translate(-1731 -582.83)" fill="#ffa412"/>
                  <path id="Trazado_135334" data-name="Trazado 135334" d="M1651.69,349.258s-3.8-4.71-2.472-8.147a31.562,31.562,0,0,1,2.472-5.219s3.478,3.946,3.33,6.683S1651.69,349.258,1651.69,349.258Z" transform="translate(-1469.659 -335.893)" fill="#ffa412"/>
                  <path id="Trazado_135335" data-name="Trazado 135335" d="M1761.022,421.156s-.888-5.929,1.861-7.626,7.163-1.7,7.163-1.7-.679,5.007-2.546,6.11S1761.841,419.65,1761.022,421.156Z" transform="translate(-1563.405 -399.486)" fill="#82b378"/>
                  <path id="Trazado_135336" data-name="Trazado 135336" d="M1487.943,1440.548s3.72,5.261,3.889,7.128-5.249,6.619-5.249,6.619-1.752-4.583-.989-6.874S1487.943,1440.548,1487.943,1440.548Z" transform="translate(-1332.714 -1260.942)" fill="#82b378"/>
                  <path id="Trazado_135337" data-name="Trazado 135337" d="M1423.261,1255.692s-5.529,1.867-6.292,4.922a16.1,16.1,0,0,0-.509,5.241S1424.462,1261.972,1423.261,1255.692Z" transform="translate(-1274.946 -1106.142)" fill="#82b378"/>
                  <path id="Trazado_135338" data-name="Trazado 135338" d="M1467.059,1255.692s1.707,1.952,1.745,3.31a4.527,4.527,0,0,1-.872,2.54S1465.917,1259.922,1467.059,1255.692Z" transform="translate(-1317.059 -1106.142)" fill="#82b378"/>
                </g>
              </g>
            </g>
            <g id="Grupo_105394" data-name="Grupo 105394" transform="translate(142.274 255.346)">
              <path id="Trazado_135339" data-name="Trazado 135339" d="M1616.693,1763.833v3.287a1.259,1.259,0,0,1-.217.708,1.28,1.28,0,0,1-.595.474,1.188,1.188,0,0,1-.232.065,1.253,1.253,0,0,1-.224.02l-52.356-.008a1.254,1.254,0,0,1-.584-.143,1.273,1.273,0,0,1-.677-1c0-.019,0-.038,0-.057s0-.043,0-.065v-3.287c0-.021,0-.043,0-.065a1.271,1.271,0,0,1,1.266-1.2l52.356.008a1.228,1.228,0,0,1,.224.02,1.188,1.188,0,0,1,.232.065,1.274,1.274,0,0,1,.594.474A1.254,1.254,0,0,1,1616.693,1763.833Z" transform="translate(-1561.802 -1762.558)" fill="#ffb93e"/>
              <path id="Trazado_135340" data-name="Trazado 135340" d="M1590.982,1768.383l-28.049,0a1.024,1.024,0,0,1-.521-.143,1.283,1.283,0,0,1-.6-1c0-.019,0-.038,0-.057s0-.043,0-.065v-3.287c0-.021,0-.043,0-.065a1.2,1.2,0,0,1,1.129-1.2l24.6,0a10.494,10.494,0,0,0,3.272,5.678Q1590.895,1768.311,1590.982,1768.383Z" transform="translate(-1561.802 -1762.558)" fill="#ffa412"/>
              <g id="Grupo_105393" data-name="Grupo 105393" transform="translate(19.237 0.003)">
                <rect id="Rectángulo_36804" data-name="Rectángulo 36804" width="0.595" height="5.821" transform="translate(28.687 0.004)" fill="#ffa412"/>
                <rect id="Rectángulo_36805" data-name="Rectángulo 36805" width="0.595" height="5.82" transform="translate(26.673 0.004)" fill="#ffa412"/>
                <rect id="Rectángulo_36806" data-name="Rectángulo 36806" width="0.595" height="5.82" transform="translate(24.258 0.003)" fill="#ffa412"/>
                <rect id="Rectángulo_36807" data-name="Rectángulo 36807" width="0.595" height="5.82" transform="translate(20.555 0.003)" fill="#ffa412"/>
                <rect id="Rectángulo_36808" data-name="Rectángulo 36808" width="0.595" height="5.82" transform="translate(16.64 0.002)" fill="#ffa412"/>
                <rect id="Rectángulo_36809" data-name="Rectángulo 36809" width="0.595" height="5.82" transform="translate(10.638 0.002)" fill="#ffa412"/>
                <rect id="Rectángulo_36810" data-name="Rectángulo 36810" width="0.595" height="5.82" transform="translate(5.018 0.001)" fill="#ffa412"/>
                <rect id="Rectángulo_36811" data-name="Rectángulo 36811" width="0.595" height="5.82" fill="#ffa412"/>
                <rect id="Rectángulo_36812" data-name="Rectángulo 36812" width="0.595" height="5.821" transform="translate(30.605 0.004)" fill="#ffa412"/>
                <rect id="Rectángulo_36813" data-name="Rectángulo 36813" width="0.595" height="5.82" transform="translate(31.871 0.005)" fill="#ffa412"/>
                <rect id="Rectángulo_36814" data-name="Rectángulo 36814" width="0.595" height="5.82" transform="translate(33.094 0.005)" fill="#ffa412"/>
                <path id="Trazado_135341" data-name="Trazado 135341" d="M1889.916,1762.625v5.78a1.231,1.231,0,0,1-.224.02h-.372V1762.6h.372A1.273,1.273,0,0,1,1889.916,1762.625Z" transform="translate(-1855.306 -1762.599)" fill="#ffa412"/>
                <path id="Trazado_135342" data-name="Trazado 135342" d="M1895,1763.605v4.7a1.275,1.275,0,0,1-.594.474v-5.649A1.275,1.275,0,0,1,1895,1763.605Z" transform="translate(-1859.565 -1763.041)" fill="#ffa412"/>
              </g>
            </g>
            <g id="Grupo_105396" data-name="Grupo 105396" transform="translate(136.546 249.526)">
              <path id="Trazado_135343" data-name="Trazado 135343" d="M1581.458,1728.036v3.287a1.255,1.255,0,0,1-.218.707,1.275,1.275,0,0,1-.594.474,1.168,1.168,0,0,1-.232.065,1.225,1.225,0,0,1-.223.02l-52.357-.008a1.27,1.27,0,0,1-1.265-1.2c0-.022,0-.043,0-.065v-3.287c0-.022,0-.043,0-.065a1.271,1.271,0,0,1,1.116-1.192,1.136,1.136,0,0,1,.149-.009l52.357.008a1.252,1.252,0,0,1,.223.02,1.192,1.192,0,0,1,.231.065,1.275,1.275,0,0,1,.594.474A1.255,1.255,0,0,1,1581.458,1728.036Z" transform="translate(-1526.568 -1726.761)" fill="#ffb93e"/>
              <path id="Trazado_135344" data-name="Trazado 135344" d="M1555.748,1732.585l-28.049,0a1.2,1.2,0,0,1-1.129-1.2c0-.022,0-.043,0-.065v-3.287c0-.022,0-.043,0-.065a1.222,1.222,0,0,1,1-1.192.945.945,0,0,1,.134-.009l24.6,0a.042.042,0,0,0,0,.009A10.426,10.426,0,0,0,1555.748,1732.585Z" transform="translate(-1526.568 -1726.761)" fill="#ffa412"/>
              <g id="Grupo_105395" data-name="Grupo 105395" transform="translate(19.237 0.003)">
                <rect id="Rectángulo_36815" data-name="Rectángulo 36815" width="0.595" height="5.82" transform="translate(28.688 0.004)" fill="#ffa412"/>
                <rect id="Rectángulo_36816" data-name="Rectángulo 36816" width="0.595" height="5.82" transform="translate(26.673 0.004)" fill="#ffa412"/>
                <rect id="Rectángulo_36817" data-name="Rectángulo 36817" width="0.595" height="5.82" transform="translate(24.258 0.004)" fill="#ffa412"/>
                <rect id="Rectángulo_36818" data-name="Rectángulo 36818" width="0.595" height="5.821" transform="translate(20.555 0.003)" fill="#ffa412"/>
                <rect id="Rectángulo_36819" data-name="Rectángulo 36819" width="0.595" height="5.82" transform="translate(16.64 0.002)" fill="#ffa412"/>
                <rect id="Rectángulo_36820" data-name="Rectángulo 36820" width="0.595" height="5.82" transform="translate(10.638 0.002)" fill="#ffa412"/>
                <rect id="Rectángulo_36821" data-name="Rectángulo 36821" width="0.595" height="5.821" transform="translate(5.018 0.001)" fill="#ffa412"/>
                <rect id="Rectángulo_36822" data-name="Rectángulo 36822" width="0.595" height="5.821" fill="#ffa412"/>
                <rect id="Rectángulo_36823" data-name="Rectángulo 36823" width="0.595" height="5.821" transform="translate(30.605 0.004)" fill="#ffa412"/>
                <rect id="Rectángulo_36824" data-name="Rectángulo 36824" width="0.595" height="5.821" transform="translate(31.872 0.005)" fill="#ffa412"/>
                <rect id="Rectángulo_36825" data-name="Rectángulo 36825" width="0.595" height="5.82" transform="translate(33.095 0.005)" fill="#ffa412"/>
                <path id="Trazado_135345" data-name="Trazado 135345" d="M1854.681,1726.828v5.78a1.246,1.246,0,0,1-.223.02h-.372v-5.82h.372A1.219,1.219,0,0,1,1854.681,1726.828Z" transform="translate(-1820.07 -1726.802)" fill="#ffa412"/>
                <path id="Trazado_135346" data-name="Trazado 135346" d="M1859.767,1727.807v4.7a1.275,1.275,0,0,1-.595.474v-5.65A1.275,1.275,0,0,1,1859.767,1727.807Z" transform="translate(-1824.331 -1727.243)" fill="#ffa412"/>
              </g>
            </g>
            <g id="Grupo_105398" data-name="Grupo 105398" transform="translate(142.009 243.713)">
              <path id="Trazado_135347" data-name="Trazado 135347" d="M1615.06,1692.29v3.287a1.254,1.254,0,0,1-.217.707,1.274,1.274,0,0,1-.595.474,1.191,1.191,0,0,1-.231.065l-.073.011-.042,0-.041,0-.067,0-52.356-.008a1.271,1.271,0,0,1-1.265-1.2c0-.022,0-.044,0-.065v-3.287c0-.021,0-.043,0-.065s0-.035,0-.053a1.274,1.274,0,0,1,.95-1.109l.038-.009a1.275,1.275,0,0,1,.274-.03l52.356.008c.038,0,.076,0,.114,0l.05.006h0l.059.01a1.193,1.193,0,0,1,.232.066,1.274,1.274,0,0,1,.595.474A1.253,1.253,0,0,1,1615.06,1692.29Z" transform="translate(-1560.169 -1691.015)" fill="#ffb93e"/>
              <path id="Trazado_135348" data-name="Trazado 135348" d="M1589.349,1696.839l-28.049,0a1.2,1.2,0,0,1-1.129-1.2c0-.022,0-.044,0-.065v-3.287c0-.022,0-.043,0-.065s0-.036,0-.053a1.234,1.234,0,0,1,.878-1.117l.048-.011a1.014,1.014,0,0,1,.2-.02l24.6,0c0,.014.007.027.01.041a10.413,10.413,0,0,0,3.423,5.771Z" transform="translate(-1560.169 -1691.014)" fill="#ffa412"/>
              <g id="Grupo_105397" data-name="Grupo 105397" transform="translate(19.237 0.003)">
                <rect id="Rectángulo_36826" data-name="Rectángulo 36826" width="0.595" height="5.82" transform="translate(28.687 0.004)" fill="#ffa412"/>
                <rect id="Rectángulo_36827" data-name="Rectángulo 36827" width="0.595" height="5.82" transform="translate(26.673 0.004)" fill="#ffa412"/>
                <rect id="Rectángulo_36828" data-name="Rectángulo 36828" width="0.595" height="5.821" transform="translate(24.258 0.004)" fill="#ffa412"/>
                <rect id="Rectángulo_36829" data-name="Rectángulo 36829" width="0.595" height="5.82" transform="translate(20.555 0.003)" fill="#ffa412"/>
                <rect id="Rectángulo_36830" data-name="Rectángulo 36830" width="0.595" height="5.821" transform="translate(16.64 0.002)" fill="#ffa412"/>
                <rect id="Rectángulo_36831" data-name="Rectángulo 36831" width="0.595" height="5.82" transform="translate(10.638 0.002)" fill="#ffa412"/>
                <rect id="Rectángulo_36832" data-name="Rectángulo 36832" width="0.595" height="5.82" transform="translate(5.018 0.001)" fill="#ffa412"/>
                <rect id="Rectángulo_36833" data-name="Rectángulo 36833" width="0.595" height="5.821" fill="#ffa412"/>
                <rect id="Rectángulo_36834" data-name="Rectángulo 36834" width="0.595" height="5.82" transform="translate(30.605 0.005)" fill="#ffa412"/>
                <rect id="Rectángulo_36835" data-name="Rectángulo 36835" width="0.595" height="5.821" transform="translate(31.871 0.005)" fill="#ffa412"/>
                <rect id="Rectángulo_36836" data-name="Rectángulo 36836" width="0.595" height="5.82" transform="translate(33.095 0.005)" fill="#ffa412"/>
                <path id="Trazado_135349" data-name="Trazado 135349" d="M1888.282,1691.08v5.78a1.246,1.246,0,0,1-.224.02h-.372v-5.821h.372A1.193,1.193,0,0,1,1888.282,1691.08Z" transform="translate(-1853.672 -1691.055)" fill="#ffa412"/>
                <path id="Trazado_135350" data-name="Trazado 135350" d="M1893.369,1692.061v4.7a1.276,1.276,0,0,1-.594.474v-5.65A1.275,1.275,0,0,1,1893.369,1692.061Z" transform="translate(-1857.933 -1691.497)" fill="#ffa412"/>
              </g>
            </g>
            <rect id="Rectángulo_36837" data-name="Rectángulo 36837" width="22.426" height="1.901" transform="translate(11.775 255.063)" fill="#ffa412"/>
            <rect id="Rectángulo_36838" data-name="Rectángulo 36838" width="19.128" height="8.574" transform="translate(143.148 249.379)" fill="#ffa412"/>
            <path id="Trazado_135351" data-name="Trazado 135351" d="M1666.834,1757.019l1.253,1.151-.175,1.668-7.333-.213-.7-3.1Z" transform="translate(-1501.66 -1502.156)" fill="#ffa412"/>
            <g id="Grupo_105399" data-name="Grupo 105399" transform="translate(12.947 100.263)">
              <path id="Trazado_135352" data-name="Trazado 135352" d="M909.227,813.451c-.014-.383-.31-4.5-6.589-4.72a6.719,6.719,0,0,1,3.432,1.586s-1.913-1.538-3.626-1-2.718,3.539-2.728,4.526.941,4.167,2.028,4.438a3.322,3.322,0,0,0,1.316,0,14.87,14.87,0,0,0-.843,1.505c-2.506,5.143.078,10.17,2.2,9.615,1.36-.356,1.745,1.965,1.745,1.965l13.217-10.7S914.524,810.624,909.227,813.451Z" transform="translate(-878.038 -808.731)" fill="#2c3a64"/>
              <path id="Trazado_135353" data-name="Trazado 135353" d="M1346.634,1325.057l.3,1.94c10.288,26.71,3.142,74.254,3.371,75.011l42.83.056C1379.852,1339.508,1346.634,1325.057,1346.634,1325.057Z" transform="translate(-1252.291 -1241.107)" fill="#afcdfb" opacity="0.5"/>
              <path id="Trazado_135354" data-name="Trazado 135354" d="M867.628,1320.4l-2.807,1.045s-12.194-16.912-13.695-31.791a22.594,22.594,0,0,1,.4-7.607s-.119-.681-.328-1.884c-.1-.562-.215-1.238-.351-2.012-.4-2.271-.942-5.38-1.565-8.918-1.435-8.144-3.294-18.554-4.738-26.207l.756-.243,8.185-2.64,1.691-5.373,6.094-1.6s1.361,2.663,2.578,15.244c.225,1.65.429,3.47.582,5.444a107.7,107.7,0,0,1-.58,22.037q-.419,3.28-1.07,6.764a30.152,30.152,0,0,0-.234,6.679C863.163,1301.5,867.628,1320.4,867.628,1320.4Z" transform="translate(-831.837 -1164.159)" fill="#2b478b"/>
              <path id="Trazado_135355" data-name="Trazado 135355" d="M864.433,1253.856l-13.234,26.31c-.1-.562-.215-1.238-.351-2.012-.4-2.271-.942-5.38-1.565-8.918-1.435-8.144-3.294-18.554-4.738-26.207l.756-.243,8.185-2.64,1.691-5.373,6.094-1.6s1.361,2.663,2.578,15.244C864.075,1250.062,864.279,1251.882,864.433,1253.856Z" transform="translate(-831.837 -1164.159)" fill="#233862"/>
              <path id="Trazado_135356" data-name="Trazado 135356" d="M795.615,1220.783l-.306-2.627c-5.133,1.363-18.846-3.809-18.846-3.809s-4.972,4.371-4.319,14.848c.319,5.113.9,26.844,1.509,33.274.22,2.33.412,3.989.491,4.651a.013.013,0,0,1,0,.006.92.92,0,0,1-.149.569,30.2,30.2,0,0,0-2.244,4.719c-5.967,15.9.919,35.481.919,35.481l1.787-.72s3.919-21.791,7.1-31.418a19.069,19.069,0,0,1,1.534-3.682,41.58,41.58,0,0,0,3.835-10.227,251.494,251.494,0,0,0,5.158-27.13C792.248,1234.724,795.615,1220.783,795.615,1220.783Z" transform="translate(-768.841 -1148.397)" fill="#2b478b"/>
              <path id="Trazado_135357" data-name="Trazado 135357" d="M972.408,1026.719a8.885,8.885,0,0,1,1.572-3.144,1.6,1.6,0,0,1,.3-.361,7.337,7.337,0,0,1,2.018-1.721c.51-.213,1.062.043,1.636.659v.021a9.743,9.743,0,0,1,1.466,2.167c.021.021.043.043.043.064.106.191.213.4.34.637a.549.549,0,0,1,.085.149q.351.733.7,1.53c2.613,5.694,5.4,14.32,7.712,16.89,1,1.1,5.567,3.272,9.2,4.887,2.613,1.147,4.738,2,4.738,2s2.619-.511,3.218,0,3.439,3.4,2.831,4.344-3.524-.784-4.13-.948-2.3-.825-2.3-.825-.17,0-.467-.021c-.935-.064-3.208-.191-5.779-.468-3.867-.382-8.456-1.062-10.283-2.188-2.783-1.7-7.351-6.905-10.325-12.11a3.459,3.459,0,0,1-.212-.382c-1.551-2.762-2.635-5.5-2.719-7.691A10.98,10.98,0,0,1,972.408,1026.719Z" transform="translate(-938.596 -986.838)" fill="#ffb27d"/>
              <path id="Trazado_135358" data-name="Trazado 135358" d="M903.276,959.555a15.981,15.981,0,0,1-5.911,1.384c-8.824.484-10.827-7.252-11.192-12.386a7.4,7.4,0,0,1,3.028-.383c.626.035,1.279.1,1.818.165,1.079-.564,3.018-3.3,4.139-7.885l.38.177,6.367,2.993s-.676,2.072-1.176,4.055c-.39,1.552-.67,3.051-.436,3.47.5.2.8.332.8.332a.018.018,0,0,0,0,.007A43.71,43.71,0,0,1,903.276,959.555Z" transform="translate(-866.696 -919.035)" fill="#ffb27d"/>
              <path id="Trazado_135359" data-name="Trazado 135359" d="M950.137,944.537s-.677,2.07-1.176,4.054c-3.722-1.038-4.852-4.951-5.192-7.048Z" transform="translate(-914.928 -919.95)" fill="#ed985f"/>
              <path id="Trazado_135360" data-name="Trazado 135360" d="M948.206,890.029s-8.9-2.061-7.536-7.586,1.142-9.512,6.884-8.43,6.321,3.463,6.313,5.418S950.557,890.423,948.206,890.029Z" transform="translate(-912.213 -863.25)" fill="#ffb27d"/>
              <path id="Trazado_135361" data-name="Trazado 135361" d="M942.84,865.527c-.957-2-2.084-1.9-2.788-1.541-4.184-3.871-11.2-2.9-11.2-2.9a34.645,34.645,0,0,0-2.095,7.568s1.368,1.4,5.333,1.37a6.526,6.526,0,0,0,3.536-1.332,21.307,21.307,0,0,1-4.643,3.463c4.963-.95,8.291-6.7,8.632-7.305a7.16,7.16,0,0,1,1.292,3.058c.092,1.517-.43,4.462.439,4.573C941.35,872.48,944.275,868.53,942.84,865.527Z" transform="translate(-900.685 -852.482)" fill="#2c3a64"/>
              <path id="Trazado_135362" data-name="Trazado 135362" d="M834.369,997.8a44.732,44.732,0,0,0-2.172-4.184,2.888,2.888,0,0,0-.879-.961,22.828,22.828,0,0,0-4.541-2.283.017.017,0,0,0,0,.007c.059.22,1.666,6.039,1.079,7.281-.6,1.263-11.875-2.815-12.491-3.745-.493-.747-.507-4.7-.493-6.234,0-.383.007-.617.007-.617s-4.21-.571-6.578.387a18.212,18.212,0,0,1,1.279,4.27c.032.213.06.426.08.64a8.553,8.553,0,0,1,.034,1.344,2.565,2.565,0,0,1-.814,1.6,12.431,12.431,0,0,1-1.7,1.407c-.438.316-.908.649-1.394,1.009h0a113.812,113.812,0,0,1-.343,11.6,7.832,7.832,0,0,1-1.128,3.292,7.918,7.918,0,0,1-.834,1.123c-2.487,2.789-6.9,8.349-5.927,11.81.071,3.264,27.6,7.552,27.011,3.968,0,0,4.137-19.938,6.372-24.751.08-.177.154-.348.22-.525a11.259,11.259,0,0,0,.353-5.6A5.155,5.155,0,0,1,834.369,997.8Z" transform="translate(-792.376 -957.924)" fill="#699dee"/>
              <path id="Trazado_135363" data-name="Trazado 135363" d="M852.689,1066.128c-5.43-.057-10.028-5.7-12.837-10.2a7.833,7.833,0,0,0,1.128-3.291,113.826,113.826,0,0,0,.344-11.6h0c.486-.36.956-.692,1.394-1.009a12.429,12.429,0,0,0,1.7-1.407C848.859,1046.136,860.05,1066.206,852.689,1066.128Z" transform="translate(-827.906 -1001.242)" fill="#4a75cb"/>
              <path id="Trazado_135364" data-name="Trazado 135364" d="M780.6,1757.636h-14.14a7.759,7.759,0,0,1,.4-3.79c.708-1.569,1.816-2.282,1.551-4.18a5.093,5.093,0,0,0,4.407,1.686,15.526,15.526,0,0,0,2.454,3.18C776.2,1755.2,780.317,1754.96,780.6,1757.636Z" transform="translate(-766.384 -1596.679)" fill="#233862"/>
              <path id="Trazado_135365" data-name="Trazado 135365" d="M966.951,1760.9H952.812a5.875,5.875,0,0,1,.4-3.79c.822-1.358.507-2.131-.1-3.255a5.494,5.494,0,0,0,2.381.448,4.979,4.979,0,0,0,2.1-.74,50.811,50.811,0,0,0,4.028,4.232C962.547,1758.461,966.667,1758.225,966.951,1760.9Z" transform="translate(-922.375 -1599.944)" fill="#233862"/>
              <path id="Trazado_135366" data-name="Trazado 135366" d="M1047.713,1218.717l3.36-8.2a2.273,2.273,0,0,1,2.7-1.324,14.005,14.005,0,0,1,4.384-4.987,10.432,10.432,0,0,1,5.917-1.947,8.384,8.384,0,0,1,3.158.625c4.778,1.958,6.918,7.995,5.166,13.922l.261.107s.817-.057,2.186-.057c4.327,0,14.163.575,21.065,5.368a1.906,1.906,0,0,1,.451,1.167,1.832,1.832,0,0,1-.146.773s-11.078-7.173-21.324.2q-.944.676-1.834,1.257l-.919,2.243a7.327,7.327,0,0,1-9.532,3.99l-9.384-3.846-1.955-.8A6.526,6.526,0,0,1,1047.713,1218.717Zm18.192-6.644,3.822,1.568a2.239,2.239,0,0,1,1.317,2.615l.41.168c1.555-5.4-.342-10.847-4.608-12.6a7.208,7.208,0,0,0-1.838-.486,8.911,8.911,0,0,0-5.852,1.418,12.873,12.873,0,0,0-4.431,4.806l.564.231a2.243,2.243,0,0,1,2.772-.939l3.824,1.568a1.891,1.891,0,0,1,2.461-1.032l.529.218A1.891,1.891,0,0,1,1065.906,1212.073Z" transform="translate(-1001.566 -1138.278)" fill="#c94c43"/>
              <path id="Trazado_135367" data-name="Trazado 135367" d="M1204.165,1316.455q.891-.582,1.834-1.257c10.246-7.372,21.324-.2,21.324-.2a1.83,1.83,0,0,0,.146-.773,21.377,21.377,0,0,0-14.564-3.258C1204.466,1312.33,1202.939,1313.5,1204.165,1316.455Z" transform="translate(-1132.674 -1229.11)" fill="#b23b38"/>
              <path id="Trazado_135368" data-name="Trazado 135368" d="M1051.267,1227.208l1.955.8c-2.931-1.6.7-8.362,2.823-12.827s5.335-2.423,5.335-2.423a2.554,2.554,0,0,1,2.313-1.416,1.783,1.783,0,0,1,1.182-1.731l-.529-.218a1.891,1.891,0,0,0-2.461,1.032l-3.824-1.568a2.243,2.243,0,0,0-2.772.939l-.564-.231a12.873,12.873,0,0,1,4.431-4.806,8.911,8.911,0,0,1,5.852-1.418,4.153,4.153,0,0,1-.934-1.08,10.432,10.432,0,0,0-5.917,1.947,14.005,14.005,0,0,0-4.384,4.987,2.273,2.273,0,0,0-2.7,1.324l-3.36,8.2A6.526,6.526,0,0,0,1051.267,1227.208Z" transform="translate(-1001.566 -1138.278)" fill="#b23b38"/>
              <path id="Trazado_135369" data-name="Trazado 135369" d="M845.2,996.872c.043-6.161,3.1-7.011,3.1-7.011.063-.021.127-.043.212-.064.531-.085,1.083.276,1.657.977a19.3,19.3,0,0,1,2.273,4.015c1.211,2.741,2.486,6.289,3.675,9.816.659,1.933,1.3,3.866,1.933,5.651.361,1.083.722,2.1,1.062,3.038a29.225,29.225,0,0,0,1.784,4.143,10.291,10.291,0,0,0,2.613,2.358,95.141,95.141,0,0,0,8.413,5.226c1.19.68,2.316,1.3,3.251,1.806.786.17,4.78,1.02,6.65.6,2.1-.489,5.63,2.039,5.63,2.039s.382.807-.977,1.36c-1.359.573-3.272,2.57-6.331,1.36a47.514,47.514,0,0,0-5.63-1.721c-.446-.085-.7-.148-.7-.148-1.19-.234-2.613-.552-4.164-.893h-.021c-2.656-.637-5.63-1.4-8.137-2.252a22.358,22.358,0,0,1-4.334-1.933,2.587,2.587,0,0,1-.3-.213c-2.485-1.806-5.439-7.117-7.733-12.811-.319-.786-.616-1.572-.914-2.337a58.085,58.085,0,0,1-2.422-8.073,22.8,22.8,0,0,1-.574-3.845A9.4,9.4,0,0,1,845.2,996.872Z" transform="translate(-832.377 -960.348)" fill="#ffb27d"/>
              <path id="Trazado_135370" data-name="Trazado 135370" d="M853.134,994.683c-4.09-1.128-7.938,1.777-7.938,1.777.051-6.151,3.113-6.993,3.113-6.993C849.842,988.585,851.662,991.378,853.134,994.683Z" transform="translate(-832.382 -959.943)" fill="#699dee"/>
            </g>
            <g id="Grupo_105401" data-name="Grupo 105401" transform="translate(70.579 255.338)">
              <path id="Trazado_135371" data-name="Trazado 135371" d="M1175.734,1763.783v3.287a1.251,1.251,0,0,1-.217.707,1.273,1.273,0,0,1-.594.474,1.171,1.171,0,0,1-.232.065,1.251,1.251,0,0,1-.224.02l-52.356-.008a1.271,1.271,0,0,1-1.265-1.2c0-.022,0-.043,0-.065v-3.287c0-.022,0-.043,0-.065a1.272,1.272,0,0,1,1.116-1.192,1.168,1.168,0,0,1,.15-.009l52.356.008a1.258,1.258,0,0,1,.224.02,1.179,1.179,0,0,1,.232.065,1.271,1.271,0,0,1,.594.474A1.252,1.252,0,0,1,1175.734,1763.783Z" transform="translate(-1120.844 -1762.508)" fill="#ffb93e"/>
              <path id="Trazado_135372" data-name="Trazado 135372" d="M1150.024,1768.333l-28.049,0a1.2,1.2,0,0,1-1.129-1.2c0-.022,0-.043,0-.065v-3.287c0-.021,0-.043,0-.065a1.222,1.222,0,0,1,1-1.193.934.934,0,0,1,.134-.009l24.6,0a.06.06,0,0,1,0,.009A10.426,10.426,0,0,0,1150.024,1768.333Z" transform="translate(-1120.844 -1762.509)" fill="#ffa412"/>
              <g id="Grupo_105400" data-name="Grupo 105400" transform="translate(19.237 0.003)">
                <rect id="Rectángulo_36839" data-name="Rectángulo 36839" width="0.595" height="5.82" transform="translate(28.687 0.004)" fill="#ffa412"/>
                <rect id="Rectángulo_36840" data-name="Rectángulo 36840" width="0.595" height="5.82" transform="translate(26.673 0.004)" fill="#ffa412"/>
                <rect id="Rectángulo_36841" data-name="Rectángulo 36841" width="0.595" height="5.82" transform="translate(24.258 0.004)" fill="#ffa412"/>
                <rect id="Rectángulo_36842" data-name="Rectángulo 36842" width="0.595" height="5.82" transform="translate(20.555 0.003)" fill="#ffa412"/>
                <rect id="Rectángulo_36843" data-name="Rectángulo 36843" width="0.595" height="5.82" transform="translate(16.64 0.003)" fill="#ffa412"/>
                <rect id="Rectángulo_36844" data-name="Rectángulo 36844" width="0.595" height="5.82" transform="translate(10.638 0.002)" fill="#ffa412"/>
                <rect id="Rectángulo_36845" data-name="Rectángulo 36845" width="0.595" height="5.821" transform="translate(5.018 0.001)" fill="#ffa412"/>
                <rect id="Rectángulo_36846" data-name="Rectángulo 36846" width="0.595" height="5.821" fill="#ffa412"/>
                <rect id="Rectángulo_36847" data-name="Rectángulo 36847" width="0.595" height="5.82" transform="translate(30.605 0.005)" fill="#ffa412"/>
                <rect id="Rectángulo_36848" data-name="Rectángulo 36848" width="0.595" height="5.82" transform="translate(31.871 0.005)" fill="#ffa412"/>
                <rect id="Rectángulo_36849" data-name="Rectángulo 36849" width="0.595" height="5.821" transform="translate(33.094 0.005)" fill="#ffa412"/>
                <path id="Trazado_135373" data-name="Trazado 135373" d="M1448.959,1762.574v5.78a1.246,1.246,0,0,1-.223.02h-.372v-5.821h.372A1.273,1.273,0,0,1,1448.959,1762.574Z" transform="translate(-1414.349 -1762.549)" fill="#ffa412"/>
                <path id="Trazado_135374" data-name="Trazado 135374" d="M1454.045,1763.556v4.7a1.272,1.272,0,0,1-.594.474v-5.649A1.273,1.273,0,0,1,1454.045,1763.556Z" transform="translate(-1418.609 -1762.992)" fill="#ffa412"/>
              </g>
            </g>
            <g id="Grupo_105403" data-name="Grupo 105403" transform="translate(61.378 249.525)">
              <path id="Trazado_135375" data-name="Trazado 135375" d="M1119.144,1728.035v3.287a1.253,1.253,0,0,1-.217.707,1.274,1.274,0,0,1-.595.474,1.188,1.188,0,0,1-.232.065l-.074.011-.058.006-.03,0h-.061l-52.357-.008a1.271,1.271,0,0,1-1.265-1.2c0-.022,0-.043,0-.065v-3.287c0-.022,0-.043,0-.065a1.271,1.271,0,0,1,1.266-1.2l52.356.008.067,0a1.251,1.251,0,0,1,.156.018,1.155,1.155,0,0,1,.232.065,1.056,1.056,0,0,1,.11.049c.022.011.044.022.065.035l.007,0c.022.012.043.026.064.04l.01.007a.592.592,0,0,1,.057.041,1.1,1.1,0,0,1,.126.11.46.46,0,0,1,.035.037l.007.007.022.024,0,0,.037.046c.018.023.034.045.051.069A1.252,1.252,0,0,1,1119.144,1728.035Z" transform="translate(-1064.254 -1726.76)" fill="#ffb93e"/>
              <path id="Trazado_135376" data-name="Trazado 135376" d="M1093.434,1732.585l-28.049,0a1.2,1.2,0,0,1-1.129-1.2c0-.022,0-.043,0-.065v-3.287c0-.022,0-.043,0-.065a1.2,1.2,0,0,1,1.13-1.2l24.6,0c.01.044.021.089.032.134a10.379,10.379,0,0,0,3.4,5.677Z" transform="translate(-1064.254 -1726.76)" fill="#ffa412"/>
              <g id="Grupo_105402" data-name="Grupo 105402" transform="translate(19.237 0.003)">
                <rect id="Rectángulo_36850" data-name="Rectángulo 36850" width="0.595" height="5.821" transform="translate(28.687 0.004)" fill="#ffa412"/>
                <rect id="Rectángulo_36851" data-name="Rectángulo 36851" width="0.595" height="5.82" transform="translate(26.673 0.004)" fill="#ffa412"/>
                <rect id="Rectángulo_36852" data-name="Rectángulo 36852" width="0.595" height="5.821" transform="translate(24.258 0.004)" fill="#ffa412"/>
                <rect id="Rectángulo_36853" data-name="Rectángulo 36853" width="0.595" height="5.821" transform="translate(20.555 0.003)" fill="#ffa412"/>
                <rect id="Rectángulo_36854" data-name="Rectángulo 36854" width="0.595" height="5.821" transform="translate(16.64 0.002)" fill="#ffa412"/>
                <rect id="Rectángulo_36855" data-name="Rectángulo 36855" width="0.595" height="5.821" transform="translate(10.638 0.002)" fill="#ffa412"/>
                <rect id="Rectángulo_36856" data-name="Rectángulo 36856" width="0.595" height="5.82" transform="translate(5.018 0.001)" fill="#ffa412"/>
                <rect id="Rectángulo_36857" data-name="Rectángulo 36857" width="0.595" height="5.82" fill="#ffa412"/>
                <rect id="Rectángulo_36858" data-name="Rectángulo 36858" width="0.595" height="5.82" transform="translate(30.605 0.005)" fill="#ffa412"/>
                <rect id="Rectángulo_36859" data-name="Rectángulo 36859" width="0.595" height="5.82" transform="translate(31.871 0.005)" fill="#ffa412"/>
                <rect id="Rectángulo_36860" data-name="Rectángulo 36860" width="0.595" height="5.82" transform="translate(33.095 0.005)" fill="#ffa412"/>
                <path id="Trazado_135377" data-name="Trazado 135377" d="M1392.369,1726.827v5.78a1.262,1.262,0,0,1-.224.02h-.372v-5.82h.372A1.263,1.263,0,0,1,1392.369,1726.827Z" transform="translate(-1357.759 -1726.802)" fill="#ffa412"/>
                <path id="Trazado_135378" data-name="Trazado 135378" d="M1397.455,1727.807v4.7a1.273,1.273,0,0,1-.595.474v-5.65A1.277,1.277,0,0,1,1397.455,1727.807Z" transform="translate(-1362.018 -1727.243)" fill="#ffa412"/>
              </g>
            </g>
            <g id="Grupo_105405" data-name="Grupo 105405" transform="translate(68.48 243.84)">
              <path id="Trazado_135379" data-name="Trazado 135379" d="M1162.825,1693.066v3.287a1.255,1.255,0,0,1-.217.708,1.277,1.277,0,0,1-.594.474,1.225,1.225,0,0,1-.232.065,1.307,1.307,0,0,1-.223.02l-52.357-.008a1.255,1.255,0,0,1-.566-.135,1.272,1.272,0,0,1-.7-1.016c0-.017,0-.034,0-.052s0-.043,0-.065v-3.287c0-.022,0-.044,0-.065a1.272,1.272,0,0,1,1.116-1.193,1.16,1.16,0,0,1,.15-.009l52.357.008a1.25,1.25,0,0,1,.223.021,1.182,1.182,0,0,1,.231.065,1.273,1.273,0,0,1,.595.474A1.254,1.254,0,0,1,1162.825,1693.066Z" transform="translate(-1107.935 -1691.791)" fill="#ffb93e"/>
              <path id="Trazado_135380" data-name="Trazado 135380" d="M1137.115,1697.616l-28.049,0a1.018,1.018,0,0,1-.505-.135,1.28,1.28,0,0,1-.621-1.015c0-.017,0-.034,0-.052s0-.043,0-.065v-3.287c0-.022,0-.044,0-.065a1.222,1.222,0,0,1,1-1.193.977.977,0,0,1,.134-.009l24.6,0a.065.065,0,0,0,0,.009,10.48,10.48,0,0,0,3.28,5.677Q1137.033,1697.549,1137.115,1697.616Z" transform="translate(-1107.935 -1691.791)" fill="#ffa412"/>
              <g id="Grupo_105404" data-name="Grupo 105404" transform="translate(19.237 0.003)">
                <rect id="Rectángulo_36861" data-name="Rectángulo 36861" width="0.595" height="5.82" transform="translate(28.688 0.004)" fill="#ffa412"/>
                <rect id="Rectángulo_36862" data-name="Rectángulo 36862" width="0.595" height="5.82" transform="translate(26.673 0.004)" fill="#ffa412"/>
                <rect id="Rectángulo_36863" data-name="Rectángulo 36863" width="0.595" height="5.821" transform="translate(24.258 0.003)" fill="#ffa412"/>
                <rect id="Rectángulo_36864" data-name="Rectángulo 36864" width="0.595" height="5.82" transform="translate(20.555 0.003)" fill="#ffa412"/>
                <rect id="Rectángulo_36865" data-name="Rectángulo 36865" width="0.595" height="5.821" transform="translate(16.64 0.002)" fill="#ffa412"/>
                <rect id="Rectángulo_36866" data-name="Rectángulo 36866" width="0.595" height="5.82" transform="translate(10.638 0.002)" fill="#ffa412"/>
                <rect id="Rectángulo_36867" data-name="Rectángulo 36867" width="0.595" height="5.82" transform="translate(5.018 0.001)" fill="#ffa412"/>
                <rect id="Rectángulo_36868" data-name="Rectángulo 36868" width="0.595" height="5.82" fill="#ffa412"/>
                <rect id="Rectángulo_36869" data-name="Rectángulo 36869" width="0.595" height="5.82" transform="translate(30.605 0.004)" fill="#ffa412"/>
                <rect id="Rectángulo_36870" data-name="Rectángulo 36870" width="0.595" height="5.82" transform="translate(31.872 0.005)" fill="#ffa412"/>
                <rect id="Rectángulo_36871" data-name="Rectángulo 36871" width="0.595" height="5.821" transform="translate(33.095 0.005)" fill="#ffa412"/>
                <path id="Trazado_135381" data-name="Trazado 135381" d="M1436.048,1691.858v5.78a1.272,1.272,0,0,1-.223.02h-.372v-5.821h.372A1.2,1.2,0,0,1,1436.048,1691.858Z" transform="translate(-1401.438 -1691.832)" fill="#ffa412"/>
                <path id="Trazado_135382" data-name="Trazado 135382" d="M1441.134,1692.837v4.7a1.271,1.271,0,0,1-.594.474v-5.65A1.275,1.275,0,0,1,1441.134,1692.837Z" transform="translate(-1405.698 -1692.273)" fill="#ffa412"/>
              </g>
            </g>
            <g id="Grupo_105407" data-name="Grupo 105407" transform="translate(64.632 238.028)">
              <path id="Trazado_135383" data-name="Trazado 135383" d="M1139.156,1657.32v3.287a1.256,1.256,0,0,1-.217.707,1.271,1.271,0,0,1-.595.474,1.183,1.183,0,0,1-.232.065c-.025,0-.049.008-.073.011l-.041,0-.041,0-.068,0-52.356-.008a1.271,1.271,0,0,1-1.265-1.2c0-.022,0-.043,0-.065v-3.287c0-.022,0-.044,0-.065a1.271,1.271,0,0,1,1.266-1.2l52.357.008a1.28,1.28,0,0,1,.455.085,1.274,1.274,0,0,1,.594.474A1.251,1.251,0,0,1,1139.156,1657.32Z" transform="translate(-1084.266 -1656.045)" fill="#ffb93e"/>
              <path id="Trazado_135384" data-name="Trazado 135384" d="M1113.446,1661.87l-28.049,0a1.2,1.2,0,0,1-1.129-1.2c0-.022,0-.043,0-.065v-3.287c0-.022,0-.044,0-.065a1.2,1.2,0,0,1,1.13-1.2l24.6,0a10.433,10.433,0,0,0,3.432,5.812Z" transform="translate(-1084.266 -1656.045)" fill="#ffa412"/>
              <g id="Grupo_105406" data-name="Grupo 105406" transform="translate(19.237 0.003)">
                <rect id="Rectángulo_36872" data-name="Rectángulo 36872" width="0.595" height="5.82" transform="translate(28.688 0.004)" fill="#ffa412"/>
                <rect id="Rectángulo_36873" data-name="Rectángulo 36873" width="0.595" height="5.82" transform="translate(26.673 0.004)" fill="#ffa412"/>
                <rect id="Rectángulo_36874" data-name="Rectángulo 36874" width="0.595" height="5.821" transform="translate(24.258 0.004)" fill="#ffa412"/>
                <rect id="Rectángulo_36875" data-name="Rectángulo 36875" width="0.595" height="5.82" transform="translate(20.555 0.003)" fill="#ffa412"/>
                <rect id="Rectángulo_36876" data-name="Rectángulo 36876" width="0.595" height="5.82" transform="translate(16.64 0.003)" fill="#ffa412"/>
                <rect id="Rectángulo_36877" data-name="Rectángulo 36877" width="0.595" height="5.82" transform="translate(10.638 0.002)" fill="#ffa412"/>
                <rect id="Rectángulo_36878" data-name="Rectángulo 36878" width="0.595" height="5.82" transform="translate(5.018 0.001)" fill="#ffa412"/>
                <rect id="Rectángulo_36879" data-name="Rectángulo 36879" width="0.595" height="5.821" fill="#ffa412"/>
                <rect id="Rectángulo_36880" data-name="Rectángulo 36880" width="0.595" height="5.82" transform="translate(30.605 0.005)" fill="#ffa412"/>
                <rect id="Rectángulo_36881" data-name="Rectángulo 36881" width="0.595" height="5.82" transform="translate(31.872 0.005)" fill="#ffa412"/>
                <rect id="Rectángulo_36882" data-name="Rectángulo 36882" width="0.595" height="5.82" transform="translate(33.095 0.005)" fill="#ffa412"/>
                <path id="Trazado_135385" data-name="Trazado 135385" d="M1412.379,1656.112v5.78a1.221,1.221,0,0,1-.223.021h-.372v-5.821h.372A1.222,1.222,0,0,1,1412.379,1656.112Z" transform="translate(-1377.768 -1656.087)" fill="#ffa412"/>
                <path id="Trazado_135386" data-name="Trazado 135386" d="M1417.466,1657.092v4.7a1.273,1.273,0,0,1-.594.474v-5.65A1.272,1.272,0,0,1,1417.466,1657.092Z" transform="translate(-1382.03 -1656.528)" fill="#ffa412"/>
              </g>
            </g>
            <path id="Trazado_135387" data-name="Trazado 135387" d="M1116.36,1667.036l4.161-1.251-.7-3.893s-3.127-2.535-3.644-5.825l-20.654,5.149V1673h5.238v4.685h19.851v-4.3S1117.786,1672.827,1116.36,1667.036Z" transform="translate(-1029.063 -1418.036)" fill="#ffa412"/>
            <path id="Trazado_135388" data-name="Trazado 135388" d="M1387.946,1360.616s20.133,16.121,27.205,39.534C1415.151,1400.15,1410.331,1382.216,1387.946,1360.616Z" transform="translate(-1273.939 -1170.622)" fill="#fff"/>
            <path id="Trazado_135389" data-name="Trazado 135389" d="M1437.014,1475.768s10.035,26.666,10.241,45.648C1447.255,1521.416,1450.144,1508.449,1437.014,1475.768Z" transform="translate(-1315.029 -1267.051)" fill="#fff"/>
            <path id="Trazado_135390" data-name="Trazado 135390" d="M1396.27,1466.6s4.769,18.969,5.149,26.448C1401.419,1493.049,1401.69,1482.86,1396.27,1466.6Z" transform="translate(-1280.91 -1259.375)" fill="#fff"/>
            <path id="Trazado_135391" data-name="Trazado 135391" d="M981.551,950.949a8.137,8.137,0,0,1,2.943.708S983.048,952.754,981.551,950.949Z" transform="translate(-933.62 -827.563)" fill="#fff"/>
          </g>
        </g>
      </g>
    </g>
  </g>
</svg>
