<svg xmlns="http://www.w3.org/2000/svg" width="334.665" height="214.579" viewBox="0 0 334.665 214.579">
  <g id="Grupo_97463" data-name="Grupo 97463" transform="translate(-431.869 -624.396)">
    <g id="Grupo_97461" data-name="Grupo 97461" transform="translate(431.869 624.397)">
      <path id="Trazado_131176" data-name="Trazado 131176" d="M1513.66,833.327a125,125,0,1,0-185.244,0Z" transform="translate(-1231.243 -624.397)" fill="#a4dc88"/>
      <path id="Trazado_131177" data-name="Trazado 131177" d="M877.054,1957.239a70.84,70.84,0,1,0-106.024,0Z" transform="translate(-729.107 -1748.309)" fill="#c2e8b0"/>
      <ellipse id="Elipse_5213" data-name="Elipse 5213" cx="145.97" cy="7.839" rx="145.97" ry="7.839" transform="translate(19.983 198.901)" fill="#67c53a"/>
      <path id="Trazado_131178" data-name="Trazado 131178" d="M628.761,2933.638c-2.437-4.545-11.8-15.214-29.3-18.522-2.864-.542-9.223-1.743-11.528-.144-4.58,3.178,15.863,15.578,13.21,17.23-2.821,1.756-26.894-11.312-30.982-9.189-1.92,1,16.6,9.1,16.092,20.1a11.833,11.833,0,0,1-2.162,6.03h50S634.766,2944.838,628.761,2933.638Z" transform="translate(-559.66 -2742.475)" fill="#67c53a"/>
      <path id="Trazado_131179" data-name="Trazado 131179" d="M3420.539,2196.533h-64.394a3.33,3.33,0,0,1-3.326-3.326v-42.613a3.33,3.33,0,0,1,3.326-3.326h33.893a2.032,2.032,0,0,0,1.182-.376l7.844-5.562a3.307,3.307,0,0,1,1.924-.613h19.551a3.33,3.33,0,0,1,3.326,3.326v49.164A3.33,3.33,0,0,1,3420.539,2196.533Zm-64.394-47.983a2.046,2.046,0,0,0-2.044,2.044v42.613a2.046,2.046,0,0,0,2.044,2.044h64.394a2.046,2.046,0,0,0,2.043-2.044v-49.164a2.046,2.046,0,0,0-2.043-2.044h-19.551a2.035,2.035,0,0,0-1.182.376l-7.844,5.562a3.309,3.309,0,0,1-1.923.612Z" transform="translate(-3133.794 -2027.016)" fill="#85d161"/>
      <g id="Grupo_97443" data-name="Grupo 97443" transform="translate(265.556 144.638)">
        <path id="Trazado_131180" data-name="Trazado 131180" d="M4142.484,2567.251c.5,0,.9-.645.9-1.441v-11.059c0-.8-.4-1.44-.9-1.44h-25.5c-.5,0-.9.645-.9,1.44v11.059c0,.8.4,1.441.9,1.441h1.177v1.651h-1.177c-.5,0-.9.645-.9,1.441V2581.4c0,.8.4,1.44.9,1.44h1.177v1.787h-1.177c-.5,0-.9.645-.9,1.44v11.059c0,.8.4,1.441.9,1.441h1.178c0,.007,0,.013,0,.021v1.9h-1.177c-.5,0-.9.645-.9,1.44v11.059c0,.8.4,1.441.9,1.441h25.5c.5,0,.9-.645.9-1.441v-11.059c0-.8-.4-1.44-.9-1.44h-1.176v-1.9c0-.007,0-.014,0-.021h1.177c.5,0,.9-.645.9-1.441v-11.059c0-.8-.4-1.44-.9-1.44h-1.176v-1.787h1.176c.5,0,.9-.645.9-1.44v-11.059c0-.8-.4-1.441-.9-1.441h-1.176v-1.651Z" transform="translate(-4105.381 -2553.311)" fill="#9bb9dd"/>
        <rect id="Rectángulo_36285" data-name="Rectángulo 36285" width="23.146" height="4.137" rx="2.068" transform="translate(2.078 12.791)" fill="#36588e"/>
        <g id="Grupo_97439" data-name="Grupo 97439">
          <rect id="Rectángulo_36286" data-name="Rectángulo 36286" width="27.302" height="13.94" rx="1" fill="#c4d7f2"/>
          <rect id="Rectángulo_36287" data-name="Rectángulo 36287" width="1.867" height="10.693" rx="0.933" transform="translate(23.42 1.623)" fill="#ecf3fe"/>
          <rect id="Rectángulo_36288" data-name="Rectángulo 36288" width="1.867" height="10.693" rx="0.933" transform="translate(20.068 1.623)" fill="#ecf3fe"/>
          <rect id="Rectángulo_36289" data-name="Rectángulo 36289" width="1.867" height="10.693" rx="0.933" transform="translate(16.716 1.623)" fill="#ecf3fe"/>
          <rect id="Rectángulo_36290" data-name="Rectángulo 36290" width="1.867" height="10.693" rx="0.933" transform="translate(13.365 1.623)" fill="#ecf3fe"/>
          <rect id="Rectángulo_36291" data-name="Rectángulo 36291" width="4.37" height="1.152" rx="0.576" transform="translate(1.399 2.148)" fill="#1db562"/>
        </g>
        <rect id="Rectángulo_36292" data-name="Rectángulo 36292" width="23.146" height="4.137" rx="2.068" transform="translate(2.078 44.244)" fill="#36588e"/>
        <rect id="Rectángulo_36293" data-name="Rectángulo 36293" width="23.146" height="4.137" rx="2.068" transform="translate(2.078 28.382)" fill="#36588e"/>
        <g id="Grupo_97440" data-name="Grupo 97440" transform="translate(0 15.591)">
          <rect id="Rectángulo_36294" data-name="Rectángulo 36294" width="27.302" height="13.94" rx="1" fill="#c4d7f2"/>
          <rect id="Rectángulo_36295" data-name="Rectángulo 36295" width="1.867" height="10.693" rx="0.933" transform="translate(23.42 1.623)" fill="#ecf3fe"/>
          <rect id="Rectángulo_36296" data-name="Rectángulo 36296" width="1.867" height="10.693" rx="0.933" transform="translate(20.068 1.623)" fill="#ecf3fe"/>
          <rect id="Rectángulo_36297" data-name="Rectángulo 36297" width="1.867" height="10.693" rx="0.933" transform="translate(16.716 1.623)" fill="#ecf3fe"/>
          <rect id="Rectángulo_36298" data-name="Rectángulo 36298" width="1.867" height="10.693" rx="0.933" transform="translate(13.365 1.623)" fill="#ecf3fe"/>
          <rect id="Rectángulo_36299" data-name="Rectángulo 36299" width="4.37" height="1.152" rx="0.576" transform="translate(1.399 2.148)" fill="#1db562"/>
        </g>
        <g id="Grupo_97441" data-name="Grupo 97441" transform="translate(0 31.318)">
          <rect id="Rectángulo_36300" data-name="Rectángulo 36300" width="27.302" height="13.94" rx="1" fill="#c4d7f2"/>
          <rect id="Rectángulo_36301" data-name="Rectángulo 36301" width="1.867" height="10.693" rx="0.933" transform="translate(23.42 1.623)" fill="#ecf3fe"/>
          <rect id="Rectángulo_36302" data-name="Rectángulo 36302" width="1.867" height="10.693" rx="0.933" transform="translate(20.068 1.623)" fill="#ecf3fe"/>
          <rect id="Rectángulo_36303" data-name="Rectángulo 36303" width="1.867" height="10.693" rx="0.933" transform="translate(16.716 1.623)" fill="#ecf3fe"/>
          <rect id="Rectángulo_36304" data-name="Rectángulo 36304" width="1.867" height="10.693" rx="0.933" transform="translate(13.365 1.623)" fill="#ecf3fe"/>
          <rect id="Rectángulo_36305" data-name="Rectángulo 36305" width="4.37" height="1.152" rx="0.576" transform="translate(1.399 2.148)" fill="#1db562"/>
        </g>
        <g id="Grupo_97442" data-name="Grupo 97442" transform="translate(0 47.18)">
          <rect id="Rectángulo_36306" data-name="Rectángulo 36306" width="27.302" height="13.94" rx="1" fill="#c4d7f2"/>
          <rect id="Rectángulo_36307" data-name="Rectángulo 36307" width="1.867" height="10.693" rx="0.933" transform="translate(23.42 1.623)" fill="#ecf3fe"/>
          <rect id="Rectángulo_36308" data-name="Rectángulo 36308" width="1.867" height="10.693" rx="0.933" transform="translate(20.068 1.623)" fill="#ecf3fe"/>
          <rect id="Rectángulo_36309" data-name="Rectángulo 36309" width="1.867" height="10.693" rx="0.933" transform="translate(16.716 1.623)" fill="#ecf3fe"/>
          <rect id="Rectángulo_36310" data-name="Rectángulo 36310" width="1.867" height="10.693" rx="0.933" transform="translate(13.365 1.623)" fill="#ecf3fe"/>
          <rect id="Rectángulo_36311" data-name="Rectángulo 36311" width="4.37" height="1.152" rx="0.576" transform="translate(1.399 2.148)" fill="#1db562"/>
        </g>
        <rect id="Rectángulo_36312" data-name="Rectángulo 36312" width="10.703" height="1.787" transform="translate(25.224 29.531)" fill="#77a0c9"/>
        <rect id="Rectángulo_36313" data-name="Rectángulo 36313" width="10.703" height="1.651" transform="translate(25.224 13.94)" fill="#77a0c9"/>
        <rect id="Rectángulo_36314" data-name="Rectángulo 36314" width="10.701" height="1.922" transform="translate(25.224 45.258)" fill="#77a0c9"/>
      </g>
      <g id="Grupo_97444" data-name="Grupo 97444" transform="translate(128.973 176.446)">
        <path id="Trazado_131181" data-name="Trazado 131181" d="M2192.407,2996.266h-37.83a2.716,2.716,0,0,1-2.713-2.713v-13.336a2.716,2.716,0,0,1,2.713-2.713h37.83a2.716,2.716,0,0,1,2.713,2.713v13.336A2.716,2.716,0,0,1,2192.407,2996.266Zm-37.83-17.48a1.432,1.432,0,0,0-1.43,1.43v13.336a1.432,1.432,0,0,0,1.43,1.43h37.83a1.432,1.432,0,0,0,1.43-1.43v-13.336a1.432,1.432,0,0,0-1.43-1.43Z" transform="translate(-2151.865 -2977.504)" fill="#85d161"/>
        <rect id="Rectángulo_36315" data-name="Rectángulo 36315" width="2.958" height="14.06" transform="translate(25.261 6.564) rotate(-90)" fill="#85d161"/>
        <rect id="Rectángulo_36316" data-name="Rectángulo 36316" width="2.958" height="14.06" transform="translate(25.261 10.86) rotate(-90)" fill="#85d161"/>
        <rect id="Rectángulo_36317" data-name="Rectángulo 36317" width="2.958" height="14.06" transform="translate(25.261 15.156) rotate(-90)" fill="#85d161"/>
      </g>
      <g id="Grupo_97445" data-name="Grupo 97445" transform="translate(218.544 38.18)">
        <path id="Trazado_131182" data-name="Trazado 131182" d="M3386.935,1152.327H3349.1a2.716,2.716,0,0,1-2.713-2.713v-13.336a2.716,2.716,0,0,1,2.713-2.713h37.83a2.716,2.716,0,0,1,2.713,2.713v13.336A2.716,2.716,0,0,1,3386.935,1152.327Zm-37.83-17.48a1.432,1.432,0,0,0-1.43,1.43v13.336a1.432,1.432,0,0,0,1.43,1.43h37.83a1.432,1.432,0,0,0,1.431-1.43v-13.336a1.432,1.432,0,0,0-1.431-1.43Z" transform="translate(-3346.392 -1133.565)" fill="#85d161"/>
        <rect id="Rectángulo_36318" data-name="Rectángulo 36318" width="2.958" height="14.06" transform="translate(25.261 6.564) rotate(-90)" fill="#85d161"/>
        <rect id="Rectángulo_36319" data-name="Rectángulo 36319" width="2.958" height="14.06" transform="translate(25.261 10.86) rotate(-90)" fill="#85d161"/>
        <rect id="Rectángulo_36320" data-name="Rectángulo 36320" width="2.958" height="14.06" transform="translate(25.261 15.156) rotate(-90)" fill="#85d161"/>
      </g>
      <g id="Grupo_97446" data-name="Grupo 97446" transform="translate(252.874 84.402)">
        <path id="Trazado_131183" data-name="Trazado 131183" d="M3844.769,1768.759h-37.83a2.716,2.716,0,0,1-2.713-2.713V1752.71a2.716,2.716,0,0,1,2.713-2.713h37.83a2.716,2.716,0,0,1,2.713,2.713v13.337A2.716,2.716,0,0,1,3844.769,1768.759Zm-37.83-17.48a1.432,1.432,0,0,0-1.43,1.43v13.337a1.432,1.432,0,0,0,1.43,1.43h37.83a1.432,1.432,0,0,0,1.43-1.43V1752.71a1.432,1.432,0,0,0-1.43-1.43Z" transform="translate(-3804.226 -1749.997)" fill="#85d161"/>
        <rect id="Rectángulo_36321" data-name="Rectángulo 36321" width="2.958" height="14.06" transform="translate(25.261 6.564) rotate(-90)" fill="#85d161"/>
        <rect id="Rectángulo_36322" data-name="Rectángulo 36322" width="2.958" height="14.06" transform="translate(25.261 10.86) rotate(-90)" fill="#85d161"/>
        <rect id="Rectángulo_36323" data-name="Rectángulo 36323" width="2.958" height="14.06" transform="translate(25.261 15.156) rotate(-90)" fill="#85d161"/>
      </g>
      <path id="Trazado_131184" data-name="Trazado 131184" d="M2722.263,949.7h-64.394a3.33,3.33,0,0,1-3.326-3.326V903.758a3.33,3.33,0,0,1,3.326-3.326h33.893a2.033,2.033,0,0,0,1.182-.376l7.844-5.562a3.309,3.309,0,0,1,1.924-.613h19.551a3.33,3.33,0,0,1,3.326,3.326v49.165A3.33,3.33,0,0,1,2722.263,949.7Zm-64.394-47.983a2.046,2.046,0,0,0-2.043,2.044v42.614a2.046,2.046,0,0,0,2.043,2.044h64.394a2.046,2.046,0,0,0,2.044-2.044V897.207a2.046,2.046,0,0,0-2.044-2.044h-19.551a2.033,2.033,0,0,0-1.182.376l-7.844,5.562a3.309,3.309,0,0,1-1.924.613Z" transform="translate(-2487.877 -873.674)" fill="#85d161"/>
      <path id="Trazado_131185" data-name="Trazado 131185" d="M3279.08,1699.3l-2.979-3.52-1.838-2.173.817-.512-10.669-25.361,11.469-28.338,1.105-3.231,5.877-.173,1.915-43.471a1.662,1.662,0,0,0-.931-1.728l-.049-.025a2.073,2.073,0,0,0-.75-.262l.14-3.751.1-.42a5.88,5.88,0,0,0,1.984-1.177,6.47,6.47,0,0,0,2.03-2.863c.751-2.413,1.733-5.506-.09-7.867s-5.572-4.759-8.3-4.315-.126,3.584-.581,3.733c-.395.129-1.5,1.023-1.588,1.677a.494.494,0,0,0,.04.279,6.118,6.118,0,0,0,.468.828c-.292.242-.652.544-1.042.867-1.324,1.1-3.022,2.339-3.429,2.584-.722.436,1.36,2.365,1.283,2.772-.069.373-1.258,5.8,2.513,5.679l-.735,2.481-.312.024a5.193,5.193,0,0,0-.521.113,5.565,5.565,0,0,0-2.856,1.878l-3.415,4.234-12.785,10.217-18.386,4.395.084.44c-.4.094-.687.158-.837.177-.608.066-2.891-.974-4.293-1.263-.621-.128-1.071-.107-1.134.215a.573.573,0,0,0,.36.661c.583.327,1.623.436,1.443,1.328-.206,1-1.324.407-2.674.237a4.114,4.114,0,0,0-1.191,0c-.658.107-.7.689-.385,1.394.553,1.26,2.2,2.913,3.41,2.992a15.424,15.424,0,0,0,4.976-1.277c.587.155,1.251.288,1.191,1.007-.088,1.012-1.281.555-2.655.546a4.232,4.232,0,0,0-1.194.141c-.647.182-.618.759-.222,1.415.7,1.174,2.552,2.606,3.774,2.542,1.821-.1,5.551-2.215,5.883-2.4l.178.557,17.1-3.781-4.555,10.946a.691.691,0,0,0,.636.985h.118l-.726,1.694-29.64,69.124.243.071-1.009,1.129-11.86,1.142a1.787,1.787,0,0,0-1.568,1.475l-.017.1a1.447,1.447,0,0,0,1.167,1.691l15.258,2.786a1.751,1.751,0,0,0,1.81-.9l2.227-4.026.783-1.414.285.083,17.857-28.083,14.943,24.331,1.455-.911-1.052,6a.692.692,0,0,1-.406.508l-5.218,2.252a.7.7,0,0,0-.351.338l-.758,1.581a.569.569,0,0,0,.526.842l8.564-.338a.676.676,0,0,0,.43-.183l8.467-7.877A.625.625,0,0,0,3279.08,1699.3Z" transform="translate(-3004.446 -1499.153)" fill="#003889" opacity="0.18" style="mix-blend-mode: multiply;isolation: isolate"/>
      <path id="Trazado_131186" data-name="Trazado 131186" d="M2321.639,1483.891l-4.466-2.179a2.246,2.246,0,0,1-1.233-2.368l1.239-7.835a4.7,4.7,0,0,0-3.91-5.378l-79.4-12.559a5.163,5.163,0,0,0-5.906,4.293l-16.747,105.885a5.163,5.163,0,0,0,4.293,5.906l79.4,12.559a4.7,4.7,0,0,0,5.379-3.91l9.61-60.765a2.245,2.245,0,0,1,1.871-1.868l5.205-.813a4.03,4.03,0,0,0,3.363-3.382l3.519-23.363A4.03,4.03,0,0,0,2321.639,1483.891Z" transform="translate(-2077.73 -1391.337)" fill="#003889" opacity="0.18" style="mix-blend-mode: multiply;isolation: isolate"/>
      <g id="Grupo_97449" data-name="Grupo 97449" transform="translate(132.045 58.466)">
        <path id="Trazado_131187" data-name="Trazado 131187" d="M3399.447,2179.393c.8,1.174,2.776,2.605,3.993,2.542,1.9-.1,5.7-2.42,5.7-2.42l.074-.02.487-.107,1.182-.256c-.321-1.079-.97-3.136-1.311-4.216l-.444.165c-.029.01-.059.023-.088.032-1.155.422-1.995.754-2.294.828-.59.136-3.069-.619-4.52-.739-.643-.053-1.086.021-1.083.344a.631.631,0,0,0,.491.608c.646.253,1.7.238,1.7,1.136,0,1.012-1.233.555-2.607.547a4.09,4.09,0,0,0-1.182.141C3398.915,2178.16,3398.994,2178.737,3399.447,2179.393Z" transform="translate(-3308.64 -2117.117)" fill="#fdc8aa"/>
        <path id="Trazado_131188" data-name="Trazado 131188" d="M3526.859,1966.677l9.429-10.24,1.375,11.67-6.119,5.357-20.081,4.525-1.973-4.84Z" transform="translate(-3410.762 -1915.021)" fill="#e59d29"/>
        <g id="Grupo_97447" data-name="Grupo 97447">
          <path id="Trazado_131189" data-name="Trazado 131189" d="M2298.784,1456.941l2.162-23.527a4.031,4.031,0,0,0-2.458-4.087l-4.584-1.917a2.245,2.245,0,0,1-1.368-2.293l.784-7.893a4.7,4.7,0,0,0-4.214-5.144l-80-7.947a5.163,5.163,0,0,0-5.648,4.627l-10.6,106.676a5.164,5.164,0,0,0,4.627,5.648l80,7.947a4.7,4.7,0,0,0,5.144-4.214l6.082-61.219a2.245,2.245,0,0,1,1.76-1.973l5.149-1.113A4.031,4.031,0,0,0,2298.784,1456.941Z" transform="translate(-2192.837 -1404.106)" fill="#fff"/>
          <path id="Trazado_131190" data-name="Trazado 131190" d="M2449.833,1572.706l-35.011-3.478a1.9,1.9,0,0,1-1.7-2.077l.334-3.367a1.9,1.9,0,0,1,2.077-1.7l35.011,3.478a1.9,1.9,0,0,1,1.7,2.077l-.334,3.367A1.9,1.9,0,0,1,2449.833,1572.706Z" transform="translate(-2396.594 -1550.228)" fill="#ecf3fe"/>
          <path id="Trazado_131191" data-name="Trazado 131191" d="M2375.785,2291.945l-30.532-3.033a.949.949,0,0,1-.85-1.038l.191-1.922a.949.949,0,0,1,1.038-.851l30.532,3.033a.949.949,0,0,1,.85,1.038l-.191,1.922A.949.949,0,0,1,2375.785,2291.945Z" transform="translate(-2333.033 -2219.036)" fill="#ecf3fe"/>
          <path id="Trazado_131192" data-name="Trazado 131192" d="M2545.41,2407.89l-62.285-6.187a1.052,1.052,0,0,1-.943-1.151l.17-1.715a1.053,1.053,0,0,1,1.151-.943l62.285,6.188a1.052,1.052,0,0,1,.943,1.151l-.17,1.715A1.053,1.053,0,0,1,2545.41,2407.89Z" transform="translate(-2460.48 -2323.369)" fill="#ecf3fe"/>
          <path id="Trazado_131193" data-name="Trazado 131193" d="M2399.351,2492.457l-73.164-7.268a1.139,1.139,0,0,1-1.021-1.247l.153-1.542a1.139,1.139,0,0,1,1.246-1.021l73.164,7.268a1.139,1.139,0,0,1,1.021,1.246l-.153,1.542A1.139,1.139,0,0,1,2399.351,2492.457Z" transform="translate(-2315.239 -2400.595)" fill="#ecf3fe"/>
          <path id="Trazado_131194" data-name="Trazado 131194" d="M2389.613,2590.476l-73.164-7.268a1.139,1.139,0,0,1-1.021-1.246l.153-1.542a1.14,1.14,0,0,1,1.247-1.021l73.164,7.268a1.139,1.139,0,0,1,1.021,1.246l-.153,1.543A1.139,1.139,0,0,1,2389.613,2590.476Z" transform="translate(-2306.23 -2491.264)" fill="#ecf3fe"/>
          <path id="Trazado_131195" data-name="Trazado 131195" d="M2379.876,2688.495l-73.164-7.269a1.139,1.139,0,0,1-1.021-1.246l.153-1.543a1.139,1.139,0,0,1,1.246-1.021l73.164,7.268a1.139,1.139,0,0,1,1.021,1.247l-.153,1.542A1.139,1.139,0,0,1,2379.876,2688.495Z" transform="translate(-2297.224 -2581.933)" fill="#ecf3fe"/>
          <rect id="Rectángulo_36324" data-name="Rectángulo 36324" width="75.802" height="3.829" rx="1.914" transform="translate(8.003 102.721) rotate(5.673)" fill="#ecf3fe"/>
          <rect id="Rectángulo_36325" data-name="Rectángulo 36325" width="53.341" height="32.825" rx="16.413" transform="translate(27.946 26.494) rotate(5.673)" fill="#fd963d"/>
        </g>
        <g id="Grupo_97448" data-name="Grupo 97448" transform="translate(76.574 12.444)">
          <path id="Trazado_131196" data-name="Trazado 131196" d="M3215.349,3295.34l15.5,2.786a1.6,1.6,0,0,0,1.732-.9l1.88-4.026,1.266-2.71-7.034-1.354-1.444,1.79-11.762,1.142a1.6,1.6,0,0,0-1.441,1.475h0l-.007.1A1.6,1.6,0,0,0,3215.349,3295.34Z" transform="translate(-3214.032 -3160.235)" fill="#072542"/>
          <path id="Trazado_131197" data-name="Trazado 131197" d="M3859.156,3226.321l8.535-.338a.619.619,0,0,0,.415-.183l7.787-7.877a.617.617,0,0,0,.013-.854l-3.282-3.52-2.32-2.489a.617.617,0,0,0-.816-.077l-3.762,2.759a.618.618,0,0,0-.25.443l-.589,6.616a.618.618,0,0,1-.362.508l-5.023,2.252h0a.617.617,0,0,0-.322.337l-.621,1.581A.617.617,0,0,0,3859.156,3226.321Z" transform="translate(-3810.188 -3087.828)" fill="#072542"/>
          <path id="Trazado_131198" data-name="Trazado 131198" d="M3882.6,2343.741l-15.034.443,10.3-9Z" transform="translate(-3818.566 -2277.809)" fill="#e59d29"/>
          <path id="Trazado_131199" data-name="Trazado 131199" d="M3399.085,2385.974l7.5,2.144,15.434-28.082,17.043,24.331,7.326-4.851-12.857-25.36,9.025-28.338,1.288-5.037-4.49-2.314-.6-.611-2.834-2.882-1.245-1.267-1.266-1.287-9.031-.295-.292.853-1.326,3.874Z" transform="translate(-3385.209 -2256.481)" fill="#1f3a6f"/>
          <path id="Trazado_131200" data-name="Trazado 131200" d="M3888.794,2384.739l6.754,8.248,1.288-5.037-4.49-2.314-.6-.611Z" transform="translate(-3838.198 -2323.651)" fill="#072542"/>
          <path id="Trazado_131201" data-name="Trazado 131201" d="M3714.846,2327.375c3.333-.282,11.9-1,12.478-1.015l.683-.863.886-1.12-2.132-.147-10.589-.729Z" transform="translate(-3677.293 -2267.006)" fill="#072542"/>
          <path id="Trazado_131202" data-name="Trazado 131202" d="M3321.7,2122.042c.662,1.26,2.452,2.913,3.668,2.991,1.9.118,5.944-1.736,5.944-1.736l.076-.011.5-.049,1.2-.116c-.192-1.109-.6-3.228-.808-4.34l-.46.112-.092.022c-1.2.284-2.069.516-2.376.554-.6.066-2.975-.974-4.4-1.263-.632-.128-1.081-.107-1.115.215a.631.631,0,0,0,.417.662c.611.327,1.66.435,1.558,1.327-.12,1-1.289.407-2.654.238a4.111,4.111,0,0,0-1.19,0C3321.317,2120.755,3321.329,2121.337,3321.7,2122.042Z" transform="translate(-3313.39 -2077.035)" fill="#fdc8aa"/>
          <path id="Trazado_131203" data-name="Trazado 131203" d="M3919.826,1772.637l-.961,4.578,7.524-.323-.259-5.308.259-1.713Z" transform="translate(-3866.014 -1754.888)" fill="#fdc8aa"/>
          <path id="Trazado_131204" data-name="Trazado 131204" d="M3925.358,1772.637l-.513,2.441c1.973.157,5.562-2.618,6.817-3.5l.259-1.713Z" transform="translate(-3871.545 -1754.888)" fill="#efa37d"/>
          <path id="Trazado_131205" data-name="Trazado 131205" d="M3880.306,1654.509a9.169,9.169,0,0,1-2.115,1.8c-.232.149-.476.292-.732.431a18.6,18.6,0,0,1-4.036,1.583c-5.1,1.4-4.239-5.078-4.2-5.487s-2.207-2.337-1.522-2.772a38.85,38.85,0,0,0,3.207-2.585c.361-.323.7-.625.967-.867a8.572,8.572,0,0,1,.656-.559c1.292-.776,3.453-.13,5.338,1.046,2.094,1.3,3.848,3.26,3.7,4.652A5.143,5.143,0,0,1,3880.306,1654.509Z" transform="translate(-3818.566 -1640.042)" fill="#fdc8aa"/>
          <path id="Trazado_131206" data-name="Trazado 131206" d="M3917.358,1642.378a3.719,3.719,0,0,1-1.136.154h0a7.752,7.752,0,0,1-4.156-1.7c.361-.323.7-.625.967-.867a6.867,6.867,0,0,1-.54-.828.518.518,0,0,1-.063-.279c.8-.155,1.53-.287,1.661-.319a40.054,40.054,0,0,1,4.16.369,1.98,1.98,0,0,1,.776,1.543C3919.062,1641.178,3918.7,1641.969,3917.358,1642.378Z" transform="translate(-3859.722 -1633.397)" fill="#efa37d"/>
          <path id="Trazado_131207" data-name="Trazado 131207" d="M3928.043,1582.3a5.755,5.755,0,0,1-1.783,2.863,4.083,4.083,0,0,1-2.231,1.228.6.6,0,0,1-.207-.06,6.786,6.786,0,0,1-1.93-2.556,2.522,2.522,0,0,1-.233-.616.335.335,0,0,1,.106-.253,1.293,1.293,0,0,1,.1-.1c.51-.479,1.8-1.16,2.043-2.564.31-1.786-2.672-.752-2.672-.752-.189-.1-.368-.191-.54-.286h0a9.92,9.92,0,0,1-3.189-2.564,6.872,6.872,0,0,1-.54-.828.516.516,0,0,1-.063-.279c.029-.655,1.06-1.549,1.443-1.677.443-.148-2.429-3.288.259-3.733s6.643,1.955,8.67,4.316S3928.586,1579.885,3928.043,1582.3Z" transform="translate(-3864.198 -1570.062)" fill="#1f3a6f"/>
          <path id="Trazado_131208" data-name="Trazado 131208" d="M3716.625,2075.4l-5.708,17.3a.752.752,0,0,0,.722.985h14.07l-2.867-7.712-1.59-13.273Z" transform="translate(-3673.623 -2035.015)" fill="#fff"/>
          <path id="Trazado_131209" data-name="Trazado 131209" d="M3717.315,2638.029l-5.9,22.4,11.8,24.615-1.01.669-17.222-24.427Z" transform="translate(-3668.175 -2557.948)" fill="#072542"/>
          <path id="Trazado_131210" data-name="Trazado 131210" d="M3471.91,1843.07h0a4.954,4.954,0,0,0-2.693,1.878l-3.05,4.234-11.9,10.217-18.007,4.395,1.394,5.038,20.472-2.144,8.9-6.11.032,8.856a39.988,39.988,0,0,0,1.86,11.915l.714,2.26,14.008,4.3-1.834-43.471a1.968,1.968,0,0,0-.868-1.613,2.026,2.026,0,0,0-.212-.115l-.052-.025a2.236,2.236,0,0,0-1.386-.268c-.052.007-.1.014-.157.018l-6.7.521A4.895,4.895,0,0,0,3471.91,1843.07Z" transform="translate(-3419.593 -1821.978)" fill="#f4b545"/>
        </g>
      </g>
      <path id="Trazado_131211" data-name="Trazado 131211" d="M1966.567,1335.561l-.333-23.624a4.03,4.03,0,0,0-2.876-3.8l-4.761-1.423a2.246,2.246,0,0,1-1.6-2.136l-.053-7.932a4.7,4.7,0,0,0-4.733-4.67l-80.389.539a5.163,5.163,0,0,0-5.128,5.2l.719,107.2a5.163,5.163,0,0,0,5.2,5.128L1953,1409.5a4.7,4.7,0,0,0,4.67-4.733l-.413-61.519a2.245,2.245,0,0,1,1.542-2.147l5-1.65A4.03,4.03,0,0,0,1966.567,1335.561Z" transform="translate(-1759.101 -1241.913)" fill="#003889" opacity="0.18" style="mix-blend-mode: multiply;isolation: isolate"/>
      <g id="Grupo_97450" data-name="Grupo 97450" transform="translate(100.643 45.318)">
        <path id="Trazado_131212" data-name="Trazado 131212" d="M1875.594,1271.644l-1.432-23.583a4.03,4.03,0,0,0-3.05-3.667l-4.823-1.2a2.246,2.246,0,0,1-1.7-2.059l-.423-7.921a4.7,4.7,0,0,0-4.945-4.445l-80.277,4.283a5.163,5.163,0,0,0-4.881,5.431l5.711,107.049a5.163,5.163,0,0,0,5.431,4.881l80.277-4.283a4.7,4.7,0,0,0,4.445-4.946l-3.278-61.433a2.245,2.245,0,0,1,1.44-2.217l4.921-1.881A4.03,4.03,0,0,0,1875.594,1271.644Z" transform="translate(-1774.056 -1228.762)" fill="#fff"/>
        <path id="Trazado_131213" data-name="Trazado 131213" d="M1929.7,1395.635l-30.327,1.618a1.1,1.1,0,0,1-1.162-1.044l-.159-2.979a1.1,1.1,0,0,1,1.045-1.162l30.327-1.618a1.1,1.1,0,0,1,1.162,1.044l.159,2.979A1.1,1.1,0,0,1,1929.7,1395.635Z" transform="translate(-1888.754 -1378.325)" fill="#ecf3fe"/>
        <rect id="Rectángulo_36326" data-name="Rectángulo 36326" width="61.173" height="5.193" rx="2.596" transform="matrix(0.999, -0.053, 0.053, 0.999, 21.449, 24.52)" fill="#ecf3fe"/>
        <path id="Trazado_131214" data-name="Trazado 131214" d="M1985.957,1669.5l-70.3,3.751a1.194,1.194,0,0,1-1.256-1.129l-.149-2.8a1.194,1.194,0,0,1,1.129-1.256l70.3-3.751a1.2,1.2,0,0,1,1.256,1.129l.149,2.8A1.194,1.194,0,0,1,1985.957,1669.5Z" transform="translate(-1903.733 -1631.651)" fill="#ecf3fe"/>
        <path id="Trazado_131215" data-name="Trazado 131215" d="M1994.023,1820.682l-70.3,3.751a1.194,1.194,0,0,1-1.256-1.129l-.149-2.8a1.2,1.2,0,0,1,1.129-1.256l70.3-3.751a1.194,1.194,0,0,1,1.256,1.129l.149,2.8A1.194,1.194,0,0,1,1994.023,1820.682Z" transform="translate(-1911.194 -1771.499)" fill="#ecf3fe"/>
        <path id="Trazado_131216" data-name="Trazado 131216" d="M2002.088,1971.867l-70.3,3.751a1.194,1.194,0,0,1-1.256-1.129l-.149-2.8a1.194,1.194,0,0,1,1.129-1.256l70.3-3.751a1.194,1.194,0,0,1,1.256,1.129l.149,2.8A1.2,1.2,0,0,1,2002.088,1971.867Z" transform="translate(-1918.655 -1911.348)" fill="#ecf3fe"/>
        <path id="Trazado_131217" data-name="Trazado 131217" d="M2010.154,2123.052l-70.3,3.751a1.194,1.194,0,0,1-1.256-1.129l-.15-2.8a1.194,1.194,0,0,1,1.129-1.256l70.3-3.751a1.2,1.2,0,0,1,1.256,1.129l.149,2.8A1.194,1.194,0,0,1,2010.154,2123.052Z" transform="translate(-1926.115 -2051.196)" fill="#ecf3fe"/>
        <path id="Trazado_131218" data-name="Trazado 131218" d="M2018.22,2274.237l-70.3,3.75a1.194,1.194,0,0,1-1.256-1.129l-.149-2.8a1.194,1.194,0,0,1,1.129-1.256l70.3-3.751a1.194,1.194,0,0,1,1.256,1.129l.149,2.8A1.2,1.2,0,0,1,2018.22,2274.237Z" transform="translate(-1933.577 -2191.045)" fill="#ecf3fe"/>
        <path id="Trazado_131219" data-name="Trazado 131219" d="M2026.286,2425.422l-70.3,3.751a1.194,1.194,0,0,1-1.256-1.129l-.149-2.8a1.194,1.194,0,0,1,1.129-1.256l70.3-3.751a1.2,1.2,0,0,1,1.256,1.129l.15,2.8A1.194,1.194,0,0,1,2026.286,2425.422Z" transform="translate(-1941.038 -2330.893)" fill="#ecf3fe"/>
        <path id="Trazado_131220" data-name="Trazado 131220" d="M2034.352,2576.607l-70.3,3.75a1.194,1.194,0,0,1-1.256-1.129l-.149-2.8a1.194,1.194,0,0,1,1.129-1.256l70.3-3.751a1.194,1.194,0,0,1,1.256,1.129l.149,2.8A1.2,1.2,0,0,1,2034.352,2576.607Z" transform="translate(-1948.499 -2470.742)" fill="#ecf3fe"/>
      </g>
      <path id="Trazado_131221" data-name="Trazado 131221" d="M588.624,1181.911l-88.542,51.509a.439.439,0,0,1-.6-.161l-66.145-114.566a.439.439,0,0,1,.161-.6l88.542-51.509a5.034,5.034,0,0,1,6.877,1.843l61.55,106.607A5.034,5.034,0,0,1,588.624,1181.911Z" transform="translate(-433.173 -1032.803)" fill="#fd963d"/>
      <path id="Trazado_131222" data-name="Trazado 131222" d="M1286.642,1335.417l-12.265-60.286a2.246,2.246,0,0,1,1.1-2.4l4.591-2.584a4.03,4.03,0,0,0,1.967-4.345l-4.88-23.117a4.03,4.03,0,0,0-3.555-3.179l-4.947-.479a2.246,2.246,0,0,1-1.984-1.787l-1.581-7.773a4.7,4.7,0,0,0-5.545-3.67l-78.777,16.027a5.163,5.163,0,0,0-4.03,6.089l21.371,105.049a5.163,5.163,0,0,0,6.089,4.03l78.777-16.027A4.7,4.7,0,0,0,1286.642,1335.417Z" transform="translate(-1120.785 -1180.61)" fill="#003889" opacity="0.18" style="mix-blend-mode: multiply;isolation: isolate"/>
      <g id="Grupo_97451" data-name="Grupo 97451" transform="translate(47.842 41.671)">
        <path id="Trazado_131223" data-name="Trazado 131223" d="M1182.091,1293.714,1171.1,1296.7l-66.588,18.085a5.164,5.164,0,0,1-6.338-3.629l-28.1-103.451a5.166,5.166,0,0,1,3.63-6.338l8.595-2.334,45.866-12.458,23.12-6.279a4.7,4.7,0,0,1,5.768,3.306l2.08,7.654a2.244,2.244,0,0,0,2.1,1.654l4.966.159a4.031,4.031,0,0,1,3.752,2.945l6.361,22.753a4.03,4.03,0,0,1-1.683,4.463l-4.414,2.875a2.24,2.24,0,0,0-.942,2.47l16.126,59.368A4.7,4.7,0,0,1,1182.091,1293.714Z" transform="translate(-1069.893 -1180.13)" fill="#fff"/>
        <rect id="Rectángulo_36327" data-name="Rectángulo 36327" width="76.524" height="8.617" rx="4.308" transform="translate(9.04 31.104) rotate(-15.196)" fill="#fd963d"/>
        <path id="Trazado_131224" data-name="Trazado 131224" d="M1294.879,1650.612l-40.844,11.094a1.714,1.714,0,0,1-2.1-1.2l-10.341-38.071a1.714,1.714,0,0,1,1.2-2.1l40.843-11.094a1.714,1.714,0,0,1,2.1,1.2l10.341,38.072A1.714,1.714,0,0,1,1294.879,1650.612Z" transform="translate(-1228.661 -1577.001)" fill="#ecf3fe"/>
        <path id="Trazado_131225" data-name="Trazado 131225" d="M1439.565,2264.6l-31.888,8.661a.821.821,0,0,1-1.007-.577l-.717-2.64a.821.821,0,0,1,.577-1.007l31.888-8.661a.821.821,0,0,1,1.007.577l.717,2.64A.821.821,0,0,1,1439.565,2264.6Z" transform="translate(-1380.727 -2179.344)" fill="#ecf3fe"/>
        <path id="Trazado_131226" data-name="Trazado 131226" d="M1906.958,1574.114l-25.333,6.881a1,1,0,0,1-1.228-.7l-.623-2.292a1,1,0,0,1,.7-1.228l25.333-6.881a1,1,0,0,1,1.228.7l.623,2.292A1,1,0,0,1,1906.958,1574.114Z" transform="translate(-1819.013 -1540.631)" fill="#ecf3fe"/>
        <path id="Trazado_131227" data-name="Trazado 131227" d="M1938.515,1690.3l-25.333,6.881a1,1,0,0,1-1.228-.7l-.623-2.292a1,1,0,0,1,.7-1.228l25.333-6.881a1,1,0,0,1,1.228.7l.623,2.292A1,1,0,0,1,1938.515,1690.3Z" transform="translate(-1848.203 -1648.101)" fill="#ecf3fe"/>
        <path id="Trazado_131228" data-name="Trazado 131228" d="M1970.072,1806.476l-25.333,6.881a1,1,0,0,1-1.228-.7l-.623-2.292a1,1,0,0,1,.7-1.228l25.333-6.881a1,1,0,0,1,1.228.7l.623,2.292A1,1,0,0,1,1970.072,1806.476Z" transform="translate(-1877.394 -1755.57)" fill="#ecf3fe"/>
        <path id="Trazado_131229" data-name="Trazado 131229" d="M2001.627,1922.657l-25.333,6.881a1,1,0,0,1-1.228-.7l-.623-2.292a1,1,0,0,1,.7-1.228l25.333-6.881a1,1,0,0,1,1.228.7l.623,2.292A1,1,0,0,1,2001.627,1922.657Z" transform="translate(-1906.584 -1863.04)" fill="#ecf3fe"/>
        <path id="Trazado_131230" data-name="Trazado 131230" d="M1510.794,2230.459l-71.5,19.419a1.219,1.219,0,0,1-1.5-.857l-.508-1.871a1.219,1.219,0,0,1,.857-1.5l71.5-19.419a1.219,1.219,0,0,1,1.5.857l.508,1.871A1.219,1.219,0,0,1,1510.794,2230.459Z" transform="translate(-1409.706 -2147.754)" fill="#ecf3fe"/>
        <path id="Trazado_131231" data-name="Trazado 131231" d="M1540.916,2341.359l-71.5,19.419a1.219,1.219,0,0,1-1.5-.856l-.508-1.872a1.219,1.219,0,0,1,.857-1.5l71.5-19.419a1.219,1.219,0,0,1,1.5.857l.508,1.871A1.219,1.219,0,0,1,1540.916,2341.359Z" transform="translate(-1437.569 -2250.338)" fill="#ecf3fe"/>
        <path id="Trazado_131232" data-name="Trazado 131232" d="M1571.038,2452.259l-71.5,19.419a1.219,1.219,0,0,1-1.5-.857l-.508-1.871a1.219,1.219,0,0,1,.857-1.5l71.5-19.419a1.219,1.219,0,0,1,1.5.857l.508,1.871A1.219,1.219,0,0,1,1571.038,2452.259Z" transform="translate(-1465.432 -2352.922)" fill="#ecf3fe"/>
        <path id="Trazado_131233" data-name="Trazado 131233" d="M1766.362,2653.767l-45.263,12.294a.685.685,0,0,1-.839-.481h0a.684.684,0,0,1,.481-.84L1766,2652.447a.684.684,0,0,1,.839.481h0A.684.684,0,0,1,1766.362,2653.767Z" transform="translate(-1671.47 -2542.024)" fill="#ecf3fe"/>
      </g>
      <path id="Trazado_131234" data-name="Trazado 131234" d="M1171.1,1376.2l-66.588,18.085a5.164,5.164,0,0,1-6.338-3.629l-28.1-103.451a5.149,5.149,0,0,1,.649-4.16l11.575-4.512,45.866-12.458,3.978,10.206,3.147,8.074,3.647,9.354,1.6,4.1,1.7,4.355,1.6,4.1,1.7,4.358,1.6,4.1,1.7,4.358,1.6,4.1,7.118,18.26,1.6,4.1,1.549,3.976,1.6,4.1,1.549,3.973,1.6,4.1Z" transform="translate(-1022.052 -1217.954)" fill="#003889" opacity="0.18" style="mix-blend-mode: multiply;isolation: isolate"/>
      <g id="Grupo_97453" data-name="Grupo 97453" transform="translate(0 44.626)">
        <path id="Trazado_131235" data-name="Trazado 131235" d="M576.316,1341.575l-89.9,40.134a.439.439,0,0,1-.58-.222l-53.926-120.8a.439.439,0,0,1,.222-.58l89.9-40.134a5.034,5.034,0,0,1,6.649,2.545l50.18,112.407A5.034,5.034,0,0,1,576.316,1341.575Z" transform="translate(-431.869 -1219.536)" fill="#fdab64"/>
        <g id="Grupo_97452" data-name="Grupo 97452" transform="translate(35.92 31.163)">
          <path id="Trazado_131236" data-name="Trazado 131236" d="M961.495,1659.208l-38.8,17.329a1.858,1.858,0,0,1-2.454-.939l-9.167-20.526a1.858,1.858,0,0,1,.939-2.454l38.8-17.329a1.858,1.858,0,0,1,2.454.939l9.167,20.526A1.858,1.858,0,0,1,961.495,1659.208Z" transform="translate(-910.907 -1635.126)" fill="#f9f8f7"/>
          <path id="Trazado_131237" data-name="Trazado 131237" d="M978.01,1734.016a.4.4,0,0,1-.163-.766l35.216-15.727a.4.4,0,0,1,.327.731l-35.216,15.727A.4.4,0,0,1,978.01,1734.016Z" transform="translate(-972.608 -1711.312)" fill="#192942"/>
          <path id="Trazado_131238" data-name="Trazado 131238" d="M1015.81,1818.658a.4.4,0,0,1-.163-.766l35.216-15.727a.4.4,0,1,1,.326.731l-35.216,15.727A.4.4,0,0,1,1015.81,1818.658Z" transform="translate(-1007.573 -1789.608)" fill="#192942"/>
          <path id="Trazado_131239" data-name="Trazado 131239" d="M1053.61,1903.3a.4.4,0,0,1-.163-.766l35.216-15.727a.4.4,0,0,1,.326.731l-35.216,15.727A.4.4,0,0,1,1053.61,1903.3Z" transform="translate(-1042.539 -1867.904)" fill="#192942"/>
        </g>
      </g>
      <g id="Grupo_97458" data-name="Grupo 97458" transform="translate(111.668 166.897)">
        <g id="Grupo_97454" data-name="Grupo 97454" transform="translate(0.458 20.677)">
          <rect id="Rectángulo_36328" data-name="Rectángulo 36328" width="4.255" height="17.065" transform="translate(30.237 4.861)" fill="#9fb8d6"/>
          <rect id="Rectángulo_36329" data-name="Rectángulo 36329" width="29.213" height="17.065" transform="translate(1.025 4.861)" fill="#fff"/>
          <path id="Trazado_131240" data-name="Trazado 131240" d="M2082.336,3254.8h-6.674a1.258,1.258,0,0,1-1.255-1.255h0a1.258,1.258,0,0,1,1.255-1.255h6.674a1.258,1.258,0,0,1,1.255,1.255h0A1.258,1.258,0,0,1,2082.336,3254.8Z" transform="translate(-2063.367 -3242.813)" fill="#36588e"/>
          <rect id="Rectángulo_36330" data-name="Rectángulo 36330" width="30.237" height="6.085" fill="#f4b545"/>
          <rect id="Rectángulo_36331" data-name="Rectángulo 36331" width="5.198" height="6.085" transform="translate(30.237)" fill="#e59d29"/>
          <path id="Trazado_131241" data-name="Trazado 131241" d="M1940.851,3207.053l29.213,2.936v-2.936Z" transform="translate(-1939.827 -3200.968)" fill="#9fb8d6" opacity="0.5"/>
          <rect id="Rectángulo_36332" data-name="Rectángulo 36332" width="11.202" height="5.488" transform="translate(10.03 13.663)" fill="#c4d7f2"/>
        </g>
        <g id="Grupo_97455" data-name="Grupo 97455" transform="translate(2.445 16.654)">
          <rect id="Rectángulo_36333" data-name="Rectángulo 36333" width="17.137" height="4.077" fill="#d7e3f4"/>
          <path id="Trazado_131242" data-name="Trazado 131242" d="M2192.126,3072.981v2.627h.551v.725h-10.459v-4.077h10.459v.725Z" transform="translate(-2165.082 -3072.256)" fill="#87a7c6"/>
          <rect id="Rectángulo_36334" data-name="Rectángulo 36334" width="9.1" height="2.627" transform="translate(17.944 0.725)" fill="#d7e3f4"/>
          <rect id="Rectángulo_36335" data-name="Rectángulo 36335" width="9.1" height="0.654" transform="translate(17.944 0.725)" fill="#9fb8d6"/>
          <rect id="Rectángulo_36336" data-name="Rectángulo 36336" width="8.47" height="2.245" transform="translate(1.241 0.916)" fill="#fff"/>
          <rect id="Rectángulo_36337" data-name="Rectángulo 36337" width="1.019" height="2.245" transform="translate(10.437 0.916)" fill="#fff"/>
          <circle id="Elipse_5214" data-name="Elipse 5214" cx="1.123" cy="1.123" r="1.123" transform="translate(12.572 0.916)" fill="#fff"/>
          <circle id="Elipse_5215" data-name="Elipse 5215" cx="0.731" cy="0.731" r="0.731" transform="translate(12.963 1.307)" fill="#87a7c6"/>
        </g>
        <g id="Grupo_97456" data-name="Grupo 97456">
          <path id="Trazado_131243" data-name="Trazado 131243" d="M1944.5,2850.157h-23.422v7.225h28.536v-7.225Z" transform="translate(-1921.081 -2850.157)" fill="#fff"/>
          <path id="Trazado_131244" data-name="Trazado 131244" d="M1955.87,2946.515h-23.421v5.379h28.719v-5.379Z" transform="translate(-1931.597 -2939.29)" fill="#fff"/>
          <path id="Trazado_131245" data-name="Trazado 131245" d="M2080.455,2850.157v7.225h-12.4l13.172,2.172v3.207h5.378v-5.378h-1.035v-7.225Z" transform="translate(-2057.033 -2850.157)" fill="#9fb8d6"/>
        </g>
        <g id="Grupo_97457" data-name="Grupo 97457" transform="translate(3.406 12.604)">
          <rect id="Rectángulo_36338" data-name="Rectángulo 36338" width="17.022" height="4.05" fill="#33da82"/>
          <path id="Trazado_131246" data-name="Trazado 131246" d="M2203.352,3018.963v2.61h.548v.72h-10.39v-4.05h10.39v.72Z" transform="translate(-2176.488 -3018.243)" fill="#1db562"/>
          <rect id="Rectángulo_36339" data-name="Rectángulo 36339" width="9.039" height="2.61" transform="translate(17.825 0.72)" fill="#d7e3f4"/>
          <rect id="Rectángulo_36340" data-name="Rectángulo 36340" width="9.039" height="0.649" transform="translate(17.825 0.72)" fill="#9fb8d6"/>
          <rect id="Rectángulo_36341" data-name="Rectángulo 36341" width="8.413" height="2.231" transform="translate(1.233 0.91)" fill="#fff"/>
          <rect id="Rectángulo_36342" data-name="Rectángulo 36342" width="1.013" height="2.231" transform="translate(10.368 0.91)" fill="#fff"/>
          <circle id="Elipse_5216" data-name="Elipse 5216" cx="1.115" cy="1.115" r="1.115" transform="translate(12.262 2.854) rotate(-76.718)" fill="#fff"/>
          <circle id="Elipse_5217" data-name="Elipse 5217" cx="0.726" cy="0.726" r="0.726" transform="translate(12.877 1.299)" fill="#33da82"/>
        </g>
        <path id="Trazado_131247" data-name="Trazado 131247" d="M1927.183,3125.908l30.237,2.236v-2.236Z" transform="translate(-1926.725 -3105.231)" fill="#e59d29"/>
      </g>
      <g id="Grupo_97460" data-name="Grupo 97460" transform="translate(281.263 118.729)">
        <rect id="Rectángulo_36343" data-name="Rectángulo 36343" width="9.047" height="13.053" transform="translate(10.41 0) rotate(19.329)" fill="#529d2e"/>
        <rect id="Rectángulo_36344" data-name="Rectángulo 36344" width="10.107" height="13.053" transform="matrix(0.582, -0.813, 0.813, 0.582, 0.671, 9.084)" fill="#fcd03e"/>
        <rect id="Rectángulo_36345" data-name="Rectángulo 36345" width="9.047" height="13.053" transform="translate(11.312 1.938) rotate(45)" fill="#fd963d"/>
        <path id="Trazado_131248" data-name="Trazado 131248" d="M4200.23,2314.469h-14.577l-2.832-19.443h20.241Z" transform="translate(-4182.821 -2288.484)" fill="#fee89f"/>
        <g id="Grupo_97459" data-name="Grupo 97459" transform="translate(5.443 9.647)">
          <path id="Trazado_131249" data-name="Trazado 131249" d="M4263.913,2391.023l-7.762.022a.74.74,0,0,0-.737.779l.4,7.636a.74.74,0,0,0,.742.7l7.011-.019a.74.74,0,0,0,.738-.706l.354-7.638A.741.741,0,0,0,4263.913,2391.023Zm-6.314,7.642a.6.6,0,0,1-.6-.6l-.013-4.933a.6.6,0,0,1,.6-.6h0a.6.6,0,0,1,.6.6l.014,4.933A.6.6,0,0,1,4257.6,2398.665Zm2.3-.006a.6.6,0,0,1-.6-.6l-.013-4.934a.6.6,0,0,1,.6-.6h0a.6.6,0,0,1,.6.6l.013,4.934A.6.6,0,0,1,4259.9,2398.659Zm2.3-.007a.6.6,0,0,1-.6-.6l-.015-4.934a.6.6,0,0,1,.6-.6h0a.6.6,0,0,1,.6.6l.014,4.934A.6.6,0,0,1,4262.2,2398.652Z" transform="translate(-4255.412 -2386.93)" fill="#fdd85e"/>
          <path id="Trazado_131250" data-name="Trazado 131250" d="M4267.24,2338.42l-.981-.2-.167-.661a.381.381,0,0,0-.295-.281l-4.046-.825a.383.383,0,0,0-.382.145l-.412.542-.98-.2a.915.915,0,1,0-.365,1.794l7.263,1.479a.916.916,0,0,0,.366-1.794Zm-2.108-.417a.25.25,0,0,1-.244.2.265.265,0,0,1-.05,0l-2.563-.522a.249.249,0,1,1,.1-.488l2.564.522A.25.25,0,0,1,4265.132,2338Z" transform="translate(-4258.618 -2336.445)" fill="#fdd85e"/>
        </g>
      </g>
      <circle id="Elipse_5218" data-name="Elipse 5218" cx="8.877" cy="8.877" r="8.877" transform="translate(117.238 14.975) rotate(-45)" fill="#529d2e"/>
      <circle id="Elipse_5219" data-name="Elipse 5219" cx="5.441" cy="5.441" r="5.441" transform="translate(323.783 162.681)" fill="#b0c710"/>
      <circle id="Elipse_5220" data-name="Elipse 5220" cx="5.441" cy="5.441" r="5.441" transform="matrix(0.237, -0.971, 0.971, 0.237, 17.519, 52.111)" fill="#b0c710"/>
    </g>
  </g>
</svg>
