<svg xmlns="http://www.w3.org/2000/svg" width="420" height="319.416" viewBox="0 0 420 319.416">
  <g id="Grupo_105827" data-name="Grupo 105827" transform="translate(-895 -7200)">
    <rect id="BG" width="420" height="319.416" transform="translate(895 7200)" fill="#fed5b1"/>
    <g id="Grupo_105339" data-name="Grupo 105339" transform="translate(940.422 7174.253)">
      <path id="Trazado_135140" data-name="Trazado 135140" d="M304.565,269.9a134.031,134.031,0,1,0-203.326,0Z" transform="translate(-7.748 -4.648)" fill="#ffeedb"/>
      <g id="Grupo_105298" data-name="Grupo 105298" transform="translate(88.278 296.78)">
        <g id="Grupo_105297" data-name="Grupo 105297">
          <ellipse id="Elipse_5291" data-name="Elipse 5291" cx="27.464" cy="6.235" rx="27.464" ry="6.235" transform="translate(0 1.955)" fill="#cfb091"/>
          <path id="Trazado_135141" data-name="Trazado 135141" d="M343.212,406.223c-5.721,0-11.174.169-16.143.475,3.468-.966,5.439-2.074,5.439-3.251,0-3.761-20.087-6.809-44.865-6.809s-44.865,3.049-44.865,6.809,20.087,6.809,44.865,6.809c6.359,0,12.4-.2,17.886-.564-2.719.819-4.251,1.74-4.251,2.713,0,3.414,18.775,6.182,41.934,6.182s41.934-2.768,41.934-6.182S366.372,406.223,343.212,406.223Z" transform="translate(-141.245 -391.946)" fill="#cfb091"/>
          <path id="Trazado_135142" data-name="Trazado 135142" d="M188.338,411.15q-1.244,0-2.471.015c1.592-.732,2.471-1.525,2.471-2.355,0-3.662-16.99-6.631-37.947-6.631s-37.947,2.969-37.947,6.631,16.855,6.606,37.7,6.629c-3.781,1.268-5.956,2.741-5.956,4.313,0,4.751,19.768,8.6,44.154,8.6s44.154-3.851,44.154-8.6S212.723,411.15,188.338,411.15Z" transform="translate(-107.355 -393.387)" fill="#cfb091"/>
          <ellipse id="Elipse_5292" data-name="Elipse 5292" cx="9.065" cy="2.532" rx="9.065" ry="2.532" transform="translate(224.718 5.554)" fill="#cfb091"/>
          <path id="Trazado_135143" data-name="Trazado 135143" d="M398.223,394.885c0,.568-1.822,1.029-4.07,1.029s-4.07-.461-4.07-1.029,1.823-1.029,4.07-1.029S398.223,394.316,398.223,394.885Z" transform="translate(-179.548 -391.222)" fill="#cfb091"/>
          <ellipse id="Elipse_5293" data-name="Elipse 5293" cx="4.48" cy="1.295" rx="4.48" ry="1.295" transform="translate(85.43 4.083)" fill="#cfb091"/>
          <path id="Trazado_135144" data-name="Trazado 135144" d="M252.767,391.274c0,.54-1.263.977-2.822.977s-2.821-.437-2.821-.977,1.263-.977,2.821-.977S252.767,390.735,252.767,391.274Z" transform="translate(-142.376 -390.297)" fill="#cfb091"/>
        </g>
      </g>
      <g id="Grupo_105299" data-name="Grupo 105299" transform="translate(44.036 235.669)">
        <path id="Trazado_135145" data-name="Trazado 135145" d="M90.021,370.119C85.684,357.688,81.3,345.15,74.44,333.911s-16.467-21.231-28.661-26.2c4.159,15.805,8.252,32.468,18.961,44.813C71.608,360.443,80.664,365.395,90.021,370.119Z" transform="translate(-45.779 -307.712)" fill="#8dc63f"/>
        <path id="Trazado_135146" data-name="Trazado 135146" d="M89.789,364.745c-2.756-5.146-5.588-10.255-8.6-15.254q-2.509-4.157-5.2-8.2c-3.863-5.77-8.26-11.5-14.387-14.765,2.429,6.416,4.858,12.834,7.554,19.142a70.7,70.7,0,0,0,7.6,14.2,54.737,54.737,0,0,0,9.165,9.5c1.7,1.424,3.466,2.777,5.253,4.094l.074.058q1.442.746,2.9,1.481-1.067-3.058-2.15-6.118Q90.892,366.817,89.789,364.745Z" transform="translate(-49.892 -312.604)" fill="#7cb332"/>
      </g>
      <g id="Grupo_105300" data-name="Grupo 105300" transform="translate(39.075 273.028)">
        <path id="Trazado_135147" data-name="Trazado 135147" d="M83.641,380.074c-6.335-5.711-12.731-11.467-20.127-15.717s-15.966-6.933-24.439-5.958c7.284,7.683,14.8,15.875,24.726,19.553C70.167,380.311,76.854,380.3,83.641,380.074Z" transform="translate(-39.075 -358.199)" fill="#8dc63f"/>
        <path id="Trazado_135148" data-name="Trazado 135148" d="M81.835,377.163c-3.168-2.066-6.367-4.085-9.637-5.986q-2.719-1.58-5.508-3.038c-3.991-2.076-8.273-3.959-12.771-3.908,3.378,2.888,6.757,5.778,10.253,8.522a45.792,45.792,0,0,0,8.738,5.7A35.425,35.425,0,0,0,81.075,381c1.411.278,2.833.5,4.259.69l.06.01q1.052-.025,2.107-.061-1.558-1.405-3.126-2.806Q83.107,378,81.835,377.163Z" transform="translate(-42.935 -359.767)" fill="#7cb332"/>
      </g>
      <g id="Grupo_105301" data-name="Grupo 105301" transform="translate(64.116 219.884)">
        <path id="Trazado_135149" data-name="Trazado 135149" d="M88.7,333.465c-.309-8.524-.63-17.123-2.726-25.391s-6.137-16.288-12.734-21.693c-.446,10.578-1.1,21.674,3.173,31.362C79.152,323.957,83.812,328.753,88.7,333.465Z" transform="translate(-72.915 -286.381)" fill="#8dc63f"/>
        <path id="Trazado_135150" data-name="Trazado 135150" d="M89.7,330.094c-.722-3.712-1.5-7.415-2.412-11.086q-.758-3.052-1.653-6.069c-1.288-4.31-2.916-8.7-6.084-11.89.277,4.435.555,8.873,1.018,13.293a45.75,45.75,0,0,0,1.988,10.243,35.444,35.444,0,0,0,3.857,7.635c.782,1.208,1.615,2.381,2.469,3.539.011.016.023.034.035.05q.749.738,1.51,1.47c-.051-1.4-.1-2.8-.161-4.2C90.077,332.085,89.891,331.089,89.7,330.094Z" transform="translate(-74.64 -290.195)" fill="#7cb332"/>
      </g>
      <g id="Grupo_105302" data-name="Grupo 105302" transform="translate(228.678 234.756)">
        <path id="Trazado_135151" data-name="Trazado 135151" d="M296.162,352.877c5.093-6.842,10.226-13.749,13.764-21.51s5.408-16.544,3.644-24.89c-6.968,7.972-14.42,16.22-17.153,26.447C294.665,339.486,295.3,346.143,296.162,352.877Z" transform="translate(-295.304 -306.478)" fill="#8dc63f"/>
        <path id="Trazado_135152" data-name="Trazado 135152" d="M300.3,350.8c1.76-3.348,3.471-6.723,5.058-10.156q1.319-2.856,2.509-5.768c1.692-4.168,3.167-8.607,2.7-13.081-2.56,3.633-5.121,7.268-7.526,11.006a45.785,45.785,0,0,0-4.86,9.233,35.445,35.445,0,0,0-1.77,8.368c-.145,1.431-.232,2.868-.289,4.305,0,.019,0,.041,0,.061q.123,1.045.258,2.091,1.253-1.683,2.5-3.375Q299.593,352.146,300.3,350.8Z" transform="translate(-295.515 -310.461)" fill="#7cb332"/>
      </g>
      <g id="Grupo_105303" data-name="Grupo 105303" transform="translate(228.717 221.344)">
        <path id="Trazado_135153" data-name="Trazado 135153" d="M299.9,330.881c2.583-6.873,5.184-13.809,6.262-21.071s.533-14.974-2.914-21.457c-3.865,8.254-8.064,16.851-7.889,25.963C295.474,320.159,297.583,325.515,299.9,330.881Z" transform="translate(-295.356 -288.353)" fill="#8dc63f"/>
        <path id="Trazado_135154" data-name="Trazado 135154" d="M302.574,328.5c.659-3.189,1.27-6.387,1.764-9.606.275-1.784.512-3.574.7-5.369.407-3.851.57-7.874-.886-11.462-1.252,3.615-2.5,7.231-3.6,10.9a39.416,39.416,0,0,0-1.821,8.8,30.491,30.491,0,0,0,.529,7.344c.22,1.219.491,2.427.787,3.63l.011.052q.351.835.711,1.669.635-1.691,1.265-3.388Q302.306,329.778,302.574,328.5Z" transform="translate(-296.221 -291.917)" fill="#7cb332"/>
      </g>
      <path id="Trazado_135155" data-name="Trazado 135155" d="M292.9,143.856a57.383,57.383,0,0,0-20.732-17.008c-1.569,20.875-2.355,41.88-1.9,62.808a73.485,73.485,0,0,0,15.816-10.442c4.682-4.269,8.57-9.634,10.126-15.775C297.987,156.422,296.716,148.912,292.9,143.856Z" transform="translate(-60.082 -25.014)" fill="#1c75bc"/>
      <path id="Trazado_135156" data-name="Trazado 135156" d="M273.632,127.568a6.52,6.52,0,0,0-1.258,2.364c-.005.017-.007.034-.012.051q-.254,3.545-.477,7.095-.094,12.414-.189,24.828c-.032,4.212-.042,8.546,1.511,12.46a21.9,21.9,0,0,0,3.126,5.275c.705.912,2.524,3.869,4,3.491,1.293-.329,1.732-4.439,2.09-5.621q1.04-3.425,2.3-6.777a11.079,11.079,0,0,0,.929-3.6,10.6,10.6,0,0,0-.747-3.538c-2.216-6.652-4.362-13.4-5.01-20.379a80.279,80.279,0,0,1-.02-11.954A57.024,57.024,0,0,0,273.632,127.568Z" transform="translate(-60.485 -25.201)" fill="#155f99"/>
      <g id="Grupo_105324" data-name="Grupo 105324" transform="translate(58.13 30.649)">
        <path id="Trazado_135157" data-name="Trazado 135157" d="M125.666,72.7s-6.98-.566-13.362,9.239c16.649-3.792,25.622-.647,25.622-.647S133.2,72.247,125.666,72.7Z" transform="translate(-77.172 -41.579)" fill="#808285"/>
        <path id="Trazado_135158" data-name="Trazado 135158" d="M174.615,62.893a54.835,54.835,0,0,1-7.332-11.139c2.987-2.631,3.292-7.858,2.1-11.658a13.6,13.6,0,0,0-8.048-8.286,19.084,19.084,0,0,0-11.737-.457c-4.675,1.217-9.168,4.139-11.028,8.6s-.247,10.443,4.168,12.406a54.743,54.743,0,0,1-9.153,16.572c11.646.1,23.3.2,34.939-.14,1.9-.055,3.909-.156,5.485-1.217A3.152,3.152,0,0,0,174.615,62.893Zm-13.66-16.045a7.918,7.918,0,0,1-7.383.758,6.09,6.09,0,0,1-3.353-2.955,6.059,6.059,0,0,1-.169-4.242,7.425,7.425,0,0,1,2.517-3.628c1.588-1.255,9.607-3.388,11.441,3.153C164.732,42.508,163.09,45.357,160.956,46.848Z" transform="translate(-82.706 -30.649)" fill="#bcbec0"/>
        <path id="Trazado_135159" data-name="Trazado 135159" d="M143.277,69.673a95.787,95.787,0,0,1,6.137-16.561,11.547,11.547,0,0,1-7.961-10.546,11.581,11.581,0,0,1,4.745-9.321,14.671,14.671,0,0,0-7.623,7.381c-1.86,4.459-.247,10.443,4.168,12.406A54.743,54.743,0,0,1,133.589,69.6Q138.433,69.645,143.277,69.673Z" transform="translate(-82.706 -31.324)" fill="#d1d3d4"/>
        <g id="Grupo_105304" data-name="Grupo 105304" transform="translate(0 34.826)">
          <path id="Trazado_135160" data-name="Trazado 135160" d="M72.448,77.713H222.677l19.2,218.987L93.47,314.593Z" transform="translate(-66.808 -77.713)" fill="#1c75bc"/>
          <path id="Trazado_135161" data-name="Trazado 135161" d="M219.974,100.587s13.557-5.023,9.162-22.874H210.347Z" transform="translate(-102.665 -77.713)" fill="#155f99"/>
          <path id="Trazado_135162" data-name="Trazado 135162" d="M70.466,77.713l-5.64,4.109,21.15,230.591,5.512,2.179Z" transform="translate(-64.826 -77.713)" fill="#519bd6"/>
          <path id="Trazado_135163" data-name="Trazado 135163" d="M246.353,299.022,233.12,148.064l-10.579-58.8L89.684,86.642s-1.439,172.937,25.653,228.177Z" transform="translate(-71.286 -80.035)" fill="#155f99"/>
        </g>
        <path id="Trazado_135164" data-name="Trazado 135164" d="M93.226,91.519l133.985-2.4c4.468,65.988,12.212,131.748,25.018,196.635-44.587,1.365-89.4,7.594-133.212,15.972C106.786,257.3,93.226,130.922,93.226,91.519Z" transform="translate(-72.211 -45.852)" fill="#fff"/>
        <path id="Trazado_135165" data-name="Trazado 135165" d="M215.59,90.07l5.747,13.657a16.712,16.712,0,0,0,9.94-13.939Z" transform="translate(-104.028 -46.027)" fill="#e6e7e8"/>
        <path id="Trazado_135166" data-name="Trazado 135166" d="M149.832,71.971l28.388-1.293a54.987,54.987,0,0,1-4.994-7.2,40.816,40.816,0,0,0-9.51,1.958A73.813,73.813,0,0,0,149.832,71.971Z" transform="translate(-86.93 -39.186)" fill="#808285"/>
        <g id="Grupo_105305" data-name="Grupo 105305" transform="translate(48.495 28.828)">
          <path id="Trazado_135167" data-name="Trazado 135167" d="M137.685,98.437l61.491.042c3.237-7.011,1.826-15.434-.756-23.047a6.638,6.638,0,0,0-5.673-4.5,273.547,273.547,0,0,0-62.384.966C137.21,75.5,138.292,88.566,137.685,98.437Z" transform="translate(-130.362 -69.607)" fill="#bcbec0"/>
          <path id="Trazado_135168" data-name="Trazado 135168" d="M202.229,85.322l-63.591.178a50.368,50.368,0,0,1,1.342,12.019l62.939-.332A32.06,32.06,0,0,0,202.229,85.322Z" transform="translate(-132.514 -73.693)" fill="#d1d3d4"/>
          <path id="Trazado_135169" data-name="Trazado 135169" d="M173.843,71.519c-3.762.079-7.614.331-11.062,1.839-.616.269-1.318.767-1.194,1.429.107.574.767.833,1.333.982,8.661,2.275,17.716,2.172,26.581,1.517,1.742-.129,10.677.126,10.3-2.249-.5-3.172-8.273-2.791-10.46-2.987A140.526,140.526,0,0,0,173.843,71.519Z" transform="translate(-138.478 -70.096)" fill="#d1d3d4"/>
          <ellipse id="Elipse_5294" data-name="Elipse 5294" cx="4.301" cy="1.665" rx="4.301" ry="1.665" transform="translate(11.889 3.067)" fill="#d1d3d4"/>
        </g>
        <g id="Grupo_105306" data-name="Grupo 105306" transform="translate(120.444 77.13)">
          <path id="Trazado_135170" data-name="Trazado 135170" d="M256.58,164.389l-24.334,1.233-4.652-29.507,24.334-1.233Zm-21.826-1.858,18.389-.932-3.725-23.627-18.388.932Z" transform="translate(-227.594 -134.882)" fill="#bcbec0"/>
        </g>
        <g id="Grupo_105307" data-name="Grupo 105307" transform="translate(128.001 128.577)">
          <path id="Trazado_135171" data-name="Trazado 135171" d="M266.663,233.936l-24.34,1.122-4.517-29.529,24.34-1.121Zm-21.817-1.958,18.393-.847-3.616-23.644-18.394.847Z" transform="translate(-237.806 -204.408)" fill="#bcbec0"/>
        </g>
        <g id="Grupo_105308" data-name="Grupo 105308" transform="translate(137.043 179.934)">
          <path id="Trazado_135172" data-name="Trazado 135172" d="M255.063,304.806l-5.037-29.444,24.316-1.551,5.038,29.444Zm-1.564-26.7,4.034,23.576,18.375-1.172-4.034-23.576Z" transform="translate(-250.026 -273.811)" fill="#bcbec0"/>
        </g>
        <g id="Grupo_105313" data-name="Grupo 105313" transform="translate(31.597 82.347)">
          <g id="Grupo_105309" data-name="Grupo 105309" transform="translate(1.705 6.492)">
            <path id="Trazado_135173" data-name="Trazado 135173" d="M111.679,156.858a1.85,1.85,0,0,1-.058-3.7l76.672-2.452a1.85,1.85,0,1,1,.118,3.7l-76.672,2.452Z" transform="translate(-109.831 -150.707)" fill="#808285"/>
          </g>
          <g id="Grupo_105310" data-name="Grupo 105310" transform="translate(3.187 14.253)">
            <path id="Trazado_135174" data-name="Trazado 135174" d="M113.682,167.346a1.85,1.85,0,0,1-.058-3.7L190.3,161.2a1.85,1.85,0,0,1,.118,3.7l-76.671,2.452Z" transform="translate(-111.834 -161.195)" fill="#808285"/>
          </g>
          <g id="Grupo_105311" data-name="Grupo 105311" transform="translate(4.669 23.241)">
            <path id="Trazado_135175" data-name="Trazado 135175" d="M115.685,178.266a1.85,1.85,0,0,1-.058-3.7l38.335-1.225a1.85,1.85,0,1,1,.118,3.7l-38.335,1.225Z" transform="translate(-113.837 -173.34)" fill="#808285"/>
          </g>
          <g id="Grupo_105312" data-name="Grupo 105312">
            <path id="Trazado_135176" data-name="Trazado 135176" d="M109.375,146.859a1.85,1.85,0,0,1-.058-3.7l38.335-1.226a1.85,1.85,0,0,1,.119,3.7l-38.336,1.226Z" transform="translate(-107.527 -141.933)" fill="#8dc63f"/>
          </g>
        </g>
        <g id="Grupo_105318" data-name="Grupo 105318" transform="translate(41.492 135.612)">
          <g id="Grupo_105314" data-name="Grupo 105314" transform="translate(2.181 3.992)">
            <path id="Trazado_135177" data-name="Trazado 135177" d="M125.693,230.222a1.85,1.85,0,0,1-.172-3.691l76.371-7.211A1.85,1.85,0,1,1,202.24,223l-76.371,7.21A1.744,1.744,0,0,1,125.693,230.222Z" transform="translate(-123.846 -219.31)" fill="#808285"/>
          </g>
          <g id="Grupo_105315" data-name="Grupo 105315" transform="translate(4.142 11.647)">
            <path id="Trazado_135178" data-name="Trazado 135178" d="M128.344,240.566a1.85,1.85,0,0,1-.172-3.692l76.371-7.21a1.85,1.85,0,1,1,.348,3.683l-76.371,7.211C128.461,240.563,128.4,240.566,128.344,240.566Z" transform="translate(-126.496 -229.655)" fill="#808285"/>
          </g>
          <g id="Grupo_105316" data-name="Grupo 105316" transform="translate(6.104 22.908)">
            <path id="Trazado_135179" data-name="Trazado 135179" d="M130.995,252.177a1.85,1.85,0,0,1-.172-3.692l38.186-3.606a1.85,1.85,0,0,1,.347,3.684l-38.186,3.606C131.112,252.174,131.052,252.177,130.995,252.177Z" transform="translate(-129.147 -244.873)" fill="#808285"/>
          </g>
          <g id="Grupo_105317" data-name="Grupo 105317">
            <path id="Trazado_135180" data-name="Trazado 135180" d="M122.746,221.222a1.85,1.85,0,0,1-.172-3.692l38.186-3.606a1.85,1.85,0,1,1,.348,3.684l-38.186,3.606C122.863,221.219,122.8,221.222,122.746,221.222Z" transform="translate(-120.898 -213.915)" fill="#8dc63f"/>
          </g>
        </g>
        <g id="Grupo_105323" data-name="Grupo 105323" transform="translate(50.43 189.154)">
          <g id="Grupo_105319" data-name="Grupo 105319" transform="translate(2.305 3.333)">
            <path id="Trazado_135181" data-name="Trazado 135181" d="M137.94,302.934a1.85,1.85,0,0,1-.2-3.689l76.243-8.456a1.849,1.849,0,1,1,.407,3.676l-76.243,8.457A1.76,1.76,0,0,1,137.94,302.934Z" transform="translate(-136.091 -290.776)" fill="#808285"/>
          </g>
          <g id="Grupo_105320" data-name="Grupo 105320" transform="translate(4.391 10.954)">
            <path id="Trazado_135182" data-name="Trazado 135182" d="M140.759,313.233a1.85,1.85,0,0,1-.2-3.689l76.243-8.456a1.849,1.849,0,1,1,.408,3.676l-76.243,8.457A1.757,1.757,0,0,1,140.759,313.233Z" transform="translate(-138.911 -301.075)" fill="#808285"/>
          </g>
          <g id="Grupo_105321" data-name="Grupo 105321" transform="translate(6.477 22.804)">
            <path id="Trazado_135183" data-name="Trazado 135183" d="M143.578,325.017a1.85,1.85,0,0,1-.2-3.688L181.5,317.1a1.85,1.85,0,1,1,.408,3.677l-38.121,4.228A1.77,1.77,0,0,1,143.578,325.017Z" transform="translate(-141.73 -317.089)" fill="#808285"/>
          </g>
          <g id="Grupo_105322" data-name="Grupo 105322">
            <path id="Trazado_135184" data-name="Trazado 135184" d="M134.825,294.2a1.85,1.85,0,0,1-.2-3.688l38.121-4.229a1.849,1.849,0,1,1,.408,3.676l-38.121,4.229A1.772,1.772,0,0,1,134.825,294.2Z" transform="translate(-132.977 -286.272)" fill="#8dc63f"/>
          </g>
        </g>
        <path id="Trazado_135185" data-name="Trazado 135185" d="M225.956,137.179c5.288,1.736,10.192,4.085,14.2,8.308,5.2-6.689,9.881-12.746,17.213-17.958A95.081,95.081,0,0,0,241.4,155,52.626,52.626,0,0,0,225.956,137.179Z" transform="translate(-106.724 -55.84)" fill="#39b54a"/>
        <path id="Trazado_135186" data-name="Trazado 135186" d="M236.08,209.942c5.289,1.736,10.192,4.085,14.2,8.308,5.2-6.689,9.882-12.746,17.213-17.958a95.046,95.046,0,0,0-15.962,27.469A52.644,52.644,0,0,0,236.08,209.942Z" transform="translate(-109.356 -74.761)" fill="#39b54a"/>
        <path id="Trazado_135187" data-name="Trazado 135187" d="M248.637,277.944c5.288,1.735,10.192,4.084,14.2,8.307,5.2-6.689,9.881-12.745,17.213-17.958a95.06,95.06,0,0,0-15.963,27.469A52.639,52.639,0,0,0,248.637,277.944Z" transform="translate(-112.621 -92.443)" fill="#39b54a"/>
      </g>
      <g id="Grupo_105331" data-name="Grupo 105331" transform="translate(212.593 113.44)">
        <path id="Trazado_135188" data-name="Trazado 135188" d="M304.016,387.785l-14.8,7.181c-.579.281-1.251.714-1.2,1.356.062.778,1.077,1.014,1.857,1.043l20.918.747v-8.488A34.528,34.528,0,0,1,304.016,387.785Z" transform="translate(-277.324 -206.304)" fill="#fff"/>
        <path id="Trazado_135189" data-name="Trazado 135189" d="M372.073,405.439c-1.418,2.775-7.934,5.456-12.19,7.522-.5.242-1.08.616-1.035,1.17.054.672.929.876,1.6.9,4.346.155,11.277.311,17.059.466a3.592,3.592,0,0,0,3.317-5.177l-3.327-7.228C375.637,402.768,373.82,406.16,372.073,405.439Z" transform="translate(-295.741 -210.279)" fill="#fff"/>
        <path id="Trazado_135190" data-name="Trazado 135190" d="M363.849,231.461c-7.85,2.7-15.436,2.574-22.65,3.561-1.27,1.773-6.144,8.953-7.414,10.726l20.357,2.556a9.564,9.564,0,0,0,3.309.029,7.353,7.353,0,0,0,3.937-2.831A16,16,0,0,0,363.849,231.461Z" transform="translate(-289.224 -165.656)" fill="#092942"/>
        <path id="Trazado_135191" data-name="Trazado 135191" d="M323.437,214.925c2.64-4.04,6.279-6.838,9.963-6.288-.3-.044-3.146,6.582-3.584,7.338a49.008,49.008,0,0,1-4.484,6.5,38.7,38.7,0,0,1-5.042,5.133c-.523.438-1.942,2.091-2.393.767-.285-.838.92-3.4,1.2-4.171A44.311,44.311,0,0,1,323.437,214.925Z" transform="translate(-285.082 -159.704)" fill="#092942"/>
        <g id="Grupo_105326" data-name="Grupo 105326">
          <g id="Grupo_105325" data-name="Grupo 105325" transform="translate(0)">
            <path id="Trazado_135192" data-name="Trazado 135192" d="M397.013,159.832,314.354,233l-13.115-14.814L383.9,145.019a9.893,9.893,0,0,1,13.964.85h0A9.892,9.892,0,0,1,397.013,159.832Z" transform="translate(-280.762 -142.533)" fill="#fbb040"/>
            <path id="Trazado_135193" data-name="Trazado 135193" d="M294.043,244.77l-20.477,31.341,33.592-16.527Z" transform="translate(-273.566 -169.117)" fill="#f98c6e"/>
            <rect id="Rect치ngulo_36777" data-name="Rect치ngulo 36777" width="101.01" height="7.955" transform="matrix(0.749, -0.663, 0.663, 0.749, 24.398, 80.082)" fill="#9c681c"/>
            <path id="Trazado_135194" data-name="Trazado 135194" d="M280.91,271.934l-7.344,11.24,12.048-5.927Z" transform="translate(-273.566 -176.18)" fill="#39b54a"/>
            <path id="Trazado_135195" data-name="Trazado 135195" d="M409.989,145.019l-8.408,7.444L414.7,167.276l8.408-7.444a9.892,9.892,0,1,0-13.115-14.814Z" transform="translate(-306.853 -142.533)" fill="#f98c6e"/>
            <rect id="Rect치ngulo_36778" data-name="Rect치ngulo 36778" width="7.955" height="19.784" transform="translate(90.157 13.976) rotate(-41.519)" fill="#fff"/>
          </g>
          <path id="Trazado_135196" data-name="Trazado 135196" d="M389.817,161a9.882,9.882,0,0,0,.85-13.964L273.566,250.7l33.592-16.527Z" transform="translate(-273.566 -143.705)" fill="#231f20" opacity="0.25"/>
        </g>
        <path id="Trazado_135197" data-name="Trazado 135197" d="M367.924,222.505c1.905,3.4,2.057,12.725,1.18,16.526,2.916.491,6.207-4.135,9.122-3.645a24.466,24.466,0,0,1-.917-10.76c.166-1.188.384-2.524-.337-3.482-.913-1.212-2.783-1.086-4.2-.535S369.436,222.622,367.924,222.505Z" transform="translate(-298.101 -162.73)" fill="#e67a5c"/>
        <path id="Trazado_135198" data-name="Trazado 135198" d="M339.837,295.376s-18.266,17.013-22.213,30.579-9.523,36.506-9.523,36.506l10.181,2,10.441-32.335,16.526-17.267S346.017,297.85,339.837,295.376Z" transform="translate(-282.546 -182.276)" fill="#092942"/>
        <path id="Trazado_135199" data-name="Trazado 135199" d="M346.334,295.376a134.3,134.3,0,0,0-13.246,14.678c.994,5.206,2.184,10.386,3.353,15.461q.494,2.139,1.016,4.271l14.29-14.931S352.514,297.85,346.334,295.376Z" transform="translate(-289.043 -182.276)" fill="#051d2e"/>
        <path id="Trazado_135200" data-name="Trazado 135200" d="M369.764,282.447c-.928,2.469-7.848,5.589-10.491,6.1a7.19,7.19,0,0,1-6.251-2.207c-1.6-1.615-3.191-3.638-3.222-5.886-.456-33.38,5.736-40.406,11.365-45.966,4.92-4.859,11.558-3.98,15.306,1.726,4.146,6.31,1.953,14.827.292,21.592C374.515,266.964,373.508,272.488,369.764,282.447Z" transform="translate(-293.383 -165.622)" fill="#0e4066"/>
        <path id="Trazado_135201" data-name="Trazado 135201" d="M362.917,272.9A53.874,53.874,0,0,0,373,241.982a43.872,43.872,0,0,1-9.933,15.14,10.676,10.676,0,0,1-2.169,1.866c-2.337,1.4-5.3,1.07-7.954.427-.585-.141-1.173-.3-1.76-.447-.475,3.086-.837,6.649-1.06,10.777A79.4,79.4,0,0,0,362.917,272.9Z" transform="translate(-293.472 -168.392)" fill="#092942"/>
        <path id="Trazado_135202" data-name="Trazado 135202" d="M365.616,317.868c2.45-7.523,4.228-11.642,3.955-19.819-12.659,3.853-20.372-2.673-20.372-2.673-1.983,18.078-2.449,27.772-.007,45.8,1.434,10.587,12.125,25.955,18.149,35.055,2.6-.651,3.786-1.179,6.382-1.83-2.237-8.4-6.334-23.573-10.784-31.188C363.988,333.766,362.622,327.064,365.616,317.868Z" transform="translate(-292.799 -182.276)" fill="#092942"/>
        <path id="Trazado_135203" data-name="Trazado 135203" d="M335.888,209.4c2.053-1.7,5.938-2.6,8.384-1.552.629.271,1.276.76,1.3,1.444.034.877-.926,1.423-1.756,1.709a22.012,22.012,0,0,1-8.053,1.175C334.9,211.931,333.835,211.1,335.888,209.4Z" transform="translate(-289.464 -159.4)" fill="#f98c6e"/>
        <path id="Trazado_135204" data-name="Trazado 135204" d="M358.48,257.99a5.646,5.646,0,0,0,2.393-.186,5.3,5.3,0,0,0,2.472-2.673,37.213,37.213,0,0,0,3.942-11.618,7.615,7.615,0,0,0-2.079-6.908,23.4,23.4,0,0,0-8.581,15.426c-1.279-.036-2.629-.059-3.967-.085-.411,1.675-.782,3.522-1.1,5.591Z" transform="translate(-293.846 -166.994)" fill="#092942"/>
        <g id="Grupo_105327" data-name="Grupo 105327" transform="translate(32.464 66.044)">
          <path id="Trazado_135205" data-name="Trazado 135205" d="M322.746,254.194a5.451,5.451,0,0,0-2.542-2.153,2.131,2.131,0,0,0-2.729,1.274c-.343,1.578,1.763,3.069,1.13,4.555-.181.426-.564.737-.777,1.149a2.22,2.22,0,0,0,.514,2.445,6.091,6.091,0,0,0,2.283,1.333,9.065,9.065,0,0,0,3.616.832,2.852,2.852,0,0,0,2.06-.843c.987-1.13-.138-2.822-.676-3.906A30.442,30.442,0,0,0,322.746,254.194Z" transform="translate(-317.438 -237.025)" fill="#f98c6e"/>
          <path id="Trazado_135206" data-name="Trazado 135206" d="M350.852,253.9c2.259-9.131,1.978-11.348,5.208-17.35a10.036,10.036,0,0,1,5.18-4.219,6.4,6.4,0,0,1,6.393.676,6.481,6.481,0,0,1,2.108,4.667,15.6,15.6,0,0,1-.819,5.18c-3.445,11.735-5.241,13.413-12.412,23.321-9.777-.915-22.688-2.943-29.622-6.6-1.408-.743-1.5-3.135-.656-4.485.913-1.461,3.015-1.49,4.708-1.174C336.382,254.929,342.541,254.054,350.852,253.9Z" transform="translate(-319.584 -231.785)" fill="#0e4066"/>
        </g>
        <path id="Trazado_135207" data-name="Trazado 135207" d="M307.09,383.064l11.994,3.237-1.294,4.07-11.736-3.113Z" transform="translate(-282.014 -205.077)" fill="#0e4066"/>
        <path id="Trazado_135208" data-name="Trazado 135208" d="M380.54,397.8l-8.665,3.955,1.89,3.884,8.386-3.885Z" transform="translate(-299.129 -208.909)" fill="#0e4066"/>
        <path id="Trazado_135209" data-name="Trazado 135209" d="M310.8,400.834v-2.29l-22.429-.295a1,1,0,0,0-.346.795c.062.779,1.077,1.015,1.857,1.043Z" transform="translate(-277.324 -209.025)" fill="#808285"/>
        <path id="Trazado_135210" data-name="Trazado 135210" d="M359.543,416.5c-.388.236-.73.556-.7.986.054.672.929.876,1.6.9,4.346.155,11.277.311,17.059.466a3.586,3.586,0,0,0,3.619-2.89Q370.339,416.35,359.543,416.5Z" transform="translate(-295.741 -213.63)" fill="#808285"/>
        <g id="Grupo_105330" data-name="Grupo 105330" transform="translate(57.712 30.352)">
          <g id="Grupo_105328" data-name="Grupo 105328">
            <path id="Trazado_135211" data-name="Trazado 135211" d="M357.391,213.042c-.3,2.377.008,6.058,1.6,7.848a5.871,5.871,0,0,0,5.383,1.589,12.873,12.873,0,0,0,5.231-2.531,33.031,33.031,0,0,0,7.089-7.093c1.853-2.528,3.391-5.721,2.462-8.715a8.642,8.642,0,0,0-4.638-4.839,11.841,11.841,0,0,0-8.142-1.067C359.539,200.012,358.127,207.18,357.391,213.042Z" transform="translate(-353.048 -187.287)" fill="#f98c6e"/>
            <path id="Trazado_135212" data-name="Trazado 135212" d="M373.484,208.247a7.823,7.823,0,0,0-6.4-9.447,19.346,19.346,0,0,0-5.716.364,10.061,10.061,0,0,1-5.653-.425,6.963,6.963,0,0,1-3.341-3.654,12.071,12.071,0,0,1-.814-4.961,9.9,9.9,0,0,1,.609-3.489,5.066,5.066,0,0,1,2.267-2.65,4.028,4.028,0,0,1,5.674,4.862,11.908,11.908,0,0,1,5.4-4.215c1.308-.534,2.984-.761,3.988.232a2.858,2.858,0,0,1,.67,2.5,7.33,7.33,0,0,1-1.047,2.463,9.042,9.042,0,0,1,7.822-2.5,1.532,1.532,0,0,1,.87.366,1.512,1.512,0,0,1,.1,1.561,6.515,6.515,0,0,1-3.018,3.466c2.105.821,4.333,1.736,5.63,3.586a7.707,7.707,0,0,1,1.171,5.048,10.7,10.7,0,0,1-4.865,8.14,3.183,3.183,0,0,1-2.115.607A1.718,1.718,0,0,1,373.484,208.247Z" transform="translate(-351.558 -183.551)" fill="#092942"/>
            <path id="Trazado_135213" data-name="Trazado 135213" d="M381.81,214.859a2.05,2.05,0,0,1,1.468-.229,1.549,1.549,0,0,1,.974,1.291,3.264,3.264,0,0,1-.3,1.66,7.707,7.707,0,0,1-3.885,4.03,1.215,1.215,0,0,1-1.123.084c-.924-.582-.615-3.061-.238-3.948A6.556,6.556,0,0,1,381.81,214.859Z" transform="translate(-358.521 -191.617)" fill="#f98c6e"/>
          </g>
          <path id="Trazado_135214" data-name="Trazado 135214" d="M369.819,211.882c-.429,1.078-1.251,1.764-1.834,1.531s-.71-1.295-.28-2.372,1.251-1.764,1.834-1.532S370.248,210.8,369.819,211.882Z" transform="translate(-355.69 -190.289)" fill="#092942"/>
          <path id="Trazado_135215" data-name="Trazado 135215" d="M361.537,211.882c-.429,1.078-1.251,1.764-1.834,1.531s-.71-1.295-.28-2.372,1.251-1.764,1.834-1.532S361.966,210.8,361.537,211.882Z" transform="translate(-353.537 -190.289)" fill="#092942"/>
          <path id="Trazado_135216" data-name="Trazado 135216" d="M360.851,217.064a3.277,3.277,0,0,0-.721.281.682.682,0,0,0-.349.643.782.782,0,0,0,.532.532,2.222,2.222,0,0,0,2.348-.55,2.715,2.715,0,0,0,.66-2.369c-.046-.241-.228-.741-.554-.555-.221.126-.294.638-.423.852A2.826,2.826,0,0,1,360.851,217.064Z" transform="translate(-353.695 -191.73)" fill="#d1684b"/>
          <g id="Grupo_105329" data-name="Grupo 105329" transform="translate(10.261 26.814)">
            <path id="Trazado_135217" data-name="Trazado 135217" d="M366.393,222.805a3.038,3.038,0,0,1-.68-.076.37.37,0,1,1,.164-.721,2.39,2.39,0,0,0,2.887-1.915.37.37,0,1,1,.728.129,3.122,3.122,0,0,1-3.1,2.583Z" transform="translate(-365.425 -219.787)" fill="#d1684b"/>
          </g>
        </g>
      </g>
      <path id="Trazado_135218" data-name="Trazado 135218" d="M304,143.436a21.769,21.769,0,0,1-7.674,5c-5.938,9.327-1.313,10.5,3.516,7.847q2.874-1.579,5.745-3.163a1.946,1.946,0,0,0,.831-.687,1.967,1.967,0,0,0-.09-1.566C305.521,148.546,305.829,145.071,304,143.436Z" transform="translate(-66.163 -29.327)" fill="#e67a5c"/>
      <path id="Trazado_135219" data-name="Trazado 135219" d="M275.995,246.922a40.865,40.865,0,0,0-3.2,5.3,1.727,1.727,0,0,0-.262,1.249,1.184,1.184,0,0,0,.915.734,3.486,3.486,0,0,0,1.222-.037,35.272,35.272,0,0,0-1.228,5.842,1.135,1.135,0,0,0,.933.986c.589.043,2.184-2.212,3.479-4.46a14.16,14.16,0,0,0,2.72-1.361,4.645,4.645,0,0,0,1.858-2.3,5.043,5.043,0,0,0-.914-4.285,6.162,6.162,0,0,0-2-1.922C278.7,246.211,276.905,246.721,275.995,246.922Z" transform="translate(-60.693 -56.122)" fill="#f98c6e"/>
      <path id="Trazado_135220" data-name="Trazado 135220" d="M298.383,165.382c1.305,21.367-5.77,44.747-15.454,63.989a15.848,15.848,0,0,1-7.184-.742c1.2-16.776,4.527-33.345,8.872-49.594.738-2.758,1.552-5.6,3.389-7.788S295.751,164.276,298.383,165.382Z" transform="translate(-61.54 -34.991)" fill="#1c75bc"/>
      <g id="Grupo_105334" data-name="Grupo 105334" transform="translate(233.07 98.853)">
        <g id="Grupo_105332" data-name="Grupo 105332">
          <path id="Trazado_135221" data-name="Trazado 135221" d="M315.713,155.559c-2.029,1.515-5.629,3.207-8.24,2.806a6.423,6.423,0,0,1-4.686-3.722,11.792,11.792,0,0,1-.772-5.779,30.193,30.193,0,0,1,2.353-9.777c1.242-2.913,3.287-5.912,6.621-6.712a10.41,10.41,0,0,1,7.258,1.367,12.432,12.432,0,0,1,5.849,6.34C326.524,146.824,320.714,151.826,315.713,155.559Z" transform="translate(-301.427 -125.251)" fill="#f98c6e"/>
          <path id="Trazado_135222" data-name="Trazado 135222" d="M304.482,136.85c4.025,1.159,7.145.553,9.161-3.338,1,4.589,9.686,20.208,18.087,12.729-4.122-2.127-3.883-6.452-5.263-10.658a10.619,10.619,0,0,0-2.736-4.592,6.66,6.66,0,0,0-5.226-1.811,20,20,0,0,0,3.187-1.484c.34-.2.706-.454.73-.82.034-.53-.65-.851-1.231-.936a5.558,5.558,0,0,0-4.159,1.065,6.347,6.347,0,0,0-2.913-3.748,2.794,2.794,0,0,0-1.173-.434,1.223,1.223,0,0,0-1.106.435,1.346,1.346,0,0,0-.124.982,6.414,6.414,0,0,0,1.736,3.425,8.231,8.231,0,0,0-7.264,3.024,20.107,20.107,0,0,0-3.355,6.934C303.225,137.5,304.09,136.974,304.482,136.85Z" transform="translate(-301.653 -122.819)" fill="#092942"/>
          <path id="Trazado_135223" data-name="Trazado 135223" d="M306.551,139.674a2,2,0,0,0-.664-1.367,1.863,1.863,0,0,0-1.78-.141,3.437,3.437,0,0,0-1.362,1.136,7.1,7.1,0,0,0-1.423,5.434,1.208,1.208,0,0,0,.593,1c1.091.475,3.209-1.1,3.806-1.893A6,6,0,0,0,306.551,139.674Z" transform="translate(-301.239 -126.768)" fill="#f98c6e"/>
        </g>
        <path id="Trazado_135224" data-name="Trazado 135224" d="M317.638,149.173c-.744.936-.891,2-.327,2.368s1.626-.085,2.37-1.021.891-2,.326-2.369S318.382,148.236,317.638,149.173Z" transform="translate(-305.329 -129.372)" fill="#092942"/>
        <path id="Trazado_135225" data-name="Trazado 135225" d="M322.579,156.2c-.744.936-.89,2-.326,2.368s1.625-.085,2.37-1.021.89-2,.326-2.368S323.324,155.261,322.579,156.2Z" transform="translate(-306.614 -131.199)" fill="#092942"/>
        <path id="Trazado_135226" data-name="Trazado 135226" d="M318.107,159.211a3.025,3.025,0,0,1,.169.761.661.661,0,0,1-.388.637.938.938,0,0,1-.812-.169,2.138,2.138,0,0,1-.89-2.283,2.78,2.78,0,0,1,1.806-1.817c.252-.089.824-.2.846.176.016.255-.417.588-.538.811A2.571,2.571,0,0,0,318.107,159.211Z" transform="translate(-305.109 -131.513)" fill="#d1684b"/>
        <g id="Grupo_105333" data-name="Grupo 105333" transform="translate(5.831 22.536)">
          <path id="Trazado_135227" data-name="Trazado 135227" d="M309.68,157.368a3.21,3.21,0,0,0,.477.537.438.438,0,0,0,.577,0,.344.344,0,0,0-.006-.523,2.353,2.353,0,0,1-.793-1.752,2.313,2.313,0,0,1,.847-1.712.343.343,0,0,0,.023-.522.438.438,0,0,0-.576-.027,2.9,2.9,0,0,0-.549,4Z" transform="translate(-309.118 -153.274)" fill="#d1684b"/>
        </g>
      </g>
      <g id="Grupo_105338" data-name="Grupo 105338" transform="translate(79.599 200.633)">
        <path id="Trazado_135228" data-name="Trazado 135228" d="M195.753,358.547a17.475,17.475,0,0,1,5.033-.2,5.91,5.91,0,0,1,4.2,2.514c1.072,1.754.783,4.006.234,5.989a51.977,51.977,0,0,1-4.791,10.788c-4.412,8.115-9.056,16.1-13.7,24.086a14.325,14.325,0,0,1-4.4-.274,4.385,4.385,0,0,1-2.94-2.783,6.49,6.49,0,0,1,.117-2.942q2.538-13,5.078-25.995c.546-2.795,1.143-5.7,2.893-7.951S193.249,357.189,195.753,358.547Z" transform="translate(-116.051 -285.79)" fill="#092942"/>
        <path id="Trazado_135229" data-name="Trazado 135229" d="M203.656,375.463a8.4,8.4,0,0,1-.472-.787,28.563,28.563,0,0,1-3.075-10.939,27.566,27.566,0,0,1,.146-5.451c-.818.055-1.638.164-2.449.275a3.312,3.312,0,0,0-1.187-.362q-2.086.546-4.165,1.117a10.542,10.542,0,0,0-2.923,2.482,14.117,14.117,0,0,0-2.373,5.507c1.034,1.407,2,2.875,3.01,4.293a68.89,68.89,0,0,0,9.636,10.91c.9-1.614,1.8-3.228,2.679-4.851Q203.076,376.565,203.656,375.463Z" transform="translate(-118.104 -285.803)" fill="#051d2e"/>
        <path id="Trazado_135230" data-name="Trazado 135230" d="M196.981,384.719a51.939,51.939,0,0,0-4.92-7.022c-1.634-1.858-4.034-3.6-6.393-2.858-.11.035-.211.087-.316.13l-2.437,12.478a6.66,6.66,0,0,1,1.192.4,12.351,12.351,0,0,1,5.638,6.444,23.126,23.126,0,0,1,1.44,5.7q3.684-6.363,7.281-12.776C197.995,386.367,197.488,385.535,196.981,384.719Z" transform="translate(-117 -290.085)" fill="#051d2e"/>
        <path id="Trazado_135231" data-name="Trazado 135231" d="M132.786,318.195a188.034,188.034,0,0,0,35.691,31.793c-1.241,1.588-2.658,3.315-4.657,3.567-1.64.207-3.209-.637-4.646-1.453-6.564-3.725-13.222-7.52-18.508-12.908A28.5,28.5,0,0,1,132.786,318.195Z" transform="translate(-103.954 -275.401)" fill="#8dc63f"/>
        <path id="Trazado_135232" data-name="Trazado 135232" d="M132.786,318.195a28.506,28.506,0,0,0,7.88,21,47.983,47.983,0,0,0,5.438,4.7c.038-1.428.054-2.857.031-4.286-.043-2.66-.19-5.332-.442-7.992Q138.915,325.23,132.786,318.195Z" transform="translate(-103.954 -275.401)" fill="#7cb332"/>
        <path id="Trazado_135233" data-name="Trazado 135233" d="M111.042,313.2q-5.469,2.058-10.767,4.4a7.424,7.424,0,0,0-3.394,2.335c-.938,1.472-.42,3.311.126,4.963q6.815,20.641,15.272,40.918c.354.85,5.114,12.672,6.025,12.81,4.918.747,5.94-10.275,10.868-10.635a8.158,8.158,0,0,0,3.8-.943,5.8,5.8,0,0,0,2.153-3.77c1.584-6.35-4.355-38.4-8.379-44.467S118.358,310.447,111.042,313.2Z" transform="translate(-94.495 -273.803)" fill="#8dc63f"/>
        <path id="Trazado_135234" data-name="Trazado 135234" d="M135.2,359.031a6.384,6.384,0,0,0,1.945.39c-.3-2.835-.748-6.027-1.3-9.321a42.608,42.608,0,0,1-9.529-2.537,51.865,51.865,0,0,1-5.354-2.466,89.846,89.846,0,0,1-16.285-11.609,51.92,51.92,0,0,0,6.7,10.332,45.952,45.952,0,0,0,8.539,6.979A66.468,66.468,0,0,0,135.2,359.031Z" transform="translate(-96.656 -279.378)" fill="#7cb332"/>
        <path id="Trazado_135235" data-name="Trazado 135235" d="M117.216,303.62a22.533,22.533,0,0,0-.3,8.585,2.218,2.218,0,0,1-2.355,2.576,21.873,21.873,0,0,1-3.389-.507,2.644,2.644,0,0,1-1.214-.527,2.808,2.808,0,0,1-.683-1.676q-.691-4.14-1.384-8.28a3.49,3.49,0,0,1,.15-2.329c.542-.93,1.779-1.142,2.856-1.177a7.674,7.674,0,0,1,3.442.51C115.4,301.279,117.481,302.479,117.216,303.62Z" transform="translate(-97.46 -270.742)" fill="#e67a5c"/>
        <g id="Grupo_105336" data-name="Grupo 105336" transform="translate(0 0)">
          <path id="Trazado_135236" data-name="Trazado 135236" d="M123.067,290.556c.69,2.435.983,6.4-.324,8.7a6.424,6.424,0,0,1-5.151,3.046,11.8,11.8,0,0,1-5.673-1.345,30.2,30.2,0,0,1-8.29-5.692c-2.277-2.2-4.347-5.183-3.9-8.582a10.407,10.407,0,0,1,3.871-6.291,12.418,12.418,0,0,1,8.011-3.2C118.773,277.336,121.367,284.55,123.067,290.556Z" transform="translate(-95.354 -264.74)" fill="#f98c6e"/>
          <path id="Trazado_135237" data-name="Trazado 135237" d="M116.9,291.718c.608,1.03,1.546,1.545,2.095,1.151s.5-1.549-.107-2.578-1.547-1.546-2.1-1.152S116.293,290.688,116.9,291.718Z" transform="translate(-99.708 -267.812)" fill="#092942"/>
          <path id="Trazado_135238" data-name="Trazado 135238" d="M125.227,289.614c.608,1.03,1.546,1.546,2.095,1.151s.5-1.548-.107-2.578-1.546-1.546-2.095-1.151S124.619,288.583,125.227,289.614Z" transform="translate(-101.873 -267.265)" fill="#092942"/>
          <path id="Trazado_135239" data-name="Trazado 135239" d="M126.417,295.033a3.029,3.029,0,0,1,.77.114.662.662,0,0,1,.457.59.94.94,0,0,1-.448.7,2.136,2.136,0,0,1-2.45.016,2.779,2.779,0,0,1-1.052-2.336c.007-.266.108-.84.467-.727.243.077.4.6.565.792A2.576,2.576,0,0,0,126.417,295.033Z" transform="translate(-101.601 -268.947)" fill="#d1684b"/>
          <g id="Grupo_105335" data-name="Grupo 105335" transform="translate(17.897 29.368)">
            <path id="Trazado_135240" data-name="Trazado 135240" d="M121.585,302.557a3.094,3.094,0,0,0,.671-.253.438.438,0,0,0,.207-.539.344.344,0,0,0-.491-.181,2.353,2.353,0,0,1-1.919.114,2.309,2.309,0,0,1-1.3-1.4.344.344,0,0,0-.48-.207.437.437,0,0,0-.232.528,2.9,2.9,0,0,0,3.539,1.942Z" transform="translate(-118.024 -300.052)" fill="#d1684b"/>
          </g>
          <path id="Trazado_135241" data-name="Trazado 135241" d="M102.742,291.417A9.036,9.036,0,0,0,103.2,280.6a59.034,59.034,0,0,0,12.4-3.171c1.745-.647,3.6-1.5,4.443-3.156a5.977,5.977,0,0,0,.267-4.041c-.94-4.061-4.02-7.275-7.279-9.873l1.72,5.143a19.4,19.4,0,0,0-5.637-4.169,41.8,41.8,0,0,1,2.768,7.241,20.731,20.731,0,0,0-11.726,1.978c-3.518,1.924-6.252,5.576-6.31,9.586a11.082,11.082,0,0,0,2.5,6.914C97.893,289.018,100.5,290.3,102.742,291.417Z" transform="translate(-93.839 -260.364)" fill="#092942"/>
          <path id="Trazado_135242" data-name="Trazado 135242" d="M104.19,298.142a1.994,1.994,0,0,0-1.514.132,1.864,1.864,0,0,0-.768,1.612,3.447,3.447,0,0,0,.574,1.678,7.1,7.1,0,0,0,4.566,3.271,1.209,1.209,0,0,0,1.143-.2c.834-.85.117-3.391-.408-4.231A6,6,0,0,0,104.19,298.142Z" transform="translate(-95.937 -270.165)" fill="#f98c6e"/>
        </g>
        <path id="Trazado_135243" data-name="Trazado 135243" d="M103.99,348.873a91.093,91.093,0,0,0,16.9,11.189,57.2,57.2,0,0,0,15.427,5.161c-.087-2.021-.314-4.449-.649-7.105-2.378-.849-4.731-1.763-7.047-2.768a119.191,119.191,0,0,1-28.548-17.52Q101.971,343.364,103.99,348.873Z" transform="translate(-95.46 -280.507)" fill="#7cb332"/>
        <path id="Trazado_135244" data-name="Trazado 135244" d="M107.69,328.87c1.57,6.524,7.153,11.957,13.8,15.442s14.312,5.256,21.934,6.665a5.13,5.13,0,0,1,.9,2,1.931,1.931,0,0,1-.761,2.056,4,4,0,0,1-2.1.435,51.9,51.9,0,0,1-27.346-7.163,41.178,41.178,0,0,1-17.141-19.567,9.068,9.068,0,0,1-.835-3.627,4.009,4.009,0,0,1,1.762-3.265c1.914-1.237,4.824-.592,6.512.865A12.508,12.508,0,0,1,107.69,328.87Z" transform="translate(-94.436 -276.181)" fill="#8dc63f"/>
        <path id="Trazado_135245" data-name="Trazado 135245" d="M191.833,349c.318,1.386.275,5.326.548,7.094-13.493,4.886-27.514,6.794-41.934,10.83l-6.839,1.915a3.451,3.451,0,0,1-2.5.055c-.758-.4-.978-1.718-.185-2.042,14.646-5.975,28.71-13.481,43.74-18.408a12.1,12.1,0,0,1,3.481-.761C189.33,347.663,191.567,347.842,191.833,349Z" transform="translate(-105.951 -283.07)" fill="#92c6f0"/>
        <g id="Grupo_105337" data-name="Grupo 105337" transform="translate(47.926 45.011)">
          <path id="Trazado_135246" data-name="Trazado 135246" d="M162.442,326.365l34.939-5.145a2.578,2.578,0,0,1,2.916,3.011,223.284,223.284,0,0,0-3.188,24.979c-12.366,1.649-24.206,3.129-38.5,5.3.949-9.649,1.4-17.313,1.631-25.653A2.587,2.587,0,0,1,162.442,326.365Z" transform="translate(-158.606 -321.192)" fill="#92c6f0"/>
          <path id="Trazado_135247" data-name="Trazado 135247" d="M191.765,342.875c-.418,2.4-2.389,4.06-4.4,3.709s-3.306-2.58-2.888-4.979,2.389-4.059,4.4-3.708S192.183,340.477,191.765,342.875Z" transform="translate(-165.312 -325.523)" fill="#a6d7ff"/>
        </g>
        <path id="Trazado_135248" data-name="Trazado 135248" d="M128.44,395.531c4.253,1.532,9.393,1.122,13.691-.28,9.926-3.239,17.83-10.668,25.38-17.88,5.224,7.548,11.578,14.8,16.8,22.342,1.119,1.617,2.346,3.321,4.181,4.025s6.586-4.985,6.357-6.493a13.5,13.5,0,0,0-1.658-4.239A240.473,240.473,0,0,0,178.6,369.483c-1.987-2.868-4.249-5.886-7.58-6.922-3.473-1.08-7.181.271-10.585,1.551-10.958,4.122-19.819,5.446-32,9.247C114.5,377.71,121.558,393.053,128.44,395.531Z" transform="translate(-100.751 -286.835)" fill="#092942"/>
        <path id="Trazado_135249" data-name="Trazado 135249" d="M233.087,413.546c.48.094,1.052.272,1.164.748.134.573-.5,1-1.048,1.229-5.46,2.281-11.4,3.094-17.267,3.886a3.942,3.942,0,0,1-2.184-.119,3.571,3.571,0,0,1-1.571-1.979,4.725,4.725,0,0,1-.494-2.577,4.209,4.209,0,0,1,2.3-2.761,9.129,9.129,0,0,1,3.194-1.39,18.048,18.048,0,0,1,3.421.636q4.028.717,8.049,1.476Q230.873,413.115,233.087,413.546Z" transform="translate(-124.472 -299.424)" fill="#fff"/>
        <path id="Trazado_135250" data-name="Trazado 135250" d="M176.744,416.451a3.674,3.674,0,0,0-.087,2.454,2.677,2.677,0,0,0,1.645,1.384,7.664,7.664,0,0,0,2.186.3c3.951.144,7.905.132,11.859.121a20.567,20.567,0,0,0,3.314-.188c.613-.1,1.365-.457,1.29-1.074-.054-.437-.509-.69-.911-.872q-4.46-2.012-9.025-3.781-2.315-.9-4.656-1.73c-.878-.313-2.554-1.273-3.519-.878C177.643,412.672,177.07,415.342,176.744,416.451Z" transform="translate(-115.327 -299.817)" fill="#fff"/>
      </g>
    </g>
  </g>
</svg>
