<svg xmlns="http://www.w3.org/2000/svg" width="48.676" height="56.881" viewBox="0 0 48.676 56.881">
  <g id="Grupo_99659" data-name="Grupo 99659" transform="translate(508.286 302.867)">
    <path id="Trazado_131755" data-name="Trazado 131755" d="M-459.661-254.391c-.291-1.731-.561-3.466-.839-5.2q-1.077-6.705-2.154-13.41-1.144-7.115-2.291-14.23-1.079-6.7-2.161-13.41c-.181-1.108-.572-1.394-1.673-1.219q-6,.952-11.986,1.931-6.7,1.083-13.407,2.165c-1.065.17-1.091.152-1.219-.923a4.381,4.381,0,0,0-2.479-3.8c-.341-.16-.711-.256-1.068-.382h-1.222a.471.471,0,0,1-.132.078,4.075,4.075,0,0,0-3.362,3.448,8.021,8.021,0,0,0,.237,2.638c.052.333-.007.453-.355.5-1.134.162-2.263.36-3.395.544a1.128,1.128,0,0,0-1.118,1.306q0,23.521,0,47.041c0,.923.4,1.32,1.317,1.32q7.192,0,14.385,0c.815,0,1.154-.291,1.328-1.108a.958.958,0,0,0-.612-1.139,2.5,2.5,0,0,0-1.091-.149q-5.97,0-11.94,0c-.973,0-.974,0-.974-.985q0-21.409,0-42.817c0-.185.006-.37.005-.555,0-.348.169-.5.512-.5.555,0,1.111.017,1.666-.008.466-.021.668.186.727.632a15.2,15.2,0,0,0,.3,1.806,4.322,4.322,0,0,0,4.33,3.309,4.313,4.313,0,0,0,4.081-4.949c-.1-.783-.092-.787.673-.794h23.658c1.129,0,1.13,0,1.13,1.114q0,21.353,0,42.706c0,.185,0,.37,0,.555a.416.416,0,0,1-.469.481c-.2,0-.407.006-.611.006q-6.053,0-12.107,0a2.788,2.788,0,0,0-1.1.126.968.968,0,0,0-.662,1.162c.189.824.52,1.108,1.331,1.108q7.357,0,14.714,0a1.137,1.137,0,0,0,1.3-1.289c.006-1.314.019-2.629-.01-3.942-.008-.367.138-.465.447-.519,1.691-.3,3.381-.613,5.071-.918C-459.772-252.858-459.477-253.293-459.661-254.391Zm-38.178-42.773c-1.005.133-2,.318-3,.493-.218.038-.341.018-.376-.239-.08-.6-.184-1.2-.264-1.717a1.949,1.949,0,0,1,1.659-2,1.9,1.9,0,0,1,2.091,1.5c.1.487.148.986.243,1.475C-497.429-297.351-497.473-297.213-497.839-297.164Z"/>
    <path id="Trazado_131756" data-name="Trazado 131756" d="M-478.576-193.024c-.175-.839-.508-1.112-1.38-1.112-4.3,0-8.591-.006-12.887.008-.415,0-.553-.077-.553-.532q.02-22.079,0-44.159c0-.431.1-.569.541-.544a17.452,17.452,0,0,0,2.109,0c.453-.029.557.157.6.553.075.66.181,1.32.321,1.969a4.132,4.132,0,0,0,4.872,3.145,4.149,4.149,0,0,0,3.2-4.7c-.156-.956-.156-.956.831-.956q12.192,0,24.385-.014c.527,0,.614.158.614.639q-.019,22,0,43.992c0,.461-.072.615-.586.612-4.388-.025-8.776-.015-13.164-.014-.868,0-1.195.267-1.384,1.112-.7,0-1.394,0-2.091,0-.2,0-.4-.012-.533.189-.157-.082-.148-.245-.179-.384a.9.9,0,0,0-.846-.752.911.911,0,0,0-.935.558c-.079.141-.1.325-.281.39Z" transform="translate(-12.679 -54.072)" fill="#fed789"/>
    <path id="Trazado_131757" data-name="Trazado 131757" d="M-375.69,66.355c.273-.937.869-1.318,1.578-1.011a1.1,1.1,0,0,1,.663,1.2c-.245.669-.656.981-1.2.912A1.235,1.235,0,0,1-375.69,66.355Z" transform="translate(-112.909 -313.454)" fill="#010101"/>
    <path id="Trazado_131758" data-name="Trazado 131758" d="M-225.936-132.711v-27.811l.049,0q.74,4.59,1.48,9.181,1.192,7.415,2.38,14.83c.143.894.277,1.789.433,2.681.039.226.012.34-.238.384C-223.193-133.212-224.552-132.962-225.936-132.711Z" transform="translate(-240.429 -121.208)" fill="#fec035"/>
    <path id="Trazado_131759" data-name="Trazado 131759" d="M-405.089-276.446c1.771-.289,3.423-.561,5.076-.829l15.649-2.531c.893-.144,1.79-.273,2.681-.431.267-.047.39-.032.435.284.151,1.061.336,2.116.513,3.173.042.254.034.4-.309.395q-11.9-.02-23.81-.019A2.273,2.273,0,0,1-405.089-276.446Z" transform="translate(-87.875 -19.253)" fill="#fec035"/>
    <path id="Trazado_131760" data-name="Trazado 131760" d="M-454.487-239.343c.462,0,.925.028,1.384-.008.384-.03.576.071.6.481.017.348.115.693.133,1.042a1.9,1.9,0,0,1-1.726,2.011,1.938,1.938,0,0,1-2.032-1.588c-.058-.308-.093-.62-.137-.93-.144-1.007-.144-1.007.9-1.007Z" transform="translate(-44.237 -54.081)" fill="#fed789"/>
    <path id="Trazado_131761" data-name="Trazado 131761" d="M-436.261-176.837c.7-2.048,1.369-3.983,2.032-5.918.269-.785.527-1.575.8-2.358a1.152,1.152,0,0,1,1.242-.894q6.55-.007,13.1,0a1.107,1.107,0,0,1,1.237,1.126c-.006.664-.484,1.09-1.262,1.091-3.96,0-7.919.01-11.879-.008a.635.635,0,0,0-.726.529c-1.079,3.218-2.188,6.427-3.288,9.638-.245.715-.59,1.04-1.134,1.037-.633,0-.939-.407-1.159-.943-.629-1.537-1.292-3.059-1.9-4.6a.653.653,0,0,0-.772-.5,3.8,3.8,0,0,1-.885-.028,1.053,1.053,0,0,1-.952-1.1,1.032,1.032,0,0,1,.993-1.061c.738-.037,1.479-.025,2.219-.008a1.109,1.109,0,0,1,1.012.817C-437.163-179-436.737-177.983-436.261-176.837Z" transform="translate(-56.606 -99.506)"/>
    <path id="Trazado_131762" data-name="Trazado 131762" d="M-444.629-75.288h-11.492c-.185,0-.371.005-.555-.008a1.106,1.106,0,0,1-1.066-1.069,1.11,1.11,0,0,1,.954-1.123,3.385,3.385,0,0,1,.553-.021h23.318a2.131,2.131,0,0,1,.768.077,1.074,1.074,0,0,1,.721,1.175,1.061,1.061,0,0,1-.932.951,4.969,4.969,0,0,1-.61.018Z" transform="translate(-43.039 -191.897)"/>
    <path id="Trazado_131763" data-name="Trazado 131763" d="M-387.51-43.488c.4-1.133.719-2.116,1.086-3.08a1.1,1.1,0,0,1,1.874-.383,1.1,1.1,0,0,1,.195,1.144q-1.455,4.214-2.919,8.424a1.094,1.094,0,0,1-1.445.753,1.132,1.132,0,0,1-.653-1.461.483.483,0,0,1,.042-.1,4.115,4.115,0,0,0-.041-3.94c-.516-1.139-.857-2.357-1.268-3.543a1.14,1.14,0,0,1,.569-1.58,1.135,1.135,0,0,1,1.511.817C-388.219-45.511-387.895-44.575-387.51-43.488Z" transform="translate(-100.091 -217.589)"/>
    <path id="Trazado_131764" data-name="Trazado 131764" d="M-350.612-144.091c-.458.605-.874,1.169-1.306,1.722a1.113,1.113,0,0,1-1.639.321,1.11,1.11,0,0,1-.124-1.666c.46-.625.913-1.257,1.409-1.854a.486.486,0,0,0-.015-.748c-.425-.511-.818-1.049-1.208-1.588a1.1,1.1,0,0,1,.158-1.621,1.129,1.129,0,0,1,1.609.286c.367.462.717.938,1.109,1.453.374-.495.719-.964,1.079-1.422a1.135,1.135,0,0,1,1.647-.307,1.1,1.1,0,0,1,.136,1.624c-.378.524-.756,1.051-1.169,1.548a.509.509,0,0,0-.014.79c.524.62,1,1.282,1.482,1.937a1.119,1.119,0,0,1-.124,1.668,1.112,1.112,0,0,1-1.638-.319C-349.676-142.848-350.117-143.44-350.612-144.091Z" transform="translate(-131.383 -130.385)"/>
  </g>
</svg>
