<svg xmlns="http://www.w3.org/2000/svg" width="295" height="249.779" viewBox="0 0 295 249.779">
  <g id="Grupo_84960" data-name="Grupo 84960" transform="translate(-1020 -10455)">
    <circle id="Elipse_5047" data-name="Elipse 5047" cx="95" cy="95" r="95" transform="translate(1125 10455)" fill="#feefbf"/>
    <g id="Grupo_105180" data-name="Grupo 105180" transform="translate(1010.652 10439.476)">
      <g id="Floor" transform="translate(9.348 122.442)">
        <ellipse id="Floor-2" data-name="Floor" cx="124.667" cy="71.431" rx="124.667" ry="71.431" fill="#f5f5f5"/>
      </g>
      <g id="Shadows" transform="translate(18.754 172.436)">
        <ellipse id="Shadow" cx="10.942" cy="6.317" rx="10.942" ry="6.317" transform="translate(0 33.366)" fill="#e6e6e6"/>
        <ellipse id="Shadow-2" data-name="Shadow" cx="10.942" cy="6.317" rx="10.942" ry="6.317" transform="translate(27.183 51.899)" fill="#e6e6e6"/>
        <path id="Shadow-3" data-name="Shadow" d="M282.406,350.987c-12.446-7.186-32.626-7.186-45.072,0-10.55,6.092-12.153,15.39-4.817,22.459a5.3,5.3,0,0,0-1.186.482l-39.32,22.7c-1.669.964-1.669,2.526,0,3.49l2.461,1.421a6.211,6.211,0,0,0,5.942-.167l36.621-23.967a3.7,3.7,0,0,0,.421-.331c12.455,7.117,32.544,7.1,44.951-.067C294.853,369.823,294.853,358.173,282.406,350.987Z" transform="translate(-105.795 -324.567)" fill="#e6e6e6"/>
        <path id="Shadow-4" data-name="Shadow" d="M426.756,309.227c9.862,5.556,9.961,14.733.221,20.5s-25.634,5.938-35.5.383-9.965-14.732-.221-20.5S416.894,303.672,426.756,309.227Z" transform="translate(-198.517 -305.17)" fill="#e0e0e0"/>
      </g>
      <g id="Grid" transform="translate(32.636 41.958)">
        <g id="Grid-2" data-name="Grid">
          <g id="Grupo_105028" data-name="Grupo 105028">
            <g id="Grupo_105011" data-name="Grupo 105011" transform="translate(0.161 13.171)">
              <rect id="Rectángulo_36747" data-name="Rectángulo 36747" width="125.945" height="0.55" transform="translate(0 63.055) rotate(-30.043)" fill="#e0e0e0"/>
            </g>
            <g id="Grupo_105012" data-name="Grupo 105012" transform="translate(0.159 26.394)">
              <rect id="Rectángulo_36748" data-name="Rectángulo 36748" width="125.945" height="0.55" transform="translate(0 63.05) rotate(-30.041)" fill="#e0e0e0"/>
            </g>
            <g id="Grupo_105013" data-name="Grupo 105013" transform="translate(0.146 39.638)">
              <rect id="Rectángulo_36749" data-name="Rectángulo 36749" width="125.945" height="0.55" transform="translate(0 63.004) rotate(-30.016)" fill="#e0e0e0"/>
            </g>
            <g id="Grupo_105014" data-name="Grupo 105014" transform="translate(0.145 52.861)">
              <rect id="Rectángulo_36750" data-name="Rectángulo 36750" width="125.945" height="0.55" transform="translate(0 62.999) rotate(-30.014)" fill="#e0e0e0"/>
            </g>
            <g id="Grupo_105015" data-name="Grupo 105015" transform="translate(0.146 66.08)">
              <rect id="Rectángulo_36751" data-name="Rectángulo 36751" width="125.945" height="0.55" transform="translate(0 63.004) rotate(-30.016)" fill="#e0e0e0"/>
            </g>
            <g id="Grupo_105016" data-name="Grupo 105016" transform="translate(0.146 79.301)">
              <rect id="Rectángulo_36752" data-name="Rectángulo 36752" width="125.945" height="0.55" transform="translate(0 63.004) rotate(-30.016)" fill="#e0e0e0"/>
            </g>
            <g id="Grupo_105017" data-name="Grupo 105017" transform="translate(9.916 57.523)">
              <rect id="Rectángulo_36753" data-name="Rectángulo 36753" width="0.55" height="92.546" fill="#e0e0e0"/>
            </g>
            <g id="Grupo_105018" data-name="Grupo 105018" transform="translate(19.831 51.798)">
              <rect id="Rectángulo_36754" data-name="Rectángulo 36754" width="0.55" height="92.546" fill="#e0e0e0"/>
            </g>
            <g id="Grupo_105019" data-name="Grupo 105019" transform="translate(29.747 46.073)">
              <rect id="Rectángulo_36755" data-name="Rectángulo 36755" width="0.55" height="92.546" fill="#e0e0e0"/>
            </g>
            <g id="Grupo_105020" data-name="Grupo 105020" transform="translate(39.663 40.348)">
              <rect id="Rectángulo_36756" data-name="Rectángulo 36756" width="0.55" height="92.546" fill="#e0e0e0"/>
            </g>
            <g id="Grupo_105021" data-name="Grupo 105021" transform="translate(49.578 34.624)">
              <rect id="Rectángulo_36757" data-name="Rectángulo 36757" width="0.55" height="92.546" fill="#e0e0e0"/>
            </g>
            <g id="Grupo_105022" data-name="Grupo 105022" transform="translate(59.494 28.899)">
              <rect id="Rectángulo_36758" data-name="Rectángulo 36758" width="0.55" height="92.546" fill="#e0e0e0"/>
            </g>
            <g id="Grupo_105023" data-name="Grupo 105023" transform="translate(69.409 23.174)">
              <rect id="Rectángulo_36759" data-name="Rectángulo 36759" width="0.55" height="92.546" fill="#e0e0e0"/>
            </g>
            <g id="Grupo_105024" data-name="Grupo 105024" transform="translate(79.325 17.449)">
              <rect id="Rectángulo_36760" data-name="Rectángulo 36760" width="0.55" height="92.546" fill="#e0e0e0"/>
            </g>
            <g id="Grupo_105025" data-name="Grupo 105025" transform="translate(89.241 11.724)">
              <rect id="Rectángulo_36761" data-name="Rectángulo 36761" width="0.55" height="92.546" fill="#e0e0e0"/>
            </g>
            <g id="Grupo_105026" data-name="Grupo 105026" transform="translate(99.156 6)">
              <rect id="Rectángulo_36762" data-name="Rectángulo 36762" width="0.55" height="92.546" fill="#e0e0e0"/>
            </g>
            <g id="Grupo_105027" data-name="Grupo 105027">
              <path id="Trazado_134674" data-name="Trazado 134674" d="M54.39,210.371a.283.283,0,0,1-.138-.036.276.276,0,0,1-.137-.238V117.6a.275.275,0,0,1,.137-.238L163.324,54.385a.275.275,0,0,1,.413.238v92.5a.275.275,0,0,1-.137.238L54.528,210.335A.283.283,0,0,1,54.39,210.371Zm.275-92.616V209.62l108.523-62.656V55.1Z" transform="translate(-54.115 -54.349)" fill="#e0e0e0"/>
            </g>
          </g>
          <g id="Grupo_105044" data-name="Grupo 105044" transform="translate(0 92.5)">
            <g id="Grupo_105029" data-name="Grupo 105029" transform="translate(10.03 5.722)">
              <rect id="Rectángulo_36763" data-name="Rectángulo 36763" width="125.945" height="0.55" transform="translate(0 63.013) rotate(-30.021)" fill="#e0e0e0"/>
            </g>
            <g id="Grupo_105030" data-name="Grupo 105030" transform="translate(19.944 11.449)">
              <rect id="Rectángulo_36764" data-name="Rectángulo 36764" width="125.945" height="0.55" transform="translate(0 63.007) rotate(-30.018)" fill="#e0e0e0"/>
            </g>
            <g id="Grupo_105031" data-name="Grupo 105031" transform="translate(29.861 17.171)">
              <rect id="Rectángulo_36765" data-name="Rectángulo 36765" width="125.945" height="0.55" transform="translate(0 63.013) rotate(-30.021)" fill="#e0e0e0"/>
            </g>
            <g id="Grupo_105032" data-name="Grupo 105032" transform="translate(39.777 22.896)">
              <rect id="Rectángulo_36766" data-name="Rectángulo 36766" width="125.945" height="0.55" transform="translate(0 63.013) rotate(-30.021)" fill="#e0e0e0"/>
            </g>
            <g id="Grupo_105033" data-name="Grupo 105033" transform="translate(10.053 57.285)">
              <rect id="Rectángulo_36767" data-name="Rectángulo 36767" width="0.55" height="57.247" transform="matrix(0.5, -0.866, 0.866, 0.5, 0, 0.477)" fill="#e0e0e0"/>
            </g>
            <g id="Grupo_105034" data-name="Grupo 105034" transform="translate(19.968 51.56)">
              <rect id="Rectángulo_36768" data-name="Rectángulo 36768" width="0.55" height="57.248" transform="translate(0 0.477) rotate(-60)" fill="#e0e0e0"/>
            </g>
            <g id="Grupo_105035" data-name="Grupo 105035" transform="translate(29.884 45.835)">
              <rect id="Rectángulo_36769" data-name="Rectángulo 36769" width="0.55" height="57.248" transform="translate(0 0.477) rotate(-60)" fill="#e0e0e0"/>
            </g>
            <g id="Grupo_105036" data-name="Grupo 105036" transform="translate(39.8 40.11)">
              <rect id="Rectángulo_36770" data-name="Rectángulo 36770" width="0.55" height="57.248" transform="matrix(0.5, -0.866, 0.866, 0.5, 0, 0.477)" fill="#e0e0e0"/>
            </g>
            <g id="Grupo_105037" data-name="Grupo 105037" transform="translate(49.715 34.385)">
              <rect id="Rectángulo_36771" data-name="Rectángulo 36771" width="0.55" height="57.248" transform="translate(0 0.477) rotate(-60)" fill="#e0e0e0"/>
            </g>
            <g id="Grupo_105038" data-name="Grupo 105038" transform="translate(59.631 28.661)">
              <rect id="Rectángulo_36772" data-name="Rectángulo 36772" width="0.55" height="57.248" transform="translate(0 0.477) rotate(-60)" fill="#e0e0e0"/>
            </g>
            <g id="Grupo_105039" data-name="Grupo 105039" transform="translate(69.547 22.936)">
              <rect id="Rectángulo_36773" data-name="Rectángulo 36773" width="0.55" height="57.247" transform="translate(0 0.477) rotate(-60)" fill="#e0e0e0"/>
            </g>
            <g id="Grupo_105040" data-name="Grupo 105040" transform="translate(79.462 17.211)">
              <rect id="Rectángulo_36774" data-name="Rectángulo 36774" width="0.55" height="57.248" transform="translate(0 0.477) rotate(-60)" fill="#e0e0e0"/>
            </g>
            <g id="Grupo_105041" data-name="Grupo 105041" transform="translate(89.378 11.486)">
              <rect id="Rectángulo_36775" data-name="Rectángulo 36775" width="0.55" height="57.247" transform="translate(0 0.477) rotate(-60)" fill="#e0e0e0"/>
            </g>
            <g id="Grupo_105042" data-name="Grupo 105042" transform="translate(99.293 5.762)">
              <rect id="Rectángulo_36776" data-name="Rectángulo 36776" width="0.55" height="57.248" transform="translate(0 0.477) rotate(-60)" fill="#e0e0e0"/>
            </g>
            <g id="Grupo_105043" data-name="Grupo 105043">
              <path id="Trazado_134675" data-name="Trazado 134675" d="M103.933,324.291a.276.276,0,0,1-.137-.036l-49.544-28.6a.276.276,0,0,1,0-.477L163.324,232.2a.275.275,0,0,1,.276,0l49.544,28.6a.276.276,0,0,1,0,.477L104.071,324.255A.278.278,0,0,1,103.933,324.291ZM54.94,295.413,103.933,323.7l108.523-62.655-48.994-28.286Z" transform="translate(-54.115 -232.165)" fill="#e0e0e0"/>
            </g>
          </g>
        </g>
      </g>
      <g id="Charts" transform="translate(44.963 59.453)">
        <g id="Charts-2" data-name="Charts">
          <g id="Grupo_105048" data-name="Grupo 105048" transform="translate(0 39.912)">
            <g id="Grupo_105047" data-name="Grupo 105047" transform="translate(0 2.644)">
              <g id="Grupo_105046" data-name="Grupo 105046">
                <g id="Grupo_105045" data-name="Grupo 105045">
                  <path id="Trazado_134676" data-name="Trazado 134676" d="M92.973,175.926c0,5.984-3.394,12.933-7.582,15.526s-7.578-.161-7.578-6.139,3.394-12.933,7.578-15.526v11.481l7.213-8.459A12.206,12.206,0,0,1,92.973,175.926Z" transform="translate(-77.812 -169.787)" fill="#529d2e"/>
                </g>
              </g>
            </g>
            <path id="Trazado_134677" data-name="Trazado 134677" d="M100.936,168.7c-.987-3.733-3.843-5.107-7.212-3.022v11.479Z" transform="translate(-85.447 -164.705)" fill="#a4dc88"/>
          </g>
          <g id="Grupo_105053" data-name="Grupo 105053" transform="translate(24.936 27.052)">
            <g id="Grupo_105051" data-name="Grupo 105051" transform="translate(0 1.442)">
              <g id="Grupo_105050" data-name="Grupo 105050">
                <g id="Grupo_105049" data-name="Grupo 105049">
                  <path id="Trazado_134678" data-name="Trazado 134678" d="M133.326,153.588l4.459,6.011a14.373,14.373,0,0,1-4.459,4.822c-4.184,2.593-7.578-.155-7.578-6.139s3.394-12.933,7.578-15.526Z" transform="translate(-125.748 -142.755)" fill="#529d2e"/>
                </g>
              </g>
            </g>
            <g id="Grupo_105052" data-name="Grupo 105052" transform="translate(8.733)">
              <path id="Trazado_134679" data-name="Trazado 134679" d="M146.992,157.8a21.628,21.628,0,0,0,3.124-10.7c0-5.983-3.394-8.733-7.58-6.142v10.832Z" transform="translate(-142.536 -139.984)" fill="#85d161"/>
            </g>
          </g>
          <g id="Grupo_105058" data-name="Grupo 105058" transform="translate(74.077)">
            <g id="Grupo_105056" data-name="Grupo 105056">
              <g id="Grupo_105055" data-name="Grupo 105055">
                <g id="Grupo_105054" data-name="Grupo 105054">
                  <path id="Trazado_134680" data-name="Trazado 134680" d="M227.426,87.98V98.813l-7.213,1.114C221.2,94.971,224.057,90.064,227.426,87.98Z" transform="translate(-220.213 -87.98)" fill="#529d2e"/>
                </g>
              </g>
            </g>
            <g id="Grupo_105057" data-name="Grupo 105057" transform="translate(0.911 0.268)">
              <path id="Trazado_134681" data-name="Trazado 134681" d="M222.334,101.417a18.381,18.381,0,0,0-.369,3.577c0,5.983,3.394,8.733,7.58,6.142s7.58-9.54,7.58-15.523-3.394-8.733-7.58-6.142V100.3Z" transform="translate(-221.965 -88.496)" fill="#85d161"/>
            </g>
          </g>
          <g id="Grupo_105063" data-name="Grupo 105063" transform="translate(49.693 13.039)">
            <g id="Grupo_105061" data-name="Grupo 105061" transform="translate(0 0.63)">
              <g id="Grupo_105060" data-name="Grupo 105060">
                <g id="Grupo_105059" data-name="Grupo 105059">
                  <path id="Trazado_134682" data-name="Trazado 134682" d="M180.921,114.255v10.833l-4.454,11.524c-1.895-.8-3.129-3.23-3.129-6.836C173.338,123.8,176.732,116.842,180.921,114.255Z" transform="translate(-173.338 -114.255)" fill="#529d2e"/>
                </g>
              </g>
            </g>
            <g id="Grupo_105062" data-name="Grupo 105062" transform="translate(4.345)">
              <path id="Trazado_134683" data-name="Trazado 134683" d="M181.69,136.375a4.824,4.824,0,0,0,4.456-.689c4.186-2.591,7.58-9.541,7.58-15.524s-3.394-8.733-7.58-6.142v10.834Z" transform="translate(-181.69 -113.045)" fill="#85d161"/>
            </g>
          </g>
          <g id="Grupo_105064" data-name="Grupo 105064" transform="translate(2.999 26.802)">
            <path id="Trazado_134684" data-name="Trazado 134684" d="M83.578,230.789v-3.538a.29.29,0,0,1,.132-.227l8.952-5.234c.072-.042.132-.008.132.076V225.4a.291.291,0,0,1-.132.227l-8.952,5.234C83.637,230.907,83.578,230.873,83.578,230.789Z" transform="translate(-83.578 -178.976)" fill="#529d2e"/>
            <path id="Trazado_134685" data-name="Trazado 134685" d="M131.319,203.366v-3.538a.29.29,0,0,1,.132-.227l8.952-5.234c.072-.042.132-.008.132.076v3.538a.291.291,0,0,1-.132.227l-8.952,5.234C131.378,203.484,131.319,203.45,131.319,203.366Z" transform="translate(-106.484 -165.818)" fill="#529d2e"/>
            <path id="Trazado_134686" data-name="Trazado 134686" d="M179.06,175.943V172.4a.29.29,0,0,1,.132-.227l8.952-5.233c.073-.042.132-.008.132.075v3.538a.289.289,0,0,1-.132.227l-8.952,5.234C179.119,176.061,179.06,176.027,179.06,175.943Z" transform="translate(-129.39 -152.661)" fill="#529d2e"/>
            <path id="Trazado_134687" data-name="Trazado 134687" d="M226.8,148.52v-3.538a.29.29,0,0,1,.132-.227l8.952-5.233c.073-.042.132-.008.132.075v3.538a.289.289,0,0,1-.132.227l-8.952,5.234C226.86,148.638,226.8,148.6,226.8,148.52Z" transform="translate(-152.296 -139.503)" fill="#529d2e"/>
          </g>
        </g>
        <g id="Graph" transform="translate(5.511 7.913)">
          <g id="Grupo_105065" data-name="Grupo 105065" transform="translate(0 12.004)">
            <path id="Trazado_134688" data-name="Trazado 134688" d="M197.478,126.266l-9.916,17.049-9.916,29.242-9.916-5.428-9.916,27.28-9.916-5.428-9.916,5.942-9.916,13.731-9.916-.718-9.916,20.357-9.916-.561-9.916,13.788v13.221l2.233,1.29,109.072-62.988V127.556Z" transform="translate(-88.406 -126.266)" fill="#266807"/>
            <path id="Trazado_134689" data-name="Trazado 134689" d="M92.7,244l9.916-13.788,9.916.561,9.916-20.357,9.916.718,9.916-13.731,9.916-5.942,9.916,5.428,9.916-27.28,9.916,5.428,9.916-29.242,9.916-17.049v65.489L92.7,257.222Z" transform="translate(-90.466 -127.456)" fill="#529d2e"/>
            <path id="Trazado_134690" data-name="Trazado 134690" d="M88.406,335.109l2.233,1.29,9.916-13.788-2.234-1.29Z" transform="translate(-88.406 -219.853)" fill="#67c53a"/>
            <path id="Trazado_134691" data-name="Trazado 134691" d="M136.444,283.266l2.234,1.29-9.916,20.357-2.234-1.29Z" transform="translate(-106.697 -201.595)" fill="#67c53a"/>
            <path id="Trazado_134692" data-name="Trazado 134692" d="M164.651,271.981l2.233,1.29,9.916-13.731-2.233-1.29Z" transform="translate(-124.988 -189.592)" fill="#67c53a"/>
            <path id="Trazado_134693" data-name="Trazado 134693" d="M231.75,204.82l2.233,1.29-9.916,27.28-2.234-1.29Z" transform="translate(-152.425 -163.956)" fill="#67c53a"/>
            <path id="Trazado_134694" data-name="Trazado 134694" d="M269.872,159.04l2.234,1.29-9.916,29.242-2.234-1.29Z" transform="translate(-170.716 -141.991)" fill="#67c53a"/>
          </g>
          <g id="Grupo_105090" data-name="Grupo 105090" transform="translate(1.1)">
            <g id="Grupo_105077" data-name="Grupo 105077" transform="translate(0 4.054)">
              <g id="Grupo_105066" data-name="Grupo 105066" transform="translate(99.486)">
                <path id="Trazado_134695" data-name="Trazado 134695" d="M282,124.228a.234.234,0,0,1-.127-.038.23.23,0,0,1-.064-.318l8.473-12.785a.229.229,0,1,1,.382.253l-8.473,12.785A.228.228,0,0,1,282,124.228Z" transform="translate(-281.767 -110.984)" fill="#455a64"/>
              </g>
              <g id="Grupo_105067" data-name="Grupo 105067" transform="translate(89.177 16.819)">
                <path id="Trazado_134696" data-name="Trazado 134696" d="M262.178,168.776a.23.23,0,0,1-.217-.3l8.477-25a.23.23,0,0,1,.435.147l-8.477,25A.23.23,0,0,1,262.178,168.776Z" transform="translate(-261.949 -143.316)" fill="#455a64"/>
              </g>
              <g id="Grupo_105068" data-name="Grupo 105068" transform="translate(80.446 39.562)">
                <path id="Trazado_134697" data-name="Trazado 134697" d="M252.286,191.261a.233.233,0,0,1-.11-.028l-6.892-3.766a.23.23,0,0,1,.221-.4l6.892,3.765a.23.23,0,0,1-.11.431Z" transform="translate(-245.165 -187.036)" fill="#455a64"/>
              </g>
              <g id="Grupo_105069" data-name="Grupo 105069" transform="translate(70.177 41.06)">
                <path id="Trazado_134698" data-name="Trazado 134698" d="M225.655,213.43a.232.232,0,0,1-.079-.014.229.229,0,0,1-.137-.294l8.38-23.056a.229.229,0,0,1,.431.157l-8.38,23.056A.229.229,0,0,1,225.655,213.43Z" transform="translate(-225.425 -189.915)" fill="#455a64"/>
              </g>
              <g id="Grupo_105070" data-name="Grupo 105070" transform="translate(60.615 61.415)">
                <path id="Trazado_134699" data-name="Trazado 134699" d="M214.947,233.7a.226.226,0,0,1-.11-.029l-7.674-4.2a.229.229,0,1,1,.221-.4l7.674,4.2a.23.23,0,0,1-.11.431Z" transform="translate(-207.044 -229.044)" fill="#455a64"/>
              </g>
              <g id="Grupo_105071" data-name="Grupo 105071" transform="translate(51.043 61.682)">
                <path id="Trazado_134700" data-name="Trazado 134700" d="M188.873,234.2a.229.229,0,0,1-.118-.426l6.98-4.183a.229.229,0,0,1,.236.394l-6.98,4.183A.226.226,0,0,1,188.873,234.2Z" transform="translate(-188.644 -229.558)" fill="#455a64"/>
              </g>
              <g id="Grupo_105072" data-name="Grupo 105072" transform="translate(40.954 68.377)">
                <path id="Trazado_134701" data-name="Trazado 134701" d="M169.477,253.2a.229.229,0,0,1-.186-.364l7.445-10.31a.229.229,0,0,1,.372.269L169.663,253.1A.227.227,0,0,1,169.477,253.2Z" transform="translate(-169.248 -242.427)" fill="#455a64"/>
              </g>
              <g id="Grupo_105073" data-name="Grupo 105073" transform="translate(31.087 79.854)">
                <path id="Trazado_134702" data-name="Trazado 134702" d="M157.73,265.472h-.017l-7.219-.523a.229.229,0,0,1-.212-.246.221.221,0,0,1,.245-.212l7.219.523a.229.229,0,0,1-.017.458Z" transform="translate(-150.282 -264.49)" fill="#455a64"/>
              </g>
              <g id="Grupo_105074" data-name="Grupo 105074" transform="translate(20.855 81.829)">
                <path id="Trazado_134703" data-name="Trazado 134703" d="M130.84,284.929a.23.23,0,0,1-.206-.33l7.883-16.183a.229.229,0,0,1,.413.2L131.047,284.8A.23.23,0,0,1,130.84,284.929Z" transform="translate(-130.611 -268.287)" fill="#455a64"/>
              </g>
              <g id="Grupo_105075" data-name="Grupo 105075" transform="translate(11.243 99.628)">
                <path id="Trazado_134704" data-name="Trazado 134704" d="M119.594,303.371h-.013l-7.231-.409a.229.229,0,0,1-.216-.242.225.225,0,0,1,.242-.216l7.23.409a.229.229,0,0,1-.013.458Z" transform="translate(-112.134 -302.503)" fill="#455a64"/>
              </g>
              <g id="Grupo_105076" data-name="Grupo 105076" transform="translate(0 101.297)">
                <path id="Trazado_134705" data-name="Trazado 134705" d="M90.75,318.215a.235.235,0,0,1-.134-.043.231.231,0,0,1-.052-.321l8.661-12.044a.23.23,0,1,1,.373.268l-8.661,12.044A.232.232,0,0,1,90.75,318.215Z" transform="translate(-90.521 -305.711)" fill="#455a64"/>
              </g>
            </g>
            <g id="Grupo_105089" data-name="Grupo 105089" transform="translate(8.444)">
              <g id="Grupo_105078" data-name="Grupo 105078" transform="translate(0 101.468)">
                <path id="Trazado_134706" data-name="Trazado 134706" d="M107.869,302.983a.971.971,0,0,1-.492-.13,1.526,1.526,0,0,1-.624-1.389,3.726,3.726,0,0,1,1.586-3.01,1.165,1.165,0,0,1,1.193-.077,1.526,1.526,0,0,1,.623,1.388,3.726,3.726,0,0,1-1.586,3.01A1.415,1.415,0,0,1,107.869,302.983Zm1.169-4.278a.975.975,0,0,0-.469.146,3.277,3.277,0,0,0-1.357,2.613,1.1,1.1,0,0,0,.394.991.741.741,0,0,0,.733-.078,3.275,3.275,0,0,0,1.357-2.613,1.1,1.1,0,0,0-.394-.991A.525.525,0,0,0,109.038,298.7Z" transform="translate(-106.753 -298.246)" fill="#455a64"/>
              </g>
              <g id="Grupo_105079" data-name="Grupo 105079" transform="translate(19.831 81.735)">
                <path id="Trazado_134707" data-name="Trazado 134707" d="M145.991,265.051a.971.971,0,0,1-.492-.13,1.527,1.527,0,0,1-.624-1.388,3.727,3.727,0,0,1,1.587-3.011,1.164,1.164,0,0,1,1.192-.078,1.527,1.527,0,0,1,.624,1.389,3.725,3.725,0,0,1-1.586,3.01A1.408,1.408,0,0,1,145.991,265.051Zm1.169-4.278a.975.975,0,0,0-.469.146,3.277,3.277,0,0,0-1.357,2.613,1.1,1.1,0,0,0,.394.992.744.744,0,0,0,.733-.078,3.277,3.277,0,0,0,1.357-2.613,1.1,1.1,0,0,0-.394-.992A.519.519,0,0,0,147.16,260.773Z" transform="translate(-144.875 -260.314)" fill="#455a64"/>
              </g>
              <g id="Grupo_105080" data-name="Grupo 105080" transform="translate(9.916 101.925)">
                <path id="Trazado_134708" data-name="Trazado 134708" d="M126.93,303.864a.972.972,0,0,1-.492-.13,1.527,1.527,0,0,1-.624-1.389,3.725,3.725,0,0,1,1.587-3.01,1.163,1.163,0,0,1,1.192-.078,1.528,1.528,0,0,1,.624,1.388,3.725,3.725,0,0,1-1.587,3.01A1.409,1.409,0,0,1,126.93,303.864Zm1.169-4.279a.975.975,0,0,0-.469.147,3.278,3.278,0,0,0-1.357,2.613,1.1,1.1,0,0,0,.393.991.743.743,0,0,0,.734-.078,3.278,3.278,0,0,0,1.357-2.613,1.1,1.1,0,0,0-.394-.992A.519.519,0,0,0,128.1,299.585Z" transform="translate(-125.814 -299.126)" fill="#455a64"/>
              </g>
              <g id="Grupo_105081" data-name="Grupo 105081" transform="translate(29.747 82.273)">
                <path id="Trazado_134709" data-name="Trazado 134709" d="M165.052,266.084a.976.976,0,0,1-.493-.131,1.527,1.527,0,0,1-.623-1.388,3.724,3.724,0,0,1,1.587-3.01,1.164,1.164,0,0,1,1.193-.078,1.53,1.53,0,0,1,.623,1.389,3.725,3.725,0,0,1-1.587,3.01A1.409,1.409,0,0,1,165.052,266.084Zm1.168-4.279a.978.978,0,0,0-.469.146,3.276,3.276,0,0,0-1.357,2.613,1.1,1.1,0,0,0,.394.991.743.743,0,0,0,.733-.077,3.279,3.279,0,0,0,1.357-2.613,1.1,1.1,0,0,0-.394-.991A.519.519,0,0,0,166.221,261.806Z" transform="translate(-163.936 -261.347)" fill="#455a64"/>
              </g>
              <g id="Grupo_105082" data-name="Grupo 105082" transform="translate(39.663 68.44)">
                <path id="Trazado_134710" data-name="Trazado 134710" d="M184.114,239.494a.971.971,0,0,1-.492-.13,1.527,1.527,0,0,1-.624-1.389,3.725,3.725,0,0,1,1.586-3.01,1.163,1.163,0,0,1,1.192-.078,1.528,1.528,0,0,1,.624,1.389,3.725,3.725,0,0,1-1.587,3.01A1.409,1.409,0,0,1,184.114,239.494Zm1.169-4.279a.976.976,0,0,0-.469.146,3.277,3.277,0,0,0-1.357,2.613,1.1,1.1,0,0,0,.394.991.745.745,0,0,0,.733-.078,3.278,3.278,0,0,0,1.357-2.613,1.1,1.1,0,0,0-.394-.992A.524.524,0,0,0,185.283,235.216Z" transform="translate(-182.998 -234.757)" fill="#455a64"/>
              </g>
              <g id="Grupo_105083" data-name="Grupo 105083" transform="translate(49.578 62.716)">
                <path id="Trazado_134711" data-name="Trazado 134711" d="M203.175,228.489a.976.976,0,0,1-.493-.13,1.528,1.528,0,0,1-.623-1.388,3.727,3.727,0,0,1,1.587-3.011,1.166,1.166,0,0,1,1.193-.077,1.528,1.528,0,0,1,.623,1.389,3.725,3.725,0,0,1-1.587,3.01A1.408,1.408,0,0,1,203.175,228.489Zm1.169-4.278a.975.975,0,0,0-.469.146,3.278,3.278,0,0,0-1.357,2.613,1.1,1.1,0,0,0,.394.992.744.744,0,0,0,.733-.078A3.279,3.279,0,0,0,205,225.271a1.1,1.1,0,0,0-.394-.992A.519.519,0,0,0,204.344,224.211Z" transform="translate(-202.059 -223.752)" fill="#455a64"/>
              </g>
              <g id="Grupo_105084" data-name="Grupo 105084" transform="translate(59.494 68.144)">
                <path id="Trazado_134712" data-name="Trazado 134712" d="M222.236,238.924a.971.971,0,0,1-.492-.13,1.527,1.527,0,0,1-.624-1.389,3.725,3.725,0,0,1,1.586-3.01,1.165,1.165,0,0,1,1.193-.078,1.528,1.528,0,0,1,.624,1.388,3.726,3.726,0,0,1-1.587,3.011A1.415,1.415,0,0,1,222.236,238.924Zm1.169-4.279a.975.975,0,0,0-.469.147,3.327,3.327,0,0,0-1.357,2.613,1.1,1.1,0,0,0,.394.992.745.745,0,0,0,.733-.078,3.277,3.277,0,0,0,1.357-2.613,1.1,1.1,0,0,0-.394-.991A.52.52,0,0,0,223.4,234.645Z" transform="translate(-221.12 -234.187)" fill="#455a64"/>
              </g>
              <g id="Grupo_105085" data-name="Grupo 105085" transform="translate(69.409 40.863)">
                <path id="Trazado_134713" data-name="Trazado 134713" d="M241.3,186.482a.973.973,0,0,1-.493-.13,1.527,1.527,0,0,1-.624-1.389,3.725,3.725,0,0,1,1.587-3.01,1.164,1.164,0,0,1,1.193-.078,1.528,1.528,0,0,1,.623,1.389,3.725,3.725,0,0,1-1.587,3.01A1.414,1.414,0,0,1,241.3,186.482Zm1.169-4.278a.976.976,0,0,0-.469.146,3.277,3.277,0,0,0-1.357,2.613,1.1,1.1,0,0,0,.394.992.745.745,0,0,0,.734-.077,3.278,3.278,0,0,0,1.357-2.613,1.1,1.1,0,0,0-.393-.991A.52.52,0,0,0,242.466,182.2Z" transform="translate(-240.181 -181.744)" fill="#455a64"/>
              </g>
              <g id="Grupo_105086" data-name="Grupo 105086" transform="translate(78.542 45.855)">
                <path id="Trazado_134714" data-name="Trazado 134714" d="M258.853,196.078a.975.975,0,0,1-.493-.13,1.528,1.528,0,0,1-.623-1.389,3.725,3.725,0,0,1,1.587-3.01,1.162,1.162,0,0,1,1.192-.078,1.527,1.527,0,0,1,.624,1.389,3.725,3.725,0,0,1-1.587,3.01A1.408,1.408,0,0,1,258.853,196.078Zm1.169-4.279a.977.977,0,0,0-.469.147,3.277,3.277,0,0,0-1.357,2.613,1.1,1.1,0,0,0,.393.992.743.743,0,0,0,.734-.078,3.277,3.277,0,0,0,1.357-2.613,1.1,1.1,0,0,0-.394-.992A.52.52,0,0,0,260.022,191.8Z" transform="translate(-257.737 -191.34)" fill="#455a64"/>
              </g>
              <g id="Grupo_105087" data-name="Grupo 105087" transform="translate(88.457 16.613)">
                <path id="Trazado_134715" data-name="Trazado 134715" d="M277.914,139.864a.978.978,0,0,1-.493-.13,1.529,1.529,0,0,1-.623-1.388,3.726,3.726,0,0,1,1.587-3.011,1.166,1.166,0,0,1,1.192-.078,1.527,1.527,0,0,1,.624,1.389,3.726,3.726,0,0,1-1.586,3.01A1.411,1.411,0,0,1,277.914,139.864Zm1.169-4.279a.977.977,0,0,0-.469.147,3.277,3.277,0,0,0-1.357,2.613,1.1,1.1,0,0,0,.394.991.741.741,0,0,0,.733-.078,3.327,3.327,0,0,0,1.357-2.613,1.1,1.1,0,0,0-.394-.992A.52.52,0,0,0,279.083,135.585Z" transform="translate(-276.798 -135.127)" fill="#455a64"/>
              </g>
              <g id="Grupo_105088" data-name="Grupo 105088" transform="translate(99.156)">
                <path id="Trazado_134716" data-name="Trazado 134716" d="M298.481,107.929a.974.974,0,0,1-.493-.13,1.528,1.528,0,0,1-.623-1.389,3.725,3.725,0,0,1,1.587-3.01,1.165,1.165,0,0,1,1.193-.078,1.53,1.53,0,0,1,.623,1.389,3.726,3.726,0,0,1-1.587,3.011A1.408,1.408,0,0,1,298.481,107.929Zm1.169-4.279a.975.975,0,0,0-.469.147,3.276,3.276,0,0,0-1.357,2.613,1.1,1.1,0,0,0,.394.992.741.741,0,0,0,.734-.078,3.277,3.277,0,0,0,1.357-2.613,1.1,1.1,0,0,0-.394-.991A.52.52,0,0,0,299.65,103.65Z" transform="translate(-297.365 -103.191)" fill="#455a64"/>
              </g>
            </g>
          </g>
        </g>
        <g id="Graph-2" data-name="Graph" transform="translate(25.113 4.773)">
          <g id="Grupo_105115" data-name="Grupo 105115">
            <g id="Grupo_105102" data-name="Grupo 105102" transform="translate(0 4.128)">
              <g id="Grupo_105091" data-name="Grupo 105091" transform="translate(100.197)">
                <path id="Trazado_134717" data-name="Trazado 134717" d="M318.928,120.519a.23.23,0,0,1-.2-.336l7.835-14.969a.229.229,0,1,1,.406.213L319.132,120.4A.231.231,0,0,1,318.928,120.519Z" transform="translate(-318.699 -105.091)" fill="#fc8116"/>
              </g>
              <g id="Grupo_105092" data-name="Grupo 105092" transform="translate(89.898 19.09)">
                <path id="Trazado_134718" data-name="Trazado 134718" d="M299.13,170.148a.235.235,0,0,1-.068-.01.231.231,0,0,1-.152-.287l8.6-27.9a.23.23,0,0,1,.439.135l-8.6,27.9A.23.23,0,0,1,299.13,170.148Z" transform="translate(-298.901 -141.789)" fill="#fc8116"/>
              </g>
              <g id="Grupo_105093" data-name="Grupo 105093" transform="translate(80.366 42.414)">
                <path id="Trazado_134719" data-name="Trazado 134719" d="M288.641,193.007a.228.228,0,0,1-.138-.046l-7.835-5.923a.23.23,0,1,1,.277-.366l7.834,5.923a.229.229,0,0,1-.138.413Z" transform="translate(-280.577 -186.625)" fill="#fc8116"/>
              </g>
              <g id="Grupo_105094" data-name="Grupo 105094" transform="translate(70.18 43.74)">
                <path id="Trazado_134720" data-name="Trazado 134720" d="M261.226,212.6a.23.23,0,0,1-.215-.308l8.374-22.97a.229.229,0,0,1,.431.157l-8.375,22.97A.228.228,0,0,1,261.226,212.6Z" transform="translate(-260.997 -189.174)" fill="#fc8116"/>
              </g>
              <g id="Grupo_105095" data-name="Grupo 105095" transform="translate(60.741 66.616)">
                <path id="Trazado_134721" data-name="Trazado 134721" d="M250.5,235.5a.208.208,0,0,1-.056-.008l-7.422-1.89a.229.229,0,1,1,.113-.444l7.422,1.89a.229.229,0,0,1-.056.452Z" transform="translate(-242.851 -233.149)" fill="#fc8116"/>
              </g>
              <g id="Grupo_105096" data-name="Grupo 105096" transform="translate(50.385 68.415)">
                <path id="Trazado_134722" data-name="Trazado 134722" d="M223.174,261.167a.233.233,0,0,1-.075-.013.23.23,0,0,1-.142-.292l8.373-24.1a.23.23,0,0,1,.434.15l-8.373,24.1A.229.229,0,0,1,223.174,261.167Z" transform="translate(-222.944 -236.608)" fill="#fc8116"/>
              </g>
              <g id="Grupo_105097" data-name="Grupo 105097" transform="translate(40.603 86.836)">
                <path id="Trazado_134723" data-name="Trazado 134723" d="M212.278,279.53a.23.23,0,0,1-.153-.058l-7.909-7.052a.23.23,0,1,1,.305-.343l7.909,7.052a.229.229,0,0,1-.152.4Z" transform="translate(-204.139 -272.019)" fill="#fc8116"/>
              </g>
              <g id="Grupo_105098" data-name="Grupo 105098" transform="translate(31.012 83.795)">
                <path id="Trazado_134724" data-name="Trazado 134724" d="M193.3,268.508a.231.231,0,0,1-.056-.007l-7.364-1.875a.23.23,0,1,1,.112-.445l7.364,1.876a.23.23,0,0,1-.057.452Z" transform="translate(-185.703 -266.173)" fill="#fc8116"/>
              </g>
              <g id="Grupo_105099" data-name="Grupo 105099" transform="translate(20.749 85.598)">
                <path id="Trazado_134725" data-name="Trazado 134725" d="M166.2,289.142a.228.228,0,0,1-.09-.018.23.23,0,0,1-.122-.3l8.095-19.043a.229.229,0,1,1,.422.179L166.413,289A.23.23,0,0,1,166.2,289.142Z" transform="translate(-165.972 -269.64)" fill="#fc8116"/>
              </g>
              <g id="Grupo_105100" data-name="Grupo 105100" transform="translate(11.311 106.991)">
                <path id="Trazado_134726" data-name="Trazado 134726" d="M148.06,312.186a.23.23,0,0,1-.031-.457l7.1-.963a.234.234,0,0,1,.259.2.23.23,0,0,1-.2.259l-7.1.963Z" transform="translate(-147.831 -310.764)" fill="#fc8116"/>
              </g>
              <g id="Grupo_105101" data-name="Grupo 105101" transform="translate(0 110.131)">
                <path id="Trazado_134727" data-name="Trazado 134727" d="M126.316,334.217a.226.226,0,0,1-.106-.027.229.229,0,0,1-.1-.31l8.875-16.957a.229.229,0,1,1,.406.212l-8.875,16.957A.228.228,0,0,1,126.316,334.217Z" transform="translate(-126.087 -316.8)" fill="#fc8116"/>
              </g>
            </g>
            <g id="Grupo_105114" data-name="Grupo 105114" transform="translate(8.444)">
              <g id="Grupo_105103" data-name="Grupo 105103" transform="translate(0 110.132)">
                <path id="Trazado_134728" data-name="Trazado 134728" d="M143.435,313.6a.971.971,0,0,1-.492-.13,1.527,1.527,0,0,1-.624-1.389,3.727,3.727,0,0,1,1.587-3.01A1.164,1.164,0,0,1,145.1,309a1.528,1.528,0,0,1,.624,1.389,3.726,3.726,0,0,1-1.587,3.01A1.413,1.413,0,0,1,143.435,313.6Zm1.169-4.278a.975.975,0,0,0-.469.146,3.278,3.278,0,0,0-1.357,2.613,1.1,1.1,0,0,0,.393.992.743.743,0,0,0,.734-.078,3.278,3.278,0,0,0,1.357-2.613,1.1,1.1,0,0,0-.394-.992A.524.524,0,0,0,144.6,309.325Z" transform="translate(-142.319 -308.866)" fill="#fc8116"/>
              </g>
              <g id="Grupo_105104" data-name="Grupo 105104" transform="translate(19.831 85.525)">
                <path id="Trazado_134729" data-name="Trazado 134729" d="M181.557,266.3a.973.973,0,0,1-.493-.13,1.529,1.529,0,0,1-.623-1.389,3.727,3.727,0,0,1,1.587-3.01,1.166,1.166,0,0,1,1.193-.077,1.527,1.527,0,0,1,.623,1.388,3.724,3.724,0,0,1-1.587,3.01A1.41,1.41,0,0,1,181.557,266.3Zm1.169-4.279a.98.98,0,0,0-.469.146,3.278,3.278,0,0,0-1.357,2.613,1.1,1.1,0,0,0,.394.992.743.743,0,0,0,.733-.078,3.276,3.276,0,0,0,1.357-2.613,1.1,1.1,0,0,0-.394-.991A.52.52,0,0,0,182.726,262.022Z" transform="translate(-180.441 -261.564)" fill="#fc8116"/>
              </g>
              <g id="Grupo_105105" data-name="Grupo 105105" transform="translate(9.916 108.683)">
                <path id="Trazado_134730" data-name="Trazado 134730" d="M162.5,310.819a.975.975,0,0,1-.493-.13,1.529,1.529,0,0,1-.624-1.389,3.727,3.727,0,0,1,1.586-3.01,1.162,1.162,0,0,1,1.192-.078,1.527,1.527,0,0,1,.624,1.389,3.725,3.725,0,0,1-1.586,3.01A1.414,1.414,0,0,1,162.5,310.819Zm1.168-4.279a.975.975,0,0,0-.469.147,3.33,3.33,0,0,0-1.357,2.613,1.1,1.1,0,0,0,.394.991.74.74,0,0,0,.733-.078,3.326,3.326,0,0,0,1.357-2.613,1.1,1.1,0,0,0-.394-.992A.524.524,0,0,0,163.665,306.541Z" transform="translate(-161.38 -306.082)" fill="#fc8116"/>
              </g>
              <g id="Grupo_105106" data-name="Grupo 105106" transform="translate(29.747 87.87)">
                <path id="Trazado_134731" data-name="Trazado 134731" d="M200.618,270.809a.971.971,0,0,1-.492-.13,1.527,1.527,0,0,1-.624-1.389,3.725,3.725,0,0,1,1.587-3.01,1.164,1.164,0,0,1,1.192-.078,1.527,1.527,0,0,1,.624,1.389,3.727,3.727,0,0,1-1.586,3.01A1.408,1.408,0,0,1,200.618,270.809Zm1.169-4.278a.974.974,0,0,0-.469.146,3.325,3.325,0,0,0-1.357,2.613,1.1,1.1,0,0,0,.394.992.744.744,0,0,0,.733-.078,3.277,3.277,0,0,0,1.357-2.613,1.1,1.1,0,0,0-.394-.992A.519.519,0,0,0,201.787,266.531Z" transform="translate(-199.502 -266.072)" fill="#fc8116"/>
              </g>
              <g id="Grupo_105107" data-name="Grupo 105107" transform="translate(39.663 96.61)">
                <path id="Trazado_134732" data-name="Trazado 134732" d="M219.68,287.611a.975.975,0,0,1-.493-.13,1.528,1.528,0,0,1-.623-1.389,3.725,3.725,0,0,1,1.586-3.01,1.164,1.164,0,0,1,1.193-.077,1.528,1.528,0,0,1,.623,1.388,3.727,3.727,0,0,1-1.587,3.011A1.413,1.413,0,0,1,219.68,287.611Zm1.169-4.279a.973.973,0,0,0-.469.147,3.326,3.326,0,0,0-1.356,2.613,1.1,1.1,0,0,0,.393.991.744.744,0,0,0,.733-.077,3.278,3.278,0,0,0,1.357-2.613,1.1,1.1,0,0,0-.394-.992A.519.519,0,0,0,220.849,283.332Z" transform="translate(-218.564 -282.873)" fill="#fc8116"/>
              </g>
              <g id="Grupo_105108" data-name="Grupo 105108" transform="translate(49.578 68.287)">
                <path id="Trazado_134733" data-name="Trazado 134733" d="M238.74,233.163a.971.971,0,0,1-.492-.13,1.526,1.526,0,0,1-.624-1.389,3.725,3.725,0,0,1,1.587-3.01,1.166,1.166,0,0,1,1.193-.078,1.529,1.529,0,0,1,.624,1.389,3.725,3.725,0,0,1-1.587,3.01A1.409,1.409,0,0,1,238.74,233.163Zm1.169-4.278a.975.975,0,0,0-.469.146,3.328,3.328,0,0,0-1.357,2.613,1.1,1.1,0,0,0,.394.992.744.744,0,0,0,.733-.078,3.327,3.327,0,0,0,1.357-2.613,1.1,1.1,0,0,0-.394-.992A.519.519,0,0,0,239.909,228.885Z" transform="translate(-237.624 -228.426)" fill="#fc8116"/>
              </g>
              <g id="Grupo_105109" data-name="Grupo 105109" transform="translate(59.494 70.812)">
                <path id="Trazado_134734" data-name="Trazado 134734" d="M257.8,238.018a.981.981,0,0,1-.493-.13,1.528,1.528,0,0,1-.623-1.389,3.724,3.724,0,0,1,1.587-3.01,1.163,1.163,0,0,1,1.192-.078,1.527,1.527,0,0,1,.624,1.389,3.725,3.725,0,0,1-1.587,3.01A1.408,1.408,0,0,1,257.8,238.018Zm1.168-4.278a.976.976,0,0,0-.469.146,3.278,3.278,0,0,0-1.357,2.613,1.1,1.1,0,0,0,.394.991.741.741,0,0,0,.733-.078,3.279,3.279,0,0,0,1.357-2.613,1.1,1.1,0,0,0-.394-.992A.524.524,0,0,0,258.971,233.74Z" transform="translate(-256.686 -233.281)" fill="#fc8116"/>
              </g>
              <g id="Grupo_105110" data-name="Grupo 105110" transform="translate(69.409 43.616)">
                <path id="Trazado_134735" data-name="Trazado 134735" d="M276.862,185.738a.974.974,0,0,1-.493-.13,1.528,1.528,0,0,1-.624-1.388,3.726,3.726,0,0,1,1.587-3.011,1.163,1.163,0,0,1,1.192-.077,1.527,1.527,0,0,1,.624,1.389,3.725,3.725,0,0,1-1.587,3.01A1.408,1.408,0,0,1,276.862,185.738Zm1.169-4.279a.977.977,0,0,0-.469.147,3.328,3.328,0,0,0-1.357,2.613,1.1,1.1,0,0,0,.394.991.741.741,0,0,0,.733-.078,3.327,3.327,0,0,0,1.357-2.613,1.1,1.1,0,0,0-.394-.991A.52.52,0,0,0,278.031,181.459Z" transform="translate(-275.746 -181)" fill="#fc8116"/>
              </g>
              <g id="Grupo_105111" data-name="Grupo 105111" transform="translate(79.325 51.112)">
                <path id="Trazado_134736" data-name="Trazado 134736" d="M295.924,200.148a.978.978,0,0,1-.492-.13,1.529,1.529,0,0,1-.624-1.389,3.725,3.725,0,0,1,1.587-3.01,1.164,1.164,0,0,1,1.193-.078,1.528,1.528,0,0,1,.623,1.389,3.726,3.726,0,0,1-1.587,3.01A1.408,1.408,0,0,1,295.924,200.148Zm1.169-4.279a.975.975,0,0,0-.469.147,3.277,3.277,0,0,0-1.357,2.613,1.1,1.1,0,0,0,.394.992.742.742,0,0,0,.733-.077,3.279,3.279,0,0,0,1.357-2.613,1.1,1.1,0,0,0-.394-.991A.519.519,0,0,0,297.093,195.869Z" transform="translate(-294.808 -195.41)" fill="#fc8116"/>
              </g>
              <g id="Grupo_105112" data-name="Grupo 105112" transform="translate(89.241 18.946)">
                <path id="Trazado_134737" data-name="Trazado 134737" d="M314.986,138.313a.979.979,0,0,1-.493-.13,1.528,1.528,0,0,1-.623-1.389,3.723,3.723,0,0,1,1.586-3.01,1.162,1.162,0,0,1,1.192-.078,1.528,1.528,0,0,1,.624,1.389,3.725,3.725,0,0,1-1.587,3.01A1.408,1.408,0,0,1,314.986,138.313Zm1.169-4.278a.976.976,0,0,0-.469.146,3.277,3.277,0,0,0-1.357,2.613,1.1,1.1,0,0,0,.394.991.742.742,0,0,0,.734-.077,3.278,3.278,0,0,0,1.357-2.613,1.1,1.1,0,0,0-.394-.992A.524.524,0,0,0,316.155,134.035Z" transform="translate(-313.87 -133.576)" fill="#fc8116"/>
              </g>
              <g id="Grupo_105113" data-name="Grupo 105113" transform="translate(99.156)">
                <path id="Trazado_134738" data-name="Trazado 134738" d="M334.046,101.893a.981.981,0,0,1-.493-.13,1.529,1.529,0,0,1-.623-1.389,3.724,3.724,0,0,1,1.587-3.01,1.163,1.163,0,0,1,1.192-.078,1.528,1.528,0,0,1,.624,1.389,3.725,3.725,0,0,1-1.587,3.01A1.408,1.408,0,0,1,334.046,101.893Zm1.169-4.278a.978.978,0,0,0-.469.146,3.278,3.278,0,0,0-1.357,2.613,1.1,1.1,0,0,0,.394.992.741.741,0,0,0,.733-.078,3.279,3.279,0,0,0,1.357-2.613,1.1,1.1,0,0,0-.393-.991A.526.526,0,0,0,335.215,97.615Z" transform="translate(-332.93 -97.156)" fill="#fc8116"/>
              </g>
            </g>
          </g>
          <g id="Grupo_105116" data-name="Grupo 105116" transform="translate(0.229 12.771)">
            <path id="Trazado_134739" data-name="Trazado 134739" d="M235.6,121.707l-9.916,18.946L215.868,172.5l-7.782-5.883-2.234-1.29-9.916,27.2-9.916-2.526L176.292,218l-7.868-7.015-2.233-1.29-9.916-2.526-9.916,23.326-9.916,1.344-9.916,18.946V264l2.234,1.29,109.072-62.972V123Z" transform="translate(-126.528 -121.707)" fill="#27debf" opacity="0.4"/>
            <path id="Trazado_134740" data-name="Trazado 134740" d="M130.822,253.263l9.916-18.946,9.916-1.344,9.916-23.326,9.916,2.526,9.916,8.841,9.916-28.541L200.231,195l9.916-27.2,9.916,7.5,9.916-32.166,9.916-18.946v79.325L130.822,266.484Z" transform="translate(-128.588 -122.896)" fill="#85d161" opacity="0.3"/>
            <path id="Trazado_134741" data-name="Trazado 134741" d="M126.528,369.836l2.234,1.29v13.221l-2.234-1.29Z" transform="translate(-126.528 -240.759)" fill="#27debf"/>
            <path id="Trazado_134742" data-name="Trazado 134742" d="M126.528,369.836l2.234,1.29v13.221l-2.234-1.29Z" transform="translate(-126.528 -240.759)" opacity="0.05"/>
            <path id="Trazado_134743" data-name="Trazado 134743" d="M164.65,309.318l2.234,1.29,9.916-23.326-2.234-1.29Z" transform="translate(-144.819 -200.531)" fill="#27debf" opacity="0.3"/>
            <path id="Trazado_134744" data-name="Trazado 134744" d="M164.65,309.318l2.234,1.29,9.916-23.326-2.234-1.29Z" transform="translate(-144.819 -200.531)" opacity="0.15"/>
            <path id="Trazado_134745" data-name="Trazado 134745" d="M136.443,333.416l2.234,1.29-9.916,18.946-2.234-1.29Z" transform="translate(-126.528 -223.285)" fill="#27debf" opacity="0.3"/>
            <path id="Trazado_134746" data-name="Trazado 134746" d="M136.443,333.416l2.234,1.29-9.916,18.946-2.234-1.29Z" transform="translate(-126.528 -223.285)" opacity="0.15"/>
            <path id="Trazado_134747" data-name="Trazado 134747" d="M234.155,254.266l-2.234-1.29-9.729,28.005,2.047,1.825Z" transform="translate(-172.427 -184.69)" fill="#27debf" opacity="0.3"/>
            <path id="Trazado_134748" data-name="Trazado 134748" d="M234.155,254.266l-2.234-1.29-9.729,28.005,2.047,1.825Z" transform="translate(-172.427 -184.69)" opacity="0.15"/>
            <path id="Trazado_134749" data-name="Trazado 134749" d="M259.956,232.748l2.234,1.29,9.916-27.2-2.233-1.29Z" transform="translate(-190.547 -161.936)" fill="#27debf" opacity="0.3"/>
            <path id="Trazado_134750" data-name="Trazado 134750" d="M259.956,232.748l2.234,1.29,9.916-27.2-2.233-1.29Z" transform="translate(-190.547 -161.936)" opacity="0.15"/>
            <path id="Trazado_134751" data-name="Trazado 134751" d="M310.32,159.416l-2.234-1.29-9.816,31.843,2.134,1.613Z" transform="translate(-208.93 -139.181)" fill="#27debf" opacity="0.3"/>
            <path id="Trazado_134752" data-name="Trazado 134752" d="M310.32,159.416l-2.234-1.29-9.816,31.843,2.134,1.613Z" transform="translate(-208.93 -139.181)" opacity="0.15"/>
          </g>
        </g>
      </g>
      <g id="Arrow" transform="translate(182.777 59.503)">
        <g id="Arrow-2" data-name="Arrow" transform="translate(0 0)">
          <path id="Trazado_134753" data-name="Trazado 134753" d="M350.554,89.364l-2.233-1.289-5.584,12.9,2.233,1.289,1.117-.645v79.649l2.233,1.289,4.467-2.579V97.746l3.35-1.934Z" transform="translate(-342.737 -88.075)" fill="#fc8116"/>
          <path id="Trazado_134754" data-name="Trazado 134754" d="M358.2,97l-5.584-6.448-5.584,12.9,3.351-1.935v82.227l4.467-2.579V98.936Z" transform="translate(-344.797 -89.264)" fill="#fdab64"/>
          <path id="Trazado_134756" data-name="Trazado 134756" d="M349.178,192.562l2.233,1.289V111.624l-2.233,1.289Z" transform="translate(-345.828 -99.374)" opacity="0.15"/>
        </g>
      </g>
      <g id="Magnifying_glass" data-name="Magnifying glass" transform="translate(105.86 187.109)">
        <g id="Glass" transform="translate(0)">
          <g id="Grupo_105118" data-name="Grupo 105118" transform="translate(37.98)">
            <path id="Trazado_134757" data-name="Trazado 134757" d="M324.78,349.8c0-4.2-2.777-8.406-8.331-11.612-11.108-6.413-29.119-6.413-40.227,0-5.554,3.206-8.332,7.41-8.332,11.612h0v7.742c0,4.2,2.777,8.406,8.332,11.612,11.108,6.413,29.118,6.413,40.227,0,5.554-3.207,8.331-7.41,8.331-11.612V349.8ZM277.6,340.57c4.961-2.864,11.616-4.441,18.738-4.441s13.777,1.577,18.738,4.441c4.486,2.59,6.956,5.868,6.956,9.23s-2.47,6.64-6.956,9.229c-4.961,2.864-11.615,4.442-18.738,4.442s-13.777-1.578-18.738-4.442c-4.485-2.59-6.955-5.867-6.955-9.229S273.112,343.16,277.6,340.57Z" transform="translate(-267.889 -333.378)" fill="#fdab64"/>
            <path id="Trazado_134758" data-name="Trazado 134758" d="M276.219,361.413c11.108,6.414,29.118,6.414,40.227,0s11.108-16.811,0-23.225-29.118-6.413-40.227,0S265.111,355,276.219,361.413Zm-5.58-11.612c0-3.363,2.47-6.641,6.956-9.23,4.961-2.864,11.616-4.441,18.738-4.441s13.777,1.577,18.738,4.441c4.486,2.59,6.956,5.868,6.956,9.23s-2.47,6.64-6.956,9.229c-4.961,2.864-11.616,4.442-18.738,4.442s-13.777-1.578-18.738-4.442C273.109,356.441,270.639,353.163,270.639,349.8Z" transform="translate(-267.888 -333.378)" fill="#fff" opacity="0.3"/>
            <g id="Grupo_105117" data-name="Grupo 105117" transform="translate(2.749 2.75)">
              <path id="Trazado_134759" data-name="Trazado 134759" d="M273.172,352.336a7.633,7.633,0,0,0,1.111,3.873,15.5,15.5,0,0,1,5.849-5.358c4.957-2.867,11.614-4.446,18.739-4.446s13.776,1.579,18.733,4.446a15.563,15.563,0,0,1,5.854,5.358,7.677,7.677,0,0,0,1.106-3.873c0-3.362-2.47-6.64-6.96-9.232-4.957-2.861-11.614-4.439-18.733-4.439s-13.782,1.579-18.739,4.439C275.642,345.7,273.172,348.975,273.172,352.336Z" transform="translate(-273.172 -338.665)" fill="#fc8116"/>
            </g>
            <path id="Trazado_134761" data-name="Trazado 134761" d="M280.343,349.845c4.961-2.864,11.616-4.441,18.738-4.441s13.777,1.577,18.738,4.441c3.7,2.137,6.025,4.743,6.727,7.477-.7,2.735-3.026,5.341-6.727,7.477-4.961,2.864-11.616,4.442-18.738,4.442s-13.777-1.578-18.738-4.442c-3.7-2.136-6.025-4.743-6.727-7.477C274.317,354.588,276.642,351.982,280.343,349.845Z" transform="translate(-270.636 -339.148)" fill="#fff" opacity="0.4"/>
            <path id="Trazado_134762" data-name="Trazado 134762" d="M289.63,378.572v7.735a37.253,37.253,0,0,1-13.408-4.346c-5.556-3.208-8.335-7.411-8.335-11.614v-7.741a9.79,9.79,0,0,1,.341-2.536h.006c-1.348,5,1.315,10.294,7.988,14.15A37.359,37.359,0,0,0,289.63,378.572Z" transform="translate(-267.888 -346.185)" opacity="0.1"/>
          </g>
          <g id="Grupo_105122" data-name="Grupo 105122" transform="translate(0 29.228)">
            <g id="Grupo_105119" data-name="Grupo 105119" transform="translate(33.603)">
              <path id="Trazado_134763" data-name="Trazado 134763" d="M273.029,393.3a4.406,4.406,0,0,0-1.979-3.46,1.4,1.4,0,0,0-1.4-.147h0l-.005,0h0l-9.575,5.465-.007,0h0a1.4,1.4,0,0,0-.584,1.284,4.4,4.4,0,0,0,1.979,3.46,1.4,1.4,0,0,0,1.409.145h0l9.574-5.463h0A1.4,1.4,0,0,0,273.029,393.3Z" transform="translate(-259.474 -389.563)" fill="#37474f"/>
              <path id="Trazado_134764" data-name="Trazado 134764" d="M273.237,396.658a1.4,1.4,0,0,0,.595-1.29,3.793,3.793,0,0,0-.338-1.492l-12.347,7.062a3.78,3.78,0,0,0,1.109,1.039,1.4,1.4,0,0,0,1.409.145l9.574-5.463Z" transform="translate(-260.276 -391.633)" fill="#263238"/>
            </g>
            <path id="Trazado_134765" data-name="Trazado 134765" d="M233.029,404.913a5.732,5.732,0,0,0-2.575-4.5,1.834,1.834,0,0,0-1.8-.2l0,0-.027.015h0L196.866,417.18l4.737,8.373,30.655-18.962A1.821,1.821,0,0,0,233.029,404.913Z" transform="translate(-195.831 -394.596)" fill="#fd963d"/>
            <path id="Trazado_134766" data-name="Trazado 134766" d="M203.72,427.515l30.655-18.962a1.821,1.821,0,0,0,.77-1.678,5.39,5.39,0,0,0-.861-2.733L201.277,423.2Z" transform="translate(-197.948 -396.558)" opacity="0.1"/>
            <g id="Grupo_105120" data-name="Grupo 105120" transform="translate(0 22.377)">
              <path id="Trazado_134767" data-name="Trazado 134767" d="M198.255,440.907A7.515,7.515,0,0,1,194.877,435c.009-2.17,1.535-3.045,3.41-1.952a7.52,7.52,0,0,1,3.378,5.906C201.655,441.125,200.129,442,198.255,440.907Z" transform="translate(-194.877 -432.578)" fill="#fc8116"/>
            </g>
          </g>
        </g>
      </g>
      <g id="Gears" transform="translate(26.606 45.12)">
        <g id="Gears-2" data-name="Gears">
          <g id="Grupo_105123" data-name="Grupo 105123">
            <path id="Trazado_134769" data-name="Trazado 134769" d="M51.139,100.15a1.369,1.369,0,0,1-.212-.016L48.786,99.8a1.182,1.182,0,0,1-.969-1.531l1.173-3.957a.926.926,0,0,0-.283-.827,6.186,6.186,0,0,1-.638-.685.348.348,0,0,0-.484-.1l-2.679,2.028a.975.975,0,0,1-1.607-.574l-.729-3.022a2.17,2.17,0,0,1,.5-1.85L45.7,86.523a2.1,2.1,0,0,0,.463-1.13,19.406,19.406,0,0,1,.222-2.119.549.549,0,0,0-.327-.572l-1.688-.591a1.292,1.292,0,0,1-.787-1.669l1.629-4.413a1.768,1.768,0,0,1,1.558-1.1l2.04-.035a1.169,1.169,0,0,0,.842-.5c.429-.727.889-1.427,1.366-2.081a1.913,1.913,0,0,0,.308-1.148l-.388-3a2.235,2.235,0,0,1,.667-1.8l3-2.7a1,1,0,0,1,1.674.409l.871,2.322a.242.242,0,0,0,.135.151.3.3,0,0,0,.241-.022,10.6,10.6,0,0,1,1.332-.539,1.623,1.623,0,0,0,.852-.722l1.734-3.913a1.629,1.629,0,0,1,1.668-.91l2.142.332a1.182,1.182,0,0,1,.969,1.53l-1.172,3.958a.924.924,0,0,0,.282.827,6.211,6.211,0,0,1,.639.685.345.345,0,0,0,.484.1l2.678-2.028a.975.975,0,0,1,1.608.574l.728,3.022a2.163,2.163,0,0,1-.5,1.851l-2.63,2.762a2.086,2.086,0,0,0-.463,1.129,19.5,19.5,0,0,1-.222,2.12.547.547,0,0,0,.327.572l1.689.591a1.292,1.292,0,0,1,.785,1.67l-1.628,4.412a1.772,1.772,0,0,1-1.559,1.105l-2.04.035a1.169,1.169,0,0,0-.842.5c-.427.723-.886,1.423-1.366,2.08a1.907,1.907,0,0,0-.307,1.147l.388,3a2.244,2.244,0,0,1-.666,1.8l-3,2.7a1,1,0,0,1-1.675-.409l-.87-2.322a.244.244,0,0,0-.135-.151.292.292,0,0,0-.241.022,10.847,10.847,0,0,1-1.331.539,1.634,1.634,0,0,0-.855.722l-1.733,3.913A1.638,1.638,0,0,1,51.139,100.15Zm-3.37-8.461a1.337,1.337,0,0,1,1.039.518,5.363,5.363,0,0,0,.542.581,1.864,1.864,0,0,1,.55,1.8l-1.172,3.958a.233.233,0,0,0,.2.321l2.141.332a.67.67,0,0,0,.653-.356l1.734-3.913a2.547,2.547,0,0,1,1.428-1.24,9.776,9.776,0,0,0,1.212-.492,1.239,1.239,0,0,1,1.008-.049,1.188,1.188,0,0,1,.672.7l.871,2.322a.194.194,0,0,0,.058.094.288.288,0,0,0,.09-.059l3-2.7a1.31,1.31,0,0,0,.358-.968l-.388-3a2.853,2.853,0,0,1,.483-1.83c.461-.632.9-1.306,1.315-2a2.111,2.111,0,0,1,1.646-.972L67.25,84.7a.834.834,0,0,0,.683-.484l1.628-4.413a.341.341,0,0,0-.208-.443l-1.69-.592a1.5,1.5,0,0,1-.951-1.618,18.527,18.527,0,0,0,.212-2.016,3.019,3.019,0,0,1,.725-1.739l2.631-2.762a1.226,1.226,0,0,0,.261-.972h0l-.728-3.022a.245.245,0,0,0-.035-.087.683.683,0,0,0-.075.048L67.024,68.63a1.284,1.284,0,0,1-1.8-.26,5.185,5.185,0,0,0-.542-.58,1.865,1.865,0,0,1-.55-1.8l1.173-3.957a.258.258,0,0,0-.019-.212.255.255,0,0,0-.185-.109l-2.141-.332a.671.671,0,0,0-.653.356l-1.734,3.913a2.546,2.546,0,0,1-1.427,1.24,9.785,9.785,0,0,0-1.212.491,1.236,1.236,0,0,1-1.008.049,1.191,1.191,0,0,1-.672-.7l-.87-2.321a.193.193,0,0,0-.059-.094.274.274,0,0,0-.089.058l-3,2.7a1.3,1.3,0,0,0-.358.968l.388,3a2.859,2.859,0,0,1-.484,1.83c-.459.629-.9,1.3-1.315,2a2.109,2.109,0,0,1-1.646.971l-2.039.034a.832.832,0,0,0-.682.483L44.474,80.77a.341.341,0,0,0,.208.443l1.69.592a1.5,1.5,0,0,1,.951,1.617,18.449,18.449,0,0,0-.212,2.017,3.031,3.031,0,0,1-.723,1.739l-2.633,2.763a1.231,1.231,0,0,0-.261.972l.729,3.022a.244.244,0,0,0,.035.087c.007-.006.034-.017.075-.048l2.679-2.028A1.25,1.25,0,0,1,47.769,91.689ZM54.484,89.1a3.772,3.772,0,0,1-1.123-.166,4.165,4.165,0,0,1-2.691-3.246c-.893-3.706,1.114-9.179,4.475-12.2,1.873-1.684,3.886-2.359,5.527-1.85a4.166,4.166,0,0,1,2.691,3.246c.893,3.706-1.114,9.179-4.474,12.2h0A6.868,6.868,0,0,1,54.484,89.1Zm5.056-16.68A5.951,5.951,0,0,0,55.781,74.2c-3.13,2.813-5.007,7.87-4.187,11.272a3.221,3.221,0,0,0,2.048,2.561c1.314.405,2.993-.194,4.611-1.649,3.128-2.813,5.007-7.87,4.186-11.272a3.221,3.221,0,0,0-2.048-2.561A2.877,2.877,0,0,0,59.541,72.423Z" transform="translate(-42.524 -60.427)" fill="#85d161"/>
          </g>
          <g id="Grupo_105124" data-name="Grupo 105124" transform="translate(33.084 0.95)">
            <path id="Trazado_134770" data-name="Trazado 134770" d="M112.448,91.213a1.094,1.094,0,0,1-.164-.012l-1.552-.241a.939.939,0,0,1-.769-1.214l.85-2.868a.59.59,0,0,0-.181-.516,4.554,4.554,0,0,1-.471-.505c-.044-.054-.147-.128-.238-.057l-1.942,1.47a.788.788,0,0,1-1.294-.462l-.529-2.191a1.659,1.659,0,0,1,.382-1.418l1.907-2a1.45,1.45,0,0,0,.314-.767,13.82,13.82,0,0,1,.162-1.546.316.316,0,0,0-.184-.324l-1.223-.429a1.018,1.018,0,0,1-.622-1.314l1.182-3.2a1.37,1.37,0,0,1,1.2-.854l1.478-.024a.767.767,0,0,0,.543-.326c.308-.523.643-1.033.994-1.514a1.312,1.312,0,0,0,.209-.774l-.281-2.173a1.712,1.712,0,0,1,.509-1.373l2.174-1.954a.806.806,0,0,1,1.345.329l.63,1.683c.081.073.121.069.16.049a7.826,7.826,0,0,1,.976-.4,1.1,1.1,0,0,0,.567-.479l1.259-2.837a1.25,1.25,0,0,1,1.3-.708l1.553.241a.94.94,0,0,1,.768,1.214l-.85,2.869a.59.59,0,0,0,.181.516,4.509,4.509,0,0,1,.471.505.174.174,0,0,0,.238.057l1.942-1.47a.788.788,0,0,1,1.294.462l.527,2.191a1.659,1.659,0,0,1-.38,1.418l-1.908,2a1.444,1.444,0,0,0-.314.765,14.566,14.566,0,0,1-.161,1.546.312.312,0,0,0,.182.325l1.224.429a1.018,1.018,0,0,1,.62,1.315l-1.181,3.2a1.367,1.367,0,0,1-1.2.854l-1.478.025a.766.766,0,0,0-.542.326c-.308.523-.643,1.032-.994,1.514a1.311,1.311,0,0,0-.209.774l.281,2.173a1.715,1.715,0,0,1-.509,1.373l-2.173,1.954a.852.852,0,0,1-.767.217.843.843,0,0,1-.578-.546l-.63-1.682c-.083-.076-.122-.068-.16-.049a7.809,7.809,0,0,1-.976.4,1.091,1.091,0,0,0-.567.478l-1.259,2.838A1.271,1.271,0,0,1,112.448,91.213Zm-2.44-6.3a1.05,1.05,0,0,1,.817.406,3.685,3.685,0,0,0,.384.412,1.437,1.437,0,0,1,.422,1.386l-.851,2.868.082.129,1.552.241a.4.4,0,0,0,.385-.21l1.259-2.838a1.924,1.924,0,0,1,1.082-.944,6.88,6.88,0,0,0,.868-.352.976.976,0,0,1,.8-.037.942.942,0,0,1,.533.555l.631,1.682,2.149-1.96a.881.881,0,0,0,.235-.63l-.281-2.173a2.16,2.16,0,0,1,.365-1.385c.335-.459.653-.946.948-1.445a1.618,1.618,0,0,1,1.264-.744l1.477-.025a.525.525,0,0,0,.419-.3l1.182-3.2a.164.164,0,0,0-.005-.128.166.166,0,0,0-.1-.087l-1.224-.429a1.169,1.169,0,0,1-.742-1.264A13.6,13.6,0,0,0,123.811,73a2.282,2.282,0,0,1,.548-1.314l1.906-2a.817.817,0,0,0,.17-.628h0l-.527-2.191-1.893,1.488a1.01,1.01,0,0,1-1.416-.2,3.78,3.78,0,0,0-.384-.412,1.436,1.436,0,0,1-.423-1.386l.851-2.869.022-.11-.1-.019-1.553-.241a.392.392,0,0,0-.385.21l-1.259,2.838a1.93,1.93,0,0,1-1.082.944,6.957,6.957,0,0,0-.869.352.979.979,0,0,1-.8.037.941.941,0,0,1-.533-.554l-.631-1.683-2.15,1.96a.881.881,0,0,0-.234.63l.281,2.173a2.166,2.166,0,0,1-.366,1.386c-.335.458-.653.945-.948,1.445a1.621,1.621,0,0,1-1.263.744l-1.478.024a.532.532,0,0,0-.42.3l-1.181,3.2a.166.166,0,0,0,.006.13.162.162,0,0,0,.1.086l1.225.429a1.174,1.174,0,0,1,.744,1.263,12.881,12.881,0,0,0-.153,1.452,2.265,2.265,0,0,1-.548,1.314l-1.907,2a.819.819,0,0,0-.171.629l.529,2.191,1.893-1.488A.989.989,0,0,1,110.007,84.916Zm4.868-1.711a2.828,2.828,0,0,1-.839-.124,3.1,3.1,0,0,1-2.005-2.412c-.654-2.713.812-6.717,3.268-8.925,1.379-1.24,2.868-1.737,4.086-1.358a3.1,3.1,0,0,1,2.005,2.412c.654,2.713-.812,6.717-3.267,8.925h0A5.059,5.059,0,0,1,114.875,83.2Zm3.664-12.092a4.233,4.233,0,0,0-2.669,1.265c-2.249,2.02-3.6,5.65-3.011,8.091a2.257,2.257,0,0,0,1.43,1.8c.922.288,2.114-.143,3.263-1.178h0c2.248-2.02,3.6-5.65,3.01-8.091a2.257,2.257,0,0,0-1.43-1.8A1.99,1.99,0,0,0,118.54,71.113Z" transform="translate(-106.123 -62.253)" fill="#85d161"/>
          </g>
        </g>
      </g>
      <g id="Speech_bubbles" data-name="Speech bubbles" transform="translate(38.885 28.525)">
        <g id="Speech_Bubble" data-name="Speech Bubble" transform="translate(64.541)">
          <g id="Grupo_105125" data-name="Grupo 105125" transform="translate(0)">
            <path id="Trazado_134771" data-name="Trazado 134771" d="M191.15,55.042a.847.847,0,0,1-.456-.13,1.265,1.265,0,0,1-.5-1.13V42.128a3.358,3.358,0,0,1,1.385-2.613L208.707,28.75a1.05,1.05,0,0,1,1.147-.1,1.265,1.265,0,0,1,.5,1.129V41.439a3.358,3.358,0,0,1-1.385,2.612l-2.538,1.595-1.712,6.339a.606.606,0,0,1-.538.469.6.6,0,0,1-.589-.393l-1.473-3.7-10.274,6.459A1.318,1.318,0,0,1,191.15,55.042Zm17.816-25.8L191.841,40a2.812,2.812,0,0,0-1.127,2.125V53.782a.742.742,0,0,0,.238.642.608.608,0,0,0,.629-.1l10.777-6.775,1.7,4.284a.074.074,0,0,0,.082.055.079.079,0,0,0,.074-.065l1.77-6.556,2.718-1.708a2.815,2.815,0,0,0,1.126-2.124V29.784a.74.74,0,0,0-.238-.641.609.609,0,0,0-.629.1Z" transform="translate(-190.197 -28.525)" fill="#67c53a"/>
          </g>
          <g id="Grupo_105126" data-name="Grupo 105126" transform="translate(3.927 6.79)">
            <path id="Trazado_134772" data-name="Trazado 134772" d="M198.005,49.547a.256.256,0,0,1-.224-.141.3.3,0,0,1,.095-.385l11.782-7.407a.249.249,0,0,1,.354.1.3.3,0,0,1-.095.385l-11.783,7.407A.243.243,0,0,1,198.005,49.547Z" transform="translate(-197.746 -41.577)" fill="#67c53a"/>
          </g>
          <g id="Grupo_105127" data-name="Grupo 105127" transform="translate(3.927 9.274)">
            <path id="Trazado_134773" data-name="Trazado 134773" d="M198.005,54.321a.255.255,0,0,1-.224-.14.3.3,0,0,1,.095-.385l11.782-7.406a.249.249,0,0,1,.354.1.3.3,0,0,1-.095.385l-11.783,7.407A.242.242,0,0,1,198.005,54.321Z" transform="translate(-197.746 -46.352)" fill="#67c53a"/>
          </g>
          <g id="Grupo_105128" data-name="Grupo 105128" transform="translate(3.927 11.757)">
            <path id="Trazado_134774" data-name="Trazado 134774" d="M198.005,59.1a.255.255,0,0,1-.224-.141.3.3,0,0,1,.095-.385l11.782-7.407a.249.249,0,0,1,.354.1.3.3,0,0,1-.095.385l-11.783,7.406A.243.243,0,0,1,198.005,59.1Z" transform="translate(-197.746 -51.126)" fill="#67c53a"/>
          </g>
        </g>
        <g id="Speech_Bubble-2" data-name="Speech Bubble" transform="translate(129.294 4.34)">
          <g id="Speech_Bubble-3" data-name="Speech Bubble">
            <g id="Grupo_105129" data-name="Grupo 105129" transform="translate(7.678 15.286)">
              <path id="Trazado_134775" data-name="Trazado 134775" d="M333.662,66.253,329.433,68.7l1.68,3.776a.382.382,0,0,0,.16.18c.2.113,1.387.8,1.453.839a.389.389,0,0,0,.568-.226l1.824-6.177Z" transform="translate(-329.433 -66.253)" fill="#fc8116"/>
              <path id="Trazado_134777" data-name="Trazado 134777" d="M332.231,70.318l1.68,3.776a.387.387,0,0,0,.725-.047l1.824-6.177Z" transform="translate(-330.775 -67.028)" fill="#fdab64"/>
            </g>
            <g id="Grupo_105130" data-name="Grupo 105130">
              <path id="Trazado_134778" data-name="Trazado 134778" d="M332.546,36.966,315.075,47.053a.886.886,0,0,0-.4.694v10.81a.874.874,0,0,0,.4.69l1.437.806a.9.9,0,0,0,.8,0l17.471-10.086a.887.887,0,0,0,.4-.695V38.458a.874.874,0,0,0-.4-.69l-1.437-.806A.9.9,0,0,0,332.546,36.966Z" transform="translate(-314.673 -36.869)" fill="#fed5b1"/>
              <path id="Trazado_134779" data-name="Trazado 134779" d="M318.986,61.02V50.21a.885.885,0,0,1,.4-.694l17.471-10.087c.222-.127.4-.024.4.231V50.47a.887.887,0,0,1-.4.695L319.387,61.251C319.165,61.379,318.986,61.276,318.986,61.02Z" transform="translate(-316.742 -38.071)" fill="#fdab64"/>
              <path id="Trazado_134780" data-name="Trazado 134780" d="M317.318,69.705a.92.92,0,0,1-.805,0l-1.436-.807a.872.872,0,0,1-.4-.689V57.4a.823.823,0,0,1,.128-.409l2.234,1.275a.8.8,0,0,0-.118.395V69.473C316.917,69.707,317.082,69.842,317.318,69.705Z" transform="translate(-314.673 -46.525)" opacity="0.2"/>
            </g>
          </g>
          <g id="Grupo_105131" data-name="Grupo 105131" transform="translate(5.23 8.284)">
            <path id="Trazado_134782" data-name="Trazado 134782" d="M324.986,60.764a.256.256,0,0,1-.224-.141.3.3,0,0,1,.095-.385l11.782-7.407a.249.249,0,0,1,.354.1.3.3,0,0,1-.095.385l-11.783,7.406A.242.242,0,0,1,324.986,60.764Z" transform="translate(-324.727 -52.794)" fill="#fff"/>
          </g>
        </g>
        <g id="Speech_Bubble-4" data-name="Speech Bubble" transform="translate(0 115.089)">
          <g id="Speech_Bubble-5" data-name="Speech Bubble">
            <g id="Grupo_105132" data-name="Grupo 105132" transform="translate(7.678 15.286)">
              <path id="Trazado_134783" data-name="Trazado 134783" d="M85.116,279.148,80.887,281.6l1.68,3.776a.38.38,0,0,0,.161.18c.2.113,1.387.8,1.452.839a.388.388,0,0,0,.568-.226l1.824-6.177Z" transform="translate(-80.887 -279.148)" fill="#fcd03e"/>
              <path id="Trazado_134785" data-name="Trazado 134785" d="M83.686,283.213l1.68,3.776a.387.387,0,0,0,.725-.048l1.824-6.177Z" transform="translate(-82.23 -279.923)" fill="#fdd85e"/>
            </g>
            <g id="Grupo_105133" data-name="Grupo 105133">
              <path id="Trazado_134786" data-name="Trazado 134786" d="M84,249.862,66.529,259.948a.885.885,0,0,0-.4.694v10.81a.874.874,0,0,0,.4.69l1.437.806a.9.9,0,0,0,.8,0l17.471-10.086a.887.887,0,0,0,.4-.694v-10.81a.875.875,0,0,0-.4-.69l-1.437-.805A.9.9,0,0,0,84,249.862Z" transform="translate(-66.127 -249.764)" fill="#fee89f"/>
              <path id="Trazado_134787" data-name="Trazado 134787" d="M70.44,273.915V263.1a.886.886,0,0,1,.4-.694l17.471-10.087c.222-.127.4-.024.4.231v10.81a.887.887,0,0,1-.4.694L70.841,274.146C70.619,274.274,70.44,274.171,70.44,273.915Z" transform="translate(-68.196 -250.966)" fill="#fdd85e"/>
              <path id="Trazado_134788" data-name="Trazado 134788" d="M68.772,282.6a.92.92,0,0,1-.805,0l-1.436-.807a.872.872,0,0,1-.4-.689V270.3a.823.823,0,0,1,.128-.409l2.234,1.276a.8.8,0,0,0-.118.394v10.809C68.371,282.6,68.536,282.737,68.772,282.6Z" transform="translate(-66.127 -259.42)" opacity="0.2"/>
            </g>
          </g>
          <g id="Grupo_105134" data-name="Grupo 105134" transform="translate(5.23 8.284)">
            <path id="Trazado_134790" data-name="Trazado 134790" d="M76.44,273.659a.256.256,0,0,1-.224-.141.3.3,0,0,1,.095-.385l11.782-7.407a.249.249,0,0,1,.354.1.3.3,0,0,1-.095.385l-11.783,7.406A.24.24,0,0,1,76.44,273.659Z" transform="translate(-76.181 -265.689)" fill="#529d2e"/>
          </g>
        </g>
      </g>
      <g id="Light_bulb" data-name="Light bulb" transform="translate(215.428 38.268)">
        <g id="Idea">
          <g id="Light" transform="translate(6.288 6.202)">
            <g id="Grupo_105145" data-name="Grupo 105145">
              <g id="Grupo_105144" data-name="Grupo 105144">
                <g id="Grupo_105135" data-name="Grupo 105135" transform="translate(5.632 18.54)">
                  <path id="Trazado_134791" data-name="Trazado 134791" d="M431.48,96.366a1.532,1.532,0,1,1-1.516-1.549A1.532,1.532,0,0,1,431.48,96.366Z" transform="translate(-428.416 -94.817)" fill="#37474f"/>
                </g>
                <g id="Grupo_105136" data-name="Grupo 105136" transform="translate(4.576 17.612)">
                  <path id="Trazado_134792" data-name="Trazado 134792" d="M427.136,95.575a1.12,1.12,0,0,1,.022-2.121,4.06,4.06,0,0,1,3.674.039,1.12,1.12,0,0,1-.022,2.121A4.063,4.063,0,0,1,427.136,95.575Z" transform="translate(-426.386 -93.033)" fill="#455a64"/>
                </g>
                <g id="Grupo_105137" data-name="Grupo 105137" transform="translate(4.502 16.98)">
                  <path id="Trazado_134793" data-name="Trazado 134793" d="M427.017,94.438a1.154,1.154,0,0,1,.023-2.186,4.185,4.185,0,0,1,3.787.04,1.154,1.154,0,0,1-.023,2.186A4.187,4.187,0,0,1,427.017,94.438Z" transform="translate(-426.245 -91.818)" fill="#37474f"/>
                </g>
                <g id="Grupo_105138" data-name="Grupo 105138" transform="translate(4.426 16.329)">
                  <path id="Trazado_134794" data-name="Trazado 134794" d="M426.9,93.267a1.19,1.19,0,0,1,.024-2.254,4.316,4.316,0,0,1,3.9.042,1.19,1.19,0,0,1-.024,2.254A4.316,4.316,0,0,1,426.9,93.267Z" transform="translate(-426.099 -90.566)" fill="#455a64"/>
                </g>
                <g id="Grupo_105139" data-name="Grupo 105139" transform="translate(4.348 15.658)">
                  <path id="Trazado_134795" data-name="Trazado 134795" d="M426.77,92.059a1.226,1.226,0,0,1,.024-2.323,4.445,4.445,0,0,1,4.023.043,1.226,1.226,0,0,1-.024,2.323A4.447,4.447,0,0,1,426.77,92.059Z" transform="translate(-425.948 -89.276)" fill="#37474f"/>
                </g>
                <g id="Grupo_105140" data-name="Grupo 105140" transform="translate(4.297 14.983)">
                  <path id="Trazado_134796" data-name="Trazado 134796" d="M426.688,90.82a1.251,1.251,0,0,1,.025-2.37,4.538,4.538,0,0,1,4.105.043,1.251,1.251,0,0,1-.025,2.371A4.537,4.537,0,0,1,426.688,90.82Z" transform="translate(-425.85 -87.98)" fill="#455a64"/>
                </g>
                <g id="Grupo_105141" data-name="Grupo 105141">
                  <path id="Trazado_134797" data-name="Trazado 134797" d="M424.966,59.178A7.3,7.3,0,0,0,417.59,66.4c-.061,5.793,4.709,6.806,4.684,9.141A1.251,1.251,0,0,0,423,76.576a3.935,3.935,0,0,0,3.561.037,1.249,1.249,0,0,0,.748-1.02h0c.024-2.335,4.815-3.247,4.876-9.04A7.3,7.3,0,0,0,424.966,59.178Z" transform="translate(-417.59 -59.177)" fill="#fdab64"/>
                </g>
                <g id="Grupo_105143" data-name="Grupo 105143" transform="translate(5.31 15.235)">
                  <path id="Trazado_134799" data-name="Trazado 134799" d="M428.344,90.317a.816.816,0,0,1,.016-1.546,2.959,2.959,0,0,1,2.678.028.816.816,0,0,1-.016,1.546A2.961,2.961,0,0,1,428.344,90.317Z" transform="translate(-427.797 -88.465)" fill="#fc8116"/>
                </g>
              </g>
            </g>
            <g id="Grupo_105146" data-name="Grupo 105146" transform="translate(3.558 7.166)">
              <path id="Trazado_134800" data-name="Trazado 134800" d="M429.051,81.945a.247.247,0,0,1-.245-.245,17.684,17.684,0,0,1,.556-4.165,9.018,9.018,0,0,1,.376-1.156,3.366,3.366,0,0,1-.63-.316,4.284,4.284,0,0,1-.959-.825,4.272,4.272,0,0,1-.976.8,3.331,3.331,0,0,1-.637.3,8.953,8.953,0,0,1,.352,1.163,17.694,17.694,0,0,1,.468,4.176.251.251,0,0,1-.255.239.248.248,0,0,1-.24-.255,17.582,17.582,0,0,0-.455-4.047,8.218,8.218,0,0,0-.356-1.159,1.548,1.548,0,0,1-1.376-.42.793.793,0,0,1-.1-1.023.656.656,0,0,1,.677-.275c.39.081.766.486,1.085,1.144a2.8,2.8,0,0,0,.578-.269,3.78,3.78,0,0,0,.932-.785,1.836,1.836,0,0,1-.346-1.4.7.7,0,0,1,1.332.015,1.832,1.832,0,0,1-.376,1.387,3.791,3.791,0,0,0,.916.8,2.786,2.786,0,0,0,.572.281c.333-.65.718-1.047,1.109-1.121a.661.661,0,0,1,.671.289.792.792,0,0,1-.117,1.021,1.55,1.55,0,0,1-1.385.391,8.13,8.13,0,0,0-.381,1.152,17.481,17.481,0,0,0-.54,4.036.248.248,0,0,1-.246.25Zm-3.935-6.72c-.042,0-.088.018-.143.091-.122.164.019.342.066.394a.99.99,0,0,0,.789.273c-.259-.487-.511-.719-.675-.753A.161.161,0,0,0,425.116,75.225Zm5.337.806a1,1,0,0,0,.795-.256c.047-.05.193-.226.073-.392-.068-.1-.126-.1-.177-.091C430.98,75.323,430.722,75.549,430.453,76.031Zm-2.286-2.583a.165.165,0,0,0-.191.131.427.427,0,1,0,.379,0A.164.164,0,0,0,428.167,73.448Z" transform="translate(-424.43 -72.953)" fill="#fff"/>
            </g>
          </g>
          <g id="Grupo_105156" data-name="Grupo 105156">
            <g id="Grupo_105147" data-name="Grupo 105147" transform="translate(13.137)">
              <path id="Trazado_134801" data-name="Trazado 134801" d="M431.357,50.677a.469.469,0,0,1-.127.016.476.476,0,0,1-.474-.479l.01-2.486a.477.477,0,0,1,.954,0l-.011,2.486A.476.476,0,0,1,431.357,50.677Z" transform="translate(-430.756 -47.254)" fill="#e0e0e0"/>
            </g>
            <g id="Grupo_105148" data-name="Grupo 105148" transform="translate(6.593 1.727)">
              <path id="Trazado_134802" data-name="Trazado 134802" d="M420.012,53.669a.477.477,0,0,1-.537-.224l-1.234-2.157a.477.477,0,0,1,.828-.474l1.234,2.157a.479.479,0,0,1-.29.7Z" transform="translate(-418.177 -50.574)" fill="#e0e0e0"/>
            </g>
            <g id="Grupo_105149" data-name="Grupo 105149" transform="translate(1.781 6.499)">
              <path id="Trazado_134803" data-name="Trazado 134803" d="M411.675,61.936a.473.473,0,0,1-.364-.048l-2.147-1.252a.477.477,0,0,1,.48-.824l2.147,1.252a.476.476,0,0,1-.116.872Z" transform="translate(-408.927 -59.747)" fill="#e0e0e0"/>
            </g>
            <g id="Grupo_105150" data-name="Grupo 105150" transform="translate(0 13.038)">
              <path id="Trazado_134804" data-name="Trazado 134804" d="M408.59,73.265a.463.463,0,0,1-.126.016l-2.486-.01a.477.477,0,0,1,0-.954l2.486.01a.477.477,0,0,1,.123.937Z" transform="translate(-405.503 -72.317)" fill="#e0e0e0"/>
            </g>
            <g id="Grupo_105151" data-name="Grupo 105151" transform="translate(22.256 18.434)">
              <path id="Trazado_134805" data-name="Trazado 134805" d="M451.034,84.879a.476.476,0,0,1-.364-.048l-2.147-1.252a.477.477,0,0,1,.48-.824l2.147,1.252a.476.476,0,0,1-.116.872Z" transform="translate(-448.286 -82.691)" fill="#e0e0e0"/>
            </g>
            <g id="Grupo_105152" data-name="Grupo 105152" transform="translate(1.865 18.434)">
              <path id="Trazado_134806" data-name="Trazado 134806" d="M409.442,84.879a.477.477,0,0,0,.364-.048l2.147-1.252a.477.477,0,0,0-.48-.824l-2.147,1.252a.476.476,0,0,0,.115.872Z" transform="translate(-409.089 -82.691)" fill="#e0e0e0"/>
            </g>
            <g id="Grupo_105153" data-name="Grupo 105153" transform="translate(23.699 13.137)">
              <path id="Trazado_134807" data-name="Trazado 134807" d="M454.148,73.455a.463.463,0,0,1-.126.017l-2.486-.01a.477.477,0,1,1,0-.953l2.486.01a.477.477,0,0,1,.123.937Z" transform="translate(-451.061 -72.508)" fill="#e0e0e0"/>
            </g>
            <g id="Grupo_105154" data-name="Grupo 105154" transform="translate(22.3 6.594)">
              <path id="Trazado_134808" data-name="Trazado 134808" d="M448.972,62.1a.477.477,0,0,1-.36-.874l2.158-1.234a.477.477,0,0,1,.474.828l-2.158,1.234A.48.48,0,0,1,448.972,62.1Z" transform="translate(-448.371 -59.929)" fill="#e0e0e0"/>
            </g>
            <g id="Grupo_105155" data-name="Grupo 105155" transform="translate(18.434 1.781)">
              <path id="Trazado_134809" data-name="Trazado 134809" d="M441.54,53.763a.477.477,0,0,1-.536-.7l1.252-2.147a.476.476,0,1,1,.823.48l-1.252,2.147A.478.478,0,0,1,441.54,53.763Z" transform="translate(-440.939 -50.679)" fill="#e0e0e0"/>
            </g>
          </g>
        </g>
      </g>
      <g id="Character" transform="translate(198.561 61.094)">
        <g id="Character-2" data-name="Character" transform="translate(0 0)">
          <g id="Grupo_105157" data-name="Grupo 105157">
            <path id="Trazado_134810" data-name="Trazado 134810" d="M378.291,91.143c.839-.14.912,1.487.971,3.2.054,1.576.17,4.618.513,4.662s1.314-.648,2.157-.707c.824-.057,1.478.64.869.955-.35.181-1.4,1.007-1.889,1.358s-1.14.862-1.181,1.554S383.5,113.9,383.5,113.9s8.9,5.456,10.833,6.513,2.905.963,3.97,1.755c-2.038,1.177-4.972,4.089-6.612,5.656,0,0,.382.222-2.237-1.92-3.171-2.592-8.947-6.249-10.862-8.856-1.355-3.351-3.433-12.97-3.732-13.86-.358-1.07-.879-1.591-1.16-2.455a7.939,7.939,0,0,1-.615-3.038,1.121,1.121,0,0,1,.352-.865c.132-.1.3-.144.429-.241.205-.15.378-.435.6-.552.313-.162.789.028,1.09-.153.133-.08.394-.478.546-.507a2.636,2.636,0,0,1,.733.034c.146,0,.446.084.5-.11.072-.235.018-.745.168-2S377.718,91.239,378.291,91.143Z" transform="translate(-373.078 -91.135)" fill="#b16668"/>
            <path id="Trazado_134811" data-name="Trazado 134811" d="M400.744,134.605a31.575,31.575,0,0,0-3.784-1.691c-1.825-.745-10.917-6.55-10.917-6.55l-3.309-8.956a3.4,3.4,0,0,1-2.129,1.426,3.343,3.343,0,0,1-2.8-.307s2,8.46,2.356,9.863a5.391,5.391,0,0,0,2.072,3.244c1.381,1.255,11.8,9.454,11.8,9.454Z" transform="translate(-375.347 -103.741)" fill="#455a64"/>
            <path id="Trazado_134812" data-name="Trazado 134812" d="M378.349,102.381c-.093,1.02.081,2.155-.417,2.478a.939.939,0,0,0-1.706.172.746.746,0,0,1-.736-.243.766.766,0,0,1-1.1.189c.137.293.6.751,1.047.286,0,0,.778.479,1.235-.126a1.956,1.956,0,0,0-.122,1.885,2.847,2.847,0,0,1,.557-1.8,1.171,1.171,0,0,0,1.179-.21C378.781,104.533,378.349,102.381,378.349,102.381Z" transform="translate(-373.707 -96.531)" fill="#9a4a4d"/>
          </g>
          <g id="Grupo_105172" data-name="Grupo 105172" transform="translate(9.998 10.121)">
            <g id="Bottom" transform="translate(0 38.812)">
              <path id="Trazado_134813" data-name="Trazado 134813" d="M431.323,251.286c-.987-4.351-.817-12.225-1.314-16.16-.582-4.608-4.026-9.17-4.026-9.17s1.457-11.765,2.014-17.008c1.309-12.308-.986-17.078-2.282-18.929a25.67,25.67,0,0,1-1.414-2.241,20.12,20.12,0,0,1-1.269-2.578l-17.082.176a22.074,22.074,0,0,0-2.174,9.488c-1.78,6.413-1.479,26.771-1.2,34.134.169,4.413,3.022,23.841,3.085,24.44a2.158,2.158,0,0,0,2.555,1.081c1.753-.294,2.222-.906,2.223-1.091,0-.638.087-1.346.143-1.982.36-4.153,1.956-13.036,2.468-17.27a10.958,10.958,0,0,0-1.412-6.684l2.584-11.395a84.291,84.291,0,0,0,3.763,15.9c1.956,5.586,8.7,22.13,8.7,22.13.616,1.738,4.308.859,4.788-2.112Z" transform="translate(-397.127 -185.201)" fill="#b16668"/>
              <path id="Trazado_134814" data-name="Trazado 134814" d="M453.028,312.233c.924-.158.8,3.053,1.341,5,.585,2.089,1.632,3.5,2.133,5.209a6.431,6.431,0,0,1-.076,4.628c-.445,1.4-3.406,3.753-4.914,2.151a9.051,9.051,0,0,1-2.263-5.662,31.4,31.4,0,0,0-.809-5.029c-.39-1.66-1.267-4.569-.588-4.79l.388.955c.544.665,4.68-.211,4.943-1.731Z" transform="translate(-418.832 -246.148)" fill="#37474f"/>
              <g id="Grupo_105159" data-name="Grupo 105159" transform="translate(0 63.791)">
                <g id="Grupo_105158" data-name="Grupo 105158">
                  <path id="Trazado_134815" data-name="Trazado 134815" d="M417.371,316.618a18.3,18.3,0,0,1-.054,3.772,3.679,3.679,0,0,1-2.012,1.565l-.652-3.853Z" transform="translate(-403.024 -312.045)" fill="#263238"/>
                  <path id="Trazado_134816" data-name="Trazado 134816" d="M412.028,322.985l-3.416-1.167-.79-3.054,3.807,1.861Z" transform="translate(-399.746 -313.075)"/>
                  <path id="Trazado_134817" data-name="Trazado 134817" d="M400.372,309l-.127-.9c-.468.221-.445,3.946-2.935,6.571-1.837,1.936-3.927,3.074-4.753,4.086-1.106,1.355,1.483,3.638,4.89,2.952,1.691-.341,4.258-1.389,4.964-2.519s1.193-2.977,1.77-3.806,2.164-1.466,2.54-2.387a5.487,5.487,0,0,0-.19-3.343c-.255-.87-.1-1.8-.493-1.82l-.092.7c-.233.461-1.6,1.069-3.316,1.141C401.811,309.706,400.736,309.746,400.372,309Z" transform="translate(-392.297 -307.828)" fill="#37474f"/>
                </g>
              </g>
              <g id="Grupo_105160" data-name="Grupo 105160" transform="translate(4.721 4.819)">
                <path id="Trazado_134818" data-name="Trazado 134818" d="M403.565,195.93s3.8,2.709,11.137,2.216,10.538-3.681,10.538-3.681a16.234,16.234,0,0,1,2.83,6.9c.392,3.137-.366,12.713-1.1,19.578s-1.05,9.233-1.05,9.233,1.643,2.859,2.841,5.4c1.539,3.264,1.43,13.934,1.7,17.861a7.1,7.1,0,0,1-5.527,1.981c-1.658-3.5-6.97-17.022-7.819-19.59a55.6,55.6,0,0,1-3.367-15.283L411.67,232a16.33,16.33,0,0,1,1.113,4.149c.376,2.486-1.511,12.613-2.193,15.771a5.814,5.814,0,0,1-6.239,0c-.383-2.93-2.133-14-2.379-17.1a152.123,152.123,0,0,1-.547-18.416A131.041,131.041,0,0,1,403.565,195.93Z" transform="translate(-401.373 -194.464)" fill="#455a64"/>
                <path id="Trazado_134819" data-name="Trazado 134819" d="M418.951,229.245l-.971-11.482s-4.639-2.7-5.763-5.164a7.907,7.907,0,0,0,3.623,5.957l1.586,11.618-.553,10.528Z" transform="translate(-406.576 -203.165)" fill="#37474f"/>
              </g>
            </g>
            <g id="Top" transform="translate(6.417)">
              <g id="Grupo_105170" data-name="Grupo 105170" transform="translate(3.838)">
                <g id="Grupo_105167" data-name="Grupo 105167">
                  <path id="Trazado_134820" data-name="Trazado 134820" d="M418.2,123.457a2.274,2.274,0,0,0-.353-.7,3.221,3.221,0,0,0-.767-.58,10.336,10.336,0,0,0-1.72-.714,4.217,4.217,0,0,1-2.556-1.781,1.182,1.182,0,0,1-.119-.876.624.624,0,0,1,.7-.441,3.258,3.258,0,0,1-.925-.984,1.494,1.494,0,0,1-.109-1.308.984.984,0,0,1,1.108-.573,4.891,4.891,0,0,1-1.352-1.733,1.442,1.442,0,0,1,.434-1.672,4.507,4.507,0,0,1,1.8-.328,28.743,28.743,0,0,0,4.533-.91,16.069,16.069,0,0,1,5.547-.043,4.688,4.688,0,0,1,3.523,2.5c.173.38.195.555.573.72a7.281,7.281,0,0,1,1.145.456,4.368,4.368,0,0,1,1.667,2.159,12.3,12.3,0,0,1,.5,4.13,9.782,9.782,0,0,0,.678,4.093,11.412,11.412,0,0,1,1.179,2.428,2.7,2.7,0,0,1-3.724,3.015,3.94,3.94,0,0,0,.333-2.23,3.527,3.527,0,0,1-2.921,2.427c-3.156.626-6.016-1.594-7.632-4.114A22.936,22.936,0,0,1,418.2,123.457Z" transform="translate(-412.011 -110.591)" fill="#263238"/>
                  <path id="Trazado_134821" data-name="Trazado 134821" d="M415.6,126.794c.053,0-.756,2.181-.852,2.374-.968,1.963-1.828,3.726-.931,5.819a4.562,4.562,0,0,0,3.269,2.56,9.269,9.269,0,0,0,2.233.137,2.818,2.818,0,0,0,1.685-.559c.306-.248.2-1.045.207-1.432q.068-2.213.135-4.425c.008-.262.13-4.308.132-4.308Z" transform="translate(-412.699 -118.365)" fill="#263238"/>
                  <g id="Grupo_105161" data-name="Grupo 105161" transform="translate(1.825 3.301)">
                    <path id="Trazado_134822" data-name="Trazado 134822" d="M418.788,116.937c-1.079.509-3.309,2.826-3.267,8.355.034,4.595.83,5.7,2.073,6.266a7.729,7.729,0,0,0,3.368.232l-.057,2.776s-4.116,2.8-.947,3.512a7.061,7.061,0,0,0,5.05-1.049,6.957,6.957,0,0,0,2.051-1.872l.511-6.17s.747.874,2.253-.213c1.244-.9,1.79-2.557.978-3.55a2.079,2.079,0,0,0-3.317.319s-.793.42-1.47-1.177a20.78,20.78,0,0,1-3.767-2.142A8.007,8.007,0,0,1,418.788,116.937Z" transform="translate(-415.52 -116.937)" fill="#b16668"/>
                  </g>
                  <g id="Grupo_105162" data-name="Grupo 105162" transform="translate(5.754 13.995)">
                    <path id="Trazado_134823" data-name="Trazado 134823" d="M425.587,137.493l-2.514.63a1.273,1.273,0,0,0,1.547.985A1.358,1.358,0,0,0,425.587,137.493Z" transform="translate(-423.073 -137.493)" fill="#9a4a4d"/>
                  </g>
                  <path id="Trazado_134824" data-name="Trazado 134824" d="M424.956,139.607a1.2,1.2,0,0,1,1.3-1.082,1.182,1.182,0,0,1,.237.044,1.334,1.334,0,0,1-.968,1.033A1.237,1.237,0,0,1,424.956,139.607Z" transform="translate(-418.222 -123.991)" fill="#f28f8f"/>
                  <g id="Grupo_105163" data-name="Grupo 105163" transform="translate(2.934 7.497)">
                    <path id="Trazado_134825" data-name="Trazado 134825" d="M417.669,125.908l1.374-.365a.683.683,0,0,0-.846-.517A.747.747,0,0,0,417.669,125.908Z" transform="translate(-417.651 -125.002)" fill="#263238"/>
                  </g>
                  <g id="Grupo_105164" data-name="Grupo 105164" transform="translate(9.173 8.308)">
                    <path id="Trazado_134826" data-name="Trazado 134826" d="M429.645,126.951l1.274.631a.682.682,0,0,0-.295-.946A.747.747,0,0,0,429.645,126.951Z" transform="translate(-429.645 -126.561)" fill="#263238"/>
                  </g>
                  <g id="Grupo_105165" data-name="Grupo 105165" transform="translate(3.371 9.25)">
                    <path id="Trazado_134827" data-name="Trazado 134827" d="M421.173,128.372l-.636,3.828-2.047-.614Z" transform="translate(-418.491 -128.372)" fill="#9a4a4d"/>
                  </g>
                  <g id="Grupo_105166" data-name="Grupo 105166" transform="translate(7.248 15.821)">
                    <path id="Trazado_134828" data-name="Trazado 134828" d="M425.964,143.337c1.489-.056,4.772-1.181,5.355-2.334a3.1,3.1,0,0,1-1.3,1.913,16.368,16.368,0,0,1-4.079,1.319Z" transform="translate(-425.945 -141.003)" fill="#9a4a4d"/>
                  </g>
                  <path id="Trazado_134829" data-name="Trazado 134829" d="M437.141,129.806l-.225,2.406h0a1.645,1.645,0,0,1-1.485-1.791l.208-2.222Z" transform="translate(-423.245 -119.04)" fill="#263238"/>
                </g>
                <g id="Grupo_105168" data-name="Grupo 105168" transform="translate(2.636 9.261)">
                  <path id="Trazado_134830" data-name="Trazado 134830" d="M418.349,128.966a.655.655,0,0,1-.594.687.614.614,0,0,1-.676-.57.654.654,0,0,1,.594-.687A.614.614,0,0,1,418.349,128.966Z" transform="translate(-417.077 -128.394)" fill="#263238"/>
                </g>
                <g id="Grupo_105169" data-name="Grupo 105169" transform="translate(7.492 9.454)">
                  <path id="Trazado_134831" data-name="Trazado 134831" d="M427.684,129.337a.655.655,0,0,1-.594.687.613.613,0,0,1-.676-.57.655.655,0,0,1,.594-.687A.614.614,0,0,1,427.684,129.337Z" transform="translate(-426.412 -128.765)" fill="#263238"/>
                </g>
              </g>
              <g id="Grupo_105171" data-name="Grupo 105171" transform="translate(0 20.696)">
                <path id="Trazado_134832" data-name="Trazado 134832" d="M424.283,168.535l2.182-7.555a12.414,12.414,0,0,0,.57-6.846c-.391-1.523-5.038-2.891-5.038-2.891-.71-.224-2.806-.238-3.45-.346l-4.77-.431a22.107,22.107,0,0,0-7.073,6.174c-1.555,2.019-3.022,4.889.131,7.978a9.582,9.582,0,0,0,.366,4.093" transform="translate(-404.794 -150.419)" fill="#b16668"/>
                <path id="Trazado_134833" data-name="Trazado 134833" d="M415.681,150.61s-6.556,6.777-2.883,7.231c4.1.507,7.686-3.772,9.038-6.64,0,0,3.645,1.025,4.569,1.335s1.3,3.2.557,6.584-2.538,9.241-2.538,9.241l2.381,4.95a15.854,15.854,0,0,1-11.306,4.332c-7.175-.116-10.37-2.866-10.37-2.866l1.524-6.182a10.081,10.081,0,0,1-.183-3.945,5.726,5.726,0,0,1-1.837-3.8c-.027-2.332,1.178-3.9,3.456-6.366a28.456,28.456,0,0,1,5.216-4.1Z" transform="translate(-404.632 -150.376)" fill="#263238"/>
                <path id="Trazado_134834" data-name="Trazado 134834" d="M427.072,176.828a4.906,4.906,0,0,1-4.849,2.209,5.176,5.176,0,0,1-4.164-3.094s-.155,3.608,4.1,3.955S427.072,176.828,427.072,176.828Z" transform="translate(-411.074 -162.644)" opacity="0.2"/>
              </g>
            </g>
          </g>
          <g id="Grupo_105179" data-name="Grupo 105179" transform="translate(30.399 32.519)">
            <g id="Grupo_105173" data-name="Grupo 105173" transform="translate(1.803 20.118)">
              <path id="Trazado_134835" data-name="Trazado 134835" d="M434.985,203.663v16.022a.33.33,0,0,0,.126.3l.724.421a.239.239,0,0,0,.113.022.43.43,0,0,0,.208-.059l18.162-10.487a1.035,1.035,0,0,0,.466-.815l0-16a.33.33,0,0,0-.132-.3.092.092,0,0,0-.031-.018h0l-.679-.4a.276.276,0,0,0-.122-.031.456.456,0,0,0-.208.063l-9.519,5.487-1.127.652s-1.384.8-1.683.963l-.045.028-5.778,3.334a.654.654,0,0,0-.095.068.982.982,0,0,0-.235.285A.933.933,0,0,0,434.985,203.663Z" transform="translate(-434.983 -192.322)" fill="#fc8116"/>
              <path id="Trazado_134836" data-name="Trazado 134836" d="M435.246,203.2l.7.407h0c.023-.036.045-.072.068-.1a1.1,1.1,0,0,1,.168-.181.623.623,0,0,1,.095-.068l5.778-3.33c.145-.086,1.448-.832,1.71-.982l.692-.4,9.972-5.749a.332.332,0,0,1,.3-.045l-.679-.4a.276.276,0,0,0-.122-.031.393.393,0,0,0-.208.063l-9.519,5.487-1.127.652s-1.384.8-1.683.963l-.045.028-5.778,3.334a.657.657,0,0,0-.095.068A.982.982,0,0,0,435.246,203.2Z" transform="translate(-435.108 -192.322)" fill="#fff" opacity="0.5"/>
              <path id="Trazado_134837" data-name="Trazado 134837" d="M455.424,193.446l.008,16a1.034,1.034,0,0,1-.47.814L436.75,220.777a.277.277,0,0,1-.416-.24V204.452a.951.951,0,0,1,.137-.462,1,1,0,0,1,.331-.351l5.778-3.336,1.711-.979,10.662-6.149a.348.348,0,0,1,.307-.045l.019.01.01.005.005,0A.337.337,0,0,1,455.424,193.446Z" transform="translate(-435.63 -192.701)" fill="#fd963d"/>
              <path id="Trazado_134838" data-name="Trazado 134838" d="M436.594,213.924h0c.023-.036.045-.072.068-.1A.864.864,0,0,0,436.594,213.924Z" transform="translate(-435.755 -202.637)" fill="#27debf"/>
            </g>
            <g id="Grupo_105175" data-name="Grupo 105175" transform="translate(5.64)">
              <g id="Grupo_105174" data-name="Grupo 105174" transform="translate(0.192 1.31)">
                <path id="Trazado_134840" data-name="Trazado 134840" d="M453.913,176.89c-3.891-15.9-5.893-20.785-10.619-20.723-1.38,1.65.075,6.781.987,9.276,0,0,4.181,10.214,4.958,13.86a51.379,51.379,0,0,1,1.4,9.988,1.994,1.994,0,0,1-.54,1.31c-.887.962-.891,1.737-1.466,2.8-.45.833-.943,1.144-.8,1.332a1.077,1.077,0,0,0,1.46.108,5.5,5.5,0,0,0,1.106-1.061,12.328,12.328,0,0,1-.862,3.655l-.989.571s.3,1.028,2.691.342c2.7-.774,3.664-1.108,3.949-5.683a35.326,35.326,0,0,0,.05-5.064A87.694,87.694,0,0,0,453.913,176.89Z" transform="translate(-442.726 -156.166)" fill="#b16668"/>
              </g>
              <path id="Trazado_134841" data-name="Trazado 134841" d="M443,153.648s4.768,1.064,5.909,2.812c1.319,2.019,1.821,4.626,4.039,12.517a68.45,68.45,0,0,1,2.529,18.177,6.264,6.264,0,0,1-5.344-.183s-1.136-6.864-2.143-10.516-4.238-11.565-4.238-11.565S441.2,159.141,443,153.648Z" transform="translate(-442.357 -153.648)" fill="#455a64"/>
            </g>
            <g id="Grupo_105176" data-name="Grupo 105176" transform="translate(0 34.631)">
              <path id="Trazado_134842" data-name="Trazado 134842" d="M432.985,230.248c-.22.135-.312-.275-.364-.877l-.019-1.112s-.85.762-1.059-1.811c-.229-2.831,1.038-3.35,1.038-3.35s.006-.47.006-1.4.2-1.159.413-1.316l.318-.161v9.83S433.2,230.114,432.985,230.248Z" transform="translate(-431.516 -220.22)" fill="#37474f"/>
            </g>
            <g id="Grupo_105177" data-name="Grupo 105177" transform="translate(1.691 35.447)">
              <path id="Trazado_134843" data-name="Trazado 134843" d="M435.583,229.6c0-.843.081-1.343.621-1.674.617-.379.885-.508.885-.508l.158-5.214s-.893.6-1.2.779-.481-.883-.466-1.2l-.731.333-.085,8.05Z" transform="translate(-434.767 -221.789)" fill="#37474f"/>
            </g>
            <g id="Grupo_105178" data-name="Grupo 105178" transform="translate(3.131 33.717)">
              <path id="Trazado_134844" data-name="Trazado 134844" d="M438.672,227.5l-.638.384c-.352.212-.508-.87-.348-2.417l-.151-3.444c.16-1.547.187-2.965.539-3.177l.638-.384Z" transform="translate(-437.535 -218.463)" fill="#37474f"/>
            </g>
          </g>
        </g>
      </g>
    </g>
  </g>
</svg>
