<svg xmlns="http://www.w3.org/2000/svg" width="162.313" height="69.12" viewBox="0 0 162.313 69.12">
  <g id="Grupo_105590" data-name="Grupo 105590" transform="translate(-2084.79 -367.405)">
    <path id="Trazado_136379" data-name="Trazado 136379" d="M2246.917,429.833H2088s11.192-13.383,21.264-49.881c0,0,3.917-22.507,25.18-3.041C2134.444,376.911,2183.686,421.926,2246.917,429.833Z" transform="translate(0 0)" fill="#edf8a4"/>
    <path id="Trazado_136378" data-name="Trazado 136378" d="M2136.819,429.833H2088s11.192-13.383,21.264-49.881c0,0,3.917-22.507,25.18-3.041C2134.444,376.911,2136.819,416.944,2136.819,429.833Z" transform="translate(0 0)" fill="#f6fbd1"/>
    <path id="Trazado_136377" data-name="Trazado 136377" d="M2246.917,429.833H2088s11.192-13.383,21.264-49.881c0,0,3.917-22.507,25.18-3.041C2134.444,376.911,2183.686,421.926,2246.917,429.833Z" fill="none" stroke="#12263f" stroke-miterlimit="10" stroke-width="3"/>
    <line id="Línea_347" data-name="Línea 347" y2="58.397" transform="translate(2136.682 378.128)" fill="none" stroke="#12263f" stroke-miterlimit="10" stroke-width="3"/>
    <line id="Línea_348" data-name="Línea 348" x2="23.502" y2="24.332" transform="translate(2113.18 372.045)" fill="none" stroke="#12263f" stroke-miterlimit="10" stroke-width="3"/>
    <line id="Línea_349" data-name="Línea 349" x2="29.097" y2="31.632" transform="translate(2107.585 385.428)" fill="none" stroke="#12263f" stroke-miterlimit="10" stroke-width="3"/>
    <line id="Línea_350" data-name="Línea 350" x2="25.74" y2="27.982" transform="translate(2101.989 402.46)" fill="none" stroke="#12263f" stroke-miterlimit="10" stroke-width="3"/>
    <line id="Línea_351" data-name="Línea 351" x2="10.072" y2="13.383" transform="translate(2096.393 417.059)" fill="none" stroke="#12263f" stroke-miterlimit="10" stroke-width="3"/>
    <line id="Línea_352" data-name="Línea 352" x1="11.191" y2="10.949" transform="translate(2136.682 387.861)" fill="none" stroke="#12263f" stroke-miterlimit="10" stroke-width="3"/>
    <line id="Línea_353" data-name="Línea 353" x1="23.502" y2="24.332" transform="translate(2136.682 396.377)" fill="none" stroke="#12263f" stroke-miterlimit="10" stroke-width="3"/>
    <line id="Línea_354" data-name="Línea 354" x1="25.74" y2="26.765" transform="translate(2146.754 403.677)" fill="none" stroke="#12263f" stroke-miterlimit="10" stroke-width="3"/>
    <line id="Línea_355" data-name="Línea 355" x1="16.787" y2="18.249" transform="translate(2168.018 410.976)" fill="none" stroke="#12263f" stroke-miterlimit="10" stroke-width="3"/>
    <line id="Línea_356" data-name="Línea 356" x1="12.31" y2="13.383" transform="translate(2187.043 417.059)" fill="none" stroke="#12263f" stroke-miterlimit="10" stroke-width="3"/>
    <line id="Línea_357" data-name="Línea 357" x1="6.715" y2="8.516" transform="translate(2207.188 421.926)" fill="none" stroke="#12263f" stroke-miterlimit="10" stroke-width="3"/>
    <line id="Línea_358" data-name="Línea 358" x1="2.238" y2="2.433" transform="translate(2226.212 426.792)" fill="none" stroke="#12263f" stroke-miterlimit="10" stroke-width="3"/>
  </g>
</svg>
