<svg xmlns="http://www.w3.org/2000/svg" width="53.583" height="54" viewBox="0 0 53.583 54">
  <g id="Grupo_96729" data-name="Grupo 96729" transform="translate(-445.188 -116.588)">
    <path id="Trazado_128737" data-name="Trazado 128737" d="M484.791,169.238c-.331.4-.67.791-.989,1.2-.158.2-.261.2-.418,0-.319-.408-.659-.8-.99-1.2a2.021,2.021,0,0,1-.622-.548c-.588-.744-1.2-1.469-1.767-2.229a1.436,1.436,0,0,0-1.284-.609c-2.975.018-5.949,0-8.924.015a3.423,3.423,0,0,1-2.3-.679,1.558,1.558,0,0,0-1.068-.22q-9.175,0-18.35,0c-.093,0-.187.008-.279,0-.442-.035-.66.146-.636.609.019.371-.018.744.023,1.115a1.624,1.624,0,0,0,1.443,1.471,6.68,6.68,0,0,0,.891.025H477.8c.223,0,.446,0,.669,0,.8.027.981.32.676,1.07-.044.887-.044.887-.969.887-9.633,0-19.267-.038-28.9.027a3.777,3.777,0,0,1-4.074-4.124c.029-.37,0-.744,0-1.115a1.8,1.8,0,0,1,1.961-1.928c.967,0,1.935-.028,2.9.011.44.018.5-.129.5-.525q-.02-8.7-.009-17.407,0-12.721,0-25.441a2.72,2.72,0,0,1,3.052-3.059h41.23a3.6,3.6,0,0,1,3.922,3.909c0,1.618,0,3.236,0,4.854a1.8,1.8,0,0,1-1.942,1.948c-1,.005-2.009.012-3.013-.006-.3-.005-.409.06-.408.389q.017,6.3,0,12.609c0,.3.062.418.39.407.743-.025,1.488-.014,2.231-.006a2.656,2.656,0,0,1,2.736,2.7q.015,9.792,0,19.583a2.659,2.659,0,0,1-2.728,2.709c-1.171.014-2.342.014-3.513.02a1.127,1.127,0,0,1-.747.147q-1.722.006-3.445,0a1.108,1.108,0,0,0-.95.351c-.712.8-1.356,1.666-2.032,2.5A1.943,1.943,0,0,1,484.791,169.238Z" transform="translate(0 0)"/>
    <path id="Trazado_128738" data-name="Trazado 128738" d="M489.086,444.073c-.044-.9-.044-.9-.966-.9H459.171c-1.606,0-2.246-.626-2.235-2.211,0-.439-.2-1.038.088-1.275.27-.222.847-.083,1.289-.084q9.176,0,18.351-.007a1.3,1.3,0,0,1,.954.32,2.6,2.6,0,0,0,1.813.581c3.2-.007,6.4,0,9.594-.012a.93.93,0,0,1,.835.405c.812,1.062,1.647,2.105,2.473,3.155Z" transform="translate(-9.94 -274.811)" fill="silver"/>
    <path id="Trazado_128739" data-name="Trazado 128739" d="M725.857,446.313a.975.975,0,0,1,1.063-.583c1.429.043,2.861.025,4.291.031a7.341,7.341,0,0,1-.063,1.435,2.687,2.687,0,0,1-2.8,2.117c-.166,0-.333-.005-.5-.008a2.457,2.457,0,0,1-1.992-1.709A1.489,1.489,0,0,1,725.857,446.313Z" transform="translate(-238.689 -280.057)" fill="#e4e0db"/>
    <path id="Trazado_128740" data-name="Trazado 128740" d="M713.133,449.645a2.77,2.77,0,0,0,1.992,2.992l-4.368-.01C711.5,451.6,712.311,450.616,713.133,449.645Z" transform="translate(-225.965 -283.389)" fill="silver"/>
    <path id="Trazado_128741" data-name="Trazado 128741" d="M532.893,128.579a4.391,4.391,0,0,0-.475,2.215c.008,6.508,0,13.016.016,19.524,0,.464-.108.573-.572.572-7.1-.017-14.206.024-21.309-.035a2.953,2.953,0,0,0-3.151,3.177c.067,6.21.02,12.421.035,18.631,0,.434-.1.545-.542.544q-6.61-.026-13.221,0c-.439,0-.541-.112-.541-.544q.018-21.449.01-42.9c0-.874.288-1.2,1.08-1.2q19.189,0,38.379,0C532.677,128.562,532.751,128.57,532.893,128.579Z" transform="translate(-40.796 -10.188)" fill="#e4e0db"/>
    <path id="Trazado_128742" data-name="Trazado 128742" d="M615.25,290.185h12.94c1.077,0,1.325.242,1.325,1.295q0,9.426,0,18.852c0,1.022-.258,1.277-1.287,1.278-2.826,0-5.652.007-8.478-.008a.889.889,0,0,0-.794.382c-.832,1.071-1.7,2.118-2.529,3.189-.223.287-.345.339-.6.014-.8-1.046-1.655-2.056-2.46-3.1a1.083,1.083,0,0,0-.967-.486c-3.4.021-6.8.012-10.207.011-.985,0-1.248-.266-1.248-1.259q0-9.454,0-18.908c0-.994.262-1.257,1.25-1.257Z" transform="translate(-132.533 -147.709)" fill="#57b483"/>
    <path id="Trazado_128743" data-name="Trazado 128743" d="M772.1,132.79c0,.835-.009,1.67.006,2.5.005.288-.034.434-.38.425-.945-.024-1.892-.021-2.838,0-.307.006-.365-.107-.363-.385.011-1.669-.008-3.339.012-5.008a1.763,1.763,0,0,1,1.785-1.754,1.782,1.782,0,0,1,1.773,1.771C772.113,131.158,772.1,131.974,772.1,132.79Z" transform="translate(-275.118 -10.196)" fill="#aeaeae"/>
    <path id="Trazado_128744" data-name="Trazado 128744" d="M624.9,155.442a8.926,8.926,0,1,1,8.809,8.946A8.932,8.932,0,0,1,624.9,155.442Z" transform="translate(-152.913 -25.485)"/>
    <path id="Trazado_128745" data-name="Trazado 128745" d="M513.114,184.679c-2.491,0-4.983-.008-7.474.008-.4,0-.576-.05-.563-.523.035-1.266.009-1.284,1.258-1.26.417.008.568-.076.554-.533-.037-1.17,0-2.342-.02-3.513-.006-.333.066-.437.422-.437,1.371,0,1.371-.016,1.371,1.377,0,.911.012,1.822-.007,2.733-.006.294.083.365.372.372,1.42.032,1.42.042,1.42-1.381,0-1.766.014-3.533-.01-5.3-.005-.4.113-.484.494-.479,1.3.016,1.3,0,1.3,1.278,0,1.785.011,3.57-.009,5.354,0,.387.05.543.5.533,1.3-.029,1.3,0,1.3-1.287,0-2.677.009-5.355-.009-8.032,0-.4.066-.536.5-.527,1.29.028,1.291,0,1.291,1.292,0,2.677.01,5.355-.01,8.032,0,.408.083.53.51.521,1.285-.026,1.286,0,1.286-1.3,0-3.57.008-7.139-.011-10.709,0-.416.1-.524.514-.516,1.281.025,1.281,0,1.281,1.3,0,3.57.008,7.139-.011,10.709,0,.425.109.519.519.511,1.285-.023,1.262,0,1.29,1.282.01.442-.135.5-.529.5C518.133,184.67,515.624,184.679,513.114,184.679Z" transform="translate(-50.958 -45.774)"/>
    <path id="Trazado_128746" data-name="Trazado 128746" d="M510.445,154.237c-1.635,0-3.271-.01-4.906.008-.334,0-.436-.068-.436-.423,0-1.37-.015-1.37,1.376-1.37,2.955,0,5.91.008,8.865-.009.383,0,.5.08.493.48-.018,1.314,0,1.315-1.321,1.315Z" transform="translate(-50.98 -30.508)"/>
    <path id="Trazado_128747" data-name="Trazado 128747" d="M532.684,284.158c1.04,0,2.081.012,3.121-.007.31-.005.4.076.4.4.019,1.4.03,1.4-1.347,1.4-1.784,0-3.567-.01-5.351.008-.357,0-.464-.082-.462-.453.007-1.341-.008-1.341,1.349-1.341Z" transform="translate(-71.356 -142.574)"/>
    <path id="Trazado_128748" data-name="Trazado 128748" d="M532.673,320.07c1.022,0,2.044.014,3.065-.008.346-.007.472.063.469.446-.008,1.347.009,1.347-1.344,1.347-1.784,0-3.567-.009-5.351.007-.345,0-.471-.063-.469-.446.008-1.347-.009-1.347,1.344-1.347Z" transform="translate(-71.351 -173.13)"/>
    <path id="Trazado_128749" data-name="Trazado 128749" d="M532.688,355.99c1.04,0,2.081.012,3.121-.007.314-.006.4.083.4.4.018,1.394.029,1.394-1.35,1.394-1.784,0-3.567-.01-5.351.009-.362,0-.461-.09-.459-.456.007-1.338-.008-1.338,1.351-1.338Z" transform="translate(-71.358 -203.694)"/>
    <path id="Trazado_128750" data-name="Trazado 128750" d="M532.561,393.684c-1.04,0-2.081-.012-3.121.007-.316.006-.4-.086-.4-.4-.018-1.393-.029-1.393,1.351-1.393,1.784,0,3.567.011,5.351-.009.364,0,.459.094.458.457-.007,1.337.007,1.337-1.352,1.337Z" transform="translate(-71.344 -234.246)"/>
    <path id="Trazado_128751" data-name="Trazado 128751" d="M506.958,285.129c0,.856,0,.856-.874.856-.911,0-.911,0-.911-.93,0-.856,0-.856.874-.856C506.958,284.2,506.958,284.2,506.958,285.129Z" transform="translate(-51.04 -142.616)"/>
    <path id="Trazado_128752" data-name="Trazado 128752" d="M506.088,320.116c.87,0,.87,0,.87.86,0,.925,0,.925-.916.925-.87,0-.87,0-.87-.86C505.173,320.116,505.173,320.116,506.088,320.116Z" transform="translate(-51.04 -173.176)"/>
    <path id="Trazado_128753" data-name="Trazado 128753" d="M506.1,356.032c.86,0,.86,0,.86.87,0,.916,0,.916-.926.916-.86,0-.86,0-.86-.87C505.173,356.032,505.173,356.032,506.1,356.032Z" transform="translate(-51.04 -203.736)"/>
    <path id="Trazado_128754" data-name="Trazado 128754" d="M506.025,393.734c-.852,0-.852,0-.852-.877,0-.908,0-.908.933-.908.852,0,.852,0,.852.877C506.958,393.734,506.958,393.734,506.025,393.734Z" transform="translate(-51.04 -234.297)"/>
    <path id="Trazado_128755" data-name="Trazado 128755" d="M616.433,321.262c-.669,0-1.341-.035-2.007.011-.518.036-.7-.085-.681-.65.05-1.225-.007-2.454.027-3.68a1.082,1.082,0,0,0-.5-1.083.9.9,0,0,1-.417-.892c.024-1.3.02-2.6.006-3.9a2.656,2.656,0,0,1,1.261-2.452c.3-.188.192-.3.064-.506a2.907,2.907,0,0,1,1.565-4.387,2.671,2.671,0,0,1,3.356,2.418,2.973,2.973,0,0,1-.491,2.067c-.148.2-.077.265.1.376a2.783,2.783,0,0,1,1.3,2.607c-.026,1.264-.02,2.528,0,3.792a.894.894,0,0,1-.419.892,1.063,1.063,0,0,0-.492,1.082c.029,1.282,0,2.565.018,3.848.006.36-.089.483-.461.468C617.921,321.242,617.177,321.262,616.433,321.262Z" transform="translate(-142.666 -159.147)"/>
    <path id="Trazado_128756" data-name="Trazado 128756" d="M676.313,321.283c-.725,0-1.451-.023-2.174.009-.4.018-.543-.078-.533-.513.032-1.282-.01-2.566.023-3.847a1.042,1.042,0,0,0-.479-1.035.943.943,0,0,1-.435-.94c.026-1.338.007-2.677.011-4.015a2.57,2.57,0,0,1,1.191-2.265c.29-.19.294-.287.12-.581a3,3,0,0,1-.065-3.082,2.666,2.666,0,0,1,4.63-.035,2.992,2.992,0,0,1,0,3.036c-.19.342-.234.47.132.71a2.49,2.49,0,0,1,1.13,2.182c.009,1.413-.014,2.826.015,4.238a.85.85,0,0,1-.45.766,1.046,1.046,0,0,0-.465.986c.03,1.319,0,2.64.019,3.959.005.346-.095.447-.438.435C677.8,321.265,677.057,321.283,676.313,321.283Z" transform="translate(-193.597 -159.168)"/>
    <path id="Trazado_128757" data-name="Trazado 128757" d="M736.134,321.256c-.725,0-1.451-.025-2.174.01-.409.019-.489-.129-.482-.5.022-1.264-.013-2.529.019-3.792a1.143,1.143,0,0,0-.514-1.131.86.86,0,0,1-.4-.844c.022-1.338.011-2.677.008-4.015a2.593,2.593,0,0,1,1.234-2.353c.317-.2.22-.313.077-.546a2.905,2.905,0,0,1,1.6-4.373,2.671,2.671,0,0,1,3.326,2.338,2.975,2.975,0,0,1-.467,2.128c-.162.218-.1.291.1.417a2.725,2.725,0,0,1,1.276,2.5c-.017,1.3-.018,2.6.005,3.9a.865.865,0,0,1-.4.847,1.13,1.13,0,0,0-.516,1.128c.031,1.282,0,2.565.018,3.848,0,.332-.071.457-.429.444C737.659,321.236,736.9,321.256,736.134,321.256Z" transform="translate(-244.538 -159.14)"/>
    <path id="Trazado_128758" data-name="Trazado 128758" d="M696.934,166.137a7.759,7.759,0,0,1-.469,2.647c-.115.33-.225.438-.576.213-1.608-1.032-3.231-2.039-4.855-3.044a.628.628,0,0,1-.357-.612q.027-2.868,0-5.737c0-.4.137-.455.48-.4a7.188,7.188,0,0,1,5.67,5.8A5.722,5.722,0,0,1,696.934,166.137Z" transform="translate(-208.88 -36.246)" fill="#e49035"/>
    <path id="Trazado_128759" data-name="Trazado 128759" d="M643.038,162.519c0,.928-.01,1.857.006,2.785a.662.662,0,0,1-.348.672q-2.445,1.495-4.858,3.04c-.342.219-.448.13-.581-.2a7.189,7.189,0,0,1,5.256-9.571c.391-.076.556-.028.537.437C643.01,160.624,643.038,161.572,643.038,162.519Z" transform="translate(-163.017 -36.267)" fill="#f19c35"/>
    <path id="Trazado_128760" data-name="Trazado 128760" d="M653.9,220.069a7.269,7.269,0,0,1-5.22-2.25c-.259-.265-.333-.413.053-.647,1.6-.972,3.19-1.969,4.77-2.975a.6.6,0,0,1,.749,0c1.582,1.005,3.168,2,4.769,2.977.388.235.31.381.052.647A7.219,7.219,0,0,1,653.9,220.069Z" transform="translate(-172.96 -82.94)" fill="#d78535"/>
    <path id="Trazado_128761" data-name="Trazado 128761" d="M628.425,347.133c0,.353-.028.708.006,1.057a1.392,1.392,0,0,1-.623,1.52.686.686,0,0,0-.28.679c.012,1.039,0,2.079.009,3.119,0,.3-.075.419-.4.433-1.388.058-1.388.069-1.388-1.337,0-.668-.04-1.34.013-2a1.121,1.121,0,0,0-.541-1.127.8.8,0,0,1-.371-.795c.018-1.058.02-2.116,0-3.174a1.114,1.114,0,0,1,.7-1.081,2.176,2.176,0,0,1,2.3.057.976.976,0,0,1,.585.925C628.42,345.982,628.425,346.558,628.425,347.133Z" transform="translate(-152.868 -193.604)" fill="#1c3b54"/>
    <path id="Trazado_128762" data-name="Trazado 128762" d="M632.665,316.684a.916.916,0,1,1-1.785.019c0-.7.33-1.092.911-1.081C632.348,315.632,632.665,316.017,632.665,316.684Z" transform="translate(-158.001 -169.352)" fill="#1c3a53"/>
    <path id="Trazado_128763" data-name="Trazado 128763" d="M688.289,347.092c0,.353-.022.707,0,1.058a1.435,1.435,0,0,1-.637,1.57.634.634,0,0,0-.265.629c.011,1.021-.008,2.042.011,3.063.007.362-.064.525-.481.526-1.311,0-1.311.022-1.311-1.3,0-.668-.036-1.339.012-2a1.168,1.168,0,0,0-.555-1.176.751.751,0,0,1-.356-.745q.024-1.615,0-3.23a1.09,1.09,0,0,1,.666-1.046,2.17,2.17,0,0,1,2.3.026,1,1,0,0,1,.616.963C688.281,345.978,688.289,346.536,688.289,347.092Z" transform="translate(-203.805 -193.598)" fill="#1c3b54"/>
    <path id="Trazado_128764" data-name="Trazado 128764" d="M692.526,316.713a.916.916,0,1,1-1.785-.037c0-.663.325-1.047.883-1.053C692.2,315.617,692.532,316.015,692.526,316.713Z" transform="translate(-208.935 -169.353)" fill="#1c3a53"/>
    <path id="Trazado_128765" data-name="Trazado 128765" d="M748.149,347.091c0,.353-.023.707.005,1.058a1.424,1.424,0,0,1-.644,1.567c-.236.131-.26.376-.257.632.01,1.039-.006,2.079.01,3.119,0,.327-.083.45-.435.458-1.357.032-1.356.045-1.356-1.314,0-.668-.04-1.34.012-2a1.182,1.182,0,0,0-.564-1.173.72.72,0,0,1-.348-.693q.025-1.643,0-3.285a1.1,1.1,0,0,1,.675-1.04,2.18,2.18,0,0,1,2.345.063.947.947,0,0,1,.556.886C748.147,345.94,748.149,346.516,748.149,347.091Z" transform="translate(-254.738 -193.586)" fill="#1c3b54"/>
    <path id="Trazado_128766" data-name="Trazado 128766" d="M752.387,316.683a.916.916,0,1,1-1.785.022c0-.7.329-1.093.909-1.082C752.068,315.632,752.386,316.017,752.387,316.683Z" transform="translate(-259.869 -169.352)" fill="#1c3a53"/>
  </g>
</svg>
