<svg xmlns="http://www.w3.org/2000/svg" width="289.153" height="248" viewBox="0 0 289.153 248">
  <g id="Grupo_105832" data-name="Grupo 105832" transform="translate(-3888.896 7984.667)">
    <path id="Trazado_132728" data-name="Trazado 132728" d="M521.845,332.4c-5.643,0-31.084.006-63.363,0l-28.031-.008-22.353-.011-12.731-.008c-56.812-.045-65.867.591-74.883.027-16.774,0-59.735-65.186-8.591-107.987,19.86-16.62-5.629-38.7,27.357-55.283,21.692-10.905,37.448,8.253,63.634,1.351,19.346-5.1,23.281-17.06,61.529-13.746,36.781,3.187,37.521,33.387,25.853,58.324-7.367,15.744,28.754,10.883,45.457,34.38C564.231,289.545,522.1,331.8,521.845,332.4Z" transform="translate(3623.383 -8080.016)" fill="#e1f3d7"/>
    <g id="Grupo_102248" data-name="Grupo 102248" transform="translate(3587.579 -8055.411)">
      <g id="Bags" transform="translate(434.076 235.226)">
        <g id="Grupo_101901" data-name="Grupo 101901" transform="translate(0)">
          <g id="Grupo_101878" data-name="Grupo 101878" transform="translate(18.769)">
            <g id="Grupo_101874" data-name="Grupo 101874">
              <g id="Grupo_101863" data-name="Grupo 101863" transform="translate(15.651)">
                <g id="Grupo_101862" data-name="Grupo 101862">
                  <g id="Grupo_101861" data-name="Grupo 101861">
                    <g id="Grupo_101860" data-name="Grupo 101860">
                      <path id="Trazado_132950" data-name="Trazado 132950" d="M230.548,360.078c-.038,0-.076-.528-.259-1.469a18.376,18.376,0,0,0-1.174-3.864,14.726,14.726,0,0,0-3.342-4.9,9.323,9.323,0,0,0-13.11-.043,14.665,14.665,0,0,0-3.363,4.887,18.3,18.3,0,0,0-1.188,3.86c-.187.939-.226,1.471-.264,1.467a1.538,1.538,0,0,1,.006-.387,10.877,10.877,0,0,1,.119-1.1,16.754,16.754,0,0,1,1.091-3.935,14.592,14.592,0,0,1,3.371-5.03A9.585,9.585,0,0,1,226,349.6a14.627,14.627,0,0,1,3.349,5.044,16.76,16.76,0,0,1,1.077,3.939,10.688,10.688,0,0,1,.115,1.1A1.593,1.593,0,0,1,230.548,360.078Z" transform="translate(-207.839 -346.767)" fill="#455a64"/>
                    </g>
                  </g>
                </g>
              </g>
              <g id="Grupo_101867" data-name="Grupo 101867" transform="translate(19.571)">
                <g id="Grupo_101866" data-name="Grupo 101866">
                  <g id="Grupo_101865" data-name="Grupo 101865">
                    <g id="Grupo_101864" data-name="Grupo 101864">
                      <path id="Trazado_132951" data-name="Trazado 132951" d="M236.761,360.078c-.038,0-.076-.528-.259-1.469a18.376,18.376,0,0,0-1.174-3.864,14.716,14.716,0,0,0-3.342-4.9,9.322,9.322,0,0,0-13.11-.043,14.658,14.658,0,0,0-3.364,4.887,18.3,18.3,0,0,0-1.188,3.86c-.187.939-.226,1.471-.264,1.467a1.6,1.6,0,0,1,.007-.387,10.654,10.654,0,0,1,.119-1.1,16.761,16.761,0,0,1,1.092-3.935,14.574,14.574,0,0,1,3.371-5.03,9.585,9.585,0,0,1,13.566.045,14.634,14.634,0,0,1,3.348,5.044,16.766,16.766,0,0,1,1.078,3.939,11.058,11.058,0,0,1,.115,1.1A1.606,1.606,0,0,1,236.761,360.078Z" transform="translate(-214.053 -346.767)" fill="#455a64"/>
                    </g>
                  </g>
                </g>
              </g>
              <g id="Grupo_101870" data-name="Grupo 101870" transform="translate(0 11.574)">
                <g id="Grupo_101869" data-name="Grupo 101869">
                  <g id="Grupo_101868" data-name="Grupo 101868">
                    <path id="Trazado_132952" data-name="Trazado 132952" d="M187.474,365.45l44.267-.338.966,60.342H183.032Z" transform="translate(-183.032 -365.112)" fill="#ebebeb"/>
                  </g>
                </g>
              </g>
              <g id="Grupo_101873" data-name="Grupo 101873" transform="translate(48.709 11.574)">
                <g id="Grupo_101872" data-name="Grupo 101872">
                  <g id="Grupo_101871" data-name="Grupo 101871">
                    <path id="Trazado_132953" data-name="Trazado 132953" d="M260.24,365.112H265.8l4.785,60.342h-9.376Z" transform="translate(-260.24 -365.112)" fill="#e0e0e0"/>
                  </g>
                </g>
              </g>
            </g>
            <g id="Grupo_101877" data-name="Grupo 101877" transform="translate(10.347 35.33)">
              <g id="Grupo_101876" data-name="Grupo 101876">
                <g id="Grupo_101875" data-name="Grupo 101875">
                  <rect id="Rectángulo_36578" data-name="Rectángulo 36578" width="28.981" height="4.855" fill="#fff"/>
                </g>
              </g>
            </g>
          </g>
          <g id="Grupo_101900" data-name="Grupo 101900" transform="translate(0 17.793)">
            <g id="Grupo_101896" data-name="Grupo 101896">
              <g id="Grupo_101882" data-name="Grupo 101882" transform="translate(14.156)">
                <g id="Grupo_101881" data-name="Grupo 101881">
                  <g id="Grupo_101880" data-name="Grupo 101880">
                    <g id="Grupo_101879" data-name="Grupo 101879">
                      <path id="Trazado_132954" data-name="Trazado 132954" d="M193.978,387.235a24.289,24.289,0,0,0-1.17-4.892,13.771,13.771,0,0,0-2.686-4.492,6.828,6.828,0,0,0-10.5-.039,13.7,13.7,0,0,0-2.7,4.478,24.324,24.324,0,0,0-1.186,4.886,1.429,1.429,0,0,1,0-.356c.008-.234.033-.577.09-1.016a17.042,17.042,0,0,1,.87-3.623,13.689,13.689,0,0,1,2.711-4.635,7.065,7.065,0,0,1,10.942.041,13.755,13.755,0,0,1,2.693,4.649,17.051,17.051,0,0,1,.859,3.627c.056.439.08.783.087,1.016A1.38,1.38,0,0,1,193.978,387.235Z" transform="translate(-175.719 -374.971)" fill="#263238"/>
                    </g>
                  </g>
                </g>
              </g>
              <g id="Grupo_101886" data-name="Grupo 101886" transform="translate(17.307)">
                <g id="Grupo_101885" data-name="Grupo 101885">
                  <g id="Grupo_101884" data-name="Grupo 101884">
                    <g id="Grupo_101883" data-name="Grupo 101883">
                      <path id="Trazado_132955" data-name="Trazado 132955" d="M198.973,387.235a24.289,24.289,0,0,0-1.17-4.892,13.771,13.771,0,0,0-2.686-4.492,6.828,6.828,0,0,0-10.5-.039,13.7,13.7,0,0,0-2.7,4.478,24.317,24.317,0,0,0-1.186,4.886,1.389,1.389,0,0,1,0-.356c.008-.234.033-.577.09-1.016a17.052,17.052,0,0,1,.871-3.623,13.668,13.668,0,0,1,2.711-4.635,7.064,7.064,0,0,1,10.941.041,13.755,13.755,0,0,1,2.693,4.649,17.052,17.052,0,0,1,.859,3.627c.056.439.08.783.087,1.016A1.378,1.378,0,0,1,198.973,387.235Z" transform="translate(-180.714 -374.971)" fill="#263238"/>
                    </g>
                  </g>
                </g>
              </g>
              <g id="Grupo_101889" data-name="Grupo 101889" transform="translate(0 9.895)">
                <g id="Grupo_101888" data-name="Grupo 101888">
                  <g id="Grupo_101887" data-name="Grupo 101887">
                    <path id="Trazado_132956" data-name="Trazado 132956" d="M156.853,390.9l35.588-.247.777,44.158H153.282Z" transform="translate(-153.282 -390.656)" fill="#ff725e"/>
                  </g>
                </g>
              </g>
              <g id="Grupo_101892" data-name="Grupo 101892" transform="translate(39.159 9.895)">
                <g id="Grupo_101891" data-name="Grupo 101891">
                  <g id="Grupo_101890" data-name="Grupo 101890">
                    <path id="Trazado_132957" data-name="Trazado 132957" d="M215.353,390.656h4.468l3.847,44.158h-7.538Z" transform="translate(-215.353 -390.656)" fill="#ff725e"/>
                  </g>
                </g>
              </g>
              <g id="Grupo_101895" data-name="Grupo 101895" transform="translate(39.159 9.895)" opacity="0.3">
                <g id="Grupo_101894" data-name="Grupo 101894">
                  <g id="Grupo_101893" data-name="Grupo 101893">
                    <path id="Trazado_132958" data-name="Trazado 132958" d="M215.353,390.656h4.468l3.847,44.158h-7.538Z" transform="translate(-215.353 -390.656)"/>
                  </g>
                </g>
              </g>
            </g>
            <g id="Grupo_101899" data-name="Grupo 101899" transform="translate(9.792 24.895)">
              <g id="Grupo_101898" data-name="Grupo 101898">
                <g id="Grupo_101897" data-name="Grupo 101897">
                  <rect id="Rectángulo_36579" data-name="Rectángulo 36579" width="23.299" height="4.462" fill="#fff"/>
                </g>
              </g>
            </g>
          </g>
        </g>
      </g>
      <g id="Character_2" data-name="Character 2" transform="translate(472.986 80.907)">
        <g id="Grupo_102124" data-name="Grupo 102124">
          <g id="Grupo_101916" data-name="Grupo 101916" transform="translate(0 70.137)">
            <g id="Grupo_101903" data-name="Grupo 101903">
              <g id="Grupo_101902" data-name="Grupo 101902">
                <path id="Trazado_132959" data-name="Trazado 132959" d="M527.377,237.8a21.383,21.383,0,0,0,2.922,3.134c1.16.848,2.1.814,3.152,2.583s2.264,3.619,2.264,3.619a48.884,48.884,0,0,1,4.649,2.164c-.164.122-1.959,7.168-1.959,7.168l-8.4-4.281-10.027-2.8-5.26-5.3.148-.592-.708-1.131s.3-1.594,1.706-.826c0,0-.6-1.652,1.459-.956s6.037,2.876,6.3,2.857,3.8.4,3.8.4l1.519-.561a4.244,4.244,0,0,1-2.033-1.653c-.646-1.151-1.645-1.711-1.206-2.874A1.518,1.518,0,0,1,527.377,237.8Z" transform="translate(-514.161 -237.78)" fill="#ffbf9d"/>
              </g>
            </g>
            <g id="Grupo_101906" data-name="Grupo 101906" transform="translate(4.287 7.048)">
              <g id="Grupo_101905" data-name="Grupo 101905">
                <g id="Grupo_101904" data-name="Grupo 101904">
                  <path id="Trazado_132960" data-name="Trazado 132960" d="M532.242,250.368a3.1,3.1,0,0,1-.559-.091,8.2,8.2,0,0,0-1.545-.048,22.5,22.5,0,0,0-5.12,1.058l-.047.016-.046-.016-1.117-.4-.554-.2-.047-.017-.024-.037-1.243-1.94a1.429,1.429,0,0,0-.694-.634.88.88,0,0,0-.8.153l.037-.12a16.243,16.243,0,0,1,.682,3.624c-.021,0-.074-.354-.235-.976s-.385-1.513-.676-2.588l-.02-.074.057-.046a1.119,1.119,0,0,1,1.03-.218,1.663,1.663,0,0,1,.847.734l1.251,1.922-.07-.054.555.2,1.116.4h-.093a20,20,0,0,1,5.2-.977,6.706,6.706,0,0,1,1.572.136A1.893,1.893,0,0,1,532.242,250.368Z" transform="translate(-520.236 -247.767)" fill="#ff9a6c"/>
                </g>
              </g>
            </g>
            <g id="Grupo_101909" data-name="Grupo 101909" transform="translate(1.782 3.623)">
              <g id="Grupo_101908" data-name="Grupo 101908">
                <g id="Grupo_101907" data-name="Grupo 101907">
                  <path id="Trazado_132961" data-name="Trazado 132961" d="M523.172,246.624a48.24,48.24,0,0,1-6.485-3.706,48.453,48.453,0,0,1,6.485,3.706Z" transform="translate(-516.686 -242.914)" fill="#ff9a6c"/>
                </g>
              </g>
            </g>
            <g id="Grupo_101912" data-name="Grupo 101912" transform="translate(0.561 5.496)">
              <g id="Grupo_101911" data-name="Grupo 101911">
                <g id="Grupo_101910" data-name="Grupo 101910">
                  <path id="Trazado_132962" data-name="Trazado 132962" d="M518.395,247.556c-.031.027-.206-.13-.471-.39a7.237,7.237,0,0,0-1.081-.922,2.887,2.887,0,0,0-1.292-.469c-.355-.032-.581.023-.594-.02s.2-.164.6-.184A2.5,2.5,0,0,1,517,246a4.548,4.548,0,0,1,1.077,1.028C518.307,247.329,518.424,247.531,518.395,247.556Z" transform="translate(-514.956 -245.568)" fill="#ff9a6c"/>
                </g>
              </g>
            </g>
            <g id="Grupo_101915" data-name="Grupo 101915" transform="translate(8.063 6.239)">
              <g id="Grupo_101914" data-name="Grupo 101914">
                <g id="Grupo_101913" data-name="Grupo 101913">
                  <path id="Trazado_132963" data-name="Trazado 132963" d="M527.763,246.629a5.075,5.075,0,0,0-2.123,3.291c-.035,0-.078-.236-.032-.617a3.477,3.477,0,0,1,1.579-2.449C527.516,246.654,527.749,246.6,527.763,246.629Z" transform="translate(-525.587 -246.62)" fill="#ff9a6c"/>
                </g>
              </g>
            </g>
          </g>
          <g id="Grupo_101978" data-name="Grupo 101978" transform="translate(47.716)">
            <g id="Grupo_101919" data-name="Grupo 101919" transform="translate(15.633 12.491)">
              <g id="Grupo_101918" data-name="Grupo 101918">
                <g id="Grupo_101917" data-name="Grupo 101917">
                  <path id="Trazado_132964" data-name="Trazado 132964" d="M629.479,167.612a6.89,6.89,0,0,1-1.416-1.78,5.4,5.4,0,0,1,0-2.571,6.863,6.863,0,0,0-2.175-6.063,4.733,4.733,0,0,0-6.127.037l-13.06,8.415a12.916,12.916,0,0,0-2.641,9.815,6.106,6.106,0,0,0,1.784,3.8,3.047,3.047,0,0,0,3.91.195,5.692,5.692,0,0,0,10.126,2.7,4.4,4.4,0,0,0,7.77-2.385,15.053,15.053,0,0,1,.141-3.051c.35-1.137,1.372-1.916,2.039-2.9A5.279,5.279,0,0,0,629.479,167.612Z" transform="translate(-603.93 -156.092)" fill="#263238"/>
                </g>
              </g>
            </g>
            <g id="Grupo_101977" data-name="Grupo 101977">
              <g id="Grupo_101922" data-name="Grupo 101922" transform="translate(0 0.073)">
                <g id="Grupo_101921" data-name="Grupo 101921">
                  <g id="Grupo_101920" data-name="Grupo 101920">
                    <path id="Trazado_132965" data-name="Trazado 132965" d="M614.236,156.5a4.229,4.229,0,0,0-.193-5.52,2.83,2.83,0,0,0-.177-3.5,8.639,8.639,0,0,0-3.138-2.18,5.937,5.937,0,0,0-6.768-4.469c-1.457-2.256-4.717-2.715-7.366-2.058a7.142,7.142,0,0,1-1.963.348,11.639,11.639,0,0,1-1.445-.246,6.389,6.389,0,0,0-6.5,3.687,4.769,4.769,0,0,1-.607,1.108,6.674,6.674,0,0,1-1.356.983,4.138,4.138,0,0,0-1.742,3.018c-.08,1.009.211,2.094-.258,3a15.263,15.263,0,0,0-.831,1.284c-.543,1.372.983,2.846.639,4.277-.07.293-.216.562-.31.848a2.513,2.513,0,0,0,.1,1.8,3.616,3.616,0,0,1,.532,1.309,4.043,4.043,0,0,1-.253,1.044c-.211.855,1.573,4.239,2.317,4.733l22.769.981a4.2,4.2,0,0,0,3.423-3.464,1.49,1.49,0,0,1,.241-.81,1.84,1.84,0,0,1,.636-.373c1.495-.718,1.742-2.677,1.646-4.3a1.937,1.937,0,0,1,.037-.678A2.485,2.485,0,0,1,614.236,156.5Z" transform="translate(-581.778 -138.495)" fill="#263238"/>
                  </g>
                </g>
              </g>
              <g id="Grupo_101925" data-name="Grupo 101925" transform="translate(24.755 42.314)">
                <g id="Grupo_101924" data-name="Grupo 101924">
                  <g id="Grupo_101923" data-name="Grupo 101923">
                    <path id="Trazado_132966" data-name="Trazado 132966" d="M616.923,198.393l-.066-.027A.037.037,0,0,1,616.923,198.393Z" transform="translate(-616.857 -198.353)" fill="#ffbf9d"/>
                  </g>
                </g>
              </g>
              <g id="Grupo_101928" data-name="Grupo 101928" transform="translate(1.714 5.627)">
                <g id="Grupo_101927" data-name="Grupo 101927">
                  <g id="Grupo_101926" data-name="Grupo 101926">
                    <path id="Trazado_132967" data-name="Trazado 132967" d="M584.737,156.018c.4-4.452,5.149-8.4,6.414-8.65a9.425,9.425,0,0,1,5.411-.915,15.372,15.372,0,0,1,5.771,1.572,11.848,11.848,0,0,1,6.09,10.6l-1.176,24.442c-2.648,2.921-9.915,5.43-9.915,5.43s-4.626,1.05-5.948-.8l.58-8.394a9.716,9.716,0,0,1-7.5-8.571C583.951,167.021,584.294,160.964,584.737,156.018Z" transform="translate(-584.207 -146.366)" fill="#ffbf9d"/>
                  </g>
                </g>
              </g>
              <g id="Grupo_101931" data-name="Grupo 101931" transform="translate(4.227 20.323)">
                <g id="Grupo_101930" data-name="Grupo 101930">
                  <g id="Grupo_101929" data-name="Grupo 101929">
                    <path id="Trazado_132968" data-name="Trazado 132968" d="M587.769,168.03a.963.963,0,0,0,.918.984.928.928,0,0,0,1.028-.836.962.962,0,0,0-.917-.984A.928.928,0,0,0,587.769,168.03Z" transform="translate(-587.768 -167.192)" fill="#263238"/>
                  </g>
                </g>
              </g>
              <g id="Grupo_101934" data-name="Grupo 101934" transform="translate(3.908 17.217)">
                <g id="Grupo_101933" data-name="Grupo 101933">
                  <g id="Grupo_101932" data-name="Grupo 101932">
                    <path id="Trazado_132969" data-name="Trazado 132969" d="M587.329,163.747c.119.127.872-.39,1.923-.362s1.809.56,1.926.436c.057-.054-.061-.282-.39-.528a2.727,2.727,0,0,0-1.538-.5,2.622,2.622,0,0,0-1.534.443C587.386,163.467,587.271,163.69,587.329,163.747Z" transform="translate(-587.315 -162.789)" fill="#263238"/>
                  </g>
                </g>
              </g>
              <g id="Grupo_101937" data-name="Grupo 101937" transform="translate(7.209 17.886)">
                <g id="Grupo_101936" data-name="Grupo 101936">
                  <g id="Grupo_101935" data-name="Grupo 101935">
                    <path id="Trazado_132970" data-name="Trazado 132970" d="M594.654,172.272a7.145,7.145,0,0,0-1.7-.341c-.268-.034-.521-.092-.562-.272a1.3,1.3,0,0,1,.2-.772l.843-1.976a33.737,33.737,0,0,0,1.914-5.174,33.936,33.936,0,0,0-2.336,5.012c-.283.694-.553,1.356-.811,1.989a1.483,1.483,0,0,0-.165,1.025.671.671,0,0,0,.432.394,1.894,1.894,0,0,0,.454.073A6.98,6.98,0,0,0,594.654,172.272Z" transform="translate(-591.994 -163.737)" fill="#263238"/>
                  </g>
                </g>
              </g>
              <g id="Grupo_101940" data-name="Grupo 101940" transform="translate(9.447 36.131)">
                <g id="Grupo_101939" data-name="Grupo 101939">
                  <g id="Grupo_101938" data-name="Grupo 101938">
                    <path id="Trazado_132971" data-name="Trazado 132971" d="M595.164,192a19.868,19.868,0,0,0,10.3-2.409s-2.6,5.274-10.206,4.4Z" transform="translate(-595.164 -189.591)" fill="#ff9a6c"/>
                  </g>
                </g>
              </g>
              <g id="Grupo_101943" data-name="Grupo 101943" transform="translate(4.697 13.244)">
                <g id="Grupo_101942" data-name="Grupo 101942">
                  <g id="Grupo_101941" data-name="Grupo 101941">
                    <path id="Trazado_132972" data-name="Trazado 132972" d="M588.452,158c.171.255.979.107,1.918.205.941.069,1.712.359,1.924.138.095-.108,0-.355-.322-.615a3.053,3.053,0,0,0-3.1-.277C588.516,157.656,588.379,157.881,588.452,158Z" transform="translate(-588.433 -157.159)" fill="#263238"/>
                  </g>
                </g>
              </g>
              <g id="Grupo_101946" data-name="Grupo 101946" transform="translate(13.864 21.022)">
                <g id="Grupo_101945" data-name="Grupo 101945">
                  <g id="Grupo_101944" data-name="Grupo 101944">
                    <path id="Trazado_132973" data-name="Trazado 132973" d="M603.376,169.1a.967.967,0,0,1-1,.9.923.923,0,0,1-.951-.919.967.967,0,0,1,1-.9A.925.925,0,0,1,603.376,169.1Z" transform="translate(-601.424 -168.182)" fill="#263238"/>
                  </g>
                </g>
              </g>
              <g id="Grupo_101949" data-name="Grupo 101949" transform="translate(14.443 17.799)">
                <g id="Grupo_101948" data-name="Grupo 101948">
                  <g id="Grupo_101947" data-name="Grupo 101947">
                    <path id="Trazado_132974" data-name="Trazado 132974" d="M606.095,164.736c-.129.116-.834-.462-1.883-.522s-1.851.405-1.957.272c-.053-.059.085-.275.435-.493a2.736,2.736,0,0,1,1.577-.372,2.607,2.607,0,0,1,1.489.571C606.062,164.453,606.158,164.683,606.095,164.736Z" transform="translate(-602.243 -163.615)" fill="#263238"/>
                  </g>
                </g>
              </g>
              <g id="Grupo_101952" data-name="Grupo 101952" transform="translate(14.449 13.709)">
                <g id="Grupo_101951" data-name="Grupo 101951">
                  <g id="Grupo_101950" data-name="Grupo 101950">
                    <path id="Trazado_132975" data-name="Trazado 132975" d="M606.244,159.009c-.222.22-1.016-.07-1.989-.14-.97-.1-1.808.047-1.982-.207-.076-.124.068-.349.443-.547a3.068,3.068,0,0,1,1.641-.284,3.015,3.015,0,0,1,1.557.564C606.244,158.655,606.342,158.9,606.244,159.009Z" transform="translate(-602.253 -157.819)" fill="#263238"/>
                  </g>
                </g>
              </g>
              <g id="Grupo_101955" data-name="Grupo 101955" transform="translate(24.517 22.934)">
                <g id="Grupo_101954" data-name="Grupo 101954">
                  <g id="Grupo_101953" data-name="Grupo 101953">
                    <path id="Trazado_132976" data-name="Trazado 132976" d="M616.531,172.856c.016-.553.7-1.843,1.266-1.915,1.5-.192,4.195-.011,4.127,3.7-.092,5.068-5.288,3.931-5.295,3.786C616.624,178.312,616.479,174.768,616.531,172.856Z" transform="translate(-616.52 -170.891)" fill="#ffbf9d"/>
                  </g>
                </g>
              </g>
              <g id="Grupo_101958" data-name="Grupo 101958" transform="translate(26.089 24.649)">
                <g id="Grupo_101957" data-name="Grupo 101957">
                  <g id="Grupo_101956" data-name="Grupo 101956">
                    <path id="Trazado_132977" data-name="Trazado 132977" d="M618.752,177.315c.023-.016.089.064.241.134a.926.926,0,0,0,.677.025,2.174,2.174,0,0,0,1.071-1.942,2.853,2.853,0,0,0-.23-1.269,1.029,1.029,0,0,0-.668-.689.465.465,0,0,0-.538.232c-.072.14-.041.242-.068.251s-.11-.087-.064-.295a.56.56,0,0,1,.21-.315.694.694,0,0,1,.5-.12,1.263,1.263,0,0,1,.931.8,2.937,2.937,0,0,1,.288,1.418,2.291,2.291,0,0,1-1.36,2.166.99.99,0,0,1-.825-.149C618.759,177.437,618.734,177.324,618.752,177.315Z" transform="translate(-618.747 -173.321)" fill="#ff9a6c"/>
                  </g>
                </g>
              </g>
              <g id="Grupo_101961" data-name="Grupo 101961" transform="translate(1.091 3.251)">
                <g id="Grupo_101960" data-name="Grupo 101960">
                  <g id="Grupo_101959" data-name="Grupo 101959">
                    <path id="Trazado_132978" data-name="Trazado 132978" d="M583.324,155.071a2.944,2.944,0,0,0,1.723-2.676c.69.219,1.419-.638,1.84-1.215s.926-.862.913-1.57a.776.776,0,0,1,.063-.41c.11-.192.358-.249.575-.31a3.439,3.439,0,0,0,2.352-2.3,7.519,7.519,0,0,0,3.544.661,2.851,2.851,0,0,0,4.765-.085,2.514,2.514,0,0,0,1.656,1.255,7.669,7.669,0,0,0,2.151.167,2.9,2.9,0,0,0,1.875,3.339c.183.06.4.12.476.291s-.018.381-.095.562a2.276,2.276,0,0,0,1.495,2.951,1.681,1.681,0,0,0,.089,2.677c.186.116.429.255.394.469a.473.473,0,0,1-.119.213,3.3,3.3,0,0,0-.862,1.654,1.229,1.229,0,0,0,.994,1.381,1.619,1.619,0,0,0-.688,1.094c-.019.44.425.9.851.752.181-.064,2.779-.5,2.9-.644,1.519-1.911-.273-4.106-.356-6.523a15.43,15.43,0,0,0-2.068-6.9,11.487,11.487,0,0,0-1.78-2.488,15.654,15.654,0,0,0-2.8-2.121,14.454,14.454,0,0,0-4.116-2.04c-2.785-.714-5.723.207-8.367,1.322a12.323,12.323,0,0,0-2.863,1.554,10.839,10.839,0,0,0-2.454,2.97,13.25,13.25,0,0,0-2.014,5.142" transform="translate(-583.324 -143)" fill="#263238"/>
                  </g>
                </g>
              </g>
              <g id="Grupo_101964" data-name="Grupo 101964" transform="translate(0.118)">
                <g id="Grupo_101963" data-name="Grupo 101963">
                  <g id="Grupo_101962" data-name="Grupo 101962">
                    <path id="Trazado_132979" data-name="Trazado 132979" d="M581.945,151.916a1.926,1.926,0,0,1,.294-.536c.115-.166.275-.358.429-.606a2.325,2.325,0,0,0,.317-.939,7.217,7.217,0,0,0,.011-1.254,5.42,5.42,0,0,1,.082-1.5,4.2,4.2,0,0,1,1.383-2.28,6.484,6.484,0,0,1,.836-.574,3.219,3.219,0,0,0,.807-.644,4.083,4.083,0,0,0,.518-.941,6.6,6.6,0,0,1,1.314-1.927,6.765,6.765,0,0,1,2.053-1.459,6.24,6.24,0,0,1,1.262-.426,5.738,5.738,0,0,1,1.369-.116,6.714,6.714,0,0,1,.7.072c.232.042.459.1.687.141a3.442,3.442,0,0,0,1.388.037c.467-.078.927-.229,1.411-.334a9.362,9.362,0,0,1,3-.19,8.114,8.114,0,0,1,1.516.313,5.121,5.121,0,0,1,2.569,1.752l.186.254-.082-.034a5.93,5.93,0,0,1,4.447,1,5.634,5.634,0,0,1,2.411,3.533l-.04-.052a16.667,16.667,0,0,1,1.795.985,5.434,5.434,0,0,1,1.451,1.336,3.424,3.424,0,0,1,.627,1.767,2.354,2.354,0,0,1-.543,1.7l0-.085a4.145,4.145,0,0,1,1.124,2.633,4.219,4.219,0,0,1-.609,2.5,4.16,4.16,0,0,1-.359.493,5.488,5.488,0,0,0-.37.443,1.068,1.068,0,0,0-.2.492,3.051,3.051,0,0,0,0,.526,8.12,8.12,0,0,1-.108,1.922,3.971,3.971,0,0,1-.551,1.451,2.525,2.525,0,0,1-.831.8c-.272.166-.512.227-.646.317a1.218,1.218,0,0,0-.193.147.6.6,0,0,1,.183-.164c.133-.1.373-.166.637-.333a2.517,2.517,0,0,0,.8-.8,3.947,3.947,0,0,0,.526-1.433,8.131,8.131,0,0,0,.091-1.9,3.083,3.083,0,0,1,0-.543,1.162,1.162,0,0,1,.21-.534,5.611,5.611,0,0,1,.374-.454,4.028,4.028,0,0,0,.927-2.925,4.029,4.029,0,0,0-1.1-2.552l-.04-.042.038-.044a2.227,2.227,0,0,0,.506-1.61,3.288,3.288,0,0,0-.608-1.7,5.3,5.3,0,0,0-1.416-1.3,16.623,16.623,0,0,0-1.78-.973l-.033-.016-.007-.035a5.49,5.49,0,0,0-2.353-3.436,5.779,5.779,0,0,0-4.327-.972l-.049.01-.032-.044-.179-.246a4.968,4.968,0,0,0-2.491-1.7,7.864,7.864,0,0,0-1.483-.308,9.168,9.168,0,0,0-2.951.184c-.474.1-.938.253-1.419.332a3.659,3.659,0,0,1-.729.055,4.4,4.4,0,0,1-.714-.1c-.231-.047-.458-.1-.684-.141a6.341,6.341,0,0,0-.678-.072,5.584,5.584,0,0,0-1.332.109,6.129,6.129,0,0,0-1.234.414,6.654,6.654,0,0,0-2.018,1.424,6.5,6.5,0,0,0-1.3,1.888,4.129,4.129,0,0,1-.538.964,3.316,3.316,0,0,1-.838.664,6.279,6.279,0,0,0-.827.561,4.115,4.115,0,0,0-1.367,2.221,5.376,5.376,0,0,0-.092,1.482,7.116,7.116,0,0,1-.025,1.265,2.346,2.346,0,0,1-.337.956c-.16.249-.325.438-.442.6a2.948,2.948,0,0,0-.248.381C581.968,151.868,581.949,151.918,581.945,151.916Z" transform="translate(-581.945 -138.392)" fill="#455a64"/>
                  </g>
                </g>
              </g>
              <g id="Grupo_101967" data-name="Grupo 101967" transform="translate(11.829 0.512)">
                <g id="Grupo_101966" data-name="Grupo 101966">
                  <g id="Grupo_101965" data-name="Grupo 101965">
                    <path id="Trazado_132980" data-name="Trazado 132980" d="M606.486,139.833c-.008.011-.135-.08-.384-.208a3.569,3.569,0,0,0-1.123-.352,3.313,3.313,0,0,0-3.305,1.529,2.756,2.756,0,0,0-.274.566.62.62,0,0,0,.023.535l.122.176-.208-.064a2.2,2.2,0,0,0-1.611.144,2.051,2.051,0,0,0-.907.915,2.179,2.179,0,0,0-.226.829c-.013.2,0,.315-.011.316s-.012-.027-.021-.08a1.359,1.359,0,0,1-.021-.237,2.043,2.043,0,0,1,.191-.868,2.109,2.109,0,0,1,.934-.988,2.311,2.311,0,0,1,1.718-.172l-.086.113a.757.757,0,0,1-.045-.663,2.9,2.9,0,0,1,.289-.6,3.461,3.461,0,0,1,1.672-1.382,3.389,3.389,0,0,1,1.785-.174,3.29,3.29,0,0,1,1.135.407,2.346,2.346,0,0,1,.271.183C606.461,139.8,606.49,139.829,606.486,139.833Z" transform="translate(-598.54 -139.118)" fill="#455a64"/>
                  </g>
                </g>
              </g>
              <g id="Grupo_101970" data-name="Grupo 101970" transform="translate(22.617 11.48)">
                <g id="Grupo_101969" data-name="Grupo 101969">
                  <g id="Grupo_101968" data-name="Grupo 101968">
                    <path id="Trazado_132981" data-name="Trazado 132981" d="M621.861,155.222c.005,0,0,.033-.015.093a.844.844,0,0,1-.122.242,1.39,1.39,0,0,1-.852.52,2.707,2.707,0,0,1-1.479-.2,8.613,8.613,0,0,1-.811-.337,1.408,1.408,0,0,1-.7-.657l-.03-.083.121.04a6,6,0,0,1-1.565.862,2.739,2.739,0,0,1-1.462.108,1.956,1.956,0,0,1-.888-.422,1.208,1.208,0,0,1-.182-.193c-.036-.049-.052-.076-.049-.079s.09.091.27.226a2.026,2.026,0,0,0,.87.363,2.7,2.7,0,0,0,1.394-.135,6.135,6.135,0,0,0,1.52-.852l.085-.061.037.1.025.069a1.274,1.274,0,0,0,.626.581c.26.133.536.238.79.338a2.664,2.664,0,0,0,1.405.222,1.383,1.383,0,0,0,.826-.45A2.122,2.122,0,0,0,621.861,155.222Z" transform="translate(-613.827 -154.66)" fill="#e0e0e0"/>
                  </g>
                </g>
              </g>
              <g id="Grupo_101973" data-name="Grupo 101973" transform="translate(10.941 28.208)">
                <g id="Grupo_101972" data-name="Grupo 101972">
                  <g id="Grupo_101971" data-name="Grupo 101971">
                    <path id="Trazado_132982" data-name="Trazado 132982" d="M597.374,179.071a1.773,1.773,0,0,1,1.571-.7,1.621,1.621,0,0,1,1.133.569,1.027,1.027,0,0,1,.109,1.17,1.189,1.189,0,0,1-1.28.361,3.722,3.722,0,0,1-1.277-.716,1.09,1.09,0,0,1-.289-.283.33.33,0,0,1-.008-.366" transform="translate(-597.282 -178.364)" fill="#ff9a6c"/>
                  </g>
                </g>
              </g>
              <g id="Grupo_101976" data-name="Grupo 101976" transform="translate(10.403 27.158)">
                <g id="Grupo_101975" data-name="Grupo 101975">
                  <g id="Grupo_101974" data-name="Grupo 101974">
                    <path id="Trazado_132983" data-name="Trazado 132983" d="M599.582,176.876c-.16,0-.133,1.062-1.026,1.845s-2.032.7-2.036.845c-.013.068.259.2.74.2a2.658,2.658,0,0,0,1.7-.645,2.317,2.317,0,0,0,.792-1.545C599.781,177.129,599.654,176.867,599.582,176.876Z" transform="translate(-596.519 -176.876)" fill="#263238"/>
                  </g>
                </g>
              </g>
            </g>
          </g>
          <g id="Grupo_102038" data-name="Grupo 102038" transform="translate(54.956 206.623)">
            <g id="Grupo_101986" data-name="Grupo 101986" transform="translate(0.011 13.52)">
              <g id="Grupo_101985" data-name="Grupo 101985">
                <g id="Grupo_101984" data-name="Grupo 101984">
                  <g id="Grupo_101983" data-name="Grupo 101983">
                    <g id="Grupo_101982" data-name="Grupo 101982">
                      <g id="Grupo_101981" data-name="Grupo 101981">
                        <g id="Grupo_101980" data-name="Grupo 101980">
                          <g id="Grupo_101979" data-name="Grupo 101979">
                            <path id="Trazado_132984" data-name="Trazado 132984" d="M604.122,450.69l0,.685s-11.968,4.778-12.074,6.983l23.854-.339-.441-7.672A14.073,14.073,0,0,1,604.122,450.69Z" transform="translate(-592.053 -450.348)" fill="#263238"/>
                          </g>
                        </g>
                      </g>
                    </g>
                  </g>
                </g>
              </g>
            </g>
            <g id="Grupo_101994" data-name="Grupo 101994" transform="translate(0 19.347)">
              <g id="Grupo_101993" data-name="Grupo 101993">
                <g id="Grupo_101992" data-name="Grupo 101992">
                  <g id="Grupo_101991" data-name="Grupo 101991">
                    <g id="Grupo_101990" data-name="Grupo 101990">
                      <g id="Grupo_101989" data-name="Grupo 101989">
                        <g id="Grupo_101988" data-name="Grupo 101988">
                          <g id="Grupo_101987" data-name="Grupo 101987">
                            <path id="Trazado_132985" data-name="Trazado 132985" d="M615.9,460.45l-.107-1.845-22.824,1s-1.055.461-.924,1.183Z" transform="translate(-592.037 -458.605)" fill="#455a64"/>
                          </g>
                        </g>
                      </g>
                    </g>
                  </g>
                </g>
              </g>
            </g>
            <g id="Grupo_102003" data-name="Grupo 102003" transform="translate(12.002 14.504)">
              <g id="Grupo_102002" data-name="Grupo 102002">
                <g id="Grupo_102001" data-name="Grupo 102001">
                  <g id="Grupo_102000" data-name="Grupo 102000">
                    <g id="Grupo_101999" data-name="Grupo 101999">
                      <g id="Grupo_101998" data-name="Grupo 101998">
                        <g id="Grupo_101997" data-name="Grupo 101997">
                          <g id="Grupo_101996" data-name="Grupo 101996">
                            <g id="Grupo_101995" data-name="Grupo 101995">
                              <path id="Trazado_132986" data-name="Trazado 132986" d="M609.045,451.852c.006.112.589.155,1.167.509s.891.823,1,.777c.107-.023-.077-.694-.785-1.111S609.018,451.749,609.045,451.852Z" transform="translate(-609.044 -451.742)" fill="#fff"/>
                            </g>
                          </g>
                        </g>
                      </g>
                    </g>
                  </g>
                </g>
              </g>
            </g>
            <g id="Grupo_102012" data-name="Grupo 102012" transform="translate(9.515 15.603)">
              <g id="Grupo_102011" data-name="Grupo 102011">
                <g id="Grupo_102010" data-name="Grupo 102010">
                  <g id="Grupo_102009" data-name="Grupo 102009">
                    <g id="Grupo_102008" data-name="Grupo 102008">
                      <g id="Grupo_102007" data-name="Grupo 102007">
                        <g id="Grupo_102006" data-name="Grupo 102006">
                          <g id="Grupo_102005" data-name="Grupo 102005">
                            <g id="Grupo_102004" data-name="Grupo 102004">
                              <path id="Trazado_132987" data-name="Trazado 132987" d="M605.521,453.346c-.025.109.483.294.886.765s.524.972.64.966c.11.016.181-.644-.332-1.221S605.521,453.239,605.521,453.346Z" transform="translate(-605.52 -453.299)" fill="#fff"/>
                            </g>
                          </g>
                        </g>
                      </g>
                    </g>
                  </g>
                </g>
              </g>
            </g>
            <g id="Grupo_102021" data-name="Grupo 102021" transform="translate(7.177 16.635)">
              <g id="Grupo_102020" data-name="Grupo 102020">
                <g id="Grupo_102019" data-name="Grupo 102019">
                  <g id="Grupo_102018" data-name="Grupo 102018">
                    <g id="Grupo_102017" data-name="Grupo 102017">
                      <g id="Grupo_102016" data-name="Grupo 102016">
                        <g id="Grupo_102015" data-name="Grupo 102015">
                          <g id="Grupo_102014" data-name="Grupo 102014">
                            <g id="Grupo_102013" data-name="Grupo 102013">
                              <path id="Trazado_132988" data-name="Trazado 132988" d="M603.169,456.693c.106.023.26-.543-.049-1.155s-.857-.85-.905-.756c-.064.094.295.42.54.926S603.052,456.683,603.169,456.693Z" transform="translate(-602.207 -454.761)" fill="#fff"/>
                            </g>
                          </g>
                        </g>
                      </g>
                    </g>
                  </g>
                </g>
              </g>
            </g>
            <g id="Grupo_102022" data-name="Grupo 102022" transform="translate(18.86)">
              <path id="Trazado_132989" data-name="Trazado 132989" d="M631.565,446.422a22.292,22.292,0,0,0-.677-2.184l-.135-.342-.008.009-2.071-12.716-8.55.881,1.538,14.485c-.021-.019-.042-.035-.063-.055l-.591,1.747-2.22,12.262a1.6,1.6,0,0,0,1.146,1.83,1.72,1.72,0,0,0,1.709-.474c2.242-2.432,10.443-11.414,10.246-12.511Z" transform="translate(-618.763 -431.189)" fill="#263238"/>
            </g>
            <g id="Grupo_102025" data-name="Grupo 102025" transform="translate(20.333 17.143)">
              <g id="Grupo_102024" data-name="Grupo 102024">
                <g id="Grupo_102023" data-name="Grupo 102023">
                  <path id="Trazado_132990" data-name="Trazado 132990" d="M620.85,469.541l11.558-14.06.061.641a1.735,1.735,0,0,1-.469,1.471c-.908,1.414-3.49,4.629-9.693,11.417a1.713,1.713,0,0,1-1.457.532Z" transform="translate(-620.85 -455.481)" fill="#455a64"/>
                </g>
              </g>
            </g>
            <g id="Grupo_102028" data-name="Grupo 102028" transform="translate(19.978 22.737)">
              <g id="Grupo_102027" data-name="Grupo 102027">
                <g id="Grupo_102026" data-name="Grupo 102026">
                  <path id="Trazado_132991" data-name="Trazado 132991" d="M623.749,464.939a4.96,4.96,0,0,0-1.519-1.052,5.333,5.333,0,0,0-1.881-.169c-.017-.036.175-.171.546-.255a2.724,2.724,0,0,1,1.463.112,2.547,2.547,0,0,1,1.167.833C623.741,464.7,623.788,464.923,623.749,464.939Z" transform="translate(-620.348 -463.409)" fill="#fff"/>
                </g>
              </g>
            </g>
            <g id="Grupo_102031" data-name="Grupo 102031" transform="translate(19.354 25.492)">
              <g id="Grupo_102030" data-name="Grupo 102030">
                <g id="Grupo_102029" data-name="Grupo 102029">
                  <path id="Trazado_132992" data-name="Trazado 132992" d="M622.536,468.215a14.068,14.068,0,0,0-1.484-.524,14.51,14.51,0,0,0-1.587-.052,1.923,1.923,0,0,1,1.658-.275C622.093,467.54,622.616,468.167,622.536,468.215Z" transform="translate(-619.462 -467.313)" fill="#fff"/>
                </g>
              </g>
            </g>
            <g id="Grupo_102034" data-name="Grupo 102034" transform="translate(20.6 20.017)">
              <g id="Grupo_102033" data-name="Grupo 102033">
                <g id="Grupo_102032" data-name="Grupo 102032">
                  <path id="Trazado_132993" data-name="Trazado 132993" d="M625.893,461.019a16.853,16.853,0,0,0-2.231-.955,17.449,17.449,0,0,0-2.432-.313,3.867,3.867,0,0,1,2.531-.008A3.638,3.638,0,0,1,625.893,461.019Z" transform="translate(-621.229 -459.555)" fill="#fff"/>
                </g>
              </g>
            </g>
            <g id="Grupo_102037" data-name="Grupo 102037" transform="translate(19.967 13.307)">
              <g id="Grupo_102036" data-name="Grupo 102036">
                <g id="Grupo_102035" data-name="Grupo 102035">
                  <path id="Trazado_132994" data-name="Trazado 132994" d="M621.764,450.046a10.316,10.316,0,0,1,.119,1.9v.008l0,.012c-.127.816-.3,1.86-.509,2.992-.243,1.341-.48,2.552-.666,3.426a6.868,6.868,0,0,1-.363,1.4,6.924,6.924,0,0,1,.152-1.44c.133-.884.335-2.1.579-3.441.2-1.133.406-2.172.572-2.982v.02A10.28,10.28,0,0,1,621.764,450.046Z" transform="translate(-620.331 -450.046)" fill="#455a64"/>
                </g>
              </g>
            </g>
          </g>
          <g id="Grupo_102052" data-name="Grupo 102052" transform="translate(39.542 91.586)">
            <g id="Grupo_102041" data-name="Grupo 102041" transform="translate(17.94 9.271)">
              <g id="Grupo_102040" data-name="Grupo 102040">
                <g id="Grupo_102039" data-name="Grupo 102039">
                  <path id="Trazado_132995" data-name="Trazado 132995" d="M628.942,309.648c3-14.013-6.242-28.336-6.242-28.336l-24.049,18.946s-5.092,56.7-2.084,64.057,17.445,37.358,17.445,37.358l11.069-2.593s-4.1-24.453-7.388-30.658c-2.366-4.467-6.236-6.589-4.431-12.411S626.486,321.113,628.942,309.648Z" transform="translate(-595.617 -281.312)" fill="#263238"/>
                </g>
              </g>
            </g>
            <g id="Grupo_102044" data-name="Grupo 102044" transform="translate(0.332)">
              <g id="Grupo_102043" data-name="Grupo 102043">
                <g id="Grupo_102042" data-name="Grupo 102042">
                  <path id="Trazado_132996" data-name="Trazado 132996" d="M571.93,283.607l-.023-.018a124.184,124.184,0,0,1,5.8-15.415s7.513,5.936,14.368,7.308,22.131-5.007,22.131-5.007l2.717,9.761L594.963,294.7c.818,1.636,2.667,6.322,1.441,13.462-1.545,9,1.546,33.9,6.059,49.831s4.8,39.586,4.8,39.586c-3.01,1.654-6.319,1.195-9.439-.508,0,0-2.219-5.93-5.222-15.848-4.113-13.585-4.585-18.02-4.885-22.31s-4.67-20.219-12.493-40.135C568.053,300.515,571.335,285.906,571.93,283.607Z" transform="translate(-570.665 -268.174)" fill="#263238"/>
                </g>
              </g>
            </g>
            <g id="Grupo_102047" data-name="Grupo 102047" transform="translate(14.215 18.717)">
              <g id="Grupo_102046" data-name="Grupo 102046">
                <g id="Grupo_102045" data-name="Grupo 102045">
                  <path id="Trazado_132997" data-name="Trazado 132997" d="M590.338,294.7a1.235,1.235,0,0,1,.126.155l.349.47,1.34,1.843,5.02,6.981.018.026,0,.03c-.244,2.614-.337,5.65-.5,9.029s-.349,7.1-.545,11.1c-.216,4-.448,8.266-.689,12.74-.275,4.474-.512,9.153-.975,13.965a55.834,55.834,0,0,0-.555,11.716,27.416,27.416,0,0,0,.394,2.787,17.892,17.892,0,0,0,.685,2.67c.655,1.7,1.416,3.341,2.138,4.939,2.922,6.394,5.658,12.107,7.936,16.913L610.5,401.43l1.468,3.094.376.807c.083.183.119.279.119.279s-.054-.088-.147-.266l-.4-.8-1.52-3.071c-1.307-2.687-3.19-6.555-5.513-11.331-2.3-4.8-5.061-10.5-8-16.891-.728-1.6-1.486-3.231-2.157-4.961a18.121,18.121,0,0,1-.7-2.706,27.551,27.551,0,0,1-.4-2.814,55.773,55.773,0,0,1,.55-11.774c.461-4.792.7-9.479.982-13.949.251-4.474.49-8.743.714-12.738s.407-7.715.585-11.094.293-6.416.556-9.032l.016.056-4.949-7.028c-.564-.809-1-1.435-1.3-1.869l-.33-.484A1.142,1.142,0,0,1,590.338,294.7Z" transform="translate(-590.338 -294.697)" fill="#455a64"/>
                </g>
              </g>
            </g>
            <g id="Grupo_102051" data-name="Grupo 102051" transform="translate(0 6.834)">
              <g id="Grupo_102050" data-name="Grupo 102050">
                <g id="Grupo_102049" data-name="Grupo 102049">
                  <g id="Grupo_102048" data-name="Grupo 102048">
                    <path id="Trazado_132998" data-name="Trazado 132998" d="M578.837,331.577a3.242,3.242,0,0,1-.233-.517l-.6-1.508c-.509-1.313-1.226-3.221-2.067-5.6s-1.8-5.218-2.735-8.417a84.258,84.258,0,0,1-2.451-10.564,47.14,47.14,0,0,1,1.08-19.574,34.78,34.78,0,0,1,2.058-5.607c.282-.647.567-1.118.735-1.448a.284.284,0,1,1,.069.035c-.146.341-.409.82-.668,1.474a38.5,38.5,0,0,0-1.931,5.617,48.324,48.324,0,0,0-.962,19.443,87.849,87.849,0,0,0,2.411,10.525c.912,3.2,1.846,6.044,2.651,8.427l1.951,5.632.528,1.533A3.068,3.068,0,0,1,578.837,331.577Z" transform="translate(-570.194 -277.859)" fill="#455a64"/>
                  </g>
                </g>
              </g>
            </g>
          </g>
          <g id="Grupo_102073" data-name="Grupo 102073" transform="translate(19.61 42.183)">
            <g id="Grupo_102068" data-name="Grupo 102068">
              <g id="Grupo_102056" data-name="Grupo 102056" transform="translate(0 6.26)">
                <g id="Grupo_102055" data-name="Grupo 102055">
                  <g id="Grupo_102054" data-name="Grupo 102054">
                    <g id="Grupo_102053" data-name="Grupo 102053">
                      <path id="Trazado_132999" data-name="Trazado 132999" d="M568.655,207.039s-2.925.879-5.4,6.169c-1.974,4.221-2.9,28.072-2.9,28.072l-15.906-3.27-2.5,11.964s13.367,5.341,21.849,8.134c3.844,1.265,6.871-3.207,7.306-4.367,1.4-3.723-.431-30.936-.431-30.936Z" transform="translate(-541.95 -207.039)" fill="#ff725e"/>
                    </g>
                  </g>
                </g>
              </g>
              <g id="Grupo_102065" data-name="Grupo 102065" transform="translate(23.872)">
                <g id="Grupo_102060" data-name="Grupo 102060">
                  <g id="Grupo_102059" data-name="Grupo 102059">
                    <g id="Grupo_102058" data-name="Grupo 102058">
                      <g id="Grupo_102057" data-name="Grupo 102057">
                        <path id="Trazado_133000" data-name="Trazado 133000" d="M577.288,213.064l1.322-8.635c1.293-1.37,9.987-3.8,9.987-3.8,10.263,2.358,15.225-2.3,16.284-2.458.734-.107,8.576,2.377,8.576,2.377l3.953,23.1s-.94,16.816-1.016,16.935,1.018,13.33,1.018,13.33-17.754,6.129-25.6,7.914-16.038-8.256-16.038-8.256c1.772-4.677,2.523-10.339,2.153-17.083Z" transform="translate(-575.778 -198.168)" fill="#ff725e"/>
                      </g>
                    </g>
                  </g>
                </g>
                <g id="Grupo_102064" data-name="Grupo 102064" transform="translate(16.155 26.67)">
                  <g id="Grupo_102063" data-name="Grupo 102063">
                    <g id="Grupo_102062" data-name="Grupo 102062">
                      <g id="Grupo_102061" data-name="Grupo 102061">
                        <path id="Trazado_133001" data-name="Trazado 133001" d="M598.732,235.961c.071,0,.07.782.323,2a12.6,12.6,0,0,0,5.286,7.847c1.035.692,1.761.985,1.734,1.051a1.524,1.524,0,0,1-.531-.155,8.053,8.053,0,0,1-1.35-.665A10.969,10.969,0,0,1,602.4,244.7a11.793,11.793,0,0,1-3.046-4.521,10.967,10.967,0,0,1-.569-2.165,8.021,8.021,0,0,1-.11-1.5A1.523,1.523,0,0,1,598.732,235.961Z" transform="translate(-598.671 -235.961)" fill="#263238"/>
                      </g>
                    </g>
                  </g>
                </g>
              </g>
              <g id="Grupo_102067" data-name="Grupo 102067" transform="translate(23.166 22.926)">
                <g id="Grupo_102066" data-name="Grupo 102066">
                  <path id="Trazado_133002" data-name="Trazado 133002" d="M575.355,230.656a31.952,31.952,0,0,0-.313,4.81,29.427,29.427,0,0,0,.61,5.185,62.453,62.453,0,0,0,1.665,6.2,8.552,8.552,0,0,1,.341,1.681c.08.553.131,1.1.169,1.644a18.782,18.782,0,0,1-.006,3.127,23.164,23.164,0,0,1-1.168,5.144,34.22,34.22,0,0,0-.9,3.415,10.591,10.591,0,0,1-.27,1.271,1.169,1.169,0,0,1,.013-.337c.024-.219.047-.545.116-.959a27.208,27.208,0,0,1,.791-3.463,24.215,24.215,0,0,0,1.08-5.1,19.058,19.058,0,0,0-.016-3.073c-.039-.533-.092-1.075-.172-1.622a8.3,8.3,0,0,0-.332-1.626,57.6,57.6,0,0,1-1.644-6.234,27.789,27.789,0,0,1-.537-5.247c-.023-.752.047-1.432.077-2.027.076-.593.122-1.105.2-1.518.08-.375.147-.687.2-.945A1.18,1.18,0,0,1,575.355,230.656Z" transform="translate(-574.778 -230.656)" fill="#263238"/>
                </g>
              </g>
            </g>
            <g id="Grupo_102072" data-name="Grupo 102072" transform="translate(57.112 2.38)">
              <g id="Grupo_102069" data-name="Grupo 102069">
                <path id="Trazado_133003" data-name="Trazado 133003" d="M627.32,201.541s7.846.853,10.465,10.919c1.386,5.327,7.152,39.961,6.686,42.938s-.55,22.9-.55,22.9l-11.781-2.248.157-25.921-6-26.832-3.416-14.585Z" transform="translate(-622.881 -201.541)" fill="#ff725e"/>
              </g>
              <g id="Grupo_102071" data-name="Grupo 102071" transform="translate(1.607 16.069)">
                <g id="Grupo_102070" data-name="Grupo 102070">
                  <path id="Trazado_133004" data-name="Trazado 133004" d="M625.164,224.312c.1-.023,1.532,5.677,3.2,12.73s2.943,12.793,2.844,12.816-1.532-5.676-3.2-12.731S625.065,224.335,625.164,224.312Z" transform="translate(-625.158 -224.312)" fill="#263238"/>
                </g>
              </g>
            </g>
          </g>
          <g id="Grupo_102123" data-name="Grupo 102123" transform="translate(65.331 119.707)">
            <g id="Grupo_102074" data-name="Grupo 102074" transform="translate(26.842 19.795)">
              <rect id="Rectángulo_36580" data-name="Rectángulo 36580" width="0.706" height="2.715" fill="#e0e0e0"/>
            </g>
            <g id="Grupo_102115" data-name="Grupo 102115" transform="translate(0 22.274)">
              <g id="Grupo_102076" data-name="Grupo 102076" transform="translate(29.795 0.45)">
                <g id="Grupo_102075" data-name="Grupo 102075">
                  <path id="Trazado_133005" data-name="Trazado 133005" d="M654.143,340.226l17.175,46.1-10.373,3.952-11.985-47.9Z" transform="translate(-648.96 -340.226)" fill="#e0e0e0"/>
                </g>
              </g>
              <g id="Grupo_102078" data-name="Grupo 102078" transform="translate(17.457 1.977)">
                <g id="Grupo_102077" data-name="Grupo 102077">
                  <path id="Trazado_133006" data-name="Trazado 133006" d="M655.8,390.913,632.735,382.8l-1.258-40.408,12.338.62Z" transform="translate(-631.476 -342.39)" fill="#e0e0e0"/>
                </g>
              </g>
              <g id="Grupo_102081" data-name="Grupo 102081" transform="translate(41.773 42.832)">
                <g id="Grupo_102080" data-name="Grupo 102080">
                  <g id="Grupo_102079" data-name="Grupo 102079">
                    <path id="Trazado_133007" data-name="Trazado 133007" d="M665.94,407.951a13.249,13.249,0,0,1,.561-2.193c.394-1.344.967-3.2,1.628-5.266l.067-.209.2.087.429.184c2.089.9,3.972,1.737,5.327,2.361a14.445,14.445,0,0,1,2.16,1.085,14.39,14.39,0,0,1-2.272-.826c-1.383-.557-3.284-1.351-5.373-2.252l-.429-.186.269-.122c-.666,2.063-1.283,3.906-1.746,5.228A13.062,13.062,0,0,1,665.94,407.951Z" transform="translate(-665.933 -400.284)" fill="#263238"/>
                  </g>
                </g>
              </g>
              <g id="Grupo_102084" data-name="Grupo 102084" transform="translate(32.466 1.478)">
                <g id="Grupo_102083" data-name="Grupo 102083">
                  <g id="Grupo_102082" data-name="Grupo 102082">
                    <path id="Trazado_133008" data-name="Trazado 133008" d="M652.748,341.682c.106-.03,2.809,9.265,6.037,20.757s5.759,20.837,5.653,20.867-2.809-9.262-6.038-20.758S652.641,341.712,652.748,341.682Z" transform="translate(-652.744 -341.682)" fill="#263238"/>
                  </g>
                </g>
              </g>
              <g id="Grupo_102086" data-name="Grupo 102086" transform="translate(17.457 1.977)" opacity="0.3">
                <g id="Grupo_102085" data-name="Grupo 102085">
                  <path id="Trazado_133009" data-name="Trazado 133009" d="M655.8,390.913,632.735,382.8l-1.258-40.408,12.338.62Z" transform="translate(-631.476 -342.39)"/>
                </g>
              </g>
              <g id="Grupo_102088" data-name="Grupo 102088" transform="translate(23.779 6.45)">
                <g id="Grupo_102087" data-name="Grupo 102087">
                  <path id="Trazado_133010" data-name="Trazado 133010" d="M654.608,397.081l-14.174,3.525,3.909-51.778,1.117-.1Z" transform="translate(-640.434 -348.728)" fill="#455a64"/>
                </g>
              </g>
              <g id="Grupo_102090" data-name="Grupo 102090" transform="translate(9.864 3.7)">
                <g id="Grupo_102089" data-name="Grupo 102089">
                  <path id="Trazado_133011" data-name="Trazado 133011" d="M634.631,399.459l-13.915-11.807,6.354-42.821,11.471,2.85Z" transform="translate(-620.716 -344.831)" fill="#455a64"/>
                </g>
              </g>
              <g id="Grupo_102092" data-name="Grupo 102092" transform="translate(9.864 3.7)" opacity="0.3">
                <g id="Grupo_102091" data-name="Grupo 102091">
                  <path id="Trazado_133012" data-name="Trazado 133012" d="M634.631,399.459l-13.915-11.807,6.354-42.821,11.471,2.85Z" transform="translate(-620.716 -344.831)"/>
                </g>
              </g>
              <g id="Grupo_102095" data-name="Grupo 102095" transform="translate(23.777 49.347)">
                <g id="Grupo_102094" data-name="Grupo 102094">
                  <g id="Grupo_102093" data-name="Grupo 102093">
                    <path id="Trazado_133013" data-name="Trazado 133013" d="M640.433,418.5a3.032,3.032,0,0,1,.428-.658c.3-.406.735-.988,1.283-1.7,1.1-1.425,2.634-3.376,4.351-5.516l.771-.958.119-.149.153.113c1.975,1.462,3.713,2.772,4.95,3.727a16.922,16.922,0,0,1,1.942,1.595,16.775,16.775,0,0,1-2.1-1.381c-1.278-.9-3.045-2.169-5.027-3.621l.272-.036-.768.961c-1.717,2.14-3.289,4.063-4.442,5.442-.577.69-1.049,1.244-1.382,1.621A2.919,2.919,0,0,1,640.433,418.5Z" transform="translate(-640.431 -409.515)" fill="#263238"/>
                  </g>
                </g>
              </g>
              <g id="Grupo_102098" data-name="Grupo 102098" transform="translate(28.163 6.578)">
                <g id="Grupo_102097" data-name="Grupo 102097">
                  <g id="Grupo_102096" data-name="Grupo 102096">
                    <path id="Trazado_133014" data-name="Trazado 133014" d="M646.662,348.91c.11-.007.779,9.623,1.494,21.507s1.2,21.527,1.094,21.533-.779-9.621-1.494-21.509S646.551,348.916,646.662,348.91Z" transform="translate(-646.646 -348.91)" fill="#263238"/>
                  </g>
                </g>
              </g>
              <g id="Grupo_102100" data-name="Grupo 102100" transform="translate(9.351 3.646)">
                <g id="Grupo_102099" data-name="Grupo 102099">
                  <path id="Trazado_133015" data-name="Trazado 133015" d="M635.45,345.012l-2.135,39.044-13.326-1.716,14.459-37.585Z" transform="translate(-619.989 -344.755)" fill="#ff725e"/>
                </g>
              </g>
              <g id="Grupo_102102" data-name="Grupo 102102" transform="translate(0 0.511)">
                <g id="Grupo_102101" data-name="Grupo 102101">
                  <path id="Trazado_133016" data-name="Trazado 133016" d="M616.089,381.033l-9.351-7.632,14.677-33.088,9.134,3.135Z" transform="translate(-606.738 -340.312)" fill="#ff725e"/>
                </g>
              </g>
              <g id="Grupo_102104" data-name="Grupo 102104" transform="translate(0 0.511)" opacity="0.3">
                <g id="Grupo_102103" data-name="Grupo 102103">
                  <path id="Trazado_133017" data-name="Trazado 133017" d="M616.089,381.033l-9.351-7.632,14.677-33.088,9.134,3.135Z" transform="translate(-606.738 -340.312)"/>
                </g>
              </g>
              <g id="Grupo_102107" data-name="Grupo 102107" transform="translate(9.351 37.437)">
                <g id="Grupo_102106" data-name="Grupo 102106">
                  <g id="Grupo_102105" data-name="Grupo 102105">
                    <path id="Trazado_133018" data-name="Trazado 133018" d="M619.989,396.433a14.218,14.218,0,0,1,2.127-1.085c1.334-.623,3.19-1.459,5.248-2.361l.671-.293.126-.055.1.1c1.457,1.483,2.74,2.818,3.65,3.791a12.187,12.187,0,0,1,1.409,1.621,12.017,12.017,0,0,1-1.6-1.431c-.96-.923-2.277-2.224-3.74-3.7l.221.042-.67.294c-2.058.9-3.931,1.7-5.294,2.253A14.058,14.058,0,0,1,619.989,396.433Z" transform="translate(-619.988 -392.639)" fill="#263238"/>
                  </g>
                </g>
              </g>
              <g id="Grupo_102110" data-name="Grupo 102110" transform="translate(17.471 3.778)">
                <g id="Grupo_102109" data-name="Grupo 102109">
                  <g id="Grupo_102108" data-name="Grupo 102108">
                    <path id="Trazado_133019" data-name="Trazado 133019" d="M638.346,344.942c.109.022-1.337,7.628-3.226,16.987s-3.511,16.931-3.619,16.91,1.337-7.627,3.228-16.989S638.239,344.92,638.346,344.942Z" transform="translate(-631.495 -344.942)" fill="#263238"/>
                  </g>
                </g>
              </g>
              <g id="Grupo_102112" data-name="Grupo 102112" transform="translate(20.684)">
                <g id="Grupo_102111" data-name="Grupo 102111">
                  <path id="Trazado_133020" data-name="Trazado 133020" d="M650.344,340.038l-14.294-.45.387,2.159,8.724.438Z" transform="translate(-636.049 -339.588)" fill="#263238"/>
                </g>
              </g>
              <g id="Grupo_102114" data-name="Grupo 102114" transform="translate(24.73 5.397)">
                <g id="Grupo_102113" data-name="Grupo 102113">
                  <path id="Trazado_133021" data-name="Trazado 133021" d="M645.858,348.288l-4.076-1.053v.418l2.958.735Z" transform="translate(-641.782 -347.236)" fill="#263238"/>
                </g>
              </g>
            </g>
            <g id="Grupo_102116" data-name="Grupo 102116" transform="translate(27.819 19.795)">
              <rect id="Rectángulo_36581" data-name="Rectángulo 36581" width="0.706" height="2.715" fill="#e0e0e0"/>
            </g>
            <g id="Grupo_102120" data-name="Grupo 102120" transform="translate(20.241)">
              <g id="Grupo_102119" data-name="Grupo 102119">
                <g id="Grupo_102118" data-name="Grupo 102118">
                  <g id="Grupo_102117" data-name="Grupo 102117">
                    <path id="Trazado_133022" data-name="Trazado 133022" d="M639.5,309.593a4.664,4.664,0,0,1-1.25,2.774,11.126,11.126,0,0,0-1.7,3.815s-.852,5.262-1.046,6.967-.176,3.262,1.169,2.922,1.733-1.376,1.9-4.5l.756-1.665.757,1.25.241,4.717s-3.573,1.606-3.315,2.542.9.767.9.767l.567.514,5.392-1.819,1.762-6.665-.784-8.5.212-3.557-5.9-1.127Z" transform="translate(-635.421 -308.024)" fill="#ffbf9d"/>
                  </g>
                </g>
              </g>
            </g>
            <g id="Grupo_102121" data-name="Grupo 102121" transform="translate(21.07 17.508)">
              <path id="Trazado_133023" data-name="Trazado 133023" d="M637.291,340.489l-.7-.127c.051-.274,1.258-6.707,3.984-7.528l.2.675C638.862,334.089,637.611,338.744,637.291,340.489Z" transform="translate(-636.596 -332.834)" fill="#e0e0e0"/>
            </g>
            <g id="Grupo_102122" data-name="Grupo 102122" transform="translate(19.725 17.508)">
              <path id="Trazado_133024" data-name="Trazado 133024" d="M635.339,340.093l-.649-.276c.107-.252,2.651-6.175,5.329-6.983l.2.675C638.261,334.1,636.032,338.463,635.339,340.093Z" transform="translate(-634.69 -332.834)" fill="#e0e0e0"/>
            </g>
          </g>
        </g>
      </g>
      <g id="Character_1" data-name="Character 1" transform="translate(301.318 72.156)">
        <g id="Grupo_102234" data-name="Grupo 102234" transform="translate(0 0)">
          <g id="Grupo_102125" data-name="Grupo 102125" transform="translate(0.18 0.146)">
            <ellipse id="Elipse_5255" data-name="Elipse 5255" cx="85.344" cy="85.344" rx="85.344" ry="85.344" fill="#f5f5f5"/>
          </g>
          <g id="Grupo_102127" data-name="Grupo 102127">
            <g id="Grupo_102126" data-name="Grupo 102126">
              <path id="Trazado_133025" data-name="Trazado 133025" d="M213.471,158.268s-.024-.469-.054-1.384c-.014-.459-.031-1.028-.052-1.7s-.035-1.464-.121-2.353q-.105-1.336-.236-2.984c-.112-1.1-.288-2.288-.448-3.583a89.954,89.954,0,0,0-1.736-8.836,84.518,84.518,0,0,0-3.5-10.715,82.337,82.337,0,0,0-5.936-12.014,86.269,86.269,0,0,0-21.658-24.228,85.022,85.022,0,0,0-35.878-15.921,86.619,86.619,0,0,0-33.386.384A84.086,84.086,0,0,0,88,83.133,89.733,89.733,0,0,0,77.5,89.778a93.35,93.35,0,0,0-9.612,8.279,91.924,91.924,0,0,0-8.414,9.82,83.933,83.933,0,0,0-6.944,11.178c-.49.992-1.044,1.957-1.484,2.978q-.687,1.52-1.376,3.045c-.822,2.074-1.672,4.148-2.349,6.293a82.891,82.891,0,0,0-3.244,13.176,85,85,0,0,0,0,27.419,83.087,83.087,0,0,0,3.242,13.181c.678,2.146,1.528,4.22,2.349,6.3l1.377,3.045c.439,1.022.994,1.986,1.483,2.979a83.8,83.8,0,0,0,6.945,11.183,91.819,91.819,0,0,0,8.416,9.824,93.381,93.381,0,0,0,9.613,8.281,84.531,84.531,0,0,0,32.972,14.851,86.6,86.6,0,0,0,33.389.382,85,85,0,0,0,35.878-15.925,86.269,86.269,0,0,0,21.656-24.228,82.391,82.391,0,0,0,5.934-12.013,84.541,84.541,0,0,0,3.5-10.714,89.886,89.886,0,0,0,1.735-8.835c.16-1.294.337-2.487.449-3.582q.129-1.646.235-2.983c.087-.888.105-1.675.121-2.353s.038-1.245.053-1.7c.029-.915.053-1.383.053-1.383s0,.468-.017,1.384q-.014.688-.034,1.705c-.011.678-.024,1.465-.1,2.355L213.1,166.7c-.106,1.1-.277,2.292-.432,3.589a88.908,88.908,0,0,1-1.7,8.855,84.381,84.381,0,0,1-3.473,10.743,82.3,82.3,0,0,1-5.921,12.053,86.341,86.341,0,0,1-21.674,24.328,85.229,85.229,0,0,1-35.978,16.016,86.839,86.839,0,0,1-33.512-.358,84.352,84.352,0,0,1-22.57-8.223,90.2,90.2,0,0,1-10.541-6.669,93.666,93.666,0,0,1-9.655-8.311,91.987,91.987,0,0,1-8.453-9.861,84.141,84.141,0,0,1-6.977-11.227c-.492-1-1.049-1.965-1.49-2.992q-.69-1.525-1.382-3.058c-.826-2.084-1.679-4.168-2.36-6.322a83.394,83.394,0,0,1-3.258-13.236,85.345,85.345,0,0,1,0-27.534,83.255,83.255,0,0,1,3.26-13.232c.682-2.154,1.534-4.237,2.361-6.32l1.382-3.057c.443-1.025,1-1.993,1.491-2.99a84.285,84.285,0,0,1,6.976-11.223,92.162,92.162,0,0,1,8.452-9.858A93.612,93.612,0,0,1,77.3,89.5,85.609,85.609,0,0,1,98.966,77.864,91.137,91.137,0,0,1,110.4,74.611a86.879,86.879,0,0,1,33.509-.359,85.228,85.228,0,0,1,35.977,16.013,86.345,86.345,0,0,1,21.677,24.327,82.253,82.253,0,0,1,5.923,12.054,84.444,84.444,0,0,1,3.474,10.744,89.116,89.116,0,0,1,1.705,8.856c.155,1.3.326,2.491.432,3.589l.219,2.988c.081.89.093,1.677.1,2.356s.025,1.246.034,1.705C213.471,157.8,213.471,158.268,213.471,158.268Z" transform="translate(-42.602 -72.778)" fill="#263238"/>
            </g>
          </g>
          <g id="Grupo_102233" data-name="Grupo 102233" transform="translate(40.346 9.941)">
            <g id="Grupo_102200" data-name="Grupo 102200" transform="translate(0 55.161)">
              <g id="Grupo_102128" data-name="Grupo 102128" transform="translate(19.224 79.267)">
                <path id="Trazado_133026" data-name="Trazado 133026" d="M128.437,303.34a88.638,88.638,0,0,0,27.408,3.911c15.972-.505,26.362-4.622,26.362-4.622L176.379,280.8l-18.424,5.6-22.7-3.269Z" transform="translate(-128.437 -280.799)" fill="#263238"/>
              </g>
              <g id="Grupo_102179" data-name="Grupo 102179">
                <g id="Grupo_102136" data-name="Grupo 102136" transform="translate(26.1 0.02)">
                  <g id="Grupo_102130" data-name="Grupo 102130">
                    <g id="Grupo_102129" data-name="Grupo 102129">
                      <path id="Trazado_133027" data-name="Trazado 133027" d="M169.445,174.424l-2.747-6.948-16.384-.863-6.692.863-.736,1.925-4.542,80.356s15.87,3.2,23.8,2.088a92.918,92.918,0,0,0,17.262-4.732v-45.7Z" transform="translate(-138.344 -166.612)" fill="#f5f5f5"/>
                    </g>
                  </g>
                  <g id="Grupo_102133" data-name="Grupo 102133" transform="translate(6.441 10.239)">
                    <g id="Grupo_102132" data-name="Grupo 102132">
                      <g id="Grupo_102131" data-name="Grupo 102131">
                        <path id="Trazado_133028" data-name="Trazado 133028" d="M147.625,182.2a.762.762,0,0,0,.113.145l.355.4c.316.344.786.839,1.4,1.451a57.307,57.307,0,0,0,5.363,4.695l.078.06.067-.074a60.656,60.656,0,0,0,4.918-6.154l.485-.7-.2,0,3.938,5.3a2.73,2.73,0,0,0,.546.554,1.033,1.033,0,0,0,.761.207,1.237,1.237,0,0,0,.66-.373,6.282,6.282,0,0,0,.45-.53l1.555-1.946,2.231-2.82.6-.771a1.853,1.853,0,0,0,.2-.279,1.892,1.892,0,0,0-.232.249l-.629.744-2.29,2.772-1.577,1.928c-.28.337-.565.748-.989.819s-.812-.3-1.1-.688l-3.918-5.311-.1-.136-.1.14-.484.7a63.85,63.85,0,0,1-4.88,6.147l.145-.013a64.272,64.272,0,0,1-5.4-4.616c-.626-.6-1.109-1.077-1.44-1.405l-.379-.375A.76.76,0,0,0,147.625,182.2Z" transform="translate(-147.625 -181.366)" fill="#263238"/>
                      </g>
                    </g>
                  </g>
                  <g id="Grupo_102135" data-name="Grupo 102135" transform="translate(6.158 10.779)" opacity="0.3">
                    <g id="Grupo_102134" data-name="Grupo 102134">
                      <path id="Trazado_133029" data-name="Trazado 133029" d="M166.218,187.536s-2.076,2.559-2.661,1.917-3.66-5.408-4.029-5.605-4.087,6.481-5.546,6.014-6.663-5.669-6.663-5.669l-.1-2.048,7.581,6.9,5.383-6.854,4.528,5.892S165.668,188.831,166.218,187.536Z" transform="translate(-147.217 -182.144)"/>
                    </g>
                  </g>
                </g>
                <g id="Grupo_102138" data-name="Grupo 102138" transform="translate(45.178 11.695)">
                  <g id="Grupo_102137" data-name="Grupo 102137">
                    <path id="Trazado_133030" data-name="Trazado 133030" d="M168.435,257.478a4.558,4.558,0,0,0,.007-.754q-.026-.8-.069-2.158c-.078-1.918-.188-4.617-.323-7.933-.281-6.7-.659-15.95-1.013-26.171s-.614-19.482-.8-26.184c-.094-3.317-.171-6.017-.226-7.936q-.05-1.355-.08-2.157a4.576,4.576,0,0,0-.06-.752,4.782,4.782,0,0,0-.033.753q0,.8-.007,2.159c.019,1.92.046,4.621.079,7.939.1,6.7.31,15.965.663,26.192s.784,19.477,1.148,26.171c.2,3.313.355,6.01.469,7.927q.1,1.353.155,2.154A4.575,4.575,0,0,0,168.435,257.478Z" transform="translate(-165.835 -183.434)" fill="#263238"/>
                  </g>
                </g>
                <g id="Grupo_102144" data-name="Grupo 102144" transform="translate(54.562 1.027)">
                  <g id="Grupo_102139" data-name="Grupo 102139" transform="translate(6.753 52.275)" opacity="0.3">
                    <path id="Trazado_133031" data-name="Trazado 133031" d="M189.979,243.387c-1.318,19.758-1.51,30.326,1.769,49.855,1.471-.281,3.481-.815,5.63-1.414C194.507,273,192.849,262.214,189.979,243.387Z" transform="translate(-189.087 -243.387)"/>
                  </g>
                  <g id="Grupo_102140" data-name="Grupo 102140">
                    <path id="Trazado_133032" data-name="Trazado 133032" d="M198.958,238.932s.133-2.365.171-3l.489-9.64,1.169-20.163,5.363-22.965c-.982-3.148-3.562-6.524-6.539-7.556-.234-.081-.475-.147-.715-.208l-6.555-1.645-5.072-.992-7.913-4.7s7.27,43.983,7.737,55.3,4.867,46.73,4.867,46.73a69.463,69.463,0,0,0,18.327-7.363Z" transform="translate(-179.356 -168.063)" fill="#ff725e"/>
                  </g>
                  <g id="Grupo_102143" data-name="Grupo 102143" transform="translate(7.912 4.696)">
                    <g id="Grupo_102142" data-name="Grupo 102142">
                      <g id="Grupo_102141" data-name="Grupo 102141">
                        <path id="Trazado_133033" data-name="Trazado 133033" d="M191.109,219.825a.491.491,0,0,0,.039-.121c.024-.094.053-.213.09-.36l.322-1.393c.252-1.216.611-2.977.94-5.173s.659-4.821.913-7.745.462-6.145.62-9.527c.056-1.263.112-2.5.167-3.715q.04-.907.078-1.791.022-.443.043-.879l.013-.437,0-.222c0-.037,0-.076-.008-.118a.39.39,0,0,0-.02-.082.209.209,0,0,0-.028-.046.132.132,0,0,0-.13-.034c-.086.042-.06.049-.084.071l.165-.036-2.6-1.815-.017.188,2.827-1.323.076-.036-.021-.08c-.425-1.607-.936-3.034-1.38-4.3s-.866-2.351-1.212-3.244-.627-1.59-.824-2.063l-.228-.537a.961.961,0,0,0-.089-.18,1.021,1.021,0,0,0,.06.192c.051.139.117.32.2.548l.772,2.081c.33.9.729,1.992,1.167,3.257s.929,2.7,1.339,4.292l.056-.116-2.834,1.308-.171.079.155.109L194.1,188.4l.165-.036c0,.015-.081-.06-.076-.06,0-.02,0,0-.008,0a.079.079,0,0,1-.048.026l-.037.015h0v0l0,.019.007.1v.21l-.014.431q-.022.435-.045.877-.041.885-.083,1.794c-.055,1.21-.111,2.451-.169,3.714-.159,3.38-.356,6.6-.6,9.519s-.55,5.544-.861,7.739-.64,3.959-.863,5.179c-.118.594-.211,1.063-.278,1.4l-.067.365A.559.559,0,0,0,191.109,219.825Z" transform="translate(-190.757 -174.829)" fill="#263238"/>
                      </g>
                    </g>
                  </g>
                </g>
                <g id="Grupo_102178" data-name="Grupo 102178">
                  <g id="Grupo_102145" data-name="Grupo 102145" transform="translate(4.984)">
                    <path id="Trazado_133034" data-name="Trazado 133034" d="M135.139,176.4l-.763-9.814c-2.174,1.945-6.253,5.7-6.253,5.7l-17.411,6.382L116.9,241.2l-8.98,21.08c5.359,2.679,13.338,6.14,19.056,7.529,2.712-13.148,3.107-12.844,6.813-33.057S135.139,176.4,135.139,176.4Z" transform="translate(-107.919 -166.583)" fill="#ff725e"/>
                  </g>
                  <g id="Grupo_102147" data-name="Grupo 102147" transform="translate(8.791 76.242)" opacity="0.3">
                    <g id="Grupo_102146" data-name="Grupo 102146">
                      <path id="Trazado_133035" data-name="Trazado 133035" d="M157.961,281.488s1.188,1.545-1.426,2.02-32.237-1.714-32.237-1.714L113.4,286.955l1.415-3.9,7.7-6.617Z" transform="translate(-113.404 -276.441)"/>
                    </g>
                  </g>
                  <g id="Grupo_102149" data-name="Grupo 102149" transform="translate(0 12.077)">
                    <g id="Grupo_102148" data-name="Grupo 102148">
                      <path id="Trazado_133036" data-name="Trazado 133036" d="M108.514,183.985s-5.277,2.589-6.068,9.961c-.7,6.485-1.838,46.291-1.7,49.5s2.912,12.285,7.885,12.6c7.849.5,10.009-5.558,10.009-5.558l-2.108-20.334Z" transform="translate(-100.737 -183.985)" fill="#ff725e"/>
                    </g>
                  </g>
                  <g id="Grupo_102152" data-name="Grupo 102152" transform="translate(24.349 5.695)">
                    <g id="Grupo_102151" data-name="Grupo 102151">
                      <g id="Grupo_102150" data-name="Grupo 102150">
                        <path id="Trazado_133037" data-name="Trazado 133037" d="M139.215,217.664a.457.457,0,0,0-.013-.12l-.063-.347c-.064-.322-.152-.765-.263-1.328-.212-1.156-.531-2.827-.826-4.907-.621-4.156-1.15-9.942-1.455-16.347-.071-1.509-.141-2.984-.208-4.411q-.048-1.071-.094-2.1-.027-.515-.054-1.02-.009-.251-.019-.5v-.244c0-.04,0-.08.006-.115,0-.015.006-.037.006-.037s0,0-.007.012a.122.122,0,0,1-.016.017.1.1,0,0,1-.071.024c-.028.007-.071-.033-.065-.028l-.006-.007.161.035,2.593-1.827.148-.1-.164-.075-2.835-1.306.051.107a33.6,33.6,0,0,0,.577-3.451c.132-1.022.26-1.9.4-2.612a15.912,15.912,0,0,1,.4-1.624c.056-.171.1-.307.136-.416a.641.641,0,0,0,.039-.144.591.591,0,0,0-.065.135c-.037.092-.1.226-.162.408a13.276,13.276,0,0,0-.451,1.62c-.157.712-.3,1.593-.446,2.612s-.3,2.181-.61,3.426l-.018.074.069.033,2.825,1.326-.015-.179-2.6,1.813.161.035-.024-.032a.145.145,0,0,0-.09-.044.137.137,0,0,0-.085.03.093.093,0,0,0-.024.029.124.124,0,0,0-.019.041.393.393,0,0,0-.017.084c0,.047-.006.09-.008.133v.254q.008.251.017.5.025.5.051,1.02.044,1.032.089,2.1c.066,1.428.135,2.9.2,4.413a157.068,157.068,0,0,0,1.528,16.361c.317,2.081.663,3.749.9,4.9.13.559.233,1,.308,1.319l.086.342A.456.456,0,0,0,139.215,217.664Z" transform="translate(-135.821 -174.789)" fill="#263238"/>
                      </g>
                    </g>
                  </g>
                  <g id="Grupo_102154" data-name="Grupo 102154" transform="translate(15.949 32.021)">
                    <g id="Grupo_102153" data-name="Grupo 102153">
                      <path id="Trazado_133038" data-name="Trazado 133038" d="M125.523,212.725l37.291,1.9a1.717,1.717,0,0,1,1.627,1.619l2.476,44.235a1.717,1.717,0,0,1-1.8,1.811L128.928,260.4a1.717,1.717,0,0,1-1.621-1.576l-3.583-44.246A1.718,1.718,0,0,1,125.523,212.725Z" transform="translate(-123.718 -212.723)" fill="#263238"/>
                    </g>
                  </g>
                  <g id="Grupo_102157" data-name="Grupo 102157" transform="translate(9.926 22.33)">
                    <g id="Grupo_102156" data-name="Grupo 102156">
                      <g id="Grupo_102155" data-name="Grupo 102155">
                        <path id="Trazado_133039" data-name="Trazado 133039" d="M115.04,198.758a2.628,2.628,0,0,0,.06.4q.081.418.218,1.129c.2,1,.475,2.414.817,4.149.682,3.5,1.572,8.357,2.423,13.736s1.5,10.272,1.931,13.816c.21,1.756.381,3.184.5,4.2q.088.719.141,1.142a2.487,2.487,0,0,0,.065.4,2.524,2.524,0,0,0-.017-.4q-.035-.425-.1-1.146c-.087-1-.231-2.433-.427-4.208-.389-3.551-1.013-8.449-1.862-13.834S117.027,207.9,116.3,204.4c-.362-1.749-.668-3.162-.892-4.135q-.166-.7-.262-1.12A2.513,2.513,0,0,0,115.04,198.758Z" transform="translate(-115.039 -198.758)" fill="#263238"/>
                      </g>
                    </g>
                  </g>
                  <g id="Grupo_102172" data-name="Grupo 102172" transform="translate(7.369 57.609)">
                    <g id="Grupo_102159" data-name="Grupo 102159" transform="translate(0.528)">
                      <g id="Grupo_102158" data-name="Grupo 102158">
                        <path id="Trazado_133040" data-name="Trazado 133040" d="M121.21,252.974s-2.147.124-4.047,3.3l-3.634,2.313s-3.18,5,0,9.663,7.021.7,7.021.7,3.841,1.9,4.914,1.571a76.532,76.532,0,0,0,9.416-5.145c.316-.267,2.659-2.957,2.659-2.957s3.247-.7,3.619-1.44.4-2.449-1.791-2.284c0,0,2.13-.642,2.378-1.716s-.019-2.475-3.777-1.938-11,2.55-11.843,2.345a.525.525,0,0,1,.083-.95c.27-.126,8.788-3.438,10.162-3.814,1.478-.406,1.691-3.7-1.366-2.917s-13.009,3.18-13.009,3.18Z" transform="translate(-112.116 -249.592)" fill="#ffbf9d"/>
                      </g>
                    </g>
                    <g id="Grupo_102162" data-name="Grupo 102162" transform="translate(15.24 12.877)">
                      <g id="Grupo_102161" data-name="Grupo 102161">
                        <g id="Grupo_102160" data-name="Grupo 102160">
                          <path id="Trazado_133041" data-name="Trazado 133041" d="M133.314,271.3a12.813,12.813,0,0,0,1.579-.48c.967-.316,2.306-.744,3.8-1.179s2.849-.792,3.835-1.045a12.875,12.875,0,0,0,1.589-.444,1.558,1.558,0,0,0-.442.048c-.282.046-.687.124-1.186.23-1,.212-2.368.545-3.864.981s-2.829.891-3.784,1.249c-.477.178-.861.33-1.124.443A1.566,1.566,0,0,0,133.314,271.3Z" transform="translate(-133.314 -268.146)" fill="#ff9a6c"/>
                        </g>
                      </g>
                    </g>
                    <g id="Grupo_102165" data-name="Grupo 102165" transform="translate(14.016 9.107)">
                      <g id="Grupo_102164" data-name="Grupo 102164">
                        <g id="Grupo_102163" data-name="Grupo 102163">
                          <path id="Trazado_133042" data-name="Trazado 133042" d="M131.551,265.686a2.547,2.547,0,0,0,.558-.037c.357-.039.872-.108,1.507-.2,1.271-.189,3.02-.493,4.936-.9s3.638-.849,4.874-1.2c.618-.174,1.117-.322,1.458-.433a2.459,2.459,0,0,0,.525-.2,2.5,2.5,0,0,0-.55.1l-1.476.358c-1.246.305-2.968.717-4.881,1.127s-3.653.74-4.914.971l-1.493.278A2.466,2.466,0,0,0,131.551,265.686Z" transform="translate(-131.551 -262.714)" fill="#ff9a6c"/>
                        </g>
                      </g>
                    </g>
                    <g id="Grupo_102168" data-name="Grupo 102168" transform="translate(3.664 11.228)">
                      <g id="Grupo_102167" data-name="Grupo 102167">
                        <g id="Grupo_102166" data-name="Grupo 102166">
                          <path id="Trazado_133043" data-name="Trazado 133043" d="M116.649,265.77a1.235,1.235,0,0,0-.007.391,6.642,6.642,0,0,0,.142,1.056,9.417,9.417,0,0,0,3.794,5.756,6.573,6.573,0,0,0,.914.546,1.207,1.207,0,0,0,.362.148c.021-.038-.472-.294-1.176-.831a10.316,10.316,0,0,1-3.729-5.656C116.733,266.32,116.692,265.767,116.649,265.77Z" transform="translate(-116.635 -265.77)" fill="#ff9a6c"/>
                        </g>
                      </g>
                    </g>
                    <g id="Grupo_102171" data-name="Grupo 102171" transform="translate(0 8.691)">
                      <g id="Grupo_102170" data-name="Grupo 102170">
                        <g id="Grupo_102169" data-name="Grupo 102169">
                          <path id="Trazado_133044" data-name="Trazado 133044" d="M113.83,273.306c.035-.031-.465-.515-1.029-1.462a8.388,8.388,0,0,1-.256-8.206c.5-.981.973-1.495.937-1.523a1.66,1.66,0,0,0-.34.348,7.1,7.1,0,0,0-.747,1.1,8.107,8.107,0,0,0,.261,8.375,7.043,7.043,0,0,0,.815,1.047A1.662,1.662,0,0,0,113.83,273.306Z" transform="translate(-111.355 -262.114)" fill="#263238"/>
                        </g>
                      </g>
                    </g>
                  </g>
                  <g id="Grupo_102175" data-name="Grupo 102175" transform="translate(1.443 59.252)">
                    <g id="Grupo_102174" data-name="Grupo 102174">
                      <g id="Grupo_102173" data-name="Grupo 102173">
                        <path id="Trazado_133045" data-name="Trazado 133045" d="M102.817,254.321c.028.04.609-.408,1.66-.92a12.083,12.083,0,0,1,1.913-.731,12.222,12.222,0,0,1,4.968-.371,12.188,12.188,0,0,1,2,.439c1.116.351,1.757.708,1.778.664a2.075,2.075,0,0,0-.439-.268,4.529,4.529,0,0,0-.542-.264,7.332,7.332,0,0,0-.744-.294,10.951,10.951,0,0,0-2.023-.5,11.6,11.6,0,0,0-5.061.378,10.99,10.99,0,0,0-1.927.792,7.415,7.415,0,0,0-.691.4,4.386,4.386,0,0,0-.5.341A2.111,2.111,0,0,0,102.817,254.321Z" transform="translate(-102.816 -251.959)" fill="#263238"/>
                      </g>
                    </g>
                  </g>
                  <g id="Grupo_102177" data-name="Grupo 102177" transform="translate(22.501 6.498)" opacity="0.3">
                    <g id="Grupo_102176" data-name="Grupo 102176">
                      <path id="Trazado_133046" data-name="Trazado 133046" d="M136.477,175.946s-3.144,7.332-2.707,7.942a5.037,5.037,0,0,0,2.1,1.047s-2.708,1.17-2.706,2.21c0,2.069,2.9,14.324,2.9,14.324l-.716-14.966,2.6-1.82-2.83-1.316Z" transform="translate(-133.159 -175.946)"/>
                    </g>
                  </g>
                </g>
              </g>
              <g id="Grupo_102193" data-name="Grupo 102193" transform="translate(102.147 19.688)">
                <g id="Grupo_102180" data-name="Grupo 102180" transform="translate(0 6.963)">
                  <path id="Trazado_133047" data-name="Trazado 133047" d="M247.922,222.262s4.465-5.828,5.574-7.878a11.66,11.66,0,0,1,3.581-4.229c1.734-1.409,6.512-4.775,8.243-4.567s8.554-.6,8.554-.6l-5.145,8.086s1.551,5.646.344,6.907-1.04.97-2.766,1.532-8.22.94-8.315,1.124-3.78,5.951-3.78,5.951Z" transform="translate(-247.922 -204.985)" fill="#ffbf9d"/>
                </g>
                <g id="Grupo_102181" data-name="Grupo 102181" transform="translate(21.149)">
                  <path id="Trazado_133048" data-name="Trazado 133048" d="M279.219,206.119l17.471-9.681.521-1.045a.264.264,0,0,0-.223-.382l-1.122-.059L278.4,204.633Z" transform="translate(-278.396 -194.952)" fill="#263238"/>
                </g>
                <g id="Grupo_102182" data-name="Grupo 102182" transform="translate(22.967 5.205)">
                  <path id="Trazado_133049" data-name="Trazado 133049" d="M288.216,202.524s-1.388-.536-2.481,1.333a35.415,35.415,0,0,0-1.725,3.312,12.56,12.56,0,0,1-1.288.281l-1.707,2.389.517,1.518s3.5-.643,4.168-1.66a37.493,37.493,0,0,0,2.733-6.268C288.525,202.683,288.216,202.524,288.216,202.524Z" transform="translate(-281.015 -202.452)" fill="#ffbf9d"/>
                </g>
                <g id="Grupo_102186" data-name="Grupo 102186" transform="translate(11.786 7.904)">
                  <g id="Grupo_102183" data-name="Grupo 102183" transform="translate(0.189 0.192)">
                    <path id="Trazado_133050" data-name="Trazado 133050" d="M271.74,217.725l.7-1.281-1.213-1.277s-2.432.951-3.369-.154-.673-1.215-.673-1.215l3.2-1.125-1.98-.382s-2.625,1.058-3.228-.485l.1-.937a24.424,24.424,0,0,1,3.64-.917,45.594,45.594,0,0,1,4.825.248h0l-3.371-.874a5.513,5.513,0,0,1-2.145-.069.98.98,0,0,1-.568-1.4h0a.978.978,0,0,1,.459-.431,8.825,8.825,0,0,1,2.634-.8c1.183-.078,5.147.432,6.157,1.279s1.166,1.257.88,2.3a15.439,15.439,0,0,1-1.41,2.861,4.708,4.708,0,0,1-.539,2.283s.684,2.342-1.486,5.125" transform="translate(-265.177 -206.618)" fill="#ffbf9d"/>
                  </g>
                  <g id="Grupo_102185" data-name="Grupo 102185">
                    <g id="Grupo_102184" data-name="Grupo 102184">
                      <path id="Trazado_133051" data-name="Trazado 133051" d="M274.269,220.393a1.676,1.676,0,0,0,.244-.282,6.519,6.519,0,0,0,.6-.9,6.642,6.642,0,0,0,.662-1.614,5.164,5.164,0,0,0,.093-2.36l-.015.1a4.494,4.494,0,0,0,.579-2.353l-.021.076c.328-.53.653-1.093.958-1.706a4.784,4.784,0,0,0,.622-2.082,1.67,1.67,0,0,0-.524-1.085,3.665,3.665,0,0,0-.94-.754,9.6,9.6,0,0,0-2.349-.714,21.657,21.657,0,0,0-2.539-.347,5.928,5.928,0,0,0-1.355.021,7.87,7.87,0,0,0-1.328.359q-.325.116-.645.25a2.415,2.415,0,0,0-.661.352,1.2,1.2,0,0,0-.214,1.523,1.141,1.141,0,0,0,.666.5,3.8,3.8,0,0,0,.736.13,6.322,6.322,0,0,0,1.482-.06l-.086,0,1.374.357,2,.518.07-.4c-1.512-.133-2.982-.264-4.44-.262a9.048,9.048,0,0,0-2.129.367c-.677.18-1.333.377-1.974.586l-.117.037-.012.121c-.033.318-.065.629-.1.938l0,.047.017.041a1.439,1.439,0,0,0,.716.76,2.154,2.154,0,0,0,.967.188,5.342,5.342,0,0,0,1.782-.371l-.1.009,1.981.373-.023-.312-2.387.854-.557.2-.137.049-.068.025-.034.012-.019.007a.174.174,0,0,0-.069.052c-.116.242-.008.31.014.418a4.6,4.6,0,0,0,.651.923,1.64,1.64,0,0,0,.935.539,3.33,3.33,0,0,0,.974.046,6.418,6.418,0,0,0,1.624-.393l-.1-.022,1.235,1.255-.01-.071-.5.982a1.537,1.537,0,0,0-.144.328,1.5,1.5,0,0,0,.2-.3l.553-.953.022-.037-.031-.034-1.19-1.3-.04-.044-.06.022a6.386,6.386,0,0,1-1.575.34,1.949,1.949,0,0,1-1.691-.529,4.439,4.439,0,0,1-.6-.866.61.61,0,0,1-.036-.108c-.01-.043.021-.026-.079-.07l-.01-.01-.006-.008c-.054-.083.072.105.052.091l-.016.008.015,0,.034-.012.068-.023.137-.047.558-.192,2.391-.824.568-.2-.591-.117-1.978-.392-.047-.009-.051.019a5.045,5.045,0,0,1-1.655.332,1.3,1.3,0,0,1-1.335-.725l.012.087c.033-.308.067-.619.1-.937l-.129.159c.633-.2,1.287-.394,1.955-.568a8.686,8.686,0,0,1,2.038-.346c1.414,0,2.9.135,4.394.269l.07-.4-2-.518-1.373-.357-.041-.01-.046.008a5.984,5.984,0,0,1-1.377.057,3.412,3.412,0,0,1-.659-.115.737.737,0,0,1-.437-.324.8.8,0,0,1,.139-1.013,2.145,2.145,0,0,1,.549-.284q.31-.131.624-.244a7.476,7.476,0,0,1,1.258-.346,5.55,5.55,0,0,1,1.267-.022,21.377,21.377,0,0,1,2.495.325,9.412,9.412,0,0,1,2.258.664,3.374,3.374,0,0,1,.854.677,1.34,1.34,0,0,1,.442.87,4.55,4.55,0,0,1-.568,1.931c-.291.6-.607,1.169-.921,1.693l-.021.035v.042a4.3,4.3,0,0,1-.5,2.214l-.028.044.013.055a5.086,5.086,0,0,1-.045,2.249,6.876,6.876,0,0,1-.594,1.6C274.569,219.978,274.238,220.372,274.269,220.393Z" transform="translate(-264.904 -206.341)" fill="#ff9a6c"/>
                    </g>
                  </g>
                </g>
                <g id="Grupo_102188" data-name="Grupo 102188" transform="translate(8.133 17.529)">
                  <g id="Grupo_102187" data-name="Grupo 102187">
                    <path id="Trazado_133052" data-name="Trazado 133052" d="M269.122,222.508a3.935,3.935,0,0,0-1.2-.836,12.314,12.314,0,0,0-6.848-1.417,3.923,3.923,0,0,0-1.433.291,17.659,17.659,0,0,1,9.481,1.962Z" transform="translate(-259.641 -220.209)" fill="#ff9a6c"/>
                  </g>
                </g>
                <g id="Grupo_102190" data-name="Grupo 102190" transform="translate(16.901 13.694)">
                  <g id="Grupo_102189" data-name="Grupo 102189">
                    <path id="Trazado_133053" data-name="Trazado 133053" d="M272.276,215.146c.026.067.4-.071,1-.127a3.6,3.6,0,0,1,2.215.605,11.254,11.254,0,0,1,1.818,1.578c.44.448.728.718.772.68s-.167-.368-.557-.87a7.728,7.728,0,0,0-1.814-1.731,3.43,3.43,0,0,0-2.47-.547A1.767,1.767,0,0,0,272.276,215.146Z" transform="translate(-272.275 -214.684)" fill="#ff9a6c"/>
                  </g>
                </g>
                <g id="Grupo_102192" data-name="Grupo 102192" transform="translate(20.391 11.606)">
                  <g id="Grupo_102191" data-name="Grupo 102191">
                    <path id="Trazado_133054" data-name="Trazado 133054" d="M277.3,211.723a7.348,7.348,0,0,1,1.625,1.11c.767.774,1.14,1.614,1.253,1.569a2.773,2.773,0,0,0-.964-1.854,3.027,3.027,0,0,0-1.282-.8C277.554,211.637,277.307,211.673,277.3,211.723Z" transform="translate(-277.303 -211.675)" fill="#ff9a6c"/>
                  </g>
                </g>
              </g>
              <g id="Grupo_102199" data-name="Grupo 102199" transform="translate(73.989 10.799)">
                <g id="Grupo_102194" data-name="Grupo 102194" transform="translate(1.363)">
                  <path id="Trazado_133055" data-name="Trazado 133055" d="M212.11,182.144l3.206,5.324,11.224,32,10.516-10.857,10.88,10.857s-13.28,17.853-15.564,20.713c-3.65,4.57-13.826,4.27-17.489-3.849-3.144-6.967-5.569-11.685-5.569-11.685l.6-13.493Z" transform="translate(-209.313 -182.144)" fill="#ff725e"/>
                </g>
                <g id="Grupo_102196" data-name="Grupo 102196" transform="translate(0 12.48)">
                  <g id="Grupo_102195" data-name="Grupo 102195">
                    <path id="Trazado_133056" data-name="Trazado 133056" d="M210.234,200.126a.766.766,0,0,1,.008.194l-.013.569c-.022.526-.051,1.257-.088,2.185-.094,1.924-.226,4.662-.39,8.032-.366,6.8-.869,16.159-1.424,26.493-.221,3.911-.434,7.681-.63,11.153l-.017-.084,8.073,17.109,2.307,4.962.6,1.331a3.285,3.285,0,0,1,.19.468,3.259,3.259,0,0,1-.244-.443l-.654-1.307-2.4-4.919-8.19-17.053-.019-.04,0-.044c.191-3.471.4-7.242.613-11.153.6-10.331,1.137-19.684,1.53-26.487.212-3.368.384-6.1.505-8.026.066-.927.118-1.656.155-2.181.02-.232.037-.418.049-.567A.783.783,0,0,1,210.234,200.126Z" transform="translate(-207.349 -200.126)" fill="#263238"/>
                  </g>
                </g>
                <g id="Grupo_102198" data-name="Grupo 102198" transform="translate(17.111 37.347)">
                  <g id="Grupo_102197" data-name="Grupo 102197">
                    <path id="Trazado_133057" data-name="Trazado 133057" d="M232.057,246.373a5.989,5.989,0,0,1-.035-1.548c.035-.954.137-2.271.334-3.716s.453-2.741.675-3.67a6.022,6.022,0,0,1,.45-1.481c.1.024-.378,2.328-.767,5.2S232.162,246.377,232.057,246.373Z" transform="translate(-232.004 -235.958)" fill="#263238"/>
                  </g>
                </g>
              </g>
            </g>
            <g id="Grupo_102232" data-name="Grupo 102232" transform="translate(17.743)">
              <g id="Grupo_102225" data-name="Grupo 102225">
                <g id="Grupo_102201" data-name="Grupo 102201" transform="translate(27.281 16.795)">
                  <path id="Trazado_133058" data-name="Trazado 133058" d="M184.872,111.3s4.285,16.023,4.655,27.361l.123,3.777s-9.457,7.852-17.388,8.336l-6.648-16.347Z" transform="translate(-165.613 -111.302)" fill="#263238"/>
                </g>
                <g id="Grupo_102202" data-name="Grupo 102202" transform="translate(3.714)">
                  <path id="Trazado_133059" data-name="Trazado 133059" d="M132.477,113.725c1.808-7.815,2.5-16.911,9-22.007,4.823-3.781,10.318-4.836,16.44-4.58a21.687,21.687,0,0,1,9.046,3c3.6,2.038,5.125,6.172,6.863,9.926,3.48,7.523,3.039,17.71.682,20.541l-31.436,16.6c-6.277-3.267-10.21-4.569-11.213-12.936A30.653,30.653,0,0,1,132.477,113.725Z" transform="translate(-131.654 -87.102)" fill="#263238"/>
                </g>
                <g id="Grupo_102203" data-name="Grupo 102203" transform="translate(10.646 4.913)">
                  <path id="Trazado_133060" data-name="Trazado 133060" d="M144.869,100.095l19.784-5.837c6.373-.929,10.938,6.784,11.6,13.19.73,7.118,1.341,15.837.705,21.194-1.279,10.772-9.43,12.457-9.43,12.457,0-.035.057,4.324.057,4.324L158.57,155,144.8,145.8l-3.148-41.749A3.769,3.769,0,0,1,144.869,100.095Z" transform="translate(-141.643 -94.181)" fill="#ffbf9d"/>
                </g>
                <g id="Grupo_102205" data-name="Grupo 102205" transform="translate(40.647 28.055)">
                  <g id="Grupo_102204" data-name="Grupo 102204">
                    <path id="Trazado_133061" data-name="Trazado 133061" d="M187.608,128.716a1.374,1.374,0,0,1-1.27,1.437,1.314,1.314,0,0,1-1.464-1.182,1.374,1.374,0,0,1,1.268-1.438A1.315,1.315,0,0,1,187.608,128.716Z" transform="translate(-184.871 -127.527)" fill="#263238"/>
                  </g>
                </g>
                <g id="Grupo_102207" data-name="Grupo 102207" transform="translate(38.513 23.294)">
                  <g id="Grupo_102206" data-name="Grupo 102206">
                    <path id="Trazado_133062" data-name="Trazado 133062" d="M187.226,122.008c-.163.185-1.233-.543-2.711-.482-1.477.041-2.531.844-2.7.669-.082-.077.079-.407.537-.769a3.77,3.77,0,0,1,2.151-.757,3.619,3.619,0,0,1,2.167.607C187.14,121.606,187.307,121.924,187.226,122.008Z" transform="translate(-181.797 -120.667)" fill="#263238"/>
                  </g>
                </g>
                <g id="Grupo_102209" data-name="Grupo 102209" transform="translate(27.968 28.055)">
                  <g id="Grupo_102208" data-name="Grupo 102208">
                    <path id="Trazado_133063" data-name="Trazado 133063" d="M169.34,128.716a1.373,1.373,0,0,1-1.269,1.437,1.315,1.315,0,0,1-1.464-1.182,1.375,1.375,0,0,1,1.269-1.438A1.315,1.315,0,0,1,169.34,128.716Z" transform="translate(-166.603 -127.527)" fill="#263238"/>
                  </g>
                </g>
                <g id="Grupo_102211" data-name="Grupo 102211" transform="translate(23.979 23.469)">
                  <g id="Grupo_102210" data-name="Grupo 102210">
                    <path id="Trazado_133064" data-name="Trazado 133064" d="M166.285,122.259c-.164.185-1.235-.543-2.711-.481-1.477.04-2.531.843-2.7.669-.082-.077.077-.407.538-.77a3.768,3.768,0,0,1,2.151-.757,3.623,3.623,0,0,1,2.167.607C166.2,121.858,166.365,122.175,166.285,122.259Z" transform="translate(-160.854 -120.918)" fill="#263238"/>
                  </g>
                </g>
                <g id="Grupo_102213" data-name="Grupo 102213" transform="translate(33.99 22.105)">
                  <g id="Grupo_102212" data-name="Grupo 102212">
                    <path id="Trazado_133065" data-name="Trazado 133065" d="M176.453,131.237a9.777,9.777,0,0,1,2.383-.528c.376-.053.73-.142.784-.4a1.922,1.922,0,0,0-.3-1.108q-.586-1.348-1.229-2.829c-1.71-4.029-2.964-7.348-2.8-7.415s1.681,3.143,3.392,7.173q.618,1.491,1.183,2.848a2.189,2.189,0,0,1,.254,1.473.949.949,0,0,1-.6.576,2.574,2.574,0,0,1-.637.115A9.66,9.66,0,0,1,176.453,131.237Z" transform="translate(-175.279 -118.952)" fill="#263238"/>
                  </g>
                </g>
                <g id="Grupo_102215" data-name="Grupo 102215" transform="translate(22.081 48.571)">
                  <g id="Grupo_102214" data-name="Grupo 102214">
                    <path id="Trazado_133066" data-name="Trazado 133066" d="M172.608,160.348a27.253,27.253,0,0,1-14.488-3.26s3.839,7.352,14.515,5.929Z" transform="translate(-158.12 -157.088)" fill="#ff9a6c"/>
                  </g>
                </g>
                <g id="Grupo_102216" data-name="Grupo 102216" transform="translate(30.126 36.621)">
                  <path id="Trazado_133067" data-name="Trazado 133067" d="M169.958,140.92a2.143,2.143,0,0,1,1.743-1.041,2.786,2.786,0,0,1,2.588,1.158,1.73,1.73,0,0,1,.162,1.246c-.085.216-.017.108-.176.261a4.879,4.879,0,0,1-1.944,1.314,2.092,2.092,0,0,1-2.24-.726A2.136,2.136,0,0,1,169.958,140.92Z" transform="translate(-169.711 -139.868)" fill="#ff9a6c"/>
                </g>
                <g id="Grupo_102218" data-name="Grupo 102218" transform="translate(30.385 35.645)">
                  <g id="Grupo_102217" data-name="Grupo 102217">
                    <path id="Trazado_133068" data-name="Trazado 133068" d="M170.292,138.463c.239-.024.314,1.579,1.738,2.655s3.122.823,3.145,1.047c.027.1-.366.329-1.087.381a3.994,3.994,0,0,1-2.621-.783,3.478,3.478,0,0,1-1.355-2.231C170.02,138.865,170.181,138.459,170.292,138.463Z" transform="translate(-170.085 -138.463)" fill="#263238"/>
                  </g>
                </g>
                <g id="Grupo_102220" data-name="Grupo 102220" transform="translate(23.314 18.545)">
                  <g id="Grupo_102219" data-name="Grupo 102219">
                    <path id="Trazado_133069" data-name="Trazado 133069" d="M166.55,114.679c-.106.414-1.594.367-3.3.743-1.714.342-3.057.983-3.322.646-.119-.162.087-.562.613-1a5.883,5.883,0,0,1,5.045-1.058C166.245,114.2,166.595,114.484,166.55,114.679Z" transform="translate(-159.896 -113.823)" fill="#263238"/>
                  </g>
                </g>
                <g id="Grupo_102222" data-name="Grupo 102222" transform="translate(38.29 18.682)">
                  <g id="Grupo_102221" data-name="Grupo 102221">
                    <path id="Trazado_133070" data-name="Trazado 133070" d="M187.006,116c-.336.291-1.412-.217-2.764-.429-1.345-.255-2.533-.139-2.747-.524-.092-.186.137-.493.684-.735a4.218,4.218,0,0,1,2.329-.219,4.164,4.164,0,0,1,2.111.988C187.048,115.488,187.156,115.853,187.006,116Z" transform="translate(-181.476 -114.021)" fill="#263238"/>
                  </g>
                </g>
                <g id="Grupo_102223" data-name="Grupo 102223" transform="translate(33.725 3.835)">
                  <path id="Trazado_133071" data-name="Trazado 133071" d="M174.9,92.628c.019.077.033.155.051.232l-.037.015C174.906,92.793,174.9,92.711,174.9,92.628Z" transform="translate(-174.897 -92.628)" fill="#263238"/>
                </g>
                <g id="Grupo_102224" data-name="Grupo 102224" transform="translate(0 2.589)">
                  <path id="Trazado_133072" data-name="Trazado 133072" d="M144.4,143.9a1.792,1.792,0,0,0,2.245-1.416,22.073,22.073,0,0,0,.054-6.514c-.348-2.973-2.364-6.085-2.615-9.068a53.934,53.934,0,0,1,.659-13.659,11.344,11.344,0,0,0,6.963-4.02c2.147-2.5,3.446-5.605,4.711-8.651a14.493,14.493,0,0,1-2.913,8.322,3.9,3.9,0,0,0,3.337-1.085,8.709,8.709,0,0,0,1.958-3.041,23.754,23.754,0,0,0,1.9-8.566,30.782,30.782,0,0,1-1.4,12.507,5.351,5.351,0,0,1,2.328.089,2.551,2.551,0,0,0,2.215-.471,2.778,2.778,0,0,0,.607-1.428A32.1,32.1,0,0,0,164.8,96a33.271,33.271,0,0,1,2.456,6.039,11.7,11.7,0,0,1,.045,6.444.944.944,0,0,0,1.33-.008,2.252,2.252,0,0,0,.582-1.345,16.563,16.563,0,0,0-.353-5.424c1.071,1.9,1.426,4.1,2.018,6.2s1.534,4.247,3.357,5.442a28.551,28.551,0,0,0-.267-8.217,24.835,24.835,0,0,0-2.409-6.522,19.358,19.358,0,0,0-4.342-6.043c-3.155-2.764-4.474-1.573-6.488-.521l-.237.1c-.008-.049-.01-.1-.017-.149l-.091-.429a30.219,30.219,0,0,0-15.916.745c-3.8,1.237-4.147,9.415-5.073,5.529-.56-2.351-3.608-.2-3.646-.137-4.479,8.08-9.227,20.9-9.445,41.148h0Z" transform="translate(-126.303 -90.832)" fill="#263238"/>
                </g>
              </g>
              <g id="Grupo_102231" data-name="Grupo 102231" transform="translate(5.952 0)">
                <g id="Grupo_102227" data-name="Grupo 102227" transform="translate(11.734 35.295)">
                  <g id="Grupo_102226" data-name="Grupo 102226">
                    <path id="Trazado_133073" data-name="Trazado 133073" d="M151.844,138.611a11.7,11.7,0,0,0,9.827,5.937.434.434,0,0,0,0-.868,10.815,10.815,0,0,1-9.078-5.507c-.271-.489-1.02-.051-.749.438Z" transform="translate(-151.786 -137.959)" fill="#e0e0e0"/>
                  </g>
                </g>
                <g id="Grupo_102228" data-name="Grupo 102228" transform="translate(19.409 39.83)">
                  <path id="Trazado_133074" data-name="Trazado 133074" d="M166.2,148.2l-1.911-.3a1.712,1.712,0,0,1-1.426-1.957h0a1.712,1.712,0,0,1,1.957-1.426l1.911.3a1.713,1.713,0,0,1,1.426,1.957h0A1.712,1.712,0,0,1,166.2,148.2Z" transform="translate(-162.846 -144.493)" fill="#ff725e"/>
                </g>
                <g id="Grupo_102229" data-name="Grupo 102229" transform="translate(0 25.172)">
                  <ellipse id="Elipse_5256" data-name="Elipse 5256" cx="7.868" cy="7.868" rx="7.868" ry="7.868" fill="#ff725e"/>
                </g>
                <g id="Grupo_102230" data-name="Grupo 102230" transform="translate(5.643)">
                  <path id="Trazado_133075" data-name="Trazado 133075" d="M143.053,113.4s-1.391-18.778,11.676-25.911l3.536-.384s-13.489,7.577-10.67,28.055Z" transform="translate(-143.01 -87.102)" fill="#ff725e"/>
                </g>
              </g>
            </g>
          </g>
        </g>
      </g>
      <g id="Speech_Bubble_1" data-name="Speech Bubble 1" transform="translate(423.328 70.745)">
        <g id="Grupo_102247" data-name="Grupo 102247" transform="translate(0 0)">
          <g id="Grupo_102242" data-name="Grupo 102242">
            <g id="Grupo_102241" data-name="Grupo 102241">
              <g id="Grupo_102240" data-name="Grupo 102240">
                <g id="Grupo_102239" data-name="Grupo 102239">
                  <g id="Grupo_102238" data-name="Grupo 102238">
                    <g id="Grupo_102235" data-name="Grupo 102235" transform="translate(0.219 0.272)">
                      <path id="Trazado_133076" data-name="Trazado 133076" d="M231.314,121.318l5.642-2.827a24.068,24.068,0,1,0-7.858-3.552l-.012,0Z" transform="translate(-218.723 -71.137)" fill="#fff"/>
                    </g>
                    <g id="Grupo_102237" data-name="Grupo 102237">
                      <g id="Grupo_102236" data-name="Grupo 102236">
                        <path id="Trazado_133077" data-name="Trazado 133077" d="M231.217,121.2a3.026,3.026,0,0,1-.158-.388l-.448-1.2-1.732-4.755a.115.115,0,0,1,.069-.147.126.126,0,0,1,.078,0l.013,0-.1.2a23.934,23.934,0,0,1-7.756-8.672,24.759,24.759,0,0,1-2.454-7.3,24.194,24.194,0,0,1,.171-8.75,24.715,24.715,0,0,1,3.8-8.893,23.721,23.721,0,0,1,7.618-7.166,24.807,24.807,0,0,1,10.62-3.317,24.351,24.351,0,0,1,20.8,9.209,24.741,24.741,0,0,1,4.712,10.2,23.655,23.655,0,0,1-.256,10.552,24.769,24.769,0,0,1-4.162,8.815,24.3,24.3,0,0,1-6.474,5.968l-1.785,1c-.592.314-1.211.548-1.8.818a21.763,21.763,0,0,1-3.541,1.167,23.9,23.9,0,0,1-11.6-.078l.077-.008-4.247,2.055-1.085.515a2.871,2.871,0,0,1-.36.158,3.991,3.991,0,0,1,.379-.213l1.086-.573,4.127-2.141a.115.115,0,0,1,.077-.009,23.994,23.994,0,0,0,11.459-.057,21.624,21.624,0,0,0,3.477-1.178c.575-.271,1.183-.5,1.763-.818l1.747-1a23.977,23.977,0,0,0,6.321-5.894,24.361,24.361,0,0,0,4.043-8.656,23.2,23.2,0,0,0,.222-10.322,24.25,24.25,0,0,0-4.622-9.962,23.843,23.843,0,0,0-20.321-9A24.318,24.318,0,0,0,230.59,74.6a23.266,23.266,0,0,0-7.472,6.989,24.3,24.3,0,0,0-3.757,8.7,23.86,23.86,0,0,0-.216,8.586,24.518,24.518,0,0,0,2.361,7.194,24,24,0,0,0,7.561,8.652.115.115,0,0,1,.031.16.119.119,0,0,1-.135.044l-.012,0,.146-.146,1.581,4.732c.172.526.306.938.407,1.246C231.176,121.038,231.221,121.188,231.217,121.2Z" transform="translate(-218.408 -70.744)" fill="#263238"/>
                      </g>
                    </g>
                  </g>
                </g>
              </g>
            </g>
          </g>
          <g id="Grupo_102246" data-name="Grupo 102246" transform="translate(14.004 22.735)">
            <g id="Grupo_102243" data-name="Grupo 102243">
              <path id="Trazado_133078" data-name="Trazado 133078" d="M243.842,106.131a2.628,2.628,0,1,1-2.628-2.628A2.628,2.628,0,0,1,243.842,106.131Z" transform="translate(-238.586 -103.503)" fill="#263238"/>
            </g>
            <g id="Grupo_102244" data-name="Grupo 102244" transform="translate(8.852)">
              <path id="Trazado_133079" data-name="Trazado 133079" d="M256.6,106.131a2.628,2.628,0,1,1-2.628-2.628A2.629,2.629,0,0,1,256.6,106.131Z" transform="translate(-251.341 -103.503)" fill="#263238"/>
            </g>
            <g id="Grupo_102245" data-name="Grupo 102245" transform="translate(17.471)">
              <path id="Trazado_133080" data-name="Trazado 133080" d="M269.016,106.131a2.628,2.628,0,1,1-2.628-2.628A2.628,2.628,0,0,1,269.016,106.131Z" transform="translate(-263.76 -103.503)" fill="#263238"/>
            </g>
          </g>
        </g>
      </g>
    </g>
  </g>
</svg>
